<?xml version="1.0" standalone="no"?>
<!DOCTYPE svg PUBLIC "-//W3C//DTD SVG 1.1//EN" "http://www.w3.org/Graphics/SVG/1.1/DTD/svg11.dtd" >
<svg>
<metadata>
Created by FontForge 20090622 at Sat Jul 27 12:01:44 2019
 By deploy user
Copyright 2016 Indian Type Foundry. All Rights Reserved.
</metadata>
<defs>
<font id="DiodrumArabic-Light" horiz-adv-x="0" >
  <font-face 
    font-family="DiodrumArabic-Light"
    font-weight="400"
    font-stretch="normal"
    units-per-em="1000"
    panose-1="0 0 4 0 0 0 0 0 0 0"
    ascent="792"
    descent="-208"
    x-height="501"
    cap-height="700"
    bbox="-1537 -639 1579 1254"
    underline-thickness="0"
    underline-position="0"
    unicode-range="U+000D-U+FEFC"
  />
<missing-glyph horiz-adv-x="756" 
d="M160 0v701h436v-701h-436zM199 662v-623h358v623h-358z" />
    <glyph glyph-name="uniFEF5" unicode="&#xfedf;&#xfe82;" horiz-adv-x="592" arabic-form="isolated" 
d="M254 724l13 -26q-33 -25 -75 -25q-24 0 -66 14t-58 14q-28 0 -54 -30l-26 20q36 46 83 46q17 0 57 -14t65 -14q31 0 61 15zM223 0q-89 0 -155 21v46q65 -17 139 -20q4 32 4 72q0 243 -119 481l41 23q120 -259 120 -503q0 -38 -3 -72q101 5 187 64q23 73 23 191
q0 110 -6 416l46 5q5 -266 5 -387q0 -71 -4.5 -120.5t-10 -73t-17.5 -63.5q-38 -25 -62 -38t-76.5 -27.5t-111.5 -14.5z" />
    <glyph glyph-name="uniFEF6" unicode="&#xfee0;&#xfe82;" horiz-adv-x="684" arabic-form="final" 
d="M254 724l13 -26q-33 -25 -75 -25q-24 0 -66 14t-58 14q-28 0 -54 -30l-26 20q36 46 83 46q17 0 57 -14t65 -14q31 0 61 15zM684 0h-17q-76 0 -125.5 33t-62.5 99q-27 -63 -92 -97.5t-164 -34.5q-89 0 -155 21v46q65 -17 139 -20q4 32 4 72q0 243 -119 481l41 23
q120 -259 120 -503q0 -38 -3 -72q214 13 214 199v472l46 5v-501q0 -94 40.5 -133.5t125.5 -39.5h8v-50z" />
    <glyph glyph-name="uniFEF7" unicode="&#xfedf;&#xfe84;" horiz-adv-x="592" arabic-form="isolated" 
d="M236 640q-96 -17 -201 -57l-11 32q50 20 72 27q-51 26 -51 80q0 43 25 65t63 22q34 0 72 -18l-13 -31q-33 12 -59 12q-24 0 -39.5 -13t-15.5 -37q0 -26 20.5 -44t55.5 -18q7 0 75 13zM223 0q-89 0 -155 21v46q65 -17 139 -20q4 32 4 72q0 227 -89 425l42 16
q89 -207 89 -440q0 -38 -3 -72q101 5 187 64q23 73 23 191q0 49 -6 416l46 5q5 -266 5 -387q0 -71 -4.5 -120.5t-10 -73t-17.5 -63.5q-38 -25 -62 -38t-76.5 -27.5t-111.5 -14.5z" />
    <glyph glyph-name="uniFEF8" unicode="&#xfee0;&#xfe84;" horiz-adv-x="686" arabic-form="final" 
d="M236 640q-96 -17 -201 -57l-11 32q50 20 72 27q-51 26 -51 80q0 43 25 65t63 22q34 0 72 -18l-13 -31q-33 12 -59 12q-24 0 -39.5 -13t-15.5 -37q0 -26 20.5 -44t55.5 -18q7 0 75 13zM684 0h-17q-76 0 -125.5 33t-62.5 99q-27 -63 -92 -97.5t-164 -34.5q-89 0 -155 21v46
q65 -17 139 -20q4 32 4 72q0 227 -89 425l42 16q89 -207 89 -440q0 -38 -3 -72q214 13 214 199v472l46 5v-501q0 -94 40.5 -133.5t125.5 -39.5h8v-50z" />
    <glyph glyph-name="uniFEF9" unicode="&#xfedf;&#xfe88;" horiz-adv-x="599" arabic-form="isolated" 
d="M230 0q-87 0 -155 21v46q65 -17 139 -20q4 32 4 72q0 233 -146 499l41 27q147 -289 147 -525q0 -38 -3 -72q104 5 188 64q22 70 22 187q0 115 -5 420l45 5q5 -278 5 -394q0 -68 -4.5 -116t-10 -71t-17.5 -63q-39 -25 -62 -38t-75.5 -27.5t-112.5 -14.5zM297 -253
q-96 -17 -201 -57l-11 32q50 20 72 27q-51 26 -51 80q0 43 25 65t63 22q34 0 72 -18l-13 -31q-33 12 -59 12q-24 0 -39.5 -13t-15.5 -37q0 -26 20.5 -44t55.5 -18q7 0 75 13z" />
    <glyph glyph-name="uniFEFA" unicode="&#xfee0;&#xfe88;" horiz-adv-x="692" arabic-form="final" 
d="M692 0h-18q-76 0 -125.5 33t-62.5 99q-26 -63 -91.5 -97.5t-164.5 -34.5q-87 0 -155 21v46q65 -17 139 -20q4 32 4 72q0 233 -146 499l41 27q147 -289 147 -525q0 -38 -3 -72q215 13 215 199v472l45 5v-501q0 -94 40.5 -133.5t125.5 -39.5h9v-50zM297 -253
q-96 -17 -201 -57l-11 32q50 20 72 27q-51 26 -51 80q0 43 25 65t63 22q34 0 72 -18l-13 -31q-33 12 -59 12q-24 0 -39.5 -13t-15.5 -37q0 -26 20.5 -44t55.5 -18q7 0 75 13z" />
    <glyph glyph-name="uniFEFB" unicode="&#xfedf;&#xfe8e;" horiz-adv-x="599" arabic-form="isolated" 
d="M230 0q-87 0 -155 21v46q65 -17 139 -20q4 32 4 72q0 233 -146 499l41 27q147 -289 147 -525q0 -38 -3 -72q104 5 188 64q22 70 22 187q0 115 -5 420l45 5q5 -278 5 -394q0 -68 -4.5 -116t-10 -71t-17.5 -63q-39 -25 -62 -38t-75.5 -27.5t-112.5 -14.5z" />
    <glyph glyph-name="uniFEFC" unicode="&#xfee0;&#xfe8e;" horiz-adv-x="692" arabic-form="final" 
d="M692 0h-18q-76 0 -125.5 33t-62.5 99q-26 -63 -91.5 -97.5t-164.5 -34.5q-87 0 -155 21v46q65 -17 139 -20q4 32 4 72q0 233 -146 499l41 27q147 -289 147 -525q0 -38 -3 -72q215 13 215 199v472l45 5v-501q0 -94 40.5 -133.5t125.5 -39.5h9v-50z" />
    <glyph glyph-name="uni066E.init" unicode="&#x66e;" horiz-adv-x="319" 
d="M0 0q-9 0 -15 7t-6 17q0 11 6 18.5t15 7.5h3q124 0 193 39q3 25 3 57q0 101 -27 193l43 13q27 -98 27 -193q0 -62 -11 -102q-88 -57 -228 -57h-3z" />
    <glyph glyph-name="uni066E.medi" unicode="&#x66e;" horiz-adv-x="425" 
d="M0 0q-9 0 -15 7t-6 17q0 11 6 18.5t15 7.5h17q63 0 103.5 11t59.5 34t25.5 48t6.5 63v124l44 4v-127q0 -73 -20 -114q66 -43 183 -43h6v-50h-8q-130 0 -207 56q-56 -56 -194 -56h-16z" />
    <glyph glyph-name="uni066E.fina" unicode="&#x66e;" horiz-adv-x="1007" 
d="M990 0q-136 0 -209 70q-47 -45 -140 -63.5t-243 -18.5q-96 0 -161.5 14.5t-99 42t-47 60t-13.5 77.5q0 80 34 180l41 -11q-28 -97 -28 -156q0 -36 11 -62t40.5 -49t89 -34.5t147.5 -11.5q116 0 192.5 12t115 36t52.5 51.5t14 66.5v126l45 4v-130q0 -55 -21 -95
q34 -28 76 -43.5t115 -15.5h6v-50h-17z" />
    <glyph glyph-name="uni0672.fina" unicode="&#x672;" horiz-adv-x="312" 
d="M50 683q-31 0 -60 -24l-20 25q37 37 84 37q14 0 42 -11.5t49 -11.5q13 0 31 2q-35 9 -52.5 34.5t-17.5 57.5q0 48 26.5 71.5t63.5 23.5q34 0 73 -18l-14 -32q-31 13 -58 13q-25 0 -40.5 -14.5t-15.5 -42.5q0 -30 20 -50t55 -20q7 0 16 2.5t16 5.5l20.5 9t19.5 9l12 -32
l-41 -19.5t-42.5 -20t-34 -11t-39.5 -5.5q-25 0 -53 11t-40 11zM312 50v-50h-21q-115 0 -159.5 60.5t-44.5 184.5v360l46 5v-361q0 -111 37.5 -155t129.5 -44h12z" />
    <glyph glyph-name="uni06C2.fina" unicode="&#x6c2;" horiz-adv-x="506" 
d="M293 351q-96 -17 -201 -57l-11 32q50 20 72 27q-51 26 -51 80q0 43 25 65t63 22q34 0 72 -18l-13 -31q-33 12 -59 12q-24 0 -39.5 -13t-15.5 -37q0 -26 20.5 -44t55.5 -18q7 0 75 13zM474 50h32v-50h-31q-45 0 -81.5 18t-59.5 44t-43 52t-43.5 44t-49.5 18
q-49 0 -120 -66l-30 34q82 80 158 80q33 0 60.5 -18t47.5 -43.5l40.5 -51t51 -43.5t68.5 -18z" />
    <glyph glyph-name="uni06C3.fina" unicode="&#x6c3;" horiz-adv-x="506" 
d="M277 406l45 -41l-38 -42l-45 39zM145 402l45 -41l-38 -42l-45 39zM474 50h32v-50h-31q-45 0 -81.5 18t-59.5 44t-43 52t-43.5 44t-49.5 18q-49 0 -120 -66l-30 34q82 80 158 80q33 0 60.5 -18t47.5 -43.5l40.5 -51t51 -43.5t68.5 -18z" />
    <glyph glyph-name="uniFB50" unicode="&#x671;" horiz-adv-x="220" arabic-form="isolated" 
d="M164 699q69 0 69 44q0 31 -19 46.5t-45 15.5q-50 0 -99 -86l18 -6t22.5 -7t22.5 -4.5t31 -2.5zM32 690q-27 0 -56 -30l-24 25q33 41 77 41h6q36 67 69 92.5t71 25.5q41 0 67 -27.5t26 -69.5q0 -38 -27.5 -61.5t-80.5 -23.5q-36 0 -77 14t-51 14zM133 0h-46v607l46 5v-612
z" />
    <glyph glyph-name="uniFB51" unicode="&#x671;" horiz-adv-x="312" arabic-form="final" 
d="M182 699q69 0 69 44q0 31 -19 46.5t-45 15.5q-50 0 -99 -86l18 -6t22.5 -7t22.5 -4.5t31 -2.5zM50 690q-27 0 -56 -30l-24 25q33 41 77 41h6q36 67 69 92.5t71 25.5q41 0 67 -27.5t26 -69.5q0 -38 -27.5 -61.5t-80.5 -23.5q-36 0 -77 14t-51 14zM312 50v-50h-21
q-115 0 -159.5 60.5t-44.5 184.5v360l46 5v-361q0 -111 37.5 -155t129.5 -44h12z" />
    <glyph glyph-name="uniFB56" unicode="&#x67e;" horiz-adv-x="904" arabic-form="isolated" 
d="M399 -12q-97 0 -162 14.5t-99 42t-47.5 60t-13.5 77.5q0 77 35 180l41 -11q-28 -103 -28 -156q0 -36 10.5 -61.5t39.5 -48.5t88.5 -35t148.5 -12q217 0 367 72q2 34 2 51q0 90 -27 196l45 12q28 -102 28 -192q0 -60 -13 -100q-63 -39 -172.5 -64t-242.5 -25zM508 -182
l-45 41l38 41l45 -38zM376 -186l-45 41l38 41l45 -38zM446 -285l-44 41l37 41l44 -38z" />
    <glyph glyph-name="uniFB57" unicode="&#x67e;" horiz-adv-x="1007" arabic-form="final" 
d="M990 0q-136 0 -209 70q-47 -45 -140 -63.5t-243 -18.5q-96 0 -161.5 14.5t-99 42t-47 60t-13.5 77.5q0 80 34 180l41 -11q-28 -97 -28 -156q0 -36 11 -62t40.5 -49t89 -34.5t147.5 -11.5q116 0 192.5 12t115 36t52.5 51.5t14 66.5v126l45 4v-130q0 -55 -21 -95
q34 -28 76 -43.5t115 -15.5h6v-50h-17zM498 -182l-45 41l38 41l45 -38zM366 -186l-45 41l38 41l45 -38zM436 -285l-44 41l37 41l44 -38z" />
    <glyph glyph-name="uniFB58" unicode="&#x67e;" horiz-adv-x="319" arabic-form="initial" 
d="M0 0q-9 0 -15 7t-6 17q0 11 6 18.5t15 7.5h3q124 0 193 39q3 25 3 57q0 101 -27 193l43 13q27 -98 27 -193q0 -62 -11 -102q-88 -57 -228 -57h-3zM146 -176l-45 41l38 41l45 -38zM14 -180l-45 41l38 41l45 -38zM84 -279l-44 41l37 41l44 -38z" />
    <glyph glyph-name="uniFB59" unicode="&#x67e;" horiz-adv-x="425" arabic-form="medial" 
d="M0 0q-9 0 -15 7t-6 17q0 11 6 18.5t15 7.5h17q63 0 103.5 11t59.5 34t25.5 48t6.5 63v124l44 4v-127q0 -73 -20 -114q66 -43 183 -43h6v-50h-8q-130 0 -207 56q-56 -56 -194 -56h-16zM159 -171l-45 41l38 41l45 -38zM27 -175l-45 41l38 41l45 -38zM97 -274l-44 41l37 41
l44 -38z" />
    <glyph glyph-name="uniFB66" unicode="&#x679;" horiz-adv-x="904" arabic-form="isolated" 
d="M463 393q69 0 120 16q2 14 2 22q0 63 -54 63q-53 0 -117 -100q15 -1 49 -1zM458 359q-64 0 -111 6v33q12 -1 38 -3q12 24 12 86v109l33 5v-93q0 -26 -5 -45q49 71 111 71q40 0 59.5 -24t19.5 -61q0 -28 -11 -58q-47 -26 -146 -26zM399 -12q-97 0 -162 14.5t-99 42
t-47.5 60t-13.5 77.5q0 77 35 180l41 -11q-28 -103 -28 -156q0 -36 10.5 -61.5t39.5 -48.5t88.5 -35t148.5 -12q217 0 367 72q2 34 2 51q0 90 -27 196l45 12q28 -102 28 -192q0 -60 -13 -100q-63 -39 -172.5 -64t-242.5 -25z" />
    <glyph glyph-name="uniFB67" unicode="&#x679;" horiz-adv-x="1007" arabic-form="final" 
d="M478 405q69 0 120 16q2 14 2 22q0 63 -54 63q-53 0 -117 -100q15 -1 49 -1zM473 371q-65 0 -111 6v33q12 -1 38 -3q12 24 12 86v109l33 5v-93q0 -26 -5 -45q49 71 111 71q40 0 59.5 -24t19.5 -61q0 -28 -11 -58q-47 -26 -146 -26zM990 0q-136 0 -209 70
q-47 -45 -140 -63.5t-243 -18.5q-96 0 -161.5 14.5t-99 42t-47 60t-13.5 77.5q0 80 34 180l41 -11q-28 -97 -28 -156q0 -36 11 -62t40.5 -49t89 -34.5t147.5 -11.5q116 0 192.5 12t115 36t52.5 51.5t14 66.5v126l45 4v-130q0 -55 -21 -95q34 -28 76 -43.5t115 -15.5h6v-50
h-17z" />
    <glyph glyph-name="uniFB68" unicode="&#x679;" horiz-adv-x="319" arabic-form="initial" 
d="M99 462q69 0 120 16q2 14 2 22q0 63 -54 63q-53 0 -117 -100q15 -1 49 -1zM94 428q-64 0 -111 6v33q12 -1 38 -3q12 24 12 86v109l33 5v-93q0 -26 -5 -45q49 71 111 71q40 0 59.5 -24t19.5 -61q0 -28 -11 -58q-47 -26 -146 -26zM0 0q-9 0 -15 7t-6 17q0 11 6 18.5t15 7.5
h3q124 0 193 39q3 25 3 57q0 101 -27 193l43 13q27 -98 27 -193q0 -62 -11 -102q-88 -57 -228 -57h-3z" />
    <glyph glyph-name="uniFB69" unicode="&#x679;" horiz-adv-x="425" arabic-form="medial" 
d="M118 446q69 0 120 16q2 14 2 22q0 63 -54 63q-53 0 -117 -100q15 -1 49 -1zM113 412q-65 0 -111 6v33q12 -1 38 -3q12 24 12 86v109l33 5v-93q0 -26 -5 -45q49 71 111 71q40 0 59.5 -24t19.5 -61q0 -28 -11 -58q-47 -26 -146 -26zM0 0q-9 0 -15 7t-6 17q0 11 6 18.5
t15 7.5h17q63 0 103.5 11t59.5 34t25.5 48t6.5 63v124l44 4v-127q0 -73 -20 -114q66 -43 183 -43h6v-50h-8q-130 0 -207 56q-56 -56 -194 -56h-16z" />
    <glyph glyph-name="uniFB7A" unicode="&#x686;" horiz-adv-x="638" arabic-form="isolated" 
d="M346 -274q-128 0 -198 58t-70 158q0 240 429 335q-33 17 -102.5 59.5t-113.5 61.5t-84 19q-58 0 -92 -61l-37 16q22 49 54 69.5t79 20.5q49 0 109.5 -29.5t136.5 -77.5t125 -69l-13 -39q-445 -87 -445 -297q0 -86 62 -131t168 -45q114 0 239 55l15 -38q-117 -65 -262 -65
zM447 -13l-39 36l34 37l39 -34zM329 -17l-39 36l33 38l40 -34zM392 -105l-39 36l33 36l39 -33z" />
    <glyph glyph-name="uniFB7B" unicode="&#x686;" horiz-adv-x="710" arabic-form="final" 
d="M600 -267q-116 -65 -249 -65q-131 0 -201.5 56.5t-70.5 154.5q0 122 99 196.5t262 109.5q-137 147 -218 147q-39 0 -61.5 -13.5t-44.5 -52.5l-37 16q24 53 57.5 74.5t89.5 21.5q63 0 128 -51t147 -142l48 -54t42.5 -39t54.5 -33t57 -9h7v-50h-9q-17 0 -32 2t-31 9
t-26 10.5t-26.5 16.5t-23 17.5t-24 22.5t-21 22l-23.5 26.5t-23 25.5q-166 -41 -256 -103.5t-90 -160.5q0 -84 63.5 -128t171.5 -44q106 0 225 55zM431 -82l-39 36l34 37l39 -34zM313 -86l-39 36l33 38l40 -34zM376 -174l-39 36l33 36l39 -33z" />
    <glyph glyph-name="uniFB7C" unicode="&#x686;" horiz-adv-x="685" arabic-form="initial" 
d="M0 0q-9 0 -15 7t-6 17q0 11 6 18.5t15 7.5h11q77 0 148 6.5t140.5 22t104.5 24t103.5 30t74.5 23.5q-37 21 -122 75t-135.5 76t-98.5 22q-29 0 -48.5 -13t-35.5 -48l-38 15q21 50 50.5 70.5t73.5 20.5q58 0 119.5 -29t151 -87.5t147.5 -88.5l-14 -42q-31 -8 -107 -33.5
t-137 -43.5t-163 -34t-208 -16h-17zM365 -162l-45 41l38 41l45 -38zM233 -166l-45 41l38 41l45 -38zM303 -265l-44 41l37 41l44 -38z" />
    <glyph glyph-name="uniFB7D" unicode="&#x686;" horiz-adv-x="809" arabic-form="medial" 
d="M0 0q-9 0 -15 7t-6 17q0 11 6 18.5t15 7.5h16q277 0 526 59q-138 121 -213.5 175t-120.5 54q-29 0 -48 -13t-37 -48l-36 16q21 49 50 69.5t73 20.5q31 0 67.5 -15.5t84.5 -51t84 -65.5l101 -88q8 -8 14 -13l12 -10q69 -60 109.5 -75t110.5 -15h16v-50h-23
q-69 0 -111 15.5t-95 60.5q-273 -76 -568 -76h-12zM399 -174l-45 41l38 41l45 -38zM267 -178l-45 41l38 41l45 -38zM337 -277l-44 41l37 41l44 -38z" />
    <glyph glyph-name="uniFB88" unicode="&#x688;" horiz-adv-x="510" arabic-form="isolated" 
d="M194 554q69 0 120 16q2 14 2 22q0 63 -54 63q-53 0 -117 -100q15 -1 49 -1zM189 520q-65 0 -111 6v33q12 -1 38 -3q12 24 12 86v109l33 5v-93q0 -26 -5 -45q49 71 111 71q40 0 59.5 -24t19.5 -61q0 -28 -11 -58q-47 -26 -146 -26zM170 -12q-71 0 -131 10v48q68 -8 141 -8
q124 0 213 37q-5 90 -54.5 169t-152.5 174l32 33q116 -102 165.5 -195.5t49.5 -168.5q0 -27 -4 -46q-96 -53 -259 -53z" />
    <glyph glyph-name="uniFB89" unicode="&#x688;" horiz-adv-x="534" arabic-form="final" 
d="M204 540q69 0 120 16q2 14 2 22q0 63 -54 63q-53 0 -117 -100q15 -1 49 -1zM199 506q-65 0 -111 6v33q12 -1 38 -3q12 24 12 86v109l33 5v-93q0 -26 -5 -45q49 71 111 71q40 0 59.5 -24t19.5 -61q0 -28 -11 -58q-47 -26 -146 -26zM511 0q-71 0 -103 47q-104 -57 -255 -57
q-64 0 -114 8v49q56 -7 116 -7q132 0 231 45q-9 20 -21 50q-63 156 -163 276l32 31q100 -114 172 -288q26 -69 46.5 -86.5t71.5 -17.5h10v-50h-23z" />
    <glyph glyph-name="uniFB8A" unicode="&#x698;" horiz-adv-x="400" arabic-form="isolated" 
d="M227 586l44 -41l-37 -41l-44 38zM297 487l45 -41l-38 -41l-45 38zM165 483l45 -41l-38 -41l-45 38zM323 84q0 -154 -71 -233.5t-185 -79.5q-33 0 -67 6l8 44q25 -5 57 -5q72 0 122.5 40t71.5 98.5t21 129.5q0 89 -34 233l47 13q30 -137 30 -246z" />
    <glyph glyph-name="uniFB8B" unicode="&#x698;" horiz-adv-x="514" arabic-form="final" 
d="M227 586l44 -41l-37 -41l-44 38zM297 487l45 -41l-38 -41l-45 38zM165 483l45 -41l-38 -41l-45 38zM67 -229q-33 0 -67 6l8 44q25 -5 57 -5q107 0 161.5 78t54.5 190q0 73 -41 234l43 12q7 -28 18.5 -78t19.5 -81q32 -121 166 -121h27v-50h-36q-106 0 -155 77
q-1 -150 -72 -228t-184 -78z" />
    <glyph glyph-name="uniFB8C" unicode="&#x691;" horiz-adv-x="400" arabic-form="isolated" 
d="M217 439q69 0 120 16q2 14 2 22q0 63 -54 63q-53 0 -117 -100q15 -1 49 -1zM212 405q-64 0 -111 6v33q12 -1 38 -3q12 24 12 86v109l33 5v-93q0 -26 -5 -45q49 71 111 71q40 0 59.5 -24t19.5 -61q0 -28 -11 -58q-47 -26 -146 -26zM323 84q0 -154 -71 -233.5t-185 -79.5
q-33 0 -67 6l8 44q25 -5 57 -5q72 0 122.5 40t71.5 98.5t21 129.5q0 89 -34 233l47 13q30 -137 30 -246z" />
    <glyph glyph-name="uniFB8D" unicode="&#x691;" horiz-adv-x="514" arabic-form="final" 
d="M217 439q69 0 120 16q2 14 2 22q0 63 -54 63q-53 0 -117 -100q15 -1 49 -1zM212 405q-64 0 -111 6v33q12 -1 38 -3q12 24 12 86v109l33 5v-93q0 -26 -5 -45q49 71 111 71q40 0 59.5 -24t19.5 -61q0 -28 -11 -58q-47 -26 -146 -26zM67 -229q-33 0 -67 6l8 44q25 -5 57 -5
q107 0 161.5 78t54.5 190q0 73 -41 234l43 12q7 -28 18.5 -78t19.5 -81q32 -121 166 -121h27v-50h-36q-106 0 -155 77q-1 -150 -72 -228t-184 -78z" />
    <glyph glyph-name="uniFB8E" unicode="&#x6a9;" horiz-adv-x="889" arabic-form="isolated" 
d="M409 -12q-80 0 -140 10t-96 26.5t-58 42t-30 53t-8 62.5q0 78 35 181l41 -12q-29 -101 -29 -154q0 -36 11 -62t41.5 -49t91.5 -35t152 -12q201 0 331 53v8q0 100 -82.5 189.5t-225.5 138.5v59q174 145 407 221v-48q-200 -61 -367 -197q151 -59 230.5 -152.5t79.5 -200.5
q0 -25 -3 -52q-57 -31 -162.5 -50.5t-218.5 -19.5z" />
    <glyph glyph-name="uniFB8F" unicode="&#x6a9;" horiz-adv-x="988" arabic-form="final" 
d="M970 0q-61 0 -95.5 16t-61.5 50q-151 -78 -404 -78q-80 0 -140 10t-96 26.5t-58 42t-30 53t-8 62.5q0 78 35 181l41 -11q-29 -109 -29 -155q0 -36 11 -62t41.5 -49t91.5 -35t152 -12q228 0 365 66q-1 2 -4 7t-5 7q-25 39 -47 67t-61 70.5t-96 86t-130 86.5v59
q170 143 408 220v-49q-202 -61 -370 -198q50 -31 91.5 -61t76 -62l54.5 -51t47.5 -54t32.5 -42l30 -42q22 -31 31.5 -42.5t29 -28.5t43 -22.5t57.5 -5.5h15v-50h-18z" />
    <glyph glyph-name="uniFB90" unicode="&#x6a9;" horiz-adv-x="489" arabic-form="initial" 
d="M0 0q-9 0 -15 7t-6 17q0 11 6 18.5t15 7.5h22q201 0 329 49v1q0 100 -82 190t-224 138v60q174 145 406 220v-48q-200 -61 -367 -197q151 -59 230.5 -152.5t79.5 -200.5q0 -28 -3 -43q-59 -31 -156.5 -49t-207.5 -18h-27z" />
    <glyph glyph-name="uniFB91" unicode="&#x6a9;" horiz-adv-x="513" arabic-form="medial" 
d="M0 0q-9 0 -15 7t-6 17q0 11 6 18.5t15 7.5h19q203 0 316 57q-1 2 -3.5 6t-3.5 6q-24 41 -41.5 67t-52 69.5t-84 87t-112.5 85.5v56q174 147 410 224v-48q-205 -63 -371 -200q27 -19 52 -39l44 -36t38.5 -36l32 -33t28.5 -33l23.5 -29t21 -29.5l17.5 -26.5t16.5 -26.5
t14.5 -23.5q2 -4 13 -21l13 -20t11.5 -15.5t14 -15.5t14.5 -10.5t19 -9t22 -4t28 -2.5h13v-50h-16q-54 0 -84.5 16.5t-53.5 50.5q-60 -32 -151 -49.5t-185 -17.5h-23z" />
    <glyph glyph-name="uniFB92" unicode="&#x6af;" horiz-adv-x="889" arabic-form="isolated" 
d="M520 610v44q98 66 231 115v-41q-129 -51 -231 -118zM409 -12q-80 0 -140 10t-96 26.5t-58 42t-30 53t-8 62.5q0 78 35 181l41 -12q-29 -95 -29 -154q0 -36 11 -62t41.5 -49t91.5 -35t152 -12q201 0 331 53v8q0 101 -82.5 190.5t-225.5 137.5v58q175 145 407 220v-48
q-200 -61 -366 -196q151 -59 230 -152t79 -200q0 -25 -3 -52q-57 -31 -162.5 -50.5t-218.5 -19.5z" />
    <glyph glyph-name="uniFB93" unicode="&#x6af;" horiz-adv-x="988" arabic-form="final" 
d="M520 610v44q98 66 231 115v-41q-129 -51 -231 -118zM970 0q-61 0 -95.5 16t-61.5 50q-151 -78 -404 -78q-80 0 -140 10t-96 26.5t-58 42t-30 53t-8 62.5q0 78 35 181l41 -12q-29 -99 -29 -154q0 -36 11 -62t41.5 -49t91.5 -35t152 -12q228 0 365 66q-1 2 -4 7t-5 7
q-27 40 -47.5 66.5t-60 70t-96 86.5t-129.5 86v58q167 142 407 220v-48q-200 -61 -369 -198q69 -42 122.5 -83.5t93.5 -84.5t57 -64.5t47 -63.5q3 -4 4 -5.5l3 -4.5t4 -5q22 -31 31.5 -42.5t29 -28.5t43 -22.5t57.5 -5.5h15v-50h-18z" />
    <glyph glyph-name="uniFB94" unicode="&#x6af;" horiz-adv-x="489" arabic-form="initial" 
d="M121 610v44q36 25 102.5 58.5t129.5 56.5v-41q-130 -51 -232 -118zM0 0q-9 0 -15 7t-6 17q0 11 6 18.5t15 7.5h21q202 0 331 50q-1 101 -83 190t-224 138v59q174 144 406 219v-48q-198 -60 -367 -196q152 -59 231 -152t79 -200q0 -28 -3 -43q-59 -31 -156.5 -49
t-208.5 -18h-26z" />
    <glyph glyph-name="uniFB95" unicode="&#x6af;" horiz-adv-x="513" arabic-form="medial" 
d="M121 610v44q36 25 102.5 58.5t129.5 56.5v-41q-130 -51 -232 -118zM0 0q-9 0 -15 7t-6 17q0 11 6 18.5t15 7.5h19q205 0 317 56q-1 1 -8 13q-33 55 -57 90.5t-86.5 99t-144.5 118.5v58q174 144 408 221v-47q-205 -63 -371 -200q61 -43 107.5 -84.5t80.5 -83t49.5 -64.5
l40.5 -63l10 -16q2 -4 13 -21l13 -20t11.5 -15.5t14 -15.5t14.5 -10.5t19 -9t22 -4t28 -2.5h13v-50h-16q-54 0 -84.5 16.5t-53.5 50.5q-60 -32 -151 -49.5t-185 -17.5h-23z" />
    <glyph glyph-name="uniFB9E" unicode="&#x6ba;" horiz-adv-x="761" arabic-form="isolated" 
d="M643 315q41 -141 41 -241q0 -134 -87.5 -211.5t-252.5 -77.5q-130 0 -198.5 61t-68.5 170q0 117 54 232l39 -18q-46 -102 -46 -203q0 -90 56 -141t173 -51q133 0 209.5 61.5t76.5 164.5q0 114 -39 239z" />
    <glyph glyph-name="uniFB9F" unicode="&#x6ba;" horiz-adv-x="810" arabic-form="final" 
d="M344 -239q-130 0 -198.5 61t-68.5 170q0 118 54 231l39 -17q-46 -102 -46 -203q0 -90 56 -141t173 -51q133 0 209.5 61.5t76.5 164.5q0 114 -39 239l43 15q36 -124 40 -206q49 -35 120 -35h7v-50h-16q-65 0 -111 27q-8 -124 -95 -195t-244 -71z" />
    <glyph glyph-name="uniFBA6" unicode="&#x6c1;" horiz-adv-x="488" arabic-form="isolated" 
d="M216 429q103 -59 159 -133.5t56 -153.5q0 -66 -50.5 -108.5t-149.5 -42.5q-81 0 -127 38.5t-46 107.5q0 75 39.5 143t118.5 149zM236 39q69 0 111.5 26.5t42.5 73.5q0 59 -49 126.5t-119 106.5q-59 -58 -90.5 -115.5t-31.5 -103.5q0 -114 136 -114z" />
    <glyph glyph-name="uniFBA7" unicode="&#x6c1;" horiz-adv-x="506" arabic-form="final" 
d="M474 50h32v-50h-31q-45 0 -81.5 18t-59.5 44t-43 52t-43.5 44t-49.5 18q-49 0 -120 -66l-30 34q82 80 158 80q33 0 60.5 -18t47.5 -43.5l40.5 -51t51 -43.5t68.5 -18z" />
    <glyph glyph-name="uniFBA8" unicode="&#x6c1;" horiz-adv-x="489" arabic-form="initial" 
d="M0 0q-9 0 -15 7t-6 17q0 11 6 18.5t15 7.5h5q85 0 145 46q60 -45 125 -45q43 0 67.5 21.5t24.5 60.5q0 55 -32 107l41 25q35 -68 35 -133q0 -58 -34.5 -94t-105.5 -36q-66 0 -123 40q-48 -42 -143 -42h-5zM284 -348q-96 34 -96 116q0 92 95 167l24 -27q-76 -74 -76 -131
q0 -60 73 -85z" />
    <glyph glyph-name="uniFBA9" unicode="&#x6c1;" horiz-adv-x="622" arabic-form="medial" 
d="M408 -324q-192 125 -233 340q-78 -16 -157 -16h-18q-9 0 -15 7t-6 17q0 11 6 18.5t15 7.5h18q102 0 190 22q20 -119 74 -205.5t128 -138.5q-19 56 -19 121q0 91 55 146t141 55h35v-50h-38q-80 0 -115.5 -44.5t-35.5 -111.5q0 -64 23 -131zM137 -433q-97 35 -97 117
q0 89 95 167l25 -27q-76 -73 -76 -132q0 -58 73 -85z" />
    <glyph glyph-name="uniFBAA" unicode="&#x6be;" horiz-adv-x="668" arabic-form="isolated" 
d="M480 -27q-48 0 -118 20t-129 55q-68 -34 -157 -57l-18 45q72 16 131 41q-86 67 -86 148q0 119 142 231q155 -53 250.5 -156.5t95.5 -210.5q0 -116 -111 -116zM143 233q0 -74 92 -135q62 33 93 72.5t31 74.5q0 112 -108 163q-108 -85 -108 -175zM482 18q37 0 52.5 15
t15.5 46q0 145 -183 279q30 -42 30 -108q0 -100 -120 -177q108 -55 205 -55z" />
    <glyph glyph-name="uniFBAB" unicode="&#x6be;" horiz-adv-x="716" arabic-form="final" 
d="M264 71v-13q121 32 189 81t68 107q0 78 -95 163q-162 -142 -162 -338zM475 -179q31 0 59 6q6 30 6 57q0 114 -107 194q-68 -39 -165 -64q12 -95 67 -144t140 -49zM563 -207q-45 -16 -94 -16q-101 0 -165 61.5t-79 164.5q-98 -24 -153 -63l-24 33q70 52 173 75v11
q0 244 206 407q73 -57 104.5 -108t31.5 -111q0 -79 -93 -146q98 -51 217 -51h29v-50h-29q-101 0 -152 27q46 -57 46 -141q0 -47 -18 -93z" />
    <glyph glyph-name="uniFBAC" unicode="&#x6be;" horiz-adv-x="666" arabic-form="initial" 
d="M141 210q0 -70 82 -129q66 26 100 64.5t34 73.5q0 114 -109 165q-107 -85 -107 -174zM480 -6q37 0 52.5 15t15.5 46q0 145 -182 278q30 -42 30 -107q0 -102 -132 -171q53 -28 113 -44.5t103 -16.5zM478 -50q-53 0 -127.5 22.5t-134.5 61.5q-90 -34 -200 -34h-16
q-9 0 -15 7t-6 17q0 11 6 18.5t15 7.5h15q87 0 157 16q-71 61 -71 135q0 118 142 232q155 -54 250 -157t95 -211q0 -115 -110 -115z" />
    <glyph glyph-name="uniFBAD" unicode="&#x6be;" horiz-adv-x="601" arabic-form="medial" 
d="M150 71v-13q116 20 185.5 72.5t69.5 116.5q0 79 -93 162q-162 -142 -162 -338zM361 -179q29 0 58 6q7 28 7 57q0 112 -102 190q-70 -43 -170 -62q13 -95 67.5 -143t139.5 -48zM448 -207q-45 -16 -94 -16q-101 0 -165 62.5t-78 165.5q-35 -5 -90 -5h-21q-9 0 -15 7t-6 17
q0 11 6 18.5t15 7.5h19q51 0 88 4v5q0 244 205 407q73 -56 104 -107.5t31 -111.5q0 -80 -88 -149q94 -48 214 -48h28v-50h-28q-101 0 -154 27q47 -55 47 -141q0 -47 -18 -93z" />
    <glyph glyph-name="uniFBAE" unicode="&#x6d2;" horiz-adv-x="768" arabic-form="isolated" 
d="M749 50l-12 -50h-425q-235 0 -235 152q0 93 70 160.5t161 67.5q110 0 144 -119l-43 -18q-17 47 -42.5 66t-64.5 19q-71 0 -122.5 -51t-51.5 -111q0 -24 8 -42.5t29.5 -36.5t67.5 -27.5t114 -9.5h402z" />
    <glyph glyph-name="uniFBAF" unicode="&#x6d2;" horiz-adv-x="755" arabic-form="final" 
d="M636 -217l-12 -50h-313q-234 0 -234 125q0 88 77.5 140t189.5 52h411v-50h-419q-90 0 -148.5 -37.5t-58.5 -93.5q0 -18 8 -31.5t29.5 -27t67.5 -20.5t114 -7h288z" />
    <glyph glyph-name="uniFBB0" unicode="&#x6d3;" horiz-adv-x="768" arabic-form="isolated" 
d="M398 503q-96 -17 -201 -57l-11 32q50 20 72 27q-51 26 -51 80q0 43 25 65t63 22q34 0 72 -18l-13 -31q-33 12 -59 12q-24 0 -39.5 -13t-15.5 -37q0 -26 20.5 -44t55.5 -18q7 0 75 13zM749 50l-12 -50h-425q-235 0 -235 152q0 93 70 160.5t161 67.5q110 0 144 -119
l-43 -18q-17 47 -42.5 66t-64.5 19q-71 0 -122.5 -51t-51.5 -111q0 -24 8 -42.5t29.5 -36.5t67.5 -27.5t114 -9.5h402z" />
    <glyph glyph-name="uniFBB1" unicode="&#x6d3;" horiz-adv-x="755" arabic-form="final" 
d="M352 175q-96 -17 -201 -57l-11 32q50 20 72 27q-51 26 -51 80q0 43 25 65t63 22q34 0 72 -18l-13 -31q-33 12 -59 12q-24 0 -39.5 -13t-15.5 -37q0 -26 20.5 -44t55.5 -18q7 0 75 13zM636 -217l-12 -50h-313q-234 0 -234 125q0 88 77.5 140t189.5 52h411v-50h-419
q-90 0 -148.5 -37.5t-58.5 -93.5q0 -18 8 -31.5t29.5 -27t67.5 -20.5t114 -7h288z" />
    <glyph glyph-name="uniFBFC" unicode="&#x6cc;" horiz-adv-x="787" arabic-form="isolated" 
d="M356 -219q-135 0 -207 66t-72 184q0 117 53 230l39 -18q-45 -101 -45 -202q0 -211 241 -211q118 0 197.5 49t86.5 132q-19 16 -41.5 30.5t-57 32l-51 25.5t-66 30t-59.5 27v25q0 69 20 121t54 81t74.5 43t87.5 14q70 0 129 -39l-20 -43q-52 34 -115 34q-173 0 -189 -204
q102 -43 165.5 -76t112.5 -76q0 -118 -91 -186.5t-246 -68.5z" />
    <glyph glyph-name="uniFBFD" unicode="&#x6cc;" horiz-adv-x="772" arabic-form="final" 
d="M350 -237q-132 0 -202.5 63t-70.5 176q0 119 54 232l38 -18q-46 -105 -46 -203q0 -96 57.5 -149t178.5 -53q116 0 193.5 52.5t87.5 145.5q-103 13 -216 49l12 45q164 -53 326 -53h10v-50h-10q-44 0 -77 4q-14 -109 -104 -175t-231 -66z" />
    <glyph glyph-name="uniFBFE" unicode="&#x6cc;" horiz-adv-x="319" arabic-form="initial" 
d="M0 0q-9 0 -15 7t-6 17q0 11 6 18.5t15 7.5h3q124 0 193 39q3 25 3 57q0 101 -27 193l43 13q27 -98 27 -193q0 -62 -11 -102q-88 -57 -228 -57h-3zM155 -118l45 -41l-38 -42l-45 39zM23 -122l45 -41l-38 -42l-45 39z" />
    <glyph glyph-name="uniFBFF" unicode="&#x6cc;" horiz-adv-x="425" arabic-form="medial" 
d="M0 0q-9 0 -15 7t-6 17q0 11 6 18.5t15 7.5h17q63 0 103.5 11t59.5 34t25.5 48t6.5 63v124l44 4v-127q0 -73 -20 -114q66 -43 183 -43h6v-50h-8q-130 0 -207 56q-56 -56 -194 -56h-16zM153 -122l45 -41l-38 -42l-45 39zM21 -126l45 -41l-38 -42l-45 39z" />
    <glyph glyph-name="uniFC5E" unicode="&#xfc5e;" arabic-form="isolated" 
d="M5 892v38q157 39 196 67q-52 4 -78 29t-26 65t26 68.5t68 28.5q37 0 61.5 -28t24.5 -71q0 -40 -19 -73q-46 -77 -253 -124zM131 1095q0 -67 98 -70q16 23 16 54t-17.5 52t-44.5 21q-22 0 -37 -16t-15 -41zM201 741q-28 0 -45 10q-33 -40 -91 -40q-74 0 -74 72
q0 13 2.5 28t4.5 23l3 8l30 -3q-7 -23 -7 -43q0 -47 49 -47q38 0 59 27q-10 19 -10 50v31l34 7v-28q0 -57 48 -57q50 0 50 57q0 22 -10 54l35 13q11 -33 11 -64q0 -42 -21 -70t-68 -28z" />
    <glyph glyph-name="uniFC5F" unicode="&#xfc5f;" arabic-form="isolated" 
d="M201 939q-28 0 -45 10q-33 -40 -91 -40q-74 0 -74 72q0 13 2.5 28t4.5 23l3 8l30 -3q-7 -23 -7 -43q0 -47 49 -47q38 0 59 27q-10 19 -10 50v31l34 7v-28q0 -57 48 -57q50 0 50 57q0 22 -10 54l35 13q11 -33 11 -64q0 -42 -21 -70t-68 -28zM279 888v-37
q-122 -20 -272 -58v36q129 37 272 59zM279 777v-36q-111 -18 -272 -59v36q129 37 272 59z" />
    <glyph glyph-name="uniFC60" unicode="&#xfc60;" arabic-form="isolated" 
d="M281 991v-37q-111 -18 -272 -59v37q129 37 272 59zM203 740q-28 0 -45 10q-33 -40 -91 -40q-74 0 -74 72q0 13 2.5 28t4.5 23l3 8l30 -3q-7 -23 -7 -43q0 -47 49 -47q38 0 59 27q-10 19 -10 50v31l34 7v-28q0 -57 48 -57q50 0 50 57q0 22 -10 54l35 13q11 -33 11 -64
q0 -42 -21 -70t-68 -28z" />
    <glyph glyph-name="uniFC61" unicode="&#xfc61;" arabic-form="isolated" 
d="M148 1094q0 -65 94 -72q20 26 20 56q0 31 -17.5 52t-44.5 21q-22 0 -37 -16t-15 -41zM5 887l-8 35q33 16 45 30t12 34q0 19 -11.5 32t-33.5 13q-20 0 -40 -10l-12 30q30 14 59 14q32 0 51.5 -21t19.5 -58q0 -26 -18 -47q109 29 147 57q-50 4 -75.5 29.5t-25.5 64.5
q0 40 25.5 68.5t67.5 28.5q37 0 61.5 -28t24.5 -71q0 -40 -16 -69q-46 -82 -273 -132zM202 741q-28 0 -45 10q-33 -40 -91 -40q-74 0 -74 72q0 13 2.5 28t5.5 23l2 8l30 -3q-7 -23 -7 -43q0 -47 49 -47q38 0 59 27q-10 19 -10 50v31l34 7v-28q0 -57 48 -57q50 0 50 57
q0 22 -10 54l35 13q11 -33 11 -64q0 -42 -21.5 -70t-67.5 -28z" />
    <glyph glyph-name="uniFC62" unicode="&#xfc62;" arabic-form="isolated" 
d="M202 845q-28 0 -45 10q-33 -40 -91 -40q-74 0 -74 72q0 13 2.5 28t5.5 23l2 8l30 -3q-7 -23 -7 -43q0 -47 49 -47q38 0 59 27q-10 19 -10 50v31l34 7v-28q0 -57 48 -57q50 0 50 57q0 22 -10 54l35 13q11 -33 11 -64q0 -42 -21.5 -70t-67.5 -28zM276 800v-37
q-111 -18 -272 -59v37q129 37 272 59z" />
    <glyph glyph-name="uniFC63" unicode="&#xfc63;" arabic-form="isolated" 
d="M116 1101l40 8q8 -81 8 -192l-37 -2q0 99 -11 186zM203 741q-28 0 -45 10q-33 -40 -91 -40q-74 0 -74 72q0 13 2.5 28t4.5 23l3 8l30 -3q-7 -23 -7 -43q0 -47 49 -47q38 0 59 27q-10 19 -10 50v31l34 7v-28q0 -57 48 -57q50 0 50 57q0 22 -10 54l35 13q11 -33 11 -64
q0 -42 -21 -70t-68 -28z" />
    <glyph glyph-name="uniFDF2" unicode="&#xfdf2;" horiz-adv-x="1280" arabic-form="isolated" 
d="M639 1020l40 8q8 -81 8 -192l-37 -2q0 99 -11 186zM1193 0h-46v719l46 5v-724zM726 660q-28 0 -45 10q-33 -40 -91 -40q-74 0 -74 72q0 13 2.5 28t5.5 23l2 8l30 -3q-7 -23 -7 -43q0 -47 49 -47q38 0 59 27q-10 19 -10 50v31l34 7v-28q0 -57 48 -57q50 0 50 57
q0 22 -10 54l35 13q11 -33 11 -64q0 -42 -21 -70t-68 -28zM833 8q-123 0 -154 98q-30 -98 -162 -98q-127 0 -149 98q-40 -4 -86 -4q-96 0 -153 25t-57 79q0 101 96 174t248 73q-9 -256 -9 -291q0 -54 26 -79t93 -25q80 0 106 44.5t26 130.5v342l46 5v-349q0 -95 30.5 -134
t100.5 -39q56 0 115 22q6 31 6 87q0 106 -25 459l46 7q25 -367 25 -461q0 -72 -14 -127q-70 -37 -155 -37zM302 146q33 0 61 4v3q0 11 1 39t2.5 89t3.5 124q-112 -5 -183.5 -65t-71.5 -125q0 -32 47.5 -50.5t139.5 -18.5z" />
    <glyph glyph-name="uniFDFC" unicode="&#xfdfc;" horiz-adv-x="1115" arabic-form="isolated" 
d="M286 -58q-101 0 -155 52.5t-54 147.5q0 98 53 217l38 -16q-46 -102 -46 -191q0 -75 43.5 -118.5t129.5 -43.5q101 0 158 57.5t57 161.5q0 7 -0.5 19.5t-1.5 56.5t-2 95q-72 -35 -139 -35q-89 0 -134 42.5t-45 121.5q0 51 23 125l43 -11q-20 -58 -20 -105q0 -127 141 -127
q61 0 131 35q-1 19 -5 242l45 5q0 -40 1 -81l2 -81.5t1 -58.5q23 14 65 43.5l57 39.5v136l45 6v-114q113 67 221 67q49 0 95 -13l-6 -39q-47 9 -89 9q-106 0 -221 -71v-275q0 -103 28 -142t107 -39q80 0 143 40q3 25 3 56q0 96 -29 193l42 12q27 -96 27 -192q0 -62 -11 -102
q-87 -56 -181 -56q-102 0 -138 53t-36 168v254q-104 -71 -122 -82q1 -40 1.5 -74.5t1 -53t1 -32.5t0.5 -20v-10q0 -128 -69 -200t-199 -72zM925 -98l45 -41l-38 -42l-45 39zM793 -102l45 -41l-38 -42l-45 39z" />
    <glyph glyph-name="uniFE81" unicode="&#x622;" horiz-adv-x="220" arabic-form="isolated" 
d="M256 718l15 -29q-38 -27 -87 -27q-28 0 -76 15t-67 15q-34 0 -63 -32l-30 22q42 50 96 50q20 0 66.5 -15.5t75.5 -15.5q36 0 70 17zM133 0h-46v607l46 5v-612z" />
    <glyph glyph-name="uniFE82" unicode="&#x622;" horiz-adv-x="312" arabic-form="final" 
d="M256 718l15 -29q-38 -27 -87 -27q-28 0 -76 15t-67 15q-34 0 -63 -32l-30 22q42 50 96 50q20 0 66.5 -15.5t75.5 -15.5q36 0 70 17zM312 50v-50h-21q-115 0 -159.5 60.5t-44.5 184.5v360l46 5v-361q0 -111 37.5 -155t129.5 -44h12z" />
    <glyph glyph-name="uniFE83" unicode="&#x623;" horiz-adv-x="220" arabic-form="isolated" 
d="M218 692q-96 -17 -201 -57l-11 32q50 20 72 27q-51 26 -51 80q0 43 25 65t63 22q34 0 72 -18l-13 -31q-33 12 -59 12q-24 0 -39.5 -13t-15.5 -37q0 -26 20.5 -44t55.5 -18q7 0 75 13zM133 0h-46v607l46 5v-612z" />
    <glyph glyph-name="uniFE84" unicode="&#x623;" horiz-adv-x="312" arabic-form="final" 
d="M236 692q-96 -17 -201 -57l-11 32q50 20 72 27q-51 26 -51 80q0 43 25 65t63 22q34 0 72 -18l-13 -31q-33 12 -59 12q-24 0 -39.5 -13t-15.5 -37q0 -26 20.5 -44t55.5 -18q7 0 75 13zM312 50v-50h-21q-115 0 -159.5 60.5t-44.5 184.5v360l46 5v-361q0 -111 37.5 -155
t129.5 -44h12z" />
    <glyph glyph-name="uniFE85" unicode="&#x624;" horiz-adv-x="515" arabic-form="isolated" 
d="M350 501q-96 -17 -201 -57l-11 32q50 20 72 27q-51 26 -51 80q0 43 25 65t63 22q34 0 72 -18l-13 -31q-33 12 -59 12q-24 0 -39.5 -13t-15.5 -37q0 -26 20.5 -44t55.5 -18q7 0 75 13zM261 47q69 0 135 19q-1 115 -41 191.5t-110 76.5q-64 0 -98 -50t-34 -112t32 -93.5
t116 -31.5zM155 -233q-50 0 -105 13l8 43q48 -10 100 -10q65 0 112 19t72 52t37 66.5t15 71.5q-63 -20 -147 -20q-98 0 -136.5 43t-38.5 121q0 93 47.5 153.5t126.5 60.5q89 0 140.5 -84.5t51.5 -227.5t-72 -222t-211 -79z" />
    <glyph glyph-name="uniFE86" unicode="&#x624;" horiz-adv-x="519" arabic-form="final" 
d="M350 501q-96 -17 -201 -57l-11 32q50 20 72 27q-51 26 -51 80q0 43 25 65t63 22q34 0 72 -18l-13 -31q-33 12 -59 12q-24 0 -39.5 -13t-15.5 -37q0 -26 20.5 -44t55.5 -18q7 0 75 13zM282 50h114v12q0 116 -40.5 194t-110.5 78q-64 0 -98 -50t-34 -112q0 -61 36.5 -91.5
t132.5 -30.5zM155 -233q-50 0 -105 13l8 43q48 -10 100 -10q62 0 108 17.5t71 47.5t37.5 60t16.5 64h-109q-119 0 -165 43t-46 121q0 92 48 153t127 61q89 0 140.5 -84.5t51.5 -227.5v-18h81v-50h-86q-16 -113 -86.5 -173t-191.5 -60z" />
    <glyph glyph-name="uniFE87" unicode="&#x625;" horiz-adv-x="220" arabic-form="isolated" 
d="M133 0h-46v719l46 5v-724zM229 -231q-96 -17 -201 -57l-11 32q50 20 72 27q-51 26 -51 80q0 43 25 65t63 22q34 0 72 -18l-13 -31q-33 12 -59 12q-24 0 -39.5 -13t-15.5 -37q0 -26 20.5 -44t55.5 -18q7 0 75 13z" />
    <glyph glyph-name="uniFE88" unicode="&#x625;" horiz-adv-x="311" arabic-form="final" 
d="M311 50v-50h-23q-114 0 -158 60.5t-44 184.5v474l46 5v-475q0 -111 38 -155t129 -44h12zM259 -223q-96 -17 -201 -57l-11 32q50 20 72 27q-51 26 -51 80q0 43 25 65t63 22q34 0 72 -18l-13 -31q-33 12 -59 12q-24 0 -39.5 -13t-15.5 -37q0 -26 20.5 -44t55.5 -18
q7 0 75 13z" />
    <glyph glyph-name="uniFE89" unicode="&#x626;" horiz-adv-x="787" arabic-form="isolated" 
d="M347 356q-96 -17 -201 -57l-11 32q50 20 72 27q-51 26 -51 80q0 43 25 65t63 22q34 0 72 -18l-13 -31q-33 12 -59 12q-24 0 -39.5 -13t-15.5 -37q0 -26 20.5 -44t55.5 -18q7 0 75 13zM356 -219q-135 0 -207 66t-72 184q0 117 53 230l39 -18q-45 -101 -45 -202
q0 -211 241 -211q118 0 197.5 49t86.5 132q-19 16 -41.5 30.5t-57 32l-51 25.5t-66 30t-59.5 27v25q0 69 20 121t54 81t74.5 43t87.5 14q70 0 129 -39l-20 -43q-52 34 -115 34q-173 0 -189 -204q102 -43 165.5 -76t112.5 -76q0 -118 -91 -186.5t-246 -68.5z" />
    <glyph glyph-name="uniFE8A" unicode="&#x626;" horiz-adv-x="772" arabic-form="final" 
d="M503 237q-96 -17 -201 -57l-11 32q50 20 72 27q-51 26 -51 80q0 43 25 65t63 22q34 0 72 -18l-13 -31q-33 12 -59 12q-24 0 -39.5 -13t-15.5 -37q0 -26 20.5 -44t55.5 -18q7 0 75 13zM350 -237q-132 0 -202.5 63t-70.5 176q0 119 54 232l38 -18q-46 -105 -46 -203
q0 -96 57.5 -149t178.5 -53q116 0 193.5 52.5t87.5 145.5q-103 13 -216 49l12 45q164 -53 326 -53h10v-50h-10q-44 0 -77 4q-14 -109 -104 -175t-231 -66z" />
    <glyph glyph-name="uniFE8B" unicode="&#x626;" horiz-adv-x="319" arabic-form="initial" 
d="M222 447q-96 -17 -201 -57l-11 32q50 20 72 27q-51 26 -51 80q0 43 25 65t63 22q34 0 72 -18l-13 -31q-33 12 -59 12q-24 0 -39.5 -13t-15.5 -37q0 -26 20.5 -44t55.5 -18q7 0 75 13zM0 0q-9 0 -15 7t-6 17q0 11 6 18.5t15 7.5h3q124 0 193 39q3 25 3 57q0 101 -27 193
l43 13q27 -98 27 -193q0 -62 -11 -102q-88 -57 -228 -57h-3z" />
    <glyph glyph-name="uniFE8C" unicode="&#x626;" horiz-adv-x="425" arabic-form="medial" 
d="M224 424q-96 -17 -201 -57l-11 32q50 20 72 27q-51 26 -51 80q0 43 25 65t63 22q34 0 72 -18l-13 -31q-33 12 -59 12q-24 0 -39.5 -13t-15.5 -37q0 -26 20.5 -44t55.5 -18q7 0 75 13zM0 0q-9 0 -15 7t-6 17q0 11 6 18.5t15 7.5h17q63 0 103.5 11t59.5 34t25.5 48t6.5 63
v124l44 4v-127q0 -73 -20 -114q66 -43 183 -43h6v-50h-8q-130 0 -207 56q-56 -56 -194 -56h-16z" />
    <glyph glyph-name="uniFE8D" unicode="&#x627;" horiz-adv-x="220" arabic-form="isolated" 
d="M133 0h-46v719l46 5v-724z" />
    <glyph glyph-name="uniFE8E" unicode="&#x627;" horiz-adv-x="311" arabic-form="final" 
d="M311 50v-50h-23q-114 0 -158 60.5t-44 184.5v474l46 5v-475q0 -111 38 -155t129 -44h12z" />
    <glyph glyph-name="uniFE8F" unicode="&#x628;" horiz-adv-x="904" arabic-form="isolated" 
d="M399 -12q-97 0 -162 14.5t-99 42t-47.5 60t-13.5 77.5q0 77 35 180l41 -11q-28 -103 -28 -156q0 -36 10.5 -61.5t39.5 -48.5t88.5 -35t148.5 -12q217 0 367 72q2 34 2 51q0 90 -27 196l45 12q28 -102 28 -192q0 -60 -13 -100q-63 -39 -172.5 -64t-242.5 -25zM434 -123
l47 -43l-40 -44l-47 40z" />
    <glyph glyph-name="uniFE90" unicode="&#x628;" horiz-adv-x="1007" arabic-form="final" 
d="M990 0q-136 0 -209 70q-47 -45 -140 -63.5t-243 -18.5q-96 0 -161.5 14.5t-99 42t-47 60t-13.5 77.5q0 80 34 180l41 -11q-28 -97 -28 -156q0 -36 11 -62t40.5 -49t89 -34.5t147.5 -11.5q116 0 192.5 12t115 36t52.5 51.5t14 66.5v126l45 4v-130q0 -55 -21 -95
q34 -28 76 -43.5t115 -15.5h6v-50h-17zM435 -123l47 -43l-40 -44l-47 40z" />
    <glyph glyph-name="uniFE91" unicode="&#x628;" horiz-adv-x="319" arabic-form="initial" 
d="M0 0q-9 0 -15 7t-6 17q0 11 6 18.5t15 7.5h3q124 0 193 39q3 25 3 57q0 101 -27 193l43 13q27 -98 27 -193q0 -62 -11 -102q-88 -57 -228 -57h-3zM82 -114l47 -43l-40 -44l-47 40z" />
    <glyph glyph-name="uniFE92" unicode="&#x628;" horiz-adv-x="425" arabic-form="medial" 
d="M0 0q-9 0 -15 7t-6 17q0 11 6 18.5t15 7.5h17q63 0 103.5 11t59.5 34t25.5 48t6.5 63v124l44 4v-127q0 -73 -20 -114q66 -43 183 -43h6v-50h-8q-130 0 -207 56q-56 -56 -194 -56h-16zM62 -116l47 -43l-40 -44l-47 40z" />
    <glyph glyph-name="uniFE93" unicode="&#x629;" horiz-adv-x="488" arabic-form="isolated" 
d="M306 590l45 -41l-38 -42l-45 39zM174 586l45 -41l-38 -42l-45 39zM216 429q103 -59 159 -133.5t56 -153.5q0 -66 -50.5 -108.5t-149.5 -42.5q-81 0 -127 38.5t-46 107.5q0 75 39.5 143t118.5 149zM236 39q69 0 111.5 26.5t42.5 73.5q0 59 -49 126.5t-119 106.5
q-59 -58 -90.5 -115.5t-31.5 -103.5q0 -114 136 -114z" />
    <glyph glyph-name="uniFE94" unicode="&#x629;" horiz-adv-x="568" arabic-form="final" 
d="M396 620l45 -41l-38 -42l-45 39zM264 616l45 -41l-38 -42l-45 39zM568 0h-22q-123 0 -152 83q-60 -7 -120 -7q-202 0 -202 110q0 108 105.5 182t249.5 74v-285q0 -57 28 -82t99 -25h14v-50zM282 121q66 0 103 6q-1 8 -1 23v243q-118 -6 -193.5 -69t-75.5 -128
q0 -35 41.5 -55t125.5 -20z" />
    <glyph glyph-name="uniFE95" unicode="&#x62a;" horiz-adv-x="904" arabic-form="isolated" 
d="M533 500l45 -41l-38 -42l-45 39zM401 496l45 -41l-38 -42l-45 39zM399 -12q-97 0 -162 14.5t-99 42t-47.5 60t-13.5 77.5q0 77 35 180l41 -11q-28 -103 -28 -156q0 -36 10.5 -61.5t39.5 -48.5t88.5 -35t148.5 -12q217 0 367 72q2 34 2 51q0 90 -27 196l45 12
q28 -102 28 -192q0 -60 -13 -100q-63 -39 -172.5 -64t-242.5 -25z" />
    <glyph glyph-name="uniFE96" unicode="&#x62a;" horiz-adv-x="1007" arabic-form="final" 
d="M548 484l45 -41l-38 -42l-45 39zM416 480l45 -41l-38 -42l-45 39zM990 0q-136 0 -209 70q-47 -45 -140 -63.5t-243 -18.5q-96 0 -161.5 14.5t-99 42t-47 60t-13.5 77.5q0 80 34 180l41 -11q-28 -97 -28 -156q0 -36 11 -62t40.5 -49t89 -34.5t147.5 -11.5q116 0 192.5 12
t115 36t52.5 51.5t14 66.5v126l45 4v-130q0 -55 -21 -95q34 -28 76 -43.5t115 -15.5h6v-50h-17z" />
    <glyph glyph-name="uniFE97" unicode="&#x62a;" horiz-adv-x="319" arabic-form="initial" 
d="M180 512l45 -41l-38 -42l-45 39zM48 508l45 -41l-38 -42l-45 39zM0 0q-9 0 -15 7t-6 17q0 11 6 18.5t15 7.5h3q124 0 193 39q3 25 3 57q0 101 -27 193l43 13q27 -98 27 -193q0 -62 -11 -102q-88 -57 -228 -57h-3z" />
    <glyph glyph-name="uniFE98" unicode="&#x62a;" horiz-adv-x="425" arabic-form="medial" 
d="M196 506l45 -41l-38 -42l-45 39zM64 502l45 -41l-38 -42l-45 39zM0 0q-9 0 -15 7t-6 17q0 11 6 18.5t15 7.5h17q63 0 103.5 11t59.5 34t25.5 48t6.5 63v124l44 4v-127q0 -73 -20 -114q66 -43 183 -43h6v-50h-8q-130 0 -207 56q-56 -56 -194 -56h-16z" />
    <glyph glyph-name="uniFE99" unicode="&#x62b;" horiz-adv-x="904" arabic-form="isolated" 
d="M470 578l44 -41l-37 -41l-44 38zM540 479l45 -41l-38 -41l-45 38zM408 475l45 -41l-38 -41l-45 38zM399 -12q-97 0 -162 14.5t-99 42t-47.5 60t-13.5 77.5q0 77 35 180l41 -11q-28 -103 -28 -156q0 -36 10.5 -61.5t39.5 -48.5t88.5 -35t148.5 -12q217 0 367 72q2 34 2 51
q0 90 -27 196l45 12q28 -102 28 -192q0 -60 -13 -100q-63 -39 -172.5 -64t-242.5 -25z" />
    <glyph glyph-name="uniFE9A" unicode="&#x62b;" horiz-adv-x="1007" arabic-form="final" 
d="M479 568l44 -41l-37 -41l-44 38zM549 469l45 -41l-38 -41l-45 38zM417 465l45 -41l-38 -41l-45 38zM990 0q-136 0 -209 70q-47 -45 -140 -63.5t-243 -18.5q-96 0 -161.5 14.5t-99 42t-47 60t-13.5 77.5q0 80 34 180l41 -11q-28 -97 -28 -156q0 -36 11 -62t40.5 -49
t89 -34.5t147.5 -11.5q116 0 192.5 12t115 36t52.5 51.5t14 66.5v126l45 4v-130q0 -55 -21 -95q34 -28 76 -43.5t115 -15.5h6v-50h-17z" />
    <glyph glyph-name="uniFE9B" unicode="&#x62b;" horiz-adv-x="319" arabic-form="initial" 
d="M96 595l44 -41l-37 -41l-44 38zM166 496l45 -41l-38 -41l-45 38zM34 492l45 -41l-38 -41l-45 38zM0 0q-9 0 -15 7t-6 17q0 11 6 18.5t15 7.5h3q124 0 193 39q3 25 3 57q0 101 -27 193l43 13q27 -98 27 -193q0 -62 -11 -102q-88 -57 -228 -57h-3z" />
    <glyph glyph-name="uniFE9C" unicode="&#x62b;" horiz-adv-x="425" arabic-form="medial" 
d="M126 597l44 -41l-37 -41l-44 38zM196 498l45 -41l-38 -41l-45 38zM64 494l45 -41l-38 -41l-45 38zM0 0q-9 0 -15 7t-6 17q0 11 6 18.5t15 7.5h17q63 0 103.5 11t59.5 34t25.5 48t6.5 63v124l44 4v-127q0 -73 -20 -114q66 -43 183 -43h6v-50h-8q-130 0 -207 56
q-56 -56 -194 -56h-16z" />
    <glyph glyph-name="uniFE9D" unicode="&#x62c;" horiz-adv-x="638" arabic-form="isolated" 
d="M346 -274q-128 0 -198 58t-70 158q0 240 429 335q-33 17 -102.5 59.5t-113.5 61.5t-84 19q-58 0 -92 -61l-37 16q22 49 54 69.5t79 20.5q49 0 109.5 -29.5t136.5 -77.5t125 -69l-13 -39q-445 -87 -445 -297q0 -86 62 -131t168 -45q114 0 239 55l15 -38q-117 -65 -262 -65
zM368 41l46 -42l-39 -44l-47 40z" />
    <glyph glyph-name="uniFE9E" unicode="&#x62c;" horiz-adv-x="710" arabic-form="final" 
d="M600 -267q-116 -65 -249 -65q-131 0 -201.5 56.5t-70.5 154.5q0 122 99 196.5t262 109.5q-137 147 -218 147q-39 0 -61.5 -13.5t-44.5 -52.5l-37 16q24 53 57.5 74.5t89.5 21.5q63 0 128 -51t147 -142l48 -54t42.5 -39t54.5 -33t57 -9h7v-50h-9q-17 0 -32 2t-31 9
t-26 10.5t-26.5 16.5t-23 17.5t-24 22.5t-21 22l-23.5 26.5t-23 25.5q-166 -41 -256 -103.5t-90 -160.5q0 -84 63.5 -128t171.5 -44q106 0 225 55zM360 -32l46 -42l-39 -44l-47 40z" />
    <glyph glyph-name="uniFE9F" unicode="&#x62c;" horiz-adv-x="685" arabic-form="initial" 
d="M0 0q-9 0 -15 7t-6 17q0 11 6 18.5t15 7.5h11q77 0 148 6.5t140.5 22t104.5 24t103.5 30t74.5 23.5q-37 21 -122 75t-135.5 76t-98.5 22q-29 0 -48.5 -13t-35.5 -48l-38 15q21 50 50.5 70.5t73.5 20.5q58 0 119.5 -29t151 -87.5t147.5 -88.5l-14 -42q-31 -8 -107 -33.5
t-137 -43.5t-163 -34t-208 -16h-17zM315 -93l47 -43l-40 -44l-47 40z" />
    <glyph glyph-name="uniFEA0" unicode="&#x62c;" horiz-adv-x="809" arabic-form="medial" 
d="M0 0q-9 0 -15 7t-6 17q0 11 6 18.5t15 7.5h16q277 0 526 59q-138 121 -213.5 175t-120.5 54q-29 0 -48 -13t-37 -48l-36 16q21 49 50 69.5t73 20.5q31 0 67.5 -15.5t84.5 -51t84 -65.5l101 -88q8 -8 14 -13l12 -10q69 -60 109.5 -75t110.5 -15h16v-50h-23
q-69 0 -111 15.5t-95 60.5q-273 -76 -568 -76h-12zM334 -101l47 -43l-40 -44l-47 40z" />
    <glyph glyph-name="uniFEA1" unicode="&#x62d;" horiz-adv-x="638" arabic-form="isolated" 
d="M346 -274q-128 0 -198 58t-70 158q0 240 429 335q-33 17 -102.5 59.5t-113.5 61.5t-84 19q-58 0 -92 -61l-37 16q22 49 54 69.5t79 20.5q49 0 109.5 -29.5t136.5 -77.5t125 -69l-13 -39q-445 -87 -445 -297q0 -86 62 -131t168 -45q114 0 239 55l15 -38q-117 -65 -262 -65
z" />
    <glyph glyph-name="uniFEA2" unicode="&#x62d;" horiz-adv-x="710" arabic-form="final" 
d="M600 -267q-116 -65 -249 -65q-131 0 -201.5 56.5t-70.5 154.5q0 122 99 196.5t262 109.5q-137 147 -218 147q-39 0 -61.5 -13.5t-44.5 -52.5l-37 16q24 53 57.5 74.5t89.5 21.5q63 0 128 -51t147 -142l48 -54t42.5 -39t54.5 -33t57 -9h7v-50h-9q-17 0 -32 2t-31 9
t-26 10.5t-26.5 16.5t-23 17.5t-24 22.5t-21 22l-23.5 26.5t-23 25.5q-166 -41 -256 -103.5t-90 -160.5q0 -84 63.5 -128t171.5 -44q106 0 225 55z" />
    <glyph glyph-name="uniFEA3" unicode="&#x62d;" horiz-adv-x="685" arabic-form="initial" 
d="M0 0q-9 0 -15 7t-6 17q0 11 6 18.5t15 7.5h11q77 0 148 6.5t140.5 22t104.5 24t103.5 30t74.5 23.5q-37 21 -122 75t-135.5 76t-98.5 22q-29 0 -48.5 -13t-35.5 -48l-38 15q21 50 50.5 70.5t73.5 20.5q58 0 119.5 -29t151 -87.5t147.5 -88.5l-14 -42q-31 -8 -107 -33.5
t-137 -43.5t-163 -34t-208 -16h-17z" />
    <glyph glyph-name="uniFEA4" unicode="&#x62d;" horiz-adv-x="809" arabic-form="medial" 
d="M0 0q-9 0 -15 7t-6 17q0 11 6 18.5t15 7.5h16q277 0 526 59q-138 121 -213.5 175t-120.5 54q-29 0 -48 -13t-37 -48l-36 16q21 49 50 69.5t73 20.5q31 0 67.5 -15.5t84.5 -51t84 -65.5l101 -88q8 -8 14 -13l12 -10q69 -60 109.5 -75t110.5 -15h16v-50h-23
q-69 0 -111 15.5t-95 60.5q-273 -76 -568 -76h-12z" />
    <glyph glyph-name="uniFEA5" unicode="&#x62e;" horiz-adv-x="638" arabic-form="isolated" 
d="M339 608l47 -43l-40 -44l-47 40zM346 -274q-128 0 -198 58t-70 158q0 240 429 335q-33 17 -102.5 59.5t-113.5 61.5t-84 19q-58 0 -92 -61l-37 16q22 49 54 69.5t79 20.5q49 0 109.5 -29.5t136.5 -77.5t125 -69l-13 -39q-445 -87 -445 -297q0 -86 62 -131t168 -45
q114 0 239 55l15 -38q-117 -65 -262 -65z" />
    <glyph glyph-name="uniFEA6" unicode="&#x62e;" horiz-adv-x="710" arabic-form="final" 
d="M294 546l47 -43l-40 -44l-47 40zM600 -267q-116 -65 -249 -65q-131 0 -201.5 56.5t-70.5 154.5q0 122 99 196.5t262 109.5q-137 147 -218 147q-39 0 -61.5 -13.5t-44.5 -52.5l-37 16q24 53 57.5 74.5t89.5 21.5q63 0 128 -51t147 -142l48 -54t42.5 -39t54.5 -33t57 -9h7
v-50h-9q-17 0 -32 2t-31 9t-26 10.5t-26.5 16.5t-23 17.5t-24 22.5t-21 22l-23.5 26.5t-23 25.5q-166 -41 -256 -103.5t-90 -160.5q0 -84 63.5 -128t171.5 -44q106 0 225 55z" />
    <glyph glyph-name="uniFEA7" unicode="&#x62e;" horiz-adv-x="685" arabic-form="initial" 
d="M286 544l47 -43l-40 -44l-47 40zM0 0q-9 0 -15 7t-6 17q0 11 6 18.5t15 7.5h11q77 0 148 6.5t140.5 22t104.5 24t103.5 30t74.5 23.5q-37 21 -122 75t-135.5 76t-98.5 22q-29 0 -48.5 -13t-35.5 -48l-38 15q21 50 50.5 70.5t73.5 20.5q58 0 119.5 -29t151 -87.5
t147.5 -88.5l-14 -42q-31 -8 -107 -33.5t-137 -43.5t-163 -34t-208 -16h-17z" />
    <glyph glyph-name="uniFEA8" unicode="&#x62e;" horiz-adv-x="809" arabic-form="medial" 
d="M286 539l47 -43l-40 -44l-47 40zM0 0q-9 0 -15 7t-6 17q0 11 6 18.5t15 7.5h16q277 0 526 59q-138 121 -213.5 175t-120.5 54q-29 0 -48 -13t-37 -48l-36 16q21 49 50 69.5t73 20.5q31 0 67.5 -15.5t84.5 -51t84 -65.5l101 -88q8 -8 14 -13l12 -10q69 -60 109.5 -75
t110.5 -15h16v-50h-23q-69 0 -111 15.5t-95 60.5q-273 -76 -568 -76h-12z" />
    <glyph glyph-name="uniFEA9" unicode="&#x62f;" horiz-adv-x="510" arabic-form="isolated" 
d="M170 -12q-71 0 -131 10v48q68 -8 141 -8q124 0 213 37q-5 90 -54.5 169t-152.5 174l32 33q116 -102 165.5 -195.5t49.5 -168.5q0 -27 -4 -46q-96 -53 -259 -53z" />
    <glyph glyph-name="uniFEAA" unicode="&#x62f;" horiz-adv-x="534" arabic-form="final" 
d="M511 0q-71 0 -103 47q-104 -57 -255 -57q-64 0 -114 8v49q56 -7 116 -7q132 0 231 45q-9 20 -21 50q-63 156 -163 276l32 31q100 -114 172 -288q26 -69 46.5 -86.5t71.5 -17.5h10v-50h-23z" />
    <glyph glyph-name="uniFEAB" unicode="&#x630;" horiz-adv-x="510" arabic-form="isolated" 
d="M210 617l47 -43l-40 -44l-47 40zM170 -12q-71 0 -131 10v48q68 -8 141 -8q124 0 213 37q-5 90 -54.5 169t-152.5 174l32 33q116 -102 165.5 -195.5t49.5 -168.5q0 -27 -4 -46q-96 -53 -259 -53z" />
    <glyph glyph-name="uniFEAC" unicode="&#x630;" horiz-adv-x="534" arabic-form="final" 
d="M220 618l47 -43l-40 -44l-47 40zM511 0q-71 0 -103 47q-104 -57 -255 -57q-64 0 -114 8v49q56 -7 116 -7q132 0 231 45q-9 20 -21 50q-63 156 -163 276l32 31q100 -114 172 -288q26 -69 46.5 -86.5t71.5 -17.5h10v-50h-23z" />
    <glyph glyph-name="uniFEAD" unicode="&#x631;" horiz-adv-x="400" arabic-form="isolated" 
d="M323 84q0 -154 -71 -233.5t-185 -79.5q-33 0 -67 6l8 44q25 -5 57 -5q72 0 122.5 40t71.5 98.5t21 129.5q0 89 -34 233l47 13q30 -137 30 -246z" />
    <glyph glyph-name="uniFEAE" unicode="&#x631;" horiz-adv-x="514" arabic-form="final" 
d="M67 -229q-33 0 -67 6l8 44q25 -5 57 -5q107 0 161.5 78t54.5 190q0 73 -41 234l43 12q7 -28 18.5 -78t19.5 -81q32 -121 166 -121h27v-50h-36q-106 0 -155 77q-1 -150 -72 -228t-184 -78z" />
    <glyph glyph-name="uniFEAF" unicode="&#x632;" horiz-adv-x="400" arabic-form="isolated" 
d="M245 512l47 -43l-40 -44l-47 40zM323 84q0 -154 -71 -233.5t-185 -79.5q-33 0 -67 6l8 44q25 -5 57 -5q72 0 122.5 40t71.5 98.5t21 129.5q0 89 -34 233l47 13q30 -137 30 -246z" />
    <glyph glyph-name="uniFEB0" unicode="&#x632;" horiz-adv-x="514" arabic-form="final" 
d="M237 512l47 -43l-40 -44l-47 40zM67 -229q-33 0 -67 6l8 44q25 -5 57 -5q107 0 161.5 78t54.5 190q0 73 -41 234l43 12q7 -28 18.5 -78t19.5 -81q32 -121 166 -121h27v-50h-36q-106 0 -155 77q-1 -150 -72 -228t-184 -78z" />
    <glyph glyph-name="uniFEB1" unicode="&#x633;" horiz-adv-x="1357" arabic-form="isolated" 
d="M344 -239q-130 0 -198.5 61t-68.5 170q0 118 54 231l39 -17q-46 -102 -46 -203q0 -90 56 -141t173 -51q133 0 209.5 61.5t76.5 164.5q0 114 -39 239l43 15q37 -128 41 -215q47 -31 123 -31q65 0 111 28t46 85v127l44 5v-124q0 -117 112 -117q62 0 114 31q3 24 3 51
q0 83 -26 181l45 12q24 -92 24 -176q0 -64 -14 -106q-39 -22 -71.5 -32.5t-81.5 -10.5q-102 0 -130 80q-17 -41 -70 -63t-110 -22q-73 0 -120 22q-12 -119 -98.5 -187t-240.5 -68z" />
    <glyph glyph-name="uniFEB2" unicode="&#x633;" horiz-adv-x="1473" arabic-form="final" 
d="M344 -239q-130 0 -198.5 61t-68.5 170q0 118 54 231l39 -17q-46 -102 -46 -203q0 -90 56 -141t173 -51q133 0 209.5 61.5t76.5 164.5q0 114 -39 239l43 15q37 -128 41 -215q44 -31 123 -31q65 0 111 28t46 85v127l44 5v-124q0 -117 112 -117q127 0 127 121v125l43 5v-122
q0 -41 -9 -71q65 -57 184 -57h8v-50h-17q-116 0 -195 61q-42 -62 -143 -62q-107 0 -135 80q-17 -41 -70 -63t-110 -22q-76 0 -120 23q-11 -120 -98 -188t-241 -68z" />
    <glyph glyph-name="uniFEB3" unicode="&#x633;" horiz-adv-x="862" arabic-form="initial" 
d="M618 -1q-100 0 -130 79q-17 -40 -70.5 -62t-109.5 -22q-101 0 -160 47q-47 -41 -135 -41h-13q-9 0 -15 7t-6 17q0 11 6 18.5t15 7.5h30q60 0 90 25t35 98l6 85l43 5l-6 -99q-3 -46 -19 -82q52 -37 133 -37q65 0 111.5 28.5t46.5 84.5v127l43 5v-124q0 -117 112 -117
q62 0 114 31q3 24 3 51q0 81 -25 181l45 12q23 -96 23 -176q0 -64 -14 -106q-39 -22 -71.5 -32.5t-81.5 -10.5z" />
    <glyph glyph-name="uniFEB4" unicode="&#x633;" horiz-adv-x="978" arabic-form="medial" 
d="M623 -1q-108 0 -136 80q-17 -41 -70 -63t-110 -22q-100 0 -159 47q-47 -41 -135 -41h-13q-9 0 -15 7t-6 17q0 11 6 18.5t15 7.5h30q60 0 90 25t35 98l6 87l43 3l-6 -99q-3 -46 -19 -82q50 -37 132 -37q65 0 111.5 28.5t46.5 84.5v123l43 3v-118q0 -59 29.5 -88t83.5 -29
q126 0 126 121v125l43 5v-122q0 -38 -8 -70q64 -58 184 -58h8v-50h-17q-117 0 -195 62q-41 -63 -143 -63z" />
    <glyph glyph-name="uniFEB5" unicode="&#x634;" horiz-adv-x="1357" arabic-form="isolated" 
d="M985 594l44 -41l-37 -41l-44 38zM1055 495l45 -41l-38 -41l-45 38zM923 491l45 -41l-38 -41l-45 38zM344 -239q-130 0 -198.5 61t-68.5 170q0 118 54 231l39 -17q-46 -102 -46 -203q0 -90 56 -141t173 -51q133 0 209.5 61.5t76.5 164.5q0 114 -39 239l43 15
q37 -128 41 -215q47 -31 123 -31q65 0 111 28t46 85v127l44 5v-124q0 -117 112 -117q62 0 114 31q3 24 3 51q0 83 -26 181l45 12q24 -92 24 -176q0 -64 -14 -106q-39 -22 -71.5 -32.5t-81.5 -10.5q-102 0 -130 80q-17 -41 -70 -63t-110 -22q-73 0 -120 22
q-12 -119 -98.5 -187t-240.5 -68z" />
    <glyph glyph-name="uniFEB6" unicode="&#x634;" horiz-adv-x="1473" arabic-form="final" 
d="M985 594l44 -41l-37 -41l-44 38zM1055 495l45 -41l-38 -41l-45 38zM923 491l45 -41l-38 -41l-45 38zM344 -239q-130 0 -198.5 61t-68.5 170q0 118 54 231l39 -17q-46 -102 -46 -203q0 -90 56 -141t173 -51q133 0 209.5 61.5t76.5 164.5q0 114 -39 239l43 15
q37 -128 41 -215q44 -31 123 -31q65 0 111 28t46 85v127l44 5v-124q0 -117 112 -117q127 0 127 121v125l43 5v-122q0 -41 -9 -71q65 -57 184 -57h8v-50h-17q-116 0 -195 61q-42 -62 -143 -62q-107 0 -135 80q-17 -41 -70 -63t-110 -22q-76 0 -120 23q-11 -120 -98 -188
t-241 -68z" />
    <glyph glyph-name="uniFEB7" unicode="&#x634;" horiz-adv-x="862" arabic-form="initial" 
d="M473 594l44 -41l-37 -41l-44 38zM543 495l45 -41l-38 -41l-45 38zM411 491l45 -41l-38 -41l-45 38zM618 -1q-100 0 -130 79q-17 -40 -70.5 -62t-109.5 -22q-101 0 -160 47q-47 -41 -135 -41h-13q-9 0 -15 7t-6 17q0 11 6 18.5t15 7.5h30q60 0 90 25t35 98l6 85l43 5
l-6 -99q-3 -46 -19 -82q52 -37 133 -37q65 0 111.5 28.5t46.5 84.5v127l43 5v-124q0 -117 112 -117q62 0 114 31q3 24 3 51q0 81 -25 181l45 12q23 -96 23 -176q0 -64 -14 -106q-39 -22 -71.5 -32.5t-81.5 -10.5z" />
    <glyph glyph-name="uniFEB8" unicode="&#x634;" horiz-adv-x="978" arabic-form="medial" 
d="M473 594l44 -41l-37 -41l-44 38zM543 495l45 -41l-38 -41l-45 38zM411 491l45 -41l-38 -41l-45 38zM623 -1q-108 0 -136 80q-17 -41 -70 -63t-110 -22q-100 0 -159 47q-47 -41 -135 -41h-13q-9 0 -15 7t-6 17q0 11 6 18.5t15 7.5h30q60 0 90 25t35 98l6 87l43 3l-6 -99
q-3 -46 -19 -82q50 -37 132 -37q65 0 111.5 28.5t46.5 84.5v123l43 3v-118q0 -59 29.5 -88t83.5 -29q126 0 126 121v125l43 5v-122q0 -38 -8 -70q64 -58 184 -58h8v-50h-17q-117 0 -195 62q-41 -63 -143 -63z" />
    <glyph glyph-name="uniFEB9" unicode="&#x635;" horiz-adv-x="1365" arabic-form="isolated" 
d="M957 45q159 0 286 45q2 18 2 50q0 102 -44 152.5t-118 50.5q-95 0 -175 -59t-192 -208q102 -31 241 -31zM344 -239q-130 0 -198.5 61t-68.5 170q0 118 54 231l39 -17q-46 -102 -46 -203q0 -90 56 -141t173 -51q133 0 209.5 61.5t76.5 164.5q0 114 -39 239l43 15
q34 -118 39 -192q107 154 202.5 222.5t201.5 68.5q99 0 150.5 -63.5t51.5 -167.5q0 -51 -12 -103q-114 -61 -330 -61q-152 0 -262 39q-5 -127 -92.5 -200t-247.5 -73z" />
    <glyph glyph-name="uniFEBA" unicode="&#x635;" horiz-adv-x="1431" arabic-form="final" 
d="M957 45q159 0 286 45q2 18 2 50q0 102 -44 152.5t-118 50.5q-95 0 -175 -59t-192 -208q102 -31 241 -31zM344 -239q-130 0 -198.5 61t-68.5 170q0 118 54 231l39 -17q-46 -102 -46 -203q0 -90 56 -141t173 -51q133 0 209.5 61.5t76.5 164.5q0 114 -39 239l43 15
q34 -118 39 -192q107 154 202.5 222.5t201.5 68.5q99 0 150.5 -63.5t51.5 -167.5q0 -42 -7 -78q64 -31 142 -31h8v-50h-11q-101 0 -165 46q-115 -51 -309 -51q-152 0 -262 39q-5 -127 -92.5 -200t-247.5 -73z" />
    <glyph glyph-name="uniFEBB" unicode="&#x635;" horiz-adv-x="1004" arabic-form="initial" 
d="M596 45q159 0 286 45q2 18 2 50q0 102 -44 152.5t-119 50.5q-95 0 -175.5 -59.5t-193.5 -211.5q105 -27 244 -27zM585 -3q-125 0 -204 18t-162 53q-53 -68 -204 -68h-15q-9 0 -15 7t-6 17q0 11 6 18.5t15 7.5h18q62 0 102 11t58.5 34.5t24.5 48t6 62.5v124l45 4v-125
q0 -61 -13 -99q31 -14 70 -26q109 162 206.5 234t207.5 72q98 0 149.5 -63.5t51.5 -167.5q0 -55 -11 -103q-112 -59 -330 -59z" />
    <glyph glyph-name="uniFEBC" unicode="&#x635;" horiz-adv-x="1070" arabic-form="medial" 
d="M596 45q159 0 286 45q2 18 2 50q0 102 -44 152.5t-119 50.5q-95 0 -175.5 -59.5t-193.5 -211.5q105 -27 244 -27zM1058 0q-101 0 -165 46q-111 -49 -308 -49q-125 0 -204 18t-162 53q-53 -68 -204 -68h-15q-9 0 -15 7t-6 17q0 11 6 18.5t15 7.5h18q62 0 102 11t58.5 34.5
t24.5 48t6 62.5v124l45 4v-125q0 -61 -13 -99q31 -14 70 -26q109 162 206.5 234t207.5 72q98 0 149.5 -63.5t51.5 -167.5q0 -39 -6 -78q58 -31 140 -31h10v-50h-12z" />
    <glyph glyph-name="uniFEBD" unicode="&#x636;" horiz-adv-x="1365" arabic-form="isolated" 
d="M1082 568l47 -43l-40 -44l-47 40zM957 45q159 0 286 45q2 18 2 50q0 102 -44 152.5t-118 50.5q-95 0 -175 -59t-192 -208q102 -31 241 -31zM344 -239q-130 0 -198.5 61t-68.5 170q0 118 54 231l39 -17q-46 -102 -46 -203q0 -90 56 -141t173 -51q133 0 209.5 61.5
t76.5 164.5q0 114 -39 239l43 15q34 -118 39 -192q107 154 202.5 222.5t201.5 68.5q99 0 150.5 -63.5t51.5 -167.5q0 -51 -12 -103q-114 -61 -330 -61q-152 0 -262 39q-5 -127 -92.5 -200t-247.5 -73z" />
    <glyph glyph-name="uniFEBE" unicode="&#x636;" horiz-adv-x="1431" arabic-form="final" 
d="M1082 568l47 -43l-40 -44l-47 40zM957 45q159 0 286 45q2 18 2 50q0 102 -44 152.5t-118 50.5q-95 0 -175 -59t-192 -208q102 -31 241 -31zM344 -239q-130 0 -198.5 61t-68.5 170q0 118 54 231l39 -17q-46 -102 -46 -203q0 -90 56 -141t173 -51q133 0 209.5 61.5
t76.5 164.5q0 114 -39 239l43 15q34 -118 39 -192q107 154 202.5 222.5t201.5 68.5q99 0 150.5 -63.5t51.5 -167.5q0 -42 -7 -78q64 -31 142 -31h8v-50h-11q-101 0 -165 46q-115 -51 -309 -51q-152 0 -262 39q-5 -127 -92.5 -200t-247.5 -73z" />
    <glyph glyph-name="uniFEBF" unicode="&#x636;" horiz-adv-x="1004" arabic-form="initial" 
d="M713 569l47 -43l-40 -44l-47 40zM596 45q159 0 286 45q2 18 2 50q0 102 -44 152.5t-119 50.5q-95 0 -175.5 -59.5t-193.5 -211.5q105 -27 244 -27zM585 -3q-125 0 -204 18t-162 53q-53 -68 -204 -68h-15q-9 0 -15 7t-6 17q0 11 6 18.5t15 7.5h18q62 0 102 11t58.5 34.5
t24.5 48t6 62.5v124l45 4v-125q0 -61 -13 -99q31 -14 70 -26q109 162 206.5 234t207.5 72q98 0 149.5 -63.5t51.5 -167.5q0 -55 -11 -103q-112 -59 -330 -59z" />
    <glyph glyph-name="uniFEC0" unicode="&#x636;" horiz-adv-x="1070" arabic-form="medial" 
d="M713 569l47 -43l-40 -44l-47 40zM596 45q159 0 286 45q2 18 2 50q0 102 -44 152.5t-119 50.5q-95 0 -175.5 -59.5t-193.5 -211.5q105 -27 244 -27zM1058 0q-101 0 -165 46q-111 -49 -308 -49q-125 0 -204 18t-162 53q-53 -68 -204 -68h-15q-9 0 -15 7t-6 17q0 11 6 18.5
t15 7.5h18q62 0 102 11t58.5 34.5t24.5 48t6 62.5v124l45 4v-125q0 -61 -13 -99q31 -14 70 -26q109 162 206.5 234t207.5 72q98 0 149.5 -63.5t51.5 -167.5q0 -39 -6 -78q58 -31 140 -31h10v-50h-12z" />
    <glyph glyph-name="uniFEC1" unicode="&#x637;" horiz-adv-x="836" arabic-form="isolated" 
d="M379 45q204 0 335 45q2 18 2 51q0 102 -44.5 152t-119.5 50q-98 0 -181 -63t-199 -222q99 -13 207 -13zM374 -5q-193 0 -335 37l8 47q48 -9 79 -14q37 47 49 88.5t12 131.5v430l46 5v-350q0 -119 -13 -186q158 207 336 207q99 0 151 -64t52 -168q0 -51 -12 -103
q-130 -61 -373 -61z" />
    <glyph glyph-name="uniFEC2" unicode="&#x637;" horiz-adv-x="902" arabic-form="final" 
d="M379 45q204 0 335 45q2 18 2 51q0 102 -44.5 152t-119.5 50q-98 0 -181 -63t-199 -222q99 -13 207 -13zM890 0q-102 0 -166 46q-128 -51 -350 -51q-193 0 -335 37l8 47q48 -9 79 -14q37 47 49 88.5t12 131.5v430l46 5v-350q0 -119 -13 -186q158 207 336 207q99 0 151 -64
t52 -168q0 -42 -7 -78q60 -31 142 -31h8v-50h-12z" />
    <glyph glyph-name="uniFEC3" unicode="&#x637;" horiz-adv-x="812" arabic-form="initial" 
d="M527 343q-99 0 -182.5 -64t-203.5 -229h121q167 0 258.5 7.5t169.5 34.5q2 34 2 49q0 101 -45 151.5t-120 50.5zM0 0q-9 0 -15 7t-6 17q0 11 6 18.5t15 7.5h90q43 57 58 99.5t15 135.5v430l45 5v-350q0 -119 -13 -186q160 207 336 207q99 0 151 -64t52 -168
q0 -48 -11 -103q-73 -32 -175.5 -44t-290.5 -12h-257z" />
    <glyph glyph-name="uniFEC4" unicode="&#x637;" horiz-adv-x="877" arabic-form="medial" 
d="M527 343q-99 0 -182.5 -64t-203.5 -229h121q167 0 258.5 7.5t169.5 34.5q2 34 2 49q0 101 -45 151.5t-120 50.5zM0 0q-9 0 -15 7t-6 17q0 11 6 18.5t15 7.5h90q43 57 58 99.5t15 135.5v430l45 5v-350q0 -119 -13 -186q160 207 336 207q99 0 151 -64t52 -168q0 -39 -6 -78
q57 -31 140 -31h9v-50h-12q-102 0 -166 46q-70 -26 -169 -36t-273 -10h-257z" />
    <glyph glyph-name="uniFEC5" unicode="&#x638;" horiz-adv-x="836" arabic-form="isolated" 
d="M535 579l47 -43l-40 -44l-47 40zM379 45q204 0 335 45q2 18 2 51q0 102 -44.5 152t-119.5 50q-98 0 -181 -63t-199 -222q99 -13 207 -13zM374 -5q-193 0 -335 37l8 47q48 -9 79 -14q37 47 49 88.5t12 131.5v430l46 5v-350q0 -119 -13 -186q158 207 336 207q99 0 151 -64
t52 -168q0 -51 -12 -103q-130 -61 -373 -61z" />
    <glyph glyph-name="uniFEC6" unicode="&#x638;" horiz-adv-x="902" arabic-form="final" 
d="M535 579l47 -43l-40 -44l-47 40zM379 45q204 0 335 45q2 18 2 51q0 102 -44.5 152t-119.5 50q-98 0 -181 -63t-199 -222q99 -13 207 -13zM890 0q-102 0 -166 46q-128 -51 -350 -51q-193 0 -335 37l8 47q48 -9 79 -14q37 47 49 88.5t12 131.5v430l46 5v-350
q0 -119 -13 -186q158 207 336 207q99 0 151 -64t52 -168q0 -42 -7 -78q60 -31 142 -31h8v-50h-12z" />
    <glyph glyph-name="uniFEC7" unicode="&#x638;" horiz-adv-x="812" arabic-form="initial" 
d="M502 579l47 -43l-40 -44l-47 40zM527 343q-99 0 -182.5 -64t-203.5 -229h121q167 0 258.5 7.5t169.5 34.5q2 34 2 49q0 101 -45 151.5t-120 50.5zM0 0q-9 0 -15 7t-6 17q0 11 6 18.5t15 7.5h90q43 57 58 99.5t15 135.5v430l45 5v-350q0 -119 -13 -186q160 207 336 207
q99 0 151 -64t52 -168q0 -48 -11 -103q-73 -32 -175.5 -44t-290.5 -12h-257z" />
    <glyph glyph-name="uniFEC8" unicode="&#x638;" horiz-adv-x="877" arabic-form="medial" 
d="M502 579l47 -43l-40 -44l-47 40zM527 343q-99 0 -182.5 -64t-203.5 -229h121q167 0 258.5 7.5t169.5 34.5q2 34 2 49q0 101 -45 151.5t-120 50.5zM0 0q-9 0 -15 7t-6 17q0 11 6 18.5t15 7.5h90q43 57 58 99.5t15 135.5v430l45 5v-350q0 -119 -13 -186q160 207 336 207
q99 0 151 -64t52 -168q0 -39 -6 -78q57 -31 140 -31h9v-50h-12q-102 0 -166 46q-70 -26 -169 -36t-273 -10h-257z" />
    <glyph glyph-name="uniFEC9" unicode="&#x639;" horiz-adv-x="610" arabic-form="isolated" 
d="M600 -204q-126 -68 -276 -68q-123 0 -185 52t-62 143q0 153 172 234q-59 24 -89.5 71.5t-30.5 105.5q0 84 52.5 135.5t134.5 51.5q84 0 170 -46l-17 -39q-51 22 -79 30t-72 8q-61 0 -102 -38t-41 -102q0 -60 44.5 -103.5t82.5 -43.5q10 0 41.5 9l80.5 22.5t90 21.5l7 -46
q-118 -24 -198.5 -54.5t-122.5 -66t-58.5 -69.5t-16.5 -75q0 -151 207 -151q132 0 250 56z" />
    <glyph glyph-name="uniFECA" unicode="&#x639;" horiz-adv-x="632" arabic-form="final" 
d="M329 398q-80 0 -179 -21q61 -132 168 -232q63 45 108 96.5t86 127.5q-80 29 -183 29zM600 -250q-126 -68 -276 -68q-124 0 -185.5 48.5t-61.5 134.5q0 85 46 139.5t153 117.5q-125 128 -186 287q104 33 240 33q139 0 236 -47q-40 -94 -89 -156.5t-127 -121.5
q54 -38 110 -52.5t161 -14.5h11v-50h-18q-114 0 -179 21t-126 70q-102 -61 -143.5 -107.5t-41.5 -109.5q0 -143 208 -143q133 0 250 57z" />
    <glyph glyph-name="uniFECB" unicode="&#x639;" horiz-adv-x="555" arabic-form="initial" 
d="M0 0q-9 0 -15 7t-6 17q0 11 6 18.5t15 7.5h14q99 0 174 6q-112 58 -112 180q0 86 52 138t133 52q80 0 170 -47l-17 -38q-51 22 -79 30t-72 8q-61 0 -102 -38.5t-41 -102.5q0 -69 49.5 -117.5t100.5 -48.5q49 0 225 58l12 -42q-142 -49 -250 -68.5t-243 -19.5h-14z" />
    <glyph glyph-name="uniFECC" unicode="&#x639;" horiz-adv-x="690" arabic-form="medial" 
d="M325 379q-75 0 -172 -21q44 -146 186 -231q130 79 182 216q-103 36 -196 36zM0 0q-9 0 -15 7t-6 17q0 11 6 18.5t15 7.5h24q150 0 269 55q-78 53 -128.5 127.5t-62.5 155.5q109 34 229 34q137 0 239 -51q-16 -72 -65 -142t-126 -123q118 -56 260 -56h51v-50h-55
q-168 0 -300 77q-138 -77 -312 -77h-23z" />
    <glyph glyph-name="uniFECD" unicode="&#x63a;" horiz-adv-x="611" arabic-form="isolated" 
d="M302 686l47 -43l-40 -44l-47 40zM600 -204q-126 -68 -276 -68q-123 0 -185 52t-62 143q0 153 172 234q-59 24 -89.5 71.5t-30.5 105.5q0 84 52.5 135.5t134.5 51.5q84 0 170 -46l-17 -39q-51 22 -79 30t-72 8q-61 0 -102 -38t-41 -102q0 -60 44.5 -103.5t82.5 -43.5
q10 0 41.5 9l80.5 22.5t90 21.5l7 -46q-118 -24 -198.5 -54.5t-122.5 -66t-58.5 -69.5t-16.5 -75q0 -151 207 -151q132 0 250 56z" />
    <glyph glyph-name="uniFECE" unicode="&#x63a;" horiz-adv-x="632" arabic-form="final" 
d="M336 652l47 -43l-40 -44l-47 40zM329 398q-80 0 -179 -21q61 -132 168 -232q63 45 108 96.5t86 127.5q-80 29 -183 29zM600 -250q-126 -68 -276 -68q-124 0 -185.5 48.5t-61.5 134.5q0 85 46 139.5t153 117.5q-125 128 -186 287q104 33 240 33q139 0 236 -47
q-40 -94 -89 -156.5t-127 -121.5q54 -38 110 -52.5t161 -14.5h11v-50h-18q-114 0 -179 21t-126 70q-102 -61 -143.5 -107.5t-41.5 -109.5q0 -143 208 -143q133 0 250 57z" />
    <glyph glyph-name="uniFECF" unicode="&#x63a;" horiz-adv-x="555" arabic-form="initial" 
d="M265 593l47 -43l-40 -44l-47 40zM0 0q-9 0 -15 7t-6 17q0 11 6 18.5t15 7.5h14q99 0 174 6q-112 58 -112 180q0 86 52 138t133 52q80 0 170 -47l-17 -38q-51 22 -79 30t-72 8q-61 0 -102 -38.5t-41 -102.5q0 -69 49.5 -117.5t100.5 -48.5q49 0 225 58l12 -42
q-142 -49 -250 -68.5t-243 -19.5h-14z" />
    <glyph glyph-name="uniFED0" unicode="&#x63a;" horiz-adv-x="690" arabic-form="medial" 
d="M342 622l47 -43l-40 -44l-47 40zM325 379q-75 0 -172 -21q44 -146 186 -231q130 79 182 216q-103 36 -196 36zM0 0q-9 0 -15 7t-6 17q0 11 6 18.5t15 7.5h24q150 0 269 55q-78 53 -128.5 127.5t-62.5 155.5q109 34 229 34q137 0 239 -51q-16 -72 -65 -142t-126 -123
q118 -56 260 -56h51v-50h-55q-168 0 -300 77q-138 -77 -312 -77h-23z" />
    <glyph glyph-name="uniFED1" unicode="&#x641;" horiz-adv-x="931" arabic-form="isolated" 
d="M649 733l47 -43l-40 -44l-47 40zM675 223q70 2 130 20q-3 120 -43 193t-108 72q-43 0 -74.5 -26.5t-45 -62.5t-14.5 -74q2 -58 36 -89.5t119 -32.5zM409 -12q-80 0 -140 10t-96 26.5t-58 42t-30 53t-8 62.5q0 78 35 181l40 -11q-28 -103 -28 -155q0 -37 11.5 -63
t41.5 -49t91.5 -35t153.5 -12q212 0 368 61q11 47 14 101q-61 -18 -147 -20q-175 1 -179 159q2 90 52.5 152t123.5 61q87 1 139 -82.5t52 -226.5q0 -101 -24 -176q-144 -79 -412 -79z" />
    <glyph glyph-name="uniFED2" unicode="&#x641;" horiz-adv-x="1030" arabic-form="final" 
d="M743 611l47 -43l-40 -44l-47 40zM607 256q0 -111 142 -167q145 59 145 158q0 67 -41 108t-106 41q-60 0 -100 -39.5t-40 -100.5zM997 0q-150 0 -251 42q-147 -54 -342 -54q-98 0 -164.5 14t-101 42t-48 60t-13.5 76q0 70 34 181l41 -11q-28 -103 -28 -156q0 -35 11 -60.5
t40.5 -48.5t90 -35t151.5 -12q159 0 274 33q-125 68 -125 181q0 89 54 139t131 50t130.5 -51t53.5 -136q0 -115 -126 -182q86 -22 191 -22h30v-50h-33z" />
    <glyph glyph-name="uniFED3" unicode="&#x641;" horiz-adv-x="542" arabic-form="initial" 
d="M257 733l47 -43l-40 -44l-47 40zM281 223q66 0 134 20q-3 120 -42.5 192.5t-107.5 72.5q-63 0 -99 -51t-36 -112q0 -122 151 -122zM0 0q-9 0 -15 7t-6 17q0 11 6 18.5t15 7.5h1h20q245 0 380 49q9 40 13 101q-63 -19 -147 -19q-178 0 -178 158q0 90 51 151.5t125 61.5
q86 0 138 -83t52 -226q0 -99 -23 -176q-124 -67 -404 -67h-28z" />
    <glyph glyph-name="uniFED4" unicode="&#x641;" horiz-adv-x="552" arabic-form="medial" 
d="M272 602l47 -43l-40 -44l-47 40zM129 256q0 -112 142 -167q145 59 145 158q0 67 -41 108t-107 41q-60 0 -99.5 -39.5t-39.5 -100.5zM0 0q-9 0 -15 7t-6 17q0 11 6 18.5t15 7.5h17q119 0 196 21q-125 68 -125 181q0 89 54 139t131 50t130.5 -51t53.5 -136
q0 -115 -126 -182q86 -22 191 -22h30v-50h-33q-150 0 -251 42q-114 -42 -249 -42h-19z" />
    <glyph glyph-name="uniFED5" unicode="&#x642;" horiz-adv-x="795" arabic-form="isolated" 
d="M589 548l45 -41l-38 -42l-45 39zM457 544l45 -41l-38 -42l-45 39zM540 49q71 0 135 18q-2 114 -42 190.5t-108 76.5q-64 0 -98 -50t-34 -112t32 -92.5t115 -30.5zM347 -248q-132 0 -201 63.5t-69 178.5q0 116 51 228l38 -18q-44 -99 -44 -198q0 -96 57 -150.5t177 -54.5
q83 0 145.5 20.5t97 54.5t52 69.5t21.5 75.5q-65 -19 -145 -19q-98 0 -136.5 43t-38.5 121q0 93 47.5 153.5t125.5 60.5q88 0 140 -86.5t52 -225.5q0 -149 -96 -232.5t-274 -83.5z" />
    <glyph glyph-name="uniFED6" unicode="&#x642;" horiz-adv-x="827" arabic-form="final" 
d="M589 548l45 -41l-38 -42l-45 39zM457 544l45 -41l-38 -42l-45 39zM560 50h115v12q0 116 -40.5 194t-110.5 78q-64 0 -98 -50t-34 -112q0 -61 36 -91.5t132 -30.5zM347 -248q-132 0 -201 63.5t-69 178.5q0 116 51 228l38 -18q-44 -99 -44 -198q0 -96 57 -150.5t177 -54.5
q80 0 141 19t95.5 51t52.5 64t24 67h-108q-118 0 -164 43t-46 121q0 92 47.5 153t125.5 61q89 0 140 -84.5t51 -227.5v-18h112v-50h-118q-21 -118 -113 -183t-249 -65z" />
    <glyph glyph-name="uniFED7" unicode="&#x642;" horiz-adv-x="542" arabic-form="initial" 
d="M334 716l45 -41l-38 -42l-45 39zM202 712l45 -41l-38 -42l-45 39zM281 223q66 0 134 20q-3 120 -42.5 192.5t-107.5 72.5q-63 0 -99 -51t-36 -112q0 -122 151 -122zM0 0q-9 0 -15 7t-6 17q0 11 6 18.5t15 7.5h1h20q245 0 380 49q9 40 13 101q-63 -19 -147 -19
q-178 0 -178 158q0 90 51 151.5t125 61.5q86 0 138 -83t52 -226q0 -99 -23 -176q-124 -67 -404 -67h-28z" />
    <glyph glyph-name="uniFED8" unicode="&#x642;" horiz-adv-x="552" arabic-form="medial" 
d="M346 620l45 -41l-38 -42l-45 39zM214 616l45 -41l-38 -42l-45 39zM129 256q0 -112 142 -167q145 59 145 158q0 67 -41 108t-107 41q-60 0 -99.5 -39.5t-39.5 -100.5zM0 0q-9 0 -15 7t-6 17q0 11 6 18.5t15 7.5h17q119 0 196 21q-125 68 -125 181q0 89 54 139t131 50
t130.5 -51t53.5 -136q0 -115 -126 -182q86 -22 191 -22h30v-50h-33q-150 0 -251 42q-114 -42 -249 -42h-19z" />
    <glyph glyph-name="uniFED9" unicode="&#x643;" horiz-adv-x="833" arabic-form="isolated" 
d="M395 463q0 -20 57 -41q36 -13 55.5 -29t19.5 -41q0 -41 -54 -68t-149 -27v38q62 0 114.5 14.5t52.5 35.5q0 23 -61 44q-38 13 -55 27.5t-17 38.5q0 41 39.5 72t98.5 31q26 0 44 -5l-9 -39q-17 4 -41 4q-36 0 -65.5 -17.5t-29.5 -37.5zM391 -13q-96 0 -160.5 14.5
t-96.5 42.5t-44.5 60.5t-12.5 77.5q0 78 35 181l41 -12q-29 -97 -29 -150q0 -38 10 -64t37.5 -50t86 -36.5t146.5 -12.5q159 0 284 45q13 68 13 222q0 129 -5 414l46 5q5 -271 5 -391q0 -126 -4 -179t-18 -105q-51 -26 -145.5 -44t-188.5 -18z" />
    <glyph glyph-name="uniFEDA" unicode="&#x643;" horiz-adv-x="925" arabic-form="final" 
d="M395 463q0 -20 57 -41q36 -13 55.5 -29t19.5 -41q0 -41 -54 -68t-149 -27v38q62 0 114.5 14.5t52.5 35.5q0 23 -61 44q-38 13 -55 27.5t-17 38.5q0 41 39.5 72t98.5 31q26 0 44 -5l-9 -39q-17 4 -41 4q-36 0 -65.5 -17.5t-29.5 -37.5zM908 0q-151 0 -185 101
q-17 -38 -53 -62.5t-89 -34.5t-93 -13t-98 -3q-96 0 -160 14.5t-96 42.5t-44.5 60.5t-12.5 76.5q0 78 35 181l41 -12q-29 -97 -29 -150q0 -30 5.5 -51.5t22.5 -44t47 -36.5t81.5 -22.5t122.5 -8.5q81 0 137 9t87 22t47.5 37t20.5 45t4 55v513l46 5v-500q0 -99 40.5 -136.5
t132.5 -37.5h7v-50h-17z" />
    <glyph glyph-name="uniFEDB" unicode="&#x643;" horiz-adv-x="489" arabic-form="initial" 
d="M0 0q-9 0 -15 7t-6 17q0 11 6 18.5t15 7.5h22q201 0 329 49v1q0 100 -82 190t-224 138v60q174 145 406 220v-48q-200 -61 -367 -197q151 -59 230.5 -152.5t79.5 -200.5q0 -28 -3 -43q-59 -31 -156.5 -49t-207.5 -18h-27z" />
    <glyph glyph-name="uniFEDC" unicode="&#x643;" horiz-adv-x="513" arabic-form="medial" 
d="M0 0q-9 0 -15 7t-6 17q0 11 6 18.5t15 7.5h19q203 0 316 57q-1 2 -3.5 6t-3.5 6q-24 41 -41.5 67t-52 69.5t-84 87t-112.5 85.5v56q174 147 410 224v-48q-205 -63 -371 -200q27 -19 52 -39l44 -36t38.5 -36l32 -33t28.5 -33l23.5 -29t21 -29.5l17.5 -26.5t16.5 -26.5
t14.5 -23.5q2 -4 13 -21l13 -20t11.5 -15.5t14 -15.5t14.5 -10.5t19 -9t22 -4t28 -2.5h13v-50h-16q-54 0 -84.5 16.5t-53.5 50.5q-60 -32 -151 -49.5t-185 -17.5h-23z" />
    <glyph glyph-name="uniFEDD" unicode="&#x644;" horiz-adv-x="713" arabic-form="isolated" 
d="M573 719l45 5q8 -554 8 -660q0 -134 -79.5 -212.5t-226.5 -78.5q-117 0 -180 60t-63 169q0 102 56 223l38 -17q-47 -104 -47 -196q0 -88 51 -139t154 -51q117 0 185 64.5t68 174.5q0 8 -9 658z" />
    <glyph glyph-name="uniFEDE" unicode="&#x644;" horiz-adv-x="804" arabic-form="final" 
d="M320 -237q-117 0 -180 60.5t-63 169.5q0 102 56 223l38 -17q-47 -105 -47 -196q0 -88 51 -139t154 -51q116 0 185 66.5t69 175.5v15t-0.5 28t-0.5 46t-1 78t-1.5 114t-2 164t-2.5 219l45 5l6 -500q1 -107 38 -140.5t133 -33.5h7v-50h-17q-125 0 -164 65v-10
q0 -135 -79.5 -213.5t-223.5 -78.5z" />
    <glyph glyph-name="uniFEDF" unicode="&#x644;" horiz-adv-x="307" arabic-form="initial" 
d="M0 0q-9 0 -15 7t-6 17q0 11 6 18.5t15 7.5h8q92 0 154 22q13 93 13 230q0 117 -5 417l46 5q4 -273 4 -393q0 -137 -3 -189.5t-17 -104.5q-30 -16 -84.5 -26.5t-107.5 -10.5h-8z" />
    <glyph glyph-name="uniFEE0" unicode="&#x644;" horiz-adv-x="404" arabic-form="medial" 
d="M0 0q-9 0 -15 7t-6 17q0 11 6 18.5t15 7.5h22q34 0 59.5 5.5t42.5 12.5t28.5 23t17 27.5t8.5 35t3.5 38t0.5 43.5v3.5v3.5v477l46 5v-500q0 -95 39.5 -134.5t128.5 -39.5h8v-50h-18q-142 0 -179 97q-35 -97 -192 -97h-15z" />
    <glyph glyph-name="uniFEE1" unicode="&#x645;" horiz-adv-x="610" arabic-form="isolated" 
d="M421 106q51 0 96 7q11 57 11 97q0 83 -38 127.5t-103 44.5q-76 0 -126 -67.5t-50 -180.5q123 -28 210 -28zM131 -225l-44 -4q-10 210 -10 266q0 96 89 103q2 130 63.5 209t158.5 79q87 0 135 -57t48 -151q0 -75 -22 -142q-31 -17 -137 -17q-55 0 -111 8t-89.5 16t-34.5 8
q-56 0 -56 -61q0 -33 10 -257z" />
    <glyph glyph-name="uniFEE2" unicode="&#x645;" horiz-adv-x="710" arabic-form="final" 
d="M400 75q56 0 138 24q-1 3 -6 27q-16 108 -48.5 157.5t-92.5 49.5q-56 0 -99.5 -50t-84.5 -170q92 -38 193 -38zM131 -241l-44 -4q-10 208 -10 262q0 97 89 104q41 130 94.5 194t134.5 64q74 0 114.5 -55.5t62.5 -178.5q10 -55 35.5 -75t78.5 -20h24v-50h-24
q-100 0 -133 59q-89 -31 -161 -31q-38 0 -73 4.5t-59 11t-42.5 13.5t-28.5 11.5t-12 4.5q-56 0 -56 -61q0 -33 10 -253z" />
    <glyph glyph-name="uniFEE3" unicode="&#x645;" horiz-adv-x="633" arabic-form="initial" 
d="M435 45q36 0 67 4q10 43 10 80q0 88 -34.5 139.5t-92.5 51.5q-44 0 -78.5 -28.5t-72.5 -102.5q-27 -54 -44 -82q95 -62 245 -62zM424 -1q-168 0 -262 69q-29 -37 -64 -52.5t-89 -15.5h-9q-9 0 -15 7t-6 17q0 11 6 18.5t15 7.5h11q66 0 102 34t85 131q41 79 82 114.5
t107 35.5q79 0 124 -64.5t45 -161.5q0 -67 -21 -128q-47 -12 -111 -12z" />
    <glyph glyph-name="uniFEE4" unicode="&#x645;" horiz-adv-x="703" arabic-form="medial" 
d="M379 46q99 0 154 45q-6 20 -9 32q-28 110 -57.5 153.5t-85.5 43.5q-42 0 -75.5 -29t-71.5 -102q-22 -45 -47 -87q92 -56 192 -56zM679 0q-89 0 -125 50q-71 -51 -180 -51q-120 0 -216 64q-28 -34 -62.5 -48.5t-86.5 -14.5h-9q-9 0 -15 7t-6 17q0 11 6 18.5t15 7.5h11
q67 0 103 34t85 131q42 79 82 115t106 36q71 0 109.5 -51.5t67.5 -169.5q13 -57 37 -76t77 -19h25v-50h-24z" />
    <glyph glyph-name="uniFEE5" unicode="&#x646;" horiz-adv-x="761" arabic-form="isolated" 
d="M385 406l47 -43l-40 -44l-47 40zM643 315q41 -141 41 -241q0 -134 -87.5 -211.5t-252.5 -77.5q-130 0 -198.5 61t-68.5 170q0 117 54 232l39 -18q-46 -102 -46 -203q0 -90 56 -141t173 -51q133 0 209.5 61.5t76.5 164.5q0 114 -39 239z" />
    <glyph glyph-name="uniFEE6" unicode="&#x646;" horiz-adv-x="810" arabic-form="final" 
d="M385 377l47 -43l-40 -44l-47 40zM344 -239q-130 0 -198.5 61t-68.5 170q0 118 54 231l39 -17q-46 -102 -46 -203q0 -90 56 -141t173 -51q133 0 209.5 61.5t76.5 164.5q0 114 -39 239l43 15q36 -124 40 -206q49 -35 120 -35h7v-50h-16q-65 0 -111 27q-8 -124 -95 -195
t-244 -71z" />
    <glyph glyph-name="uniFEE7" unicode="&#x646;" horiz-adv-x="319" arabic-form="initial" 
d="M88 509l47 -43l-40 -44l-47 40zM0 0q-9 0 -15 7t-6 17q0 11 6 18.5t15 7.5h3q124 0 193 39q3 25 3 57q0 101 -27 193l43 13q27 -98 27 -193q0 -62 -11 -102q-88 -57 -228 -57h-3z" />
    <glyph glyph-name="uniFEE8" unicode="&#x646;" horiz-adv-x="425" arabic-form="medial" 
d="M98 506l47 -43l-40 -44l-47 40zM0 0q-9 0 -15 7t-6 17q0 11 6 18.5t15 7.5h17q63 0 103.5 11t59.5 34t25.5 48t6.5 63v124l44 4v-127q0 -73 -20 -114q66 -43 183 -43h6v-50h-8q-130 0 -207 56q-56 -56 -194 -56h-16z" />
    <glyph glyph-name="uniFEE9" unicode="&#x647;" horiz-adv-x="488" arabic-form="isolated" 
d="M216 429q103 -59 159 -133.5t56 -153.5q0 -66 -50.5 -108.5t-149.5 -42.5q-81 0 -127 38.5t-46 107.5q0 75 39.5 143t118.5 149zM236 39q69 0 111.5 26.5t42.5 73.5q0 59 -49 126.5t-119 106.5q-59 -58 -90.5 -115.5t-31.5 -103.5q0 -114 136 -114z" />
    <glyph glyph-name="uniFEEA" unicode="&#x647;" horiz-adv-x="568" arabic-form="final" 
d="M568 0h-22q-123 0 -152 83q-60 -7 -120 -7q-202 0 -202 110q0 108 105.5 182t249.5 74v-285q0 -57 28 -82t99 -25h14v-50zM282 121q66 0 103 6q-1 8 -1 23v243q-118 -6 -193.5 -69t-75.5 -128q0 -35 41.5 -55t125.5 -20z" />
    <glyph glyph-name="uniFEEB" unicode="&#x647;" horiz-adv-x="666" arabic-form="initial" 
d="M141 210q0 -70 82 -129q66 26 100 64.5t34 73.5q0 114 -109 165q-107 -85 -107 -174zM480 -6q37 0 52.5 15t15.5 46q0 145 -182 278q30 -42 30 -107q0 -102 -132 -171q53 -28 113 -44.5t103 -16.5zM478 -50q-53 0 -127.5 22.5t-134.5 61.5q-90 -34 -200 -34h-16
q-9 0 -15 7t-6 17q0 11 6 18.5t15 7.5h15q87 0 157 16q-71 61 -71 135q0 118 142 232q155 -54 250 -157t95 -211q0 -115 -110 -115z" />
    <glyph glyph-name="uniFEEC" unicode="&#x647;" horiz-adv-x="601" arabic-form="medial" 
d="M150 71v-13q116 20 185.5 72.5t69.5 116.5q0 79 -93 162q-162 -142 -162 -338zM361 -179q29 0 58 6q7 28 7 57q0 112 -102 190q-70 -43 -170 -62q13 -95 67.5 -143t139.5 -48zM448 -207q-45 -16 -94 -16q-101 0 -165 62.5t-78 165.5q-35 -5 -90 -5h-21q-9 0 -15 7t-6 17
q0 11 6 18.5t15 7.5h19q51 0 88 4v5q0 244 205 407q73 -56 104 -107.5t31 -111.5q0 -80 -88 -149q94 -48 214 -48h28v-50h-28q-101 0 -154 27q47 -55 47 -141q0 -47 -18 -93z" />
    <glyph glyph-name="uniFEED" unicode="&#x648;" horiz-adv-x="515" arabic-form="isolated" 
d="M261 47q69 0 135 19q-1 115 -41 191.5t-110 76.5q-64 0 -98 -50t-34 -112t32 -93.5t116 -31.5zM155 -233q-50 0 -105 13l8 43q48 -10 100 -10q65 0 112 19t72 52t37 66.5t15 71.5q-63 -20 -147 -20q-98 0 -136.5 43t-38.5 121q0 93 47.5 153.5t126.5 60.5
q89 0 140.5 -84.5t51.5 -227.5t-72 -222t-211 -79z" />
    <glyph glyph-name="uniFEEE" unicode="&#x648;" horiz-adv-x="519" arabic-form="final" 
d="M282 50h114v12q0 116 -40.5 194t-110.5 78q-64 0 -98 -50t-34 -112q0 -61 36.5 -91.5t132.5 -30.5zM155 -233q-50 0 -105 13l8 43q48 -10 100 -10q62 0 108 17.5t71 47.5t37.5 60t16.5 64h-109q-119 0 -165 43t-46 121q0 92 48 153t127 61q89 0 140.5 -84.5t51.5 -227.5
v-18h81v-50h-86q-16 -113 -86.5 -173t-191.5 -60z" />
    <glyph glyph-name="uniFEEF" unicode="&#x649;" horiz-adv-x="787" arabic-form="isolated" 
d="M356 -219q-135 0 -207 66t-72 184q0 117 53 230l39 -18q-45 -101 -45 -202q0 -211 241 -211q118 0 197.5 49t86.5 132q-19 16 -41.5 30.5t-57 32l-51 25.5t-66 30t-59.5 27v25q0 69 20 121t54 81t74.5 43t87.5 14q70 0 129 -39l-20 -43q-52 34 -115 34q-173 0 -189 -204
q102 -43 165.5 -76t112.5 -76q0 -118 -91 -186.5t-246 -68.5z" />
    <glyph glyph-name="uniFEF0" unicode="&#x649;" horiz-adv-x="772" arabic-form="final" 
d="M350 -237q-132 0 -202.5 63t-70.5 176q0 119 54 232l38 -18q-46 -105 -46 -203q0 -96 57.5 -149t178.5 -53q116 0 193.5 52.5t87.5 145.5q-103 13 -216 49l12 45q164 -53 326 -53h10v-50h-10q-44 0 -77 4q-14 -109 -104 -175t-231 -66z" />
    <glyph glyph-name="uniFEF1" unicode="&#x64a;" horiz-adv-x="787" arabic-form="isolated" 
d="M356 -219q-135 0 -207 66t-72 184q0 117 53 230l39 -18q-45 -101 -45 -202q0 -211 241 -211q118 0 197.5 49t86.5 132q-19 16 -41.5 30.5t-57 32l-51 25.5t-66 30t-59.5 27v25q0 69 20 121t54 81t74.5 43t87.5 14q70 0 129 -39l-20 -43q-52 34 -115 34q-173 0 -189 -204
q102 -43 165.5 -76t112.5 -76q0 -118 -91 -186.5t-246 -68.5zM445 -325l45 -41l-38 -42l-45 39zM313 -329l45 -41l-38 -42l-45 39z" />
    <glyph glyph-name="uniFEF2" unicode="&#x64a;" horiz-adv-x="772" arabic-form="final" 
d="M350 -237q-132 0 -202.5 63t-70.5 176q0 119 54 232l38 -18q-46 -105 -46 -203q0 -96 57.5 -149t178.5 -53q116 0 193.5 52.5t87.5 145.5q-103 13 -216 49l12 45q164 -53 326 -53h10v-50h-10q-44 0 -77 4q-14 -109 -104 -175t-231 -66zM439 -325l45 -41l-38 -42l-45 39z
M307 -329l45 -41l-38 -42l-45 39z" />
    <glyph glyph-name="uniFEF3" unicode="&#x64a;" horiz-adv-x="319" arabic-form="initial" 
d="M0 0q-9 0 -15 7t-6 17q0 11 6 18.5t15 7.5h3q124 0 193 39q3 25 3 57q0 101 -27 193l43 13q27 -98 27 -193q0 -62 -11 -102q-88 -57 -228 -57h-3zM155 -118l45 -41l-38 -42l-45 39zM23 -122l45 -41l-38 -42l-45 39z" />
    <glyph glyph-name="uniFEF4" unicode="&#x64a;" horiz-adv-x="425" arabic-form="medial" 
d="M0 0q-9 0 -15 7t-6 17q0 11 6 18.5t15 7.5h17q63 0 103.5 11t59.5 34t25.5 48t6.5 63v124l44 4v-127q0 -73 -20 -114q66 -43 183 -43h6v-50h-8q-130 0 -207 56q-56 -56 -194 -56h-16zM153 -122l45 -41l-38 -42l-45 39zM21 -126l45 -41l-38 -42l-45 39z" />
    <glyph glyph-name=".notdef" horiz-adv-x="756" 
d="M160 0v701h436v-701h-436zM199 662v-623h358v623h-358z" />
    <glyph glyph-name=".null" 
 />
    <glyph glyph-name=".null" 
 />
    <glyph glyph-name="nonmarkingreturn" horiz-adv-x="333" 
 />
    <glyph glyph-name="CR" unicode="&#xd;" 
 />
    <glyph glyph-name="space" unicode=" " horiz-adv-x="233" 
 />
    <glyph glyph-name="exclam" unicode="!" horiz-adv-x="282" 
d="M167 700v-261q0 -103 -8 -212h-37q-7 96 -7 213v260h52zM176 30q0 -15 -9.5 -25.5t-24.5 -10.5q-16 0 -25.5 10.5t-9.5 25.5t9.5 25t25.5 10q15 0 24.5 -10t9.5 -25z" />
    <glyph glyph-name="quotedbl" unicode="&#x22;" horiz-adv-x="310" 
d="M62 488q-4 108 -4 212h45q0 -90 -3 -212h-38zM211 488q-4 108 -4 212h45q0 -104 -4 -212h-37z" />
    <glyph glyph-name="numbersign" unicode="#" horiz-adv-x="628" 
d="M394 234l46 204h-209l-46 -204h209zM342 0l43 194h-209l-43 -194h-42l43 194h-104v40h113l46 204h-104v40h113l43 193h42l-43 -193h209l43 193h42l-43 -193h107v-40h-116l-46 -204h107v-40h-116l-43 -194h-42z" />
    <glyph glyph-name="dollar" unicode="$" horiz-adv-x="534" 
d="M287 -124h-46v112q-101 4 -177 37l11 41q96 -35 182 -35q175 0 175 135q0 29 -10.5 52.5t-23.5 37.5t-43 28.5t-49.5 21.5t-62.5 21q-93 30 -136 69.5t-43 117.5q0 77 50.5 120t130.5 48v102h46v-102q67 -3 134 -25l-9 -41q-78 23 -150 23q-73 0 -113.5 -32t-40.5 -93
q0 -60 36 -88.5t121 -57.5q52 -17 82.5 -29.5t64.5 -35.5t49.5 -56.5t15.5 -79.5q0 -89 -54.5 -130.5t-139.5 -47.5v-113z" />
    <glyph glyph-name="percent" unicode="%" horiz-adv-x="817" 
d="M345 518q0 -75 -40 -120.5t-107 -45.5q-65 0 -105 45.5t-40 120.5q0 74 40 119.5t105 45.5q67 0 107 -45.5t40 -119.5zM550 671h44l-327 -671h-43zM97 518q0 -59 26 -93t75 -34q51 0 76.5 33.5t25.5 93.5q0 58 -25.5 92t-76.5 34q-49 0 -75 -34t-26 -92zM764 154
q0 -75 -39.5 -120.5t-106.5 -45.5q-66 0 -106 45.5t-40 120.5q0 74 40 119.5t106 45.5t106 -45.5t40 -119.5zM516 154q0 -59 26 -93t76 -34q51 0 76.5 34t25.5 93q0 58 -25.5 92t-76.5 34q-50 0 -76 -34t-26 -92z" />
    <glyph glyph-name="ampersand" unicode="&#x26;" horiz-adv-x="692" 
d="M202 551q0 -77 73 -160q85 29 130.5 69t45.5 101q0 47 -33 78t-93 31q-54 0 -88.5 -32t-34.5 -87zM279 31q130 0 205 93l-156 150q-61 61 -72 73q-73 -26 -111.5 -61.5t-38.5 -102.5q0 -68 46.5 -110t126.5 -42zM612 0l-99 95q-89 -107 -235 -107q-101 0 -160.5 53
t-59.5 141q0 138 171 195q-75 90 -75 174q0 74 48 117.5t124 43.5q77 0 124.5 -41t47.5 -108q0 -136 -196 -202q18 -19 59 -58l148 -143q39 68 53 158h45q-18 -109 -68 -188l134 -130h-61z" />
    <glyph glyph-name="quotesingle" unicode="'" horiz-adv-x="162" 
d="M62 488q-4 108 -4 212h45q0 -90 -3 -212h-38z" />
    <glyph glyph-name="parenleft" unicode="(" horiz-adv-x="272" 
d="M239 761q-127 -203 -127 -453q0 -249 127 -452h-48q-128 195 -128 452q0 258 128 453h48z" />
    <glyph glyph-name="parenright" unicode=")" horiz-adv-x="272" 
d="M160 308q0 250 -127 453h48q128 -195 128 -453q0 -257 -128 -452h-48q127 203 127 452z" />
    <glyph glyph-name="asterisk" unicode="*" horiz-adv-x="390" 
d="M281 433q-62 75 -86 108q-38 -51 -87 -108l-32 27q68 77 89 98q-45 12 -127 39l12 38q83 -25 128 -44q-4 52 -4 134h41q0 -75 -3 -135q44 18 127 45l12 -38q-79 -26 -127 -39q26 -26 89 -99z" />
    <glyph glyph-name="plus" unicode="+" horiz-adv-x="497" 
d="M462 322h-190v-198h-46v198h-191v42h191v192h46v-192h190v-42z" />
    <glyph glyph-name="comma" unicode="," horiz-adv-x="190" 
d="M77 78h47q-6 -111 -56 -225h-34q35 100 43 225z" />
    <glyph glyph-name="hyphen" unicode="-" horiz-adv-x="311" 
d="M40 292v42h231v-42h-231z" />
    <glyph glyph-name="period" unicode="." horiz-adv-x="179" 
d="M99 1q-28 -7 -37 21q-5 11 0.5 21.5t18.5 14.5q27 7 36 -20q5 -12 -0.5 -22.5t-17.5 -14.5z" />
    <glyph glyph-name="slash" unicode="/" horiz-adv-x="414" 
d="M328 755h47l-289 -810h-47z" />
    <glyph glyph-name="zero" unicode="0" horiz-adv-x="610" 
d="M305 -12q-125 0 -181.5 95t-56.5 252q0 75 12.5 136t39.5 109.5t74 75.5t112 27q125 0 181 -95t56 -253q0 -76 -12.5 -136.5t-39 -109t-73.5 -75t-112 -26.5zM305 31q188 0 188 304q0 305 -188 305t-188 -305q0 -304 188 -304z" />
    <glyph glyph-name="one" unicode="1" horiz-adv-x="345" 
d="M248 0h-47v621q-77 -34 -155 -83l-21 38q82 54 179 95h44v-671z" />
    <glyph glyph-name="two" unicode="2" horiz-adv-x="492" 
d="M452 0h-421v43l134 133q108 106 157 176.5t49 151.5q0 65 -39.5 100.5t-108.5 35.5q-82 0 -155 -58l-22 35q84 66 180 66q91 0 142.5 -49.5t51.5 -128.5q0 -91 -57 -172t-170 -189l-105 -102h364v-42z" />
    <glyph glyph-name="three" unicode="3" horiz-adv-x="500" 
d="M208 -12q-102 0 -173 40l17 40q65 -38 155 -38q81 0 127 41.5t46 116.5q0 137 -176 137h-69v42h62q79 0 119.5 40.5t40.5 104.5q0 61 -41 95t-105 34q-80 0 -140 -45l-24 33q69 54 166 54q86 0 139.5 -44.5t53.5 -123.5q0 -125 -110 -166q132 -34 132 -163
q0 -94 -58 -146t-162 -52z" />
    <glyph glyph-name="four" unicode="4" horiz-adv-x="577" 
d="M437 211h101v-42h-101v-169h-47v169h-352v38q152 262 344 465h55v-461zM395 627q-96 -112 -165 -205.5t-142 -210.5h302v284q0 35 5 132z" />
    <glyph glyph-name="five" unicode="5" horiz-adv-x="509" 
d="M222 -12q-97 0 -176 38l18 41q76 -36 159 -36q88 0 135.5 47t47.5 124q0 158 -199 158q-47 0 -132 -15l31 326h307v-42h-267l-24 -235q47 9 104 9q109 0 169.5 -52t60.5 -149q0 -95 -62 -154.5t-172 -59.5z" />
    <glyph glyph-name="six" unicode="6" horiz-adv-x="565" 
d="M512 218q0 -103 -57.5 -166.5t-151.5 -63.5q-116 0 -176 88.5t-60 223.5q0 74 14.5 139.5t45 122t85.5 89t128 32.5q60 0 99 -13l-9 -40q-47 10 -89 10q-55 0 -97 -23t-67.5 -63.5t-39.5 -88.5t-19 -106q84 57 188 57q97 0 151.5 -53.5t54.5 -144.5zM303 31
q78 0 118.5 52t40.5 134q0 73 -41 115t-125 42q-42 0 -92 -17t-88 -42v-15q0 -74 18.5 -132.5t61.5 -97.5t107 -39z" />
    <glyph glyph-name="seven" unicode="7" horiz-adv-x="449" 
d="M175 0h-49q47 175 104 315t142 314h-342v42h389v-39l-93 -203.5t-74 -187.5t-77 -241z" />
    <glyph glyph-name="eight" unicode="8" horiz-adv-x="587" 
d="M292 -12q-97 0 -163 48.5t-66 133.5q0 119 137 174q-115 57 -115 163q0 80 60.5 128t147.5 48q92 0 150 -51.5t58 -127.5q0 -111 -115 -172q70 -25 104 -63.5t34 -100.5q0 -82 -66 -131t-166 -49zM293 358q6 -2 21 -5.5l23 -5.5q58 29 87 66t29 90q0 61 -45 99.5
t-115 38.5q-69 0 -114 -36t-45 -97q0 -58 45 -96t114 -54zM293 30q78 0 130.5 36.5t52.5 100.5q0 28 -10 49t-25 35.5t-44 27.5t-56 21t-71 19q-16 4 -23 7q-135 -51 -135 -155q0 -68 53.5 -104.5t127.5 -36.5z" />
    <glyph glyph-name="nine" unicode="9" horiz-adv-x="553" 
d="M266 291q108 0 185 63q-1 57 -9.5 104t-28 90t-56.5 67.5t-88 24.5q-78 0 -122 -52t-44 -130q0 -74 39 -120.5t124 -46.5zM217 -12q-66 0 -125 19l8 41q66 -17 116 -17q223 0 234 278q-78 -62 -192 -62q-99 0 -152 58.5t-53 152.5q0 104 60.5 164.5t155.5 60.5
q51 0 91.5 -19t66 -50.5t42 -76t23.5 -92.5t7 -102q0 -355 -282 -355z" />
    <glyph glyph-name="colon" unicode=":" horiz-adv-x="179" 
d="M99 438q-28 -7 -37 21q-5 11 0.5 21.5t18.5 14.5q27 7 36 -20q5 -12 -0.5 -22.5t-17.5 -14.5zM99 1q-28 -7 -37 21q-5 11 0.5 21.5t18.5 14.5q27 7 36 -20q5 -12 -0.5 -22.5t-17.5 -14.5z" />
    <glyph glyph-name="semicolon" unicode=";" horiz-adv-x="229" 
d="M151 467q0 -16 -9.5 -26.5t-26.5 -10.5t-27 10.5t-10 26.5t10 26t27 10t26.5 -10t9.5 -26zM96 78h47q-6 -111 -56 -225h-34q37 106 43 225z" />
    <glyph glyph-name="less" unicode="&#x3c;" horiz-adv-x="497" 
d="M462 132l-427 186v49l427 187v-49l-373 -162l373 -161v-50z" />
    <glyph glyph-name="equal" unicode="=" horiz-adv-x="497" 
d="M35 411v42h427v-42h-427zM35 231v43h427v-43h-427z" />
    <glyph glyph-name="greater" unicode="&#x3e;" horiz-adv-x="497" 
d="M35 132v50l373 161l-373 162v49l427 -187v-49z" />
    <glyph glyph-name="question" unicode="?" horiz-adv-x="435" 
d="M40 638l-11 42q74 32 152 32q88 0 142.5 -43t54.5 -119q0 -54 -21.5 -88.5t-62.5 -71.5q-31 -29 -43 -41.5t-26.5 -41.5t-14.5 -60v-20h-44v22q0 37 13.5 68.5t27.5 47.5t40 41q27 24 40.5 38.5t27 42.5t13.5 61q0 57 -39 88.5t-110 31.5q-65 0 -139 -30zM188 65
q15 0 24.5 -10t9.5 -25t-9.5 -25.5t-24.5 -10.5q-16 0 -25.5 10.5t-9.5 25.5t9.5 25t25.5 10z" />
    <glyph glyph-name="at" unicode="@" horiz-adv-x="925" 
d="M465 -220q-182 0 -294.5 108.5t-112.5 299.5q0 89 29 168.5t81.5 140.5t134 96.5t179.5 35.5q171 0 278 -99.5t107 -260.5q0 -125 -42 -203t-136 -78q-79 0 -110 60q-56 -60 -138 -60q-85 0 -125.5 56.5t-40.5 141.5q0 98 52.5 167t152.5 69q75 0 145 -33l-23 -215
q-8 -73 13 -109.5t76 -36.5q130 0 130 241q0 146 -93.5 232.5t-247.5 86.5q-166 0 -271 -112.5t-105 -287.5q0 -169 98.5 -268t263.5 -99q102 0 235 40l9 -39q-129 -42 -245 -42zM445 28q67 0 121 52q-13 37 -6 107l20 179q-45 16 -101 16q-74 0 -116.5 -53t-42.5 -143
q0 -74 31 -116t94 -42z" />
    <glyph glyph-name="A" unicode="A" horiz-adv-x="636" 
d="M318 653q-71 -159 -153 -387h306q-82 228 -153 387zM559 0q-32 104 -73 224h-336q-41 -120 -73 -224h-49q133 415 265 700h50q140 -302 265 -700h-49z" />
    <glyph glyph-name="B" unicode="B" horiz-adv-x="611" 
d="M272 0h-166v700h137q132 0 203.5 -40t71.5 -137q0 -125 -98 -162q55 -15 90.5 -57t35.5 -115q0 -105 -70 -147t-204 -42zM153 657v-281h161q155 0 155 145q0 79 -57 107.5t-169 28.5h-90zM153 335v-292h118q114 0 170 30t56 116q0 146 -184 146h-160z" />
    <glyph glyph-name="C" unicode="C" horiz-adv-x="600" 
d="M379 -12q-151 0 -231.5 95t-80.5 258q0 166 77 268.5t228 102.5q86 0 171 -34l-13 -43q-87 33 -158 33q-66 0 -116 -26t-80 -71.5t-44.5 -103.5t-14.5 -126q0 -141 66.5 -225t196.5 -84q76 0 157 36l11 -42q-76 -38 -169 -38z" />
    <glyph glyph-name="D" unicode="D" horiz-adv-x="686" 
d="M290 657h-137v-614h137q143 0 215.5 85t72.5 222q0 138 -71.5 222.5t-216.5 84.5zM106 0v700h184q163 0 250.5 -94.5t87.5 -255.5q0 -160 -88 -255t-250 -95h-184z" />
    <glyph glyph-name="E" unicode="E" horiz-adv-x="562" 
d="M504 43v-43h-398v700h398v-43h-351v-274h301v-43h-301v-297h351z" />
    <glyph glyph-name="F" unicode="F" horiz-adv-x="538" 
d="M153 0h-47v700h388v-43h-341v-295h282v-43h-282v-319z" />
    <glyph glyph-name="G" unicode="G" horiz-adv-x="678" 
d="M601 29q-85 -41 -188 -41q-168 0 -257 97.5t-89 263.5q0 158 84.5 260.5t239.5 102.5q108 0 195 -42l-13 -42q-86 40 -181 40q-134 0 -204.5 -91t-70.5 -228q0 -143 76 -230t220 -87q77 0 142 24v256h-165v42h211v-325z" />
    <glyph glyph-name="H" unicode="H" horiz-adv-x="719" 
d="M565 0v340h-412v-340h-47v700h47v-317h412v317h48v-700h-48z" />
    <glyph glyph-name="I" unicode="I" horiz-adv-x="259" 
d="M106 0v700h47v-700h-47z" />
    <glyph glyph-name="J" unicode="J" horiz-adv-x="259" 
d="M-43 -183l-23 37q68 41 104 85.5t52 110.5t16 173v477h47v-472q0 -123 -20.5 -198.5t-60 -120.5t-115.5 -92z" />
    <glyph glyph-name="K" unicode="K" horiz-adv-x="621" 
d="M531 0l-239 341q-54 -37 -139 -81v-260h-47v700h47v-391q157 84 237.5 174t105.5 217h47q-19 -102 -70.5 -182.5t-142.5 -149.5l260 -368h-59z" />
    <glyph glyph-name="L" unicode="L" horiz-adv-x="545" 
d="M106 0v700h47v-657h349v-43h-396z" />
    <glyph glyph-name="M" unicode="M" horiz-adv-x="891" 
d="M735 700h51v-700h-47v511q0 45 2 99q-104 -241 -273 -507h-45q-166 261 -274 508q3 -42 3 -100v-511h-46v700h50q93 -230 291 -551q189 307 288 551z" />
    <glyph glyph-name="N" unicode="N" horiz-adv-x="719" 
d="M152 0h-46v700h46q161 -282 419 -632q-4 33 -4 96v536h47v-700h-47l-244.5 339t-173.5 283q3 -96 3 -109v-513z" />
    <glyph glyph-name="O" unicode="O" horiz-adv-x="708" 
d="M641 350q0 -160 -72.5 -261t-214.5 -101t-214.5 101t-72.5 261t72 261t215 101q142 0 214.5 -101t72.5 -261zM117 350q0 -90 23 -159.5t78 -114t136 -44.5t136 44.5t78 114t23 159.5t-23 159.5t-78 114t-136 44.5q-121 0 -179 -89t-58 -229z" />
    <glyph glyph-name="P" unicode="P" horiz-adv-x="609" 
d="M260 657h-107v-350h107q110 0 169.5 39.5t59.5 135.5t-59.5 135.5t-169.5 39.5zM260 264h-107v-264h-47v700h154q278 0 278 -218t-278 -218z" />
    <glyph glyph-name="Q" unicode="Q" horiz-adv-x="708" 
d="M552 -169q-71 0 -119 41t-60 117q-6 -1 -19 -1q-142 0 -214.5 101t-72.5 261t72 261t215 101q142 0 214.5 -101t72.5 -261q0 -140 -56 -237t-167 -119q9 -59 47 -89.5t90 -30.5q27 0 51 6l7 -43q-33 -6 -61 -6zM117 350q0 -90 23 -159.5t78 -114t136 -44.5t136 44.5
t78 114t23 159.5t-23 159.5t-78 114t-136 44.5q-121 0 -179 -89t-58 -229z" />
    <glyph glyph-name="R" unicode="R" horiz-adv-x="614" 
d="M259 657h-106v-309h106q106 0 160.5 37t54.5 120q0 82 -54 117t-161 35zM244 306h-91v-306h-47v700h153q264 0 264 -194q0 -88 -52 -136t-131 -53q21 -7 40 -26t47 -63l145 -228h-59l-131 209q-34 54 -62.5 75.5t-75.5 21.5z" />
    <glyph glyph-name="S" unicode="S" horiz-adv-x="543" 
d="M57 25l10 45q112 -38 191 -38q87 0 135.5 35t48.5 106q0 37 -13 64.5t-42 47t-58 31.5t-79 27q-96 30 -141.5 73t-45.5 121q0 85 59 130t160 45q83 0 160 -28l-10 -41q-84 25 -147 25q-172 0 -172 -130q0 -63 37.5 -94t121.5 -58q55 -17 87 -30.5t66.5 -37.5t50.5 -59.5
t16 -85.5q0 -96 -66.5 -140.5t-166.5 -44.5q-114 0 -202 37z" />
    <glyph glyph-name="T" unicode="T" horiz-adv-x="550" 
d="M521 657h-222v-657h-48v657h-222v43h492v-43z" />
    <glyph glyph-name="U" unicode="U" horiz-adv-x="699" 
d="M101 267v433h47v-432q0 -121 49.5 -178.5t151.5 -57.5q103 0 152 57t49 179v432h48v-433q0 -145 -61.5 -212t-187.5 -67t-187 67t-61 212z" />
    <glyph glyph-name="V" unicode="V" horiz-adv-x="601" 
d="M327 0h-53q-154 338 -246 700h49q86 -346 224 -652q138 311 223 652h49q-92 -362 -246 -700z" />
    <glyph glyph-name="W" unicode="W" horiz-adv-x="957" 
d="M687 44q126 319 188 656h48q-40 -201 -89 -363t-121 -337h-52q-64 153 -105 295.5t-78 327.5q-36 -185 -77 -327.5t-106 -295.5h-52q-72 172 -120 333.5t-90 366.5h49q70 -356 188 -656q123 320 182 656h52q63 -346 183 -656z" />
    <glyph glyph-name="X" unicode="X" horiz-adv-x="585" 
d="M503 0l-217 329q-138 -182 -208 -329h-51q75 165 236 364l-221 336h55l202 -305q136 165 193 305h51q-64 -157 -222 -339l238 -361h-56z" />
    <glyph glyph-name="Y" unicode="Y" horiz-adv-x="569" 
d="M309 0h-48v302q-84 107 -140.5 199t-102.5 199h52q74 -172 216 -359q139 181 214 359h51q-89 -204 -242 -396v-304z" />
    <glyph glyph-name="Z" unicode="Z" horiz-adv-x="555" 
d="M497 664q-75 -165 -165.5 -304t-229.5 -317h410v-43h-468v37q288 374 404 620h-394v43h443v-36z" />
    <glyph glyph-name="bracketleft" unicode="[" horiz-adv-x="254" 
d="M78 -144v905h137v-42h-90v-821h90v-42h-137z" />
    <glyph glyph-name="backslash" unicode="\" horiz-adv-x="414" 
d="M328 -55l-289 810h47l289 -810h-47z" />
    <glyph glyph-name="bracketright" unicode="]" horiz-adv-x="254" 
d="M39 -144v42h89v821h-89v42h136v-905h-136z" />
    <glyph glyph-name="asciicircum" unicode="^" horiz-adv-x="498" 
d="M393 355l-144 297l-144 -297h-49l170 345h46l170 -345h-49z" />
    <glyph glyph-name="underscore" unicode="_" horiz-adv-x="484" 
d="M20 -79v41h444v-41h-444z" />
    <glyph glyph-name="grave" unicode="`" horiz-adv-x="500" 
d="M247 570l-99 134h54l91 -134h-46z" />
    <glyph glyph-name="a" unicode="a" horiz-adv-x="519" 
d="M428 36q-77 -48 -187 -48q-89 0 -136.5 39.5t-47.5 105.5q0 78 53.5 114.5t138.5 36.5q64 0 132 -15v68q0 134 -141 134q-71 0 -136 -27l-13 41q65 28 150 28q187 0 187 -177v-300zM243 29q86 0 138 33v167q-66 16 -129 16q-147 0 -147 -112q0 -51 36 -77.5t102 -26.5z
" />
    <glyph glyph-name="b" unicode="b" horiz-adv-x="573" 
d="M511 262q0 -127 -64 -200.5t-178 -73.5q-108 0 -168 32v700l47 3v-247q51 37 129 37q108 0 171 -64t63 -187zM148 50q43 -19 121 -19q93 0 142.5 61t49.5 170q0 103 -49 156t-137 53q-36 0 -71.5 -12.5t-55.5 -30.5v-378z" />
    <glyph glyph-name="c" unicode="c" horiz-adv-x="488" 
d="M299 513q76 0 141 -29l-12 -40q-67 27 -128 27q-92 0 -140.5 -60.5t-48.5 -163.5q0 -106 51 -161t151 -55q62 0 122 30l12 -40q-61 -33 -136 -33q-120 0 -184.5 67t-64.5 191q0 122 62 194.5t175 72.5z" />
    <glyph glyph-name="d" unicode="d" horiz-adv-x="572" 
d="M471 32q-64 -44 -165 -44q-111 0 -177.5 67.5t-66.5 187.5q0 125 66.5 197.5t191.5 72.5q54 0 104 -20v227l47 3v-691zM111 243q0 -98 53 -155t141 -57q79 0 119 28v388q-51 24 -103 24q-102 0 -156 -60t-54 -168z" />
    <glyph glyph-name="e" unicode="e" horiz-adv-x="548" 
d="M287 471q-78 0 -123.5 -51.5t-52.5 -137.5h327q1 8 1 22q0 70 -37.5 118.5t-114.5 48.5zM484 24q-73 -36 -167 -36q-119 0 -187 68t-68 196q0 116 60 188.5t165 72.5q96 0 148 -61t52 -154q0 -27 -3 -54h-374q2 -106 57.5 -159.5t151.5 -53.5q76 0 154 34z" />
    <glyph glyph-name="f" unicode="f" horiz-adv-x="321" 
d="M107 0v460h-78v41h78v70q0 160 135 160q36 0 74 -11l-10 -40q-38 9 -61 9q-50 0 -70.5 -30t-20.5 -88v-70h144v-41h-144v-460h-47z" />
    <glyph glyph-name="g" unicode="g" horiz-adv-x="563" 
d="M111 261q0 -94 47.5 -147t130.5 -53q78 0 131 40v346q-54 24 -119 24q-88 0 -139 -55.5t-51 -154.5zM269 -192q-85 0 -155 26l11 42q73 -25 143 -25q76 0 114 35.5t38 97.5v73q-52 -38 -134 -38q-103 0 -163.5 63t-60.5 177q0 118 64.5 186t175.5 68q100 0 165 -40v-487
q0 -88 -52 -133t-146 -45z" />
    <glyph glyph-name="h" unicode="h" horiz-adv-x="588" 
d="M148 0h-47v720l47 3v-253q74 43 162 43q91 0 139 -47t48 -129v-337h-47v334q0 65 -35.5 101t-107.5 36q-87 0 -159 -44v-427z" />
    <glyph glyph-name="i" unicode="i" horiz-adv-x="248" 
d="M125 620q-17 0 -27 10.5t-10 26.5q0 15 10 25.5t27 10.5q16 0 25.5 -10.5t9.5 -25.5q0 -16 -9.5 -26.5t-25.5 -10.5zM148 501v-501h-47v501h47z" />
    <glyph glyph-name="j" unicode="j" horiz-adv-x="248" 
d="M160 657q0 -16 -9.5 -26.5t-25.5 -10.5q-17 0 -27 10.5t-10 26.5q0 15 10 25.5t27 10.5q16 0 25.5 -10.5t9.5 -25.5zM148 70q0 -101 -34 -157.5t-117 -95.5l-18 37q71 38 96.5 82.5t25.5 135.5v429h47v-431z" />
    <glyph glyph-name="k" unicode="k" horiz-adv-x="522" 
d="M431 0l-168 233q-53 -37 -115 -72v-161h-47v720l47 3v-515q123 73 181.5 136t74.5 157h46q-21 -138 -152 -242l189 -259h-56z" />
    <glyph glyph-name="l" unicode="l" horiz-adv-x="280" 
d="M143 723v-594q0 -52 15.5 -75.5t55.5 -23.5q13 0 28 3l5 -40q-17 -5 -36 -5q-115 0 -115 140v592z" />
    <glyph glyph-name="m" unicode="m" horiz-adv-x="897" 
d="M143 432v-432h-47v461q94 52 198 52q96 0 142 -56q90 56 185 56q94 0 139.5 -48t45.5 -128v-337h-47v334q0 61 -33.5 99t-103.5 38q-87 0 -163 -52q16 -36 16 -85v-334h-47v334q0 61 -32 99t-102 38q-86 0 -151 -39z" />
    <glyph glyph-name="n" unicode="n" horiz-adv-x="584" 
d="M143 0h-47v461q97 52 207 52q95 0 142.5 -46.5t47.5 -129.5v-337h-47v334q0 63 -35.5 100t-107.5 37q-91 0 -160 -39v-432z" />
    <glyph glyph-name="o" unicode="o" horiz-adv-x="564" 
d="M503 251q0 -119 -58 -191t-163 -72q-104 0 -162 72t-58 191t58 190.5t162 71.5q105 0 163 -71.5t58 -190.5zM111 251q0 -102 43.5 -161t127.5 -59q86 0 128.5 59t42.5 161t-42.5 161t-128.5 59q-84 0 -127.5 -59t-43.5 -161z" />
    <glyph glyph-name="p" unicode="p" horiz-adv-x="566" 
d="M143 437v-373q62 -33 122 -33q93 0 141 60.5t48 172.5q0 90 -44.5 148.5t-132.5 58.5q-75 0 -134 -34zM278 513q112 0 169 -68t57 -180q0 -127 -58 -202t-177 -75q-68 0 -126 29v-201h-47v649q87 48 182 48z" />
    <glyph glyph-name="q" unicode="q" horiz-adv-x="566" 
d="M470 -184h-47v219q-49 -47 -140 -47q-101 0 -161 69t-60 188q0 126 65 197t178 71q100 0 165 -39v-658zM111 246q0 -98 47 -156.5t131 -58.5q83 0 134 48v369q-54 23 -117 23q-90 0 -142.5 -58.5t-52.5 -166.5z" />
    <glyph glyph-name="r" unicode="r" horiz-adv-x="374" 
d="M101 460q89 53 210 53q20 0 44 -3l-7 -43q-15 4 -36 4q-96 0 -164 -40v-431h-47v460z" />
    <glyph glyph-name="s" unicode="s" horiz-adv-x="429" 
d="M353 490l-8 -41q-71 22 -125 22q-120 0 -120 -93q0 -24 9 -42t30 -30.5t35.5 -18.5t45.5 -16q88 -27 128 -58t40 -89q0 -67 -49.5 -101.5t-128.5 -34.5q-44 0 -92 9.5t-70 19.5l10 42q80 -28 152 -28q60 0 94.5 24t34.5 69q0 41 -33 63t-108 45q-69 22 -107.5 53.5
t-38.5 91.5q0 66 43.5 101t123.5 35q79 0 134 -23z" />
    <glyph glyph-name="t" unicode="t" horiz-adv-x="333" 
d="M308 -1q-35 -11 -70 -11q-136 0 -136 147v325h-78v41h78v122l47 4v-126h145v-41h-145v-325q0 -57 23 -80.5t68 -23.5q36 0 65 9z" />
    <glyph glyph-name="u" unicode="u" horiz-adv-x="575" 
d="M479 41q-103 -53 -212 -53q-90 0 -133 44.5t-43 123.5v345h47v-343q0 -127 129 -127q91 0 165 39v431h47v-460z" />
    <glyph glyph-name="v" unicode="v" horiz-adv-x="515" 
d="M43 501h47q20 -122 60.5 -229.5t107.5 -227.5q136 244 167 457h48q-21 -132 -67 -248.5t-123 -252.5h-51q-77 134 -122.5 251t-66.5 250z" />
    <glyph glyph-name="w" unicode="w" horiz-adv-x="785" 
d="M262 0h-49q-69 134 -110 251t-60 250h47q32 -220 149 -457q95 191 131 357q-11 49 -18 100h46q32 -219 148 -457q62 125 98 231t51 226h47q-19 -132 -60.5 -249t-110.5 -252h-49q-91 181 -132 321q-42 -152 -128 -321z" />
    <glyph glyph-name="x" unicode="x" horiz-adv-x="482" 
d="M394 0q-66 130 -159 235q-60 -66 -95.5 -118.5t-54.5 -116.5h-47q25 77 62 134t108 131q-109 119 -163 236h51q45 -92 144 -208q113 114 141 208h48q-34 -116 -162 -238q105 -119 179 -263h-52z" />
    <glyph glyph-name="y" unicode="y" horiz-adv-x="506" 
d="M286 5q-87 -153 -224 -188l-11 42q116 29 186 147q-153 239 -193 495h47q36 -220 172 -454q64 119 103.5 225t58.5 229h47q-36 -231 -186 -496z" />
    <glyph glyph-name="z" unicode="z" horiz-adv-x="455" 
d="M35 0v35q211 230 323 425h-305v41h359v-34q-115 -203 -317 -426h331v-41h-391z" />
    <glyph glyph-name="braceleft" unicode="{" horiz-adv-x="291" 
d="M212 -149q-99 0 -99 119q0 34 5 101.5t5 99.5q0 67 -19 91.5t-75 24.5v42q56 0 75 24.5t19 91.5q0 33 -5 100t-5 102q0 55 25 86.5t74 31.5q25 0 40 -2v-39h-26q-37 0 -51.5 -17.5t-14.5 -63.5q0 -32 5 -99t5 -100q0 -58 -15 -90t-51 -46q36 -14 51 -46t15 -90
q0 -33 -5 -99.5t-5 -99.5q0 -45 14.5 -62.5t51.5 -17.5h26v-39q-23 -3 -40 -3z" />
    <glyph glyph-name="bar" unicode="|" horiz-adv-x="257" 
d="M106 -217v971h45v-971h-45z" />
    <glyph glyph-name="braceright" unicode="}" horiz-adv-x="291" 
d="M79 -149q-18 0 -40 3v39h26q37 0 51.5 17.5t14.5 62.5q0 33 -5 99.5t-5 99.5q0 58 15 90t51 46q-36 14 -51 46t-15 90q0 33 5 100t5 99q0 46 -14.5 63.5t-51.5 17.5h-26v39q15 2 40 2q49 0 74 -31.5t25 -86.5q0 -35 -5 -102t-5 -100q0 -67 19 -91.5t75 -24.5v-42
q-56 0 -75 -24.5t-19 -91.5q0 -32 5 -99.5t5 -101.5q0 -119 -99 -119z" />
    <glyph glyph-name="asciitilde" unicode="~" horiz-adv-x="497" 
d="M159 393q42 0 95.5 -28.5t86.5 -28.5q54 0 89 66l33 -17q-40 -93 -119 -93q-43 0 -97 28t-86 28q-64 0 -93 -65l-33 17q14 43 47 68t77 25z" />
    <glyph glyph-name="uni00A0" unicode="&#xa0;" horiz-adv-x="235" 
 />
    <glyph glyph-name="exclamdown" unicode="&#xa1;" horiz-adv-x="282" 
d="M107 478q0 15 9.5 25t24.5 10q16 0 25.5 -10t9.5 -25t-9.5 -25t-25.5 -10q-15 0 -24.5 10t-9.5 25zM116 -192v260q0 116 7 213h37q8 -111 8 -214v-259h-52z" />
    <glyph glyph-name="cent" unicode="&#xa2;" horiz-adv-x="513" 
d="M455 14q-54 -23 -130 -26v-112h-45v113q-104 7 -161 76.5t-57 185.5q0 115 56.5 184.5t159.5 76.5v111h46v-111q68 -3 123 -23l-11 -40q-69 23 -134 23q-93 0 -141.5 -58.5t-48.5 -162.5q0 -105 50.5 -163t144.5 -58q80 0 138 24z" />
    <glyph glyph-name="sterling" unicode="&#xa3;" horiz-adv-x="552" 
d="M135 0v332h-100v42h100v117q0 87 46 139.5t144 52.5q80 0 167 -34l-13 -39q-88 30 -152 30q-145 0 -145 -149v-117h172v-42h-172v-290h340v-42h-387z" />
    <glyph glyph-name="currency" unicode="&#xa4;" horiz-adv-x="570" 
d="M482 128l-69 68q-54 -41 -128 -41q-73 0 -127 41l-69 -68l-31 31l68 68q-40 51 -40 125q0 75 41 125l-69 68l31 32l69 -69q52 40 127 40t127 -40l70 69l30 -32l-69 -68q41 -50 41 -125q0 -74 -40 -125l68 -68zM127 352q0 -70 43.5 -114t114.5 -44t113.5 43.5t42.5 114.5
t-42 114t-114 43q-71 0 -114.5 -43t-43.5 -114z" />
    <glyph glyph-name="yen" unicode="&#xa5;" horiz-adv-x="619" 
d="M548 189h-215v-189h-47v189h-217v40h217v76q-33 41 -35 44h-182v40h153q-106 147 -177 308h51q72 -168 214 -354q140 183 213 354h52q-68 -156 -177 -308h150v-40h-180l-35 -46v-74h215v-40z" />
    <glyph glyph-name="brokenbar" unicode="&#xa6;" horiz-adv-x="257" 
d="M106 340v412h45v-412h-45zM106 -217v416h45v-416h-45z" />
    <glyph glyph-name="section" unicode="&#xa7;" horiz-adv-x="588" 
d="M275 163q92 -32 126 -53q76 51 76 127q0 62 -64 99q-30 17 -131 53q-56 21 -94 45q-77 -48 -77 -126q0 -55 37.5 -84t126.5 -61zM267 -172q-97 0 -169 32l11 42q73 -30 157 -30q159 0 159 114q0 59 -56 90q-24 14 -117 47q-100 35 -145 75t-45 109q0 51 27 90.5t68 61.5
q-44 42 -44 105q0 73 54 110.5t134 37.5q76 0 157 -25l-10 -41q-79 22 -146 22q-65 0 -103 -26.5t-38 -76.5q0 -48 37 -79t108 -57q49 -17 72.5 -26.5t58 -27.5t50 -35t27.5 -43t12 -59q0 -48 -25.5 -89t-66.5 -63q40 -38 40 -100q0 -81 -60 -119.5t-147 -38.5z" />
    <glyph glyph-name="dieresis" unicode="&#xa8;" horiz-adv-x="500" 
d="M362 636q0 -16 -9 -26.5t-25 -10.5q-18 0 -27.5 10.5t-9.5 26.5q0 15 9.5 25.5t27.5 10.5q16 0 25 -10.5t9 -25.5zM206 636q0 -16 -9 -26.5t-26 -10.5t-26.5 10.5t-9.5 26.5q0 15 9.5 25.5t26.5 10.5q16 0 25.5 -10.5t9.5 -25.5z" />
    <glyph glyph-name="copyright" unicode="&#xa9;" horiz-adv-x="824" 
d="M776 350q0 -162 -100 -262t-263 -100q-164 0 -264.5 100t-100.5 262t100.5 262t264.5 100q163 0 263 -100t100 -262zM91 350q0 -146 87.5 -234.5t234.5 -88.5q146 0 233 88.5t87 234.5q0 145 -87 234t-233 89q-147 0 -234.5 -89t-87.5 -234zM236 350q0 100 53.5 148.5
t130.5 48.5q54 0 106 -20l-10 -35q-48 16 -92 16q-63 0 -104 -37.5t-41 -120.5t40.5 -120t101.5 -37q51 0 95 16l10 -36q-54 -20 -106 -20q-77 0 -130.5 48.5t-53.5 148.5z" />
    <glyph glyph-name="ordfeminine" unicode="&#xaa;" horiz-adv-x="346" 
d="M162 369q58 0 95 22v97q-43 9 -91 9q-86 0 -86 -62q0 -66 82 -66zM297 373h-2q-61 -40 -135 -40q-59 0 -90 27t-31 75t35 72.5t90 24.5q44 0 93 -9v41q0 44 -23 63t-69 19q-47 0 -93 -17l-8 35q55 19 101 19q132 0 132 -118v-192z" />
    <glyph glyph-name="guillemotleft" unicode="&#xab;" horiz-adv-x="552" 
d="M448 64q-90 80 -193 202q97 116 193 203h60q-105 -98 -194 -203q85 -100 194 -202h-60zM218 64q-90 80 -193 202q97 116 193 203h60q-105 -98 -194 -203q85 -100 194 -202h-60z" />
    <glyph glyph-name="logicalnot" unicode="&#xac;" horiz-adv-x="497" 
d="M462 137h-46v188h-381v43h427v-231z" />
    <glyph glyph-name="registered" unicode="&#xae;" horiz-adv-x="568" 
d="M49 473q0 107 64.5 173t169.5 66t170.5 -66.5t65.5 -172.5t-66 -172.5t-170 -66.5q-105 0 -169.5 66t-64.5 173zM482 473q0 96 -53.5 150.5t-145.5 54.5t-144.5 -54.5t-52.5 -150.5q0 -98 52.5 -151.5t144.5 -53.5t145.5 54t53.5 151zM277 569h-38v-91h38q61 0 61 45
q0 46 -61 46zM278 449h-39v-92h-34v241h72q96 0 96 -75q0 -51 -50 -68q21 -44 66 -98h-44q-35 44 -59 92h-8z" />
    <glyph glyph-name="macron" unicode="&#xaf;" horiz-adv-x="500" 
d="M120 607v40h254v-40h-254z" />
    <glyph glyph-name="degree" unicode="&#xb0;" horiz-adv-x="331" 
d="M30 576q0 61 37.5 98.5t98.5 37.5t98 -37.5t37 -98.5t-37 -98t-98 -37t-98.5 37t-37.5 98zM166 675q-43 0 -69.5 -26.5t-26.5 -72.5t26.5 -72t69.5 -26t68.5 26t25.5 72t-25.5 72.5t-68.5 26.5z" />
    <glyph glyph-name="plusminus" unicode="&#xb1;" horiz-adv-x="497" 
d="M462 335h-190v-184h-46v184h-191v43h191v178h46v-178h190v-43zM35 33v42h427v-42h-427z" />
    <glyph glyph-name="twosuperior" unicode="&#xb2;" horiz-adv-x="315" 
d="M282 366h-235v35l34 28q78 63 107.5 99t29.5 77q0 68 -73 68q-42 0 -82 -31l-19 32q51 38 105 38q51 0 82 -26.5t31 -76.5q0 -47 -34 -90t-120 -112l-6 -5h180v-36z" />
    <glyph glyph-name="threesuperior" unicode="&#xb3;" horiz-adv-x="315" 
d="M153 358q-58 0 -102 22l13 36q45 -20 87 -20q80 0 80 64t-75 64h-46v34h33q73 0 73 62q0 54 -71 54q-32 0 -68 -20l-19 32q40 26 89 26q52 0 82 -23.5t30 -65.5q0 -59 -56 -79q71 -15 71 -85q0 -101 -121 -101z" />
    <glyph glyph-name="acute" unicode="&#xb4;" horiz-adv-x="500" 
d="M256 704h54l-99 -134h-46z" />
    <glyph glyph-name="paragraph" unicode="&#xb6;" horiz-adv-x="596" 
d="M273 700h218v-700h-43v664h-133v-664h-42v282q-92 0 -154 53t-62 156t62 156t154 53z" />
    <glyph glyph-name="periodcentered" unicode="&#xb7;" horiz-adv-x="500" 
d="M52 355q0 15 9.5 24.5t25.5 9.5q15 0 24.5 -9.5t9.5 -24.5t-9.5 -25.5t-24.5 -10.5q-16 0 -25.5 10.5t-9.5 25.5z" />
    <glyph glyph-name="cedilla" unicode="&#xb8;" horiz-adv-x="500" 
d="M213 -212q-30 0 -56 7l7 34q26 -6 48 -6q69 0 69 45q0 42 -79 45l-9 24l21 63h38l-20 -57q92 -7 92 -76q0 -39 -30.5 -59t-80.5 -20z" />
    <glyph glyph-name="onesuperior" unicode="&#xb9;" horiz-adv-x="315" 
d="M212 366h-42v295q-44 -22 -83 -47l-17 32q42 29 105 58h37v-338z" />
    <glyph glyph-name="ordmasculine" unicode="&#xba;" horiz-adv-x="376" 
d="M337 507q0 -73 -36.5 -124t-112.5 -51t-112.5 51t-36.5 124q0 74 36.5 125t112.5 51t112.5 -51t36.5 -125zM81 507q0 -64 27 -101t80 -37t80 37t27 101t-27 101.5t-80 37.5t-80 -37.5t-27 -101.5z" />
    <glyph glyph-name="guillemotright" unicode="&#xbb;" horiz-adv-x="552" 
d="M104 64h-60q115 109 194 202q-83 98 -194 203h60q91 -82 193 -203q-109 -127 -193 -202zM334 64h-60q109 102 194 202q-89 105 -194 203h60q96 -87 193 -203q-103 -122 -193 -202z" />
    <glyph glyph-name="onequarter" unicode="&#xbc;" horiz-adv-x="789" 
d="M212 366h-42v295q-44 -22 -83 -47l-17 32q42 29 105 58h37v-338zM571 700h46l-388 -700h-46zM645 188q0 62 4 110q-87 -106 -143 -196h139v86zM739 67h-53v-67h-41v67h-178v31q74 128 178 240h41v-236h53v-35z" />
    <glyph glyph-name="onehalf" unicode="&#xbd;" horiz-adv-x="789" 
d="M212 366h-42v295q-44 -22 -83 -47l-17 32q42 29 105 58h37v-338zM539 700h46l-388 -700h-46zM729 0h-235v35l34 27q78 64 107.5 100t29.5 77q0 68 -73 68q-40 0 -82 -31l-19 32q51 38 105 38q51 0 82 -26.5t31 -77.5q0 -46 -34 -89t-120 -112l-6 -5h180v-36z" />
    <glyph glyph-name="threequarters" unicode="&#xbe;" horiz-adv-x="789" 
d="M587 700h46l-388 -700h-46zM153 358q-58 0 -102 22l13 36q45 -20 87 -20q80 0 80 64t-75 64h-46v34h33q73 0 73 62q0 54 -71 54q-32 0 -68 -20l-19 32q40 26 89 26q52 0 82 -23.5t30 -65.5q0 -59 -56 -79q71 -15 71 -85q0 -101 -121 -101zM645 188q0 62 4 110
q-87 -106 -143 -196h139v86zM739 67h-53v-67h-41v67h-178v31q74 128 178 240h41v-236h53v-35z" />
    <glyph glyph-name="questiondown" unicode="&#xbf;" horiz-adv-x="435" 
d="M246 443q-15 0 -24.5 10t-9.5 25t9.5 25t24.5 10q16 0 25.5 -10t9.5 -25t-9.5 -25t-25.5 -10zM406 -172q-74 -32 -152 -32q-88 0 -142.5 43t-54.5 119q0 54 21.5 88.5t62.5 71.5q31 29 43 41.5t26.5 41.5t14.5 60v20h44v-23q0 -37 -14 -68.5t-27.5 -46.5t-40.5 -41
q-27 -25 -40.5 -39t-26.5 -42t-13 -61q0 -58 38.5 -89t109.5 -31q67 0 140 29z" />
    <glyph glyph-name="Agrave" unicode="&#xc0;" horiz-adv-x="636" 
d="M298 768l-99 134h54l91 -134h-46zM318 653q-71 -159 -153 -387h306q-82 228 -153 387zM559 0q-32 104 -73 224h-336q-41 -120 -73 -224h-49q133 415 265 700h50q140 -302 265 -700h-49z" />
    <glyph glyph-name="Aacute" unicode="&#xc1;" horiz-adv-x="636" 
d="M388 902h54l-99 -134h-46zM318 653q-71 -159 -153 -387h306q-82 228 -153 387zM559 0q-32 104 -73 224h-336q-41 -120 -73 -224h-49q133 415 265 700h50q140 -302 265 -700h-49z" />
    <glyph glyph-name="Acircumflex" unicode="&#xc2;" horiz-adv-x="636" 
d="M405 768l-87 106l-87 -106h-50l108 134h59l107 -134h-50zM318 653q-71 -159 -153 -387h306q-82 228 -153 387zM559 0q-32 104 -73 224h-336q-41 -120 -73 -224h-49q133 415 265 700h50q140 -302 265 -700h-49z" />
    <glyph glyph-name="Atilde" unicode="&#xc3;" horiz-adv-x="636" 
d="M250 879q31 0 75 -29t62 -29q16 0 24 9.5t10.5 21t3.5 34.5h39q-2 -47 -17 -76t-56 -29q-31 0 -73.5 28.5t-64.5 28.5q-23 0 -32 -14t-11 -41h-39q3 96 79 96zM318 653q-71 -159 -153 -387h306q-82 228 -153 387zM559 0q-32 104 -73 224h-336q-41 -120 -73 -224h-49
q133 415 265 700h50q140 -302 265 -700h-49z" />
    <glyph glyph-name="Adieresis" unicode="&#xc4;" horiz-adv-x="636" 
d="M431 834q0 -16 -9 -26.5t-25 -10.5q-18 0 -27.5 10.5t-9.5 26.5q0 15 9.5 25.5t27.5 10.5q16 0 25 -10.5t9 -25.5zM275 834q0 -16 -9 -26.5t-26 -10.5t-26.5 10.5t-9.5 26.5q0 15 9.5 25.5t26.5 10.5q16 0 25.5 -10.5t9.5 -25.5zM318 653q-71 -159 -153 -387h306
q-82 228 -153 387zM559 0q-32 104 -73 224h-336q-41 -120 -73 -224h-49q133 415 265 700h50q140 -302 265 -700h-49z" />
    <glyph glyph-name="Aring" unicode="&#xc5;" horiz-adv-x="636" 
d="M318 851q-28 0 -43.5 -17t-15.5 -43t15.5 -44t43.5 -18t43.5 18t15.5 44t-15.5 43t-43.5 17zM318 653q-71 -159 -153 -387h306q-82 228 -153 387zM559 0q-32 104 -73 224h-336q-41 -120 -73 -224h-49q133 415 264 698q-31 8 -50.5 33t-19.5 60q0 42 27 68.5t69 26.5
t69 -26.5t27 -68.5q0 -35 -19.5 -60t-50.5 -33q139 -302 264 -698h-49z" />
    <glyph glyph-name="AE" unicode="&#xc6;" horiz-adv-x="883" 
d="M446 266v386q-129 -202 -233 -386h233zM446 0v224h-257q-68 -122 -120 -224h-50q180 358 411 700h395v-43h-332v-274h282v-43h-282v-297h332v-43h-379z" />
    <glyph glyph-name="Ccedilla" unicode="&#xc7;" horiz-adv-x="600" 
d="M333 -212q-30 0 -56 7l7 34q26 -6 48 -6q70 0 70 45q0 42 -80 45l-9 24l18 54q-128 15 -196 107.5t-68 242.5q0 166 77 268.5t228 102.5q86 0 171 -34l-13 -43q-87 33 -158 33q-66 0 -116 -26t-80 -71.5t-44.5 -103.5t-14.5 -126q0 -141 66.5 -225t196.5 -84q76 0 157 36
l11 -42q-76 -38 -169 -38h-11l-16 -45q92 -7 92 -76q0 -39 -30.5 -59t-80.5 -20z" />
    <glyph glyph-name="Egrave" unicode="&#xc8;" horiz-adv-x="562" 
d="M288 768l-99 134h54l91 -134h-46zM504 43v-43h-398v700h398v-43h-351v-274h301v-43h-301v-297h351z" />
    <glyph glyph-name="Eacute" unicode="&#xc9;" horiz-adv-x="562" 
d="M378 902h54l-99 -134h-46zM504 43v-43h-398v700h398v-43h-351v-274h301v-43h-301v-297h351z" />
    <glyph glyph-name="Ecircumflex" unicode="&#xca;" horiz-adv-x="562" 
d="M394 768l-87 106l-87 -106h-50l108 134h59l107 -134h-50zM504 43v-43h-398v700h398v-43h-351v-274h301v-43h-301v-297h351z" />
    <glyph glyph-name="Edieresis" unicode="&#xcb;" horiz-adv-x="562" 
d="M420 834q0 -16 -9 -26.5t-25 -10.5q-18 0 -27.5 10.5t-9.5 26.5q0 15 9.5 25.5t27.5 10.5q16 0 25 -10.5t9 -25.5zM264 834q0 -16 -9 -26.5t-26 -10.5t-26.5 10.5t-9.5 26.5q0 15 9.5 25.5t26.5 10.5q16 0 25.5 -10.5t9.5 -25.5zM504 43v-43h-398v700h398v-43h-351v-274
h301v-43h-301v-297h351z" />
    <glyph glyph-name="Igrave" unicode="&#xcc;" horiz-adv-x="259" 
d="M110 768l-99 134h54l91 -134h-46zM106 0v700h47v-700h-47z" />
    <glyph glyph-name="Iacute" unicode="&#xcd;" horiz-adv-x="259" 
d="M200 902h54l-99 -134h-46zM106 0v700h47v-700h-47z" />
    <glyph glyph-name="Icircumflex" unicode="&#xce;" horiz-adv-x="259" 
d="M217 768l-87 106l-87 -106h-50l108 134h59l107 -134h-50zM106 0v700h47v-700h-47z" />
    <glyph glyph-name="Idieresis" unicode="&#xcf;" horiz-adv-x="259" 
d="M243 834q0 -16 -9 -26.5t-25 -10.5q-18 0 -27.5 10.5t-9.5 26.5q0 15 9.5 25.5t27.5 10.5q16 0 25 -10.5t9 -25.5zM87 834q0 -16 -9 -26.5t-26 -10.5t-26.5 10.5t-9.5 26.5q0 15 9.5 25.5t26.5 10.5q16 0 25.5 -10.5t9.5 -25.5zM106 0v700h47v-700h-47z" />
    <glyph glyph-name="Eth" unicode="&#xd0;" horiz-adv-x="687" 
d="M305 339h-151v-296h137q143 0 215.5 85t72.5 222q0 138 -71.5 222.5t-216.5 84.5h-137v-275h151v-43zM106 0v339h-79v43h79v318h185q162 0 250 -95t88 -255t-88 -255t-250 -95h-185z" />
    <glyph glyph-name="Ntilde" unicode="&#xd1;" horiz-adv-x="719" 
d="M292 879q31 0 75 -29t62 -29q16 0 24 9.5t10.5 21t3.5 34.5h39q-2 -47 -17 -76t-56 -29q-31 0 -73.5 28.5t-64.5 28.5q-23 0 -32 -14t-11 -41h-39q3 96 79 96zM152 0h-46v700h46q161 -282 419 -632q-4 33 -4 96v536h47v-700h-47l-244.5 339t-173.5 283q3 -96 3 -109v-513
z" />
    <glyph glyph-name="Ograve" unicode="&#xd2;" horiz-adv-x="708" 
d="M334 768l-99 134h54l91 -134h-46zM641 350q0 -160 -72.5 -261t-214.5 -101t-214.5 101t-72.5 261t72 261t215 101q142 0 214.5 -101t72.5 -261zM117 350q0 -90 23 -159.5t78 -114t136 -44.5t136 44.5t78 114t23 159.5t-23 159.5t-78 114t-136 44.5q-121 0 -179 -89
t-58 -229z" />
    <glyph glyph-name="Oacute" unicode="&#xd3;" horiz-adv-x="708" 
d="M424 902h54l-99 -134h-46zM641 350q0 -160 -72.5 -261t-214.5 -101t-214.5 101t-72.5 261t72 261t215 101q142 0 214.5 -101t72.5 -261zM117 350q0 -90 23 -159.5t78 -114t136 -44.5t136 44.5t78 114t23 159.5t-23 159.5t-78 114t-136 44.5q-121 0 -179 -89t-58 -229z
" />
    <glyph glyph-name="Ocircumflex" unicode="&#xd4;" horiz-adv-x="708" 
d="M441 768l-87 106l-87 -106h-50l108 134h59l107 -134h-50zM641 350q0 -160 -72.5 -261t-214.5 -101t-214.5 101t-72.5 261t72 261t215 101q142 0 214.5 -101t72.5 -261zM117 350q0 -90 23 -159.5t78 -114t136 -44.5t136 44.5t78 114t23 159.5t-23 159.5t-78 114t-136 44.5
q-121 0 -179 -89t-58 -229z" />
    <glyph glyph-name="Otilde" unicode="&#xd5;" horiz-adv-x="708" 
d="M286 879q31 0 75 -29t62 -29q16 0 24 9.5t10.5 21t3.5 34.5h39q-2 -47 -17 -76t-56 -29q-31 0 -73.5 28.5t-64.5 28.5q-23 0 -32 -14t-11 -41h-39q3 96 79 96zM641 350q0 -160 -72.5 -261t-214.5 -101t-214.5 101t-72.5 261t72 261t215 101q142 0 214.5 -101t72.5 -261z
M117 350q0 -90 23 -159.5t78 -114t136 -44.5t136 44.5t78 114t23 159.5t-23 159.5t-78 114t-136 44.5q-121 0 -179 -89t-58 -229z" />
    <glyph glyph-name="Odieresis" unicode="&#xd6;" horiz-adv-x="708" 
d="M467 834q0 -16 -9 -26.5t-25 -10.5q-18 0 -27.5 10.5t-9.5 26.5q0 15 9.5 25.5t27.5 10.5q16 0 25 -10.5t9 -25.5zM311 834q0 -16 -9 -26.5t-26 -10.5t-26.5 10.5t-9.5 26.5q0 15 9.5 25.5t26.5 10.5q16 0 25.5 -10.5t9.5 -25.5zM641 350q0 -160 -72.5 -261t-214.5 -101
t-214.5 101t-72.5 261t72 261t215 101q142 0 214.5 -101t72.5 -261zM117 350q0 -90 23 -159.5t78 -114t136 -44.5t136 44.5t78 114t23 159.5t-23 159.5t-78 114t-136 44.5q-121 0 -179 -89t-58 -229z" />
    <glyph glyph-name="multiply" unicode="&#xd7;" horiz-adv-x="497" 
d="M405 157l-156 156l-157 -156l-30 29l157 157l-157 156l30 30l157 -156l156 156l30 -30l-157 -156l157 -157z" />
    <glyph glyph-name="Oslash" unicode="&#xd8;" horiz-adv-x="691" 
d="M354 -12q-117 0 -191 74l-46 -62h-47l68 91q-71 98 -71 259q0 160 72 261t215 101q119 0 191 -74l46 62h46l-67 -91q71 -96 71 -259q0 -160 -72.5 -261t-214.5 -101zM117 350q0 -133 51 -218l348 467q-61 69 -162 69q-121 0 -179 -89t-58 -229zM354 32q81 0 136 44.5
t78 114t23 159.5q0 136 -52 218l-347 -467q61 -69 162 -69z" />
    <glyph glyph-name="Ugrave" unicode="&#xd9;" horiz-adv-x="699" 
d="M330 768l-99 134h54l91 -134h-46zM101 267v433h47v-432q0 -121 49.5 -178.5t151.5 -57.5q103 0 152 57t49 179v432h48v-433q0 -145 -61.5 -212t-187.5 -67t-187 67t-61 212z" />
    <glyph glyph-name="Uacute" unicode="&#xda;" horiz-adv-x="699" 
d="M420 902h54l-99 -134h-46zM101 267v433h47v-432q0 -121 49.5 -178.5t151.5 -57.5q103 0 152 57t49 179v432h48v-433q0 -145 -61.5 -212t-187.5 -67t-187 67t-61 212z" />
    <glyph glyph-name="Ucircumflex" unicode="&#xdb;" horiz-adv-x="699" 
d="M436 768l-87 106l-87 -106h-50l108 134h59l107 -134h-50zM101 267v433h47v-432q0 -121 49.5 -178.5t151.5 -57.5q103 0 152 57t49 179v432h48v-433q0 -145 -61.5 -212t-187.5 -67t-187 67t-61 212z" />
    <glyph glyph-name="Udieresis" unicode="&#xdc;" horiz-adv-x="699" 
d="M462 834q0 -16 -9 -26.5t-25 -10.5q-18 0 -27.5 10.5t-9.5 26.5q0 15 9.5 25.5t27.5 10.5q16 0 25 -10.5t9 -25.5zM306 834q0 -16 -9 -26.5t-26 -10.5t-26.5 10.5t-9.5 26.5q0 15 9.5 25.5t26.5 10.5q16 0 25.5 -10.5t9.5 -25.5zM101 267v433h47v-432q0 -121 49.5 -178.5
t151.5 -57.5q103 0 152 57t49 179v432h48v-433q0 -145 -61.5 -212t-187.5 -67t-187 67t-61 212z" />
    <glyph glyph-name="Yacute" unicode="&#xdd;" horiz-adv-x="569" 
d="M356 902h54l-99 -134h-46zM309 0h-48v302q-84 107 -140.5 199t-102.5 199h52q74 -172 216 -359q139 181 214 359h51q-89 -204 -242 -396v-304z" />
    <glyph glyph-name="Thorn" unicode="&#xde;" horiz-adv-x="591" 
d="M260 530h-107v-351h107q110 0 169.5 40t59.5 136t-59.5 135.5t-169.5 39.5zM260 137h-107v-137h-47v700h47v-127h107q278 0 278 -218t-278 -218z" />
    <glyph glyph-name="germandbls" unicode="&#xdf;" horiz-adv-x="594" 
d="M100 0v521q0 100 49.5 155t134.5 55q82 0 124.5 -39.5t42.5 -107.5q0 -50 -35 -109t-35 -83q0 -21 17 -40t41.5 -37t49 -39t41.5 -53.5t17 -71.5q0 -78 -55.5 -120.5t-143.5 -42.5q-39 0 -103 12l6 42q47 -11 97 -11q71 0 110.5 30.5t39.5 89.5q0 43 -25.5 76.5t-56 52
t-56 47.5t-25.5 63q0 35 34 93t34 99q0 107 -118 107q-138 0 -138 -168v-521h-47z" />
    <glyph glyph-name="agrave" unicode="&#xe0;" horiz-adv-x="519" 
d="M234 584l-99 134h54l91 -134h-46zM428 36q-77 -48 -187 -48q-89 0 -136.5 39.5t-47.5 105.5q0 78 53.5 114.5t138.5 36.5q64 0 132 -15v68q0 134 -141 134q-71 0 -136 -27l-13 41q65 28 150 28q187 0 187 -177v-300zM243 29q86 0 138 33v167q-66 16 -129 16
q-147 0 -147 -112q0 -51 36 -77.5t102 -26.5z" />
    <glyph glyph-name="aacute" unicode="&#xe1;" horiz-adv-x="519" 
d="M324 718h54l-99 -134h-46zM428 36q-77 -48 -187 -48q-89 0 -136.5 39.5t-47.5 105.5q0 78 53.5 114.5t138.5 36.5q64 0 132 -15v68q0 134 -141 134q-71 0 -136 -27l-13 41q65 28 150 28q187 0 187 -177v-300zM243 29q86 0 138 33v167q-66 16 -129 16q-147 0 -147 -112
q0 -51 36 -77.5t102 -26.5z" />
    <glyph glyph-name="acircumflex" unicode="&#xe2;" horiz-adv-x="519" 
d="M340 584l-87 106l-87 -106h-50l108 134h59l107 -134h-50zM428 36q-77 -48 -187 -48q-89 0 -136.5 39.5t-47.5 105.5q0 78 53.5 114.5t138.5 36.5q64 0 132 -15v68q0 134 -141 134q-71 0 -136 -27l-13 41q65 28 150 28q187 0 187 -177v-300zM243 29q86 0 138 33v167
q-66 16 -129 16q-147 0 -147 -112q0 -51 36 -77.5t102 -26.5z" />
    <glyph glyph-name="atilde" unicode="&#xe3;" horiz-adv-x="519" 
d="M185 695q31 0 75 -29t62 -29q16 0 24 9.5t10.5 21t3.5 34.5h39q-2 -47 -17 -76t-56 -29q-31 0 -73.5 28.5t-64.5 28.5q-23 0 -32 -14t-11 -41h-39q3 96 79 96zM428 36q-77 -48 -187 -48q-89 0 -136.5 39.5t-47.5 105.5q0 78 53.5 114.5t138.5 36.5q64 0 132 -15v68
q0 134 -141 134q-71 0 -136 -27l-13 41q65 28 150 28q187 0 187 -177v-300zM243 29q86 0 138 33v167q-66 16 -129 16q-147 0 -147 -112q0 -51 36 -77.5t102 -26.5z" />
    <glyph glyph-name="adieresis" unicode="&#xe4;" horiz-adv-x="519" 
d="M366 650q0 -16 -9 -26.5t-25 -10.5q-18 0 -27.5 10.5t-9.5 26.5q0 15 9.5 25.5t27.5 10.5q16 0 25 -10.5t9 -25.5zM210 650q0 -16 -9 -26.5t-26 -10.5t-26.5 10.5t-9.5 26.5q0 15 9.5 25.5t26.5 10.5q16 0 25.5 -10.5t9.5 -25.5zM428 36q-77 -48 -187 -48
q-89 0 -136.5 39.5t-47.5 105.5q0 78 53.5 114.5t138.5 36.5q64 0 132 -15v68q0 134 -141 134q-71 0 -136 -27l-13 41q65 28 150 28q187 0 187 -177v-300zM243 29q86 0 138 33v167q-66 16 -129 16q-147 0 -147 -112q0 -51 36 -77.5t102 -26.5z" />
    <glyph glyph-name="aring" unicode="&#xe5;" horiz-adv-x="519" 
d="M157 664q0 41 27.5 68t68.5 27t68.5 -27t27.5 -68q0 -42 -27 -69t-69 -27t-69 27t-27 69zM312 664q0 26 -15.5 43t-43.5 17t-43.5 -17t-15.5 -43t15.5 -44t43.5 -18t43.5 18t15.5 44zM428 36q-77 -48 -187 -48q-89 0 -136.5 39.5t-47.5 105.5q0 78 53.5 114.5t138.5 36.5
q64 0 132 -15v68q0 134 -141 134q-71 0 -136 -27l-13 41q65 28 150 28q187 0 187 -177v-300zM243 29q86 0 138 33v167q-66 16 -129 16q-147 0 -147 -112q0 -51 36 -77.5t102 -26.5z" />
    <glyph glyph-name="ae" unicode="&#xe6;" horiz-adv-x="867" 
d="M605 471q-77 0 -122.5 -51.5t-52.5 -137.5h327v22q0 70 -37.5 118.5t-114.5 48.5zM803 24q-75 -36 -168 -36q-126 0 -192 75q-85 -75 -203 -75q-88 0 -135.5 41.5t-47.5 110.5q0 147 189 149q66 0 135 -16v63q0 63 -34.5 99t-106.5 36q-61 0 -133 -24l-10 41
q75 25 144 25q150 0 175 -129q64 129 189 129q97 0 149 -61t52 -154q0 -27 -3 -54h-374q2 -106 57 -159.5t151 -53.5q77 0 155 34zM241 29q108 0 177 66q-32 55 -37 139q-68 16 -132 16q-69 0 -106.5 -24.5t-37.5 -84.5q0 -55 35 -83.5t101 -28.5z" />
    <glyph glyph-name="ccedilla" unicode="&#xe7;" horiz-adv-x="488" 
d="M269 -212q-31 0 -57 7l7 34q26 -6 48 -6q70 0 70 45q0 42 -79 45l-10 24l19 54q-99 11 -152 77t-53 178q0 122 62 194.5t175 72.5q76 0 141 -29l-12 -40q-67 27 -128 27q-92 0 -140.5 -60.5t-48.5 -163.5q0 -106 51 -161t151 -55q62 0 122 30l12 -40q-61 -33 -136 -33h-7
l-16 -45q91 -7 91 -76q0 -39 -30.5 -59t-79.5 -20z" />
    <glyph glyph-name="egrave" unicode="&#xe8;" horiz-adv-x="548" 
d="M265 584l-99 134h54l91 -134h-46zM287 471q-78 0 -123.5 -51.5t-52.5 -137.5h327q1 8 1 22q0 70 -37.5 118.5t-114.5 48.5zM484 24q-73 -36 -167 -36q-119 0 -187 68t-68 196q0 116 60 188.5t165 72.5q96 0 148 -61t52 -154q0 -27 -3 -54h-374q2 -106 57.5 -159.5
t151.5 -53.5q76 0 154 34z" />
    <glyph glyph-name="eacute" unicode="&#xe9;" horiz-adv-x="548" 
d="M355 718h54l-99 -134h-46zM287 471q-78 0 -123.5 -51.5t-52.5 -137.5h327q1 8 1 22q0 70 -37.5 118.5t-114.5 48.5zM484 24q-73 -36 -167 -36q-119 0 -187 68t-68 196q0 116 60 188.5t165 72.5q96 0 148 -61t52 -154q0 -27 -3 -54h-374q2 -106 57.5 -159.5t151.5 -53.5
q76 0 154 34z" />
    <glyph glyph-name="ecircumflex" unicode="&#xea;" horiz-adv-x="548" 
d="M372 584l-87 106l-87 -106h-50l108 134h59l107 -134h-50zM287 471q-78 0 -123.5 -51.5t-52.5 -137.5h327q1 8 1 22q0 70 -37.5 118.5t-114.5 48.5zM484 24q-73 -36 -167 -36q-119 0 -187 68t-68 196q0 116 60 188.5t165 72.5q96 0 148 -61t52 -154q0 -27 -3 -54h-374
q2 -106 57.5 -159.5t151.5 -53.5q76 0 154 34z" />
    <glyph glyph-name="edieresis" unicode="&#xeb;" horiz-adv-x="548" 
d="M398 650q0 -16 -9 -26.5t-25 -10.5q-18 0 -27.5 10.5t-9.5 26.5q0 15 9.5 25.5t27.5 10.5q16 0 25 -10.5t9 -25.5zM242 650q0 -16 -9 -26.5t-26 -10.5t-26.5 10.5t-9.5 26.5q0 15 9.5 25.5t26.5 10.5q16 0 25.5 -10.5t9.5 -25.5zM287 471q-78 0 -123.5 -51.5
t-52.5 -137.5h327q1 8 1 22q0 70 -37.5 118.5t-114.5 48.5zM484 24q-73 -36 -167 -36q-119 0 -187 68t-68 196q0 116 60 188.5t165 72.5q96 0 148 -61t52 -154q0 -27 -3 -54h-374q2 -106 57.5 -159.5t151.5 -53.5q76 0 154 34z" />
    <glyph glyph-name="igrave" unicode="&#xec;" horiz-adv-x="248" 
d="M106 584l-99 134h54l91 -134h-46zM101 501h47v-501h-47v501z" />
    <glyph glyph-name="iacute" unicode="&#xed;" horiz-adv-x="248" 
d="M196 718h54l-99 -134h-46zM101 501h47v-501h-47v501z" />
    <glyph glyph-name="icircumflex" unicode="&#xee;" horiz-adv-x="248" 
d="M213 584l-87 106l-87 -106h-50l108 134h59l107 -134h-50zM101 501h47v-501h-47v501z" />
    <glyph glyph-name="idieresis" unicode="&#xef;" horiz-adv-x="248" 
d="M239 650q0 -16 -9 -26.5t-25 -10.5q-18 0 -27.5 10.5t-9.5 26.5q0 15 9.5 25.5t27.5 10.5q16 0 25 -10.5t9 -25.5zM83 650q0 -16 -9 -26.5t-26 -10.5t-26.5 10.5t-9.5 26.5q0 15 9.5 25.5t26.5 10.5q16 0 25.5 -10.5t9.5 -25.5zM101 501h47v-501h-47v501z" />
    <glyph glyph-name="eth" unicode="&#xf0;" horiz-adv-x="535" 
d="M250 -12q-89 0 -145.5 63.5t-56.5 168.5q0 95 57 158t152 63q90 0 159 -49q-31 131 -124 212l-101 -86l-23 29l94 81q-58 40 -129 53l13 39q82 -13 152 -62l85 73l24 -28l-79 -68q69 -61 107.5 -152t38.5 -192q0 -140 -55.5 -221.5t-168.5 -81.5zM249 31q96 0 137 67.5
t41 192.5q0 27 -3 53q-79 56 -162 56q-82 0 -124 -51.5t-42 -128.5q0 -80 40 -134.5t113 -54.5z" />
    <glyph glyph-name="ntilde" unicode="&#xf1;" horiz-adv-x="584" 
d="M226 695q31 0 75 -29t62 -29q16 0 24 9.5t10.5 21t3.5 34.5h39q-2 -47 -17 -76t-56 -29q-31 0 -73.5 28.5t-64.5 28.5q-23 0 -32 -14t-11 -41h-39q3 96 79 96zM143 0h-47v461q97 52 207 52q95 0 142.5 -46.5t47.5 -129.5v-337h-47v334q0 63 -35.5 100t-107.5 37
q-91 0 -160 -39v-432z" />
    <glyph glyph-name="ograve" unicode="&#xf2;" horiz-adv-x="564" 
d="M263 584l-99 134h54l91 -134h-46zM503 251q0 -119 -58 -191t-163 -72q-104 0 -162 72t-58 191t58 190.5t162 71.5q105 0 163 -71.5t58 -190.5zM111 251q0 -102 43.5 -161t127.5 -59q86 0 128.5 59t42.5 161t-42.5 161t-128.5 59q-84 0 -127.5 -59t-43.5 -161z" />
    <glyph glyph-name="oacute" unicode="&#xf3;" horiz-adv-x="564" 
d="M353 718h54l-99 -134h-46zM503 251q0 -119 -58 -191t-163 -72q-104 0 -162 72t-58 191t58 190.5t162 71.5q105 0 163 -71.5t58 -190.5zM111 251q0 -102 43.5 -161t127.5 -59q86 0 128.5 59t42.5 161t-42.5 161t-128.5 59q-84 0 -127.5 -59t-43.5 -161z" />
    <glyph glyph-name="ocircumflex" unicode="&#xf4;" horiz-adv-x="564" 
d="M370 584l-87 106l-87 -106h-50l108 134h59l107 -134h-50zM503 251q0 -119 -58 -191t-163 -72q-104 0 -162 72t-58 191t58 190.5t162 71.5q105 0 163 -71.5t58 -190.5zM111 251q0 -102 43.5 -161t127.5 -59q86 0 128.5 59t42.5 161t-42.5 161t-128.5 59q-84 0 -127.5 -59
t-43.5 -161z" />
    <glyph glyph-name="otilde" unicode="&#xf5;" horiz-adv-x="564" 
d="M215 695q31 0 75 -29t62 -29q16 0 24 9.5t10.5 21t3.5 34.5h39q-2 -47 -17 -76t-56 -29q-31 0 -73.5 28.5t-64.5 28.5q-23 0 -32 -14t-11 -41h-39q3 96 79 96zM503 251q0 -119 -58 -191t-163 -72q-104 0 -162 72t-58 191t58 190.5t162 71.5q105 0 163 -71.5t58 -190.5z
M111 251q0 -102 43.5 -161t127.5 -59q86 0 128.5 59t42.5 161t-42.5 161t-128.5 59q-84 0 -127.5 -59t-43.5 -161z" />
    <glyph glyph-name="odieresis" unicode="&#xf6;" horiz-adv-x="564" 
d="M396 650q0 -16 -9 -26.5t-25 -10.5q-18 0 -27.5 10.5t-9.5 26.5q0 15 9.5 25.5t27.5 10.5q16 0 25 -10.5t9 -25.5zM240 650q0 -16 -9 -26.5t-26 -10.5t-26.5 10.5t-9.5 26.5q0 15 9.5 25.5t26.5 10.5q16 0 25.5 -10.5t9.5 -25.5zM503 251q0 -119 -58 -191t-163 -72
q-104 0 -162 72t-58 191t58 190.5t162 71.5q105 0 163 -71.5t58 -190.5zM111 251q0 -102 43.5 -161t127.5 -59q86 0 128.5 59t42.5 161t-42.5 161t-128.5 59q-84 0 -127.5 -59t-43.5 -161z" />
    <glyph glyph-name="divide" unicode="&#xf7;" horiz-adv-x="497" 
d="M215 507q0 14 9.5 24t24.5 10t24 -10t9 -24q0 -15 -9 -25t-24 -10t-24.5 10t-9.5 25zM35 322v42h427v-42h-427zM215 174q0 14 9.5 24t24.5 10t24 -10t9 -24q0 -15 -9 -25t-24 -10t-24.5 10t-9.5 25z" />
    <glyph glyph-name="oslash" unicode="&#xf8;" horiz-adv-x="568" 
d="M282 -12q-86 0 -142 51l-31 -39h-43l51 64q-55 70 -55 187q0 119 58 190.5t162 71.5q88 0 146 -53l32 41h43l-53 -67q53 -70 53 -183q0 -119 -58 -191t-163 -72zM111 251q0 -91 35 -149l254 323q-44 46 -118 46q-84 0 -127.5 -59t-43.5 -161zM282 31q86 0 128.5 59
t42.5 161q0 91 -32 145l-253 -321q42 -44 114 -44z" />
    <glyph glyph-name="ugrave" unicode="&#xf9;" horiz-adv-x="575" 
d="M272 584l-99 134h54l91 -134h-46zM479 41q-103 -53 -212 -53q-90 0 -133 44.5t-43 123.5v345h47v-343q0 -127 129 -127q91 0 165 39v431h47v-460z" />
    <glyph glyph-name="uacute" unicode="&#xfa;" horiz-adv-x="575" 
d="M362 718h54l-99 -134h-46zM479 41q-103 -53 -212 -53q-90 0 -133 44.5t-43 123.5v345h47v-343q0 -127 129 -127q91 0 165 39v431h47v-460z" />
    <glyph glyph-name="ucircumflex" unicode="&#xfb;" horiz-adv-x="575" 
d="M378 584l-87 106l-87 -106h-50l108 134h59l107 -134h-50zM479 41q-103 -53 -212 -53q-90 0 -133 44.5t-43 123.5v345h47v-343q0 -127 129 -127q91 0 165 39v431h47v-460z" />
    <glyph glyph-name="udieresis" unicode="&#xfc;" horiz-adv-x="575" 
d="M404 650q0 -16 -9 -26.5t-25 -10.5q-18 0 -27.5 10.5t-9.5 26.5q0 15 9.5 25.5t27.5 10.5q16 0 25 -10.5t9 -25.5zM248 650q0 -16 -9 -26.5t-26 -10.5t-26.5 10.5t-9.5 26.5q0 15 9.5 25.5t26.5 10.5q16 0 25.5 -10.5t9.5 -25.5zM479 41q-103 -53 -212 -53
q-90 0 -133 44.5t-43 123.5v345h47v-343q0 -127 129 -127q91 0 165 39v431h47v-460z" />
    <glyph glyph-name="yacute" unicode="&#xfd;" horiz-adv-x="506" 
d="M332 718h54l-99 -134h-46zM286 5q-87 -153 -224 -188l-11 42q116 29 186 147q-153 239 -193 495h47q36 -220 172 -454q64 119 103.5 225t58.5 229h47q-36 -231 -186 -496z" />
    <glyph glyph-name="thorn" unicode="&#xfe;" horiz-adv-x="573" 
d="M148 64q60 -33 122 -33q93 0 141 60.5t48 172.5q0 90 -44.5 148.5t-133.5 58.5q-74 0 -133 -34v-373zM148 -184h-47v904l47 3v-239q65 29 136 29q111 0 168 -68t57 -180q0 -127 -58.5 -202t-179.5 -75q-65 0 -123 28v-200z" />
    <glyph glyph-name="ydieresis" unicode="&#xff;" horiz-adv-x="506" 
d="M375 650q0 -16 -9 -26.5t-25 -10.5q-18 0 -27.5 10.5t-9.5 26.5q0 15 9.5 25.5t27.5 10.5q16 0 25 -10.5t9 -25.5zM219 650q0 -16 -9 -26.5t-26 -10.5t-26.5 10.5t-9.5 26.5q0 15 9.5 25.5t26.5 10.5q16 0 25.5 -10.5t9.5 -25.5zM286 5q-87 -153 -224 -188l-11 42
q116 29 186 147q-153 239 -193 495h47q36 -220 172 -454q64 119 103.5 225t58.5 229h47q-36 -231 -186 -496z" />
    <glyph glyph-name="dotlessi" unicode="&#x131;" horiz-adv-x="248" 
d="M101 501h47v-501h-47v501z" />
    <glyph glyph-name="Lslash" unicode="&#x141;" horiz-adv-x="559" 
d="M106 0v320l-92 -38v44l92 38v336h47v-316l143 59v-44l-143 -59v-297h349v-43h-396z" />
    <glyph glyph-name="lslash" unicode="&#x142;" horiz-adv-x="280" 
d="M211 -12q-115 0 -115 140v218l-71 -32v43l71 32v331l47 3v-312l100 45v-43l-100 -45v-239q0 -52 15.5 -75.5t55.5 -23.5q13 0 28 3l5 -40q-17 -5 -36 -5z" />
    <glyph glyph-name="OE" unicode="&#x152;" horiz-adv-x="1046" 
d="M117 350q0 -90 23 -159.5t78 -114t136 -44.5q120 0 178.5 88.5t58.5 229.5t-58.5 229.5t-178.5 88.5q-121 0 -179 -89t-58 -229zM591 0v144q-68 -156 -239 -156q-141 0 -213 101t-72 261q0 77 17 141.5t50.5 114.5t89 78t128.5 28q171 0 239 -156v144h397v-43h-350v-274
h301v-43h-301v-297h350v-43h-397z" />
    <glyph glyph-name="oe" unicode="&#x153;" horiz-adv-x="939" 
d="M875 24q-73 -36 -166 -36q-171 0 -230 144q-54 -144 -198 -144q-103 0 -161 72t-58 191t58 190.5t161 71.5q144 0 197 -143q57 143 200 143q96 0 148 -61t52 -154q0 -27 -3 -54h-373q2 -106 57 -159.5t151 -53.5q76 0 154 34zM678 471q-78 0 -124 -51.5t-53 -137.5h330
v22q0 69 -38 118t-115 49zM111 251q0 -102 43.5 -161t127.5 -59q86 0 129 59t43 161t-43 161t-129 59q-84 0 -127.5 -59t-43.5 -161z" />
    <glyph glyph-name="Scaron" unicode="&#x160;" horiz-adv-x="543" 
d="M241 768l-108 134h51l86 -104l86 104h51l-108 -134h-58zM57 25l10 45q112 -38 191 -38q87 0 135.5 35t48.5 106q0 37 -13 64.5t-42 47t-58 31.5t-79 27q-96 30 -141.5 73t-45.5 121q0 85 59 130t160 45q83 0 160 -28l-10 -41q-84 25 -147 25q-172 0 -172 -130
q0 -63 37.5 -94t121.5 -58q55 -17 87 -30.5t66.5 -37.5t50.5 -59.5t16 -85.5q0 -96 -66.5 -140.5t-166.5 -44.5q-114 0 -202 37z" />
    <glyph glyph-name="scaron" unicode="&#x161;" horiz-adv-x="429" 
d="M183 584l-108 134h51l86 -104l86 104h51l-108 -134h-58zM353 490l-8 -41q-71 22 -125 22q-120 0 -120 -93q0 -24 9 -42t30 -30.5t35.5 -18.5t45.5 -16q88 -27 128 -58t40 -89q0 -67 -49.5 -101.5t-128.5 -34.5q-44 0 -92 9.5t-70 19.5l10 42q80 -28 152 -28q60 0 94.5 24
t34.5 69q0 41 -33 63t-108 45q-69 22 -107.5 53.5t-38.5 91.5q0 66 43.5 101t123.5 35q79 0 134 -23z" />
    <glyph glyph-name="Ydieresis" unicode="&#x178;" horiz-adv-x="569" 
d="M398 834q0 -16 -9 -26.5t-25 -10.5q-18 0 -27.5 10.5t-9.5 26.5q0 15 9.5 25.5t27.5 10.5q16 0 25 -10.5t9 -25.5zM242 834q0 -16 -9 -26.5t-26 -10.5t-26.5 10.5t-9.5 26.5q0 15 9.5 25.5t26.5 10.5q16 0 25.5 -10.5t9.5 -25.5zM309 0h-48v302q-84 107 -140.5 199
t-102.5 199h52q74 -172 216 -359q139 181 214 359h51q-89 -204 -242 -396v-304z" />
    <glyph glyph-name="Zcaron" unicode="&#x17d;" horiz-adv-x="555" 
d="M244 768l-108 134h51l86 -104l86 104h51l-108 -134h-58zM497 664q-75 -165 -165.5 -304t-229.5 -317h410v-43h-468v37q288 374 404 620h-394v43h443v-36z" />
    <glyph glyph-name="zcaron" unicode="&#x17e;" horiz-adv-x="455" 
d="M202 584l-108 134h51l86 -104l86 104h51l-108 -134h-58zM35 0v35q211 230 323 425h-305v41h359v-34q-115 -203 -317 -426h331v-41h-391z" />
    <glyph glyph-name="florin" unicode="&#x192;" horiz-adv-x="406" 
d="M69 -193q-36 0 -74 12l11 40q38 -9 60 -9q50 0 70.5 30t20.5 87v493h-78v41h78v70q0 160 135 160q36 0 74 -11l-10 -40q-38 9 -61 9q-50 0 -70.5 -30t-20.5 -88v-70h144v-41h-144v-492q0 -161 -135 -161z" />
    <glyph glyph-name="circumflex" unicode="&#x2c6;" horiz-adv-x="500" 
d="M336 570l-87 106l-87 -106h-50l108 134h59l107 -134h-50z" />
    <glyph glyph-name="caron" unicode="&#x2c7;" horiz-adv-x="500" 
d="M212 570l-108 134h51l86 -104l86 104h51l-108 -134h-58z" />
    <glyph glyph-name="breve" unicode="&#x2d8;" horiz-adv-x="500" 
d="M386 690q-5 -55 -40.5 -85t-95.5 -30q-59 0 -95.5 30t-40.5 85h42q10 -75 94 -75t94 75h42z" />
    <glyph glyph-name="dotaccent" unicode="&#x2d9;" horiz-adv-x="500" 
d="M212 637q0 15 10 25.5t27 10.5t26.5 -10.5t9.5 -25.5q0 -16 -9.5 -27t-26.5 -11t-27 11t-10 27z" />
    <glyph glyph-name="ring" unicode="&#x2da;" horiz-adv-x="500" 
d="M153 650q0 41 27.5 68t68.5 27t68.5 -27t27.5 -68q0 -42 -27 -69t-69 -27t-69 27t-27 69zM308 650q0 26 -15.5 43t-43.5 17t-43.5 -17t-15.5 -43t15.5 -44t43.5 -18t43.5 18t15.5 44z" />
    <glyph glyph-name="ogonek" unicode="&#x2db;" horiz-adv-x="500" 
d="M292 -179q-34 -14 -71 -14q-39 0 -65 19.5t-26 55.5q0 61 103 123l46 -5q-36 -23 -54.5 -37t-35 -34t-16.5 -38q0 -46 58 -46q30 0 52 10z" />
    <glyph glyph-name="tilde" unicode="&#x2dc;" horiz-adv-x="500" 
d="M180 681q31 0 75 -29t62 -29q16 0 24 9.5t10.5 21t3.5 34.5h39q-2 -47 -17 -76t-56 -29q-31 0 -73.5 28.5t-64.5 28.5q-23 0 -32 -14t-11 -41h-39q3 96 79 96z" />
    <glyph glyph-name="hungarumlaut" unicode="&#x2dd;" horiz-adv-x="500" 
d="M199 704h54l-98 -134h-46zM337 704h54l-98 -134h-47z" />
    <glyph glyph-name="pi" unicode="&#x3c0;" horiz-adv-x="640" 
d="M605 -2q-31 -10 -71 -10q-121 0 -121 160v312h-221v-460h-47v460h-120v41h575v-41h-140v-311q0 -65 19.5 -91t60.5 -26q31 0 63 8z" />
    <glyph glyph-name="uni0601" unicode="&#x601;" horiz-adv-x="197" 
d="M-466 -210q-93 0 -171 10t-122.5 21t-89 33t-57.5 31.5l-40 29.5q-32 -64 -74 -97.5t-110 -33.5q-42 0 -76 24.5t-52.5 54t-43.5 54t-52 24.5q-29 0 -64 -17t-54 -31t-65 -51v52q51 44 103 70t88 26q32 0 59.5 -24.5t45.5 -54t48 -54t66 -24.5q56 0 96.5 34.5t72.5 110.5
q7 -4 33.5 -24.5t58.5 -37t84 -36t135.5 -30.5t188.5 -11q120 0 244.5 20t211.5 45l199 56t190 45v-48q-74 -12 -181.5 -42.5l-195 -56.5t-217 -47t-259.5 -21z" />
    <glyph glyph-name="uni060C" unicode="&#x60c;" horiz-adv-x="172" 
d="M100 -18h-47q6 111 56 225h34q-37 -106 -43 -225z" />
    <glyph glyph-name="uni060D" unicode="&#x60d;" horiz-adv-x="515" 
d="M87 -86l302 735l40 -16l-303 -735z" />
    <glyph glyph-name="uni060E" unicode="&#x60e;" horiz-adv-x="950" 
d="M500 0q-423 0 -423 239q0 86 54.5 143.5t150.5 57.5q110 0 177 -84t67 -218q0 -47 -7 -89q139 1 221.5 16.5t170.5 46.5v-56q-154 -56 -411 -56zM123 242q0 -82 83 -136t271 -57q6 44 6 83q0 69 -19.5 121.5t-51 81t-65.5 42.5t-69 14q-77 0 -116 -45t-39 -104z" />
    <glyph glyph-name="uni0615" unicode="&#x615;" 
d="M121 748q69 0 120 16q2 14 2 22q0 63 -54 63q-53 0 -117 -100q15 -1 49 -1zM116 714q-64 0 -111 6v33q12 -1 38 -3q12 24 12 86v109l33 5v-93q0 -26 -5 -45q49 71 111 71q40 0 59.5 -24t19.5 -61q0 -28 -11 -58q-47 -26 -146 -26z" />
    <glyph glyph-name="uni061B" unicode="&#x61b;" horiz-adv-x="179" 
d="M109 347h-47q6 111 56 225h34q-37 -106 -43 -225zM99 1q-28 -7 -37 21q-5 11 0.5 21.5t18.5 14.5q27 7 36 -20q5 -12 -0.5 -22.5t-17.5 -14.5z" />
    <glyph glyph-name="uni061F" unicode="&#x61f;" horiz-adv-x="432" 
d="M391 638q-74 30 -139 30q-71 0 -110 -31.5t-39 -88.5q0 -33 13.5 -61t27 -42.5t40.5 -38.5q27 -26 40.5 -41.5t27.5 -47t14 -68.5v-22h-45v20q0 31 -14.5 60t-26.5 41.5t-43 41.5q-26 24 -41.5 41.5t-29 49.5t-13.5 69q0 76 54.5 119t142.5 43q78 0 152 -32zM251 1
q-28 -7 -37 21q-5 11 0.5 21.5t18.5 14.5q27 7 36 -20q5 -12 -0.5 -22.5t-17.5 -14.5z" />
    <glyph glyph-name="uni0621" unicode="&#x621;" horiz-adv-x="449" 
d="M400 94q-172 -46 -328 -108l-14 42q59 24 118 44q-60 18 -87.5 60t-27.5 95q0 70 44.5 111.5t112.5 41.5q58 0 111 -20l-15 -39q-58 14 -91 14q-52 0 -85 -30t-33 -79q0 -51 38 -88t92 -37q21 0 156 35z" />
    <glyph glyph-name="uni0622" unicode="&#x622;" horiz-adv-x="220" 
d="M256 718l15 -29q-38 -27 -87 -27q-28 0 -76 15t-67 15q-34 0 -63 -32l-30 22q42 50 96 50q20 0 66.5 -15.5t75.5 -15.5q36 0 70 17zM133 0h-46v607l46 5v-612z" />
    <glyph glyph-name="uni0623" unicode="&#x623;" horiz-adv-x="220" 
d="M218 692q-96 -17 -201 -57l-11 32q50 20 72 27q-51 26 -51 80q0 43 25 65t63 22q34 0 72 -18l-13 -31q-33 12 -59 12q-24 0 -39.5 -13t-15.5 -37q0 -26 20.5 -44t55.5 -18q7 0 75 13zM133 0h-46v607l46 5v-612z" />
    <glyph glyph-name="uni0624" unicode="&#x624;" horiz-adv-x="515" 
d="M350 501q-96 -17 -201 -57l-11 32q50 20 72 27q-51 26 -51 80q0 43 25 65t63 22q34 0 72 -18l-13 -31q-33 12 -59 12q-24 0 -39.5 -13t-15.5 -37q0 -26 20.5 -44t55.5 -18q7 0 75 13zM261 47q69 0 135 19q-1 115 -41 191.5t-110 76.5q-64 0 -98 -50t-34 -112t32 -93.5
t116 -31.5zM155 -233q-50 0 -105 13l8 43q48 -10 100 -10q65 0 112 19t72 52t37 66.5t15 71.5q-63 -20 -147 -20q-98 0 -136.5 43t-38.5 121q0 93 47.5 153.5t126.5 60.5q89 0 140.5 -84.5t51.5 -227.5t-72 -222t-211 -79z" />
    <glyph glyph-name="uni0625" unicode="&#x625;" horiz-adv-x="220" 
d="M133 0h-46v719l46 5v-724zM229 -231q-96 -17 -201 -57l-11 32q50 20 72 27q-51 26 -51 80q0 43 25 65t63 22q34 0 72 -18l-13 -31q-33 12 -59 12q-24 0 -39.5 -13t-15.5 -37q0 -26 20.5 -44t55.5 -18q7 0 75 13z" />
    <glyph glyph-name="uni0626" unicode="&#x626;" horiz-adv-x="787" 
d="M347 355q-96 -17 -201 -57l-11 32q50 20 72 27q-51 26 -51 80q0 43 25 65t63 22q34 0 72 -18l-13 -31q-33 12 -59 12q-24 0 -39.5 -13t-15.5 -37q0 -26 20.5 -44t55.5 -18q7 0 75 13zM356 -220q-135 0 -207 66t-72 184q0 117 53 230l39 -18q-45 -101 -45 -202
q0 -211 241 -211q118 0 197.5 49t86.5 132q-19 16 -41.5 30.5t-57 32l-51 25.5t-66 30t-59.5 27v25q0 69 20 121t54 81t74.5 43t87.5 14q70 0 129 -39l-20 -43q-52 34 -115 34q-173 0 -189 -204q102 -43 165.5 -76t112.5 -76q0 -118 -91 -186.5t-246 -68.5z" />
    <glyph glyph-name="uni0627" unicode="&#x627;" horiz-adv-x="220" 
d="M133 0h-46v719l46 5v-724z" />
    <glyph glyph-name="uni0628" unicode="&#x628;" horiz-adv-x="904" 
d="M399 -12q-97 0 -162 14.5t-99 42t-47.5 60t-13.5 77.5q0 77 35 180l41 -11q-28 -103 -28 -156q0 -36 10.5 -61.5t39.5 -48.5t88.5 -35t148.5 -12q217 0 367 72q2 34 2 51q0 90 -27 196l45 12q28 -102 28 -192q0 -60 -13 -100q-63 -39 -172.5 -64t-242.5 -25zM434 -123
l47 -43l-40 -44l-47 40z" />
    <glyph glyph-name="uni0629" unicode="&#x629;" horiz-adv-x="488" 
d="M306 590l45 -41l-38 -42l-45 39zM174 586l45 -41l-38 -42l-45 39zM216 429q103 -59 159 -133.5t56 -153.5q0 -66 -50.5 -108.5t-149.5 -42.5q-81 0 -127 38.5t-46 107.5q0 75 39.5 143t118.5 149zM236 39q69 0 111.5 26.5t42.5 73.5q0 59 -49 126.5t-119 106.5
q-59 -58 -90.5 -115.5t-31.5 -103.5q0 -114 136 -114z" />
    <glyph glyph-name="uni062A" unicode="&#x62a;" horiz-adv-x="904" 
d="M533 500l45 -41l-38 -42l-45 39zM401 496l45 -41l-38 -42l-45 39zM399 -12q-97 0 -162 14.5t-99 42t-47.5 60t-13.5 77.5q0 77 35 180l41 -11q-28 -103 -28 -156q0 -36 10.5 -61.5t39.5 -48.5t88.5 -35t148.5 -12q217 0 367 72q2 34 2 51q0 90 -27 196l45 12
q28 -102 28 -192q0 -60 -13 -100q-63 -39 -172.5 -64t-242.5 -25z" />
    <glyph glyph-name="uni062B" unicode="&#x62b;" horiz-adv-x="904" 
d="M470 577l44 -41l-37 -41l-44 38zM540 478l45 -41l-38 -41l-45 38zM408 474l45 -41l-38 -41l-45 38zM399 -13q-97 0 -162 14.5t-99 42t-47.5 60t-13.5 77.5q0 77 35 180l41 -11q-28 -103 -28 -156q0 -36 10.5 -61.5t39.5 -48.5t88.5 -35t148.5 -12q217 0 367 72q2 34 2 51
q0 90 -27 196l45 12q28 -102 28 -192q0 -60 -13 -100q-63 -39 -172.5 -64t-242.5 -25z" />
    <glyph glyph-name="uni062C" unicode="&#x62c;" horiz-adv-x="638" 
d="M346 -274q-128 0 -198 58t-70 158q0 240 429 335q-33 17 -102.5 59.5t-113.5 61.5t-84 19q-58 0 -92 -61l-37 16q22 49 54 69.5t79 20.5q49 0 109.5 -29.5t136.5 -77.5t125 -69l-13 -39q-445 -87 -445 -297q0 -86 62 -131t168 -45q114 0 239 55l15 -38q-117 -65 -262 -65
zM368 41l46 -42l-39 -44l-47 40z" />
    <glyph glyph-name="uni062D" unicode="&#x62d;" horiz-adv-x="638" 
d="M346 -274q-128 0 -198 58t-70 158q0 240 429 335q-33 17 -102.5 59.5t-113.5 61.5t-84 19q-58 0 -92 -61l-37 16q22 49 54 69.5t79 20.5q49 0 109.5 -29.5t136.5 -77.5t125 -69l-13 -39q-445 -87 -445 -297q0 -86 62 -131t168 -45q114 0 239 55l15 -38q-117 -65 -262 -65
z" />
    <glyph glyph-name="uni062E" unicode="&#x62e;" horiz-adv-x="638" 
d="M339 608l47 -43l-40 -44l-47 40zM346 -274q-128 0 -198 58t-70 158q0 240 429 335q-33 17 -102.5 59.5t-113.5 61.5t-84 19q-58 0 -92 -61l-37 16q22 49 54 69.5t79 20.5q49 0 109.5 -29.5t136.5 -77.5t125 -69l-13 -39q-445 -87 -445 -297q0 -86 62 -131t168 -45
q114 0 239 55l15 -38q-117 -65 -262 -65z" />
    <glyph glyph-name="uni062F" unicode="&#x62f;" horiz-adv-x="510" 
d="M170 -12q-71 0 -131 10v48q68 -8 141 -8q124 0 213 37q-5 90 -54.5 169t-152.5 174l32 33q116 -102 165.5 -195.5t49.5 -168.5q0 -27 -4 -46q-96 -53 -259 -53z" />
    <glyph glyph-name="uni0630" unicode="&#x630;" horiz-adv-x="510" 
d="M210 617l47 -43l-40 -44l-47 40zM170 -12q-71 0 -131 10v48q68 -8 141 -8q124 0 213 37q-5 90 -54.5 169t-152.5 174l32 33q116 -102 165.5 -195.5t49.5 -168.5q0 -27 -4 -46q-96 -53 -259 -53z" />
    <glyph glyph-name="uni0631" unicode="&#x631;" horiz-adv-x="400" 
d="M323 84q0 -154 -71 -233.5t-185 -79.5q-33 0 -67 6l8 44q25 -5 57 -5q72 0 122.5 40t71.5 98.5t21 129.5q0 89 -34 233l47 13q30 -137 30 -246z" />
    <glyph glyph-name="uni0632" unicode="&#x632;" horiz-adv-x="400" 
d="M245 512l47 -43l-40 -44l-47 40zM323 84q0 -154 -71 -233.5t-185 -79.5q-33 0 -67 6l8 44q25 -5 57 -5q72 0 122.5 40t71.5 98.5t21 129.5q0 89 -34 233l47 13q30 -137 30 -246z" />
    <glyph glyph-name="uni0633" unicode="&#x633;" horiz-adv-x="1357" 
d="M344 -239q-130 0 -198.5 61t-68.5 170q0 118 54 231l39 -17q-46 -102 -46 -203q0 -90 56 -141t173 -51q133 0 209.5 61.5t76.5 164.5q0 114 -39 239l43 15q37 -128 41 -215q47 -31 123 -31q65 0 111 28t46 85v127l44 5v-124q0 -117 112 -117q62 0 114 31q3 24 3 51
q0 83 -26 181l45 12q24 -92 24 -176q0 -64 -14 -106q-39 -22 -71.5 -32.5t-81.5 -10.5q-102 0 -130 80q-17 -41 -70 -63t-110 -22q-73 0 -120 22q-12 -119 -98.5 -187t-240.5 -68z" />
    <glyph glyph-name="uni0634" unicode="&#x634;" horiz-adv-x="1357" 
d="M985 594l44 -41l-37 -41l-44 38zM1055 495l45 -41l-38 -41l-45 38zM923 491l45 -41l-38 -41l-45 38zM344 -239q-130 0 -198.5 61t-68.5 170q0 118 54 231l39 -17q-46 -102 -46 -203q0 -90 56 -141t173 -51q133 0 209.5 61.5t76.5 164.5q0 114 -39 239l43 15
q37 -128 41 -215q47 -31 123 -31q65 0 111 28t46 85v127l44 5v-124q0 -117 112 -117q62 0 114 31q3 24 3 51q0 83 -26 181l45 12q24 -92 24 -176q0 -64 -14 -106q-39 -22 -71.5 -32.5t-81.5 -10.5q-102 0 -130 80q-17 -41 -70 -63t-110 -22q-73 0 -120 22
q-12 -119 -98.5 -187t-240.5 -68z" />
    <glyph glyph-name="uni0635" unicode="&#x635;" horiz-adv-x="1365" 
d="M957 45q159 0 286 45q2 18 2 50q0 102 -44 152.5t-118 50.5q-95 0 -175 -59t-192 -208q102 -31 241 -31zM344 -239q-130 0 -198.5 61t-68.5 170q0 118 54 231l39 -17q-46 -102 -46 -203q0 -90 56 -141t173 -51q133 0 209.5 61.5t76.5 164.5q0 114 -39 239l43 15
q34 -118 39 -192q107 154 202.5 222.5t201.5 68.5q99 0 150.5 -63.5t51.5 -167.5q0 -51 -12 -103q-114 -61 -330 -61q-152 0 -262 39q-5 -127 -92.5 -200t-247.5 -73z" />
    <glyph glyph-name="uni0636" unicode="&#x636;" horiz-adv-x="1365" 
d="M1082 568l47 -43l-40 -44l-47 40zM957 45q159 0 286 45q2 18 2 50q0 102 -44 152.5t-118 50.5q-95 0 -175 -59t-192 -208q102 -31 241 -31zM344 -239q-130 0 -198.5 61t-68.5 170q0 118 54 231l39 -17q-46 -102 -46 -203q0 -90 56 -141t173 -51q133 0 209.5 61.5
t76.5 164.5q0 114 -39 239l43 15q34 -118 39 -192q107 154 202.5 222.5t201.5 68.5q99 0 150.5 -63.5t51.5 -167.5q0 -51 -12 -103q-114 -61 -330 -61q-152 0 -262 39q-5 -127 -92.5 -200t-247.5 -73z" />
    <glyph glyph-name="uni0637" unicode="&#x637;" horiz-adv-x="836" 
d="M379 45q204 0 335 45q2 18 2 51q0 102 -44.5 152t-119.5 50q-98 0 -181 -63t-199 -222q99 -13 207 -13zM374 -5q-193 0 -335 37l8 47q48 -9 79 -14q37 47 49 88.5t12 131.5v430l46 5v-350q0 -119 -13 -186q158 207 336 207q99 0 151 -64t52 -168q0 -51 -12 -103
q-130 -61 -373 -61z" />
    <glyph glyph-name="uni0638" unicode="&#x638;" horiz-adv-x="836" 
d="M535 579l47 -43l-40 -44l-47 40zM379 45q204 0 335 45q2 18 2 51q0 102 -44.5 152t-119.5 50q-98 0 -181 -63t-199 -222q99 -13 207 -13zM374 -5q-193 0 -335 37l8 47q48 -9 79 -14q37 47 49 88.5t12 131.5v430l46 5v-350q0 -119 -13 -186q158 207 336 207q99 0 151 -64
t52 -168q0 -51 -12 -103q-130 -61 -373 -61z" />
    <glyph glyph-name="uni0639" unicode="&#x639;" horiz-adv-x="611" 
d="M600 -204q-126 -68 -276 -68q-123 0 -185 52t-62 143q0 153 172 234q-59 24 -89.5 71.5t-30.5 105.5q0 84 52.5 135.5t134.5 51.5q84 0 170 -46l-17 -39q-51 22 -79 30t-72 8q-61 0 -102 -38t-41 -102q0 -60 44.5 -103.5t82.5 -43.5q10 0 41.5 9l80.5 22.5t90 21.5l7 -46
q-118 -24 -198.5 -54.5t-122.5 -66t-58.5 -69.5t-16.5 -75q0 -151 207 -151q132 0 250 56z" />
    <glyph glyph-name="uni063A" unicode="&#x63a;" horiz-adv-x="611" 
d="M302 686l47 -43l-40 -44l-47 40zM600 -204q-126 -68 -276 -68q-123 0 -185 52t-62 143q0 153 172 234q-59 24 -89.5 71.5t-30.5 105.5q0 84 52.5 135.5t134.5 51.5q84 0 170 -46l-17 -39q-51 22 -79 30t-72 8q-61 0 -102 -38t-41 -102q0 -60 44.5 -103.5t82.5 -43.5
q10 0 41.5 9l80.5 22.5t90 21.5l7 -46q-118 -24 -198.5 -54.5t-122.5 -66t-58.5 -69.5t-16.5 -75q0 -151 207 -151q132 0 250 56z" />
    <glyph glyph-name="uni0640" unicode="&#x640;" horiz-adv-x="264" 
d="M0 0q-9 0 -15 7t-6 17q0 11 6 18.5t15 7.5h264v-50h-264z" />
    <glyph glyph-name="uni0641" unicode="&#x641;" horiz-adv-x="931" 
d="M649 733l47 -43l-40 -44l-47 40zM675 223q70 2 130 20q-3 120 -43 193t-108 72q-43 0 -74.5 -26.5t-45 -62.5t-14.5 -74q2 -58 36 -89.5t119 -32.5zM409 -12q-80 0 -140 10t-96 26.5t-58 42t-30 53t-8 62.5q0 78 35 181l40 -11q-28 -103 -28 -155q0 -37 11.5 -63
t41.5 -49t91.5 -35t153.5 -12q212 0 368 61q11 47 14 101q-61 -18 -147 -20q-175 1 -179 159q2 90 52.5 152t123.5 61q87 1 139 -82.5t52 -226.5q0 -101 -24 -176q-144 -79 -412 -79z" />
    <glyph glyph-name="uni0642" unicode="&#x642;" horiz-adv-x="795" 
d="M589 548l45 -41l-38 -42l-45 39zM457 544l45 -41l-38 -42l-45 39zM540 49q71 0 135 18q-2 114 -42 190.5t-108 76.5q-64 0 -98 -50t-34 -112t32 -92.5t115 -30.5zM347 -248q-132 0 -201 63.5t-69 178.5q0 116 51 228l38 -18q-44 -99 -44 -198q0 -96 57 -150.5t177 -54.5
q83 0 145.5 20.5t97 54.5t52 69.5t21.5 75.5q-65 -19 -145 -19q-98 0 -136.5 43t-38.5 121q0 93 47.5 153.5t125.5 60.5q88 0 140 -86.5t52 -225.5q0 -149 -96 -232.5t-274 -83.5z" />
    <glyph glyph-name="uni0643" unicode="&#x643;" horiz-adv-x="833" 
d="M395 463q0 -20 57 -41q36 -13 55.5 -29t19.5 -41q0 -41 -54 -68t-149 -27v38q62 0 114.5 14.5t52.5 35.5q0 23 -61 44q-38 13 -55 27.5t-17 38.5q0 41 39.5 72t98.5 31q26 0 44 -5l-9 -39q-17 4 -41 4q-36 0 -65.5 -17.5t-29.5 -37.5zM391 -13q-96 0 -160.5 14.5
t-96.5 42.5t-44.5 60.5t-12.5 77.5q0 78 35 181l41 -12q-29 -97 -29 -150q0 -38 10 -64t37.5 -50t86 -36.5t146.5 -12.5q159 0 284 45q13 68 13 222q0 129 -5 414l46 5q5 -271 5 -391q0 -126 -4 -179t-18 -105q-51 -26 -145.5 -44t-188.5 -18z" />
    <glyph glyph-name="uni0644" unicode="&#x644;" horiz-adv-x="713" 
d="M573 719l45 5q8 -554 8 -660q0 -134 -79.5 -212.5t-226.5 -78.5q-117 0 -180 60t-63 169q0 102 56 223l38 -17q-47 -104 -47 -196q0 -88 51 -139t154 -51q117 0 185 64.5t68 174.5q0 8 -9 658z" />
    <glyph glyph-name="uni0645" unicode="&#x645;" horiz-adv-x="610" 
d="M421 106q51 0 96 7q11 57 11 97q0 83 -38 127.5t-103 44.5q-76 0 -126 -67.5t-50 -180.5q123 -28 210 -28zM131 -225l-44 -4q-10 210 -10 266q0 96 89 103q2 130 63.5 209t158.5 79q87 0 135 -57t48 -151q0 -75 -22 -142q-31 -17 -137 -17q-55 0 -111 8t-89.5 16t-34.5 8
q-56 0 -56 -61q0 -33 10 -257z" />
    <glyph glyph-name="uni0646" unicode="&#x646;" horiz-adv-x="761" 
d="M385 406l47 -43l-40 -44l-47 40zM643 315q41 -141 41 -241q0 -134 -87.5 -211.5t-252.5 -77.5q-130 0 -198.5 61t-68.5 170q0 117 54 232l39 -18q-46 -102 -46 -203q0 -90 56 -141t173 -51q133 0 209.5 61.5t76.5 164.5q0 114 -39 239z" />
    <glyph glyph-name="uni0647" unicode="&#x647;" horiz-adv-x="668" 
d="M480 -27q-48 0 -118 20t-129 55q-68 -34 -157 -57l-18 45q72 16 131 41q-86 67 -86 148q0 119 142 231q155 -53 250.5 -156.5t95.5 -210.5q0 -116 -111 -116zM143 233q0 -74 92 -135q62 33 93 72.5t31 74.5q0 112 -108 163q-108 -85 -108 -175zM482 18q37 0 52.5 15
t15.5 46q0 145 -183 279q30 -42 30 -108q0 -100 -120 -177q108 -55 205 -55z" />
    <glyph glyph-name="uni0648" unicode="&#x648;" horiz-adv-x="515" 
d="M261 47q69 0 135 19q-1 115 -41 191.5t-110 76.5q-64 0 -98 -50t-34 -112t32 -93.5t116 -31.5zM155 -233q-50 0 -105 13l8 43q48 -10 100 -10q65 0 112 19t72 52t37 66.5t15 71.5q-63 -20 -147 -20q-98 0 -136.5 43t-38.5 121q0 93 47.5 153.5t126.5 60.5
q89 0 140.5 -84.5t51.5 -227.5t-72 -222t-211 -79z" />
    <glyph glyph-name="uni0649" unicode="&#x649;" horiz-adv-x="787" 
d="M356 -219q-135 0 -207 66t-72 184q0 117 53 230l39 -18q-45 -101 -45 -202q0 -211 241 -211q118 0 197.5 49t86.5 132q-19 16 -41.5 30.5t-57 32l-51 25.5t-66 30t-59.5 27v25q0 69 20 121t54 81t74.5 43t87.5 14q70 0 129 -39l-20 -43q-52 34 -115 34q-173 0 -189 -204
q102 -43 165.5 -76t112.5 -76q0 -118 -91 -186.5t-246 -68.5z" />
    <glyph glyph-name="uni064A" unicode="&#x64a;" horiz-adv-x="787" 
d="M356 -219q-135 0 -207 66t-72 184q0 117 53 230l39 -18q-45 -101 -45 -202q0 -211 241 -211q118 0 197.5 49t86.5 132q-19 16 -41.5 30.5t-57 32l-51 25.5t-66 30t-59.5 27v25q0 69 20 121t54 81t74.5 43t87.5 14q70 0 129 -39l-20 -43q-52 34 -115 34q-173 0 -189 -204
q102 -43 165.5 -76t112.5 -76q0 -118 -91 -186.5t-246 -68.5zM445 -325l45 -41l-38 -42l-45 39zM313 -329l45 -41l-38 -42l-45 39z" />
    <glyph glyph-name="uni064B" unicode="&#x64b;" 
d="M272 932v-37q-122 -20 -272 -58v36q129 37 272 59zM272 821v-36q-111 -18 -272 -59v36q129 37 272 59z" />
    <glyph glyph-name="uni064C" unicode="&#x64c;" 
d="M126 910q0 -65 94 -72q20 26 20 56q0 31 -17.5 52t-44.5 21q-22 0 -37 -16t-15 -41zM-17 703l-8 35q33 16 45 30t12 34q0 19 -11.5 32t-33.5 13q-20 0 -40 -10l-12 30q30 14 59 14q32 0 51.5 -21t19.5 -58q0 -26 -18 -47q109 29 147 57q-50 4 -75.5 29.5t-25.5 64.5
q0 40 25.5 68.5t67.5 28.5q37 0 61.5 -28t24.5 -71q0 -40 -16 -69q-46 -82 -273 -132z" />
    <glyph glyph-name="uni064D" unicode="&#x64d;" 
d="M272 -177v-37q-122 -20 -272 -58v36q129 37 272 59zM272 -288v-36q-111 -18 -272 -59v36q129 37 272 59z" />
    <glyph glyph-name="uni064E" unicode="&#x64e;" 
d="M272 827v-37q-111 -18 -272 -59v37q129 37 272 59z" />
    <glyph glyph-name="uni064F" unicode="&#x64f;" 
d="M0 707v38q157 39 196 67q-52 4 -78 29t-26 65t26 68.5t68 28.5q37 0 61.5 -28t24.5 -71q0 -40 -19 -73q-46 -77 -253 -124zM126 910q0 -67 98 -70q16 23 16 54t-17.5 52t-44.5 21q-22 0 -37 -16t-15 -41z" />
    <glyph glyph-name="uni0650" unicode="&#x650;" 
d="M272 -182v-37q-111 -18 -272 -59v37q129 37 272 59z" />
    <glyph glyph-name="uni0651" unicode="&#x651;" 
d="M215 744q-28 0 -45 10q-33 -40 -91 -40q-74 0 -74 72q0 13 2.5 28t4.5 23l3 8l30 -3q-7 -23 -7 -43q0 -47 49 -47q38 0 59 27q-10 19 -10 50v31l34 7v-28q0 -57 48 -57q50 0 50 57q0 22 -10 54l35 13q11 -33 11 -64q0 -42 -21 -70t-68 -28z" />
    <glyph glyph-name="uni0652" unicode="&#x652;" 
d="M235 813q0 -46 -31 -70.5t-78 -24.5q-49 0 -74 26.5t-25 67.5q0 54 31 81t70 27q44 0 75.5 -27t31.5 -80zM131 754q33 0 51 15.5t18 39.5q0 32 -18.5 53.5t-54.5 21.5q-29 0 -47 -20t-18 -50q0 -60 69 -60z" />
    <glyph glyph-name="uni0653" unicode="&#x653;" 
d="M305 768l15 -29q-38 -27 -87 -27q-27 0 -75.5 15t-67.5 15q-34 0 -63 -32l-30 22q42 50 96 50q20 0 66.5 -15.5t75.5 -15.5q36 0 70 17z" />
    <glyph glyph-name="uni0654" unicode="&#x654;" horiz-adv-x="289" 
d="M251 763q-96 -17 -201 -57l-11 32q50 20 72 27q-51 26 -51 80q0 43 25 65t63 22q34 0 72 -18l-13 -31q-33 12 -59 12q-24 0 -39.5 -13t-15.5 -37q0 -26 20.5 -44t55.5 -18q7 0 75 13z" />
    <glyph glyph-name="uni0655" unicode="&#x655;" 
d="M250 -349q-96 -17 -201 -57l-11 32q50 20 72 27q-51 26 -51 80q0 43 25 65t63 22q34 0 72 -18l-13 -31q-33 12 -59 12q-24 0 -39.5 -13t-15.5 -37q0 -26 20.5 -44t55.5 -18q7 0 75 13z" />
    <glyph glyph-name="uni0656" unicode="&#x656;" 
d="M53 -207l40 8q8 -81 8 -192l-37 -2q0 99 -11 186z" />
    <glyph glyph-name="uni0657" unicode="&#x657;" 
d="M88 714q-40 0 -64 26.5t-24 68.5q0 35 15 67q20 39 76 69.5t181 63.5v-38q-152 -39 -193 -67q48 -5 74.5 -30.5t26.5 -63.5q0 -43 -25 -69.5t-67 -26.5zM94 749q24 0 38 15.5t14 41.5q0 62 -94 72q-20 -28 -20 -60q0 -30 16.5 -49.5t45.5 -19.5z" />
    <glyph glyph-name="uni0660" unicode="&#x660;" horiz-adv-x="271" 
d="M136 252l-49 48l47 49l50 -49z" />
    <glyph glyph-name="uni0661" unicode="&#x661;" horiz-adv-x="301" 
d="M97 679l48 12q40 -205 40 -576v-115h-46q0 467 -42 679z" />
    <glyph glyph-name="uni0662" unicode="&#x662;" horiz-adv-x="567" 
d="M186 115v-115h-47q0 467 -42 679l49 12q22 -108 31 -259q54 -28 137 -28q90 0 155 39q6 36 6 78q0 89 -21 171l46 11q19 -76 19 -173q0 -62 -15 -119q-72 -56 -192 -56q-80 0 -132 23q6 -126 6 -263z" />
    <glyph glyph-name="uni0663" unicode="&#x663;" horiz-adv-x="773" 
d="M186 115v-115h-47q0 467 -42 679l49 12q22 -109 31 -260q40 -23 110 -23q57 0 96.5 23t39.5 71v116l43 5v-110q0 -101 106 -101q63 0 105 24q5 27 5 73q0 95 -23 179l42 13q24 -96 24 -184q0 -71 -16 -114q-67 -39 -144 -39q-97 0 -124 68q-15 -36 -62 -54t-102 -18
q-56 0 -97 18q6 -126 6 -263z" />
    <glyph glyph-name="uni0664" unicode="&#x664;" horiz-adv-x="497" 
d="M440 4q-78 -9 -143 -9q-220 0 -220 136q0 63 47 119t126 90q-147 21 -147 135q0 44 16.5 82.5t43.5 65t62 45t71 27.5t70 9q5 0 10 -0.5t11.5 -1.5t10.5 -1l-6 -45q-9 1 -26 1q-85 0 -152 -50t-67 -134q0 -45 37 -72t109 -27q17 0 56.5 6t60.5 8v-42
q-108 -11 -196.5 -72.5t-88.5 -133.5q0 -98 180 -98q63 0 135 7v-45z" />
    <glyph glyph-name="uni0665" unicode="&#x665;" horiz-adv-x="621" 
d="M298 630q73 0 135.5 -53t96 -129.5t33.5 -152.5q0 -106 -70 -171t-198 -65q-237 0 -237 226q0 81 32 160.5t88.5 132t119.5 52.5zM298 107q101 0 161.5 50.5t60.5 130.5q0 56 -25 122t-78.5 119t-119.5 53q-51 0 -97.5 -48.5t-71.5 -114.5t-25 -124q0 -188 195 -188z" />
    <glyph glyph-name="uni0666" unicode="&#x666;" horiz-adv-x="503" 
d="M423 0h-49q-28 242 -28 438q0 73 5 178q-65 -5 -140 -5q-108 0 -172 7v45q53 -6 178 -6q78 0 182 6q-7 -120 -7 -223q0 -195 31 -440z" />
    <glyph glyph-name="uni0667" unicode="&#x667;" horiz-adv-x="615" 
d="M332 0h-64q-21 159 -90.5 353t-148.5 348h55l82.5 -190.5t75.5 -213.5t61 -248q70 319 233 652h50q-179 -360 -254 -701z" />
    <glyph glyph-name="uni0668" unicode="&#x668;" horiz-adv-x="614" 
d="M529 0q-116 263 -162 397q-44 133 -65 245q-69 -293 -223 -642h-50q170 379 245 698h61q26 -154 98.5 -348t151.5 -350h-56z" />
    <glyph glyph-name="uni0669" unicode="&#x669;" horiz-adv-x="543" 
d="M456 0h-46q-4 66 -9 183t-7 149q-68 -19 -137 -19q-114 0 -156.5 43t-42.5 116q0 98 54 165t136 67q91 0 136 -85.5t54 -249.5q1 -20 6.5 -151.5t11.5 -217.5zM263 360q59 0 129 16q-17 283 -145 283q-49 0 -83.5 -30.5t-48 -70t-13.5 -80.5q0 -58 36.5 -88t124.5 -30z
" />
    <glyph glyph-name="uni066A" unicode="&#x66a;" horiz-adv-x="562" 
d="M58 -1l409 689l38 -22l-410 -688zM122 541q-30 -7 -41 23q-5 12 0.5 24t20.5 16q30 7 39 -22q5 -13 -0.5 -25t-18.5 -16zM443 54q-30 -7 -41 23q-5 12 0.5 24t20.5 16q30 7 39 -22q5 -13 -0.5 -25t-18.5 -16z" />
    <glyph glyph-name="uni066B" unicode="&#x66b;" horiz-adv-x="416" 
d="M117 -89l-40 13l221 600l41 -14z" />
    <glyph glyph-name="uni066C" unicode="&#x66c;" horiz-adv-x="180" 
d="M94 720h46q-6 -103 -64 -205h-33q41 86 51 205z" />
    <glyph glyph-name="uni066D" unicode="&#x66d;" horiz-adv-x="580" 
d="M436 95l-148 181l-147 -181l-24 17l135 191l-223 90l9 26l229 -75l8 248h29l7 -249l229 76l11 -27l-227 -89l135 -191z" />
    <glyph glyph-name="uni066E" unicode="&#x66e;" horiz-adv-x="904" 
d="M399 -12q-97 0 -162 14.5t-99 42t-47.5 60t-13.5 77.5q0 77 35 180l41 -11q-28 -103 -28 -156q0 -36 10.5 -61.5t39.5 -48.5t88.5 -35t148.5 -12q217 0 367 72q2 34 2 51q0 90 -27 196l45 12q28 -102 28 -192q0 -60 -13 -100q-63 -39 -172.5 -64t-242.5 -25z" />
    <glyph glyph-name="uni0670" unicode="&#x670;" 
d="M53 904l40 8q8 -81 8 -192l-37 -2q0 99 -11 186z" />
    <glyph glyph-name="uni0671" unicode="&#x671;" horiz-adv-x="220" 
d="M164 699q69 0 69 44q0 31 -19 46.5t-45 15.5q-50 0 -99 -86l18 -6t22.5 -7t22.5 -4.5t31 -2.5zM32 690q-27 0 -56 -30l-24 25q33 41 77 41h6q36 67 69 92.5t71 25.5q41 0 67 -27.5t26 -69.5q0 -38 -27.5 -61.5t-80.5 -23.5q-36 0 -77 14t-51 14zM133 0h-46v607l46 5v-612
z" />
    <glyph glyph-name="uni0672" unicode="&#x672;" horiz-adv-x="220" 
d="M36 683q-31 0 -60 -24l-20 25q37 37 84 37q14 0 42 -11.5t49 -11.5q13 0 31 2q-35 9 -52.5 34.5t-17.5 57.5q0 48 26.5 71.5t63.5 23.5q34 0 73 -18l-14 -32q-31 13 -58 13q-25 0 -40.5 -14.5t-15.5 -42.5q0 -30 20 -50t55 -20q7 0 16 2.5t16 5.5l20.5 9t19.5 9l12 -32
l-41 -19.5t-42.5 -20t-34 -11t-39.5 -5.5q-25 0 -53 11t-40 11zM133 0h-46v607l46 5v-612z" />
    <glyph glyph-name="uni0674" unicode="&#x674;" horiz-adv-x="293" 
d="M251 763q-96 -17 -201 -57l-11 32q50 20 72 27q-51 26 -51 80q0 43 25 65t63 22q34 0 72 -18l-13 -31q-33 12 -59 12q-24 0 -39.5 -13t-15.5 -37q0 -26 20.5 -44t55.5 -18q7 0 75 13z" />
    <glyph glyph-name="uni0679" unicode="&#x679;" horiz-adv-x="904" 
d="M463 393q69 0 120 16q2 14 2 22q0 63 -54 63q-53 0 -117 -100q15 -1 49 -1zM458 359q-64 0 -111 6v33q12 -1 38 -3q12 24 12 86v109l33 5v-93q0 -26 -5 -45q49 71 111 71q40 0 59.5 -24t19.5 -61q0 -28 -11 -58q-47 -26 -146 -26zM399 -12q-97 0 -162 14.5t-99 42
t-47.5 60t-13.5 77.5q0 77 35 180l41 -11q-28 -103 -28 -156q0 -36 10.5 -61.5t39.5 -48.5t88.5 -35t148.5 -12q217 0 367 72q2 34 2 51q0 90 -27 196l45 12q28 -102 28 -192q0 -60 -13 -100q-63 -39 -172.5 -64t-242.5 -25z" />
    <glyph glyph-name="uni067E" unicode="&#x67e;" horiz-adv-x="904" 
d="M399 -12q-97 0 -162 14.5t-99 42t-47.5 60t-13.5 77.5q0 77 35 180l41 -11q-28 -103 -28 -156q0 -36 10.5 -61.5t39.5 -48.5t88.5 -35t148.5 -12q217 0 367 72q2 34 2 51q0 90 -27 196l45 12q28 -102 28 -192q0 -60 -13 -100q-63 -39 -172.5 -64t-242.5 -25zM508 -182
l-45 41l38 41l45 -38zM376 -186l-45 41l38 41l45 -38zM446 -285l-44 41l37 41l44 -38z" />
    <glyph glyph-name="uni0686" unicode="&#x686;" horiz-adv-x="638" 
d="M346 -274q-128 0 -198 58t-70 158q0 240 429 335q-33 17 -102.5 59.5t-113.5 61.5t-84 19q-58 0 -92 -61l-37 16q22 49 54 69.5t79 20.5q49 0 109.5 -29.5t136.5 -77.5t125 -69l-13 -39q-445 -87 -445 -297q0 -86 62 -131t168 -45q114 0 239 55l15 -38q-117 -65 -262 -65
zM447 -13l-39 36l34 37l39 -34zM329 -17l-39 36l33 38l40 -34zM392 -105l-39 36l33 36l39 -33z" />
    <glyph glyph-name="uni0688" unicode="&#x688;" horiz-adv-x="510" 
d="M194 554q69 0 120 16q2 14 2 22q0 63 -54 63q-53 0 -117 -100q15 -1 49 -1zM189 520q-65 0 -111 6v33q12 -1 38 -3q12 24 12 86v109l33 5v-93q0 -26 -5 -45q49 71 111 71q40 0 59.5 -24t19.5 -61q0 -28 -11 -58q-47 -26 -146 -26zM170 -12q-71 0 -131 10v48q68 -8 141 -8
q124 0 213 37q-5 90 -54.5 169t-152.5 174l32 33q116 -102 165.5 -195.5t49.5 -168.5q0 -27 -4 -46q-96 -53 -259 -53z" />
    <glyph glyph-name="uni0691" unicode="&#x691;" horiz-adv-x="400" 
d="M217 439q69 0 120 16q2 14 2 22q0 63 -54 63q-53 0 -117 -100q15 -1 49 -1zM212 405q-64 0 -111 6v33q12 -1 38 -3q12 24 12 86v109l33 5v-93q0 -26 -5 -45q49 71 111 71q40 0 59.5 -24t19.5 -61q0 -28 -11 -58q-47 -26 -146 -26zM323 84q0 -154 -71 -233.5t-185 -79.5
q-33 0 -67 6l8 44q25 -5 57 -5q72 0 122.5 40t71.5 98.5t21 129.5q0 89 -34 233l47 13q30 -137 30 -246z" />
    <glyph glyph-name="uni0698" unicode="&#x698;" horiz-adv-x="400" 
d="M227 586l44 -41l-37 -41l-44 38zM297 487l45 -41l-38 -41l-45 38zM165 483l45 -41l-38 -41l-45 38zM323 84q0 -154 -71 -233.5t-185 -79.5q-33 0 -67 6l8 44q25 -5 57 -5q72 0 122.5 40t71.5 98.5t21 129.5q0 89 -34 233l47 13q30 -137 30 -246z" />
    <glyph glyph-name="uni06A9" unicode="&#x6a9;" horiz-adv-x="889" 
d="M409 -12q-80 0 -140 10t-96 26.5t-58 42t-30 53t-8 62.5q0 78 35 181l41 -12q-29 -101 -29 -154q0 -36 11 -62t41.5 -49t91.5 -35t152 -12q201 0 331 53v8q0 100 -82.5 189.5t-225.5 138.5v59q174 145 407 221v-48q-200 -61 -367 -197q151 -59 230.5 -152.5t79.5 -200.5
q0 -25 -3 -52q-57 -31 -162.5 -50.5t-218.5 -19.5z" />
    <glyph glyph-name="uni06AF" unicode="&#x6af;" horiz-adv-x="889" 
d="M520 610v44q98 66 231 115v-41q-129 -51 -231 -118zM409 -12q-80 0 -140 10t-96 26.5t-58 42t-30 53t-8 62.5q0 78 35 181l41 -12q-29 -95 -29 -154q0 -36 11 -62t41.5 -49t91.5 -35t152 -12q201 0 331 53v8q0 101 -82.5 190.5t-225.5 137.5v58q175 145 407 220v-48
q-200 -61 -366 -196q151 -59 230 -152t79 -200q0 -25 -3 -52q-57 -31 -162.5 -50.5t-218.5 -19.5z" />
    <glyph glyph-name="uni06BA" unicode="&#x6ba;" horiz-adv-x="761" 
d="M643 315q41 -141 41 -241q0 -134 -87.5 -211.5t-252.5 -77.5q-130 0 -198.5 61t-68.5 170q0 117 54 232l39 -18q-46 -102 -46 -203q0 -90 56 -141t173 -51q133 0 209.5 61.5t76.5 164.5q0 114 -39 239z" />
    <glyph glyph-name="uni06BE" unicode="&#x6be;" horiz-adv-x="668" 
d="M480 -27q-48 0 -118 20t-129 55q-68 -34 -157 -57l-18 45q72 16 131 41q-86 67 -86 148q0 119 142 231q155 -53 250.5 -156.5t95.5 -210.5q0 -116 -111 -116zM143 233q0 -74 92 -135q62 33 93 72.5t31 74.5q0 112 -108 163q-108 -85 -108 -175zM482 18q37 0 52.5 15
t15.5 46q0 145 -183 279q30 -42 30 -108q0 -100 -120 -177q108 -55 205 -55z" />
    <glyph glyph-name="uni06C1" unicode="&#x6c1;" horiz-adv-x="488" 
d="M216 429q103 -59 159 -133.5t56 -153.5q0 -66 -50.5 -108.5t-149.5 -42.5q-81 0 -127 38.5t-46 107.5q0 75 39.5 143t118.5 149zM236 39q69 0 111.5 26.5t42.5 73.5q0 59 -49 126.5t-119 106.5q-59 -58 -90.5 -115.5t-31.5 -103.5q0 -114 136 -114z" />
    <glyph glyph-name="uni06C2" unicode="&#x6c2;" horiz-adv-x="488" 
d="M345 536q-96 -17 -201 -57l-11 32q50 20 72 27q-51 26 -51 80q0 43 25 65t63 22q34 0 72 -18l-13 -31q-33 12 -59 12q-24 0 -39.5 -13t-15.5 -37q0 -26 20.5 -44t55.5 -18q7 0 75 13zM216 429q103 -59 159 -133.5t56 -153.5q0 -66 -50.5 -108.5t-149.5 -42.5
q-81 0 -127 38.5t-46 107.5q0 75 39.5 143t118.5 149zM236 39q69 0 111.5 26.5t42.5 73.5q0 59 -49 126.5t-119 106.5q-59 -58 -90.5 -115.5t-31.5 -103.5q0 -114 136 -114z" />
    <glyph glyph-name="uni06C3" unicode="&#x6c3;" horiz-adv-x="488" 
d="M303 595l45 -41l-38 -42l-45 39zM171 591l45 -41l-38 -42l-45 39zM216 429q103 -59 159 -133.5t56 -153.5q0 -66 -50.5 -108.5t-149.5 -42.5q-81 0 -127 38.5t-46 107.5q0 75 39.5 143t118.5 149zM236 39q69 0 111.5 26.5t42.5 73.5q0 59 -49 126.5t-119 106.5
q-59 -58 -90.5 -115.5t-31.5 -103.5q0 -114 136 -114z" />
    <glyph glyph-name="uni06CC" unicode="&#x6cc;" horiz-adv-x="787" 
d="M356 -219q-135 0 -207 66t-72 184q0 117 53 230l39 -18q-45 -101 -45 -202q0 -211 241 -211q118 0 197.5 49t86.5 132q-19 16 -41.5 30.5t-57 32l-51 25.5t-66 30t-59.5 27v25q0 69 20 121t54 81t74.5 43t87.5 14q70 0 129 -39l-20 -43q-52 34 -115 34q-173 0 -189 -204
q102 -43 165.5 -76t112.5 -76q0 -118 -91 -186.5t-246 -68.5z" />
    <glyph glyph-name="uni06D2" unicode="&#x6d2;" horiz-adv-x="768" 
d="M749 50l-12 -50h-425q-235 0 -235 152q0 93 70 160.5t161 67.5q110 0 144 -119l-43 -18q-17 47 -42.5 66t-64.5 19q-71 0 -122.5 -51t-51.5 -111q0 -24 8 -42.5t29.5 -36.5t67.5 -27.5t114 -9.5h402z" />
    <glyph glyph-name="uni06D3" unicode="&#x6d3;" horiz-adv-x="768" 
d="M398 503q-96 -17 -201 -57l-11 32q50 20 72 27q-51 26 -51 80q0 43 25 65t63 22q34 0 72 -18l-13 -31q-33 12 -59 12q-24 0 -39.5 -13t-15.5 -37q0 -26 20.5 -44t55.5 -18q7 0 75 13zM749 50l-12 -50h-425q-235 0 -235 152q0 93 70 160.5t161 67.5q110 0 144 -119
l-43 -18q-17 47 -42.5 66t-64.5 19q-71 0 -122.5 -51t-51.5 -111q0 -24 8 -42.5t29.5 -36.5t67.5 -27.5t114 -9.5h402z" />
    <glyph glyph-name="uni06D4" unicode="&#x6d4;" horiz-adv-x="570" 
d="M541 77v-51q-104 -31 -250 -31q-150 0 -262 62l16 45q131 -58 260 -58q132 0 236 33z" />
    <glyph glyph-name="uni06F0" unicode="&#x6f0;" horiz-adv-x="271" 
d="M136 252l-49 48l47 49l50 -49z" />
    <glyph glyph-name="uni06F1" unicode="&#x6f1;" horiz-adv-x="301" 
d="M97 679l48 12q40 -205 40 -576v-115h-46q0 467 -42 679z" />
    <glyph glyph-name="uni06F2" unicode="&#x6f2;" horiz-adv-x="567" 
d="M186 115v-115h-47q0 467 -42 679l49 12q22 -108 31 -259q54 -28 137 -28q90 0 155 39q6 36 6 78q0 89 -21 171l46 11q19 -76 19 -173q0 -62 -15 -119q-72 -56 -192 -56q-80 0 -132 23q6 -126 6 -263z" />
    <glyph glyph-name="uni06F3" unicode="&#x6f3;" horiz-adv-x="773" 
d="M186 115v-115h-47q0 467 -42 679l49 12q22 -109 31 -260q40 -23 110 -23q57 0 96.5 23t39.5 71v116l43 5v-110q0 -101 106 -101q63 0 105 24q5 27 5 73q0 95 -23 179l42 13q24 -96 24 -184q0 -71 -16 -114q-67 -39 -144 -39q-97 0 -124 68q-15 -36 -62 -54t-102 -18
q-56 0 -97 18q6 -126 6 -263z" />
    <glyph glyph-name="uni06F4" unicode="&#x6f4;" horiz-adv-x="685" 
d="M185 115v-115h-46q0 467 -42 679l48 12q21 -107 32 -270q59 -28 187 -28q-70 47 -70 137q0 76 48 120.5t123 44.5q50 0 126 -31l-14 -39q-66 25 -112 25q-57 0 -92.5 -33t-35.5 -90q0 -54 32.5 -89t67.5 -35q58 0 187 43l13 -40q-167 -57 -298 -57q-98 0 -160 22
q6 -123 6 -256z" />
    <glyph glyph-name="uni06F5" unicode="&#x6f5;" horiz-adv-x="736" 
d="M250 33q58 0 101 24q-14 30 -14 67v59l43 3v-63q0 -51 29 -67.5t80 -16.5q64 0 104 35.5t40 109.5q0 32 -7 70t-28 90t-53 102.5t-87 107t-125 104.5q-115 -117 -172.5 -239.5t-57.5 -214.5q0 -89 33.5 -130t113.5 -41zM481 -10q-63 0 -101 30q-70 -34 -140 -34
q-92 0 -137 51t-45 157q0 121 70.5 261.5t198.5 259.5q120 -78 201.5 -173t115.5 -183t34 -173q0 -91 -49.5 -143.5t-147.5 -52.5z" />
    <glyph glyph-name="uni06F6" unicode="&#x6f6;" horiz-adv-x="589" 
d="M552 359q-139 -55 -236.5 -140t-170.5 -219h-52q56 103 107 165.5t114 108.5q-110 6 -173 66.5t-63 150.5q0 111 64.5 167.5t161.5 56.5q62 0 142 -25l-12 -41q-67 21 -131 21q-31 0 -61 -9.5t-57.5 -28.5t-44 -54.5t-16.5 -82.5q0 -82 60 -130.5t157 -48.5q14 0 41 12
t72.5 34.5t85.5 37.5z" />
    <glyph glyph-name="uni06F7" unicode="&#x6f7;" horiz-adv-x="615" 
d="M332 0h-64q-21 159 -90.5 353t-148.5 348h55l82.5 -190.5t75.5 -213.5t61 -248q70 319 233 652h50q-179 -360 -254 -701z" />
    <glyph glyph-name="uni06F8" unicode="&#x6f8;" horiz-adv-x="614" 
d="M529 0q-116 263 -162 397q-44 133 -65 245q-69 -293 -223 -642h-50q170 379 245 698h61q26 -154 98.5 -348t151.5 -350h-56z" />
    <glyph glyph-name="uni06F9" unicode="&#x6f9;" horiz-adv-x="543" 
d="M456 0h-46q-4 66 -9 183t-7 149q-68 -19 -137 -19q-114 0 -156.5 43t-42.5 116q0 98 54 165t136 67q91 0 136 -85.5t54 -249.5q1 -20 6.5 -151.5t11.5 -217.5zM263 360q59 0 129 16q-17 283 -145 283q-49 0 -83.5 -30.5t-48 -70t-13.5 -80.5q0 -58 36.5 -88t124.5 -30z
" />
    <glyph glyph-name="uni200C" unicode="&#x200c;" 
 />
    <glyph glyph-name="uni200D" unicode="&#x200d;" 
 />
    <glyph glyph-name="endash" unicode="&#x2013;" horiz-adv-x="500" 
d="M39 293v42h422v-42h-422z" />
    <glyph glyph-name="emdash" unicode="&#x2014;" horiz-adv-x="1000" 
d="M39 293v42h922v-42h-922z" />
    <glyph glyph-name="quoteleft" unicode="&#x2018;" horiz-adv-x="180" 
d="M101 515h-47q7 106 64 205h34q-43 -91 -51 -205z" />
    <glyph glyph-name="quoteright" unicode="&#x2019;" horiz-adv-x="180" 
d="M94 720h46q-6 -103 -64 -205h-33q41 86 51 205z" />
    <glyph glyph-name="quotesinglbase" unicode="&#x201a;" horiz-adv-x="180" 
d="M78 78h47q-7 -107 -64 -206h-34q43 92 51 206z" />
    <glyph glyph-name="quotedblleft" unicode="&#x201c;" horiz-adv-x="336" 
d="M101 515h-47q7 106 64 205h34q-43 -91 -51 -205zM257 515h-46q6 106 64 205h33q-41 -86 -51 -205z" />
    <glyph glyph-name="quotedblright" unicode="&#x201d;" horiz-adv-x="336" 
d="M250 720h46q-6 -106 -64 -205h-33q41 86 51 205zM94 720h46q-6 -103 -64 -205h-33q41 86 51 205z" />
    <glyph glyph-name="quotedblbase" unicode="&#x201e;" horiz-adv-x="336" 
d="M234 78h47q-7 -107 -64 -206h-34q43 89 51 206zM78 78h47q-7 -107 -64 -206h-34q43 92 51 206z" />
    <glyph glyph-name="dagger" unicode="&#x2020;" horiz-adv-x="555" 
d="M300 259v-459h-45v459q0 62 4 180q-99 -3 -201 -3v42q3 0 201 -3q-4 114 -4 178q0 30 2 88h41q2 -58 2 -88q0 -64 -4 -178q195 3 200 3v-42q-70 0 -200 2q4 -116 4 -179z" />
    <glyph glyph-name="daggerdbl" unicode="&#x2021;" horiz-adv-x="555" 
d="M300 -112q0 -33 -2 -91h-41q-2 58 -2 91q0 64 4 178q-198 -3 -201 -3v41q102 0 201 -3q0 17 -2 74t-2 96q0 54 4 168q-99 -3 -201 -3v42q3 0 201 -3q-4 114 -4 178q0 30 2 88h41q2 -58 2 -88q0 -64 -4 -178q195 3 200 3v-42q-70 0 -200 2q4 -112 4 -167q0 -39 -2 -96
t-2 -73q130 2 200 2v-41q-5 0 -200 3q4 -114 4 -178z" />
    <glyph glyph-name="bullet" unicode="&#x2022;" horiz-adv-x="241" 
d="M190 352q0 -32 -18.5 -52.5t-50.5 -20.5q-33 0 -52 20.5t-19 52.5q0 30 19 50t52 20q32 0 50.5 -20t18.5 -50z" />
    <glyph glyph-name="ellipsis" unicode="&#x2026;" horiz-adv-x="631" 
d="M498 30q0 16 10 26t27 10t26.5 -10t9.5 -26t-9.5 -26.5t-26.5 -10.5t-27 10.5t-10 26.5zM279 30q0 16 10 26t27 10t26.5 -10t9.5 -26t-9.5 -26.5t-26.5 -10.5t-27 10.5t-10 26.5zM60 30q0 16 10 26t27 10t26.5 -10t9.5 -26t-9.5 -26.5t-26.5 -10.5t-27 10.5t-10 26.5z
" />
    <glyph glyph-name="perthousand" unicode="&#x2030;" horiz-adv-x="1171" 
d="M345 518q0 -75 -40 -120.5t-107 -45.5q-65 0 -105 45.5t-40 120.5q0 74 40 119.5t105 45.5q67 0 107 -45.5t40 -119.5zM550 671h44l-327 -671h-43zM97 518q0 -59 26 -93t75 -34q51 0 76.5 33.5t25.5 93.5q0 58 -25.5 92t-76.5 34q-49 0 -75 -34t-26 -92zM1118 154
q0 -75 -39.5 -120.5t-106.5 -45.5q-65 0 -105.5 45.5t-40.5 120.5q0 74 40.5 119.5t105.5 45.5q66 0 106 -45.5t40 -119.5zM764 154q0 -75 -39.5 -120.5t-106.5 -45.5q-66 0 -106 45.5t-40 120.5q0 74 40 119.5t106 45.5t106 -45.5t40 -119.5zM871 154q0 -59 26 -93t75 -34
q51 0 76.5 34t25.5 93q0 58 -25.5 92t-76.5 34q-49 0 -75 -34t-26 -92zM516 154q0 -59 26 -93t76 -34q51 0 76.5 34t25.5 93q0 58 -25.5 92t-76.5 34q-50 0 -76 -34t-26 -92z" />
    <glyph glyph-name="guilsinglleft" unicode="&#x2039;" horiz-adv-x="322" 
d="M218 64q-90 80 -193 202q97 116 193 203h60q-105 -98 -194 -203q85 -100 194 -202h-60z" />
    <glyph glyph-name="guilsinglright" unicode="&#x203a;" horiz-adv-x="322" 
d="M104 64h-60q115 109 194 202q-83 98 -194 203h60q91 -82 193 -203q-109 -127 -193 -202z" />
    <glyph glyph-name="fraction" unicode="&#x2044;" horiz-adv-x="105" 
d="M223 700h46l-388 -700h-46z" />
    <glyph glyph-name="Euro" unicode="&#x20ac;" horiz-adv-x="615" 
d="M562 9q-65 -21 -133 -21q-123 0 -198 67.5t-96 187.5h-100v40h94q-2 34 -2 54t2 56h-94v39h100q20 119 92 185t190 66q64 0 135 -23l-11 -41q-63 21 -122 21q-97 0 -156.5 -55.5t-78.5 -152.5h283l-5 -39h-283q-3 -27 -3 -56t3 -54h276l-5 -40h-265q19 -99 81 -155.5
t164 -56.5q59 0 123 19z" />
    <glyph glyph-name="trademark" unicode="&#x2122;" horiz-adv-x="728" 
d="M289 665h-117v-299h-40v299h-116v35h273v-35zM370 581v-215h-37v334h44q42 -98 130 -246q71 116 126 246h44v-334h-38v215l3 56q-50 -115 -116 -220h-35q-79 128 -123 223z" />
    <glyph glyph-name="partialdiff" unicode="&#x2202;" horiz-adv-x="554" 
d="M229 -12q-88 0 -134.5 52t-46.5 143q0 137 75.5 233.5t192.5 96.5q74 0 126 -54q-30 78 -90 143.5t-139 99.5l65 4q93 -43 157.5 -136.5t64.5 -211.5q0 -170 -73 -270t-198 -100zM97 185q0 -73 34.5 -113.5t104.5 -40.5q100 0 158 85t58 202q0 153 -140 153
q-98 0 -156.5 -85.5t-58.5 -200.5z" />
    <glyph glyph-name="product" unicode="&#x220f;" horiz-adv-x="713" 
d="M527 -130v787h-341v-787h-48v787h-100v43h637v-43h-100v-787h-48z" />
    <glyph glyph-name="summation" unicode="&#x2211;" horiz-adv-x="549" 
d="M520 -130h-491v40l294 376l-274 374v40h450v-43h-392l258 -349v-45l-278 -350h433v-43z" />
    <glyph glyph-name="minus" unicode="&#x2212;" horiz-adv-x="497" 
d="M35 322v42h427v-42h-427z" />
    <glyph glyph-name="radical" unicode="&#x221a;" horiz-adv-x="503" 
d="M242 0h-49l-97 261h-69v43h100l90 -255l212 651h46z" />
    <glyph glyph-name="infinity" unicode="&#x221e;" horiz-adv-x="781" 
d="M39 327q0 75 45.5 121t115.5 46q62 0 104.5 -34t90.5 -100q46 66 87 100t102 34q66 0 112 -46.5t46 -120.5q0 -75 -45.5 -121.5t-108.5 -46.5t-105 34t-91 101q-51 -71 -96.5 -103t-100.5 -32q-64 0 -110 45t-46 123zM417 328q24 -33 36.5 -48.5t35 -37.5t46 -31.5
t51.5 -9.5q49 0 80 34t31 90q0 59 -31.5 93t-84.5 34q-49 0 -83.5 -30.5t-80.5 -93.5zM200 452q-53 0 -84.5 -35t-31.5 -92q0 -56 32.5 -90t80.5 -34q37 0 70 19.5t52 41t50 64.5q-24 32 -37.5 48.5t-36 38t-45.5 30.5t-50 9z" />
    <glyph glyph-name="integral" unicode="&#x222b;" horiz-adv-x="411" 
d="M94 -192q-35 0 -74 11l11 41q36 -9 60 -9q50 0 70.5 30t20.5 87v603q0 160 135 160q35 0 74 -11l-11 -40q-38 9 -60 9q-50 0 -70.5 -30t-20.5 -88v-602q0 -161 -135 -161z" />
    <glyph glyph-name="approxequal" unicode="&#x2248;" horiz-adv-x="497" 
d="M430 475l33 -17q-39 -93 -119 -93q-43 0 -97 28t-86 28q-64 0 -93 -65l-33 17q14 43 47 67.5t77 24.5q41 0 95 -28t87 -28q54 0 89 66zM430 328l33 -17q-40 -93 -119 -93q-43 0 -97 28.5t-86 28.5q-64 0 -93 -65l-33 17q14 43 47.5 67.5t76.5 24.5q41 0 95 -28t87 -28
q55 0 89 65z" />
    <glyph glyph-name="notequal" unicode="&#x2260;" horiz-adv-x="497" 
d="M462 231h-246l-66 -132h-45l66 132h-136v43h157l68 137h-225v42h246l66 132h46l-66 -132h135v-42h-156l-68 -137h224v-43z" />
    <glyph glyph-name="lessequal" unicode="&#x2264;" horiz-adv-x="497" 
d="M462 169l-427 165v49l427 166v-49l-372 -141l372 -141v-49zM35 33v42h427v-42h-427z" />
    <glyph glyph-name="greaterequal" unicode="&#x2265;" horiz-adv-x="497" 
d="M35 169v49l372 141l-372 141v49l427 -166v-49zM462 33h-427v42h427v-42z" />
    <glyph glyph-name="lozenge" unicode="&#x25ca;" horiz-adv-x="482" 
d="M216 0l-193 291l193 295h49l194 -295l-194 -291h-49zM241 40l164 252l-164 253l-165 -253z" />
    <glyph glyph-name="fi" unicode="&#xfb01;" horiz-adv-x="534" 
d="M374 657q0 15 10 25.5t27 10.5q16 0 26 -10.5t10 -25.5q0 -16 -10 -26.5t-26 -10.5q-17 0 -27 10.5t-10 26.5zM107 0v460h-78v41h78v70q0 160 135 160q34 0 72 -11l-10 -40q-38 9 -59 9q-50 0 -70.5 -30t-20.5 -88v-70h280v-501h-48v460h-232v-460h-47z" />
    <glyph glyph-name="fl" unicode="&#xfb02;" horiz-adv-x="571" 
d="M501 -12q-115 0 -115 140v547q-56 14 -110 14q-67 0 -94.5 -28t-27.5 -85v-75h142v-41h-142v-460h-47v460h-78v41h78v74q0 77 39 116.5t127 39.5q66 0 161 -25v-577q0 -52 15.5 -75.5t55.5 -23.5q13 0 28 3l5 -40q-17 -5 -37 -5z" />
    <glyph glyph-name="uniFBB2" unicode="&#xfbb2;" 
d="M105 521l47 -43l-40 -44l-47 40z" />
    <glyph glyph-name="uniFBB3" unicode="&#xfbb3;" 
d="M105 -84l47 -43l-40 -44l-47 40z" />
    <glyph glyph-name="uniFBB4" unicode="&#xfbb4;" 
d="M229 567l45 -41l-38 -42l-45 39zM97 563l45 -41l-38 -42l-45 39z" />
    <glyph glyph-name="uniFBB5" unicode="&#xfbb5;" 
d="M226 -74l45 -41l-38 -42l-45 39zM94 -78l45 -41l-38 -42l-45 39z" />
    <glyph glyph-name="uniFBB6" unicode="&#xfbb6;" 
d="M160 667l44 -41l-37 -41l-44 38zM230 568l45 -41l-38 -41l-45 38zM98 564l45 -41l-38 -41l-45 38z" />
    <glyph glyph-name="uniFBB7" unicode="&#xfbb7;" 
d="M222 -147l-45 41l38 41l45 -38zM90 -151l-45 41l38 41l45 -38zM160 -250l-44 41l37 41l44 -38z" />
    <glyph glyph-name="alefShort.isol" horiz-adv-x="220" 
d="M133 0h-46v607l46 5v-612z" />
    <glyph glyph-name="alefShort.fina" horiz-adv-x="312" 
d="M312 50v-50h-21q-115 0 -159.5 60.5t-44.5 184.5v360l46 5v-361q0 -111 37.5 -155t129.5 -44h12z" />
    <glyph glyph-name="dotlessFeh.medi" horiz-adv-x="552" 
d="M129 256q0 -112 142 -167q145 59 145 158q0 67 -41 108t-107 41q-60 0 -99.5 -39.5t-39.5 -100.5zM0 0q-9 0 -15 7t-6 17q0 11 6 18.5t15 7.5h17q119 0 196 21q-125 68 -125 181q0 89 54 139t131 50t130.5 -51t53.5 -136q0 -115 -126 -182q86 -22 191 -22h30v-50h-33
q-150 0 -251 42q-114 -42 -249 -42h-19z" />
    <glyph glyph-name="dotlessFeh.init" horiz-adv-x="542" 
d="M281 223q66 0 134 20q-3 120 -42.5 192.5t-107.5 72.5q-63 0 -99 -51t-36 -112q0 -122 151 -122zM0 0q-9 0 -15 7t-6 17q0 11 6 18.5t15 7.5h1h20q245 0 380 49q9 40 13 101q-63 -19 -147 -19q-178 0 -178 158q0 90 51 151.5t125 61.5q86 0 138 -83t52 -226
q0 -99 -23 -176q-124 -67 -404 -67h-28z" />
    <glyph glyph-name="uni0651064B" 
d="M272 1104v-37q-122 -20 -272 -58v36q129 37 272 59zM272 993v-36q-111 -18 -272 -59v36q129 37 272 59zM201 740q-28 0 -45 10q-33 -40 -91 -40q-74 0 -74 72q0 13 2.5 28t4.5 23l3 8l30 -3q-7 -23 -7 -43q0 -47 49 -47q38 0 59 27q-10 19 -10 50v31l34 7v-28
q0 -57 48 -57q50 0 50 57q0 22 -10 54l35 13q11 -33 11 -64q0 -42 -21 -70t-68 -28z" />
    <glyph glyph-name="wasleh" 
d="M225 752q69 0 69 44q0 31 -19 46.5t-45 15.5q-50 0 -99 -86l18 -6t22.5 -7t22.5 -4.5t31 -2.5zM93 743q-27 0 -56 -30l-24 25q33 41 77 41h6q36 67 69 92.5t71 25.5q41 0 67 -27.5t26 -69.5q0 -38 -27.5 -61.5t-80.5 -23.5q-37 0 -77.5 14t-50.5 14z" />
    <glyph glyph-name="wavyHamzehAbove" 
d="M67 734q-31 0 -60 -24l-20 25q37 37 84 37q14 0 42.5 -11.5t48.5 -11.5q13 0 31 2q-35 9 -52.5 34.5t-17.5 57.5q0 48 26.5 71.5t63.5 23.5q34 0 73 -18l-14 -32q-31 13 -58 13q-25 0 -40.5 -14.5t-15.5 -42.5q0 -30 20 -50t55 -20q7 0 16 2.5t16 5.5l20.5 9t19.5 9
l12 -32l-41 -19.5t-42.5 -20t-34 -11t-39.5 -5.5q-25 0 -53 11t-40 11z" />
    <glyph glyph-name="uni0654064E" 
d="M280 1059v-37q-111 -18 -272 -59v37q129 37 272 59zM251 763q-96 -17 -201 -57l-11 32q50 20 72 27q-51 26 -51 80q0 43 25 65t63 22q34 0 72 -18l-13 -31q-33 12 -59 12q-24 0 -39.5 -13t-15.5 -37q0 -26 20.5 -44t55.5 -18q7 0 75 13z" />
    <glyph glyph-name="uni06540652" 
d="M230 1076q0 -46 -31 -70.5t-78 -24.5q-49 0 -74 26.5t-25 67.5q0 54 31 81t70 27q44 0 75.5 -27t31.5 -80zM126 1017q33 0 51 15.5t18 39.5q0 32 -18.5 53.5t-54.5 21.5q-29 0 -47 -20t-18 -50q0 -60 69 -60zM225 763q-96 -17 -201 -57l-11 32q50 20 72 27q-51 26 -51 80
q0 43 25 65t63 22q34 0 72 -18l-13 -31q-33 12 -59 12q-24 0 -39.5 -13t-15.5 -37q0 -26 20.5 -44t55.5 -18q7 0 75 13z" />
    <glyph glyph-name="uni06540651" 
d="M220 1003q-28 0 -45 10q-33 -40 -91 -40q-74 0 -74 72q0 13 2.5 28t5.5 23l2 8l30 -3q-7 -23 -7 -43q0 -47 49 -47q38 0 59 27q-10 19 -10 50v31l34 7v-28q0 -57 48 -57q50 0 50 57q0 22 -10 54l35 13q11 -33 11 -64q0 -42 -21.5 -70t-67.5 -28zM265 763
q-96 -17 -201 -57l-11 32q50 20 72 27q-51 26 -51 80q0 43 25 65t63 22q34 0 72 -18l-13 -31q-33 12 -59 12q-24 0 -39.5 -13t-15.5 -37q0 -26 20.5 -44t55.5 -18q7 0 75 13z" />
    <glyph glyph-name="uni0654064F" 
d="M0 948v38q157 39 196 67q-52 4 -78 29t-26 65t26 68.5t68 28.5q37 0 61.5 -28t24.5 -71q0 -40 -19 -73q-46 -77 -253 -124zM126 1151q0 -67 98 -70q16 23 16 54t-17.5 52t-44.5 21q-22 0 -37 -16t-15 -41zM242 768q-96 -17 -201 -57l-11 32q50 20 72 27q-51 26 -51 80
q0 43 25 65t63 22q34 0 72 -18l-13 -31q-33 12 -59 12q-24 0 -39.5 -13t-15.5 -37q0 -26 20.5 -44t55.5 -18q7 0 75 13z" />
    <glyph glyph-name="uni0654064C" 
d="M176 1161q0 -65 94 -72q20 26 20 56q0 31 -17.5 52t-44.5 21q-22 0 -37 -16t-15 -41zM33 954l-8 35q33 16 45 30t12 34q0 19 -11.5 32t-33.5 13q-20 0 -40 -10l-12 30q30 14 59 14q32 0 51.5 -21t19.5 -58q0 -26 -18 -47q109 29 147 57q-50 4 -75.5 29.5t-25.5 64.5
q0 40 25.5 68.5t67.5 28.5q37 0 61.5 -28t24.5 -71q0 -40 -16 -69q-46 -82 -273 -132zM270 763q-96 -17 -201 -57l-11 32q50 20 72 27q-51 26 -51 80q0 43 25 65t63 22q34 0 72 -18l-13 -31q-33 12 -59 12q-24 0 -39.5 -13t-15.5 -37q0 -26 20.5 -44t55.5 -18q7 0 75 13z
" />
    <glyph glyph-name="uni06550650" 
d="M245 -346q-96 -17 -201 -57l-11 32q50 20 72 27q-51 26 -51 80q0 43 25 65t63 22q34 0 72 -18l-13 -31q-33 12 -59 12q-24 0 -39.5 -13t-15.5 -37q0 -26 20.5 -44t55.5 -18q7 0 75 13zM282 -427v-37q-111 -18 -272 -59v37q129 37 272 59z" />
    <glyph glyph-name="uni0655064D" 
d="M241 -349q-96 -17 -201 -57l-11 32q50 20 72 27q-51 26 -51 80q0 43 25 65t63 22q34 0 72 -18l-13 -31q-33 12 -59 12q-24 0 -39.5 -13t-15.5 -37q0 -26 20.5 -44t55.5 -18q7 0 75 13zM273 -433v-37q-122 -20 -272 -58v36q129 37 272 59zM273 -544v-36q-111 -18 -272 -59
v36q129 37 272 59z" />
    <glyph glyph-name="ovalComp" 
d="M1 0h-1q-9 0 -15 7t-6 17q0 11 6 18.5t15 7.5q20 0 20 -26q0 -11 -5.5 -17.5t-13.5 -6.5z" />
    <glyph glyph-name="uniFEDFFEE0FEEA" horiz-adv-x="1088" 
d="M833 0q-123 0 -154 98q-30 -98 -162 -98q-127 0 -149 98q-40 -4 -86 -4q-96 0 -153 25t-57 79q0 101 96 174t248 73q-9 -256 -9 -291q0 -54 26 -79t93 -25q80 0 106 44.5t26 130.5v342l46 5v-349q0 -95 30.5 -134t100.5 -39q56 0 115 22q6 31 6 87q0 106 -25 459l46 7
q25 -367 25 -461q0 -72 -14 -127q-70 -37 -155 -37zM302 138q33 0 61 4v3q0 11 1 39t2.5 89t3.5 124q-112 -5 -183.5 -65t-71.5 -125q0 -32 47.5 -50.5t139.5 -18.5z" />
    <glyph glyph-name="ITF" horiz-adv-x="1639" 
d="M1363 496v204h216v-204h-216zM1102 0v700h217v-700h-217zM842 496v204h216v-204h-216zM581 0v700h217v-700h-217zM321 496v204h216v-204h-216zM60 0v700h216v-700h-216zM1363 247v205h216v-205h-216z" />
    </font>
</defs>
</svg>
