<?xml version="1.0" standalone="no"?>
<!DOCTYPE svg PUBLIC "-//W3C//DTD SVG 1.1//EN" "http://www.w3.org/Graphics/SVG/1.1/DTD/svg11.dtd" >
<svg>
<metadata>
Created by FontForge 20090622 at Tue Mar 12 12:12:50 2019
 By deploy user
Copyright (c) 2017 Commercial Type, Inc. All rights reserved.
</metadata>
<defs>
<font id="GraphikArabic-Super" horiz-adv-x="600" >
  <font-face 
    font-family="Graphik Arabic Super"
    font-weight="950"
    font-stretch="normal"
    units-per-em="1000"
    panose-1="0 0 0 0 0 0 0 0 0 0"
    ascent="800"
    descent="-200"
    x-height="523"
    cap-height="715"
    bbox="-250 -517 1688 1146"
    underline-thickness="66"
    underline-position="-59"
    unicode-range="U+0020-U+FEFC"
  />
<missing-glyph horiz-adv-x="0" 
 />
    <glyph glyph-name="uniFC03" unicode="&#xfe8b;&#xfef0;" horiz-adv-x="887" arabic-form="isolated" 
d="M864 645v-100l-249 -36v100l28 4q-17 24 -17 59q1 49 34.5 82.5t84.5 33.5q45 0 72.5 -29.5t30.5 -80.5l-60 -8q-13 18 -43 18q-42 0 -42 -24q0 -16 23 -26t56 -5zM790 -38q0 -96 -116 -159.5t-288 -63.5q-376 0 -376 323q0 81 16 158h185q-11 -68 -11 -109
q0 -142 216 -142q217 0 217 37q0 28 -97 28h-113v220h186q58 0 58 55q0 63 -18 166h190q18 -114 18 -206q0 -80 -35.5 -131.5t-99.5 -67.5q68 -40 68 -108z" />
    <glyph glyph-name="uniFC04" unicode="&#xfe8b;&#xfef2;" horiz-adv-x="887" arabic-form="isolated" 
d="M864 645v-100l-249 -36v100l28 4q-17 24 -17 59q1 49 34.5 82.5t84.5 33.5q45 0 72.5 -29.5t30.5 -80.5l-60 -8q-13 18 -43 18q-42 0 -42 -24q0 -16 23 -26t56 -5zM790 -38q0 -96 -116 -159.5t-288 -63.5q-376 0 -376 323q0 81 16 158h185q-11 -68 -11 -109
q0 -142 216 -142q217 0 217 37q0 28 -97 28h-113v220h186q58 0 58 55q0 63 -18 166h190q18 -114 18 -206q0 -80 -35.5 -131.5t-99.5 -67.5q68 -40 68 -108zM570 -395q0 -37 -24.5 -61.5t-61.5 -24.5t-62.5 24.5t-25.5 61.5t25.5 62.5t62.5 25.5t61.5 -25.5t24.5 -62.5z
M376 -395q0 -37 -24.5 -61.5t-61.5 -24.5t-62.5 24.5t-25.5 61.5t25.5 62.5t62.5 25.5t61.5 -25.5t24.5 -62.5z" />
    <glyph glyph-name="uniFC09" unicode="&#xfe91;&#xfef0;" horiz-adv-x="887" arabic-form="isolated" 
d="M790 -38q0 -96 -116 -159.5t-288 -63.5q-376 0 -376 323q0 81 16 158h185q-11 -68 -11 -109q0 -142 216 -142q217 0 217 37q0 28 -97 28h-113v220h186q58 0 58 55q0 63 -18 166h190q18 -114 18 -206q0 -80 -35.5 -131.5t-99.5 -67.5q68 -40 68 -108zM821 -332
q0 -37 -24.5 -61.5t-61.5 -24.5t-62.5 24.5t-25.5 61.5t25.5 62.5t62.5 25.5t61.5 -25.5t24.5 -62.5z" />
    <glyph glyph-name="uniFC0A" unicode="&#xfe91;&#xfef2;" horiz-adv-x="887" arabic-form="isolated" 
d="M790 -38q0 -96 -116 -159.5t-288 -63.5q-376 0 -376 323q0 81 16 158h185q-11 -68 -11 -109q0 -142 216 -142q217 0 217 37q0 28 -97 28h-113v220h186q58 0 58 55q0 63 -18 166h190q18 -114 18 -206q0 -80 -35.5 -131.5t-99.5 -67.5q68 -40 68 -108zM821 -332
q0 -37 -24.5 -61.5t-61.5 -24.5t-62.5 24.5t-25.5 61.5t25.5 62.5t62.5 25.5t61.5 -25.5t24.5 -62.5zM570 -395q0 -37 -24.5 -61.5t-61.5 -24.5t-62.5 24.5t-25.5 61.5t25.5 62.5t62.5 25.5t61.5 -25.5t24.5 -62.5zM376 -395q0 -37 -24.5 -61.5t-61.5 -24.5t-62.5 24.5
t-25.5 61.5t25.5 62.5t62.5 25.5t61.5 -25.5t24.5 -62.5z" />
    <glyph glyph-name="uniFC0F" unicode="&#xfe97;&#xfef0;" horiz-adv-x="887" arabic-form="isolated" 
d="M924 611q0 -37 -24.5 -61.5t-61.5 -24.5t-62.5 24.5t-25.5 61.5t25.5 62.5t62.5 25.5t61.5 -25.5t24.5 -62.5zM730 611q0 -37 -24.5 -61.5t-61.5 -24.5t-62.5 24.5t-25.5 61.5t25.5 62.5t62.5 25.5t61.5 -25.5t24.5 -62.5zM790 -38q0 -96 -116 -159.5t-288 -63.5
q-376 0 -376 323q0 81 16 158h185q-11 -68 -11 -109q0 -142 216 -142q217 0 217 37q0 28 -97 28h-113v220h186q58 0 58 55q0 63 -18 166h190q18 -114 18 -206q0 -80 -35.5 -131.5t-99.5 -67.5q68 -40 68 -108z" />
    <glyph glyph-name="uniFC10" unicode="&#xfe97;&#xfef2;" horiz-adv-x="887" arabic-form="isolated" 
d="M924 611q0 -37 -24.5 -61.5t-61.5 -24.5t-62.5 24.5t-25.5 61.5t25.5 62.5t62.5 25.5t61.5 -25.5t24.5 -62.5zM730 611q0 -37 -24.5 -61.5t-61.5 -24.5t-62.5 24.5t-25.5 61.5t25.5 62.5t62.5 25.5t61.5 -25.5t24.5 -62.5zM790 -38q0 -96 -116 -159.5t-288 -63.5
q-376 0 -376 323q0 81 16 158h185q-11 -68 -11 -109q0 -142 216 -142q217 0 217 37q0 28 -97 28h-113v220h186q58 0 58 55q0 63 -18 166h190q18 -114 18 -206q0 -80 -35.5 -131.5t-99.5 -67.5q68 -40 68 -108zM570 -395q0 -37 -24.5 -61.5t-61.5 -24.5t-62.5 24.5
t-25.5 61.5t25.5 62.5t62.5 25.5t61.5 -25.5t24.5 -62.5zM376 -395q0 -37 -24.5 -61.5t-61.5 -24.5t-62.5 24.5t-25.5 61.5t25.5 62.5t62.5 25.5t61.5 -25.5t24.5 -62.5z" />
    <glyph glyph-name="uniFC13" unicode="&#xfe9b;&#xfef0;" horiz-adv-x="887" arabic-form="isolated" 
d="M809 734q0 -29 -19.5 -49t-49.5 -20t-50 20t-20 49q0 30 20 50t50 20t49.5 -20t19.5 -50zM730 594q0 -29 -19.5 -49t-49.5 -20t-50 20t-20 49q0 30 20 50t50 20t49.5 -20t19.5 -50zM889 594q0 -29 -19.5 -49t-49.5 -20t-50 20t-20 49q0 30 20 50t50 20t49.5 -20t19.5 -50
zM790 -38q0 -96 -116 -159.5t-288 -63.5q-376 0 -376 323q0 81 16 158h185q-11 -68 -11 -109q0 -142 216 -142q217 0 217 37q0 28 -97 28h-113v220h186q58 0 58 55q0 63 -18 166h190q18 -114 18 -206q0 -80 -35.5 -131.5t-99.5 -67.5q68 -40 68 -108z" />
    <glyph glyph-name="uniFC14" unicode="&#xfe9b;&#xfef2;" horiz-adv-x="887" arabic-form="isolated" 
d="M809 734q0 -29 -19.5 -49t-49.5 -20t-50 20t-20 49q0 30 20 50t50 20t49.5 -20t19.5 -50zM730 594q0 -29 -19.5 -49t-49.5 -20t-50 20t-20 49q0 30 20 50t50 20t49.5 -20t19.5 -50zM889 594q0 -29 -19.5 -49t-49.5 -20t-50 20t-20 49q0 30 20 50t50 20t49.5 -20t19.5 -50
zM790 -38q0 -96 -116 -159.5t-288 -63.5q-376 0 -376 323q0 81 16 158h185q-11 -68 -11 -109q0 -142 216 -142q217 0 217 37q0 28 -97 28h-113v220h186q58 0 58 55q0 63 -18 166h190q18 -114 18 -206q0 -80 -35.5 -131.5t-99.5 -67.5q68 -40 68 -108zM570 -395
q0 -37 -24.5 -61.5t-61.5 -24.5t-62.5 24.5t-25.5 61.5t25.5 62.5t62.5 25.5t61.5 -25.5t24.5 -62.5zM376 -395q0 -37 -24.5 -61.5t-61.5 -24.5t-62.5 24.5t-25.5 61.5t25.5 62.5t62.5 25.5t61.5 -25.5t24.5 -62.5z" />
    <glyph glyph-name="uniFC31" unicode="&#xfed3;&#xfef0;" horiz-adv-x="867" arabic-form="isolated" 
d="M665 833q0 -37 -24.5 -61.5t-61.5 -24.5t-62.5 24.5t-25.5 61.5t25.5 62.5t62.5 25.5t61.5 -25.5t24.5 -62.5zM771 -38q0 -96 -110 -159.5t-274 -63.5q-190 0 -283.5 85t-92.5 256q0 66 18 140h185q-9 -67 -9 -99q0 -152 212 -152q197 0 197 37q0 23 -97 23h-113v205
l186 -1q70 0 98.5 16t33.5 60q-60 -26 -180 -26q-92 0 -144 44t-52 118q0 99 72 175.5t166 76.5q106 0 182.5 -103.5t76.5 -260.5q0 -119 -35 -180.5t-117 -82.5q80 -26 80 -108zM476 451q0 -28 75 -28q80 0 130 7q-52 52 -132 52q-36 0 -54.5 -9.5t-18.5 -21.5z" />
    <glyph glyph-name="uniFC32" unicode="&#xfed3;&#xfef2;" horiz-adv-x="867" arabic-form="isolated" 
d="M665 833q0 -37 -24.5 -61.5t-61.5 -24.5t-62.5 24.5t-25.5 61.5t25.5 62.5t62.5 25.5t61.5 -25.5t24.5 -62.5zM771 -38q0 -96 -110 -159.5t-274 -63.5q-190 0 -283.5 85t-92.5 256q0 66 18 140h185q-9 -67 -9 -99q0 -152 212 -152q197 0 197 37q0 23 -97 23h-113v205
l186 -1q70 0 98.5 16t33.5 60q-60 -26 -180 -26q-92 0 -144 44t-52 118q0 99 72 175.5t166 76.5q106 0 182.5 -103.5t76.5 -260.5q0 -119 -35 -180.5t-117 -82.5q80 -26 80 -108zM476 451q0 -28 75 -28q80 0 130 7q-52 52 -132 52q-36 0 -54.5 -9.5t-18.5 -21.5zM572 -385
q0 -37 -24.5 -61.5t-61.5 -24.5t-62.5 24.5t-25.5 61.5t25.5 62.5t62.5 25.5t61.5 -25.5t24.5 -62.5zM378 -385q0 -37 -24.5 -61.5t-61.5 -24.5t-62.5 24.5t-25.5 61.5t25.5 62.5t62.5 25.5t61.5 -25.5t24.5 -62.5z" />
    <glyph glyph-name="uniFC35" unicode="&#xfed7;&#xfef0;" horiz-adv-x="867" arabic-form="isolated" 
d="M768 833q0 -37 -24.5 -61.5t-61.5 -24.5t-62.5 24.5t-25.5 61.5t25.5 62.5t62.5 25.5t61.5 -25.5t24.5 -62.5zM574 833q0 -37 -24.5 -61.5t-61.5 -24.5t-62.5 24.5t-25.5 61.5t25.5 62.5t62.5 25.5t61.5 -25.5t24.5 -62.5zM771 -38q0 -96 -110 -159.5t-274 -63.5
q-190 0 -283.5 85t-92.5 256q0 66 18 140h185q-9 -67 -9 -99q0 -152 212 -152q197 0 197 37q0 23 -97 23h-113v205l186 -1q70 0 98.5 16t33.5 60q-60 -26 -180 -26q-92 0 -144 44t-52 118q0 99 72 175.5t166 76.5q106 0 182.5 -103.5t76.5 -260.5q0 -119 -35 -180.5
t-117 -82.5q80 -26 80 -108zM476 451q0 -28 75 -28q80 0 130 7q-52 52 -132 52q-36 0 -54.5 -9.5t-18.5 -21.5z" />
    <glyph glyph-name="uniFC36" unicode="&#xfed7;&#xfef2;" horiz-adv-x="867" arabic-form="isolated" 
d="M768 833q0 -37 -24.5 -61.5t-61.5 -24.5t-62.5 24.5t-25.5 61.5t25.5 62.5t62.5 25.5t61.5 -25.5t24.5 -62.5zM574 833q0 -37 -24.5 -61.5t-61.5 -24.5t-62.5 24.5t-25.5 61.5t25.5 62.5t62.5 25.5t61.5 -25.5t24.5 -62.5zM771 -38q0 -96 -110 -159.5t-274 -63.5
q-190 0 -283.5 85t-92.5 256q0 66 18 140h185q-9 -67 -9 -99q0 -152 212 -152q197 0 197 37q0 23 -97 23h-113v205l186 -1q70 0 98.5 16t33.5 60q-60 -26 -180 -26q-92 0 -144 44t-52 118q0 99 72 175.5t166 76.5q106 0 182.5 -103.5t76.5 -260.5q0 -119 -35 -180.5
t-117 -82.5q80 -26 80 -108zM476 451q0 -28 75 -28q80 0 130 7q-52 52 -132 52q-36 0 -54.5 -9.5t-18.5 -21.5zM572 -385q0 -37 -24.5 -61.5t-61.5 -24.5t-62.5 24.5t-25.5 61.5t25.5 62.5t62.5 25.5t61.5 -25.5t24.5 -62.5zM378 -385q0 -37 -24.5 -61.5t-61.5 -24.5
t-62.5 24.5t-25.5 61.5t25.5 62.5t62.5 25.5t61.5 -25.5t24.5 -62.5z" />
    <glyph glyph-name="uniFC3D" unicode="&#xfedb;&#xfef0;" horiz-adv-x="820" arabic-form="isolated" 
d="M791 -28q0 -100 -116 -166.5t-288 -66.5q-190 0 -283.5 85t-92.5 256q0 66 18 140h185q-9 -67 -9 -99q0 -152 212 -152q217 0 217 37q0 28 -97 28h-113v210h170q38 0 38 18q0 24 -68 34l-212 35v187l484 247l-1 -200l-209 -104q166 -37 166 -196q0 -115 -86 -171
q85 -36 85 -122z" />
    <glyph glyph-name="uniFC3E" unicode="&#xfedb;&#xfef2;" horiz-adv-x="820" arabic-form="isolated" 
d="M791 -28q0 -100 -116 -166.5t-288 -66.5q-190 0 -283.5 85t-92.5 256q0 66 18 140h185q-9 -67 -9 -99q0 -152 212 -152q217 0 217 37q0 28 -97 28h-113v210h170q38 0 38 18q0 24 -68 34l-212 35v187l484 247l-1 -200l-209 -104q166 -37 166 -196q0 -115 -86 -171
q85 -36 85 -122zM572 -385q0 -37 -24.5 -61.5t-61.5 -24.5t-62.5 24.5t-25.5 61.5t25.5 62.5t62.5 25.5t61.5 -25.5t24.5 -62.5zM378 -385q0 -37 -24.5 -61.5t-61.5 -24.5t-62.5 24.5t-25.5 61.5t25.5 62.5t62.5 25.5t61.5 -25.5t24.5 -62.5z" />
    <glyph glyph-name="uniFC3F" unicode="&#xfedf;&#xfe9e;" horiz-adv-x="720" arabic-form="isolated" 
d="M685 -40v-240q-116 -52 -276 -52q-187 0 -293 79t-106 210q0 171 185 263q-113 -5 -161 -5v230h209q38 0 51 14t13 55v229h206v-201q0 -62 -17 -97h200l-1 -230h-30q-219 0 -342 -48.5t-123 -135.5q0 -57 61 -89t168 -32q136 0 256 50zM515 56q0 -37 -24.5 -61.5
t-61.5 -24.5t-62.5 24.5t-25.5 61.5t25.5 62.5t62.5 25.5t61.5 -25.5t24.5 -62.5z" />
    <glyph glyph-name="uniFC40" unicode="&#xfedf;&#xfea2;" horiz-adv-x="720" arabic-form="isolated" 
d="M685 -40v-240q-116 -52 -276 -52q-187 0 -293 79t-106 210q0 171 185 263q-113 -5 -161 -5v230h209q38 0 51 14t13 55v229h206v-201q0 -62 -17 -97h200l-1 -230h-30q-219 0 -342 -48.5t-123 -135.5q0 -57 61 -89t168 -32q136 0 256 50z" />
    <glyph glyph-name="uniFC41" unicode="&#xfedf;&#xfea6;" horiz-adv-x="720" arabic-form="isolated" 
d="M685 -40v-240q-116 -52 -276 -52q-187 0 -293 79t-106 210q0 171 185 263q-113 -5 -161 -5v230h209q38 0 51 14t13 55v229h206v-201q0 -62 -17 -97h200l-1 -230h-30q-219 0 -342 -48.5t-123 -135.5q0 -57 61 -89t168 -32q136 0 256 50zM215 601q0 -37 -24.5 -61.5
t-61.5 -24.5t-62.5 24.5t-25.5 61.5t25.5 62.5t62.5 25.5t61.5 -25.5t24.5 -62.5z" />
    <glyph glyph-name="uniFC42" unicode="&#xfedf;&#xfee2;" horiz-adv-x="731" arabic-form="isolated" 
d="M256 -57v-275h-206v291q0 295 244 295q47 0 77 -9q-42 46 -42 150v348h206v-348q0 -56 7.5 -94t25 -63t34.5 -38.5t48 -31.5l76 -42l-106 -192l-57 32q-54 30 -118.5 49t-111.5 19q-44 0 -60.5 -21t-16.5 -70z" />
    <glyph glyph-name="uniFC43" unicode="&#xfedf;&#xfef0;" horiz-adv-x="830" arabic-form="isolated" 
d="M791 -25q0 -104 -115 -170t-289 -66q-190 0 -283.5 85t-92.5 256q0 66 18 140h185q-9 -67 -9 -99q0 -152 212 -152q217 0 217 37q0 28 -97 28h-113v220h75q43 0 60 14.5t17 54.5v420h206v-420q0 -91 -17 -144.5t-56 -80.5q82 -34 82 -123z" />
    <glyph glyph-name="uniFC44" unicode="&#xfedf;&#xfef2;" horiz-adv-x="830" arabic-form="isolated" 
d="M791 -25q0 -104 -115 -170t-289 -66q-190 0 -283.5 85t-92.5 256q0 66 18 140h185q-9 -67 -9 -99q0 -152 212 -152q217 0 217 37q0 28 -97 28h-113v220h75q43 0 60 14.5t17 54.5v420h206v-420q0 -91 -17 -144.5t-56 -80.5q82 -34 82 -123zM591 -395q0 -37 -24.5 -61.5
t-61.5 -24.5t-62.5 24.5t-25.5 61.5t25.5 62.5t62.5 25.5t61.5 -25.5t24.5 -62.5zM397 -395q0 -37 -24.5 -61.5t-61.5 -24.5t-62.5 24.5t-25.5 61.5t25.5 62.5t62.5 25.5t61.5 -25.5t24.5 -62.5z" />
    <glyph glyph-name="uniFC4F" unicode="&#xfee7;&#xfef0;" horiz-adv-x="887" arabic-form="isolated" 
d="M821 611q0 -37 -24.5 -61.5t-61.5 -24.5t-62.5 24.5t-25.5 61.5t25.5 62.5t62.5 25.5t61.5 -25.5t24.5 -62.5zM790 -38q0 -96 -116 -159.5t-288 -63.5q-376 0 -376 323q0 81 16 158h185q-11 -68 -11 -109q0 -142 216 -142q217 0 217 37q0 28 -97 28h-113v220h186
q58 0 58 55q0 63 -18 166h190q18 -114 18 -206q0 -80 -35.5 -131.5t-99.5 -67.5q68 -40 68 -108z" />
    <glyph glyph-name="uniFC50" unicode="&#xfee7;&#xfef2;" horiz-adv-x="887" arabic-form="isolated" 
d="M821 611q0 -37 -24.5 -61.5t-61.5 -24.5t-62.5 24.5t-25.5 61.5t25.5 62.5t62.5 25.5t61.5 -25.5t24.5 -62.5zM790 -38q0 -96 -116 -159.5t-288 -63.5q-376 0 -376 323q0 81 16 158h185q-11 -68 -11 -109q0 -142 216 -142q217 0 217 37q0 28 -97 28h-113v220h186
q58 0 58 55q0 63 -18 166h190q18 -114 18 -206q0 -80 -35.5 -131.5t-99.5 -67.5q68 -40 68 -108zM570 -395q0 -37 -24.5 -61.5t-61.5 -24.5t-62.5 24.5t-25.5 61.5t25.5 62.5t62.5 25.5t61.5 -25.5t24.5 -62.5zM376 -395q0 -37 -24.5 -61.5t-61.5 -24.5t-62.5 24.5
t-25.5 61.5t25.5 62.5t62.5 25.5t61.5 -25.5t24.5 -62.5z" />
    <glyph glyph-name="uniFC53" unicode="&#xfeeb;&#xfef0;" horiz-adv-x="1315" arabic-form="isolated" 
d="M791 -54q0 -88 -116 -147.5t-288 -59.5q-190 0 -283.5 85t-92.5 256q0 66 18 140h185q-9 -67 -9 -99q0 -152 202 -152q227 0 227 29q0 24 -79 24h-35v198l158 1q-13 41 -13 78q0 56 27 102.5t73 71.5v144l197 -50q189 -48 263 -118q76 -69 76 -195q0 -125 -71.5 -196.5
t-198.5 -71.5q-124 0 -227 72q-37 -11 -76 -17q63 -32 63 -95zM805 299q0 -42 56 -65q76 16 76 61q0 25 -19.5 41.5t-47.5 16.5q-30 0 -47.5 -15.5t-17.5 -38.5zM1063 314v-15q0 -48 -27 -92q13 -1 46 -1q44 0 61.5 8.5t17.5 29.5q0 44 -98 70z" />
    <glyph glyph-name="uniFC54" unicode="&#xfeeb;&#xfef2;" horiz-adv-x="1315" arabic-form="isolated" 
d="M791 -54q0 -88 -116 -147.5t-288 -59.5q-190 0 -283.5 85t-92.5 256q0 66 18 140h185q-9 -67 -9 -99q0 -152 202 -152q227 0 227 29q0 24 -79 24h-35v198l158 1q-13 41 -13 78q0 56 27 102.5t73 71.5v144l197 -50q189 -48 263 -118q76 -69 76 -195q0 -125 -71.5 -196.5
t-198.5 -71.5q-124 0 -227 72q-37 -11 -76 -17q63 -32 63 -95zM805 299q0 -42 56 -65q76 16 76 61q0 25 -19.5 41.5t-47.5 16.5q-30 0 -47.5 -15.5t-17.5 -38.5zM1063 314v-15q0 -48 -27 -92q13 -1 46 -1q44 0 61.5 8.5t17.5 29.5q0 44 -98 70zM571 -395q0 -37 -24.5 -61.5
t-61.5 -24.5t-62.5 24.5t-25.5 61.5t25.5 62.5t62.5 25.5t61.5 -25.5t24.5 -62.5zM377 -395q0 -37 -24.5 -61.5t-61.5 -24.5t-62.5 24.5t-25.5 61.5t25.5 62.5t62.5 25.5t61.5 -25.5t24.5 -62.5z" />
    <glyph glyph-name="uniFC59" unicode="&#xfef3;&#xfef0;" horiz-adv-x="887" arabic-form="isolated" 
d="M790 -38q0 -96 -116 -159.5t-288 -63.5q-376 0 -376 323q0 81 16 158h185q-11 -68 -11 -109q0 -142 216 -142q217 0 217 37q0 28 -97 28h-113v220h186q58 0 58 55q0 63 -18 166h190q18 -114 18 -206q0 -80 -35.5 -131.5t-99.5 -67.5q68 -40 68 -108zM923 -332
q0 -37 -24.5 -61.5t-61.5 -24.5t-62.5 24.5t-25.5 61.5t25.5 62.5t62.5 25.5t61.5 -25.5t24.5 -62.5zM729 -332q0 -37 -24.5 -61.5t-61.5 -24.5t-62.5 24.5t-25.5 61.5t25.5 62.5t62.5 25.5t61.5 -25.5t24.5 -62.5z" />
    <glyph glyph-name="uniFC5A" unicode="&#xfef3;&#xfef2;" horiz-adv-x="887" arabic-form="isolated" 
d="M790 -38q0 -96 -116 -159.5t-288 -63.5q-376 0 -376 323q0 81 16 158h185q-11 -68 -11 -109q0 -142 216 -142q217 0 217 37q0 28 -97 28h-113v220h186q58 0 58 55q0 63 -18 166h190q18 -114 18 -206q0 -80 -35.5 -131.5t-99.5 -67.5q68 -40 68 -108zM923 -332
q0 -37 -24.5 -61.5t-61.5 -24.5t-62.5 24.5t-25.5 61.5t25.5 62.5t62.5 25.5t61.5 -25.5t24.5 -62.5zM570 -395q0 -37 -24.5 -61.5t-61.5 -24.5t-62.5 24.5t-25.5 61.5t25.5 62.5t62.5 25.5q48 0 72 -39q-1 4 -1 14q0 37 25.5 62.5t62.5 25.5t61.5 -25.5t24.5 -62.5
t-24.5 -61.5t-61.5 -24.5q-50 0 -74 39q1 -5 1 -16zM376 -395q0 -37 -24.5 -61.5t-61.5 -24.5t-62.5 24.5t-25.5 61.5t25.5 62.5t62.5 25.5t61.5 -25.5t24.5 -62.5z" />
    <glyph glyph-name="uniFC64" unicode="&#xfe8c;&#xfeae;" horiz-adv-x="672" arabic-form="final" 
d="M585 612v-100l-249 -36v100l28 4q-17 24 -17 59q1 49 34.5 82.5t84.5 33.5q45 0 72.5 -29.5t30.5 -80.5l-60 -8q-13 18 -43 18q-42 0 -42 -24q0 -16 23 -26t56 -5zM318 125q0 -193 -69.5 -284.5t-216.5 -91.5q-48 0 -92 4v223q49 -7 88 -7q59 0 82 33t23 114
q0 36 -10 138l-18 151l480 35l16 -151q4 -39 19.5 -54t51.5 -15v-180l-40 -40q-92 0 -141 47q-47 47 -69 162l-107 -8q3 -75 3 -76z" />
    <glyph glyph-name="uniFC65" unicode="&#xfe8c;&#xfeb0;" horiz-adv-x="672" arabic-form="final" 
d="M585 612v-100l-249 -36v100l28 4q-17 24 -17 59q1 49 34.5 82.5t84.5 33.5q45 0 72.5 -29.5t30.5 -80.5l-60 -8q-13 18 -43 18q-42 0 -42 -24q0 -16 23 -26t56 -5zM240 578q0 -37 -24.5 -61.5t-61.5 -24.5t-62.5 24.5t-25.5 61.5t25.5 62.5t62.5 25.5t61.5 -25.5
t24.5 -62.5zM318 125q0 -193 -69.5 -284.5t-216.5 -91.5q-48 0 -92 4v223q49 -7 88 -7q59 0 82 33t23 114q0 36 -10 138l-18 151l480 35l16 -151q4 -39 19.5 -54t51.5 -15v-180l-40 -40q-92 0 -141 47q-47 47 -69 162l-107 -8q3 -75 3 -76z" />
    <glyph glyph-name="uniFC67" unicode="&#xfe8c;&#xfee6;" horiz-adv-x="1050" arabic-form="final" 
d="M1020 610v-100l-249 -36v100l28 4q-17 24 -17 59q1 49 34.5 82.5t84.5 33.5q45 0 72.5 -29.5t30.5 -80.5l-60 -8q-13 18 -43 18q-42 0 -42 -24q0 -16 23 -26t56 -5zM438 449q0 -37 -24.5 -61.5t-61.5 -24.5t-62.5 24.5t-25.5 61.5t25.5 62.5t62.5 25.5t61.5 -25.5
t24.5 -62.5zM696 161q0 -167 -92 -262t-252 -95q-334 0 -341 328q-2 75 15 167h185q-12 -65 -11 -102q0 -163 161 -163q175 0 175 120q0 26 -9 100l-18 151l455 35l16 -151q4 -39 19.5 -54t51.5 -15v-180l-40 -40q-92 0 -141 47q-46 47 -69 162l-106 -8q1 -15 1 -40z" />
    <glyph glyph-name="uniFC68" unicode="&#xfe8c;&#xfef0;" horiz-adv-x="1069" arabic-form="final" 
d="M759 709v-100l-249 -36v100l28 4q-17 24 -17 59q1 49 34.5 82.5t84.5 33.5q45 0 72.5 -29.5t30.5 -80.5l-60 -8q-13 18 -43 18q-42 0 -42 -24q0 -16 23 -26t56 -5zM802 43q0 -143 -114.5 -223.5t-293.5 -80.5q-384 0 -384 341q0 64 14 140h185q-10 -74 -10 -99
q0 -78 57.5 -115t177.5 -37q88 0 145 8.5t57 23.5q0 20 -108 35l-91 12q-87 12 -129 54.5t-42 120.5q0 79 54.5 153t140 118.5t174.5 44.5q100 0 167 -44q66 -43 129 -152l38 -65q21 -34 41 -46t59 -12v-180l-40 -40q-79 0 -125.5 26.5t-90.5 107.5l-31 57q-40 73 -85 100.5
t-132 27.5q-60 0 -99.5 -9.5t-39.5 -27.5q0 -23 63 -29l91 -12q122 -16 172 -60t50 -138z" />
    <glyph glyph-name="uniFC69" unicode="&#xfe8c;&#xfef2;" horiz-adv-x="1069" arabic-form="final" 
d="M759 709v-100l-249 -36v100l28 4q-17 24 -17 59q1 49 34.5 82.5t84.5 33.5q45 0 72.5 -29.5t30.5 -80.5l-60 -8q-13 18 -43 18q-42 0 -42 -24q0 -16 23 -26t56 -5zM802 43q0 -143 -114.5 -223.5t-293.5 -80.5q-384 0 -384 341q0 64 14 140h185q-10 -74 -10 -99
q0 -78 57.5 -115t177.5 -37q88 0 145 8.5t57 23.5q0 20 -108 35l-91 12q-87 12 -129 54.5t-42 120.5q0 79 54.5 153t140 118.5t174.5 44.5q100 0 167 -44q66 -43 129 -152l38 -65q21 -34 41 -46t59 -12v-180l-40 -40q-79 0 -125.5 26.5t-90.5 107.5l-31 57q-40 73 -85 100.5
t-132 27.5q-60 0 -99.5 -9.5t-39.5 -27.5q0 -23 63 -29l91 -12q122 -16 172 -60t50 -138zM578 -395q0 -37 -24.5 -61.5t-61.5 -24.5t-62.5 24.5t-25.5 61.5t25.5 62.5t62.5 25.5t61.5 -25.5t24.5 -62.5zM384 -395q0 -37 -24.5 -61.5t-61.5 -24.5t-62.5 24.5t-25.5 61.5
t25.5 62.5t62.5 25.5t61.5 -25.5t24.5 -62.5z" />
    <glyph glyph-name="uniFC6A" unicode="&#xfe92;&#xfeae;" horiz-adv-x="672" arabic-form="final" 
d="M318 125q0 -193 -69.5 -284.5t-216.5 -91.5q-48 0 -92 4v223q49 -7 88 -7q59 0 82 33t23 114q0 36 -10 138l-18 151l480 35l16 -151q4 -39 19.5 -54t51.5 -15v-180l-40 -40q-92 0 -141 47q-47 47 -69 162l-107 -8q3 -75 3 -76zM592 -134q0 -37 -24.5 -61.5t-61.5 -24.5
t-62.5 24.5t-25.5 61.5t25.5 62.5t62.5 25.5t61.5 -25.5t24.5 -62.5z" />
    <glyph glyph-name="uniFC6B" unicode="&#xfe92;&#xfeb0;" horiz-adv-x="672" arabic-form="final" 
d="M240 578q0 -37 -24.5 -61.5t-61.5 -24.5t-62.5 24.5t-25.5 61.5t25.5 62.5t62.5 25.5t61.5 -25.5t24.5 -62.5zM318 125q0 -193 -69.5 -284.5t-216.5 -91.5q-48 0 -92 4v223q49 -7 88 -7q59 0 82 33t23 114q0 36 -10 138l-18 151l480 35l16 -151q4 -39 19.5 -54t51.5 -15
v-180l-40 -40q-92 0 -141 47q-47 47 -69 162l-107 -8q3 -75 3 -76zM592 -134q0 -37 -24.5 -61.5t-61.5 -24.5t-62.5 24.5t-25.5 61.5t25.5 62.5t62.5 25.5t61.5 -25.5t24.5 -62.5z" />
    <glyph glyph-name="uniFC6D" unicode="&#xfe92;&#xfee6;" horiz-adv-x="1050" arabic-form="final" 
d="M438 449q0 -37 -24.5 -61.5t-61.5 -24.5t-62.5 24.5t-25.5 61.5t25.5 62.5t62.5 25.5t61.5 -25.5t24.5 -62.5zM696 161q0 -167 -92 -262t-252 -95q-334 0 -341 328q-2 75 15 167h185q-12 -65 -11 -102q0 -163 161 -163q175 0 175 120q0 26 -9 100l-18 151l455 35l16 -151
q4 -39 19.5 -54t51.5 -15v-180l-40 -40q-92 0 -141 47q-46 47 -69 162l-106 -8q1 -15 1 -40zM963 -134q0 -37 -24.5 -61.5t-61.5 -24.5t-62.5 24.5t-25.5 61.5t25.5 62.5t62.5 25.5t61.5 -25.5t24.5 -62.5z" />
    <glyph glyph-name="uniFC6E" unicode="&#xfe92;&#xfef0;" horiz-adv-x="1069" arabic-form="final" 
d="M802 43q0 -143 -114.5 -223.5t-293.5 -80.5q-384 0 -384 341q0 64 14 140h185q-10 -74 -10 -99q0 -78 57.5 -115t177.5 -37q88 0 145 8.5t57 23.5q0 20 -108 35l-91 12q-87 12 -129 54.5t-42 120.5q0 79 54.5 153t140 118.5t174.5 44.5q100 0 167 -44q66 -43 129 -152
l38 -65q21 -34 41 -46t59 -12v-180l-40 -40q-79 0 -125.5 26.5t-90.5 107.5l-31 57q-40 73 -85 100.5t-132 27.5q-60 0 -99.5 -9.5t-39.5 -27.5q0 -23 63 -29l91 -12q122 -16 172 -60t50 -138zM969 -275q0 -37 -24.5 -61.5t-61.5 -24.5t-62.5 24.5t-25.5 61.5t25.5 62.5
t62.5 25.5t61.5 -25.5t24.5 -62.5z" />
    <glyph glyph-name="uniFC6F" unicode="&#xfe92;&#xfef2;" horiz-adv-x="1069" arabic-form="final" 
d="M802 43q0 -143 -114.5 -223.5t-293.5 -80.5q-384 0 -384 341q0 64 14 140h185q-10 -74 -10 -99q0 -78 57.5 -115t177.5 -37q88 0 145 8.5t57 23.5q0 20 -108 35l-91 12q-87 12 -129 54.5t-42 120.5q0 79 54.5 153t140 118.5t174.5 44.5q100 0 167 -44q66 -43 129 -152
l38 -65q21 -34 41 -46t59 -12v-180l-40 -40q-79 0 -125.5 26.5t-90.5 107.5l-31 57q-40 73 -85 100.5t-132 27.5q-60 0 -99.5 -9.5t-39.5 -27.5q0 -23 63 -29l91 -12q122 -16 172 -60t50 -138zM969 -275q0 -37 -24.5 -61.5t-61.5 -24.5t-62.5 24.5t-25.5 61.5t25.5 62.5
t62.5 25.5t61.5 -25.5t24.5 -62.5zM578 -395q0 -37 -24.5 -61.5t-61.5 -24.5t-62.5 24.5t-25.5 61.5t25.5 62.5t62.5 25.5t61.5 -25.5t24.5 -62.5zM384 -395q0 -37 -24.5 -61.5t-61.5 -24.5t-62.5 24.5t-25.5 61.5t25.5 62.5t62.5 25.5t61.5 -25.5t24.5 -62.5z" />
    <glyph glyph-name="uniFC70" unicode="&#xfe98;&#xfeae;" horiz-adv-x="672" arabic-form="final" 
d="M645 578q0 -37 -24.5 -61.5t-61.5 -24.5t-62.5 24.5t-25.5 61.5t25.5 62.5t62.5 25.5t61.5 -25.5t24.5 -62.5zM451 578q0 -37 -24.5 -61.5t-61.5 -24.5t-62.5 24.5t-25.5 61.5t25.5 62.5t62.5 25.5t61.5 -25.5t24.5 -62.5zM318 125q0 -193 -69.5 -284.5t-216.5 -91.5
q-48 0 -92 4v223q49 -7 88 -7q59 0 82 33t23 114q0 36 -10 138l-18 151l480 35l16 -151q4 -39 19.5 -54t51.5 -15v-180l-40 -40q-92 0 -141 47q-47 47 -69 162l-107 -8q3 -75 3 -76z" />
    <glyph glyph-name="uniFC71" unicode="&#xfe98;&#xfeb0;" horiz-adv-x="672" arabic-form="final" 
d="M645 578q0 -37 -24.5 -61.5t-61.5 -24.5t-62.5 24.5t-25.5 61.5t25.5 62.5t62.5 25.5t61.5 -25.5t24.5 -62.5zM451 578q0 -37 -24.5 -61.5t-61.5 -24.5t-62.5 24.5t-25.5 61.5t25.5 62.5t62.5 25.5t61.5 -25.5t24.5 -62.5zM240 578q0 -37 -24.5 -61.5t-61.5 -24.5
t-62.5 24.5t-25.5 61.5t25.5 62.5t62.5 25.5t61.5 -25.5t24.5 -62.5zM318 125q0 -193 -69.5 -284.5t-216.5 -91.5q-48 0 -92 4v223q49 -7 88 -7q59 0 82 33t23 114q0 36 -10 138l-18 151l480 35l16 -151q4 -39 19.5 -54t51.5 -15v-180l-40 -40q-92 0 -141 47q-47 47 -69 162
l-107 -8q3 -75 3 -76z" />
    <glyph glyph-name="uniFC73" unicode="&#xfe98;&#xfee6;" horiz-adv-x="1050" arabic-form="final" 
d="M1080 576q0 -37 -24.5 -61.5t-61.5 -24.5t-62.5 24.5t-25.5 61.5t25.5 62.5t62.5 25.5t61.5 -25.5t24.5 -62.5zM886 576q0 -37 -24.5 -61.5t-61.5 -24.5t-62.5 24.5t-25.5 61.5t25.5 62.5t62.5 25.5t61.5 -25.5t24.5 -62.5zM438 449q0 -37 -24.5 -61.5t-61.5 -24.5
t-62.5 24.5t-25.5 61.5t25.5 62.5t62.5 25.5t61.5 -25.5t24.5 -62.5zM696 161q0 -167 -92 -262t-252 -95q-334 0 -341 328q-2 75 15 167h185q-12 -65 -11 -102q0 -163 161 -163q175 0 175 120q0 26 -9 100l-18 151l455 35l16 -151q4 -39 19.5 -54t51.5 -15v-180l-40 -40
q-92 0 -141 47q-46 47 -69 162l-106 -8q1 -15 1 -40z" />
    <glyph glyph-name="uniFC74" unicode="&#xfe98;&#xfef0;" horiz-adv-x="1069" arabic-form="final" 
d="M819 675q0 -37 -24.5 -61.5t-61.5 -24.5t-62.5 24.5t-25.5 61.5t25.5 62.5t62.5 25.5t61.5 -25.5t24.5 -62.5zM625 675q0 -37 -24.5 -61.5t-61.5 -24.5t-62.5 24.5t-25.5 61.5t25.5 62.5t62.5 25.5t61.5 -25.5t24.5 -62.5zM802 43q0 -143 -114.5 -223.5t-293.5 -80.5
q-384 0 -384 341q0 64 14 140h185q-10 -74 -10 -99q0 -78 57.5 -115t177.5 -37q88 0 145 8.5t57 23.5q0 20 -108 35l-91 12q-87 12 -129 54.5t-42 120.5q0 79 54.5 153t140 118.5t174.5 44.5q100 0 167 -44q66 -43 129 -152l38 -65q21 -34 41 -46t59 -12v-180l-40 -40
q-79 0 -125.5 26.5t-90.5 107.5l-31 57q-40 73 -85 100.5t-132 27.5q-60 0 -99.5 -9.5t-39.5 -27.5q0 -23 63 -29l91 -12q122 -16 172 -60t50 -138z" />
    <glyph glyph-name="uniFC75" unicode="&#xfe98;&#xfef2;" horiz-adv-x="1069" arabic-form="final" 
d="M819 675q0 -37 -24.5 -61.5t-61.5 -24.5t-62.5 24.5t-25.5 61.5t25.5 62.5t62.5 25.5t61.5 -25.5t24.5 -62.5zM625 675q0 -37 -24.5 -61.5t-61.5 -24.5t-62.5 24.5t-25.5 61.5t25.5 62.5t62.5 25.5t61.5 -25.5t24.5 -62.5zM802 43q0 -143 -114.5 -223.5t-293.5 -80.5
q-384 0 -384 341q0 64 14 140h185q-10 -74 -10 -99q0 -78 57.5 -115t177.5 -37q88 0 145 8.5t57 23.5q0 20 -108 35l-91 12q-87 12 -129 54.5t-42 120.5q0 79 54.5 153t140 118.5t174.5 44.5q100 0 167 -44q66 -43 129 -152l38 -65q21 -34 41 -46t59 -12v-180l-40 -40
q-79 0 -125.5 26.5t-90.5 107.5l-31 57q-40 73 -85 100.5t-132 27.5q-60 0 -99.5 -9.5t-39.5 -27.5q0 -23 63 -29l91 -12q122 -16 172 -60t50 -138zM578 -395q0 -37 -24.5 -61.5t-61.5 -24.5t-62.5 24.5t-25.5 61.5t25.5 62.5t62.5 25.5t61.5 -25.5t24.5 -62.5zM384 -395
q0 -37 -24.5 -61.5t-61.5 -24.5t-62.5 24.5t-25.5 61.5t25.5 62.5t62.5 25.5t61.5 -25.5t24.5 -62.5z" />
    <glyph glyph-name="uniFC76" unicode="&#xfe9c;&#xfeae;" horiz-adv-x="672" arabic-form="final" 
d="M530 701q0 -29 -19.5 -49t-49.5 -20t-50 20t-20 49q0 30 20 50t50 20t49.5 -20t19.5 -50zM451 561q0 -29 -19.5 -49t-49.5 -20t-50 20t-20 49q0 30 20 50t50 20t49.5 -20t19.5 -50zM610 561q0 -29 -19.5 -49t-49.5 -20t-50 20t-20 49q0 30 20 50t50 20t49.5 -20t19.5 -50
zM318 125q0 -193 -69.5 -284.5t-216.5 -91.5q-48 0 -92 4v223q49 -7 88 -7q59 0 82 33t23 114q0 36 -10 138l-18 151l480 35l16 -151q4 -39 19.5 -54t51.5 -15v-180l-40 -40q-92 0 -141 47q-47 47 -69 162l-107 -8q3 -75 3 -76z" />
    <glyph glyph-name="uniFC77" unicode="&#xfe9c;&#xfeb0;" horiz-adv-x="672" arabic-form="final" 
d="M530 701q0 -29 -19.5 -49t-49.5 -20t-50 20t-20 49q0 30 20 50t50 20t49.5 -20t19.5 -50zM240 578q0 -37 -24.5 -61.5t-61.5 -24.5t-62.5 24.5t-25.5 61.5t25.5 62.5t62.5 25.5t61.5 -25.5t24.5 -62.5zM451 561q0 -29 -19.5 -49t-49.5 -20t-50 20t-20 49q0 30 20 50
t50 20t49.5 -20t19.5 -50zM610 561q0 -29 -19.5 -49t-49.5 -20t-50 20t-20 49q0 30 20 50t50 20t49.5 -20t19.5 -50zM318 125q0 -193 -69.5 -284.5t-216.5 -91.5q-48 0 -92 4v223q49 -7 88 -7q59 0 82 33t23 114q0 36 -10 138l-18 151l480 35l16 -151q4 -39 19.5 -54
t51.5 -15v-180l-40 -40q-92 0 -141 47q-47 47 -69 162l-107 -8q3 -75 3 -76z" />
    <glyph glyph-name="uniFC79" unicode="&#xfe9c;&#xfee6;" horiz-adv-x="1050" arabic-form="final" 
d="M965 699q0 -29 -19.5 -49t-49.5 -20t-50 20t-20 49q0 30 20 50t50 20t49.5 -20t19.5 -50zM886 559q0 -29 -19.5 -49t-49.5 -20t-50 20t-20 49q0 30 20 50t50 20t49.5 -20t19.5 -50zM1045 559q0 -29 -19.5 -49t-49.5 -20t-50 20t-20 49q0 30 20 50t50 20t49.5 -20
t19.5 -50zM438 449q0 -37 -24.5 -61.5t-61.5 -24.5t-62.5 24.5t-25.5 61.5t25.5 62.5t62.5 25.5t61.5 -25.5t24.5 -62.5zM696 161q0 -167 -92 -262t-252 -95q-334 0 -341 328q-2 75 15 167h185q-12 -65 -11 -102q0 -163 161 -163q175 0 175 120q0 26 -9 100l-18 151l455 35
l16 -151q4 -39 19.5 -54t51.5 -15v-180l-40 -40q-92 0 -141 47q-46 47 -69 162l-106 -8q1 -15 1 -40z" />
    <glyph glyph-name="uniFC7A" unicode="&#xfe9c;&#xfef0;" horiz-adv-x="1069" arabic-form="final" 
d="M704 798q0 -29 -19.5 -49t-49.5 -20t-50 20t-20 49q0 30 20 50t50 20t49.5 -20t19.5 -50zM625 658q0 -29 -19.5 -49t-49.5 -20t-50 20t-20 49q0 30 20 50t50 20t49.5 -20t19.5 -50zM784 658q0 -29 -19.5 -49t-49.5 -20t-50 20t-20 49q0 30 20 50t50 20t49.5 -20t19.5 -50
zM802 43q0 -143 -114.5 -223.5t-293.5 -80.5q-384 0 -384 341q0 64 14 140h185q-10 -74 -10 -99q0 -78 57.5 -115t177.5 -37q88 0 145 8.5t57 23.5q0 20 -108 35l-91 12q-87 12 -129 54.5t-42 120.5q0 79 54.5 153t140 118.5t174.5 44.5q100 0 167 -44q66 -43 129 -152
l38 -65q21 -34 41 -46t59 -12v-180l-40 -40q-79 0 -125.5 26.5t-90.5 107.5l-31 57q-40 73 -85 100.5t-132 27.5q-60 0 -99.5 -9.5t-39.5 -27.5q0 -23 63 -29l91 -12q122 -16 172 -60t50 -138z" />
    <glyph glyph-name="uniFC7B" unicode="&#xfe9c;&#xfef2;" horiz-adv-x="1069" arabic-form="final" 
d="M704 798q0 -29 -19.5 -49t-49.5 -20t-50 20t-20 49q0 30 20 50t50 20t49.5 -20t19.5 -50zM625 658q0 -29 -19.5 -49t-49.5 -20t-50 20t-20 49q0 30 20 50t50 20t49.5 -20t19.5 -50zM784 658q0 -29 -19.5 -49t-49.5 -20t-50 20t-20 49q0 30 20 50t50 20t49.5 -20t19.5 -50
zM802 43q0 -143 -114.5 -223.5t-293.5 -80.5q-384 0 -384 341q0 64 14 140h185q-10 -74 -10 -99q0 -78 57.5 -115t177.5 -37q88 0 145 8.5t57 23.5q0 20 -108 35l-91 12q-87 12 -129 54.5t-42 120.5q0 79 54.5 153t140 118.5t174.5 44.5q100 0 167 -44q66 -43 129 -152
l38 -65q21 -34 41 -46t59 -12v-180l-40 -40q-79 0 -125.5 26.5t-90.5 107.5l-31 57q-40 73 -85 100.5t-132 27.5q-60 0 -99.5 -9.5t-39.5 -27.5q0 -23 63 -29l91 -12q122 -16 172 -60t50 -138zM578 -395q0 -37 -24.5 -61.5t-61.5 -24.5t-62.5 24.5t-25.5 61.5t25.5 62.5
t62.5 25.5t61.5 -25.5t24.5 -62.5zM384 -395q0 -37 -24.5 -61.5t-61.5 -24.5t-62.5 24.5t-25.5 61.5t25.5 62.5t62.5 25.5t61.5 -25.5t24.5 -62.5z" />
    <glyph glyph-name="uniFC83" unicode="&#xfedc;&#xfef0;" horiz-adv-x="1065" arabic-form="final" 
d="M791 -28q0 -100 -116 -166.5t-288 -66.5q-190 0 -283.5 85t-92.5 256q0 66 18 140h185q-9 -67 -9 -99q0 -152 212 -152q217 0 217 37q0 28 -97 28h-93v220h204q35 0 35 20q0 14 -33 52l-65 75v177l484 247l-1 -200l-285 -146l137 -164q44 -54 76 -76q29 -19 70 -19v-180
l-40 -40q-65 0 -108.5 29t-109.5 117l-30 40q-1 -61 -46 -98q59 -40 59 -116z" />
    <glyph glyph-name="uniFC84" unicode="&#xfedc;&#xfef2;" horiz-adv-x="1065" arabic-form="final" 
d="M791 -28q0 -100 -116 -166.5t-288 -66.5q-190 0 -283.5 85t-92.5 256q0 66 18 140h185q-9 -67 -9 -99q0 -152 212 -152q217 0 217 37q0 28 -97 28h-93v220h204q35 0 35 20q0 14 -33 52l-65 75v177l484 247l-1 -200l-285 -146l137 -164q44 -54 76 -76q29 -19 70 -19v-180
l-40 -40q-65 0 -108.5 29t-109.5 117l-30 40q-1 -61 -46 -98q59 -40 59 -116zM572 -385q0 -37 -24.5 -61.5t-61.5 -24.5t-62.5 24.5t-25.5 61.5t25.5 62.5t62.5 25.5t61.5 -25.5t24.5 -62.5zM378 -385q0 -37 -24.5 -61.5t-61.5 -24.5t-62.5 24.5t-25.5 61.5t25.5 62.5
t62.5 25.5t61.5 -25.5t24.5 -62.5z" />
    <glyph glyph-name="uniFC86" unicode="&#xfee0;&#xfef0;" horiz-adv-x="1051" arabic-form="final" 
d="M791 -28q0 -105 -104 -169t-300 -64q-190 0 -283.5 85t-92.5 256q0 66 18 140h185q-9 -67 -9 -99q0 -152 212 -152q217 0 217 37q0 28 -97 28h-113v220h293q36 0 50.5 16.5t14.5 52.5v420h206v-454q0 -38 15 -53.5t49 -15.5v-180l-40 -40q-93 0 -143 45t-54 130
q-13 -64 -76 -100q52 -38 52 -103z" />
    <glyph glyph-name="uniFC87" unicode="&#xfee0;&#xfef2;" horiz-adv-x="1051" arabic-form="final" 
d="M791 -28q0 -105 -104 -169t-300 -64q-190 0 -283.5 85t-92.5 256q0 66 18 140h185q-9 -67 -9 -99q0 -152 212 -152q217 0 217 37q0 28 -97 28h-113v220h293q36 0 50.5 16.5t14.5 52.5v420h206v-454q0 -38 15 -53.5t49 -15.5v-180l-40 -40q-93 0 -143 45t-54 130
q-13 -64 -76 -100q52 -38 52 -103zM571 -395q0 -37 -24.5 -61.5t-61.5 -24.5t-62.5 24.5t-25.5 61.5t25.5 62.5t62.5 25.5t61.5 -25.5t24.5 -62.5zM377 -395q0 -37 -24.5 -61.5t-61.5 -24.5t-62.5 24.5t-25.5 61.5t25.5 62.5t62.5 25.5t61.5 -25.5t24.5 -62.5z" />
    <glyph glyph-name="uniFC8A" unicode="&#xfee8;&#xfeae;" horiz-adv-x="672" arabic-form="final" 
d="M542 578q0 -37 -24.5 -61.5t-61.5 -24.5t-62.5 24.5t-25.5 61.5t25.5 62.5t62.5 25.5t61.5 -25.5t24.5 -62.5zM318 125q0 -193 -69.5 -284.5t-216.5 -91.5q-48 0 -92 4v223q49 -7 88 -7q59 0 82 33t23 114q0 36 -10 138l-18 151l480 35l16 -151q4 -39 19.5 -54t51.5 -15
v-180l-40 -40q-92 0 -141 47q-47 47 -69 162l-107 -8q3 -75 3 -76z" />
    <glyph glyph-name="uniFC8B" unicode="&#xfee8;&#xfeb0;" horiz-adv-x="672" arabic-form="final" 
d="M240 578q0 -37 -24.5 -61.5t-61.5 -24.5t-62.5 24.5t-25.5 61.5t25.5 62.5t62.5 25.5t61.5 -25.5t24.5 -62.5zM542 578q0 -37 -24.5 -61.5t-61.5 -24.5t-62.5 24.5t-25.5 61.5t25.5 62.5t62.5 25.5t61.5 -25.5t24.5 -62.5zM318 125q0 -193 -69.5 -284.5t-216.5 -91.5
q-48 0 -92 4v223q49 -7 88 -7q59 0 82 33t23 114q0 36 -10 138l-18 151l480 35l16 -151q4 -39 19.5 -54t51.5 -15v-180l-40 -40q-92 0 -141 47q-47 47 -69 162l-107 -8q3 -75 3 -76z" />
    <glyph glyph-name="uniFC8D" unicode="&#xfee8;&#xfee6;" horiz-adv-x="1050" arabic-form="final" 
d="M977 576q0 -37 -24.5 -61.5t-61.5 -24.5t-62.5 24.5t-25.5 61.5t25.5 62.5t62.5 25.5t61.5 -25.5t24.5 -62.5zM438 449q0 -37 -24.5 -61.5t-61.5 -24.5t-62.5 24.5t-25.5 61.5t25.5 62.5t62.5 25.5t61.5 -25.5t24.5 -62.5zM696 161q0 -167 -92 -262t-252 -95
q-334 0 -341 328q-2 75 15 167h185q-12 -65 -11 -102q0 -163 161 -163q175 0 175 120q0 26 -9 100l-18 151l455 35l16 -151q4 -39 19.5 -54t51.5 -15v-180l-40 -40q-92 0 -141 47q-46 47 -69 162l-106 -8q1 -15 1 -40z" />
    <glyph glyph-name="uniFC8E" unicode="&#xfee8;&#xfef0;" horiz-adv-x="1069" arabic-form="final" 
d="M716 675q0 -37 -24.5 -61.5t-61.5 -24.5t-62.5 24.5t-25.5 61.5t25.5 62.5t62.5 25.5t61.5 -25.5t24.5 -62.5zM802 43q0 -143 -114.5 -223.5t-293.5 -80.5q-384 0 -384 341q0 64 14 140h185q-10 -74 -10 -99q0 -78 57.5 -115t177.5 -37q88 0 145 8.5t57 23.5
q0 20 -108 35l-91 12q-87 12 -129 54.5t-42 120.5q0 79 54.5 153t140 118.5t174.5 44.5q100 0 167 -44q66 -43 129 -152l38 -65q21 -34 41 -46t59 -12v-180l-40 -40q-79 0 -125.5 26.5t-90.5 107.5l-31 57q-40 73 -85 100.5t-132 27.5q-60 0 -99.5 -9.5t-39.5 -27.5
q0 -23 63 -29l91 -12q122 -16 172 -60t50 -138z" />
    <glyph glyph-name="uniFC8F" unicode="&#xfee8;&#xfef2;" horiz-adv-x="1069" arabic-form="final" 
d="M716 675q0 -37 -24.5 -61.5t-61.5 -24.5t-62.5 24.5t-25.5 61.5t25.5 62.5t62.5 25.5t61.5 -25.5t24.5 -62.5zM802 43q0 -143 -114.5 -223.5t-293.5 -80.5q-384 0 -384 341q0 64 14 140h185q-10 -74 -10 -99q0 -78 57.5 -115t177.5 -37q88 0 145 8.5t57 23.5
q0 20 -108 35l-91 12q-87 12 -129 54.5t-42 120.5q0 79 54.5 153t140 118.5t174.5 44.5q100 0 167 -44q66 -43 129 -152l38 -65q21 -34 41 -46t59 -12v-180l-40 -40q-79 0 -125.5 26.5t-90.5 107.5l-31 57q-40 73 -85 100.5t-132 27.5q-60 0 -99.5 -9.5t-39.5 -27.5
q0 -23 63 -29l91 -12q122 -16 172 -60t50 -138zM578 -395q0 -37 -24.5 -61.5t-61.5 -24.5t-62.5 24.5t-25.5 61.5t25.5 62.5t62.5 25.5t61.5 -25.5t24.5 -62.5zM384 -395q0 -37 -24.5 -61.5t-61.5 -24.5t-62.5 24.5t-25.5 61.5t25.5 62.5t62.5 25.5t61.5 -25.5t24.5 -62.5z
" />
    <glyph glyph-name="uniFC91" unicode="&#xfef4;&#xfeae;" horiz-adv-x="672" arabic-form="final" 
d="M318 125q0 -193 -69.5 -284.5t-216.5 -91.5q-48 0 -92 4v223q49 -7 88 -7q59 0 82 33t23 114q0 36 -10 138l-18 151l480 35l16 -151q4 -39 19.5 -54t51.5 -15v-180l-40 -40q-92 0 -141 47q-47 47 -69 162l-107 -8q3 -75 3 -76zM659 -151q0 -29 -19.5 -49t-49.5 -20
t-50 20t-20 49q0 30 20 50t50 20t49.5 -20t19.5 -50zM500 -151q0 -29 -19.5 -49t-49.5 -20t-50 20t-20 49q0 30 20 50t50 20t49.5 -20t19.5 -50z" />
    <glyph glyph-name="uniFC92" unicode="&#xfef4;&#xfeb0;" horiz-adv-x="672" arabic-form="final" 
d="M240 578q0 -37 -24.5 -61.5t-61.5 -24.5t-62.5 24.5t-25.5 61.5t25.5 62.5t62.5 25.5t61.5 -25.5t24.5 -62.5zM318 125q0 -193 -69.5 -284.5t-216.5 -91.5q-48 0 -92 4v223q49 -7 88 -7q59 0 82 33t23 114q0 36 -10 138l-18 151l480 35l16 -151q4 -39 19.5 -54t51.5 -15
v-180l-40 -40q-92 0 -141 47q-47 47 -69 162l-107 -8q3 -75 3 -76zM657 -107q0 -29 -19.5 -49t-49.5 -20t-50 20t-20 49q0 30 20 50t50 20t49.5 -20t19.5 -50zM502 -107q0 -29 -19.5 -49t-49.5 -20t-50 20t-20 49q0 30 20 50t50 20t49.5 -20t19.5 -50z" />
    <glyph glyph-name="uniFC94" unicode="&#xfef4;&#xfee6;" horiz-adv-x="1050" arabic-form="final" 
d="M438 449q0 -37 -24.5 -61.5t-61.5 -24.5t-62.5 24.5t-25.5 61.5t25.5 62.5t62.5 25.5t61.5 -25.5t24.5 -62.5zM696 161q0 -167 -92 -262t-252 -95q-334 0 -341 328q-2 75 15 167h185q-12 -65 -11 -102q0 -163 161 -163q175 0 175 120q0 26 -9 100l-18 151l455 35l16 -151
q4 -39 19.5 -54t51.5 -15v-180l-40 -40q-92 0 -141 47q-46 47 -69 162l-106 -8q1 -15 1 -40zM1030 -151q0 -29 -19.5 -49t-49.5 -20t-50 20t-20 49q0 30 20 50t50 20t49.5 -20t19.5 -50zM871 -151q0 -29 -19.5 -49t-49.5 -20t-50 20t-20 49q0 30 20 50t50 20t49.5 -20
t19.5 -50z" />
    <glyph glyph-name="uniFC95" unicode="&#xfef4;&#xfef0;" horiz-adv-x="1069" arabic-form="final" 
d="M802 43q0 -143 -114.5 -223.5t-293.5 -80.5q-384 0 -384 341q0 64 14 140h185q-10 -74 -10 -99q0 -78 57.5 -115t177.5 -37q88 0 145 8.5t57 23.5q0 20 -108 35l-91 12q-87 12 -129 54.5t-42 120.5q0 79 54.5 153t140 118.5t174.5 44.5q100 0 167 -44q66 -43 129 -152
l38 -65q21 -34 41 -46t59 -12v-180l-40 -40q-79 0 -125.5 26.5t-90.5 107.5l-31 57q-40 73 -85 100.5t-132 27.5q-60 0 -99.5 -9.5t-39.5 -27.5q0 -23 63 -29l91 -12q122 -16 172 -60t50 -138zM1071 -275q0 -37 -24.5 -61.5t-61.5 -24.5t-62.5 24.5t-25.5 61.5t25.5 62.5
t62.5 25.5t61.5 -25.5t24.5 -62.5zM877 -275q0 -37 -24.5 -61.5t-61.5 -24.5t-62.5 24.5t-25.5 61.5t25.5 62.5t62.5 25.5t61.5 -25.5t24.5 -62.5z" />
    <glyph glyph-name="uniFC96" unicode="&#xfef4;&#xfef2;" horiz-adv-x="1069" arabic-form="final" 
d="M802 43q0 -143 -114.5 -223.5t-293.5 -80.5q-384 0 -384 341q0 64 14 140h185q-10 -74 -10 -99q0 -78 57.5 -115t177.5 -37q88 0 145 8.5t57 23.5q0 20 -108 35l-91 12q-87 12 -129 54.5t-42 120.5q0 79 54.5 153t140 118.5t174.5 44.5q100 0 167 -44q66 -43 129 -152
l38 -65q21 -34 41 -46t59 -12v-180l-40 -40q-79 0 -125.5 26.5t-90.5 107.5l-31 57q-40 73 -85 100.5t-132 27.5q-60 0 -99.5 -9.5t-39.5 -27.5q0 -23 63 -29l91 -12q122 -16 172 -60t50 -138zM1071 -275q0 -37 -24.5 -61.5t-61.5 -24.5t-62.5 24.5t-25.5 61.5t25.5 62.5
t62.5 25.5t61.5 -25.5t24.5 -62.5zM877 -275q0 -37 -24.5 -61.5t-61.5 -24.5t-62.5 24.5t-25.5 61.5t25.5 62.5t62.5 25.5t61.5 -25.5t24.5 -62.5zM578 -395q0 -37 -24.5 -61.5t-61.5 -24.5t-62.5 24.5t-25.5 61.5t25.5 62.5t62.5 25.5t61.5 -25.5t24.5 -62.5zM384 -395
q0 -37 -24.5 -61.5t-61.5 -24.5t-62.5 24.5t-25.5 61.5t25.5 62.5t62.5 25.5t61.5 -25.5t24.5 -62.5z" />
    <glyph glyph-name="uniFCC9" unicode="&#xfedf;&#xfea0;" horiz-adv-x="736" arabic-form="initial" 
d="M113 0h-153v184l40 36h123q142 0 251 9l63 5q12 1 33 3t29 2l-106 13l-66 9q-93 13 -240 13h-58v195h129q74 0 99 14t25 55v205h206v-177q0 -112 -84 -155l14 -2q93 -13 156 -18q72 -5 125 -5h17l-1 -200h-22q-56 0 -98.5 -13.5t-121.5 -54.5l-83 -43q-86 -44 -142 -59.5
t-135 -15.5zM415 -134q0 -37 -24.5 -61.5t-61.5 -24.5t-62.5 24.5t-25.5 61.5t25.5 62.5t62.5 25.5t61.5 -25.5t24.5 -62.5z" />
    <glyph glyph-name="uniFCCA" unicode="&#xfedf;&#xfea4;" horiz-adv-x="736" arabic-form="initial" 
d="M113 0h-153v184l40 36h123q142 0 251 9l63 5q12 1 33 3t29 2l-106 13l-66 9q-93 13 -240 13h-58v195h129q74 0 99 14t25 55v205h206v-177q0 -112 -84 -155l14 -2q93 -13 156 -18q72 -5 125 -5h17l-1 -200h-22q-56 0 -98.5 -13.5t-121.5 -54.5l-83 -43q-86 -44 -142 -59.5
t-135 -15.5z" />
    <glyph glyph-name="uniFCCB" unicode="&#xfedf;&#xfea8;" horiz-adv-x="736" arabic-form="initial" 
d="M113 0h-153v184l40 36h123q142 0 251 9l63 5q12 1 33 3t29 2l-106 13l-66 9q-93 13 -240 13h-58v195h129q74 0 99 14t25 55v205h206v-177q0 -112 -84 -155l14 -2q93 -13 156 -18q72 -5 125 -5h17l-1 -200h-22q-56 0 -98.5 -13.5t-121.5 -54.5l-83 -43q-86 -44 -142 -59.5
t-135 -15.5zM188 605q0 -37 -24.5 -61.5t-61.5 -24.5t-62.5 24.5t-25.5 61.5t25.5 62.5t62.5 25.5t61.5 -25.5t24.5 -62.5z" />
    <glyph glyph-name="uniFCCD" unicode="&#xfedf;&#xfeec;" horiz-adv-x="666" arabic-form="initial" 
d="M651 254q0 -125 -71.5 -196.5t-198.5 -71.5q-108 0 -200 47q-101 -33 -221 -33v184l40 36h25q-10 36 -10 79q0 82 52 137q52 57 136 61v246h206v-205q131 -46 187 -111q55 -64 55 -173zM155 299q0 -41 51 -64q81 16 81 64q0 22 -21 38t-51 16q-27 0 -43.5 -15.5
t-16.5 -38.5zM413 314v-15q0 -49 -18 -93h37q44 0 61.5 8.5t17.5 29.5q0 23 -23.5 39t-74.5 31z" />
    <glyph glyph-name="uniFCFB" unicode="&#xfeb3;&#xfef0;" horiz-adv-x="1600" arabic-form="isolated" 
d="M802 43q0 -143 -114.5 -223.5t-293.5 -80.5q-384 0 -384 341q0 64 14 140h185q-10 -74 -10 -99q0 -78 57.5 -115t177.5 -37q88 0 145 8.5t57 23.5q0 20 -108 35l-91 12q-171 22 -171 175q0 79 54.5 153t140 118.5t174.5 44.5q100 0 167 -44q66 -43 129 -152l38 -65
q22 -37 42 -50t58 -13q37 0 54 21t17 72v27h190v-46q0 -74 35 -74q30 0 30 47q0 57 -20 143h195q15 -88 15 -151q0 -128 -61 -198t-165 -70q-60 0 -111 30q-50 30 -62 84q-7 -54 -47.5 -84t-104.5 -30q-76 0 -125 31t-96 117l-31 57q-40 73 -85 100.5t-132 27.5
q-60 0 -99.5 -9.5t-39.5 -27.5q0 -12 13 -18t50 -11l91 -12q122 -16 172 -60t50 -138z" />
    <glyph glyph-name="uniFCFC" unicode="&#xfeb3;&#xfef2;" horiz-adv-x="1600" arabic-form="isolated" 
d="M802 43q0 -143 -114.5 -223.5t-293.5 -80.5q-384 0 -384 341q0 64 14 140h185q-10 -74 -10 -99q0 -78 57.5 -115t177.5 -37q88 0 145 8.5t57 23.5q0 20 -108 35l-91 12q-171 22 -171 175q0 79 54.5 153t140 118.5t174.5 44.5q100 0 167 -44q66 -43 129 -152l38 -65
q22 -37 42 -50t58 -13q37 0 54 21t17 72v27h190v-46q0 -74 35 -74q30 0 30 47q0 57 -20 143h195q15 -88 15 -151q0 -128 -61 -198t-165 -70q-60 0 -111 30q-50 30 -62 84q-7 -54 -47.5 -84t-104.5 -30q-76 0 -125 31t-96 117l-31 57q-40 73 -85 100.5t-132 27.5
q-60 0 -99.5 -9.5t-39.5 -27.5q0 -12 13 -18t50 -11l91 -12q122 -16 172 -60t50 -138zM578 -395q0 -37 -24.5 -61.5t-61.5 -24.5t-62.5 24.5t-25.5 61.5t25.5 62.5t62.5 25.5t61.5 -25.5t24.5 -62.5zM384 -395q0 -37 -24.5 -61.5t-61.5 -24.5t-62.5 24.5t-25.5 61.5
t25.5 62.5t62.5 25.5t61.5 -25.5t24.5 -62.5z" />
    <glyph glyph-name="uniFCFD" unicode="&#xfeb7;&#xfef0;" horiz-adv-x="1600" arabic-form="isolated" 
d="M1263 594q0 -29 -19.5 -49t-49.5 -20t-50 20t-20 49q0 30 20 50t50 20t49.5 -20t19.5 -50zM802 43q0 -143 -114.5 -223.5t-293.5 -80.5q-384 0 -384 341q0 64 14 140h185q-10 -74 -10 -99q0 -78 57.5 -115t177.5 -37q88 0 145 8.5t57 23.5q0 20 -108 35l-91 12
q-171 22 -171 175q0 79 54.5 153t140 118.5t174.5 44.5q100 0 167 -44q66 -43 129 -152l38 -65q22 -37 42 -50t58 -13q37 0 54 21t17 72v27h190v-46q0 -74 35 -74q30 0 30 47q0 57 -20 143h195q15 -88 15 -151q0 -128 -61 -198t-165 -70q-60 0 -111 30q-50 30 -62 84
q-7 -54 -47.5 -84t-104.5 -30q-76 0 -125 31t-96 117l-31 57q-40 73 -85 100.5t-132 27.5q-60 0 -99.5 -9.5t-39.5 -27.5q0 -12 13 -18t50 -11l91 -12q122 -16 172 -60t50 -138zM1184 454q0 -29 -19.5 -49t-49.5 -20t-50 20t-20 49q0 30 20 50t50 20t49.5 -20t19.5 -50z
M1343 454q0 -29 -19.5 -49t-49.5 -20t-50 20t-20 49q0 30 20 50t50 20t49.5 -20t19.5 -50z" />
    <glyph glyph-name="uniFCFE" unicode="&#xfeb7;&#xfef2;" horiz-adv-x="1600" arabic-form="isolated" 
d="M1263 594q0 -29 -19.5 -49t-49.5 -20t-50 20t-20 49q0 30 20 50t50 20t49.5 -20t19.5 -50zM802 43q0 -143 -114.5 -223.5t-293.5 -80.5q-384 0 -384 341q0 64 14 140h185q-10 -74 -10 -99q0 -78 57.5 -115t177.5 -37q88 0 145 8.5t57 23.5q0 20 -108 35l-91 12
q-171 22 -171 175q0 79 54.5 153t140 118.5t174.5 44.5q100 0 167 -44q66 -43 129 -152l38 -65q22 -37 42 -50t58 -13q37 0 54 21t17 72v27h190v-46q0 -74 35 -74q30 0 30 47q0 57 -20 143h195q15 -88 15 -151q0 -128 -61 -198t-165 -70q-60 0 -111 30q-50 30 -62 84
q-7 -54 -47.5 -84t-104.5 -30q-76 0 -125 31t-96 117l-31 57q-40 73 -85 100.5t-132 27.5q-60 0 -99.5 -9.5t-39.5 -27.5q0 -12 13 -18t50 -11l91 -12q122 -16 172 -60t50 -138zM1184 454q0 -29 -19.5 -49t-49.5 -20t-50 20t-20 49q0 30 20 50t50 20t49.5 -20t19.5 -50z
M1343 454q0 -29 -19.5 -49t-49.5 -20t-50 20t-20 49q0 30 20 50t50 20t49.5 -20t19.5 -50zM578 -395q0 -37 -24.5 -61.5t-61.5 -24.5t-62.5 24.5t-25.5 61.5t25.5 62.5t62.5 25.5t61.5 -25.5t24.5 -62.5zM384 -395q0 -37 -24.5 -61.5t-61.5 -24.5t-62.5 24.5t-25.5 61.5
t25.5 62.5t62.5 25.5t61.5 -25.5t24.5 -62.5z" />
    <glyph glyph-name="uniFCFF" unicode="&#xfea3;&#xfef0;" horiz-adv-x="1206" arabic-form="isolated" 
d="M790 -2q0 -113 -111 -186t-293 -73q-376 0 -376 323q0 64 16 158h185q-11 -64 -11 -108q0 -143 206 -143q227 0 227 42q0 27 -79 27h-35v174l238 73q68 21 98 28l-14 3l-77 15q-51 8 -67 8q-19 0 -32 -10t-16 -28h-160q0 121 55.5 189.5t152.5 68.5q45 0 129 -23l194 -52
q41 -10 71 -15q30 -3 78 -3h17l-1 -200h-10q-42 0 -103.5 -20.5t-197.5 -81.5l-139 -61q55 -33 55 -105z" />
    <glyph glyph-name="uniFD00" unicode="&#xfea3;&#xfef2;" horiz-adv-x="1206" arabic-form="isolated" 
d="M790 -2q0 -113 -111 -186t-293 -73q-376 0 -376 323q0 64 16 158h185q-11 -64 -11 -108q0 -143 206 -143q227 0 227 42q0 27 -79 27h-35v174l238 73q68 21 98 28l-14 3l-77 15q-51 8 -67 8q-19 0 -32 -10t-16 -28h-160q0 121 55.5 189.5t152.5 68.5q45 0 129 -23l194 -52
q41 -10 71 -15q30 -3 78 -3h17l-1 -200h-10q-42 0 -103.5 -20.5t-197.5 -81.5l-139 -61q55 -33 55 -105zM570 -395q0 -37 -24.5 -61.5t-61.5 -24.5t-62.5 24.5t-25.5 61.5t25.5 62.5t62.5 25.5t61.5 -25.5t24.5 -62.5zM376 -395q0 -37 -24.5 -61.5t-61.5 -24.5t-62.5 24.5
t-25.5 61.5t25.5 62.5t62.5 25.5t61.5 -25.5t24.5 -62.5z" />
    <glyph glyph-name="uniFD01" unicode="&#xfe9f;&#xfef0;" horiz-adv-x="1206" arabic-form="isolated" 
d="M790 -2q0 -113 -111 -186t-293 -73q-376 0 -376 323q0 64 16 158h185q-11 -64 -11 -108q0 -143 206 -143q227 0 227 42q0 27 -79 27h-35v174l238 73q68 21 98 28l-14 3l-77 15q-51 8 -67 8q-19 0 -32 -10t-16 -28h-160q0 121 55.5 189.5t152.5 68.5q45 0 129 -23l194 -52
q41 -10 71 -15q30 -3 78 -3h17l-1 -200h-10q-42 0 -103.5 -20.5t-197.5 -81.5l-139 -61q55 -33 55 -105zM1032 -84q0 -37 -24.5 -61.5t-61.5 -24.5t-62.5 24.5t-25.5 61.5t25.5 62.5t62.5 25.5t61.5 -25.5t24.5 -62.5z" />
    <glyph glyph-name="uniFD02" unicode="&#xfe9f;&#xfef2;" horiz-adv-x="1206" arabic-form="isolated" 
d="M790 -2q0 -113 -111 -186t-293 -73q-376 0 -376 323q0 64 16 158h185q-11 -64 -11 -108q0 -143 206 -143q227 0 227 42q0 27 -79 27h-35v174l238 73q68 21 98 28l-14 3l-77 15q-51 8 -67 8q-19 0 -32 -10t-16 -28h-160q0 121 55.5 189.5t152.5 68.5q45 0 129 -23l194 -52
q41 -10 71 -15q30 -3 78 -3h17l-1 -200h-10q-42 0 -103.5 -20.5t-197.5 -81.5l-139 -61q55 -33 55 -105zM1032 -84q0 -37 -24.5 -61.5t-61.5 -24.5t-62.5 24.5t-25.5 61.5t25.5 62.5t62.5 25.5t61.5 -25.5t24.5 -62.5zM570 -395q0 -37 -24.5 -61.5t-61.5 -24.5t-62.5 24.5
t-25.5 61.5t25.5 62.5t62.5 25.5t61.5 -25.5t24.5 -62.5zM376 -395q0 -37 -24.5 -61.5t-61.5 -24.5t-62.5 24.5t-25.5 61.5t25.5 62.5t62.5 25.5t61.5 -25.5t24.5 -62.5z" />
    <glyph glyph-name="uniFD03" unicode="&#xfea7;&#xfef0;" horiz-adv-x="1206" arabic-form="isolated" 
d="M818 675q0 -37 -24.5 -61.5t-61.5 -24.5t-62.5 24.5t-25.5 61.5t25.5 62.5t62.5 25.5t61.5 -25.5t24.5 -62.5zM790 -2q0 -113 -111 -186t-293 -73q-376 0 -376 323q0 64 16 158h185q-11 -64 -11 -108q0 -143 206 -143q227 0 227 42q0 27 -79 27h-35v174l238 73
q68 21 98 28l-14 3l-77 15q-51 8 -67 8q-19 0 -32 -10t-16 -28h-160q0 121 55.5 189.5t152.5 68.5q45 0 129 -23l194 -52q41 -10 71 -15q30 -3 78 -3h17l-1 -200h-10q-42 0 -103.5 -20.5t-197.5 -81.5l-139 -61q55 -33 55 -105z" />
    <glyph glyph-name="uniFD04" unicode="&#xfea7;&#xfef2;" horiz-adv-x="1206" arabic-form="isolated" 
d="M818 675q0 -37 -24.5 -61.5t-61.5 -24.5t-62.5 24.5t-25.5 61.5t25.5 62.5t62.5 25.5t61.5 -25.5t24.5 -62.5zM790 -2q0 -113 -111 -186t-293 -73q-376 0 -376 323q0 64 16 158h185q-11 -64 -11 -108q0 -143 206 -143q227 0 227 42q0 27 -79 27h-35v174l238 73
q68 21 98 28l-14 3l-77 15q-51 8 -67 8q-19 0 -32 -10t-16 -28h-160q0 121 55.5 189.5t152.5 68.5q45 0 129 -23l194 -52q41 -10 71 -15q30 -3 78 -3h17l-1 -200h-10q-42 0 -103.5 -20.5t-197.5 -81.5l-139 -61q55 -33 55 -105zM570 -395q0 -37 -24.5 -61.5t-61.5 -24.5
t-62.5 24.5t-25.5 61.5t25.5 62.5t62.5 25.5t61.5 -25.5t24.5 -62.5zM376 -395q0 -37 -24.5 -61.5t-61.5 -24.5t-62.5 24.5t-25.5 61.5t25.5 62.5t62.5 25.5t61.5 -25.5t24.5 -62.5z" />
    <glyph glyph-name="uniFD05" unicode="&#xfebb;&#xfef0;" horiz-adv-x="1616" arabic-form="isolated" 
d="M802 43q0 -143 -114.5 -223.5t-293.5 -80.5q-384 0 -384 341q0 64 14 140h185q-10 -74 -10 -99q0 -78 57.5 -115t177.5 -37q88 0 145 8.5t57 23.5q0 20 -108 35l-91 12q-171 22 -171 175q0 79 54.5 153t140 118.5t174.5 44.5q51 0 87.5 -10t69.5 -36.5t58.5 -58.5
t65.5 -91l43 -65q4 -8 11 -14q154 275 368 275q112 0 187.5 -76.5t75.5 -190.5q0 -136 -110 -211t-311 -75q-165 0 -238 29.5t-129 118.5l-36 57q-45 73 -87 100.5t-125 27.5q-60 0 -99.5 -9.5t-39.5 -27.5q0 -12 13 -18t50 -11l91 -12q122 -16 172 -60t50 -138zM1334 319
q-134 0 -253 -103q52 -6 139 -6q131 0 186 12.5t55 41.5q0 23 -36.5 39t-90.5 16z" />
    <glyph glyph-name="uniFD06" unicode="&#xfebb;&#xfef2;" horiz-adv-x="1616" arabic-form="isolated" 
d="M802 43q0 -143 -114.5 -223.5t-293.5 -80.5q-384 0 -384 341q0 64 14 140h185q-10 -74 -10 -99q0 -78 57.5 -115t177.5 -37q88 0 145 8.5t57 23.5q0 20 -108 35l-91 12q-171 22 -171 175q0 79 54.5 153t140 118.5t174.5 44.5q51 0 87.5 -10t69.5 -36.5t58.5 -58.5
t65.5 -91l43 -65q4 -8 11 -14q154 275 368 275q112 0 187.5 -76.5t75.5 -190.5q0 -136 -110 -211t-311 -75q-165 0 -238 29.5t-129 118.5l-36 57q-45 73 -87 100.5t-125 27.5q-60 0 -99.5 -9.5t-39.5 -27.5q0 -12 13 -18t50 -11l91 -12q122 -16 172 -60t50 -138zM1334 319
q-134 0 -253 -103q52 -6 139 -6q131 0 186 12.5t55 41.5q0 23 -36.5 39t-90.5 16zM578 -395q0 -37 -24.5 -61.5t-61.5 -24.5t-62.5 24.5t-25.5 61.5t25.5 62.5t62.5 25.5t61.5 -25.5t24.5 -62.5zM384 -395q0 -37 -24.5 -61.5t-61.5 -24.5t-62.5 24.5t-25.5 61.5t25.5 62.5
t62.5 25.5t61.5 -25.5t24.5 -62.5z" />
    <glyph glyph-name="uniFD07" unicode="&#xfebf;&#xfef0;" horiz-adv-x="1616" arabic-form="isolated" 
d="M1419 675q0 -37 -24.5 -61.5t-61.5 -24.5t-62.5 24.5t-25.5 61.5t25.5 62.5t62.5 25.5t61.5 -25.5t24.5 -62.5zM802 43q0 -143 -114.5 -223.5t-293.5 -80.5q-384 0 -384 341q0 64 14 140h185q-10 -74 -10 -99q0 -78 57.5 -115t177.5 -37q88 0 145 8.5t57 23.5
q0 20 -108 35l-91 12q-171 22 -171 175q0 79 54.5 153t140 118.5t174.5 44.5q51 0 87.5 -10t69.5 -36.5t58.5 -58.5t65.5 -91l43 -65q4 -8 11 -14q154 275 368 275q112 0 187.5 -76.5t75.5 -190.5q0 -136 -110 -211t-311 -75q-165 0 -238 29.5t-129 118.5l-36 57
q-45 73 -87 100.5t-125 27.5q-60 0 -99.5 -9.5t-39.5 -27.5q0 -12 13 -18t50 -11l91 -12q122 -16 172 -60t50 -138zM1334 319q-134 0 -253 -103q52 -6 139 -6q131 0 186 12.5t55 41.5q0 23 -36.5 39t-90.5 16z" />
    <glyph glyph-name="uniFD08" unicode="&#xfebf;&#xfef2;" horiz-adv-x="1616" arabic-form="isolated" 
d="M1419 675q0 -37 -24.5 -61.5t-61.5 -24.5t-62.5 24.5t-25.5 61.5t25.5 62.5t62.5 25.5t61.5 -25.5t24.5 -62.5zM802 43q0 -143 -114.5 -223.5t-293.5 -80.5q-384 0 -384 341q0 64 14 140h185q-10 -74 -10 -99q0 -78 57.5 -115t177.5 -37q88 0 145 8.5t57 23.5
q0 20 -108 35l-91 12q-171 22 -171 175q0 79 54.5 153t140 118.5t174.5 44.5q51 0 87.5 -10t69.5 -36.5t58.5 -58.5t65.5 -91l43 -65q4 -8 11 -14q154 275 368 275q112 0 187.5 -76.5t75.5 -190.5q0 -136 -110 -211t-311 -75q-165 0 -238 29.5t-129 118.5l-36 57
q-45 73 -87 100.5t-125 27.5q-60 0 -99.5 -9.5t-39.5 -27.5q0 -12 13 -18t50 -11l91 -12q122 -16 172 -60t50 -138zM1334 319q-134 0 -253 -103q52 -6 139 -6q131 0 186 12.5t55 41.5q0 23 -36.5 39t-90.5 16zM578 -395q0 -37 -24.5 -61.5t-61.5 -24.5t-62.5 24.5
t-25.5 61.5t25.5 62.5t62.5 25.5t61.5 -25.5t24.5 -62.5zM384 -395q0 -37 -24.5 -61.5t-61.5 -24.5t-62.5 24.5t-25.5 61.5t25.5 62.5t62.5 25.5t61.5 -25.5t24.5 -62.5z" />
    <glyph glyph-name="uniFD0D" unicode="&#xfeb7;&#xfeae;" horiz-adv-x="1135" arabic-form="isolated" 
d="M811 594q0 -29 -19.5 -49t-49.5 -20t-50 20t-20 49q0 30 20 50t50 20t49.5 -20t19.5 -50zM732 454q0 -29 -19.5 -49t-49.5 -20t-50 20t-20 49q0 30 20 50t50 20t49.5 -20t19.5 -50zM891 454q0 -29 -19.5 -49t-49.5 -20t-50 20t-20 49q0 30 20 50t50 20t49.5 -20t19.5 -50
zM318 125q0 -193 -69.5 -284.5t-216.5 -91.5q-48 0 -92 4v223q49 -7 88 -7q59 0 82 33t23 114q0 36 -10 138l-14 116l480 35l12 -116q4 -43 11.5 -58.5t27.5 -15.5q35 0 35 74v46h190v-46q0 -74 35 -74q30 0 30 47q0 59 -30 143h195q25 -78 25 -151q0 -128 -61 -198
t-165 -70q-60 0 -110 29q-50 30 -62 84q-7 -54 -40 -83.5t-86 -29.5q-73 0 -111.5 42.5t-57.5 144.5l-110 -8q1 -13 1 -40z" />
    <glyph glyph-name="uniFD0E" unicode="&#xfeb3;&#xfeae;" horiz-adv-x="1135" arabic-form="isolated" 
d="M318 125q0 -193 -69.5 -284.5t-216.5 -91.5q-48 0 -92 4v223q49 -7 88 -7q59 0 82 33t23 114q0 36 -10 138l-14 116l480 35l12 -116q4 -43 11.5 -58.5t27.5 -15.5q35 0 35 74v46h190v-46q0 -74 35 -74q30 0 30 47q0 59 -30 143h195q25 -78 25 -151q0 -128 -61 -198
t-165 -70q-60 0 -110 29q-50 30 -62 84q-7 -54 -40 -83.5t-86 -29.5q-73 0 -111.5 42.5t-57.5 144.5l-110 -8q1 -13 1 -40z" />
    <glyph glyph-name="uniFD0F" unicode="&#xfebb;&#xfeae;" horiz-adv-x="1270" arabic-form="isolated" 
d="M318 125q0 -193 -69.5 -284.5t-216.5 -91.5q-48 0 -92 4v223q49 -7 88 -7q59 0 82 33t23 114q0 36 -10 138l-18 151l480 35l16 -151q1 -7 1 -19q90 138 184.5 203.5t205.5 65.5q112 0 187.5 -76.5t75.5 -190.5q0 -286 -504 -286q-160 0 -231 47t-97 176l-108 -8
q3 -75 3 -76zM988 319q-146 0 -292 -112q17 -1 60 -1q147 0 224 6t106 17.5t29 34.5t-36.5 39t-90.5 16z" />
    <glyph glyph-name="uniFD10" unicode="&#xfebf;&#xfeae;" horiz-adv-x="1270" arabic-form="isolated" 
d="M1063 675q0 -37 -24.5 -61.5t-61.5 -24.5t-62.5 24.5t-25.5 61.5t25.5 62.5t62.5 25.5t61.5 -25.5t24.5 -62.5zM318 125q0 -193 -69.5 -284.5t-216.5 -91.5q-48 0 -92 4v223q49 -7 88 -7q59 0 82 33t23 114q0 36 -10 138l-18 151l480 35l16 -151q1 -7 1 -19
q90 138 184.5 203.5t205.5 65.5q112 0 187.5 -76.5t75.5 -190.5q0 -286 -504 -286q-160 0 -231 47t-97 176l-108 -8q3 -75 3 -76zM988 319q-146 0 -292 -112q17 -1 60 -1q147 0 224 6t106 17.5t29 34.5t-36.5 39t-90.5 16z" />
    <glyph glyph-name="uniFD13" unicode="&#xfecc;&#xfef0;" horiz-adv-x="1213" arabic-form="final" 
d="M791 -44q0 -92 -116.5 -154.5t-287.5 -62.5q-190 0 -283.5 85t-92.5 256q0 66 18 140h185q-9 -67 -9 -99q0 -152 202 -152q227 0 227 39q0 8 -18 16q-19 8 -82 8h-14v188h141l-50 56v200q141 33 265 33q143 0 205 -35q62 -34 64 -125q0 -68 -48 -130l117 1v-180l-40 -40
h-25q-167 0 -299 68q-53 -16 -118 -22q59 -26 59 -90zM876 309q-53 0 -113 -5q75 -63 145 -77q109 14 109 46q0 20 -33.5 28t-107.5 8z" />
    <glyph glyph-name="uniFD14" unicode="&#xfecc;&#xfef2;" horiz-adv-x="1213" arabic-form="final" 
d="M791 -44q0 -92 -116.5 -154.5t-287.5 -62.5q-190 0 -283.5 85t-92.5 256q0 66 18 140h185q-9 -67 -9 -99q0 -152 202 -152q227 0 227 39q0 8 -18 16q-19 8 -82 8h-14v188h141l-50 56v200q141 33 265 33q143 0 205 -35q62 -34 64 -125q0 -68 -48 -130l117 1v-180l-40 -40
h-25q-167 0 -299 68q-53 -16 -118 -22q59 -26 59 -90zM876 309q-53 0 -113 -5q75 -63 145 -77q109 14 109 46q0 20 -33.5 28t-107.5 8zM591 -395q0 -37 -24.5 -61.5t-61.5 -24.5t-62.5 24.5t-25.5 61.5t25.5 62.5t62.5 25.5t61.5 -25.5t24.5 -62.5zM397 -395
q0 -37 -24.5 -61.5t-61.5 -24.5t-62.5 24.5t-25.5 61.5t25.5 62.5t62.5 25.5t61.5 -25.5t24.5 -62.5z" />
    <glyph glyph-name="uniFD15" unicode="&#xfed0;&#xfef0;" horiz-adv-x="1213" arabic-form="final" 
d="M977 646q0 -37 -24.5 -61.5t-61.5 -24.5t-62.5 24.5t-25.5 61.5t25.5 62.5t62.5 25.5t61.5 -25.5t24.5 -62.5zM791 -44q0 -92 -116.5 -154.5t-287.5 -62.5q-190 0 -283.5 85t-92.5 256q0 66 18 140h185q-9 -67 -9 -99q0 -152 202 -152q227 0 227 39q0 8 -18 16
q-19 8 -82 8h-14v188h141l-50 56v200q141 33 265 33q143 0 205 -35q62 -34 64 -125q0 -68 -48 -130l117 1v-180l-40 -40h-25q-167 0 -299 68q-53 -16 -118 -22q59 -26 59 -90zM876 309q-53 0 -113 -5q75 -63 145 -77q109 14 109 46q0 20 -33.5 28t-107.5 8z" />
    <glyph glyph-name="uniFD16" unicode="&#xfed0;&#xfef2;" horiz-adv-x="1213" arabic-form="final" 
d="M977 646q0 -37 -24.5 -61.5t-61.5 -24.5t-62.5 24.5t-25.5 61.5t25.5 62.5t62.5 25.5t61.5 -25.5t24.5 -62.5zM791 -44q0 -92 -116.5 -154.5t-287.5 -62.5q-190 0 -283.5 85t-92.5 256q0 66 18 140h185q-9 -67 -9 -99q0 -152 202 -152q227 0 227 39q0 8 -18 16
q-19 8 -82 8h-14v188h141l-50 56v200q141 33 265 33q143 0 205 -35q62 -34 64 -125q0 -68 -48 -130l117 1v-180l-40 -40h-25q-167 0 -299 68q-53 -16 -118 -22q59 -26 59 -90zM876 309q-53 0 -113 -5q75 -63 145 -77q109 14 109 46q0 20 -33.5 28t-107.5 8zM591 -395
q0 -37 -24.5 -61.5t-61.5 -24.5t-62.5 24.5t-25.5 61.5t25.5 62.5t62.5 25.5t61.5 -25.5t24.5 -62.5zM397 -395q0 -37 -24.5 -61.5t-61.5 -24.5t-62.5 24.5t-25.5 61.5t25.5 62.5t62.5 25.5t61.5 -25.5t24.5 -62.5z" />
    <glyph glyph-name="uniFD17" unicode="&#xfeb4;&#xfef0;" horiz-adv-x="1656" arabic-form="final" 
d="M931 343l38 -65q22 -37 42 -50t58 -13q37 0 54 21t17 72v27h190v-46q0 -74 35 -74t35 74v81h190v-81q0 -38 14.5 -53.5t51.5 -15.5v-180l-40 -40q-71 0 -115 34t-55 95q-7 -68 -41 -105.5t-90 -37.5q-50 0 -85 29.5t-44 81.5q-9 -53 -49 -82t-103 -29q-76 0 -125 31
t-96 117l-31 57q-40 73 -85 100.5t-132 27.5q-60 0 -99.5 -9.5t-39.5 -27.5q0 -12 13 -18t50 -11l91 -12q122 -16 172 -60t50 -138q0 -143 -114.5 -223.5t-293.5 -80.5q-384 0 -384 341q0 64 14 140h185q-10 -74 -10 -99q0 -78 57.5 -115t177.5 -37q88 0 145 8.5t57 23.5
q0 20 -108 35l-91 12q-171 22 -171 175q0 79 54.5 153t140 118.5t174.5 44.5q100 0 167 -44q66 -43 129 -152z" />
    <glyph glyph-name="uniFD18" unicode="&#xfeb4;&#xfef2;" horiz-adv-x="1656" arabic-form="final" 
d="M931 343l38 -65q22 -37 42 -50t58 -13q37 0 54 21t17 72v27h190v-46q0 -74 35 -74t35 74v81h190v-81q0 -38 14.5 -53.5t51.5 -15.5v-180l-40 -40q-71 0 -115 34t-55 95q-7 -68 -41 -105.5t-90 -37.5q-50 0 -85 29.5t-44 81.5q-9 -53 -49 -82t-103 -29q-76 0 -125 31
t-96 117l-31 57q-40 73 -85 100.5t-132 27.5q-60 0 -99.5 -9.5t-39.5 -27.5q0 -12 13 -18t50 -11l91 -12q122 -16 172 -60t50 -138q0 -143 -114.5 -223.5t-293.5 -80.5q-384 0 -384 341q0 64 14 140h185q-10 -74 -10 -99q0 -78 57.5 -115t177.5 -37q88 0 145 8.5t57 23.5
q0 20 -108 35l-91 12q-171 22 -171 175q0 79 54.5 153t140 118.5t174.5 44.5q100 0 167 -44q66 -43 129 -152zM578 -395q0 -37 -24.5 -61.5t-61.5 -24.5t-62.5 24.5t-25.5 61.5t25.5 62.5t62.5 25.5t61.5 -25.5t24.5 -62.5zM384 -395q0 -37 -24.5 -61.5t-61.5 -24.5
t-62.5 24.5t-25.5 61.5t25.5 62.5t62.5 25.5t61.5 -25.5t24.5 -62.5z" />
    <glyph glyph-name="uniFD19" unicode="&#xfeb8;&#xfef0;" horiz-adv-x="1656" arabic-form="final" 
d="M1297 594q0 -29 -19.5 -49t-49.5 -20t-50 20t-20 49q0 30 20 50t50 20t49.5 -20t19.5 -50zM931 343l38 -65q22 -37 42 -50t58 -13q37 0 54 21t17 72v27h190v-46q0 -74 35 -74t35 74v81h190v-81q0 -38 14.5 -53.5t51.5 -15.5v-180l-40 -40q-71 0 -115 34t-55 95
q-7 -68 -41 -105.5t-90 -37.5q-50 0 -85 29.5t-44 81.5q-9 -53 -49 -82t-103 -29q-76 0 -125 31t-96 117l-31 57q-40 73 -85 100.5t-132 27.5q-60 0 -99.5 -9.5t-39.5 -27.5q0 -12 13 -18t50 -11l91 -12q122 -16 172 -60t50 -138q0 -143 -114.5 -223.5t-293.5 -80.5
q-384 0 -384 341q0 64 14 140h185q-10 -74 -10 -99q0 -78 57.5 -115t177.5 -37q88 0 145 8.5t57 23.5q0 20 -108 35l-91 12q-171 22 -171 175q0 79 54.5 153t140 118.5t174.5 44.5q100 0 167 -44q66 -43 129 -152zM1218 454q0 -29 -19.5 -49t-49.5 -20t-50 20t-20 49
q0 30 20 50t50 20t49.5 -20t19.5 -50zM1377 454q0 -29 -19.5 -49t-49.5 -20t-50 20t-20 49q0 30 20 50t50 20t49.5 -20t19.5 -50z" />
    <glyph glyph-name="uniFD1A" unicode="&#xfeb8;&#xfef2;" horiz-adv-x="1656" arabic-form="final" 
d="M1297 594q0 -29 -19.5 -49t-49.5 -20t-50 20t-20 49q0 30 20 50t50 20t49.5 -20t19.5 -50zM931 343l38 -65q22 -37 42 -50t58 -13q37 0 54 21t17 72v27h190v-46q0 -74 35 -74t35 74v81h190v-81q0 -38 14.5 -53.5t51.5 -15.5v-180l-40 -40q-71 0 -115 34t-55 95
q-7 -68 -41 -105.5t-90 -37.5q-50 0 -85 29.5t-44 81.5q-9 -53 -49 -82t-103 -29q-76 0 -125 31t-96 117l-31 57q-40 73 -85 100.5t-132 27.5q-60 0 -99.5 -9.5t-39.5 -27.5q0 -12 13 -18t50 -11l91 -12q122 -16 172 -60t50 -138q0 -143 -114.5 -223.5t-293.5 -80.5
q-384 0 -384 341q0 64 14 140h185q-10 -74 -10 -99q0 -78 57.5 -115t177.5 -37q88 0 145 8.5t57 23.5q0 20 -108 35l-91 12q-171 22 -171 175q0 79 54.5 153t140 118.5t174.5 44.5q100 0 167 -44q66 -43 129 -152zM1218 454q0 -29 -19.5 -49t-49.5 -20t-50 20t-20 49
q0 30 20 50t50 20t49.5 -20t19.5 -50zM1377 454q0 -29 -19.5 -49t-49.5 -20t-50 20t-20 49q0 30 20 50t50 20t49.5 -20t19.5 -50zM578 -395q0 -37 -24.5 -61.5t-61.5 -24.5t-62.5 24.5t-25.5 61.5t25.5 62.5t62.5 25.5t61.5 -25.5t24.5 -62.5zM384 -395q0 -37 -24.5 -61.5
t-61.5 -24.5t-62.5 24.5t-25.5 61.5t25.5 62.5t62.5 25.5t61.5 -25.5t24.5 -62.5z" />
    <glyph glyph-name="uniFD1B" unicode="&#xfea4;&#xfef0;" horiz-adv-x="1213" arabic-form="final" 
d="M790 -2q0 -113 -111 -186t-293 -73q-376 0 -376 323q0 64 16 158h185q-11 -64 -11 -108q0 -143 206 -143q227 0 227 42q0 27 -79 27h-35v174l238 73q68 21 98 28l-14 3l-77 15q-51 8 -67 8q-19 0 -32 -10t-16 -28h-160q0 121 55.5 189.5t152.5 68.5q45 0 129 -23l194 -52
q41 -10 71 -15q30 -3 78 -3h17l-1 -200h-10q-34 0 -75 -12q2 -20 25.5 -27t87.5 -7v-177l-40 -43q-95 0 -148.5 54.5t-58.5 149.5q-15 -6 -47 -20l-45 -20l-139 -61q55 -33 55 -105z" />
    <glyph glyph-name="uniFD1C" unicode="&#xfea4;&#xfef2;" horiz-adv-x="1213" arabic-form="final" 
d="M790 -2q0 -113 -111 -186t-293 -73q-376 0 -376 323q0 64 16 158h185q-11 -64 -11 -108q0 -143 206 -143q227 0 227 42q0 27 -79 27h-35v174l238 73q68 21 98 28l-14 3l-77 15q-51 8 -67 8q-19 0 -32 -10t-16 -28h-160q0 121 55.5 189.5t152.5 68.5q45 0 129 -23l194 -52
q41 -10 71 -15q30 -3 78 -3h17l-1 -200h-10q-34 0 -75 -12q2 -20 25.5 -27t87.5 -7v-177l-40 -43q-95 0 -148.5 54.5t-58.5 149.5q-15 -6 -47 -20l-45 -20l-139 -61q55 -33 55 -105zM570 -395q0 -37 -24.5 -61.5t-61.5 -24.5t-62.5 24.5t-25.5 61.5t25.5 62.5t62.5 25.5
t61.5 -25.5t24.5 -62.5zM376 -395q0 -37 -24.5 -61.5t-61.5 -24.5t-62.5 24.5t-25.5 61.5t25.5 62.5t62.5 25.5t61.5 -25.5t24.5 -62.5z" />
    <glyph glyph-name="uniFD1D" unicode="&#xfea0;&#xfef0;" horiz-adv-x="1213" arabic-form="final" 
d="M790 -2q0 -113 -111 -186t-293 -73q-376 0 -376 323q0 64 16 158h185q-11 -64 -11 -108q0 -143 206 -143q227 0 227 42q0 27 -79 27h-35v174l238 73q68 21 98 28l-14 3l-77 15q-51 8 -67 8q-19 0 -32 -10t-16 -28h-160q0 121 55.5 189.5t152.5 68.5q45 0 129 -23l194 -52
q41 -10 71 -15q30 -3 78 -3h17l-1 -200h-10q-34 0 -75 -12q2 -20 25.5 -27t87.5 -7v-177l-40 -43q-95 0 -148.5 54.5t-58.5 149.5q-15 -6 -47 -20l-45 -20l-139 -61q55 -33 55 -105zM1032 -84q0 -37 -24.5 -61.5t-61.5 -24.5t-62.5 24.5t-25.5 61.5t25.5 62.5t62.5 25.5
t61.5 -25.5t24.5 -62.5z" />
    <glyph glyph-name="uniFD1E" unicode="&#xfea0;&#xfef2;" horiz-adv-x="1213" arabic-form="final" 
d="M790 -2q0 -113 -111 -186t-293 -73q-376 0 -376 323q0 64 16 158h185q-11 -64 -11 -108q0 -143 206 -143q227 0 227 42q0 27 -79 27h-35v174l238 73q68 21 98 28l-14 3l-77 15q-51 8 -67 8q-19 0 -32 -10t-16 -28h-160q0 121 55.5 189.5t152.5 68.5q45 0 129 -23l194 -52
q41 -10 71 -15q30 -3 78 -3h17l-1 -200h-10q-34 0 -75 -12q2 -20 25.5 -27t87.5 -7v-177l-40 -43q-95 0 -148.5 54.5t-58.5 149.5q-15 -6 -47 -20l-45 -20l-139 -61q55 -33 55 -105zM1032 -84q0 -37 -24.5 -61.5t-61.5 -24.5t-62.5 24.5t-25.5 61.5t25.5 62.5t62.5 25.5
t61.5 -25.5t24.5 -62.5zM570 -395q0 -37 -24.5 -61.5t-61.5 -24.5t-62.5 24.5t-25.5 61.5t25.5 62.5t62.5 25.5t61.5 -25.5t24.5 -62.5zM376 -395q0 -37 -24.5 -61.5t-61.5 -24.5t-62.5 24.5t-25.5 61.5t25.5 62.5t62.5 25.5t61.5 -25.5t24.5 -62.5z" />
    <glyph glyph-name="uniFD1F" unicode="&#xfea8;&#xfef0;" horiz-adv-x="1213" arabic-form="final" 
d="M818 675q0 -37 -24.5 -61.5t-61.5 -24.5t-62.5 24.5t-25.5 61.5t25.5 62.5t62.5 25.5t61.5 -25.5t24.5 -62.5zM790 -2q0 -113 -111 -186t-293 -73q-376 0 -376 323q0 64 16 158h185q-11 -64 -11 -108q0 -143 206 -143q227 0 227 42q0 27 -79 27h-35v174l238 73
q68 21 98 28l-14 3l-77 15q-51 8 -67 8q-19 0 -32 -10t-16 -28h-160q0 121 55.5 189.5t152.5 68.5q45 0 129 -23l194 -52q41 -10 71 -15q30 -3 78 -3h17l-1 -200h-10q-34 0 -75 -12q2 -20 25.5 -27t87.5 -7v-177l-40 -43q-95 0 -148.5 54.5t-58.5 149.5q-15 -6 -47 -20
l-45 -20l-139 -61q55 -33 55 -105z" />
    <glyph glyph-name="uniFD20" unicode="&#xfea8;&#xfef2;" horiz-adv-x="1213" arabic-form="final" 
d="M818 675q0 -37 -24.5 -61.5t-61.5 -24.5t-62.5 24.5t-25.5 61.5t25.5 62.5t62.5 25.5t61.5 -25.5t24.5 -62.5zM790 -2q0 -113 -111 -186t-293 -73q-376 0 -376 323q0 64 16 158h185q-11 -64 -11 -108q0 -143 206 -143q227 0 227 42q0 27 -79 27h-35v174l238 73
q68 21 98 28l-14 3l-77 15q-51 8 -67 8q-19 0 -32 -10t-16 -28h-160q0 121 55.5 189.5t152.5 68.5q45 0 129 -23l194 -52q41 -10 71 -15q30 -3 78 -3h17l-1 -200h-10q-34 0 -75 -12q2 -20 25.5 -27t87.5 -7v-177l-40 -43q-95 0 -148.5 54.5t-58.5 149.5q-15 -6 -47 -20
l-45 -20l-139 -61q55 -33 55 -105zM570 -395q0 -37 -24.5 -61.5t-61.5 -24.5t-62.5 24.5t-25.5 61.5t25.5 62.5t62.5 25.5t61.5 -25.5t24.5 -62.5zM376 -395q0 -37 -24.5 -61.5t-61.5 -24.5t-62.5 24.5t-25.5 61.5t25.5 62.5t62.5 25.5t61.5 -25.5t24.5 -62.5z" />
    <glyph glyph-name="uniFD21" unicode="&#xfebc;&#xfef0;" horiz-adv-x="1688" arabic-form="final" 
d="M802 43q0 -143 -114.5 -223.5t-293.5 -80.5q-384 0 -384 341q0 64 14 140h185q-10 -74 -10 -99q0 -78 57.5 -115t177.5 -37q88 0 145 8.5t57 23.5q0 20 -108 35l-91 12q-171 22 -171 175q0 79 54.5 153t140 118.5t174.5 44.5q51 0 87.5 -10t69.5 -36.5t58.5 -58.5
t65.5 -91l43 -65q4 -8 11 -14q154 275 368 275q112 0 187.5 -76.5t75.5 -190.5q0 -13 -2 -39q27 -13 89 -13v-177l-40 -43q-97 0 -140 72q-109 -86 -328 -86q-165 0 -238 29.5t-129 118.5l-36 57q-45 73 -87 100.5t-125 27.5q-60 0 -99.5 -9.5t-39.5 -27.5q0 -12 13 -18
t50 -11l91 -12q122 -16 172 -60t50 -138zM1334 319q-134 0 -253 -103q52 -6 139 -6q131 0 186 12.5t55 41.5q0 23 -36.5 39t-90.5 16z" />
    <glyph glyph-name="uniFD22" unicode="&#xfebc;&#xfef2;" horiz-adv-x="1688" arabic-form="final" 
d="M802 43q0 -143 -114.5 -223.5t-293.5 -80.5q-384 0 -384 341q0 64 14 140h185q-10 -74 -10 -99q0 -78 57.5 -115t177.5 -37q88 0 145 8.5t57 23.5q0 20 -108 35l-91 12q-171 22 -171 175q0 79 54.5 153t140 118.5t174.5 44.5q51 0 87.5 -10t69.5 -36.5t58.5 -58.5
t65.5 -91l43 -65q4 -8 11 -14q154 275 368 275q112 0 187.5 -76.5t75.5 -190.5q0 -13 -2 -39q27 -13 89 -13v-177l-40 -43q-97 0 -140 72q-109 -86 -328 -86q-165 0 -238 29.5t-129 118.5l-36 57q-45 73 -87 100.5t-125 27.5q-60 0 -99.5 -9.5t-39.5 -27.5q0 -12 13 -18
t50 -11l91 -12q122 -16 172 -60t50 -138zM1334 319q-134 0 -253 -103q52 -6 139 -6q131 0 186 12.5t55 41.5q0 23 -36.5 39t-90.5 16zM578 -395q0 -37 -24.5 -61.5t-61.5 -24.5t-62.5 24.5t-25.5 61.5t25.5 62.5t62.5 25.5t61.5 -25.5t24.5 -62.5zM384 -395
q0 -37 -24.5 -61.5t-61.5 -24.5t-62.5 24.5t-25.5 61.5t25.5 62.5t62.5 25.5t61.5 -25.5t24.5 -62.5z" />
    <glyph glyph-name="uniFD23" unicode="&#xfec0;&#xfef0;" horiz-adv-x="1688" arabic-form="final" 
d="M1419 675q0 -37 -24.5 -61.5t-61.5 -24.5t-62.5 24.5t-25.5 61.5t25.5 62.5t62.5 25.5t61.5 -25.5t24.5 -62.5zM802 43q0 -143 -114.5 -223.5t-293.5 -80.5q-384 0 -384 341q0 64 14 140h185q-10 -74 -10 -99q0 -78 57.5 -115t177.5 -37q88 0 145 8.5t57 23.5
q0 20 -108 35l-91 12q-171 22 -171 175q0 79 54.5 153t140 118.5t174.5 44.5q51 0 87.5 -10t69.5 -36.5t58.5 -58.5t65.5 -91l43 -65q4 -8 11 -14q154 275 368 275q112 0 187.5 -76.5t75.5 -190.5q0 -13 -2 -39q27 -13 89 -13v-177l-40 -43q-97 0 -140 72q-109 -86 -328 -86
q-165 0 -238 29.5t-129 118.5l-36 57q-45 73 -87 100.5t-125 27.5q-60 0 -99.5 -9.5t-39.5 -27.5q0 -12 13 -18t50 -11l91 -12q122 -16 172 -60t50 -138zM1334 319q-134 0 -253 -103q52 -6 139 -6q131 0 186 12.5t55 41.5q0 23 -36.5 39t-90.5 16z" />
    <glyph glyph-name="uniFD24" unicode="&#xfec0;&#xfef2;" horiz-adv-x="1688" arabic-form="final" 
d="M1419 675q0 -37 -24.5 -61.5t-61.5 -24.5t-62.5 24.5t-25.5 61.5t25.5 62.5t62.5 25.5t61.5 -25.5t24.5 -62.5zM802 43q0 -143 -114.5 -223.5t-293.5 -80.5q-384 0 -384 341q0 64 14 140h185q-10 -74 -10 -99q0 -78 57.5 -115t177.5 -37q88 0 145 8.5t57 23.5
q0 20 -108 35l-91 12q-171 22 -171 175q0 79 54.5 153t140 118.5t174.5 44.5q51 0 87.5 -10t69.5 -36.5t58.5 -58.5t65.5 -91l43 -65q4 -8 11 -14q154 275 368 275q112 0 187.5 -76.5t75.5 -190.5q0 -13 -2 -39q27 -13 89 -13v-177l-40 -43q-97 0 -140 72q-109 -86 -328 -86
q-165 0 -238 29.5t-129 118.5l-36 57q-45 73 -87 100.5t-125 27.5q-60 0 -99.5 -9.5t-39.5 -27.5q0 -12 13 -18t50 -11l91 -12q122 -16 172 -60t50 -138zM1334 319q-134 0 -253 -103q52 -6 139 -6q131 0 186 12.5t55 41.5q0 23 -36.5 39t-90.5 16zM578 -395
q0 -37 -24.5 -61.5t-61.5 -24.5t-62.5 24.5t-25.5 61.5t25.5 62.5t62.5 25.5t61.5 -25.5t24.5 -62.5zM384 -395q0 -37 -24.5 -61.5t-61.5 -24.5t-62.5 24.5t-25.5 61.5t25.5 62.5t62.5 25.5t61.5 -25.5t24.5 -62.5z" />
    <glyph glyph-name="uniFD29" unicode="&#xfeb8;&#xfeae;" horiz-adv-x="1191" arabic-form="final" 
d="M834 594q0 -29 -19.5 -49t-49.5 -20t-50 20t-20 49q0 30 20 50t50 20t49.5 -20t19.5 -50zM755 454q0 -29 -19.5 -49t-49.5 -20t-50 20t-20 49q0 30 20 50t50 20t49.5 -20t19.5 -50zM914 454q0 -29 -19.5 -49t-49.5 -20t-50 20t-20 49q0 30 20 50t50 20t49.5 -20t19.5 -50
zM318 125q0 -193 -69.5 -284.5t-216.5 -91.5q-48 0 -92 4v223q49 -7 88 -7q59 0 82 33t23 114q0 36 -10 138l-14 116l480 35l12 -116q4 -43 11.5 -58.5t27.5 -15.5q35 0 35 74v46h190v-46q0 -74 35 -74t35 74v81h190v-81q0 -38 14.5 -53.5t51.5 -15.5v-180l-40 -40
q-71 0 -115 34t-55 95q-7 -68 -41 -105.5t-90 -37.5q-49 0 -84 29t-45 80q-7 -51 -40.5 -80t-84.5 -29q-73 0 -111.5 42.5t-57.5 144.5l-110 -8q1 -13 1 -40z" />
    <glyph glyph-name="uniFD2A" unicode="&#xfeb4;&#xfeae;" horiz-adv-x="1191" arabic-form="final" 
d="M318 125q0 -193 -69.5 -284.5t-216.5 -91.5q-48 0 -92 4v223q49 -7 88 -7q59 0 82 33t23 114q0 36 -10 138l-14 116l480 35l12 -116q4 -43 11.5 -58.5t27.5 -15.5q35 0 35 74v46h190v-46q0 -74 35 -74t35 74v81h190v-81q0 -38 14.5 -53.5t51.5 -15.5v-180l-40 -40
q-71 0 -115 34t-55 95q-7 -68 -41 -105.5t-90 -37.5q-49 0 -84 29t-45 80q-7 -51 -40.5 -80t-84.5 -29q-73 0 -111.5 42.5t-57.5 144.5l-110 -8q1 -13 1 -40z" />
    <glyph glyph-name="uniFD2B" unicode="&#xfebc;&#xfeae;" horiz-adv-x="1372" arabic-form="final" 
d="M318 125q0 -193 -69.5 -284.5t-216.5 -91.5q-48 0 -92 4v223q49 -7 88 -7q59 0 82 33t23 114q0 36 -10 138l-18 151l480 35l16 -151q1 -7 1 -19q90 138 184.5 203.5t205.5 65.5q112 0 187.5 -76.5t75.5 -190.5v-17l3 -3q19 -19 42 -25.5t72 -6.5v-177l-40 -43
q-108 0 -151 93q-118 -107 -430 -107q-160 0 -231 47t-97 176l-108 -8q3 -75 3 -76zM988 319q-146 0 -292 -112q17 -1 60 -1q147 0 224 6t106 17.5t29 34.5t-36.5 39t-90.5 16z" />
    <glyph glyph-name="uniFD2C" unicode="&#xfec0;&#xfeae;" horiz-adv-x="1372" arabic-form="final" 
d="M1063 675q0 -37 -24.5 -61.5t-61.5 -24.5t-62.5 24.5t-25.5 61.5t25.5 62.5t62.5 25.5t61.5 -25.5t24.5 -62.5zM318 125q0 -193 -69.5 -284.5t-216.5 -91.5q-48 0 -92 4v223q49 -7 88 -7q59 0 82 33t23 114q0 36 -10 138l-18 151l480 35l16 -151q1 -7 1 -19
q90 138 184.5 203.5t205.5 65.5q112 0 187.5 -76.5t75.5 -190.5v-17l3 -3q19 -19 42 -25.5t72 -6.5v-177l-40 -43q-108 0 -151 93q-118 -107 -430 -107q-160 0 -231 47t-97 176l-108 -8q3 -75 3 -76zM988 319q-146 0 -292 -112q17 -1 60 -1q147 0 224 6t106 17.5t29 34.5
t-36.5 39t-90.5 16z" />
    <glyph glyph-name="uniFDF2" unicode="&#x627;&#xfedf;&#xfee0;&#xfeea;" horiz-adv-x="1535" arabic-form="isolated" 
d="M809 1141v-181h-75v181h75zM831 747q-51 0 -68 47q-13 -65 -58 -65q-73 0 -73 103q0 32 7 60l71 6q0 -6 -1.5 -19.5t-1.5 -17.5q0 -16 15 -16q10 0 13 12.5t3 47.5l67 6q0 -48 17 -48q16 0 16 20q0 8 -2 38l71 6q4 -23 4 -54q0 -126 -80 -126zM1495 743v-743h-206v743
h206zM1209 713v-424q0 -150 -63 -219.5t-206 -69.5q-212 0 -235 147q-18 -147 -161 -147q-82 0 -124.5 37.5t-57.5 118.5q-36 -127 -165 -127q-88 0 -137.5 55.5t-49.5 154.5q0 157 173 231l150 65v92h206v-341q0 -37 14.5 -51.5t50.5 -14.5t50.5 14.5t14.5 51.5v384h206
v-384q0 -37 14.5 -51.5t50.5 -14.5q34 0 48.5 15t14.5 51v427h206zM150 279q0 -30 78 -30q105 0 105 74v37l-138 -45q-45 -14 -45 -36z" />
    <glyph glyph-name="uniFEF5" unicode="&#xfedf;&#xfe82;" horiz-adv-x="613" arabic-form="isolated" 
d="M104 700h-76q0 143 108 143q27 0 73.5 -8.5t70.5 -8.5q30 0 57 7v-107q-24 -10 -60 -10q-45 0 -75 8q-28 9 -66 9q-32 0 -32 -33zM372 0h-355v217l189 159l-240 127l102 184l269 -144q7 29 7 73v127h206v-127q0 -94 -57 -162q54 -42 77 -92.5t23 -123.5
q0 -111 -58.5 -174.5t-162.5 -63.5zM377 285l-51 27l-126 -92h189q43 0 43 16q0 20 -55 49z" />
    <glyph glyph-name="uniFEF6" unicode="&#xfee0;&#xfe82;" horiz-adv-x="689" arabic-form="final" 
d="M87 646h-76q0 143 108 143q27 0 73.5 -8.5t70.5 -8.5q30 0 57 7v-107q-24 -10 -60 -10q-45 0 -75 8q-29 9 -66 9q-32 0 -32 -33zM215 -1l-195 -15v215l103 8l-53 409h226l36 -387q59 13 73 36q14 25 14 67v411h206v-454q0 -41 13 -55t51 -14v-180l-40 -40h-20
q-91 0 -134.5 39.5t-52.5 125.5q-10 -82 -61.5 -120t-165.5 -46z" />
    <glyph glyph-name="uniFEF7" unicode="&#xfedf;&#xfe84;" horiz-adv-x="613" arabic-form="isolated" 
d="M317 840v-100l-249 -36v100l28 4q-17 24 -17 59q1 49 34.5 82.5t84.5 33.5q45 0 72.5 -29.5t30.5 -80.5l-60 -8q-13 18 -43 18q-42 0 -42 -24q0 -16 23 -26t56 -5zM372 0h-355v217l189 159l-240 127l102 184l269 -144q7 29 7 73v127h206v-127q0 -94 -57 -162
q54 -42 77 -92.5t23 -123.5q0 -111 -58.5 -174.5t-162.5 -63.5zM377 285l-51 27l-126 -92h189q43 0 43 16q0 20 -55 49z" />
    <glyph glyph-name="uniFEF8" unicode="&#xfee0;&#xfe84;" horiz-adv-x="689" arabic-form="final" 
d="M300 786v-100l-249 -36v100l28 4q-17 24 -17 59q1 49 34.5 82.5t84.5 33.5q45 0 72.5 -29.5t30.5 -80.5l-60 -8q-13 18 -43 18q-42 0 -42 -24q0 -16 23 -26t56 -5zM215 -1l-195 -15v215l103 8l-53 409h226l36 -387q59 13 73 36q14 25 14 67v411h206v-454q0 -41 13 -55
t51 -14v-180l-40 -40h-20q-91 0 -134.5 39.5t-52.5 125.5q-10 -82 -61.5 -120t-165.5 -46z" />
    <glyph glyph-name="uniFEF9" unicode="&#xfedf;&#xfe88;" horiz-adv-x="613" arabic-form="isolated" 
d="M372 0h-355v217l189 159l-240 127l102 184l269 -144q7 29 7 73v127h206v-127q0 -94 -57 -162q54 -42 77 -92.5t23 -123.5q0 -111 -58.5 -174.5t-162.5 -63.5zM377 285l-51 27l-126 -92h189q43 0 43 16q0 20 -55 49zM266 -183v-100l-249 -36v100l28 4q-17 24 -17 59
q1 49 34.5 82.5t84.5 33.5q45 0 72.5 -29.5t30.5 -80.5l-60 -8q-13 18 -43 18q-42 0 -42 -24q0 -16 23 -26t56 -5z" />
    <glyph glyph-name="uniFEFA" unicode="&#xfee0;&#xfe88;" horiz-adv-x="689" arabic-form="final" 
d="M215 -1l-195 -15v215l103 8l-53 409h226l36 -387q59 13 73 36q14 25 14 67v411h206v-454q0 -41 13 -55t51 -14v-180l-40 -40h-20q-91 0 -134.5 39.5t-52.5 125.5q-10 -82 -61.5 -120t-165.5 -46zM357 -183v-100l-249 -36v100l28 4q-17 24 -17 59q1 49 34.5 82.5
t84.5 33.5q45 0 72.5 -29.5t30.5 -80.5l-60 -8q-13 18 -43 18q-42 0 -42 -24q0 -16 23 -26t56 -5z" />
    <glyph glyph-name="uniFEFB" unicode="&#xfedf;&#xfe8e;" horiz-adv-x="613" arabic-form="isolated" 
d="M372 0h-355v217l189 159l-240 127l102 184l269 -144q7 29 7 73v127h206v-127q0 -94 -57 -162q54 -42 77 -92.5t23 -123.5q0 -111 -58.5 -174.5t-162.5 -63.5zM377 285l-51 27l-126 -92h189q43 0 43 16q0 20 -55 49z" />
    <glyph glyph-name="uniFEFC" unicode="&#xfee0;&#xfe8e;" horiz-adv-x="689" arabic-form="final" 
d="M215 -1l-195 -15v215l103 8l-53 409h226l36 -387q59 13 73 36q14 25 14 67v411h206v-454q0 -41 13 -55t51 -14v-180l-40 -40h-20q-91 0 -134.5 39.5t-52.5 125.5q-10 -82 -61.5 -120t-165.5 -46z" />
    <glyph glyph-name="f_f" unicode="ff" horiz-adv-x="758" 
d="M296 0h-228v374h-61v149h61v20q0 103 61.5 153.5t167.5 50.5q36 0 89 -11v-162q-20 5 -41 5q-24 0 -36.5 -11t-12.5 -29v-16h124v26q0 103 63 153.5t168 50.5q37 0 92 -11v-162q-20 5 -44 5q-51 0 -51 -40v-22h95v-149h-95v-374h-228v374h-124v-374z" />
    <glyph glyph-name="f_i" unicode="fi" horiz-adv-x="715" 
d="M296 0h-228v374h-61v149h61v26q0 103 63 153.5t168 50.5q36 0 91 -11v-162q-20 5 -43 5q-51 0 -51 -40v-22h94v-149h-94v-374zM557 542q-52 0 -86.5 31.5t-34.5 80.5t34.5 80.5t86.5 31.5q51 0 86 -32t35 -80t-35 -80t-86 -32zM671 0h-228v523h228v-523z" />
    <glyph glyph-name="f_l" unicode="fl" horiz-adv-x="712" 
d="M296 0h-228v374h-61v149h61v26q0 103 63 153.5t168 50.5q36 0 91 -11v-162q-20 5 -43 5q-51 0 -51 -40v-22h94v-149h-94v-374zM669 0h-227v743h227v-743z" />
    <glyph glyph-name="uni064906BA" unicode="&#x649;&#x6ba;" horiz-adv-x="1050" 
d="M696 161q0 -167 -92 -262t-252 -95q-334 0 -341 328q-2 75 15 167h185q-12 -65 -11 -102q0 -163 161 -163q175 0 175 120q0 26 -9 100l-18 151l455 35l16 -151q4 -39 19.5 -54t51.5 -15v-180l-40 -40q-92 0 -141 47q-46 47 -69 162l-106 -8q1 -15 1 -40z" />
    <glyph glyph-name="uni0649FEE6" unicode="&#x649;&#xfee6;" horiz-adv-x="1050" 
d="M438 449q0 -37 -24.5 -61.5t-61.5 -24.5t-62.5 24.5t-25.5 61.5t25.5 62.5t62.5 25.5t61.5 -25.5t24.5 -62.5zM696 161q0 -167 -92 -262t-252 -95q-334 0 -341 328q-2 75 15 167h185q-12 -65 -11 -102q0 -163 161 -163q175 0 175 120q0 26 -9 100l-18 151l455 35l16 -151
q4 -39 19.5 -54t51.5 -15v-180l-40 -40q-92 0 -141 47q-46 47 -69 162l-106 -8q1 -15 1 -40z" />
    <glyph glyph-name="uni0649FEAE" unicode="&#x649;&#xfeae;" horiz-adv-x="672" 
d="M318 125q0 -193 -69.5 -284.5t-216.5 -91.5q-48 0 -92 4v223q49 -7 88 -7q59 0 82 33t23 114q0 36 -10 138l-18 151l480 35l16 -151q4 -39 19.5 -54t51.5 -15v-180l-40 -40q-92 0 -141 47q-47 47 -69 162l-107 -8q3 -75 3 -76z" />
    <glyph glyph-name="uni0649FEB0" unicode="&#x649;&#xfeb0;" horiz-adv-x="672" 
d="M240 578q0 -37 -24.5 -61.5t-61.5 -24.5t-62.5 24.5t-25.5 61.5t25.5 62.5t62.5 25.5t61.5 -25.5t24.5 -62.5zM318 125q0 -193 -69.5 -284.5t-216.5 -91.5q-48 0 -92 4v223q49 -7 88 -7q59 0 82 33t23 114q0 36 -10 138l-18 151l480 35l16 -151q4 -39 19.5 -54t51.5 -15
v-180l-40 -40q-92 0 -141 47q-47 47 -69 162l-107 -8q3 -75 3 -76z" />
    <glyph glyph-name="uniFECBFEF0" unicode="&#xfecb;&#xfef0;" horiz-adv-x="1109" 
d="M792 -39q0 -92 -116.5 -154.5t-287.5 -62.5q-378 0 -378 341q0 67 18 140h185q-9 -67 -9 -99q0 -152 204 -152q227 0 227 29q0 24 -79 24h-35v204l96 5q-46 44 -46 116q0 98 67.5 164t176.5 66q110 0 180 -65q70 -64 70 -204h-165q-7 23 -34 36t-62 13q-42 0 -66 -12.5
t-24 -34.5q0 -31 38.5 -44t119.5 -13q61 0 128 7l89 9v-207l-326 -30q29 -26 29 -76z" />
    <glyph glyph-name="uniFECFFEF0" unicode="&#xfecf;&#xfef0;" horiz-adv-x="1119" 
d="M912 675q0 -37 -24.5 -61.5t-61.5 -24.5t-62.5 24.5t-25.5 61.5t25.5 62.5t62.5 25.5t61.5 -25.5t24.5 -62.5zM792 -39q0 -92 -116.5 -154.5t-287.5 -62.5q-378 0 -378 341q0 67 18 140h185q-9 -67 -9 -99q0 -152 204 -152q227 0 227 29q0 24 -79 24h-35v204l96 5
q-46 44 -46 116q0 98 67.5 164t176.5 66q110 0 180 -65q70 -64 70 -204h-165q-7 23 -34 36t-62 13q-42 0 -66 -12.5t-24 -34.5q0 -31 38.5 -44t119.5 -13q61 0 128 7l89 9v-207l-326 -30q29 -26 29 -76z" />
    <glyph glyph-name="uniFB58FEF0" unicode="&#xfb58;&#xfef0;" horiz-adv-x="887" 
d="M790 -38q0 -96 -116 -159.5t-288 -63.5q-376 0 -376 323q0 81 16 158h185q-11 -68 -11 -109q0 -142 216 -142q217 0 217 37q0 28 -97 28h-113v220h186q58 0 58 55q0 63 -18 166h190q18 -114 18 -206q0 -80 -35.5 -131.5t-99.5 -67.5q68 -40 68 -108zM888 -307
q0 -30 -20 -50t-50 -20t-49.5 20t-19.5 50q0 29 19.5 49t49.5 20t50 -20t20 -49zM729 -307q0 -30 -20 -50t-50 -20t-49.5 20t-19.5 50q0 29 19.5 49t49.5 20t50 -20t20 -49zM809 -447q0 -30 -20 -50t-50 -20t-49.5 20t-19.5 50q0 29 19.5 49t49.5 20t50 -20t20 -49z" />
    <glyph glyph-name="uniFB7CFEF0" unicode="&#xfb7c;&#xfef0;" horiz-adv-x="1206" 
d="M790 -2q0 -113 -111 -186t-293 -73q-376 0 -376 323q0 64 16 158h185q-11 -64 -11 -108q0 -143 206 -143q227 0 227 42q0 27 -79 27h-35v174l238 73q68 21 98 28l-14 3l-77 15q-51 8 -67 8q-19 0 -32 -10t-16 -28h-160q0 121 55.5 189.5t152.5 68.5q45 0 129 -23l194 -52
q41 -10 71 -15q30 -3 78 -3h17l-1 -200h-10q-42 0 -103.5 -20.5t-197.5 -81.5l-139 -61q55 -33 55 -105zM1099 -59q0 -30 -20 -50t-50 -20t-49.5 20t-19.5 50q0 29 19.5 49t49.5 20t50 -20t20 -49zM940 -59q0 -30 -20 -50t-50 -20t-49.5 20t-19.5 50q0 29 19.5 49t49.5 20
t50 -20t20 -49zM1020 -199q0 -30 -20 -50t-50 -20t-49.5 20t-19.5 50q0 29 19.5 49t49.5 20t50 -20t20 -49z" />
    <glyph glyph-name="uniFB6CFEF0" unicode="&#xfb6c;&#xfef0;" horiz-adv-x="867" 
d="M653 956q0 -29 -19.5 -49t-49.5 -20t-50 20t-20 49q0 30 20 50t50 20t49.5 -20t19.5 -50zM574 816q0 -29 -19.5 -49t-49.5 -20t-50 20t-20 49q0 30 20 50t50 20t49.5 -20t19.5 -50zM733 816q0 -29 -19.5 -49t-49.5 -20t-50 20t-20 49q0 30 20 50t50 20t49.5 -20t19.5 -50
zM771 -38q0 -96 -110 -159.5t-274 -63.5q-190 0 -283.5 85t-92.5 256q0 66 18 140h185q-9 -67 -9 -99q0 -152 212 -152q197 0 197 37q0 23 -97 23h-113v205l186 -1q70 0 98.5 16t33.5 60q-60 -26 -180 -26q-92 0 -144 44t-52 118q0 99 72 175.5t166 76.5q106 0 182.5 -103.5
t76.5 -260.5q0 -119 -35 -180.5t-117 -82.5q80 -26 80 -108zM476 451q0 -28 75 -28q80 0 130 7q-52 52 -132 52q-36 0 -54.5 -9.5t-18.5 -21.5z" />
    <glyph glyph-name="uniFB94FEF0" unicode="&#xfb94;&#xfef0;" horiz-adv-x="820" 
d="M836 965l-1 -135l-483 -247v135zM791 -28q0 -100 -116 -166.5t-288 -66.5q-190 0 -283.5 85t-92.5 256q0 66 18 140h185q-9 -67 -9 -99q0 -152 212 -152q217 0 217 37q0 28 -97 28h-113v210h170q38 0 38 18q0 24 -68 34l-212 35v187l484 247l-1 -200l-209 -104
q166 -37 166 -196q0 -115 -86 -171q85 -36 85 -122z" />
    <glyph glyph-name="uniFEDFFB51" unicode="&#xfedf;&#xfb51;" horiz-adv-x="613" 
d="M79 690h-76q0 127 97 133q56 134 153 134q51 0 80 -33t29 -91q0 -125 -119 -125q-23 0 -66 7.5t-66 7.5q-32 0 -32 -33zM247 857q-47 0 -72 -41q46 -8 66 -8q50 0 50 25q0 24 -44 24zM372 0h-355v217l189 159l-240 127l102 184l269 -144q7 29 7 73v127h206v-127
q0 -94 -57 -162q54 -42 77 -92.5t23 -123.5q0 -111 -58.5 -174.5t-162.5 -63.5zM377 285l-51 27l-126 -92h189q43 0 43 16q0 20 -55 49z" />
    <glyph glyph-name="uniFEDFFEE4" unicode="&#xfedf;&#xfee4;" horiz-adv-x="449" 
d="M386 134l58 -32l-106 -192l-39 22q-77 41 -144.5 54.5t-194.5 13.5v184l40 36q69 0 112 -11q-47 50 -47 132v402h206v-402q0 -86 23 -127.5t92 -79.5z" />
    <glyph glyph-name="uniFEDFFB7B" unicode="&#xfedf;&#xfb7b;" horiz-adv-x="720" 
d="M685 -40v-240q-116 -52 -276 -52q-187 0 -293 79t-106 210q0 171 185 263q-113 -5 -161 -5v230h209q38 0 51 14t13 55v229h206v-201q0 -62 -17 -97h200l-1 -230h-30q-219 0 -342 -48.5t-123 -135.5q0 -57 61 -89t168 -32q136 0 256 50zM562 104q0 -27 -18 -45t-45 -18
t-44.5 18t-17.5 45q0 26 17.5 44t44.5 18t45 -18t18 -44zM419 104q0 -27 -18 -45t-45 -18t-44.5 18t-17.5 45q0 26 17.5 44t44.5 18t45 -18t18 -44zM491 -22q0 -27 -18 -45t-45 -18t-44.5 18t-17.5 45q0 26 17.5 44t44.5 18t45 -18t18 -44z" />
    <glyph glyph-name="uniFEDFFB7D" unicode="&#xfedf;&#xfb7d;" horiz-adv-x="736" 
d="M113 0h-153v184l40 36h123q142 0 251 9l63 5q12 1 33 3t29 2l-106 13l-66 9q-93 13 -240 13h-58v195h129q74 0 99 14t25 55v205h206v-177q0 -112 -84 -155l14 -2q93 -13 156 -18q72 -5 125 -5h17l-1 -200h-22q-56 0 -98.5 -13.5t-121.5 -54.5l-83 -43q-86 -44 -142 -59.5
t-135 -15.5zM507 -109q0 -30 -20 -50t-50 -20t-49.5 20t-19.5 50q0 29 19.5 49t49.5 20t50 -20t20 -49zM348 -109q0 -30 -20 -50t-50 -20t-49.5 20t-19.5 50q0 29 19.5 49t49.5 20t50 -20t20 -49zM428 -249q0 -30 -20 -50t-50 -20t-49.5 20t-19.5 50q0 29 19.5 49t49.5 20
t50 -20t20 -49z" />
    <glyph glyph-name="uniFECBFEF2" unicode="&#xfecb;&#xfef2;" horiz-adv-x="1119" 
d="M792 -39q0 -92 -116.5 -154.5t-287.5 -62.5q-378 0 -378 341q0 67 18 140h185q-9 -67 -9 -99q0 -152 204 -152q227 0 227 29q0 24 -79 24h-35v204l96 5q-46 44 -46 116q0 98 67.5 164t176.5 66q110 0 180 -65q70 -64 70 -204h-165q-7 23 -34 36t-62 13q-42 0 -66 -12.5
t-24 -34.5q0 -31 38.5 -44t119.5 -13q61 0 128 7l89 9v-207l-326 -30q29 -26 29 -76zM572 -390q0 -37 -24.5 -61.5t-61.5 -24.5t-62.5 24.5t-25.5 61.5t25.5 62.5t62.5 25.5t61.5 -25.5t24.5 -62.5zM378 -390q0 -37 -24.5 -61.5t-61.5 -24.5t-62.5 24.5t-25.5 61.5
t25.5 62.5t62.5 25.5t61.5 -25.5t24.5 -62.5z" />
    <glyph glyph-name="uniFECFFEF2" unicode="&#xfecf;&#xfef2;" horiz-adv-x="1119" 
d="M912 675q0 -37 -24.5 -61.5t-61.5 -24.5t-62.5 24.5t-25.5 61.5t25.5 62.5t62.5 25.5t61.5 -25.5t24.5 -62.5zM792 -39q0 -92 -116.5 -154.5t-287.5 -62.5q-378 0 -378 341q0 67 18 140h185q-9 -67 -9 -99q0 -152 204 -152q227 0 227 29q0 24 -79 24h-35v204l96 5
q-46 44 -46 116q0 98 67.5 164t176.5 66q110 0 180 -65q70 -64 70 -204h-165q-7 23 -34 36t-62 13q-42 0 -66 -12.5t-24 -34.5q0 -31 38.5 -44t119.5 -13q61 0 128 7l89 9v-207l-326 -30q29 -26 29 -76zM572 -390q0 -37 -24.5 -61.5t-61.5 -24.5t-62.5 24.5t-25.5 61.5
t25.5 62.5t62.5 25.5t61.5 -25.5t24.5 -62.5zM378 -390q0 -37 -24.5 -61.5t-61.5 -24.5t-62.5 24.5t-25.5 61.5t25.5 62.5t62.5 25.5t61.5 -25.5t24.5 -62.5z" />
    <glyph glyph-name="uniFB58FEF2" unicode="&#xfb58;&#xfef2;" horiz-adv-x="887" 
d="M790 -38q0 -96 -116 -159.5t-288 -63.5q-376 0 -376 323q0 81 16 158h185q-11 -68 -11 -109q0 -142 216 -142q217 0 217 37q0 28 -97 28h-113v220h186q58 0 58 55q0 63 -18 166h190q18 -114 18 -206q0 -80 -35.5 -131.5t-99.5 -67.5q68 -40 68 -108zM888 -307
q0 -30 -20 -50t-50 -20t-49.5 20t-19.5 50q0 29 19.5 49t49.5 20t50 -20t20 -49zM729 -307q0 -30 -20 -50t-50 -20t-49.5 20t-19.5 50q0 29 19.5 49t49.5 20t50 -20t20 -49zM570 -395q0 -37 -24.5 -61.5t-61.5 -24.5t-62.5 24.5t-25.5 61.5t25.5 62.5t62.5 25.5t61.5 -25.5
t24.5 -62.5zM376 -395q0 -37 -24.5 -61.5t-61.5 -24.5t-62.5 24.5t-25.5 61.5t25.5 62.5t62.5 25.5t61.5 -25.5t24.5 -62.5zM809 -447q0 -30 -20 -50t-50 -20t-49.5 20t-19.5 50q0 29 19.5 49t49.5 20t50 -20t20 -49z" />
    <glyph glyph-name="uniFB7CFEF2" unicode="&#xfb7c;&#xfef2;" horiz-adv-x="1206" 
d="M790 -2q0 -113 -111 -186t-293 -73q-376 0 -376 323q0 64 16 158h185q-11 -64 -11 -108q0 -143 206 -143q227 0 227 42q0 27 -79 27h-35v174l238 73q68 21 98 28l-14 3l-77 15q-51 8 -67 8q-19 0 -32 -10t-16 -28h-160q0 121 55.5 189.5t152.5 68.5q45 0 129 -23l194 -52
q41 -10 71 -15q30 -3 78 -3h17l-1 -200h-10q-42 0 -103.5 -20.5t-197.5 -81.5l-139 -61q55 -33 55 -105zM1099 -59q0 -30 -20 -50t-50 -20t-49.5 20t-19.5 50q0 29 19.5 49t49.5 20t50 -20t20 -49zM940 -59q0 -30 -20 -50t-50 -20t-49.5 20t-19.5 50q0 29 19.5 49t49.5 20
t50 -20t20 -49zM1020 -199q0 -30 -20 -50t-50 -20t-49.5 20t-19.5 50q0 29 19.5 49t49.5 20t50 -20t20 -49zM570 -395q0 -37 -24.5 -61.5t-61.5 -24.5t-62.5 24.5t-25.5 61.5t25.5 62.5t62.5 25.5t61.5 -25.5t24.5 -62.5zM376 -395q0 -37 -24.5 -61.5t-61.5 -24.5
t-62.5 24.5t-25.5 61.5t25.5 62.5t62.5 25.5t61.5 -25.5t24.5 -62.5z" />
    <glyph glyph-name="uniFB6CFEF2" unicode="&#xfb6c;&#xfef2;" horiz-adv-x="867" 
d="M653 956q0 -29 -19.5 -49t-49.5 -20t-50 20t-20 49q0 30 20 50t50 20t49.5 -20t19.5 -50zM574 816q0 -29 -19.5 -49t-49.5 -20t-50 20t-20 49q0 30 20 50t50 20t49.5 -20t19.5 -50zM733 816q0 -29 -19.5 -49t-49.5 -20t-50 20t-20 49q0 30 20 50t50 20t49.5 -20t19.5 -50
zM771 -38q0 -96 -110 -159.5t-274 -63.5q-190 0 -283.5 85t-92.5 256q0 66 18 140h185q-9 -67 -9 -99q0 -152 212 -152q197 0 197 37q0 23 -97 23h-113v205l186 -1q70 0 98.5 16t33.5 60q-60 -26 -180 -26q-92 0 -144 44t-52 118q0 99 72 175.5t166 76.5q106 0 182.5 -103.5
t76.5 -260.5q0 -119 -35 -180.5t-117 -82.5q80 -26 80 -108zM476 451q0 -28 75 -28q80 0 130 7q-52 52 -132 52q-36 0 -54.5 -9.5t-18.5 -21.5zM572 -385q0 -37 -24.5 -61.5t-61.5 -24.5t-62.5 24.5t-25.5 61.5t25.5 62.5t62.5 25.5t61.5 -25.5t24.5 -62.5zM378 -385
q0 -37 -24.5 -61.5t-61.5 -24.5t-62.5 24.5t-25.5 61.5t25.5 62.5t62.5 25.5t61.5 -25.5t24.5 -62.5z" />
    <glyph glyph-name="uniFB90FEF2" unicode="&#xfb90;&#xfef2;" horiz-adv-x="820" 
d="M791 -28q0 -100 -116 -166.5t-288 -66.5q-190 0 -283.5 85t-92.5 256q0 66 18 140h185q-9 -67 -9 -99q0 -152 212 -152q217 0 217 37q0 28 -97 28h-113v210h170q38 0 38 18q0 24 -68 34l-212 35v187l484 247l-1 -200l-209 -104q166 -37 166 -196q0 -115 -86 -171
q85 -36 85 -122zM572 -385q0 -37 -24.5 -61.5t-61.5 -24.5t-62.5 24.5t-25.5 61.5t25.5 62.5t62.5 25.5t61.5 -25.5t24.5 -62.5zM378 -385q0 -37 -24.5 -61.5t-61.5 -24.5t-62.5 24.5t-25.5 61.5t25.5 62.5t62.5 25.5t61.5 -25.5t24.5 -62.5z" />
    <glyph glyph-name="uniFB94FEF2" unicode="&#xfb94;&#xfef2;" horiz-adv-x="820" 
d="M836 965l-1 -135l-483 -247v135zM791 -28q0 -100 -116 -166.5t-288 -66.5q-190 0 -283.5 85t-92.5 256q0 66 18 140h185q-9 -67 -9 -99q0 -152 212 -152q217 0 217 37q0 28 -97 28h-113v210h170q38 0 38 18q0 24 -68 34l-212 35v187l484 247l-1 -200l-209 -104
q166 -37 166 -196q0 -115 -86 -171q85 -36 85 -122zM572 -385q0 -37 -24.5 -61.5t-61.5 -24.5t-62.5 24.5t-25.5 61.5t25.5 62.5t62.5 25.5t61.5 -25.5t24.5 -62.5zM378 -385q0 -37 -24.5 -61.5t-61.5 -24.5t-62.5 24.5t-25.5 61.5t25.5 62.5t62.5 25.5t61.5 -25.5
t24.5 -62.5z" />
    <glyph glyph-name="uniFE91FE8A" unicode="&#xfe91;&#xfe8a;" horiz-adv-x="887" 
d="M250 390v-100l-249 -36v100l28 4q-17 24 -17 59q1 49 34.5 82.5t84.5 33.5q45 0 72.5 -29.5t30.5 -80.5l-60 -8q-13 18 -43 18q-42 0 -42 -24q0 -16 23 -26t56 -5zM790 -38q0 -96 -116 -159.5t-288 -63.5q-376 0 -376 323q0 81 16 158h185q-11 -68 -11 -109
q0 -142 216 -142q217 0 217 37q0 28 -97 28h-113v220h186q58 0 58 55q0 63 -18 166h190q18 -114 18 -206q0 -80 -35.5 -131.5t-99.5 -67.5q68 -40 68 -108zM821 -332q0 -37 -24.5 -61.5t-61.5 -24.5t-62.5 24.5t-25.5 61.5t25.5 62.5t62.5 25.5t61.5 -25.5t24.5 -62.5z" />
    <glyph glyph-name="uniFE97FE8A" unicode="&#xfe97;&#xfe8a;" horiz-adv-x="887" 
d="M924 611q0 -37 -24.5 -61.5t-61.5 -24.5t-62.5 24.5t-25.5 61.5t25.5 62.5t62.5 25.5t61.5 -25.5t24.5 -62.5zM730 611q0 -37 -24.5 -61.5t-61.5 -24.5t-62.5 24.5t-25.5 61.5t25.5 62.5t62.5 25.5t61.5 -25.5t24.5 -62.5zM250 390v-100l-249 -36v100l28 4q-17 24 -17 59
q1 49 34.5 82.5t84.5 33.5q45 0 72.5 -29.5t30.5 -80.5l-60 -8q-13 18 -43 18q-42 0 -42 -24q0 -16 23 -26t56 -5zM790 -38q0 -96 -116 -159.5t-288 -63.5q-376 0 -376 323q0 81 16 158h185q-11 -68 -11 -109q0 -142 216 -142q217 0 217 37q0 28 -97 28h-113v220h186
q58 0 58 55q0 63 -18 166h190q18 -114 18 -206q0 -80 -35.5 -131.5t-99.5 -67.5q68 -40 68 -108z" />
    <glyph glyph-name="uniFE9BFE8A" unicode="&#xfe9b;&#xfe8a;" horiz-adv-x="887" 
d="M809 734q0 -29 -19.5 -49t-49.5 -20t-50 20t-20 49q0 30 20 50t50 20t49.5 -20t19.5 -50zM730 594q0 -29 -19.5 -49t-49.5 -20t-50 20t-20 49q0 30 20 50t50 20t49.5 -20t19.5 -50zM889 594q0 -29 -19.5 -49t-49.5 -20t-50 20t-20 49q0 30 20 50t50 20t49.5 -20t19.5 -50
zM250 390v-100l-249 -36v100l28 4q-17 24 -17 59q1 49 34.5 82.5t84.5 33.5q45 0 72.5 -29.5t30.5 -80.5l-60 -8q-13 18 -43 18q-42 0 -42 -24q0 -16 23 -26t56 -5zM790 -38q0 -96 -116 -159.5t-288 -63.5q-376 0 -376 323q0 81 16 158h185q-11 -68 -11 -109
q0 -142 216 -142q217 0 217 37q0 28 -97 28h-113v220h186q58 0 58 55q0 63 -18 166h190q18 -114 18 -206q0 -80 -35.5 -131.5t-99.5 -67.5q68 -40 68 -108z" />
    <glyph glyph-name="uniFE9FFE8A" unicode="&#xfe9f;&#xfe8a;" horiz-adv-x="1206" 
d="M790 -2q0 -113 -111 -186t-293 -73q-376 0 -376 323q0 64 16 158h185q-11 -64 -11 -108q0 -143 206 -143q227 0 227 42q0 27 -79 27h-35v174l238 73q68 21 98 28l-14 3l-77 15q-51 8 -67 8q-19 0 -32 -10t-16 -28h-160q0 121 55.5 189.5t152.5 68.5q45 0 129 -23l194 -52
q41 -10 71 -15q30 -3 78 -3h17l-1 -200h-10q-42 0 -103.5 -20.5t-197.5 -81.5l-139 -61q55 -33 55 -105zM250 390v-100l-249 -36v100l28 4q-17 24 -17 59q1 49 34.5 82.5t84.5 33.5q45 0 72.5 -29.5t30.5 -80.5l-60 -8q-13 18 -43 18q-42 0 -42 -24q0 -16 23 -26t56 -5z
M1032 -84q0 -37 -24.5 -61.5t-61.5 -24.5t-62.5 24.5t-25.5 61.5t25.5 62.5t62.5 25.5t61.5 -25.5t24.5 -62.5z" />
    <glyph glyph-name="uniFEA3FE8A" unicode="&#xfea3;&#xfe8a;" horiz-adv-x="1206" 
d="M790 -2q0 -113 -111 -186t-293 -73q-376 0 -376 323q0 64 16 158h185q-11 -64 -11 -108q0 -143 206 -143q227 0 227 42q0 27 -79 27h-35v174l238 73q68 21 98 28l-14 3l-77 15q-51 8 -67 8q-19 0 -32 -10t-16 -28h-160q0 121 55.5 189.5t152.5 68.5q45 0 129 -23l194 -52
q41 -10 71 -15q30 -3 78 -3h17l-1 -200h-10q-42 0 -103.5 -20.5t-197.5 -81.5l-139 -61q55 -33 55 -105zM250 390v-100l-249 -36v100l28 4q-17 24 -17 59q1 49 34.5 82.5t84.5 33.5q45 0 72.5 -29.5t30.5 -80.5l-60 -8q-13 18 -43 18q-42 0 -42 -24q0 -16 23 -26t56 -5z" />
    <glyph glyph-name="uniFEA7FE8A" unicode="&#xfea7;&#xfe8a;" horiz-adv-x="1206" 
d="M818 675q0 -37 -24.5 -61.5t-61.5 -24.5t-62.5 24.5t-25.5 61.5t25.5 62.5t62.5 25.5t61.5 -25.5t24.5 -62.5zM790 -2q0 -113 -111 -186t-293 -73q-376 0 -376 323q0 64 16 158h185q-11 -64 -11 -108q0 -143 206 -143q227 0 227 42q0 27 -79 27h-35v174l238 73
q68 21 98 28l-14 3l-77 15q-51 8 -67 8q-19 0 -32 -10t-16 -28h-160q0 121 55.5 189.5t152.5 68.5q45 0 129 -23l194 -52q41 -10 71 -15q30 -3 78 -3h17l-1 -200h-10q-42 0 -103.5 -20.5t-197.5 -81.5l-139 -61q55 -33 55 -105zM250 390v-100l-249 -36v100l28 4
q-17 24 -17 59q1 49 34.5 82.5t84.5 33.5q45 0 72.5 -29.5t30.5 -80.5l-60 -8q-13 18 -43 18q-42 0 -42 -24q0 -16 23 -26t56 -5z" />
    <glyph glyph-name="uniFEB3FE8A" unicode="&#xfeb3;&#xfe8a;" horiz-adv-x="1600" 
d="M802 43q0 -143 -114.5 -223.5t-293.5 -80.5q-384 0 -384 341q0 64 14 140h185q-10 -74 -10 -99q0 -78 57.5 -115t177.5 -37q88 0 145 8.5t57 23.5q0 20 -108 35l-91 12q-171 22 -171 175q0 79 54.5 153t140 118.5t174.5 44.5q100 0 167 -44q66 -43 129 -152l38 -65
q22 -37 42 -50t58 -13q37 0 54 21t17 72v27h190v-46q0 -74 35 -74q30 0 30 47q0 57 -20 143h195q15 -88 15 -151q0 -128 -61 -198t-165 -70q-60 0 -111 30q-50 30 -62 84q-7 -54 -47.5 -84t-104.5 -30q-76 0 -125 31t-96 117l-31 57q-40 73 -85 100.5t-132 27.5
q-60 0 -99.5 -9.5t-39.5 -27.5q0 -12 13 -18t50 -11l91 -12q122 -16 172 -60t50 -138zM236 390v-100l-249 -36v100l28 4q-17 24 -17 59q1 49 34.5 82.5t84.5 33.5q45 0 72.5 -29.5t30.5 -80.5l-60 -8q-13 18 -43 18q-42 0 -42 -24q0 -16 23 -26t56 -5z" />
    <glyph glyph-name="uniFEB7FE8A" unicode="&#xfeb7;&#xfe8a;" horiz-adv-x="1600" 
d="M1263 594q0 -29 -19.5 -49t-49.5 -20t-50 20t-20 49q0 30 20 50t50 20t49.5 -20t19.5 -50zM802 43q0 -143 -114.5 -223.5t-293.5 -80.5q-384 0 -384 341q0 64 14 140h185q-10 -74 -10 -99q0 -78 57.5 -115t177.5 -37q88 0 145 8.5t57 23.5q0 20 -108 35l-91 12
q-171 22 -171 175q0 79 54.5 153t140 118.5t174.5 44.5q100 0 167 -44q66 -43 129 -152l38 -65q22 -37 42 -50t58 -13q37 0 54 21t17 72v27h190v-46q0 -74 35 -74q30 0 30 47q0 57 -20 143h195q15 -88 15 -151q0 -128 -61 -198t-165 -70q-60 0 -111 30q-50 30 -62 84
q-7 -54 -47.5 -84t-104.5 -30q-76 0 -125 31t-96 117l-31 57q-40 73 -85 100.5t-132 27.5q-60 0 -99.5 -9.5t-39.5 -27.5q0 -12 13 -18t50 -11l91 -12q122 -16 172 -60t50 -138zM236 390v-100l-249 -36v100l28 4q-17 24 -17 59q1 49 34.5 82.5t84.5 33.5q45 0 72.5 -29.5
t30.5 -80.5l-60 -8q-13 18 -43 18q-42 0 -42 -24q0 -16 23 -26t56 -5zM1184 454q0 -29 -19.5 -49t-49.5 -20t-50 20t-20 49q0 30 20 50t50 20t49.5 -20t19.5 -50zM1343 454q0 -29 -19.5 -49t-49.5 -20t-50 20t-20 49q0 30 20 50t50 20t49.5 -20t19.5 -50z" />
    <glyph glyph-name="uniFEBBFE8A" unicode="&#xfebb;&#xfe8a;" horiz-adv-x="1616" 
d="M802 43q0 -143 -114.5 -223.5t-293.5 -80.5q-384 0 -384 341q0 64 14 140h185q-10 -74 -10 -99q0 -78 57.5 -115t177.5 -37q88 0 145 8.5t57 23.5q0 20 -108 35l-91 12q-171 22 -171 175q0 79 54.5 153t140 118.5t174.5 44.5q51 0 87.5 -10t69.5 -36.5t58.5 -58.5
t65.5 -91l43 -65q4 -8 11 -14q154 275 368 275q112 0 187.5 -76.5t75.5 -190.5q0 -136 -110 -211t-311 -75q-165 0 -238 29.5t-129 118.5l-36 57q-45 73 -87 100.5t-125 27.5q-60 0 -99.5 -9.5t-39.5 -27.5q0 -12 13 -18t50 -11l91 -12q122 -16 172 -60t50 -138zM236 390
v-100l-249 -36v100l28 4q-17 24 -17 59q1 49 34.5 82.5t84.5 33.5q45 0 72.5 -29.5t30.5 -80.5l-60 -8q-13 18 -43 18q-42 0 -42 -24q0 -16 23 -26t56 -5zM1334 319q-134 0 -253 -103q52 -6 139 -6q131 0 186 12.5t55 41.5q0 23 -36.5 39t-90.5 16z" />
    <glyph glyph-name="uniFEBFFE8A" unicode="&#xfebf;&#xfe8a;" horiz-adv-x="1616" 
d="M1419 675q0 -37 -24.5 -61.5t-61.5 -24.5t-62.5 24.5t-25.5 61.5t25.5 62.5t62.5 25.5t61.5 -25.5t24.5 -62.5zM802 43q0 -143 -114.5 -223.5t-293.5 -80.5q-384 0 -384 341q0 64 14 140h185q-10 -74 -10 -99q0 -78 57.5 -115t177.5 -37q88 0 145 8.5t57 23.5
q0 20 -108 35l-91 12q-171 22 -171 175q0 79 54.5 153t140 118.5t174.5 44.5q51 0 87.5 -10t69.5 -36.5t58.5 -58.5t65.5 -91l43 -65q4 -8 11 -14q154 275 368 275q112 0 187.5 -76.5t75.5 -190.5q0 -136 -110 -211t-311 -75q-165 0 -238 29.5t-129 118.5l-36 57
q-45 73 -87 100.5t-125 27.5q-60 0 -99.5 -9.5t-39.5 -27.5q0 -12 13 -18t50 -11l91 -12q122 -16 172 -60t50 -138zM236 390v-100l-249 -36v100l28 4q-17 24 -17 59q1 49 34.5 82.5t84.5 33.5q45 0 72.5 -29.5t30.5 -80.5l-60 -8q-13 18 -43 18q-42 0 -42 -24q0 -16 23 -26
t56 -5zM1334 319q-134 0 -253 -103q52 -6 139 -6q131 0 186 12.5t55 41.5q0 23 -36.5 39t-90.5 16z" />
    <glyph glyph-name="uniFECBFE8A" unicode="&#xfecb;&#xfe8a;" horiz-adv-x="1119" 
d="M792 -39q0 -92 -116.5 -154.5t-287.5 -62.5q-378 0 -378 341q0 67 18 140h185q-9 -67 -9 -99q0 -152 204 -152q227 0 227 29q0 24 -79 24h-35v204l96 5q-46 44 -46 116q0 98 67.5 164t176.5 66q110 0 180 -65q70 -64 70 -204h-165q-7 23 -34 36t-62 13q-42 0 -66 -12.5
t-24 -34.5q0 -31 38.5 -44t119.5 -13q61 0 128 7l89 9v-207l-326 -30q29 -26 29 -76zM252 395v-100l-249 -36v100l28 4q-17 24 -17 59q1 49 34.5 82.5t84.5 33.5q45 0 72.5 -29.5t30.5 -80.5l-60 -8q-13 18 -43 18q-42 0 -42 -24q0 -16 23 -26t56 -5z" />
    <glyph glyph-name="uniFECFFE8A" unicode="&#xfecf;&#xfe8a;" horiz-adv-x="1119" 
d="M912 675q0 -37 -24.5 -61.5t-61.5 -24.5t-62.5 24.5t-25.5 61.5t25.5 62.5t62.5 25.5t61.5 -25.5t24.5 -62.5zM792 -39q0 -92 -116.5 -154.5t-287.5 -62.5q-378 0 -378 341q0 67 18 140h185q-9 -67 -9 -99q0 -152 204 -152q227 0 227 29q0 24 -79 24h-35v204l96 5
q-46 44 -46 116q0 98 67.5 164t176.5 66q110 0 180 -65q70 -64 70 -204h-165q-7 23 -34 36t-62 13q-42 0 -66 -12.5t-24 -34.5q0 -31 38.5 -44t119.5 -13q61 0 128 7l89 9v-207l-326 -30q29 -26 29 -76zM252 395v-100l-249 -36v100l28 4q-17 24 -17 59q1 49 34.5 82.5
t84.5 33.5q45 0 72.5 -29.5t30.5 -80.5l-60 -8q-13 18 -43 18q-42 0 -42 -24q0 -16 23 -26t56 -5z" />
    <glyph glyph-name="uniFED3FE8A" unicode="&#xfed3;&#xfe8a;" horiz-adv-x="867" 
d="M664 833q0 -37 -24.5 -61.5t-61.5 -24.5t-62.5 24.5t-25.5 61.5t25.5 62.5t62.5 25.5t61.5 -25.5t24.5 -62.5zM770 -38q0 -96 -110 -159.5t-274 -63.5q-190 0 -283.5 85t-92.5 256q0 66 18 140h185q-9 -67 -9 -99q0 -152 212 -152q197 0 197 37q0 23 -97 23h-113v205
l186 -1q70 0 98.5 16t33.5 60q-60 -26 -180 -26q-92 0 -144 44t-52 118q0 99 72 175.5t166 76.5q106 0 182.5 -103.5t76.5 -260.5q0 -119 -35 -180.5t-117 -82.5q80 -26 80 -108zM250 390v-100l-249 -36v100l28 4q-17 24 -17 59q1 49 34.5 82.5t84.5 33.5q45 0 72.5 -29.5
t30.5 -80.5l-60 -8q-13 18 -43 18q-42 0 -42 -24q0 -16 23 -26t56 -5zM475 451q0 -28 75 -28q80 0 130 7q-52 52 -132 52q-36 0 -54.5 -9.5t-18.5 -21.5z" />
    <glyph glyph-name="uniFED7FE8A" unicode="&#xfed7;&#xfe8a;" horiz-adv-x="867" 
d="M767 833q0 -37 -24.5 -61.5t-61.5 -24.5t-62.5 24.5t-25.5 61.5t25.5 62.5t62.5 25.5t61.5 -25.5t24.5 -62.5zM573 833q0 -37 -24.5 -61.5t-61.5 -24.5t-62.5 24.5t-25.5 61.5t25.5 62.5t62.5 25.5t61.5 -25.5t24.5 -62.5zM770 -38q0 -96 -110 -159.5t-274 -63.5
q-190 0 -283.5 85t-92.5 256q0 66 18 140h185q-9 -67 -9 -99q0 -152 212 -152q197 0 197 37q0 23 -97 23h-113v205l186 -1q70 0 98.5 16t33.5 60q-60 -26 -180 -26q-92 0 -144 44t-52 118q0 99 72 175.5t166 76.5q106 0 182.5 -103.5t76.5 -260.5q0 -119 -35 -180.5
t-117 -82.5q80 -26 80 -108zM250 390v-100l-249 -36v100l28 4q-17 24 -17 59q1 49 34.5 82.5t84.5 33.5q45 0 72.5 -29.5t30.5 -80.5l-60 -8q-13 18 -43 18q-42 0 -42 -24q0 -16 23 -26t56 -5zM475 451q0 -28 75 -28q80 0 130 7q-52 52 -132 52q-36 0 -54.5 -9.5
t-18.5 -21.5z" />
    <glyph glyph-name="uniFEDBFE8A" unicode="&#xfedb;&#xfe8a;" horiz-adv-x="820" 
d="M790 -28q0 -100 -116 -166.5t-288 -66.5q-190 0 -283.5 85t-92.5 256q0 66 18 140h185q-9 -67 -9 -99q0 -152 212 -152q217 0 217 37q0 28 -97 28h-113v210h170q38 0 38 18q0 24 -68 34l-212 35v187l484 247l-1 -200l-209 -104q166 -37 166 -196q0 -115 -86 -171
q85 -36 85 -122zM250 390v-100l-249 -36v100l28 4q-17 24 -17 59q1 49 34.5 82.5t84.5 33.5q45 0 72.5 -29.5t30.5 -80.5l-60 -8q-13 18 -43 18q-42 0 -42 -24q0 -16 23 -26t56 -5z" />
    <glyph glyph-name="uniFEDFFE8A" unicode="&#xfedf;&#xfe8a;" horiz-adv-x="830" 
d="M790 -25q0 -104 -115 -170t-289 -66q-190 0 -283.5 85t-92.5 256q0 66 18 140h185q-9 -67 -9 -99q0 -152 212 -152q217 0 217 37q0 28 -97 28h-113v220h75q43 0 60 14.5t17 54.5v420h206v-420q0 -91 -17 -144.5t-56 -80.5q82 -34 82 -123zM247 390v-100l-249 -36v100
l28 4q-17 24 -17 59q1 49 34.5 82.5t84.5 33.5q45 0 72.5 -29.5t30.5 -80.5l-60 -8q-13 18 -43 18q-42 0 -42 -24q0 -16 23 -26t56 -5z" />
    <glyph glyph-name="uniFEE7FE8A" unicode="&#xfee7;&#xfe8a;" horiz-adv-x="887" 
d="M821 611q0 -37 -24.5 -61.5t-61.5 -24.5t-62.5 24.5t-25.5 61.5t25.5 62.5t62.5 25.5t61.5 -25.5t24.5 -62.5zM250 390v-100l-249 -36v100l28 4q-17 24 -17 59q1 49 34.5 82.5t84.5 33.5q45 0 72.5 -29.5t30.5 -80.5l-60 -8q-13 18 -43 18q-42 0 -42 -24q0 -16 23 -26
t56 -5zM790 -38q0 -96 -116 -159.5t-288 -63.5q-376 0 -376 323q0 81 16 158h185q-11 -68 -11 -109q0 -142 216 -142q217 0 217 37q0 28 -97 28h-113v220h186q58 0 58 55q0 63 -18 166h190q18 -114 18 -206q0 -80 -35.5 -131.5t-99.5 -67.5q68 -40 68 -108z" />
    <glyph glyph-name="uniFEEBFE8A" unicode="&#xfeeb;&#xfe8a;" horiz-adv-x="1315" 
d="M790 -54q0 -88 -116 -147.5t-288 -59.5q-190 0 -283.5 85t-92.5 256q0 66 18 140h185q-9 -67 -9 -99q0 -152 202 -152q227 0 227 29q0 24 -79 24h-35v198l158 1q-13 41 -13 78q0 56 27 102.5t73 71.5v144l197 -50q189 -48 263 -118q76 -69 76 -195q0 -125 -71.5 -196.5
t-198.5 -71.5q-124 0 -227 72q-37 -11 -76 -17q63 -32 63 -95zM250 390v-100l-249 -36v100l28 4q-17 24 -17 59q1 49 34.5 82.5t84.5 33.5q45 0 72.5 -29.5t30.5 -80.5l-60 -8q-13 18 -43 18q-42 0 -42 -24q0 -16 23 -26t56 -5zM804 299q0 -42 56 -65q76 16 76 61
q0 25 -19.5 41.5t-47.5 16.5q-30 0 -47.5 -15.5t-17.5 -38.5zM1062 314v-15q0 -48 -27 -92q13 -1 46 -1q44 0 61.5 8.5t17.5 29.5q0 44 -98 70z" />
    <glyph glyph-name="uniFEF3FE8A" unicode="&#xfef3;&#xfe8a;" horiz-adv-x="887" 
d="M250 390v-100l-249 -36v100l28 4q-17 24 -17 59q1 49 34.5 82.5t84.5 33.5q45 0 72.5 -29.5t30.5 -80.5l-60 -8q-13 18 -43 18q-42 0 -42 -24q0 -16 23 -26t56 -5zM790 -38q0 -96 -116 -159.5t-288 -63.5q-376 0 -376 323q0 81 16 158h185q-11 -68 -11 -109
q0 -142 216 -142q217 0 217 37q0 28 -97 28h-113v220h186q58 0 58 55q0 63 -18 166h190q18 -114 18 -206q0 -80 -35.5 -131.5t-99.5 -67.5q68 -40 68 -108zM923 -332q0 -37 -24.5 -61.5t-61.5 -24.5t-62.5 24.5t-25.5 61.5t25.5 62.5t62.5 25.5t61.5 -25.5t24.5 -62.5z
M729 -332q0 -37 -24.5 -61.5t-61.5 -24.5t-62.5 24.5t-25.5 61.5t25.5 62.5t62.5 25.5t61.5 -25.5t24.5 -62.5z" />
    <glyph glyph-name="uniFB58FE8A" unicode="&#xfb58;&#xfe8a;" horiz-adv-x="887" 
d="M250 390v-100l-249 -36v100l28 4q-17 24 -17 59q1 49 34.5 82.5t84.5 33.5q45 0 72.5 -29.5t30.5 -80.5l-60 -8q-13 18 -43 18q-42 0 -42 -24q0 -16 23 -26t56 -5zM790 -38q0 -96 -116 -159.5t-288 -63.5q-376 0 -376 323q0 81 16 158h185q-11 -68 -11 -109
q0 -142 216 -142q217 0 217 37q0 28 -97 28h-113v220h186q58 0 58 55q0 63 -18 166h190q18 -114 18 -206q0 -80 -35.5 -131.5t-99.5 -67.5q68 -40 68 -108zM888 -307q0 -30 -20 -50t-50 -20t-49.5 20t-19.5 50q0 29 19.5 49t49.5 20t50 -20t20 -49zM729 -307q0 -30 -20 -50
t-50 -20t-49.5 20t-19.5 50q0 29 19.5 49t49.5 20t50 -20t20 -49zM809 -447q0 -30 -20 -50t-50 -20t-49.5 20t-19.5 50q0 29 19.5 49t49.5 20t50 -20t20 -49z" />
    <glyph glyph-name="uniFB7CFE8A" unicode="&#xfb7c;&#xfe8a;" horiz-adv-x="1206" 
d="M790 -2q0 -113 -111 -186t-293 -73q-376 0 -376 323q0 64 16 158h185q-11 -64 -11 -108q0 -143 206 -143q227 0 227 42q0 27 -79 27h-35v174l238 73q68 21 98 28l-14 3l-77 15q-51 8 -67 8q-19 0 -32 -10t-16 -28h-160q0 121 55.5 189.5t152.5 68.5q45 0 129 -23l194 -52
q41 -10 71 -15q30 -3 78 -3h17l-1 -200h-10q-42 0 -103.5 -20.5t-197.5 -81.5l-139 -61q55 -33 55 -105zM250 390v-100l-249 -36v100l28 4q-17 24 -17 59q1 49 34.5 82.5t84.5 33.5q45 0 72.5 -29.5t30.5 -80.5l-60 -8q-13 18 -43 18q-42 0 -42 -24q0 -16 23 -26t56 -5z
M1099 -59q0 -30 -20 -50t-50 -20t-49.5 20t-19.5 50q0 29 19.5 49t49.5 20t50 -20t20 -49zM940 -59q0 -30 -20 -50t-50 -20t-49.5 20t-19.5 50q0 29 19.5 49t49.5 20t50 -20t20 -49zM1020 -199q0 -30 -20 -50t-50 -20t-49.5 20t-19.5 50q0 29 19.5 49t49.5 20t50 -20t20 -49
z" />
    <glyph glyph-name="uniFB6CFE8A" unicode="&#xfb6c;&#xfe8a;" horiz-adv-x="867" 
d="M652 956q0 -29 -19.5 -49t-49.5 -20t-50 20t-20 49q0 30 20 50t50 20t49.5 -20t19.5 -50zM573 816q0 -29 -19.5 -49t-49.5 -20t-50 20t-20 49q0 30 20 50t50 20t49.5 -20t19.5 -50zM732 816q0 -29 -19.5 -49t-49.5 -20t-50 20t-20 49q0 30 20 50t50 20t49.5 -20t19.5 -50
zM770 -38q0 -96 -110 -159.5t-274 -63.5q-190 0 -283.5 85t-92.5 256q0 66 18 140h185q-9 -67 -9 -99q0 -152 212 -152q197 0 197 37q0 23 -97 23h-113v205l186 -1q70 0 98.5 16t33.5 60q-60 -26 -180 -26q-92 0 -144 44t-52 118q0 99 72 175.5t166 76.5q106 0 182.5 -103.5
t76.5 -260.5q0 -119 -35 -180.5t-117 -82.5q80 -26 80 -108zM250 390v-100l-249 -36v100l28 4q-17 24 -17 59q1 49 34.5 82.5t84.5 33.5q45 0 72.5 -29.5t30.5 -80.5l-60 -8q-13 18 -43 18q-42 0 -42 -24q0 -16 23 -26t56 -5zM475 451q0 -28 75 -28q80 0 130 7
q-52 52 -132 52q-36 0 -54.5 -9.5t-18.5 -21.5z" />
    <glyph glyph-name="uniFB94FE8A" unicode="&#xfb94;&#xfe8a;" horiz-adv-x="820" 
d="M835 965l-1 -135l-483 -247v135zM790 -28q0 -100 -116 -166.5t-288 -66.5q-190 0 -283.5 85t-92.5 256q0 66 18 140h185q-9 -67 -9 -99q0 -152 212 -152q217 0 217 37q0 28 -97 28h-113v210h170q38 0 38 18q0 24 -68 34l-212 35v187l484 247l-1 -200l-209 -104
q166 -37 166 -196q0 -115 -86 -171q85 -36 85 -122zM250 390v-100l-249 -36v100l28 4q-17 24 -17 59q1 49 34.5 82.5t84.5 33.5q45 0 72.5 -29.5t30.5 -80.5l-60 -8q-13 18 -43 18q-42 0 -42 -24q0 -16 23 -26t56 -5z" />
    <glyph glyph-name="uniFE8BFE8A" unicode="&#xfe8b;&#xfe8a;" horiz-adv-x="887" 
d="M864 645v-100l-249 -36v100l28 4q-17 24 -17 59q1 49 34.5 82.5t84.5 33.5q45 0 72.5 -29.5t30.5 -80.5l-60 -8q-13 18 -43 18q-42 0 -42 -24q0 -16 23 -26t56 -5zM790 -38q0 -96 -116 -159.5t-288 -63.5q-376 0 -376 323q0 81 16 158h185q-11 -68 -11 -109
q0 -142 216 -142q217 0 217 37q0 28 -97 28h-113v220h186q58 0 58 55q0 63 -18 166h190q18 -114 18 -206q0 -80 -35.5 -131.5t-99.5 -67.5q68 -40 68 -108zM570 -395q0 -37 -24.5 -61.5t-61.5 -24.5t-62.5 24.5t-25.5 61.5t25.5 62.5t62.5 25.5t61.5 -25.5t24.5 -62.5z
M376 -395q0 -37 -24.5 -61.5t-61.5 -24.5t-62.5 24.5t-25.5 61.5t25.5 62.5t62.5 25.5t61.5 -25.5t24.5 -62.5z" />
    <glyph glyph-name="uniFE91FBFD" unicode="&#xfe91;&#xfbfd;" horiz-adv-x="887" 
d="M790 -38q0 -96 -116 -159.5t-288 -63.5q-376 0 -376 323q0 81 16 158h185q-11 -68 -11 -109q0 -142 216 -142q217 0 217 37q0 28 -97 28h-113v220h186q58 0 58 55q0 63 -18 166h190q18 -114 18 -206q0 -80 -35.5 -131.5t-99.5 -67.5q68 -40 68 -108zM821 -332
q0 -37 -24.5 -61.5t-61.5 -24.5t-62.5 24.5t-25.5 61.5t25.5 62.5t62.5 25.5t61.5 -25.5t24.5 -62.5z" />
    <glyph glyph-name="uniFE97FBFD" unicode="&#xfe97;&#xfbfd;" horiz-adv-x="887" 
d="M924 611q0 -37 -24.5 -61.5t-61.5 -24.5t-62.5 24.5t-25.5 61.5t25.5 62.5t62.5 25.5t61.5 -25.5t24.5 -62.5zM730 611q0 -37 -24.5 -61.5t-61.5 -24.5t-62.5 24.5t-25.5 61.5t25.5 62.5t62.5 25.5t61.5 -25.5t24.5 -62.5zM790 -38q0 -96 -116 -159.5t-288 -63.5
q-376 0 -376 323q0 81 16 158h185q-11 -68 -11 -109q0 -142 216 -142q217 0 217 37q0 28 -97 28h-113v220h186q58 0 58 55q0 63 -18 166h190q18 -114 18 -206q0 -80 -35.5 -131.5t-99.5 -67.5q68 -40 68 -108z" />
    <glyph glyph-name="uniFE9BFBFD" unicode="&#xfe9b;&#xfbfd;" horiz-adv-x="887" 
d="M809 734q0 -29 -19.5 -49t-49.5 -20t-50 20t-20 49q0 30 20 50t50 20t49.5 -20t19.5 -50zM730 594q0 -29 -19.5 -49t-49.5 -20t-50 20t-20 49q0 30 20 50t50 20t49.5 -20t19.5 -50zM889 594q0 -29 -19.5 -49t-49.5 -20t-50 20t-20 49q0 30 20 50t50 20t49.5 -20t19.5 -50
zM790 -38q0 -96 -116 -159.5t-288 -63.5q-376 0 -376 323q0 81 16 158h185q-11 -68 -11 -109q0 -142 216 -142q217 0 217 37q0 28 -97 28h-113v220h186q58 0 58 55q0 63 -18 166h190q18 -114 18 -206q0 -80 -35.5 -131.5t-99.5 -67.5q68 -40 68 -108z" />
    <glyph glyph-name="uniFE9FFBFD" unicode="&#xfe9f;&#xfbfd;" horiz-adv-x="1206" 
d="M790 -2q0 -113 -111 -186t-293 -73q-376 0 -376 323q0 64 16 158h185q-11 -64 -11 -108q0 -143 206 -143q227 0 227 42q0 27 -79 27h-35v174l238 73q68 21 98 28l-14 3l-77 15q-51 8 -67 8q-19 0 -32 -10t-16 -28h-160q0 121 55.5 189.5t152.5 68.5q45 0 129 -23l194 -52
q41 -10 71 -15q30 -3 78 -3h17l-1 -200h-10q-42 0 -103.5 -20.5t-197.5 -81.5l-139 -61q55 -33 55 -105zM1032 -84q0 -37 -24.5 -61.5t-61.5 -24.5t-62.5 24.5t-25.5 61.5t25.5 62.5t62.5 25.5t61.5 -25.5t24.5 -62.5z" />
    <glyph glyph-name="uniFEA3FBFD" unicode="&#xfea3;&#xfbfd;" horiz-adv-x="1186" 
d="M770 -2q0 -113 -105 -186t-279 -73q-376 0 -376 323q0 64 16 158h185q-11 -64 -11 -108q0 -143 206 -143q207 0 207 42q0 27 -79 27h-35v174l238 73q68 21 98 28l-14 3l-77 15q-51 8 -67 8q-19 0 -32 -10t-16 -28h-160q0 121 55.5 189.5t152.5 68.5q45 0 129 -23l194 -52
q41 -10 71 -15q30 -3 78 -3h17l-1 -200h-10q-42 0 -103.5 -20.5t-197.5 -81.5l-139 -61q55 -33 55 -105z" />
    <glyph glyph-name="uniFEA7FBFD" unicode="&#xfea7;&#xfbfd;" horiz-adv-x="1206" 
d="M818 675q0 -37 -24.5 -61.5t-61.5 -24.5t-62.5 24.5t-25.5 61.5t25.5 62.5t62.5 25.5t61.5 -25.5t24.5 -62.5zM790 -2q0 -113 -111 -186t-293 -73q-376 0 -376 323q0 64 16 158h185q-11 -64 -11 -108q0 -143 206 -143q227 0 227 42q0 27 -79 27h-35v174l238 73
q68 21 98 28l-14 3l-77 15q-51 8 -67 8q-19 0 -32 -10t-16 -28h-160q0 121 55.5 189.5t152.5 68.5q45 0 129 -23l194 -52q41 -10 71 -15q30 -3 78 -3h17l-1 -200h-10q-42 0 -103.5 -20.5t-197.5 -81.5l-139 -61q55 -33 55 -105z" />
    <glyph glyph-name="uniFEB3FBFD" unicode="&#xfeb3;&#xfbfd;" horiz-adv-x="1540" 
d="M762 33q0 -133 -104.5 -213.5t-273.5 -80.5q-374 0 -374 341q0 64 14 140h185q-10 -74 -10 -99q0 -152 205 -152q182 0 182 26q0 19 -88 30l-81 11q-151 19 -151 155q0 71 50.5 142.5t130.5 117.5t158 46q86 0 146.5 -31t118.5 -123l40 -65q19 -34 41.5 -48.5t57.5 -14.5
q37 0 54 21t17 72v27h190v-46q0 -74 35 -74q30 0 30 47q0 57 -20 143h195q15 -88 15 -151q0 -128 -61 -198t-165 -70q-60 0 -111 30q-50 30 -62 84q-7 -54 -47.5 -84t-104.5 -30q-75 0 -125 33.5t-97 114.5l-33 57q-29 50 -71.5 68.5t-102.5 18.5q-55 0 -88.5 -9t-33.5 -23
q0 -11 9 -16t37 -9l81 -11q123 -17 167 -59q45 -42 45 -118z" />
    <glyph glyph-name="uniFEB7FBFD" unicode="&#xfeb7;&#xfbfd;" horiz-adv-x="1600" 
d="M1263 594q0 -29 -19.5 -49t-49.5 -20t-50 20t-20 49q0 30 20 50t50 20t49.5 -20t19.5 -50zM802 43q0 -143 -114.5 -223.5t-293.5 -80.5q-384 0 -384 341q0 64 14 140h185q-10 -74 -10 -99q0 -78 57.5 -115t177.5 -37q88 0 145 8.5t57 23.5q0 20 -108 35l-91 12
q-171 22 -171 175q0 79 54.5 153t140 118.5t174.5 44.5q100 0 167 -44q66 -43 129 -152l38 -65q22 -37 42 -50t58 -13q37 0 54 21t17 72v27h190v-46q0 -74 35 -74q30 0 30 47q0 57 -20 143h195q15 -88 15 -151q0 -128 -61 -198t-165 -70q-60 0 -111 30q-50 30 -62 84
q-7 -54 -47.5 -84t-104.5 -30q-76 0 -125 31t-96 117l-31 57q-40 73 -85 100.5t-132 27.5q-60 0 -99.5 -9.5t-39.5 -27.5q0 -12 13 -18t50 -11l91 -12q122 -16 172 -60t50 -138zM1184 454q0 -29 -19.5 -49t-49.5 -20t-50 20t-20 49q0 30 20 50t50 20t49.5 -20t19.5 -50z
M1343 454q0 -29 -19.5 -49t-49.5 -20t-50 20t-20 49q0 30 20 50t50 20t49.5 -20t19.5 -50z" />
    <glyph glyph-name="uniFEBBFBFD" unicode="&#xfebb;&#xfbfd;" horiz-adv-x="1576" 
d="M762 33q0 -133 -104.5 -213.5t-273.5 -80.5q-374 0 -374 341q0 64 14 140h185q-10 -74 -10 -99q0 -152 205 -152q182 0 182 26q0 19 -88 30l-81 11q-151 19 -151 155q0 71 50.5 142.5t130.5 117.5t158 46q76 0 135 -31q61 -30 130 -123l48 -65l12 -14q157 275 368 275
q112 0 187.5 -76.5t75.5 -190.5q0 -131 -109.5 -201.5t-311.5 -70.5q-169 0 -245.5 27t-134.5 107l-41 57q-35 48 -76 67.5t-98 19.5q-55 0 -88.5 -9t-33.5 -23q0 -11 9 -16t37 -9l81 -11q123 -17 167 -59q45 -42 45 -118zM1294 319q-131 0 -244 -95q44 -4 130 -4
q131 0 186 10t55 34q0 23 -36.5 39t-90.5 16z" />
    <glyph glyph-name="uniFEBFFBFD" unicode="&#xfebf;&#xfbfd;" horiz-adv-x="1616" 
d="M1419 675q0 -37 -24.5 -61.5t-61.5 -24.5t-62.5 24.5t-25.5 61.5t25.5 62.5t62.5 25.5t61.5 -25.5t24.5 -62.5zM802 43q0 -143 -114.5 -223.5t-293.5 -80.5q-384 0 -384 341q0 64 14 140h185q-10 -74 -10 -99q0 -78 57.5 -115t177.5 -37q88 0 145 8.5t57 23.5
q0 20 -108 35l-91 12q-171 22 -171 175q0 79 54.5 153t140 118.5t174.5 44.5q51 0 87.5 -10t69.5 -36.5t58.5 -58.5t65.5 -91l43 -65q4 -8 11 -14q154 275 368 275q112 0 187.5 -76.5t75.5 -190.5q0 -136 -110 -211t-311 -75q-165 0 -238 29.5t-129 118.5l-36 57
q-45 73 -87 100.5t-125 27.5q-60 0 -99.5 -9.5t-39.5 -27.5q0 -12 13 -18t50 -11l91 -12q122 -16 172 -60t50 -138zM1334 319q-134 0 -253 -103q52 -6 139 -6q131 0 186 12.5t55 41.5q0 23 -36.5 39t-90.5 16z" />
    <glyph glyph-name="uniFECBFBFD" unicode="&#xfecb;&#xfbfd;" horiz-adv-x="1109" 
d="M792 -39q0 -92 -116.5 -154.5t-287.5 -62.5q-378 0 -378 341q0 67 18 140h185q-9 -67 -9 -99q0 -152 204 -152q227 0 227 29q0 24 -79 24h-35v204l96 5q-46 44 -46 116q0 98 67.5 164t176.5 66q110 0 180 -65q70 -64 70 -204h-165q-7 23 -34 36t-62 13q-42 0 -66 -12.5
t-24 -34.5q0 -31 38.5 -44t119.5 -13q61 0 128 7l89 9v-207l-326 -30q29 -26 29 -76z" />
    <glyph glyph-name="uniFECFFBFD" unicode="&#xfecf;&#xfbfd;" horiz-adv-x="1119" 
d="M912 675q0 -37 -24.5 -61.5t-61.5 -24.5t-62.5 24.5t-25.5 61.5t25.5 62.5t62.5 25.5t61.5 -25.5t24.5 -62.5zM792 -39q0 -92 -116.5 -154.5t-287.5 -62.5q-378 0 -378 341q0 67 18 140h185q-9 -67 -9 -99q0 -152 204 -152q227 0 227 29q0 24 -79 24h-35v204l96 5
q-46 44 -46 116q0 98 67.5 164t176.5 66q110 0 180 -65q70 -64 70 -204h-165q-7 23 -34 36t-62 13q-42 0 -66 -12.5t-24 -34.5q0 -31 38.5 -44t119.5 -13q61 0 128 7l89 9v-207l-326 -30q29 -26 29 -76z" />
    <glyph glyph-name="uniFED3FBFD" unicode="&#xfed3;&#xfbfd;" horiz-adv-x="867" 
d="M665 833q0 -37 -24.5 -61.5t-61.5 -24.5t-62.5 24.5t-25.5 61.5t25.5 62.5t62.5 25.5t61.5 -25.5t24.5 -62.5zM771 -38q0 -96 -110 -159.5t-274 -63.5q-190 0 -283.5 85t-92.5 256q0 66 18 140h185q-9 -67 -9 -99q0 -152 212 -152q197 0 197 37q0 23 -97 23h-113v205
l186 -1q70 0 98.5 16t33.5 60q-60 -26 -180 -26q-92 0 -144 44t-52 118q0 99 72 175.5t166 76.5q106 0 182.5 -103.5t76.5 -260.5q0 -119 -35 -180.5t-117 -82.5q80 -26 80 -108zM476 451q0 -28 75 -28q80 0 130 7q-52 52 -132 52q-36 0 -54.5 -9.5t-18.5 -21.5z" />
    <glyph glyph-name="uniFED7FBFD" unicode="&#xfed7;&#xfbfd;" horiz-adv-x="867" 
d="M768 833q0 -37 -24.5 -61.5t-61.5 -24.5t-62.5 24.5t-25.5 61.5t25.5 62.5t62.5 25.5t61.5 -25.5t24.5 -62.5zM574 833q0 -37 -24.5 -61.5t-61.5 -24.5t-62.5 24.5t-25.5 61.5t25.5 62.5t62.5 25.5t61.5 -25.5t24.5 -62.5zM771 -38q0 -96 -110 -159.5t-274 -63.5
q-190 0 -283.5 85t-92.5 256q0 66 18 140h185q-9 -67 -9 -99q0 -152 212 -152q197 0 197 37q0 23 -97 23h-113v205l186 -1q70 0 98.5 16t33.5 60q-60 -26 -180 -26q-92 0 -144 44t-52 118q0 99 72 175.5t166 76.5q106 0 182.5 -103.5t76.5 -260.5q0 -119 -35 -180.5
t-117 -82.5q80 -26 80 -108zM476 451q0 -28 75 -28q80 0 130 7q-52 52 -132 52q-36 0 -54.5 -9.5t-18.5 -21.5z" />
    <glyph glyph-name="uniFEDFFBFD" unicode="&#xfedf;&#xfbfd;" horiz-adv-x="810" 
d="M771 -25q0 -105 -109 -170.5t-275 -65.5q-190 0 -283.5 85t-92.5 256q0 66 18 140h185q-9 -67 -9 -99q0 -152 212 -152q197 0 197 37q0 28 -97 28h-113v220h75q43 0 60 14.5t17 54.5v420h206v-420q0 -91 -17 -144.5t-56 -80.5q82 -34 82 -123z" />
    <glyph glyph-name="uniFEE7FBFD" unicode="&#xfee7;&#xfbfd;" horiz-adv-x="887" 
d="M821 611q0 -37 -24.5 -61.5t-61.5 -24.5t-62.5 24.5t-25.5 61.5t25.5 62.5t62.5 25.5t61.5 -25.5t24.5 -62.5zM790 -38q0 -96 -116 -159.5t-288 -63.5q-376 0 -376 323q0 81 16 158h185q-11 -68 -11 -109q0 -142 216 -142q217 0 217 37q0 28 -97 28h-113v220h186
q58 0 58 55q0 63 -18 166h190q18 -114 18 -206q0 -80 -35.5 -131.5t-99.5 -67.5q68 -40 68 -108z" />
    <glyph glyph-name="uniFEEBFBFD" unicode="&#xfeeb;&#xfbfd;" horiz-adv-x="1315" 
d="M791 -54q0 -88 -116 -147.5t-288 -59.5q-190 0 -283.5 85t-92.5 256q0 66 18 140h185q-9 -67 -9 -99q0 -152 202 -152q227 0 227 29q0 24 -79 24h-35v198l158 1q-13 41 -13 78q0 56 27 102.5t73 71.5v144l197 -50q189 -48 263 -118q76 -69 76 -195q0 -125 -71.5 -196.5
t-198.5 -71.5q-124 0 -227 72q-37 -11 -76 -17q63 -32 63 -95zM805 299q0 -42 56 -65q76 16 76 61q0 25 -19.5 41.5t-47.5 16.5q-30 0 -47.5 -15.5t-17.5 -38.5zM1063 314v-15q0 -48 -27 -92q13 -1 46 -1q44 0 61.5 8.5t17.5 29.5q0 44 -98 70z" />
    <glyph glyph-name="uniFEF3FBFD" unicode="&#xfef3;&#xfbfd;" horiz-adv-x="887" 
d="M790 -38q0 -96 -116 -159.5t-288 -63.5q-376 0 -376 323q0 81 16 158h185q-11 -68 -11 -109q0 -142 216 -142q217 0 217 37q0 28 -97 28h-113v220h186q58 0 58 55q0 63 -18 166h190q18 -114 18 -206q0 -80 -35.5 -131.5t-99.5 -67.5q68 -40 68 -108zM923 -332
q0 -37 -24.5 -61.5t-61.5 -24.5t-62.5 24.5t-25.5 61.5t25.5 62.5t62.5 25.5t61.5 -25.5t24.5 -62.5zM729 -332q0 -37 -24.5 -61.5t-61.5 -24.5t-62.5 24.5t-25.5 61.5t25.5 62.5t62.5 25.5t61.5 -25.5t24.5 -62.5z" />
    <glyph glyph-name="uniFB58FBFD" unicode="&#xfb58;&#xfbfd;" horiz-adv-x="887" 
d="M790 -38q0 -96 -116 -159.5t-288 -63.5q-376 0 -376 323q0 81 16 158h185q-11 -68 -11 -109q0 -142 216 -142q217 0 217 37q0 28 -97 28h-113v220h186q58 0 58 55q0 63 -18 166h190q18 -114 18 -206q0 -80 -35.5 -131.5t-99.5 -67.5q68 -40 68 -108zM888 -307
q0 -30 -20 -50t-50 -20t-49.5 20t-19.5 50q0 29 19.5 49t49.5 20t50 -20t20 -49zM729 -307q0 -30 -20 -50t-50 -20t-49.5 20t-19.5 50q0 29 19.5 49t49.5 20t50 -20t20 -49zM809 -447q0 -30 -20 -50t-50 -20t-49.5 20t-19.5 50q0 29 19.5 49t49.5 20t50 -20t20 -49z" />
    <glyph glyph-name="uniFB90FBFD" unicode="&#xfb90;&#xfbfd;" horiz-adv-x="800" 
d="M771 -28q0 -100 -109.5 -166.5t-274.5 -66.5q-190 0 -283.5 85t-92.5 256q0 66 18 140h185q-9 -67 -9 -99q0 -152 212 -152q197 0 197 37q0 28 -97 28h-113v210h170q38 0 38 18q0 24 -68 34l-212 35v187l484 247l-1 -200l-209 -104q166 -37 166 -196q0 -115 -86 -171
q85 -36 85 -122z" />
    <glyph glyph-name="uniFB94FBFD" unicode="&#xfb94;&#xfbfd;" horiz-adv-x="820" 
d="M836 965l-1 -135l-483 -247v135zM791 -28q0 -100 -116 -166.5t-288 -66.5q-190 0 -283.5 85t-92.5 256q0 66 18 140h185q-9 -67 -9 -99q0 -152 212 -152q217 0 217 37q0 28 -97 28h-113v210h170q38 0 38 18q0 24 -68 34l-212 35v187l484 247l-1 -200l-209 -104
q166 -37 166 -196q0 -115 -86 -171q85 -36 85 -122z" />
    <glyph glyph-name="uniFE8BFBFD" unicode="&#xfe8b;&#xfbfd;" horiz-adv-x="887" 
d="M864 645v-100l-249 -36v100l28 4q-17 24 -17 59q1 49 34.5 82.5t84.5 33.5q45 0 72.5 -29.5t30.5 -80.5l-60 -8q-13 18 -43 18q-42 0 -42 -24q0 -16 23 -26t56 -5zM790 -38q0 -96 -116 -159.5t-288 -63.5q-376 0 -376 323q0 81 16 158h185q-11 -68 -11 -109
q0 -142 216 -142q217 0 217 37q0 28 -97 28h-113v220h186q58 0 58 55q0 63 -18 166h190q18 -114 18 -206q0 -80 -35.5 -131.5t-99.5 -67.5q68 -40 68 -108z" />
    <glyph glyph-name="uniFEB3FEB0" unicode="&#xfeb3;&#xfeb0;" horiz-adv-x="1135" 
d="M240 543q0 -37 -24.5 -61.5t-61.5 -24.5t-62.5 24.5t-25.5 61.5t25.5 62.5t62.5 25.5t61.5 -25.5t24.5 -62.5zM318 125q0 -193 -69.5 -284.5t-216.5 -91.5q-48 0 -92 4v223q49 -7 88 -7q59 0 82 33t23 114q0 36 -10 138l-14 116l480 35l12 -116q4 -43 11.5 -58.5
t27.5 -15.5q35 0 35 74v46h190v-46q0 -74 35 -74q30 0 30 47q0 59 -30 143h195q25 -78 25 -151q0 -128 -61 -198t-165 -70q-60 0 -110 29q-50 30 -62 84q-7 -54 -40 -83.5t-86 -29.5q-73 0 -111.5 42.5t-57.5 144.5l-110 -8q1 -13 1 -40z" />
    <glyph glyph-name="uniFEB7FEB0" unicode="&#xfeb7;&#xfeb0;" horiz-adv-x="1135" 
d="M811 594q0 -29 -19.5 -49t-49.5 -20t-50 20t-20 49q0 30 20 50t50 20t49.5 -20t19.5 -50zM240 543q0 -37 -24.5 -61.5t-61.5 -24.5t-62.5 24.5t-25.5 61.5t25.5 62.5t62.5 25.5t61.5 -25.5t24.5 -62.5zM732 454q0 -29 -19.5 -49t-49.5 -20t-50 20t-20 49q0 30 20 50
t50 20t49.5 -20t19.5 -50zM891 454q0 -29 -19.5 -49t-49.5 -20t-50 20t-20 49q0 30 20 50t50 20t49.5 -20t19.5 -50zM318 125q0 -193 -69.5 -284.5t-216.5 -91.5q-48 0 -92 4v223q49 -7 88 -7q59 0 82 33t23 114q0 36 -10 138l-14 116l480 35l12 -116q4 -43 11.5 -58.5
t27.5 -15.5q35 0 35 74v46h190v-46q0 -74 35 -74q30 0 30 47q0 59 -30 143h195q25 -78 25 -151q0 -128 -61 -198t-165 -70q-60 0 -110 29q-50 30 -62 84q-7 -54 -40 -83.5t-86 -29.5q-73 0 -111.5 42.5t-57.5 144.5l-110 -8q1 -13 1 -40z" />
    <glyph glyph-name="uniFEBBFEB0" unicode="&#xfebb;&#xfeb0;" horiz-adv-x="1270" 
d="M243 578q0 -37 -24.5 -61.5t-61.5 -24.5t-62.5 24.5t-25.5 61.5t25.5 62.5t62.5 25.5t61.5 -25.5t24.5 -62.5zM318 125q0 -193 -69.5 -284.5t-216.5 -91.5q-48 0 -92 4v223q49 -7 88 -7q59 0 82 33t23 114q0 36 -10 138l-18 151l480 35l16 -151q1 -7 1 -19
q90 138 184.5 203.5t205.5 65.5q112 0 187.5 -76.5t75.5 -190.5q0 -286 -504 -286q-160 0 -231 47t-97 176l-108 -8q3 -75 3 -76zM988 319q-146 0 -292 -112q17 -1 60 -1q147 0 224 6t106 17.5t29 34.5t-36.5 39t-90.5 16z" />
    <glyph glyph-name="uniFEBFFEB0" unicode="&#xfebf;&#xfeb0;" horiz-adv-x="1270" 
d="M1063 675q0 -37 -24.5 -61.5t-61.5 -24.5t-62.5 24.5t-25.5 61.5t25.5 62.5t62.5 25.5t61.5 -25.5t24.5 -62.5zM243 578q0 -37 -24.5 -61.5t-61.5 -24.5t-62.5 24.5t-25.5 61.5t25.5 62.5t62.5 25.5t61.5 -25.5t24.5 -62.5zM318 125q0 -193 -69.5 -284.5t-216.5 -91.5
q-48 0 -92 4v223q49 -7 88 -7q59 0 82 33t23 114q0 36 -10 138l-18 151l480 35l16 -151q1 -7 1 -19q90 138 184.5 203.5t205.5 65.5q112 0 187.5 -76.5t75.5 -190.5q0 -286 -504 -286q-160 0 -231 47t-97 176l-108 -8q3 -75 3 -76zM988 319q-146 0 -292 -112q17 -1 60 -1
q147 0 224 6t106 17.5t29 34.5t-36.5 39t-90.5 16z" />
    <glyph glyph-name="uniFB59FEF0" unicode="&#xfb59;&#xfef0;" horiz-adv-x="1069" 
d="M802 43q0 -143 -114.5 -223.5t-293.5 -80.5q-384 0 -384 341q0 64 14 140h185q-10 -74 -10 -99q0 -78 57.5 -115t177.5 -37q88 0 145 8.5t57 23.5q0 20 -108 35l-91 12q-87 12 -129 54.5t-42 120.5q0 79 54.5 153t140 118.5t174.5 44.5q100 0 167 -44q66 -43 129 -152
l38 -65q21 -34 41 -46t59 -12v-180l-40 -40q-79 0 -125.5 26.5t-90.5 107.5l-31 57q-40 73 -85 100.5t-132 27.5q-60 0 -99.5 -9.5t-39.5 -27.5q0 -23 63 -29l91 -12q122 -16 172 -60t50 -138zM1036 -250q0 -30 -20 -50t-50 -20t-49.5 20t-19.5 50q0 29 19.5 49t49.5 20
t50 -20t20 -49zM877 -250q0 -30 -20 -50t-50 -20t-49.5 20t-19.5 50q0 29 19.5 49t49.5 20t50 -20t20 -49zM957 -390q0 -30 -20 -50t-50 -20t-49.5 20t-19.5 50q0 29 19.5 49t49.5 20t50 -20t20 -49z" />
    <glyph glyph-name="uniFB7DFEF0" unicode="&#xfb7d;&#xfef0;" horiz-adv-x="1213" 
d="M790 -2q0 -113 -111 -186t-293 -73q-376 0 -376 323q0 64 16 158h185q-11 -64 -11 -108q0 -143 206 -143q227 0 227 42q0 27 -79 27h-35v174l238 73q68 21 98 28l-14 3l-77 15q-51 8 -67 8q-19 0 -32 -10t-16 -28h-160q0 121 55.5 189.5t152.5 68.5q45 0 129 -23l194 -52
q41 -10 71 -15q30 -3 78 -3h17l-1 -200h-10q-34 0 -75 -12q2 -20 25.5 -27t87.5 -7v-177l-40 -43q-95 0 -148.5 54.5t-58.5 149.5q-15 -6 -47 -20l-45 -20l-139 -61q55 -33 55 -105zM1099 -59q0 -30 -20 -50t-50 -20t-49.5 20t-19.5 50q0 29 19.5 49t49.5 20t50 -20t20 -49z
M940 -59q0 -30 -20 -50t-50 -20t-49.5 20t-19.5 50q0 29 19.5 49t49.5 20t50 -20t20 -49zM1020 -199q0 -30 -20 -50t-50 -20t-49.5 20t-19.5 50q0 29 19.5 49t49.5 20t50 -20t20 -49z" />
    <glyph glyph-name="uniFB95FEF0" unicode="&#xfb95;&#xfef0;" horiz-adv-x="1065" 
d="M1069 1025l-1 -135l-483 -247v135zM791 -28q0 -100 -116 -166.5t-288 -66.5q-190 0 -283.5 85t-92.5 256q0 66 18 140h185q-9 -67 -9 -99q0 -152 212 -152q217 0 217 37q0 28 -97 28h-93v220h204q35 0 35 20q0 14 -33 52l-65 75v177l484 247l-1 -200l-285 -146l137 -164
q44 -54 76 -76q29 -19 70 -19v-180l-40 -40q-65 0 -108.5 29t-109.5 117l-30 40q-1 -61 -46 -98q59 -40 59 -116z" />
    <glyph glyph-name="uniFEE0FB51" unicode="&#xfee0;&#xfb51;" horiz-adv-x="689" 
d="M62 636h-76q0 127 97 133q56 134 153 134q51 0 80 -33t29 -91q0 -125 -119 -125q-22 0 -65.5 7.5t-66.5 7.5q-32 0 -32 -33zM230 803q-47 0 -72 -41q46 -8 66 -8q50 0 50 25q0 24 -44 24zM215 -1l-195 -15v215l103 8l-53 409h226l36 -387q59 13 73 36q14 25 14 67v411
h206v-454q0 -41 13 -55t51 -14v-180l-40 -40h-20q-91 0 -134.5 39.5t-52.5 125.5q-10 -82 -61.5 -120t-165.5 -46z" />
    <glyph glyph-name="uniFB59FEE6" unicode="&#xfb59;&#xfee6;" horiz-adv-x="1050" 
d="M438 449q0 -37 -24.5 -61.5t-61.5 -24.5t-62.5 24.5t-25.5 61.5t25.5 62.5t62.5 25.5t61.5 -25.5t24.5 -62.5zM696 161q0 -167 -92 -262t-252 -95q-334 0 -341 328q-2 75 15 167h185q-12 -65 -11 -102q0 -163 161 -163q175 0 175 120q0 26 -9 100l-18 151l455 35l16 -151
q4 -39 19.5 -54t51.5 -15v-180l-40 -40q-92 0 -141 47q-46 47 -69 162l-106 -8q1 -15 1 -40zM1030 -109q0 -30 -20 -50t-50 -20t-49.5 20t-19.5 50q0 29 19.5 49t49.5 20t50 -20t20 -49zM871 -109q0 -30 -20 -50t-50 -20t-49.5 20t-19.5 50q0 29 19.5 49t49.5 20t50 -20
t20 -49zM951 -249q0 -30 -20 -50t-50 -20t-49.5 20t-19.5 50q0 29 19.5 49t49.5 20t50 -20t20 -49z" />
    <glyph glyph-name="uniFBFFFEE6" unicode="&#xfbff;&#xfee6;" horiz-adv-x="1050" 
d="M438 449q0 -37 -24.5 -61.5t-61.5 -24.5t-62.5 24.5t-25.5 61.5t25.5 62.5t62.5 25.5t61.5 -25.5t24.5 -62.5zM696 161q0 -167 -92 -262t-252 -95q-334 0 -341 328q-2 75 15 167h185q-12 -65 -11 -102q0 -163 161 -163q175 0 175 120q0 26 -9 100l-18 151l455 35l16 -151
q4 -39 19.5 -54t51.5 -15v-180l-40 -40q-92 0 -141 47q-46 47 -69 162l-106 -8q1 -15 1 -40zM1030 -151q0 -29 -19.5 -49t-49.5 -20t-50 20t-20 49q0 30 20 50t50 20t49.5 -20t19.5 -50zM871 -151q0 -29 -19.5 -49t-49.5 -20t-50 20t-20 49q0 30 20 50t50 20t49.5 -20
t19.5 -50z" />
    <glyph glyph-name="uniFB59FEAE" unicode="&#xfb59;&#xfeae;" horiz-adv-x="672" 
d="M318 125q0 -193 -69.5 -284.5t-216.5 -91.5q-48 0 -92 4v223q49 -7 88 -7q59 0 82 33t23 114q0 36 -10 138l-18 151l480 35l16 -151q4 -39 19.5 -54t51.5 -15v-180l-40 -40q-92 0 -141 47q-47 47 -69 162l-107 -8q3 -75 3 -76zM659 -109q0 -30 -20 -50t-50 -20t-49.5 20
t-19.5 50q0 29 19.5 49t49.5 20t50 -20t20 -49zM500 -109q0 -30 -20 -50t-50 -20t-49.5 20t-19.5 50q0 29 19.5 49t49.5 20t50 -20t20 -49zM580 -249q0 -30 -20 -50t-50 -20t-49.5 20t-19.5 50q0 29 19.5 49t49.5 20t50 -20t20 -49z" />
    <glyph glyph-name="uniFBFFFEAE" unicode="&#xfbff;&#xfeae;" horiz-adv-x="672" 
d="M318 125q0 -193 -69.5 -284.5t-216.5 -91.5q-48 0 -92 4v223q49 -7 88 -7q59 0 82 33t23 114q0 36 -10 138l-18 151l480 35l16 -151q4 -39 19.5 -54t51.5 -15v-180l-40 -40q-92 0 -141 47q-47 47 -69 162l-107 -8q3 -75 3 -76zM659 -151q0 -29 -19.5 -49t-49.5 -20
t-50 20t-20 49q0 30 20 50t50 20t49.5 -20t19.5 -50zM500 -151q0 -29 -19.5 -49t-49.5 -20t-50 20t-20 49q0 30 20 50t50 20t49.5 -20t19.5 -50z" />
    <glyph glyph-name="uniFB59FEF2" unicode="&#xfb59;&#xfef2;" horiz-adv-x="1069" 
d="M802 43q0 -143 -114.5 -223.5t-293.5 -80.5q-384 0 -384 341q0 64 14 140h185q-10 -74 -10 -99q0 -78 57.5 -115t177.5 -37q88 0 145 8.5t57 23.5q0 20 -108 35l-91 12q-87 12 -129 54.5t-42 120.5q0 79 54.5 153t140 118.5t174.5 44.5q100 0 167 -44q66 -43 129 -152
l38 -65q21 -34 41 -46t59 -12v-180l-40 -40q-79 0 -125.5 26.5t-90.5 107.5l-31 57q-40 73 -85 100.5t-132 27.5q-60 0 -99.5 -9.5t-39.5 -27.5q0 -23 63 -29l91 -12q122 -16 172 -60t50 -138zM1036 -250q0 -30 -20 -50t-50 -20t-49.5 20t-19.5 50q0 29 19.5 49t49.5 20
t50 -20t20 -49zM877 -250q0 -30 -20 -50t-50 -20t-49.5 20t-19.5 50q0 29 19.5 49t49.5 20t50 -20t20 -49zM578 -395q0 -37 -24.5 -61.5t-61.5 -24.5t-62.5 24.5t-25.5 61.5t25.5 62.5t62.5 25.5t61.5 -25.5t24.5 -62.5zM384 -395q0 -37 -24.5 -61.5t-61.5 -24.5t-62.5 24.5
t-25.5 61.5t25.5 62.5t62.5 25.5t61.5 -25.5t24.5 -62.5zM957 -390q0 -30 -20 -50t-50 -20t-49.5 20t-19.5 50q0 29 19.5 49t49.5 20t50 -20t20 -49z" />
    <glyph glyph-name="uniFB7DFEF2" unicode="&#xfb7d;&#xfef2;" horiz-adv-x="1213" 
d="M790 -2q0 -113 -111 -186t-293 -73q-376 0 -376 323q0 64 16 158h185q-11 -64 -11 -108q0 -143 206 -143q227 0 227 42q0 27 -79 27h-35v174l238 73q68 21 98 28l-14 3l-77 15q-51 8 -67 8q-19 0 -32 -10t-16 -28h-160q0 121 55.5 189.5t152.5 68.5q45 0 129 -23l194 -52
q41 -10 71 -15q30 -3 78 -3h17l-1 -200h-10q-34 0 -75 -12q2 -20 25.5 -27t87.5 -7v-177l-40 -43q-95 0 -148.5 54.5t-58.5 149.5q-15 -6 -47 -20l-45 -20l-139 -61q55 -33 55 -105zM1099 -59q0 -30 -20 -50t-50 -20t-49.5 20t-19.5 50q0 29 19.5 49t49.5 20t50 -20t20 -49z
M940 -59q0 -30 -20 -50t-50 -20t-49.5 20t-19.5 50q0 29 19.5 49t49.5 20t50 -20t20 -49zM1020 -199q0 -30 -20 -50t-50 -20t-49.5 20t-19.5 50q0 29 19.5 49t49.5 20t50 -20t20 -49zM570 -395q0 -37 -24.5 -61.5t-61.5 -24.5t-62.5 24.5t-25.5 61.5t25.5 62.5t62.5 25.5
t61.5 -25.5t24.5 -62.5zM376 -395q0 -37 -24.5 -61.5t-61.5 -24.5t-62.5 24.5t-25.5 61.5t25.5 62.5t62.5 25.5t61.5 -25.5t24.5 -62.5z" />
    <glyph glyph-name="uniFB95FEF2" unicode="&#xfb95;&#xfef2;" horiz-adv-x="1065" 
d="M1069 1025l-1 -135l-483 -247v135zM791 -28q0 -100 -116 -166.5t-288 -66.5q-190 0 -283.5 85t-92.5 256q0 66 18 140h185q-9 -67 -9 -99q0 -152 212 -152q217 0 217 37q0 28 -97 28h-93v220h204q35 0 35 20q0 14 -33 52l-65 75v177l484 247l-1 -200l-285 -146l137 -164
q44 -54 76 -76q29 -19 70 -19v-180l-40 -40q-65 0 -108.5 29t-109.5 117l-30 40q-1 -61 -46 -98q59 -40 59 -116zM572 -385q0 -37 -24.5 -61.5t-61.5 -24.5t-62.5 24.5t-25.5 61.5t25.5 62.5t62.5 25.5t61.5 -25.5t24.5 -62.5zM378 -385q0 -37 -24.5 -61.5t-61.5 -24.5
t-62.5 24.5t-25.5 61.5t25.5 62.5t62.5 25.5t61.5 -25.5t24.5 -62.5z" />
    <glyph glyph-name="uniFE92FE8A" unicode="&#xfe92;&#xfe8a;" horiz-adv-x="1069" 
d="M802 43q0 -143 -114.5 -223.5t-293.5 -80.5q-384 0 -384 341q0 64 14 140h185q-10 -74 -10 -99q0 -78 57.5 -115t177.5 -37q88 0 145 8.5t57 23.5q0 20 -108 35l-91 12q-87 12 -129 54.5t-42 120.5q0 79 54.5 153t140 118.5t174.5 44.5q100 0 167 -44q66 -43 129 -152
l38 -65q21 -34 41 -46t59 -12v-180l-40 -40q-79 0 -125.5 26.5t-90.5 107.5l-31 57q-40 73 -85 100.5t-132 27.5q-60 0 -99.5 -9.5t-39.5 -27.5q0 -23 63 -29l91 -12q122 -16 172 -60t50 -138zM236 390v-100l-249 -36v100l28 4q-17 24 -17 59q1 49 34.5 82.5t84.5 33.5
q45 0 72.5 -29.5t30.5 -80.5l-60 -8q-13 18 -43 18q-42 0 -42 -24q0 -16 23 -26t56 -5zM969 -275q0 -37 -24.5 -61.5t-61.5 -24.5t-62.5 24.5t-25.5 61.5t25.5 62.5t62.5 25.5t61.5 -25.5t24.5 -62.5z" />
    <glyph glyph-name="uniFE98FE8A" unicode="&#xfe98;&#xfe8a;" horiz-adv-x="1069" 
d="M819 675q0 -37 -24.5 -61.5t-61.5 -24.5t-62.5 24.5t-25.5 61.5t25.5 62.5t62.5 25.5t61.5 -25.5t24.5 -62.5zM625 675q0 -37 -24.5 -61.5t-61.5 -24.5t-62.5 24.5t-25.5 61.5t25.5 62.5t62.5 25.5t61.5 -25.5t24.5 -62.5zM802 43q0 -143 -114.5 -223.5t-293.5 -80.5
q-384 0 -384 341q0 64 14 140h185q-10 -74 -10 -99q0 -78 57.5 -115t177.5 -37q88 0 145 8.5t57 23.5q0 20 -108 35l-91 12q-87 12 -129 54.5t-42 120.5q0 79 54.5 153t140 118.5t174.5 44.5q100 0 167 -44q66 -43 129 -152l38 -65q21 -34 41 -46t59 -12v-180l-40 -40
q-79 0 -125.5 26.5t-90.5 107.5l-31 57q-40 73 -85 100.5t-132 27.5q-60 0 -99.5 -9.5t-39.5 -27.5q0 -23 63 -29l91 -12q122 -16 172 -60t50 -138zM236 390v-100l-249 -36v100l28 4q-17 24 -17 59q1 49 34.5 82.5t84.5 33.5q45 0 72.5 -29.5t30.5 -80.5l-60 -8
q-13 18 -43 18q-42 0 -42 -24q0 -16 23 -26t56 -5z" />
    <glyph glyph-name="uniFE9CFE8A" unicode="&#xfe9c;&#xfe8a;" horiz-adv-x="1069" 
d="M704 798q0 -29 -19.5 -49t-49.5 -20t-50 20t-20 49q0 30 20 50t50 20t49.5 -20t19.5 -50zM625 658q0 -29 -19.5 -49t-49.5 -20t-50 20t-20 49q0 30 20 50t50 20t49.5 -20t19.5 -50zM784 658q0 -29 -19.5 -49t-49.5 -20t-50 20t-20 49q0 30 20 50t50 20t49.5 -20t19.5 -50
zM802 43q0 -143 -114.5 -223.5t-293.5 -80.5q-384 0 -384 341q0 64 14 140h185q-10 -74 -10 -99q0 -78 57.5 -115t177.5 -37q88 0 145 8.5t57 23.5q0 20 -108 35l-91 12q-87 12 -129 54.5t-42 120.5q0 79 54.5 153t140 118.5t174.5 44.5q100 0 167 -44q66 -43 129 -152
l38 -65q21 -34 41 -46t59 -12v-180l-40 -40q-79 0 -125.5 26.5t-90.5 107.5l-31 57q-40 73 -85 100.5t-132 27.5q-60 0 -99.5 -9.5t-39.5 -27.5q0 -23 63 -29l91 -12q122 -16 172 -60t50 -138zM236 390v-100l-249 -36v100l28 4q-17 24 -17 59q1 49 34.5 82.5t84.5 33.5
q45 0 72.5 -29.5t30.5 -80.5l-60 -8q-13 18 -43 18q-42 0 -42 -24q0 -16 23 -26t56 -5z" />
    <glyph glyph-name="uniFEA0FE8A" unicode="&#xfea0;&#xfe8a;" horiz-adv-x="1213" 
d="M790 -2q0 -113 -111 -186t-293 -73q-376 0 -376 323q0 64 16 158h185q-11 -64 -11 -108q0 -143 206 -143q227 0 227 42q0 27 -79 27h-35v174l238 73q68 21 98 28l-14 3l-77 15q-51 8 -67 8q-19 0 -32 -10t-16 -28h-160q0 121 55.5 189.5t152.5 68.5q45 0 129 -23l194 -52
q41 -10 71 -15q30 -3 78 -3h17l-1 -200h-10q-34 0 -75 -12q2 -20 25.5 -27t87.5 -7v-177l-40 -43q-95 0 -148.5 54.5t-58.5 149.5q-15 -6 -47 -20l-45 -20l-139 -61q55 -33 55 -105zM250 390v-100l-249 -36v100l28 4q-17 24 -17 59q1 49 34.5 82.5t84.5 33.5
q45 0 72.5 -29.5t30.5 -80.5l-60 -8q-13 18 -43 18q-42 0 -42 -24q0 -16 23 -26t56 -5zM1032 -84q0 -37 -24.5 -61.5t-61.5 -24.5t-62.5 24.5t-25.5 61.5t25.5 62.5t62.5 25.5t61.5 -25.5t24.5 -62.5z" />
    <glyph glyph-name="uniFEA4FE8A" unicode="&#xfea4;&#xfe8a;" horiz-adv-x="1213" 
d="M790 -2q0 -113 -111 -186t-293 -73q-376 0 -376 323q0 64 16 158h185q-11 -64 -11 -108q0 -143 206 -143q227 0 227 42q0 27 -79 27h-35v174l238 73q68 21 98 28l-14 3l-77 15q-51 8 -67 8q-19 0 -32 -10t-16 -28h-160q0 121 55.5 189.5t152.5 68.5q45 0 129 -23l194 -52
q41 -10 71 -15q30 -3 78 -3h17l-1 -200h-10q-34 0 -75 -12q2 -20 25.5 -27t87.5 -7v-177l-40 -43q-95 0 -148.5 54.5t-58.5 149.5q-15 -6 -47 -20l-45 -20l-139 -61q55 -33 55 -105zM250 390v-100l-249 -36v100l28 4q-17 24 -17 59q1 49 34.5 82.5t84.5 33.5
q45 0 72.5 -29.5t30.5 -80.5l-60 -8q-13 18 -43 18q-42 0 -42 -24q0 -16 23 -26t56 -5z" />
    <glyph glyph-name="uniFEA8FE8A" unicode="&#xfea8;&#xfe8a;" horiz-adv-x="1213" 
d="M818 675q0 -37 -24.5 -61.5t-61.5 -24.5t-62.5 24.5t-25.5 61.5t25.5 62.5t62.5 25.5t61.5 -25.5t24.5 -62.5zM790 -2q0 -113 -111 -186t-293 -73q-376 0 -376 323q0 64 16 158h185q-11 -64 -11 -108q0 -143 206 -143q227 0 227 42q0 27 -79 27h-35v174l238 73
q68 21 98 28l-14 3l-77 15q-51 8 -67 8q-19 0 -32 -10t-16 -28h-160q0 121 55.5 189.5t152.5 68.5q45 0 129 -23l194 -52q41 -10 71 -15q30 -3 78 -3h17l-1 -200h-10q-34 0 -75 -12q2 -20 25.5 -27t87.5 -7v-177l-40 -43q-95 0 -148.5 54.5t-58.5 149.5q-15 -6 -47 -20
l-45 -20l-139 -61q55 -33 55 -105zM250 390v-100l-249 -36v100l28 4q-17 24 -17 59q1 49 34.5 82.5t84.5 33.5q45 0 72.5 -29.5t30.5 -80.5l-60 -8q-13 18 -43 18q-42 0 -42 -24q0 -16 23 -26t56 -5z" />
    <glyph glyph-name="uniFEB4FE8A" unicode="&#xfeb4;&#xfe8a;" horiz-adv-x="1656" 
d="M931 343l38 -65q22 -37 42 -50t58 -13q37 0 54 21t17 72v27h190v-46q0 -74 35 -74t35 74v81h190v-81q0 -38 14.5 -53.5t51.5 -15.5v-180l-40 -40q-71 0 -115 34t-55 95q-7 -68 -41 -105.5t-90 -37.5q-50 0 -85 29.5t-44 81.5q-9 -53 -49 -82t-103 -29q-76 0 -125 31
t-96 117l-31 57q-40 73 -85 100.5t-132 27.5q-60 0 -99.5 -9.5t-39.5 -27.5q0 -12 13 -18t50 -11l91 -12q122 -16 172 -60t50 -138q0 -143 -114.5 -223.5t-293.5 -80.5q-384 0 -384 341q0 64 14 140h185q-10 -74 -10 -99q0 -78 57.5 -115t177.5 -37q88 0 145 8.5t57 23.5
q0 20 -108 35l-91 12q-171 22 -171 175q0 79 54.5 153t140 118.5t174.5 44.5q100 0 167 -44q66 -43 129 -152zM236 390v-100l-249 -36v100l28 4q-17 24 -17 59q1 49 34.5 82.5t84.5 33.5q45 0 72.5 -29.5t30.5 -80.5l-60 -8q-13 18 -43 18q-42 0 -42 -24q0 -16 23 -26t56 -5
z" />
    <glyph glyph-name="uniFEB8FE8A" unicode="&#xfeb8;&#xfe8a;" horiz-adv-x="1656" 
d="M1297 594q0 -29 -19.5 -49t-49.5 -20t-50 20t-20 49q0 30 20 50t50 20t49.5 -20t19.5 -50zM931 343l38 -65q22 -37 42 -50t58 -13q37 0 54 21t17 72v27h190v-46q0 -74 35 -74t35 74v81h190v-81q0 -38 14.5 -53.5t51.5 -15.5v-180l-40 -40q-71 0 -115 34t-55 95
q-7 -68 -41 -105.5t-90 -37.5q-50 0 -85 29.5t-44 81.5q-9 -53 -49 -82t-103 -29q-76 0 -125 31t-96 117l-31 57q-40 73 -85 100.5t-132 27.5q-60 0 -99.5 -9.5t-39.5 -27.5q0 -12 13 -18t50 -11l91 -12q122 -16 172 -60t50 -138q0 -143 -114.5 -223.5t-293.5 -80.5
q-384 0 -384 341q0 64 14 140h185q-10 -74 -10 -99q0 -78 57.5 -115t177.5 -37q88 0 145 8.5t57 23.5q0 20 -108 35l-91 12q-171 22 -171 175q0 79 54.5 153t140 118.5t174.5 44.5q100 0 167 -44q66 -43 129 -152zM236 390v-100l-249 -36v100l28 4q-17 24 -17 59
q1 49 34.5 82.5t84.5 33.5q45 0 72.5 -29.5t30.5 -80.5l-60 -8q-13 18 -43 18q-42 0 -42 -24q0 -16 23 -26t56 -5zM1218 454q0 -29 -19.5 -49t-49.5 -20t-50 20t-20 49q0 30 20 50t50 20t49.5 -20t19.5 -50zM1377 454q0 -29 -19.5 -49t-49.5 -20t-50 20t-20 49q0 30 20 50
t50 20t49.5 -20t19.5 -50z" />
    <glyph glyph-name="uniFEBCFE8A" unicode="&#xfebc;&#xfe8a;" horiz-adv-x="1688" 
d="M802 43q0 -143 -114.5 -223.5t-293.5 -80.5q-384 0 -384 341q0 64 14 140h185q-10 -74 -10 -99q0 -78 57.5 -115t177.5 -37q88 0 145 8.5t57 23.5q0 20 -108 35l-91 12q-171 22 -171 175q0 79 54.5 153t140 118.5t174.5 44.5q51 0 87.5 -10t69.5 -36.5t58.5 -58.5
t65.5 -91l43 -65q4 -8 11 -14q154 275 368 275q112 0 187.5 -76.5t75.5 -190.5q0 -13 -2 -39q27 -13 89 -13v-177l-40 -43q-97 0 -140 72q-109 -86 -328 -86q-165 0 -238 29.5t-129 118.5l-36 57q-45 73 -87 100.5t-125 27.5q-60 0 -99.5 -9.5t-39.5 -27.5q0 -12 13 -18
t50 -11l91 -12q122 -16 172 -60t50 -138zM236 390v-100l-249 -36v100l28 4q-17 24 -17 59q1 49 34.5 82.5t84.5 33.5q45 0 72.5 -29.5t30.5 -80.5l-60 -8q-13 18 -43 18q-42 0 -42 -24q0 -16 23 -26t56 -5zM1334 319q-134 0 -253 -103q52 -6 139 -6q131 0 186 12.5t55 41.5
q0 23 -36.5 39t-90.5 16z" />
    <glyph glyph-name="uniFEC0FE8A" unicode="&#xfec0;&#xfe8a;" horiz-adv-x="1688" 
d="M1419 675q0 -37 -24.5 -61.5t-61.5 -24.5t-62.5 24.5t-25.5 61.5t25.5 62.5t62.5 25.5t61.5 -25.5t24.5 -62.5zM802 43q0 -143 -114.5 -223.5t-293.5 -80.5q-384 0 -384 341q0 64 14 140h185q-10 -74 -10 -99q0 -78 57.5 -115t177.5 -37q88 0 145 8.5t57 23.5
q0 20 -108 35l-91 12q-171 22 -171 175q0 79 54.5 153t140 118.5t174.5 44.5q51 0 87.5 -10t69.5 -36.5t58.5 -58.5t65.5 -91l43 -65q4 -8 11 -14q154 275 368 275q112 0 187.5 -76.5t75.5 -190.5q0 -13 -2 -39q27 -13 89 -13v-177l-40 -43q-97 0 -140 72q-109 -86 -328 -86
q-165 0 -238 29.5t-129 118.5l-36 57q-45 73 -87 100.5t-125 27.5q-60 0 -99.5 -9.5t-39.5 -27.5q0 -12 13 -18t50 -11l91 -12q122 -16 172 -60t50 -138zM236 390v-100l-249 -36v100l28 4q-17 24 -17 59q1 49 34.5 82.5t84.5 33.5q45 0 72.5 -29.5t30.5 -80.5l-60 -8
q-13 18 -43 18q-42 0 -42 -24q0 -16 23 -26t56 -5zM1334 319q-134 0 -253 -103q52 -6 139 -6q131 0 186 12.5t55 41.5q0 23 -36.5 39t-90.5 16z" />
    <glyph glyph-name="uniFECCFE8A" unicode="&#xfecc;&#xfe8a;" horiz-adv-x="1213" 
d="M250 390v-100l-249 -36v100l28 4q-17 24 -17 59q1 49 34.5 82.5t84.5 33.5q45 0 72.5 -29.5t30.5 -80.5l-60 -8q-13 18 -43 18q-42 0 -42 -24q0 -16 23 -26t56 -5zM790 -44q0 -92 -116.5 -154.5t-287.5 -62.5q-190 0 -283.5 85t-92.5 256q0 66 18 140h185q-9 -67 -9 -99
q0 -152 202 -152q227 0 227 39q0 8 -18 16q-19 8 -82 8h-14v188h141l-50 56v200q141 33 265 33q143 0 205 -35q62 -34 64 -125q0 -68 -48 -130l117 1v-180l-40 -40h-25q-167 0 -299 68q-53 -16 -118 -22q59 -26 59 -90zM875 309q-53 0 -113 -5q75 -63 145 -77q109 14 109 46
q0 20 -33 28t-108 8z" />
    <glyph glyph-name="uniFED0FE8A" unicode="&#xfed0;&#xfe8a;" horiz-adv-x="1213" 
d="M976 646q0 -37 -24.5 -61.5t-61.5 -24.5t-62.5 24.5t-25.5 61.5t25.5 62.5t62.5 25.5t61.5 -25.5t24.5 -62.5zM250 390v-100l-249 -36v100l28 4q-17 24 -17 59q1 49 34.5 82.5t84.5 33.5q45 0 72.5 -29.5t30.5 -80.5l-60 -8q-13 18 -43 18q-42 0 -42 -24q0 -16 23 -26
t56 -5zM790 -44q0 -92 -116.5 -154.5t-287.5 -62.5q-190 0 -283.5 85t-92.5 256q0 66 18 140h185q-9 -67 -9 -99q0 -152 202 -152q227 0 227 39q0 8 -18 16q-19 8 -82 8h-14v188h141l-50 56v200q141 33 265 33q143 0 205 -35q62 -34 64 -125q0 -68 -48 -130l117 1v-180
l-40 -40h-25q-167 0 -299 68q-53 -16 -118 -22q59 -26 59 -90zM875 309q-53 0 -113 -5q75 -63 145 -77q109 14 109 46q0 20 -33 28t-108 8z" />
    <glyph glyph-name="uniFEDCFE8A" unicode="&#xfedc;&#xfe8a;" horiz-adv-x="1065" 
d="M790 -28q0 -100 -116 -166.5t-288 -66.5q-190 0 -283.5 85t-92.5 256q0 66 18 140h185q-9 -67 -9 -99q0 -152 212 -152q217 0 217 37q0 28 -97 28h-93v220h204q35 0 35 20q0 14 -33 52l-65 75v177l484 247l-1 -200l-285 -146l137 -164q44 -54 76 -76q29 -19 70 -19v-180
l-40 -40q-65 0 -108.5 29t-109.5 117l-30 40q-1 -61 -46 -98q59 -40 59 -116zM250 390v-100l-249 -36v100l28 4q-17 24 -17 59q1 49 34.5 82.5t84.5 33.5q45 0 72.5 -29.5t30.5 -80.5l-60 -8q-13 18 -43 18q-42 0 -42 -24q0 -16 23 -26t56 -5z" />
    <glyph glyph-name="uniFEE0FE8A" unicode="&#xfee0;&#xfe8a;" horiz-adv-x="1051" 
d="M790 -28q0 -105 -104 -169t-300 -64q-190 0 -283.5 85t-92.5 256q0 66 18 140h185q-9 -67 -9 -99q0 -152 212 -152q217 0 217 37q0 28 -97 28h-113v220h293q36 0 50.5 16.5t14.5 52.5v420h206v-454q0 -38 15 -53.5t49 -15.5v-180l-40 -40q-93 0 -143 45t-54 130
q-13 -64 -76 -100q52 -38 52 -103zM248 390v-100l-249 -36v100l28 4q-17 24 -17 59q1 49 34.5 82.5t84.5 33.5q45 0 72.5 -29.5t30.5 -80.5l-60 -8q-13 18 -43 18q-42 0 -42 -24q0 -16 23 -26t56 -5z" />
    <glyph glyph-name="uniFEE8FE8A" unicode="&#xfee8;&#xfe8a;" horiz-adv-x="1069" 
d="M716 675q0 -37 -24.5 -61.5t-61.5 -24.5t-62.5 24.5t-25.5 61.5t25.5 62.5t62.5 25.5t61.5 -25.5t24.5 -62.5zM802 43q0 -143 -114.5 -223.5t-293.5 -80.5q-384 0 -384 341q0 64 14 140h185q-10 -74 -10 -99q0 -78 57.5 -115t177.5 -37q88 0 145 8.5t57 23.5
q0 20 -108 35l-91 12q-87 12 -129 54.5t-42 120.5q0 79 54.5 153t140 118.5t174.5 44.5q100 0 167 -44q66 -43 129 -152l38 -65q21 -34 41 -46t59 -12v-180l-40 -40q-79 0 -125.5 26.5t-90.5 107.5l-31 57q-40 73 -85 100.5t-132 27.5q-60 0 -99.5 -9.5t-39.5 -27.5
q0 -23 63 -29l91 -12q122 -16 172 -60t50 -138zM236 390v-100l-249 -36v100l28 4q-17 24 -17 59q1 49 34.5 82.5t84.5 33.5q45 0 72.5 -29.5t30.5 -80.5l-60 -8q-13 18 -43 18q-42 0 -42 -24q0 -16 23 -26t56 -5z" />
    <glyph glyph-name="uniFEF4FE8A" unicode="&#xfef4;&#xfe8a;" horiz-adv-x="1069" 
d="M802 43q0 -143 -114.5 -223.5t-293.5 -80.5q-384 0 -384 341q0 64 14 140h185q-10 -74 -10 -99q0 -78 57.5 -115t177.5 -37q88 0 145 8.5t57 23.5q0 20 -108 35l-91 12q-87 12 -129 54.5t-42 120.5q0 79 54.5 153t140 118.5t174.5 44.5q100 0 167 -44q66 -43 129 -152
l38 -65q21 -34 41 -46t59 -12v-180l-40 -40q-79 0 -125.5 26.5t-90.5 107.5l-31 57q-40 73 -85 100.5t-132 27.5q-60 0 -99.5 -9.5t-39.5 -27.5q0 -23 63 -29l91 -12q122 -16 172 -60t50 -138zM236 390v-100l-249 -36v100l28 4q-17 24 -17 59q1 49 34.5 82.5t84.5 33.5
q45 0 72.5 -29.5t30.5 -80.5l-60 -8q-13 18 -43 18q-42 0 -42 -24q0 -16 23 -26t56 -5zM1071 -275q0 -37 -24.5 -61.5t-61.5 -24.5t-62.5 24.5t-25.5 61.5t25.5 62.5t62.5 25.5t61.5 -25.5t24.5 -62.5zM877 -275q0 -37 -24.5 -61.5t-61.5 -24.5t-62.5 24.5t-25.5 61.5
t25.5 62.5t62.5 25.5t61.5 -25.5t24.5 -62.5z" />
    <glyph glyph-name="uniFB59FE8A" unicode="&#xfb59;&#xfe8a;" horiz-adv-x="1069" 
d="M802 43q0 -143 -114.5 -223.5t-293.5 -80.5q-384 0 -384 341q0 64 14 140h185q-10 -74 -10 -99q0 -78 57.5 -115t177.5 -37q88 0 145 8.5t57 23.5q0 20 -108 35l-91 12q-87 12 -129 54.5t-42 120.5q0 79 54.5 153t140 118.5t174.5 44.5q100 0 167 -44q66 -43 129 -152
l38 -65q21 -34 41 -46t59 -12v-180l-40 -40q-79 0 -125.5 26.5t-90.5 107.5l-31 57q-40 73 -85 100.5t-132 27.5q-60 0 -99.5 -9.5t-39.5 -27.5q0 -23 63 -29l91 -12q122 -16 172 -60t50 -138zM236 390v-100l-249 -36v100l28 4q-17 24 -17 59q1 49 34.5 82.5t84.5 33.5
q45 0 72.5 -29.5t30.5 -80.5l-60 -8q-13 18 -43 18q-42 0 -42 -24q0 -16 23 -26t56 -5zM1036 -250q0 -30 -20 -50t-50 -20t-49.5 20t-19.5 50q0 29 19.5 49t49.5 20t50 -20t20 -49zM877 -250q0 -30 -20 -50t-50 -20t-49.5 20t-19.5 50q0 29 19.5 49t49.5 20t50 -20t20 -49z
M957 -390q0 -30 -20 -50t-50 -20t-49.5 20t-19.5 50q0 29 19.5 49t49.5 20t50 -20t20 -49z" />
    <glyph glyph-name="uniFB7DFE8A" unicode="&#xfb7d;&#xfe8a;" horiz-adv-x="1213" 
d="M790 -2q0 -113 -111 -186t-293 -73q-376 0 -376 323q0 64 16 158h185q-11 -64 -11 -108q0 -143 206 -143q227 0 227 42q0 27 -79 27h-35v174l238 73q68 21 98 28l-14 3l-77 15q-51 8 -67 8q-19 0 -32 -10t-16 -28h-160q0 121 55.5 189.5t152.5 68.5q45 0 129 -23l194 -52
q41 -10 71 -15q30 -3 78 -3h17l-1 -200h-10q-34 0 -75 -12q2 -20 25.5 -27t87.5 -7v-177l-40 -43q-95 0 -148.5 54.5t-58.5 149.5q-15 -6 -47 -20l-45 -20l-139 -61q55 -33 55 -105zM250 390v-100l-249 -36v100l28 4q-17 24 -17 59q1 49 34.5 82.5t84.5 33.5
q45 0 72.5 -29.5t30.5 -80.5l-60 -8q-13 18 -43 18q-42 0 -42 -24q0 -16 23 -26t56 -5zM1099 -59q0 -30 -20 -50t-50 -20t-49.5 20t-19.5 50q0 29 19.5 49t49.5 20t50 -20t20 -49zM940 -59q0 -30 -20 -50t-50 -20t-49.5 20t-19.5 50q0 29 19.5 49t49.5 20t50 -20t20 -49z
M1020 -199q0 -30 -20 -50t-50 -20t-49.5 20t-19.5 50q0 29 19.5 49t49.5 20t50 -20t20 -49z" />
    <glyph glyph-name="uniFB95FE8A" unicode="&#xfb95;&#xfe8a;" horiz-adv-x="1065" 
d="M1068 1025l-1 -135l-483 -247v135zM790 -28q0 -100 -116 -166.5t-288 -66.5q-190 0 -283.5 85t-92.5 256q0 66 18 140h185q-9 -67 -9 -99q0 -152 212 -152q217 0 217 37q0 28 -97 28h-93v220h204q35 0 35 20q0 14 -33 52l-65 75v177l484 247l-1 -200l-285 -146l137 -164
q44 -54 76 -76q29 -19 70 -19v-180l-40 -40q-65 0 -108.5 29t-109.5 117l-30 40q-1 -61 -46 -98q59 -40 59 -116zM250 390v-100l-249 -36v100l28 4q-17 24 -17 59q1 49 34.5 82.5t84.5 33.5q45 0 72.5 -29.5t30.5 -80.5l-60 -8q-13 18 -43 18q-42 0 -42 -24q0 -16 23 -26
t56 -5z" />
    <glyph glyph-name="uniFE8CFE8A" unicode="&#xfe8c;&#xfe8a;" horiz-adv-x="1069" 
d="M759 709v-100l-249 -36v100l28 4q-17 24 -17 59q1 49 34.5 82.5t84.5 33.5q45 0 72.5 -29.5t30.5 -80.5l-60 -8q-13 18 -43 18q-42 0 -42 -24q0 -16 23 -26t56 -5zM802 43q0 -143 -114.5 -223.5t-293.5 -80.5q-384 0 -384 341q0 64 14 140h185q-10 -74 -10 -99
q0 -78 57.5 -115t177.5 -37q88 0 145 8.5t57 23.5q0 20 -108 35l-91 12q-87 12 -129 54.5t-42 120.5q0 79 54.5 153t140 118.5t174.5 44.5q100 0 167 -44q66 -43 129 -152l38 -65q21 -34 41 -46t59 -12v-180l-40 -40q-79 0 -125.5 26.5t-90.5 107.5l-31 57q-40 73 -85 100.5
t-132 27.5q-60 0 -99.5 -9.5t-39.5 -27.5q0 -23 63 -29l91 -12q122 -16 172 -60t50 -138zM236 390v-100l-249 -36v100l28 4q-17 24 -17 59q1 49 34.5 82.5t84.5 33.5q45 0 72.5 -29.5t30.5 -80.5l-60 -8q-13 18 -43 18q-42 0 -42 -24q0 -16 23 -26t56 -5z" />
    <glyph glyph-name="uniFE92FBFD" unicode="&#xfe92;&#xfbfd;" horiz-adv-x="1069" 
d="M802 43q0 -143 -114.5 -223.5t-293.5 -80.5q-384 0 -384 341q0 64 14 140h185q-10 -74 -10 -99q0 -78 57.5 -115t177.5 -37q88 0 145 8.5t57 23.5q0 20 -108 35l-91 12q-87 12 -129 54.5t-42 120.5q0 79 54.5 153t140 118.5t174.5 44.5q100 0 167 -44q66 -43 129 -152
l38 -65q21 -34 41 -46t59 -12v-180l-40 -40q-79 0 -125.5 26.5t-90.5 107.5l-31 57q-40 73 -85 100.5t-132 27.5q-60 0 -99.5 -9.5t-39.5 -27.5q0 -23 63 -29l91 -12q122 -16 172 -60t50 -138zM969 -275q0 -37 -24.5 -61.5t-61.5 -24.5t-62.5 24.5t-25.5 61.5t25.5 62.5
t62.5 25.5t61.5 -25.5t24.5 -62.5z" />
    <glyph glyph-name="uniFE98FBFD" unicode="&#xfe98;&#xfbfd;" horiz-adv-x="1069" 
d="M819 675q0 -37 -24.5 -61.5t-61.5 -24.5t-62.5 24.5t-25.5 61.5t25.5 62.5t62.5 25.5t61.5 -25.5t24.5 -62.5zM625 675q0 -37 -24.5 -61.5t-61.5 -24.5t-62.5 24.5t-25.5 61.5t25.5 62.5t62.5 25.5t61.5 -25.5t24.5 -62.5zM802 43q0 -143 -114.5 -223.5t-293.5 -80.5
q-384 0 -384 341q0 64 14 140h185q-10 -74 -10 -99q0 -78 57.5 -115t177.5 -37q88 0 145 8.5t57 23.5q0 20 -108 35l-91 12q-87 12 -129 54.5t-42 120.5q0 79 54.5 153t140 118.5t174.5 44.5q100 0 167 -44q66 -43 129 -152l38 -65q21 -34 41 -46t59 -12v-180l-40 -40
q-79 0 -125.5 26.5t-90.5 107.5l-31 57q-40 73 -85 100.5t-132 27.5q-60 0 -99.5 -9.5t-39.5 -27.5q0 -23 63 -29l91 -12q122 -16 172 -60t50 -138z" />
    <glyph glyph-name="uniFE9CFBFD" unicode="&#xfe9c;&#xfbfd;" horiz-adv-x="1069" 
d="M704 798q0 -29 -19.5 -49t-49.5 -20t-50 20t-20 49q0 30 20 50t50 20t49.5 -20t19.5 -50zM625 658q0 -29 -19.5 -49t-49.5 -20t-50 20t-20 49q0 30 20 50t50 20t49.5 -20t19.5 -50zM784 658q0 -29 -19.5 -49t-49.5 -20t-50 20t-20 49q0 30 20 50t50 20t49.5 -20t19.5 -50
zM802 43q0 -143 -114.5 -223.5t-293.5 -80.5q-384 0 -384 341q0 64 14 140h185q-10 -74 -10 -99q0 -78 57.5 -115t177.5 -37q88 0 145 8.5t57 23.5q0 20 -108 35l-91 12q-87 12 -129 54.5t-42 120.5q0 79 54.5 153t140 118.5t174.5 44.5q100 0 167 -44q66 -43 129 -152
l38 -65q21 -34 41 -46t59 -12v-180l-40 -40q-79 0 -125.5 26.5t-90.5 107.5l-31 57q-40 73 -85 100.5t-132 27.5q-60 0 -99.5 -9.5t-39.5 -27.5q0 -23 63 -29l91 -12q122 -16 172 -60t50 -138z" />
    <glyph glyph-name="uniFEA0FBFD" unicode="&#xfea0;&#xfbfd;" horiz-adv-x="1213" 
d="M790 -2q0 -113 -111 -186t-293 -73q-376 0 -376 323q0 64 16 158h185q-11 -64 -11 -108q0 -143 206 -143q227 0 227 42q0 27 -79 27h-35v174l238 73q68 21 98 28l-14 3l-77 15q-51 8 -67 8q-19 0 -32 -10t-16 -28h-160q0 121 55.5 189.5t152.5 68.5q45 0 129 -23l194 -52
q41 -10 71 -15q30 -3 78 -3h17l-1 -200h-10q-34 0 -75 -12q2 -20 25.5 -27t87.5 -7v-177l-40 -43q-95 0 -148.5 54.5t-58.5 149.5q-15 -6 -47 -20l-45 -20l-139 -61q55 -33 55 -105zM1032 -84q0 -37 -24.5 -61.5t-61.5 -24.5t-62.5 24.5t-25.5 61.5t25.5 62.5t62.5 25.5
t61.5 -25.5t24.5 -62.5z" />
    <glyph glyph-name="uniFEA4FBFD" unicode="&#xfea4;&#xfbfd;" horiz-adv-x="1213" 
d="M790 -2q0 -113 -111 -186t-293 -73q-376 0 -376 323q0 64 16 158h185q-11 -64 -11 -108q0 -143 206 -143q227 0 227 42q0 27 -79 27h-35v174l238 73q68 21 98 28l-14 3l-77 15q-51 8 -67 8q-19 0 -32 -10t-16 -28h-160q0 121 55.5 189.5t152.5 68.5q45 0 129 -23l194 -52
q41 -10 71 -15q30 -3 78 -3h17l-1 -200h-10q-34 0 -75 -12q2 -20 25.5 -27t87.5 -7v-177l-40 -43q-95 0 -148.5 54.5t-58.5 149.5q-15 -6 -47 -20l-45 -20l-139 -61q55 -33 55 -105z" />
    <glyph glyph-name="uniFEA8FBFD" unicode="&#xfea8;&#xfbfd;" horiz-adv-x="1213" 
d="M818 675q0 -37 -24.5 -61.5t-61.5 -24.5t-62.5 24.5t-25.5 61.5t25.5 62.5t62.5 25.5t61.5 -25.5t24.5 -62.5zM790 -2q0 -113 -111 -186t-293 -73q-376 0 -376 323q0 64 16 158h185q-11 -64 -11 -108q0 -143 206 -143q227 0 227 42q0 27 -79 27h-35v174l238 73
q68 21 98 28l-14 3l-77 15q-51 8 -67 8q-19 0 -32 -10t-16 -28h-160q0 121 55.5 189.5t152.5 68.5q45 0 129 -23l194 -52q41 -10 71 -15q30 -3 78 -3h17l-1 -200h-10q-34 0 -75 -12q2 -20 25.5 -27t87.5 -7v-177l-40 -43q-95 0 -148.5 54.5t-58.5 149.5q-15 -6 -47 -20
l-45 -20l-139 -61q55 -33 55 -105z" />
    <glyph glyph-name="uniFEB4FBFD" unicode="&#xfeb4;&#xfbfd;" horiz-adv-x="1596" 
d="M762 33q0 -133 -104.5 -213.5t-273.5 -80.5q-374 0 -374 341q0 64 14 140h185q-10 -74 -10 -99q0 -152 205 -152q182 0 182 26q0 19 -88 30l-81 11q-151 19 -151 155q0 71 50.5 142.5t130.5 117.5t158 46q86 0 146.5 -31t118.5 -123l40 -65q22 -35 43.5 -49t55.5 -14
q37 0 54 21t17 72v27h190v-46q0 -74 35 -74t35 74v81h190v-81q0 -38 14.5 -53.5t51.5 -15.5v-180l-40 -40q-71 0 -115 34t-55 95q-7 -68 -41 -105.5t-90 -37.5q-50 0 -85 29.5t-44 81.5q-9 -53 -49 -82t-103 -29q-75 0 -125 33.5t-97 114.5l-33 57q-29 50 -71.5 68.5
t-102.5 18.5q-55 0 -88.5 -9t-33.5 -23q0 -11 9 -16t37 -9l81 -11q123 -17 167 -59q45 -42 45 -118z" />
    <glyph glyph-name="uniFEB8FBFD" unicode="&#xfeb8;&#xfbfd;" horiz-adv-x="1656" 
d="M1297 594q0 -29 -19.5 -49t-49.5 -20t-50 20t-20 49q0 30 20 50t50 20t49.5 -20t19.5 -50zM931 343l38 -65q22 -37 42 -50t58 -13q37 0 54 21t17 72v27h190v-46q0 -74 35 -74t35 74v81h190v-81q0 -38 14.5 -53.5t51.5 -15.5v-180l-40 -40q-71 0 -115 34t-55 95
q-7 -68 -41 -105.5t-90 -37.5q-50 0 -85 29.5t-44 81.5q-9 -53 -49 -82t-103 -29q-76 0 -125 31t-96 117l-31 57q-40 73 -85 100.5t-132 27.5q-60 0 -99.5 -9.5t-39.5 -27.5q0 -12 13 -18t50 -11l91 -12q122 -16 172 -60t50 -138q0 -143 -114.5 -223.5t-293.5 -80.5
q-384 0 -384 341q0 64 14 140h185q-10 -74 -10 -99q0 -78 57.5 -115t177.5 -37q88 0 145 8.5t57 23.5q0 20 -108 35l-91 12q-171 22 -171 175q0 79 54.5 153t140 118.5t174.5 44.5q100 0 167 -44q66 -43 129 -152zM1218 454q0 -29 -19.5 -49t-49.5 -20t-50 20t-20 49
q0 30 20 50t50 20t49.5 -20t19.5 -50zM1377 454q0 -29 -19.5 -49t-49.5 -20t-50 20t-20 49q0 30 20 50t50 20t49.5 -20t19.5 -50z" />
    <glyph glyph-name="uniFEBCFBFD" unicode="&#xfebc;&#xfbfd;" horiz-adv-x="1688" 
d="M802 43q0 -143 -114.5 -223.5t-293.5 -80.5q-384 0 -384 341q0 64 14 140h185q-10 -74 -10 -99q0 -78 57.5 -115t177.5 -37q88 0 145 8.5t57 23.5q0 20 -108 35l-91 12q-171 22 -171 175q0 79 54.5 153t140 118.5t174.5 44.5q51 0 87.5 -10t69.5 -36.5t58.5 -58.5
t65.5 -91l43 -65q4 -8 11 -14q154 275 368 275q112 0 187.5 -76.5t75.5 -190.5q0 -13 -2 -39q27 -13 89 -13v-177l-40 -43q-97 0 -140 72q-109 -86 -328 -86q-165 0 -238 29.5t-129 118.5l-36 57q-45 73 -87 100.5t-125 27.5q-60 0 -99.5 -9.5t-39.5 -27.5q0 -12 13 -18
t50 -11l91 -12q122 -16 172 -60t50 -138zM1334 319q-134 0 -253 -103q52 -6 139 -6q131 0 186 12.5t55 41.5q0 23 -36.5 39t-90.5 16z" />
    <glyph glyph-name="uniFEC0FBFD" unicode="&#xfec0;&#xfbfd;" horiz-adv-x="1688" 
d="M1419 675q0 -37 -24.5 -61.5t-61.5 -24.5t-62.5 24.5t-25.5 61.5t25.5 62.5t62.5 25.5t61.5 -25.5t24.5 -62.5zM802 43q0 -143 -114.5 -223.5t-293.5 -80.5q-384 0 -384 341q0 64 14 140h185q-10 -74 -10 -99q0 -78 57.5 -115t177.5 -37q88 0 145 8.5t57 23.5
q0 20 -108 35l-91 12q-171 22 -171 175q0 79 54.5 153t140 118.5t174.5 44.5q51 0 87.5 -10t69.5 -36.5t58.5 -58.5t65.5 -91l43 -65q4 -8 11 -14q154 275 368 275q112 0 187.5 -76.5t75.5 -190.5q0 -13 -2 -39q27 -13 89 -13v-177l-40 -43q-97 0 -140 72q-109 -86 -328 -86
q-165 0 -238 29.5t-129 118.5l-36 57q-45 73 -87 100.5t-125 27.5q-60 0 -99.5 -9.5t-39.5 -27.5q0 -12 13 -18t50 -11l91 -12q122 -16 172 -60t50 -138zM1334 319q-134 0 -253 -103q52 -6 139 -6q131 0 186 12.5t55 41.5q0 23 -36.5 39t-90.5 16z" />
    <glyph glyph-name="uniFECCFBFD" unicode="&#xfecc;&#xfbfd;" horiz-adv-x="1213" 
d="M791 -44q0 -92 -116.5 -154.5t-287.5 -62.5q-190 0 -283.5 85t-92.5 256q0 66 18 140h185q-9 -67 -9 -99q0 -152 202 -152q227 0 227 39q0 8 -18 16q-19 8 -82 8h-14v188h141l-50 56v200q141 33 265 33q143 0 205 -35q62 -34 64 -125q0 -68 -48 -130l117 1v-180l-40 -40
h-25q-167 0 -299 68q-53 -16 -118 -22q59 -26 59 -90zM876 309q-53 0 -113 -5q75 -63 145 -77q109 14 109 46q0 20 -33.5 28t-107.5 8z" />
    <glyph glyph-name="uniFED0FBFD" unicode="&#xfed0;&#xfbfd;" horiz-adv-x="1213" 
d="M977 646q0 -37 -24.5 -61.5t-61.5 -24.5t-62.5 24.5t-25.5 61.5t25.5 62.5t62.5 25.5t61.5 -25.5t24.5 -62.5zM791 -44q0 -92 -116.5 -154.5t-287.5 -62.5q-190 0 -283.5 85t-92.5 256q0 66 18 140h185q-9 -67 -9 -99q0 -152 202 -152q227 0 227 39q0 8 -18 16
q-19 8 -82 8h-14v188h141l-50 56v200q141 33 265 33q143 0 205 -35q62 -34 64 -125q0 -68 -48 -130l117 1v-180l-40 -40h-25q-167 0 -299 68q-53 -16 -118 -22q59 -26 59 -90zM876 309q-53 0 -113 -5q75 -63 145 -77q109 14 109 46q0 20 -33.5 28t-107.5 8z" />
    <glyph glyph-name="uniFEE0FBFD" unicode="&#xfee0;&#xfbfd;" horiz-adv-x="1031" 
d="M771 -28q0 -105 -98 -169t-286 -64q-190 0 -283.5 85t-92.5 256q0 66 18 140h185q-9 -67 -9 -99q0 -152 212 -152q197 0 197 37q0 28 -97 28h-113v220h293q36 0 50.5 16.5t14.5 52.5v420h206v-454q0 -38 15 -53.5t49 -15.5v-180l-40 -40q-93 0 -143 45t-54 130
q-13 -64 -76 -100q52 -38 52 -103z" />
    <glyph glyph-name="uniFEE8FBFD" unicode="&#xfee8;&#xfbfd;" horiz-adv-x="1069" 
d="M716 675q0 -37 -24.5 -61.5t-61.5 -24.5t-62.5 24.5t-25.5 61.5t25.5 62.5t62.5 25.5t61.5 -25.5t24.5 -62.5zM802 43q0 -143 -114.5 -223.5t-293.5 -80.5q-384 0 -384 341q0 64 14 140h185q-10 -74 -10 -99q0 -78 57.5 -115t177.5 -37q88 0 145 8.5t57 23.5
q0 20 -108 35l-91 12q-87 12 -129 54.5t-42 120.5q0 79 54.5 153t140 118.5t174.5 44.5q100 0 167 -44q66 -43 129 -152l38 -65q21 -34 41 -46t59 -12v-180l-40 -40q-79 0 -125.5 26.5t-90.5 107.5l-31 57q-40 73 -85 100.5t-132 27.5q-60 0 -99.5 -9.5t-39.5 -27.5
q0 -23 63 -29l91 -12q122 -16 172 -60t50 -138z" />
    <glyph glyph-name="uniFEF4FBFD" unicode="&#xfef4;&#xfbfd;" horiz-adv-x="1069" 
d="M802 43q0 -143 -114.5 -223.5t-293.5 -80.5q-384 0 -384 341q0 64 14 140h185q-10 -74 -10 -99q0 -78 57.5 -115t177.5 -37q88 0 145 8.5t57 23.5q0 20 -108 35l-91 12q-87 12 -129 54.5t-42 120.5q0 79 54.5 153t140 118.5t174.5 44.5q100 0 167 -44q66 -43 129 -152
l38 -65q21 -34 41 -46t59 -12v-180l-40 -40q-79 0 -125.5 26.5t-90.5 107.5l-31 57q-40 73 -85 100.5t-132 27.5q-60 0 -99.5 -9.5t-39.5 -27.5q0 -23 63 -29l91 -12q122 -16 172 -60t50 -138zM1071 -275q0 -37 -24.5 -61.5t-61.5 -24.5t-62.5 24.5t-25.5 61.5t25.5 62.5
t62.5 25.5t61.5 -25.5t24.5 -62.5zM877 -275q0 -37 -24.5 -61.5t-61.5 -24.5t-62.5 24.5t-25.5 61.5t25.5 62.5t62.5 25.5t61.5 -25.5t24.5 -62.5z" />
    <glyph glyph-name="uniFB59FBFD" unicode="&#xfb59;&#xfbfd;" horiz-adv-x="1069" 
d="M802 43q0 -143 -114.5 -223.5t-293.5 -80.5q-384 0 -384 341q0 64 14 140h185q-10 -74 -10 -99q0 -78 57.5 -115t177.5 -37q88 0 145 8.5t57 23.5q0 20 -108 35l-91 12q-87 12 -129 54.5t-42 120.5q0 79 54.5 153t140 118.5t174.5 44.5q100 0 167 -44q66 -43 129 -152
l38 -65q21 -34 41 -46t59 -12v-180l-40 -40q-79 0 -125.5 26.5t-90.5 107.5l-31 57q-40 73 -85 100.5t-132 27.5q-60 0 -99.5 -9.5t-39.5 -27.5q0 -23 63 -29l91 -12q122 -16 172 -60t50 -138zM1036 -250q0 -30 -20 -50t-50 -20t-49.5 20t-19.5 50q0 29 19.5 49t49.5 20
t50 -20t20 -49zM877 -250q0 -30 -20 -50t-50 -20t-49.5 20t-19.5 50q0 29 19.5 49t49.5 20t50 -20t20 -49zM957 -390q0 -30 -20 -50t-50 -20t-49.5 20t-19.5 50q0 29 19.5 49t49.5 20t50 -20t20 -49z" />
    <glyph glyph-name="uniFB91FBFD" unicode="&#xfb91;&#xfbfd;" horiz-adv-x="1045" 
d="M771 -28q0 -100 -109.5 -166.5t-274.5 -66.5q-190 0 -283.5 85t-92.5 256q0 66 18 140h185q-9 -67 -9 -99q0 -152 212 -152q197 0 197 37q0 28 -97 28h-93v220h204q35 0 35 20q0 14 -33 52l-65 75v177l484 247l-1 -200l-285 -146l137 -164q44 -54 76 -76q29 -19 70 -19
v-180l-40 -40q-65 0 -108.5 29t-109.5 117l-30 40q-1 -61 -46 -98q59 -40 59 -116z" />
    <glyph glyph-name="uniFB95FBFD" unicode="&#xfb95;&#xfbfd;" horiz-adv-x="1065" 
d="M1069 1025l-1 -135l-483 -247v135zM791 -28q0 -100 -116 -166.5t-288 -66.5q-190 0 -283.5 85t-92.5 256q0 66 18 140h185q-9 -67 -9 -99q0 -152 212 -152q217 0 217 37q0 28 -97 28h-93v220h204q35 0 35 20q0 14 -33 52l-65 75v177l484 247l-1 -200l-285 -146l137 -164
q44 -54 76 -76q29 -19 70 -19v-180l-40 -40q-65 0 -108.5 29t-109.5 117l-30 40q-1 -61 -46 -98q59 -40 59 -116z" />
    <glyph glyph-name="uniFE8CFBFD" unicode="&#xfe8c;&#xfbfd;" horiz-adv-x="1069" 
d="M759 709v-100l-249 -36v100l28 4q-17 24 -17 59q1 49 34.5 82.5t84.5 33.5q45 0 72.5 -29.5t30.5 -80.5l-60 -8q-13 18 -43 18q-42 0 -42 -24q0 -16 23 -26t56 -5zM802 43q0 -143 -114.5 -223.5t-293.5 -80.5q-384 0 -384 341q0 64 14 140h185q-10 -74 -10 -99
q0 -78 57.5 -115t177.5 -37q88 0 145 8.5t57 23.5q0 20 -108 35l-91 12q-87 12 -129 54.5t-42 120.5q0 79 54.5 153t140 118.5t174.5 44.5q100 0 167 -44q66 -43 129 -152l38 -65q21 -34 41 -46t59 -12v-180l-40 -40q-79 0 -125.5 26.5t-90.5 107.5l-31 57q-40 73 -85 100.5
t-132 27.5q-60 0 -99.5 -9.5t-39.5 -27.5q0 -23 63 -29l91 -12q122 -16 172 -60t50 -138z" />
    <glyph glyph-name="uniFEB4FEB0" unicode="&#xfeb4;&#xfeb0;" horiz-adv-x="1191" 
d="M240 543q0 -37 -24.5 -61.5t-61.5 -24.5t-62.5 24.5t-25.5 61.5t25.5 62.5t62.5 25.5t61.5 -25.5t24.5 -62.5zM318 125q0 -193 -69.5 -284.5t-216.5 -91.5q-48 0 -92 4v223q49 -7 88 -7q59 0 82 33t23 114q0 36 -10 138l-14 116l480 35l12 -116q4 -43 11.5 -58.5
t27.5 -15.5q35 0 35 74v46h190v-46q0 -74 35 -74t35 74v81h190v-81q0 -38 14.5 -53.5t51.5 -15.5v-180l-40 -40q-71 0 -115 34t-55 95q-7 -68 -41 -105.5t-90 -37.5q-49 0 -84 29t-45 80q-7 -51 -40.5 -80t-84.5 -29q-73 0 -111.5 42.5t-57.5 144.5l-110 -8q1 -13 1 -40z
" />
    <glyph glyph-name="uniFEB8FEB0" unicode="&#xfeb8;&#xfeb0;" horiz-adv-x="1191" 
d="M834 594q0 -29 -19.5 -49t-49.5 -20t-50 20t-20 49q0 30 20 50t50 20t49.5 -20t19.5 -50zM240 543q0 -37 -24.5 -61.5t-61.5 -24.5t-62.5 24.5t-25.5 61.5t25.5 62.5t62.5 25.5t61.5 -25.5t24.5 -62.5zM755 454q0 -29 -19.5 -49t-49.5 -20t-50 20t-20 49q0 30 20 50
t50 20t49.5 -20t19.5 -50zM914 454q0 -29 -19.5 -49t-49.5 -20t-50 20t-20 49q0 30 20 50t50 20t49.5 -20t19.5 -50zM318 125q0 -193 -69.5 -284.5t-216.5 -91.5q-48 0 -92 4v223q49 -7 88 -7q59 0 82 33t23 114q0 36 -10 138l-14 116l480 35l12 -116q4 -43 11.5 -58.5
t27.5 -15.5q35 0 35 74v46h190v-46q0 -74 35 -74t35 74v81h190v-81q0 -38 14.5 -53.5t51.5 -15.5v-180l-40 -40q-71 0 -115 34t-55 95q-7 -68 -41 -105.5t-90 -37.5q-49 0 -84 29t-45 80q-7 -51 -40.5 -80t-84.5 -29q-73 0 -111.5 42.5t-57.5 144.5l-110 -8q1 -13 1 -40z
" />
    <glyph glyph-name="uniFEBCFEB0" unicode="&#xfebc;&#xfeb0;" horiz-adv-x="1372" 
d="M243 578q0 -37 -24.5 -61.5t-61.5 -24.5t-62.5 24.5t-25.5 61.5t25.5 62.5t62.5 25.5t61.5 -25.5t24.5 -62.5zM318 125q0 -193 -69.5 -284.5t-216.5 -91.5q-48 0 -92 4v223q49 -7 88 -7q59 0 82 33t23 114q0 36 -10 138l-18 151l480 35l16 -151q1 -7 1 -19
q90 138 184.5 203.5t205.5 65.5q112 0 187.5 -76.5t75.5 -190.5v-17l3 -3q19 -19 42 -25.5t72 -6.5v-177l-40 -43q-108 0 -151 93q-118 -107 -430 -107q-160 0 -231 47t-97 176l-108 -8q3 -75 3 -76zM988 319q-146 0 -292 -112q17 -1 60 -1q147 0 224 6t106 17.5t29 34.5
t-36.5 39t-90.5 16z" />
    <glyph glyph-name="uniFEC0FEB0" unicode="&#xfec0;&#xfeb0;" horiz-adv-x="1372" 
d="M1063 675q0 -37 -24.5 -61.5t-61.5 -24.5t-62.5 24.5t-25.5 61.5t25.5 62.5t62.5 25.5t61.5 -25.5t24.5 -62.5zM243 578q0 -37 -24.5 -61.5t-61.5 -24.5t-62.5 24.5t-25.5 61.5t25.5 62.5t62.5 25.5t61.5 -25.5t24.5 -62.5zM318 125q0 -193 -69.5 -284.5t-216.5 -91.5
q-48 0 -92 4v223q49 -7 88 -7q59 0 82 33t23 114q0 36 -10 138l-18 151l480 35l16 -151q1 -7 1 -19q90 138 184.5 203.5t205.5 65.5q112 0 187.5 -76.5t75.5 -190.5v-17l3 -3q19 -19 42 -25.5t72 -6.5v-177l-40 -43q-108 0 -151 93q-118 -107 -430 -107q-160 0 -231 47
t-97 176l-108 -8q3 -75 3 -76zM988 319q-146 0 -292 -112q17 -1 60 -1q147 0 224 6t106 17.5t29 34.5t-36.5 39t-90.5 16z" />
    <glyph glyph-name="uniFB59FEB0" unicode="&#xfb59;&#xfeb0;" horiz-adv-x="672" 
d="M240 578q0 -37 -24.5 -61.5t-61.5 -24.5t-62.5 24.5t-25.5 61.5t25.5 62.5t62.5 25.5t61.5 -25.5t24.5 -62.5zM318 125q0 -193 -69.5 -284.5t-216.5 -91.5q-48 0 -92 4v223q49 -7 88 -7q59 0 82 33t23 114q0 36 -10 138l-18 151l480 35l16 -151q4 -39 19.5 -54t51.5 -15
v-180l-40 -40q-92 0 -141 47q-47 47 -69 162l-107 -8q3 -75 3 -76zM659 -109q0 -30 -20 -50t-50 -20t-49.5 20t-19.5 50q0 29 19.5 49t49.5 20t50 -20t20 -49zM500 -109q0 -30 -20 -50t-50 -20t-49.5 20t-19.5 50q0 29 19.5 49t49.5 20t50 -20t20 -49zM580 -249
q0 -30 -20 -50t-50 -20t-49.5 20t-19.5 50q0 29 19.5 49t49.5 20t50 -20t20 -49z" />
    <glyph glyph-name="uniFBFFFEB0" unicode="&#xfbff;&#xfeb0;" horiz-adv-x="672" 
d="M240 578q0 -37 -24.5 -61.5t-61.5 -24.5t-62.5 24.5t-25.5 61.5t25.5 62.5t62.5 25.5t61.5 -25.5t24.5 -62.5zM318 125q0 -193 -69.5 -284.5t-216.5 -91.5q-48 0 -92 4v223q49 -7 88 -7q59 0 82 33t23 114q0 36 -10 138l-18 151l480 35l16 -151q4 -39 19.5 -54t51.5 -15
v-180l-40 -40q-92 0 -141 47q-47 47 -69 162l-107 -8q3 -75 3 -76zM657 -107q0 -29 -19.5 -49t-49.5 -20t-50 20t-20 49q0 30 20 50t50 20t49.5 -20t19.5 -50zM502 -107q0 -29 -19.5 -49t-49.5 -20t-50 20t-20 49q0 30 20 50t50 20t49.5 -20t19.5 -50z" />
    <glyph glyph-name="uni066E.init" unicode="&#x66e;" horiz-adv-x="271" 
d="M21 0h-61v184l40 36q38 0 52 19.5t14 69.5q0 54 -13 166h190q13 -123 13 -206q0 -127 -61.5 -198t-173.5 -71z" />
    <glyph glyph-name="uni066E.medi" unicode="&#x66e;" horiz-adv-x="330" 
d="M330 220v-180l-40 -40q-77 0 -125 37t-59 103q-7 -66 -45.5 -103t-100.5 -37v184l40 36q41 0 56.5 16t15.5 53v116h190v-116q0 -38 15.5 -53.5t52.5 -15.5z" />
    <glyph glyph-name="uni066E.fina" unicode="&#x66e;" horiz-adv-x="976" 
d="M976 40l-40 -40q-72 0 -119 32.5t-62 92.5q-24 -66 -109.5 -102.5t-208.5 -36.5q-223 0 -323 75q-99 77 -99 239q0 64 16 140h187q-13 -53 -13 -96q0 -71 59 -100q59 -28 203 -28q150 0 200.5 14.5t50.5 58.5v116h190v-116q0 -38 15.5 -53.5t52.5 -15.5v-180z" />
    <glyph glyph-name="uni066F.fina" unicode="&#x66f;" horiz-adv-x="796" 
d="M796 40l-40 -40h-8q-22 -138 -112.5 -204.5t-254.5 -66.5q-371 0 -371 353q0 84 18 167h187q-15 -82 -15 -130q1 -90 51 -130t168 -40q157 0 197 51h-123q-105 0 -165 56.5t-60 153.5q0 109 73.5 191t175.5 82q85 0 146.5 -69.5t83.5 -193.5h49v-180zM471 220h120
q-47 60 -126 60q-28 0 -47.5 -9.5t-19.5 -24.5q0 -26 73 -26z" />
    <glyph glyph-name="uni06A1.init" unicode="&#x6a1;" horiz-adv-x="547" 
d="M249 0h-289v184l40 36h263q67 0 95.5 12t35.5 44q-57 -26 -179 -26q-93 0 -144.5 46.5t-51.5 125.5q0 99 72 175.5t166 76.5q107 0 183 -105.5t76 -268.5q0 -300 -267 -300zM149 438q0 -28 75 -28q21 0 129 3q-51 56 -131 56q-36 0 -54.5 -9.5t-18.5 -21.5z" />
    <glyph glyph-name="uni06A1.medi" unicode="&#x6a1;" horiz-adv-x="534" 
d="M24 0h-64v184l40 36h37q-13 33 -13 74q0 100 71 172.5t175 72.5q101 0 170 -73t69 -174q0 -38 -18 -72h43v-180l-40 -40h-30q-122 0 -219 37q-109 -37 -221 -37zM164 281q0 -38 115 -52q43 6 66.5 19.5t23.5 27.5q0 19 -31.5 31.5t-77.5 11.5q-96 0 -96 -38z" />
    <glyph glyph-name="uni06A1.fina" unicode="&#x6a1;" horiz-adv-x="984" 
d="M949 292q0 -39 -16 -72h51v-180l-40 -40q-131 0 -241 34q-132 -48 -273 -48q-217 0 -316 76t-99 242q0 68 15 136h187q-12 -54 -12 -92q0 -73 50 -103q50 -29 175 -29h48q-14 39 -14 78q0 100 71 172.5t175 72.5q101 0 170 -73t69 -174zM604 284q0 -37 119 -51
q86 14 86 43q0 17 -32 30t-77 13q-40 0 -68 -10t-28 -25z" />
    <glyph glyph-name="uni06C2.fina" unicode="&#x6c2;" horiz-adv-x="614" 
d="M437 797v-100l-249 -36v100l28 4q-17 24 -17 59q1 49 34.5 82.5t84.5 33.5q45 0 72.5 -29.5t30.5 -80.5l-60 -8q-13 18 -43 18q-42 0 -42 -24q0 -16 23 -26t56 -5zM614 220v-180l-40 -40q-105 0 -154 35t-61 112q-37 -118 -165 -118q-87 0 -135.5 53t-48.5 147
q0 89 50 153t141 94l142 48v103h206v-338q0 -38 14.5 -53.5t50.5 -15.5zM150 279q0 -30 78 -30q115 0 115 74v42l-130 -44q-38 -13 -50.5 -21.5t-12.5 -20.5z" />
    <glyph glyph-name="uni06C3.fina" unicode="&#x6c3;" horiz-adv-x="759" 
d="M564 621q0 -37 -24.5 -61.5t-61.5 -24.5t-62.5 24.5t-25.5 61.5t25.5 62.5t62.5 25.5t61.5 -25.5t24.5 -62.5zM370 621q0 -37 -24.5 -61.5t-61.5 -24.5t-62.5 24.5t-25.5 61.5t25.5 62.5t62.5 25.5t61.5 -25.5t24.5 -62.5zM759 220v-180l-40 -40q-125 0 -180 34t-93 137
l-20 52q-9 25 -21 33.5t-37 8.5q-91 0 -328 -132v190q247 162 383 162q68 0 100 -28q35 -29 66 -111l20 -52q17 -44 39 -59t71 -15h40z" />
    <glyph glyph-name="uni06CC.init" unicode="&#x6cc;" horiz-adv-x="271" arabic-form="initial" 
d="M21 0h-61v184l40 36q38 0 52 19.5t14 69.5q0 54 -13 166h190q13 -123 13 -206q0 -127 -61.5 -198t-173.5 -71zM294 -151q0 -29 -19.5 -49t-49.5 -20t-50 20t-20 49q0 30 20 50t50 20t49.5 -20t19.5 -50zM135 -151q0 -29 -19.5 -49t-49.5 -20t-50 20t-20 49q0 30 20 50
t50 20t49.5 -20t19.5 -50z" />
    <glyph glyph-name="uni06D5.fina" unicode="&#x6d5;" horiz-adv-x="614" 
d="M614 220v-180l-40 -40q-105 0 -154 35t-61 112q-37 -118 -165 -118q-87 0 -135.5 53t-48.5 147q0 89 50 153t141 94l142 48v103h206v-338q0 -38 14.5 -53.5t50.5 -15.5zM150 279q0 -30 78 -30q115 0 115 74v42l-130 -44q-38 -13 -50.5 -21.5t-12.5 -20.5z" />
    <glyph glyph-name="uniFB51" unicode="&#x671;" horiz-adv-x="335" arabic-form="final" 
d="M54 613h-76q0 127 97 133q56 134 153 134q51 0 80 -33t29 -91q0 -125 -119 -125q-22 0 -65.5 7.5t-66.5 7.5q-32 0 -32 -33zM222 780q-47 0 -72 -41q46 -8 66 -8q50 0 50 25q0 24 -44 24zM335 220v-180l-40 -40q-128 0 -179 64t-51 225v304h206v-304q0 -39 14 -54t50 -15
z" />
    <glyph glyph-name="uniFB57" unicode="&#x67e;" horiz-adv-x="976" arabic-form="final" 
d="M976 40l-40 -40q-72 0 -119 32.5t-62 92.5q-24 -66 -109.5 -102.5t-208.5 -36.5q-223 0 -323 75q-99 77 -99 239q0 64 16 140h187q-13 -53 -13 -96q0 -71 59 -100q59 -28 203 -28q150 0 200.5 14.5t50.5 58.5v116h190v-116q0 -38 15.5 -53.5t52.5 -15.5v-180zM616 -123
q0 -30 -20 -50t-50 -20t-49.5 20t-19.5 50q0 29 19.5 49t49.5 20t50 -20t20 -49zM457 -123q0 -30 -20 -50t-50 -20t-49.5 20t-19.5 50q0 29 19.5 49t49.5 20t50 -20t20 -49zM537 -263q0 -30 -20 -50t-50 -20t-49.5 20t-19.5 50q0 29 19.5 49t49.5 20t50 -20t20 -49z" />
    <glyph glyph-name="uniFB58" unicode="&#x67e;" horiz-adv-x="271" arabic-form="initial" 
d="M21 0h-61v184l40 36q38 0 52 19.5t14 69.5q0 54 -13 166h190q13 -123 13 -206q0 -127 -61.5 -198t-173.5 -71zM294 -109q0 -30 -20 -50t-50 -20t-49.5 20t-19.5 50q0 29 19.5 49t49.5 20t50 -20t20 -49zM135 -109q0 -30 -20 -50t-50 -20t-49.5 20t-19.5 50q0 29 19.5 49
t49.5 20t50 -20t20 -49zM215 -249q0 -30 -20 -50t-50 -20t-49.5 20t-19.5 50q0 29 19.5 49t49.5 20t50 -20t20 -49z" />
    <glyph glyph-name="uniFB59" unicode="&#x67e;" horiz-adv-x="330" arabic-form="medial" 
d="M330 220v-180l-40 -40q-77 0 -125 37t-59 103q-7 -66 -45.5 -103t-100.5 -37v184l40 36q41 0 56.5 16t15.5 53v116h190v-116q0 -38 15.5 -53.5t52.5 -15.5zM307 -109q0 -30 -20 -50t-50 -20t-49.5 20t-19.5 50q0 29 19.5 49t49.5 20t50 -20t20 -49zM148 -109
q0 -30 -20 -50t-50 -20t-49.5 20t-19.5 50q0 29 19.5 49t49.5 20t50 -20t20 -49zM228 -249q0 -30 -20 -50t-50 -20t-49.5 20t-19.5 50q0 29 19.5 49t49.5 20t50 -20t20 -49z" />
    <glyph glyph-name="uniFB67" unicode="&#x679;" horiz-adv-x="976" arabic-form="final" 
d="M485 409h-192v100h51l12 26v206h77v-110q40 27 82 27q51 0 80 -33t29 -91q0 -64 -34 -94.5t-105 -30.5zM509 558q-57 0 -88 -49h62q70 0 70 25q0 24 -44 24zM976 40l-40 -40q-72 0 -119 32.5t-62 92.5q-24 -66 -109.5 -102.5t-208.5 -36.5q-223 0 -323 75q-99 77 -99 239
q0 64 16 140h187q-13 -53 -13 -96q0 -71 59 -100q59 -28 203 -28q150 0 200.5 14.5t50.5 58.5v116h190v-116q0 -38 15.5 -53.5t52.5 -15.5v-180z" />
    <glyph glyph-name="uniFB68" unicode="&#x679;" horiz-adv-x="271" arabic-form="initial" 
d="M164 529h-192v100h51l12 26v206h77v-110q40 27 82 27q51 0 80 -33t29 -91q0 -64 -34 -94.5t-105 -30.5zM188 678q-57 0 -88 -49h62q70 0 70 25q0 24 -44 24zM21 0h-61v184l40 36q38 0 52 19.5t14 69.5q0 54 -13 166h190q13 -123 13 -206q0 -127 -61.5 -198t-173.5 -71z
" />
    <glyph glyph-name="uniFB69" unicode="&#x679;" horiz-adv-x="330" arabic-form="medial" 
d="M188 459h-192v100h51l12 26v206h77v-110q40 27 82 27q51 0 80 -33t29 -91q0 -64 -34 -94.5t-105 -30.5zM212 608q-57 0 -88 -49h62q70 0 70 25q0 24 -44 24zM330 220v-180l-40 -40q-77 0 -125 37t-59 103q-7 -66 -45.5 -103t-100.5 -37v184l40 36q41 0 56.5 16t15.5 53
v116h190v-116q0 -38 15.5 -53.5t52.5 -15.5z" />
    <glyph glyph-name="uniFB6B" unicode="&#x6a4;" horiz-adv-x="984" arabic-form="final" 
d="M779 798q0 -29 -19.5 -49t-49.5 -20t-50 20t-20 49q0 30 20 50t50 20t49.5 -20t19.5 -50zM700 658q0 -29 -19.5 -49t-49.5 -20t-50 20t-20 49q0 30 20 50t50 20t49.5 -20t19.5 -50zM859 658q0 -29 -19.5 -49t-49.5 -20t-50 20t-20 49q0 30 20 50t50 20t49.5 -20t19.5 -50
zM949 292q0 -39 -16 -72h51v-180l-40 -40q-131 0 -241 34q-132 -48 -273 -48q-217 0 -316 76t-99 242q0 68 15 136h187q-12 -54 -12 -92q0 -73 50 -103q50 -29 175 -29h48q-14 39 -14 78q0 100 71 172.5t175 72.5q101 0 170 -73t69 -174zM604 284q0 -37 119 -51q86 14 86 43
q0 17 -32 30t-77 13q-40 0 -68 -10t-28 -25z" />
    <glyph glyph-name="uniFB6C" unicode="&#x6a4;" horiz-adv-x="547" arabic-form="initial" 
d="M315 935q0 -29 -19.5 -49t-49.5 -20t-50 20t-20 49q0 30 20 50t50 20t49.5 -20t19.5 -50zM236 795q0 -29 -19.5 -49t-49.5 -20t-50 20t-20 49q0 30 20 50t50 20t49.5 -20t19.5 -50zM395 795q0 -29 -19.5 -49t-49.5 -20t-50 20t-20 49q0 30 20 50t50 20t49.5 -20t19.5 -50
zM249 0h-289v184l40 36h263q67 0 95.5 12t35.5 44q-57 -26 -179 -26q-93 0 -144.5 46.5t-51.5 125.5q0 99 72 175.5t166 76.5q107 0 183 -105.5t76 -268.5q0 -300 -267 -300zM149 438q0 -28 75 -28q21 0 129 3q-51 56 -131 56q-36 0 -54.5 -9.5t-18.5 -21.5z" />
    <glyph glyph-name="uniFB6D" unicode="&#x6a4;" horiz-adv-x="534" arabic-form="medial" 
d="M339 798q0 -29 -19.5 -49t-49.5 -20t-50 20t-20 49q0 30 20 50t50 20t49.5 -20t19.5 -50zM260 658q0 -29 -19.5 -49t-49.5 -20t-50 20t-20 49q0 30 20 50t50 20t49.5 -20t19.5 -50zM419 658q0 -29 -19.5 -49t-49.5 -20t-50 20t-20 49q0 30 20 50t50 20t49.5 -20t19.5 -50
zM24 0h-64v184l40 36h37q-13 33 -13 74q0 100 71 172.5t175 72.5q101 0 170 -73t69 -174q0 -38 -18 -72h43v-180l-40 -40h-30q-122 0 -219 37q-109 -37 -221 -37zM164 281q0 -38 115 -52q43 6 66.5 19.5t23.5 27.5q0 19 -31.5 31.5t-77.5 11.5q-96 0 -96 -38z" />
    <glyph glyph-name="uniFB7B" unicode="&#x686;" horiz-adv-x="756" arabic-form="final" 
d="M695 -40v-240q-121 -52 -286 -52q-186 0 -293 86q-106 85 -106 231q0 291 373 358l-59 15q-40 11 -78 11q-46 0 -52 -38h-160q0 121 55.5 189.5t152.5 68.5q73 0 171 -39l139 -55q74 -29 127 -29h17l-1 -210h-52q1 -21 24.5 -28.5t88.5 -7.5v-177l-40 -43
q-100 0 -154 60.5t-54 166.5v17q-140 -22 -224 -76.5t-84 -126.5q0 -131 229 -131q140 0 266 50zM525 111q0 -27 -18 -45t-45 -18t-44.5 18t-17.5 45q0 26 17.5 44t44.5 18t45 -18t18 -44zM382 111q0 -27 -18 -45t-45 -18t-44.5 18t-17.5 45q0 26 17.5 44t44.5 18t45 -18
t18 -44zM454 -15q0 -27 -18 -45t-45 -18t-44.5 18t-17.5 45q0 26 17.5 44t44.5 18t45 -18t18 -44z" />
    <glyph glyph-name="uniFB7C" unicode="&#x686;" horiz-adv-x="736" arabic-form="initial" 
d="M93 0h-133v184l40 36h93q73 0 140 9q71 9 106 25l68 27q3 1 8 3t7 3l-51 9l-77 15q-51 8 -67 8q-19 0 -32 -10t-16 -28h-160q0 121 55.5 189.5t152.5 68.5q45 0 129 -23l194 -52q30 -8 71 -14q27 -4 78 -4h17l-1 -190h-30q-58 0 -96 -18t-109 -72l-81 -61
q-83 -62 -144.5 -83.5t-161.5 -21.5zM517 -109q0 -30 -20 -50t-50 -20t-49.5 20t-19.5 50q0 29 19.5 49t49.5 20t50 -20t20 -49zM358 -109q0 -30 -20 -50t-50 -20t-49.5 20t-19.5 50q0 29 19.5 49t49.5 20t50 -20t20 -49zM438 -249q0 -30 -20 -50t-50 -20t-49.5 20t-19.5 50
q0 29 19.5 49t49.5 20t50 -20t20 -49z" />
    <glyph glyph-name="uniFB7D" unicode="&#x686;" horiz-adv-x="743" arabic-form="medial" 
d="M93 0h-133v184l40 36h93q73 0 140 9q71 9 106 25l68 27q3 1 8 3t7 3l-51 9l-77 15q-51 8 -67 8q-19 0 -32 -10t-16 -28h-160q0 121 55.5 189.5t152.5 68.5q45 0 129 -23l194 -52q30 -8 71 -14q27 -4 78 -4h17l-1 -190h-30q-27 0 -54 -5q3 -18 27 -24.5t85 -6.5v-177
l-40 -43q-89 0 -141.5 47.5t-63.5 132.5q-3 -2 -9.5 -7t-8.5 -7l-81 -61q-83 -62 -144.5 -83.5t-161.5 -21.5zM517 -109q0 -30 -20 -50t-50 -20t-49.5 20t-19.5 50q0 29 19.5 49t49.5 20t50 -20t20 -49zM358 -109q0 -30 -20 -50t-50 -20t-49.5 20t-19.5 50q0 29 19.5 49
t49.5 20t50 -20t20 -49zM438 -249q0 -30 -20 -50t-50 -20t-49.5 20t-19.5 50q0 29 19.5 49t49.5 20t50 -20t20 -49z" />
    <glyph glyph-name="uniFB89" unicode="&#x688;" horiz-adv-x="636" arabic-form="final" 
d="M361 621h-192v100h51l12 26v206h77v-110q40 27 82 27q51 0 80 -33t29 -91q0 -64 -34 -94.5t-105 -30.5zM385 770q-57 0 -88 -49h62q70 0 70 25q0 24 -44 24zM636 220v-180l-40 -40q-54 0 -90.5 15.5t-66.5 55.5q-93 -86 -205 -86q-123 0 -171 65q-48 66 -48 203h170
q2 -26 17.5 -37t59.5 -11q57 0 103 11l-21 56l-106 294h233l73 -220q25 -76 41 -102q15 -24 51 -24z" />
    <glyph glyph-name="uniFB8B" unicode="&#x698;" horiz-adv-x="400" arabic-form="final" 
d="M247 664q0 -29 -19.5 -49t-49.5 -20t-50 20t-20 49q0 30 20 50t50 20t49.5 -20t19.5 -50zM168 524q0 -29 -19.5 -49t-49.5 -20t-50 20t-20 49q0 30 20 50t50 20t49.5 -20t19.5 -50zM327 524q0 -29 -19.5 -49t-49.5 -20t-50 20t-20 49q0 30 20 50t50 20t49.5 -20t19.5 -50
zM400 40l-40 -40q-72 0 -103 46q-4 -151 -59.5 -224t-167.5 -73q-57 0 -90 4v221q47 -5 68 -5q50 0 84 32q34 31 34 123q0 105 -39 281h201l12 -76q10 -65 30.5 -87t69.5 -22v-180z" />
    <glyph glyph-name="uniFB8D" unicode="&#x691;" horiz-adv-x="400" arabic-form="final" 
d="M199 459h-192v100h51l12 26v206h77v-110q40 27 82 27q51 0 80 -33t29 -91q0 -64 -34 -94.5t-105 -30.5zM223 608q-57 0 -88 -49h62q70 0 70 25q0 24 -44 24zM400 40l-40 -40q-72 0 -103 46q-4 -151 -59.5 -224t-167.5 -73q-57 0 -90 4v221q47 -5 68 -5q50 0 84 32
q34 31 34 123q0 105 -39 281h201l12 -76q10 -65 30.5 -87t69.5 -22v-180z" />
    <glyph glyph-name="uniFB8F" unicode="&#x6a9;" horiz-adv-x="923" arabic-form="final" 
d="M667 146l-3 3q-6 -74 -83 -118.5t-194 -44.5q-191 0 -281.5 76t-90.5 238q0 64 16 140h187q-13 -60 -13 -96q0 -72 51 -100q50 -28 181 -28q76 0 106 5q27 6 27 22t-39 50l-89 78v177l484 247v-200l-279 -143l133 -137q56 -58 83 -76q28 -19 60 -19v-180l-40 -40
q-55 0 -94.5 27t-121.5 119z" />
    <glyph glyph-name="uniFB90" unicode="&#x6a9;" horiz-adv-x="504" arabic-form="initial" 
d="M191 0h-231v184l40 36h262q38 0 38 18q0 12 -14.5 20t-53.5 18l-212 55v187l484 247l-1 -200l-237 -118l10 -3q94 -25 139 -75.5t45 -133.5q0 -112 -69 -173.5t-200 -61.5z" />
    <glyph glyph-name="uniFB91" unicode="&#x6a9;" horiz-adv-x="513" arabic-form="medial" 
d="M81 0h-121v184l40 36h123q37 0 37 22q0 18 -33 46l-103 93v177l484 237v-200l-279 -135l138 -145q58 -60 82 -76q28 -19 64 -19v-180l-40 -40q-65 0 -108.5 29t-109.5 117l-1 1q-5 -66 -56 -107q-49 -40 -117 -40z" />
    <glyph glyph-name="uniFB93" unicode="&#x6af;" horiz-adv-x="923" arabic-form="final" 
d="M926 995l-1 -135l-483 -247v135zM667 146l-3 3q-6 -74 -83 -118.5t-194 -44.5q-191 0 -281.5 76t-90.5 238q0 64 16 140h187q-13 -60 -13 -96q0 -72 51 -100q50 -28 181 -28q76 0 106 5q27 6 27 22t-39 50l-89 78v177l484 247v-200l-279 -143l133 -137q56 -58 83 -76
q28 -19 60 -19v-180l-40 -40q-55 0 -94.5 27t-121.5 119z" />
    <glyph glyph-name="uniFB94" unicode="&#x6af;" horiz-adv-x="504" arabic-form="initial" 
d="M504 965l-1 -135l-483 -247v135zM191 0h-231v184l40 36h262q38 0 38 18q0 12 -14.5 20t-53.5 18l-212 55v187l484 247l-1 -200l-237 -118l10 -3q94 -25 139 -75.5t45 -133.5q0 -112 -69 -173.5t-200 -61.5z" />
    <glyph glyph-name="uniFB95" unicode="&#x6af;" horiz-adv-x="513" arabic-form="medial" 
d="M516 995l-1 -135l-483 -247v135zM81 0h-121v184l40 36h123q37 0 37 22q0 18 -33 46l-103 93v177l484 237v-200l-279 -135l138 -145q58 -60 82 -76q28 -19 64 -19v-180l-40 -40q-65 0 -108.5 29t-109.5 117l-1 1q-5 -66 -56 -107q-49 -40 -117 -40z" />
    <glyph glyph-name="uniFB9F" unicode="&#x6ba;" horiz-adv-x="773" arabic-form="final" 
d="M773 40l-40 -40q-68 0 -104 40q-31 -236 -293 -236q-166 0 -246 90t-80 251q0 56 16 154h185q-11 -57 -11 -100q0 -81 37.5 -123t123.5 -42q174 0 174 120q0 45 -19 150l-6 31h190l8 -40q9 -45 22 -60t43 -15v-180z" />
    <glyph glyph-name="uniFBA7" unicode="&#x6c1;" horiz-adv-x="759" arabic-form="final" 
d="M759 220v-180l-40 -40q-125 0 -180 34t-93 137l-20 52q-9 25 -21 33.5t-37 8.5q-91 0 -328 -132v190q247 162 383 162q68 0 100 -28q35 -29 66 -111l20 -52q17 -44 39 -59t71 -15h40z" />
    <glyph glyph-name="uniFBA8" unicode="&#x6c1;" horiz-adv-x="535" arabic-form="initial" 
d="M520 254q0 -128 -61 -198t-165 -70q-74 0 -123 34t-60 95q-8 -55 -47 -85t-104 -30v184l40 36q42 0 58.5 15.5t16.5 53.5v46h190v-46q0 -74 35 -74q30 0 30 59q0 40 -11 96h191q10 -59 10 -116zM385 -332h-188q-14 39 -14 71q0 59 57 159l28 49l137 -55l-14 -46
q-15 -55 -15 -89q0 -38 9 -89z" />
    <glyph glyph-name="uniFBA9" unicode="&#x6c1;" horiz-adv-x="623" arabic-form="medial" 
d="M510 -91v-86l-152 -132l-191 192q-76 79 -59 167q-58 -50 -148 -50v184l40 36q61 0 93.5 18t68.5 61l27 32l130 -111l-37 -44q-63 -76 14 -153l59 -59v36q0 107 60 163.5t208 56.5v-180l-40 -40q-73 0 -73 -91z" />
    <glyph glyph-name="uniFBAB" unicode="&#x6be;" horiz-adv-x="630" arabic-form="final" 
d="M611 -78q0 -73 -59.5 -123t-163.5 -50q-93 0 -173 67t-129 186q-28 1 -76 7v217q48 -5 101 -6q61 104 192 235h200q45 -53 45 -137q0 -46 -22 -98h104v-180l-38 -38q19 -31 19 -80zM418 277q0 29 -69 57q-58 -52 -103 -114q103 2 137.5 14t34.5 43zM464 -17q0 13 -28 26
q-25 13 -111 28q-43 -18 -94 -29q58 -49 163 -49q70 0 70 24z" />
    <glyph glyph-name="uniFBAC" unicode="&#x6be;" horiz-adv-x="666" arabic-form="initial" 
d="M651 254q0 -125 -71.5 -196.5t-198.5 -71.5q-108 0 -200 47q-101 -33 -221 -33v184l40 36h25q-10 36 -10 79q0 56 27 102.5t73 71.5v144l197 -50q190 -51 264.5 -119t74.5 -194zM155 299q0 -43 52 -65q45 9 62.5 25t17.5 40q0 22 -19.5 38t-47.5 16q-30 0 -47.5 -15.5
t-17.5 -38.5zM413 314v-15q0 -49 -18 -93h37q44 0 61.5 8.5t17.5 29.5q0 44 -98 70z" />
    <glyph glyph-name="uniFBAD" unicode="&#x6be;" horiz-adv-x="560" arabic-form="medial" 
d="M541 -78q0 -73 -59.5 -123t-163.5 -50q-93 0 -172.5 66.5t-129.5 184.5h-56v184l40 36l40 -1q65 108 193 236h200q45 -53 45 -137q0 -46 -22 -98h104v-180l-38 -38q19 -31 19 -80zM348 277q0 32 -77 60q-59 -59 -97 -118q104 2 139 14.5t35 43.5zM394 -17q0 13 -28 26
q-25 13 -111 28q-43 -18 -94 -29q58 -49 163 -49q70 0 70 24z" />
    <glyph glyph-name="uniFBAF" unicode="&#x6d2;" horiz-adv-x="993" arabic-form="final" 
d="M971 -95v-219q-146 -18 -380 -18q-282 0 -416.5 58.5t-134.5 180.5q0 126 141.5 219.5t367.5 93.5h444v-184l-40 -36h-404q-175 0 -257 -24t-82 -49q0 -24 75.5 -31.5t305.5 -7.5q223 0 380 17z" />
    <glyph glyph-name="uniFBB1" unicode="&#x6d3;" horiz-adv-x="993" arabic-form="final" 
d="M518 390v-100l-249 -36v100l28 4q-17 24 -17 59q1 49 34.5 82.5t84.5 33.5q45 0 72.5 -29.5t30.5 -80.5l-60 -8q-13 18 -43 18q-42 0 -42 -24q0 -16 23 -26t56 -5zM971 -95v-219q-146 -18 -380 -18q-282 0 -416.5 58.5t-134.5 180.5q0 126 141.5 219.5t367.5 93.5h444
v-184l-40 -36h-404q-175 0 -257 -24t-82 -49q0 -24 75.5 -31.5t305.5 -7.5q223 0 380 17z" />
    <glyph glyph-name="uniFBFD" unicode="&#x6cc;" horiz-adv-x="821" arabic-form="final" 
d="M790 -54q0 -85 -117 -146t-287 -61q-376 0 -376 323q0 72 21 158h185q-15 -72 -15 -114q0 -137 205 -137q227 0 227 34q0 19 -79 19h-35v198h302v-180l-40 -40h-9q18 -18 18 -54z" />
    <glyph glyph-name="uniFBFF" unicode="&#x6cc;" horiz-adv-x="330" arabic-form="medial" 
d="M330 220v-180l-40 -40q-77 0 -125 37t-59 103q-7 -66 -45.5 -103t-100.5 -37v184l40 36q41 0 56.5 16t15.5 53v116h190v-116q0 -38 15.5 -53.5t52.5 -15.5zM307 -151q0 -29 -19.5 -49t-49.5 -20t-50 20t-20 49q0 30 20 50t50 20t49.5 -20t19.5 -50zM148 -151
q0 -29 -19.5 -49t-49.5 -20t-50 20t-20 49q0 30 20 50t50 20t49.5 -20t19.5 -50z" />
    <glyph glyph-name="uniFDFC" unicode="&#xfdfc;" horiz-adv-x="1360" arabic-form="isolated" 
d="M737 411v-237q0 -178 -100 -274q-101 -96 -277 -96q-182 0 -266 81q-84 79 -84 220q0 66 15 134h185q-11 -38 -11 -82q0 -60 37.5 -91.5t123.5 -31.5q97 0 136 31t39 109v138q-104 -40 -190 -40q-117 0 -185 58q-68 59 -68 200q0 69 10 139h203q-9 -67 -9 -90
q0 -41 22.5 -59.5t70.5 -18.5q67 0 146 29v263h202v-164l84 45v119h202v-49q39 7 82 7q115 0 171 -60t56 -190h-190q0 50 -64 50q-26 0 -55 -6v-249q0 -45 14 -60.5t52 -15.5t52 19.5t14 69.5q0 25 -13 114h190q13 -104 13 -154q0 -269 -256 -269q-157 0 -212.5 63.5
t-55.5 232.5v160zM1090 -107q0 -29 -19.5 -49t-49.5 -20t-50 20t-20 49q0 30 20 50t50 20t49.5 -20t19.5 -50zM1237 -107q0 -29 -19.5 -49t-49.5 -20t-50 20t-20 49q0 30 20 50t50 20t49.5 -20t19.5 -50z" />
    <glyph glyph-name="uniFE82" unicode="&#x622;" horiz-adv-x="310" arabic-form="final" 
d="M49 623h-76q0 143 108 143q27 0 73.5 -8.5t70.5 -8.5q30 0 57 7v-107q-24 -10 -60 -10q-45 0 -75 8q-29 9 -66 9q-32 0 -32 -33zM310 220v-180l-40 -40q-128 0 -179 64t-51 225v304h206v-304q0 -39 14 -54t50 -15z" />
    <glyph glyph-name="uniFE84" unicode="&#x623;" horiz-adv-x="310" arabic-form="final" 
d="M262 763v-100l-249 -36v100l28 4q-17 24 -17 59q1 49 34.5 82.5t84.5 33.5q45 0 72.5 -29.5t30.5 -80.5l-60 -8q-13 18 -43 18q-42 0 -42 -24q0 -16 23 -26t56 -5zM310 220v-180l-40 -40q-128 0 -179 64t-51 225v304h206v-304q0 -39 14 -54t50 -15z" />
    <glyph glyph-name="uniFE86" unicode="&#x624;" horiz-adv-x="527" arabic-form="final" 
d="M378 655v-100l-249 -36v100l28 4q-17 24 -17 59q1 49 34.5 82.5t84.5 33.5q45 0 72.5 -29.5t30.5 -80.5l-60 -8q-13 18 -43 18q-42 0 -42 -24q0 -16 23 -26t56 -5zM527 220v-180l-20 -20q-18 -124 -91 -197.5t-210 -73.5q-83 0 -169 20v198q83 -18 161 -18t119 11.5
t58 39.5h-135q-104 0 -164.5 57.5t-60.5 154.5q0 109 73.5 191t175.5 82q89 0 153 -69.5t85 -195.5h25zM208 220h142q-50 62 -138 62q-28 0 -47.5 -9.5t-19.5 -24.5q0 -28 63 -28z" />
    <glyph glyph-name="uniFE88" unicode="&#x625;" horiz-adv-x="310" arabic-form="final" 
d="M310 40l-40 -40h-20q-114 0 -162 55.5t-48 176.5v511h206v-454q0 -41 13 -55t51 -14v-180zM266 -183v-100l-249 -36v100l28 4q-17 24 -17 59q1 49 34.5 82.5t84.5 33.5q45 0 72.5 -29.5t30.5 -80.5l-60 -8q-13 18 -43 18q-42 0 -42 -24q0 -16 23 -26t56 -5z" />
    <glyph glyph-name="uniFE8A" unicode="&#x626;" horiz-adv-x="821" arabic-form="final" 
d="M240 390v-100l-249 -36v100l28 4q-17 24 -17 59q1 49 34.5 82.5t84.5 33.5q45 0 72.5 -29.5t30.5 -80.5l-60 -8q-13 18 -43 18q-42 0 -42 -24q0 -16 23 -26t56 -5zM790 -54q0 -85 -117 -146t-287 -61q-376 0 -376 323q0 72 21 158h185q-15 -72 -15 -114q0 -137 205 -137
q227 0 227 34q0 19 -79 19h-35v198h302v-180l-40 -40h-9q18 -18 18 -54z" />
    <glyph glyph-name="uniFE8B" unicode="&#x626;" horiz-adv-x="271" arabic-form="initial" 
d="M267 645v-100l-249 -36v100l28 4q-17 24 -17 59q1 49 34.5 82.5t84.5 33.5q45 0 72.5 -29.5t30.5 -80.5l-60 -8q-13 18 -43 18q-42 0 -42 -24q0 -16 23 -26t56 -5zM21 0h-61v184l40 36q38 0 52 19.5t14 69.5q0 54 -13 166h190q13 -123 13 -206q0 -127 -61.5 -198
t-173.5 -71z" />
    <glyph glyph-name="uniFE8C" unicode="&#x626;" horiz-adv-x="330" arabic-form="medial" 
d="M291 575v-100l-249 -36v100l28 4q-17 24 -17 59q1 49 34.5 82.5t84.5 33.5q45 0 72.5 -29.5t30.5 -80.5l-60 -8q-13 18 -43 18q-42 0 -42 -24q0 -16 23 -26t56 -5zM330 220v-180l-40 -40q-77 0 -125 37t-59 103q-7 -66 -45.5 -103t-100.5 -37v184l40 36q41 0 56.5 16
t15.5 53v116h190v-116q0 -38 15.5 -53.5t52.5 -15.5z" />
    <glyph glyph-name="uniFE8E" unicode="&#x627;" horiz-adv-x="310" arabic-form="final" 
d="M310 40l-40 -40h-20q-114 0 -162 55.5t-48 176.5v511h206v-454q0 -41 13 -55t51 -14v-180z" />
    <glyph glyph-name="uniFE90" unicode="&#x628;" horiz-adv-x="976" arabic-form="final" 
d="M976 40l-40 -40q-72 0 -119 32.5t-62 92.5q-24 -66 -109.5 -102.5t-208.5 -36.5q-223 0 -323 75q-99 77 -99 239q0 64 16 140h187q-13 -53 -13 -96q0 -71 59 -100q59 -28 203 -28q150 0 200.5 14.5t50.5 58.5v116h190v-116q0 -38 15.5 -53.5t52.5 -15.5v-180zM549 -148
q0 -37 -24.5 -61.5t-61.5 -24.5t-62.5 24.5t-25.5 61.5t25.5 62.5t62.5 25.5t61.5 -25.5t24.5 -62.5z" />
    <glyph glyph-name="uniFE91" unicode="&#x628;" horiz-adv-x="271" arabic-form="initial" 
d="M21 0h-61v184l40 36q38 0 52 19.5t14 69.5q0 54 -13 166h190q13 -123 13 -206q0 -127 -61.5 -198t-173.5 -71zM227 -134q0 -37 -24.5 -61.5t-61.5 -24.5t-62.5 24.5t-25.5 61.5t25.5 62.5t62.5 25.5t61.5 -25.5t24.5 -62.5z" />
    <glyph glyph-name="uniFE92" unicode="&#x628;" horiz-adv-x="330" arabic-form="medial" 
d="M330 220v-180l-40 -40q-77 0 -125 37t-59 103q-7 -66 -45.5 -103t-100.5 -37v184l40 36q41 0 56.5 16t15.5 53v116h190v-116q0 -38 15.5 -53.5t52.5 -15.5zM240 -134q0 -37 -24.5 -61.5t-61.5 -24.5t-62.5 24.5t-25.5 61.5t25.5 62.5t62.5 25.5t61.5 -25.5t24.5 -62.5z
" />
    <glyph glyph-name="uniFE94" unicode="&#x629;" horiz-adv-x="614" arabic-form="final" 
d="M497 763q0 -37 -24.5 -61.5t-61.5 -24.5t-62.5 24.5t-25.5 61.5t25.5 62.5t62.5 25.5t61.5 -25.5t24.5 -62.5zM303 763q0 -37 -24.5 -61.5t-61.5 -24.5t-62.5 24.5t-25.5 61.5t25.5 62.5t62.5 25.5t61.5 -25.5t24.5 -62.5zM614 220v-180l-40 -40q-105 0 -154 35t-61 112
q-37 -118 -165 -118q-87 0 -135.5 53t-48.5 147q0 89 50 153t141 94l142 48v103h206v-338q0 -38 14.5 -53.5t50.5 -15.5zM150 279q0 -30 78 -30q115 0 115 74v42l-130 -44q-38 -13 -50.5 -21.5t-12.5 -20.5z" />
    <glyph glyph-name="uniFE96" unicode="&#x62a;" horiz-adv-x="976" arabic-form="final" 
d="M648 491q0 -37 -24.5 -61.5t-61.5 -24.5t-62.5 24.5t-25.5 61.5t25.5 62.5t62.5 25.5t61.5 -25.5t24.5 -62.5zM454 491q0 -37 -24.5 -61.5t-61.5 -24.5t-62.5 24.5t-25.5 61.5t25.5 62.5t62.5 25.5t61.5 -25.5t24.5 -62.5zM976 40l-40 -40q-72 0 -119 32.5t-62 92.5
q-24 -66 -109.5 -102.5t-208.5 -36.5q-223 0 -323 75q-99 77 -99 239q0 64 16 140h187q-13 -53 -13 -96q0 -71 59 -100q59 -28 203 -28q150 0 200.5 14.5t50.5 58.5v116h190v-116q0 -38 15.5 -53.5t52.5 -15.5v-180z" />
    <glyph glyph-name="uniFE97" unicode="&#x62a;" horiz-adv-x="271" arabic-form="initial" 
d="M292 594q0 -29 -19.5 -49t-49.5 -20t-50 20t-20 49q0 30 20 50t50 20t49.5 -20t19.5 -50zM133 594q0 -29 -19.5 -49t-49.5 -20t-50 20t-20 49q0 30 20 50t50 20t49.5 -20t19.5 -50zM21 0h-61v184l40 36q38 0 52 19.5t14 69.5q0 54 -13 166h190q13 -123 13 -206
q0 -127 -61.5 -198t-173.5 -71z" />
    <glyph glyph-name="uniFE98" unicode="&#x62a;" horiz-adv-x="330" arabic-form="medial" 
d="M316 524q0 -29 -19.5 -49t-49.5 -20t-50 20t-20 49q0 30 20 50t50 20t49.5 -20t19.5 -50zM157 524q0 -29 -19.5 -49t-49.5 -20t-50 20t-20 49q0 30 20 50t50 20t49.5 -20t19.5 -50zM330 220v-180l-40 -40q-77 0 -125 37t-59 103q-7 -66 -45.5 -103t-100.5 -37v184l40 36
q41 0 56.5 16t15.5 53v116h190v-116q0 -38 15.5 -53.5t52.5 -15.5z" />
    <glyph glyph-name="uniFE9A" unicode="&#x62b;" horiz-adv-x="976" arabic-form="final" 
d="M533 614q0 -29 -19.5 -49t-49.5 -20t-50 20t-20 49q0 30 20 50t50 20t49.5 -20t19.5 -50zM454 474q0 -29 -19.5 -49t-49.5 -20t-50 20t-20 49q0 30 20 50t50 20t49.5 -20t19.5 -50zM613 474q0 -29 -19.5 -49t-49.5 -20t-50 20t-20 49q0 30 20 50t50 20t49.5 -20t19.5 -50
zM976 40l-40 -40q-72 0 -119 32.5t-62 92.5q-24 -66 -109.5 -102.5t-208.5 -36.5q-223 0 -323 75q-99 77 -99 239q0 64 16 140h187q-13 -53 -13 -96q0 -71 59 -100q59 -28 203 -28q150 0 200.5 14.5t50.5 58.5v116h190v-116q0 -38 15.5 -53.5t52.5 -15.5v-180z" />
    <glyph glyph-name="uniFE9B" unicode="&#x62b;" horiz-adv-x="271" arabic-form="initial" 
d="M212 734q0 -29 -19.5 -49t-49.5 -20t-50 20t-20 49q0 30 20 50t50 20t49.5 -20t19.5 -50zM133 594q0 -29 -19.5 -49t-49.5 -20t-50 20t-20 49q0 30 20 50t50 20t49.5 -20t19.5 -50zM292 594q0 -29 -19.5 -49t-49.5 -20t-50 20t-20 49q0 30 20 50t50 20t49.5 -20t19.5 -50
zM21 0h-61v184l40 36q38 0 52 19.5t14 69.5q0 54 -13 166h190q13 -123 13 -206q0 -127 -61.5 -198t-173.5 -71z" />
    <glyph glyph-name="uniFE9C" unicode="&#x62b;" horiz-adv-x="330" arabic-form="medial" 
d="M236 664q0 -29 -19.5 -49t-49.5 -20t-50 20t-20 49q0 30 20 50t50 20t49.5 -20t19.5 -50zM157 524q0 -29 -19.5 -49t-49.5 -20t-50 20t-20 49q0 30 20 50t50 20t49.5 -20t19.5 -50zM316 524q0 -29 -19.5 -49t-49.5 -20t-50 20t-20 49q0 30 20 50t50 20t49.5 -20t19.5 -50
zM330 220v-180l-40 -40q-77 0 -125 37t-59 103q-7 -66 -45.5 -103t-100.5 -37v184l40 36q41 0 56.5 16t15.5 53v116h190v-116q0 -38 15.5 -53.5t52.5 -15.5z" />
    <glyph glyph-name="uniFE9E" unicode="&#x62c;" horiz-adv-x="756" arabic-form="final" 
d="M695 -40v-240q-121 -52 -286 -52q-186 0 -293 86q-106 85 -106 231q0 291 373 358l-59 15q-40 11 -78 11q-46 0 -52 -38h-160q0 121 55.5 189.5t152.5 68.5q73 0 171 -39l139 -55q74 -29 127 -29h17l-1 -210h-52q1 -21 24.5 -28.5t88.5 -7.5v-177l-40 -43
q-100 0 -154 60.5t-54 166.5v17q-140 -22 -224 -76.5t-84 -126.5q0 -131 229 -131q140 0 266 50zM478 63q0 -37 -24.5 -61.5t-61.5 -24.5t-62.5 24.5t-25.5 61.5t25.5 62.5t62.5 25.5t61.5 -25.5t24.5 -62.5z" />
    <glyph glyph-name="uniFE9F" unicode="&#x62c;" horiz-adv-x="736" arabic-form="initial" 
d="M93 0h-133v184l40 36h93q73 0 140 9q71 9 106 25l68 27q3 1 8 3t7 3l-51 9l-77 15q-51 8 -67 8q-19 0 -32 -10t-16 -28h-160q0 121 55.5 189.5t152.5 68.5q45 0 129 -23l194 -52q30 -8 71 -14q27 -4 78 -4h17l-1 -190h-30q-58 0 -96 -18t-109 -72l-81 -61
q-83 -62 -144.5 -83.5t-161.5 -21.5zM450 -134q0 -37 -24.5 -61.5t-61.5 -24.5t-62.5 24.5t-25.5 61.5t25.5 62.5t62.5 25.5t61.5 -25.5t24.5 -62.5z" />
    <glyph glyph-name="uniFEA0" unicode="&#x62c;" horiz-adv-x="743" arabic-form="medial" 
d="M93 0h-133v184l40 36h93q73 0 140 9q71 9 106 25l68 27q3 1 8 3t7 3l-51 9l-77 15q-51 8 -67 8q-19 0 -32 -10t-16 -28h-160q0 121 55.5 189.5t152.5 68.5q45 0 129 -23l194 -52q30 -8 71 -14q27 -4 78 -4h17l-1 -190h-30q-27 0 -54 -5q3 -18 27 -24.5t85 -6.5v-177
l-40 -43q-89 0 -141.5 47.5t-63.5 132.5q-3 -2 -9.5 -7t-8.5 -7l-81 -61q-83 -62 -144.5 -83.5t-161.5 -21.5zM450 -134q0 -37 -24.5 -61.5t-61.5 -24.5t-62.5 24.5t-25.5 61.5t25.5 62.5t62.5 25.5t61.5 -25.5t24.5 -62.5z" />
    <glyph glyph-name="uniFEA2" unicode="&#x62d;" horiz-adv-x="756" arabic-form="final" 
d="M695 -40v-240q-121 -52 -286 -52q-186 0 -293 86q-106 85 -106 231q0 291 373 358l-59 15q-40 11 -78 11q-46 0 -52 -38h-160q0 121 55.5 189.5t152.5 68.5q73 0 171 -39l139 -55q74 -29 127 -29h17l-1 -210h-52q1 -21 24.5 -28.5t88.5 -7.5v-177l-40 -43
q-100 0 -154 60.5t-54 166.5v17q-140 -22 -224 -76.5t-84 -126.5q0 -131 229 -131q140 0 266 50z" />
    <glyph glyph-name="uniFEA3" unicode="&#x62d;" horiz-adv-x="736" arabic-form="initial" 
d="M93 0h-133v184l40 36h93q73 0 140 9q71 9 106 25l68 27q3 1 8 3t7 3l-51 9l-77 15q-51 8 -67 8q-19 0 -32 -10t-16 -28h-160q0 121 55.5 189.5t152.5 68.5q45 0 129 -23l194 -52q30 -8 71 -14q27 -4 78 -4h17l-1 -190h-30q-58 0 -96 -18t-109 -72l-81 -61
q-83 -62 -144.5 -83.5t-161.5 -21.5z" />
    <glyph glyph-name="uniFEA4" unicode="&#x62d;" horiz-adv-x="743" arabic-form="medial" 
d="M93 0h-133v184l40 36h93q73 0 140 9q71 9 106 25l68 27q3 1 8 3t7 3l-51 9l-77 15q-51 8 -67 8q-19 0 -32 -10t-16 -28h-160q0 121 55.5 189.5t152.5 68.5q45 0 129 -23l194 -52q30 -8 71 -14q27 -4 78 -4h17l-1 -190h-30q-27 0 -54 -5q3 -18 27 -24.5t85 -6.5v-177
l-40 -43q-89 0 -141.5 47.5t-63.5 132.5q-3 -2 -9.5 -7t-8.5 -7l-81 -61q-83 -62 -144.5 -83.5t-161.5 -21.5z" />
    <glyph glyph-name="uniFEA6" unicode="&#x62e;" horiz-adv-x="756" arabic-form="final" 
d="M405 709q0 -37 -24.5 -61.5t-61.5 -24.5t-62.5 24.5t-25.5 61.5t25.5 62.5t62.5 25.5t61.5 -25.5t24.5 -62.5zM695 -40v-240q-121 -52 -286 -52q-186 0 -293 86q-106 85 -106 231q0 291 373 358l-59 15q-40 11 -78 11q-46 0 -52 -38h-160q0 121 55.5 189.5t152.5 68.5
q73 0 171 -39l139 -55q74 -29 127 -29h17l-1 -210h-52q1 -21 24.5 -28.5t88.5 -7.5v-177l-40 -43q-100 0 -154 60.5t-54 166.5v17q-140 -22 -224 -76.5t-84 -126.5q0 -131 229 -131q140 0 266 50z" />
    <glyph glyph-name="uniFEA7" unicode="&#x62e;" horiz-adv-x="736" arabic-form="initial" 
d="M308 675q0 -37 -24.5 -61.5t-61.5 -24.5t-62.5 24.5t-25.5 61.5t25.5 62.5t62.5 25.5t61.5 -25.5t24.5 -62.5zM93 0h-133v184l40 36h93q73 0 140 9q71 9 106 25l68 27q3 1 8 3t7 3l-51 9l-77 15q-51 8 -67 8q-19 0 -32 -10t-16 -28h-160q0 121 55.5 189.5t152.5 68.5
q45 0 129 -23l194 -52q30 -8 71 -14q27 -4 78 -4h17l-1 -190h-30q-58 0 -96 -18t-109 -72l-81 -61q-83 -62 -144.5 -83.5t-161.5 -21.5z" />
    <glyph glyph-name="uniFEA8" unicode="&#x62e;" horiz-adv-x="743" arabic-form="medial" 
d="M308 675q0 -37 -24.5 -61.5t-61.5 -24.5t-62.5 24.5t-25.5 61.5t25.5 62.5t62.5 25.5t61.5 -25.5t24.5 -62.5zM93 0h-133v184l40 36h93q73 0 140 9q71 9 106 25l68 27q3 1 8 3t7 3l-51 9l-77 15q-51 8 -67 8q-19 0 -32 -10t-16 -28h-160q0 121 55.5 189.5t152.5 68.5
q45 0 129 -23l194 -52q30 -8 71 -14q27 -4 78 -4h17l-1 -190h-30q-27 0 -54 -5q3 -18 27 -24.5t85 -6.5v-177l-40 -43q-89 0 -141.5 47.5t-63.5 132.5q-3 -2 -9.5 -7t-8.5 -7l-81 -61q-83 -62 -144.5 -83.5t-161.5 -21.5z" />
    <glyph glyph-name="uniFEAA" unicode="&#x62f;" horiz-adv-x="636" arabic-form="final" 
d="M636 220v-180l-40 -40q-54 0 -90.5 15.5t-66.5 55.5q-93 -86 -205 -86q-123 0 -171 65q-48 66 -48 203h170q2 -26 17.5 -37t59.5 -11q57 0 103 11l-21 56l-106 294h233l73 -220q25 -76 41 -102q15 -24 51 -24z" />
    <glyph glyph-name="uniFEAC" unicode="&#x630;" horiz-adv-x="636" arabic-form="final" 
d="M421 703q0 -37 -24.5 -61.5t-61.5 -24.5t-62.5 24.5t-25.5 61.5t25.5 62.5t62.5 25.5t61.5 -25.5t24.5 -62.5zM636 220v-180l-40 -40q-54 0 -90.5 15.5t-66.5 55.5q-93 -86 -205 -86q-123 0 -171 65q-48 66 -48 203h170q2 -26 17.5 -37t59.5 -11q57 0 103 11l-21 56
l-106 294h233l73 -220q25 -76 41 -102q15 -24 51 -24z" />
    <glyph glyph-name="uniFEAE" unicode="&#x631;" horiz-adv-x="400" arabic-form="final" 
d="M400 40l-40 -40q-72 0 -103 46q-4 -151 -59.5 -224t-167.5 -73q-57 0 -90 4v221q47 -5 68 -5q50 0 84 32q34 31 34 123q0 105 -39 281h201l12 -76q10 -65 30.5 -87t69.5 -22v-180z" />
    <glyph glyph-name="uniFEB0" unicode="&#x632;" horiz-adv-x="400" arabic-form="final" 
d="M259 541q0 -37 -24.5 -61.5t-61.5 -24.5t-62.5 24.5t-25.5 61.5t25.5 62.5t62.5 25.5t61.5 -25.5t24.5 -62.5zM400 40l-40 -40q-72 0 -103 46q-4 -151 -59.5 -224t-167.5 -73q-57 0 -90 4v221q47 -5 68 -5q50 0 84 32q34 31 34 123q0 105 -39 281h201l12 -76
q10 -65 30.5 -87t69.5 -22v-180z" />
    <glyph glyph-name="uniFEB2" unicode="&#x633;" horiz-adv-x="1321" arabic-form="final" 
d="M726 -14q-58 0 -96 42q-19 -114 -92 -169t-205 -55q-163 0 -243 91.5t-80 249.5q0 72 17 154h185q-11 -63 -10 -107q2 -158 161 -158q174 0 174 120q0 45 -19 150l-6 31h190l8 -40q10 -47 21 -63.5t33 -16.5q41 0 41 74v46h190v-46q0 -74 35 -74t35 74v81h190v-81
q0 -38 14.5 -53.5t51.5 -15.5v-180l-40 -40q-71 0 -115 34t-55 95q-7 -68 -41 -105.5t-90 -37.5q-49 0 -84 29t-45 80q-7 -51 -40.5 -80t-84.5 -29z" />
    <glyph glyph-name="uniFEB3" unicode="&#x633;" horiz-adv-x="795" arabic-form="initial" 
d="M780 254q0 -128 -61 -198t-165 -70q-60 0 -110 29q-50 30 -62 84q-7 -54 -40 -83.5t-86 -29.5q-59 0 -97.5 33.5t-47.5 93.5q-9 -54 -48 -83.5t-103 -29.5v184l40 36q42 0 58.5 15.5t16.5 53.5v46h190v-46q0 -74 35 -74t35 74v46h190v-46q0 -74 35 -74q30 0 30 47
q0 57 -20 143h195q15 -88 15 -151z" />
    <glyph glyph-name="uniFEB4" unicode="&#x633;" horiz-adv-x="851" arabic-form="medial" 
d="M851 40l-40 -40q-71 0 -115 34t-55 95q-7 -68 -41 -105.5t-90 -37.5q-49 0 -84 29t-45 80q-7 -51 -40.5 -80t-84.5 -29q-59 0 -97.5 33.5t-47.5 93.5q-9 -54 -48.5 -83.5t-102.5 -29.5v184l40 36q42 0 58.5 15.5t16.5 53.5v46h190v-46q0 -74 35 -74t35 74v46h190v-46
q0 -74 35 -74t35 74v81h190v-81q0 -38 14.5 -53.5t51.5 -15.5v-180z" />
    <glyph glyph-name="uniFEB6" unicode="&#x634;" horiz-adv-x="1321" arabic-form="final" 
d="M977 594q0 -29 -19.5 -49t-49.5 -20t-50 20t-20 49q0 30 20 50t50 20t49.5 -20t19.5 -50zM898 454q0 -29 -19.5 -49t-49.5 -20t-50 20t-20 49q0 30 20 50t50 20t49.5 -20t19.5 -50zM1057 454q0 -29 -19.5 -49t-49.5 -20t-50 20t-20 49q0 30 20 50t50 20t49.5 -20
t19.5 -50zM726 -14q-58 0 -96 42q-19 -114 -92 -169t-205 -55q-163 0 -243 91.5t-80 249.5q0 72 17 154h185q-11 -63 -10 -107q2 -158 161 -158q174 0 174 120q0 45 -19 150l-6 31h190l8 -40q10 -47 21 -63.5t33 -16.5q41 0 41 74v46h190v-46q0 -74 35 -74t35 74v81h190v-81
q0 -38 14.5 -53.5t51.5 -15.5v-180l-40 -40q-71 0 -115 34t-55 95q-7 -68 -41 -105.5t-90 -37.5q-49 0 -84 29t-45 80q-7 -51 -40.5 -80t-84.5 -29z" />
    <glyph glyph-name="uniFEB7" unicode="&#x634;" horiz-adv-x="795" arabic-form="initial" 
d="M480 594q0 -29 -19.5 -49t-49.5 -20t-50 20t-20 49q0 30 20 50t50 20t49.5 -20t19.5 -50zM401 454q0 -29 -19.5 -49t-49.5 -20t-50 20t-20 49q0 30 20 50t50 20t49.5 -20t19.5 -50zM560 454q0 -29 -19.5 -49t-49.5 -20t-50 20t-20 49q0 30 20 50t50 20t49.5 -20t19.5 -50
zM780 254q0 -128 -61 -198t-165 -70q-60 0 -110 29q-50 30 -62 84q-7 -54 -40 -83.5t-86 -29.5q-59 0 -97.5 33.5t-47.5 93.5q-9 -54 -48 -83.5t-103 -29.5v184l40 36q42 0 58.5 15.5t16.5 53.5v46h190v-46q0 -74 35 -74t35 74v46h190v-46q0 -74 35 -74q30 0 30 47
q0 57 -20 143h195q15 -88 15 -151z" />
    <glyph glyph-name="uniFEB8" unicode="&#x634;" horiz-adv-x="851" arabic-form="medial" 
d="M501 594q0 -29 -19.5 -49t-49.5 -20t-50 20t-20 49q0 30 20 50t50 20t49.5 -20t19.5 -50zM422 454q0 -29 -19.5 -49t-49.5 -20t-50 20t-20 49q0 30 20 50t50 20t49.5 -20t19.5 -50zM581 454q0 -29 -19.5 -49t-49.5 -20t-50 20t-20 49q0 30 20 50t50 20t49.5 -20t19.5 -50
zM851 40l-40 -40q-71 0 -115 34t-55 95q-7 -68 -41 -105.5t-90 -37.5q-49 0 -84 29t-45 80q-7 -51 -40.5 -80t-84.5 -29q-59 0 -97.5 33.5t-47.5 93.5q-9 -54 -48.5 -83.5t-102.5 -29.5v184l40 36q42 0 58.5 15.5t16.5 53.5v46h190v-46q0 -74 35 -74t35 74v46h190v-46
q0 -74 35 -74t35 74v81h190v-81q0 -38 14.5 -53.5t51.5 -15.5v-180z" />
    <glyph glyph-name="uniFEBA" unicode="&#x635;" horiz-adv-x="1477" arabic-form="final" 
d="M1390 272q0 -6 -0.5 -12.5t-1.5 -14.5t-1 -12q29 -13 90 -13v-177l-40 -43q-99 0 -142 75q-117 -89 -356 -89q-219 0 -296 86q-11 -137 -87.5 -202.5t-224.5 -65.5q-162 0 -241.5 89.5t-79.5 249.5q0 58 16 156h185q-10 -74 -10 -102q1 -80 38.5 -121.5t121.5 -41.5
q174 0 174 120q0 54 -21 160l-4 21h170l4 -20q8 -42 38 -67q87 149 186 220t219 71q112 0 187.5 -76.5t75.5 -190.5zM1123 319q-151 0 -286 -107q55 -6 142 -6q105 0 166.5 7.5t83 19.5t21.5 31q0 23 -36.5 39t-90.5 16z" />
    <glyph glyph-name="uniFEBB" unicode="&#x635;" horiz-adv-x="952" arabic-form="initial" 
d="M937 272q0 -134 -115 -210t-336 -76q-342 0 -375 167q-7 -72 -46.5 -112.5t-104.5 -40.5v184l40 36q42 0 58.5 16.5t16.5 52.5v46h170v-45q0 -30 22 -46q88 150 188 222.5t219 72.5q112 0 187.5 -76.5t75.5 -190.5zM670 319q-152 0 -287 -107q56 -6 143 -6
q105 0 166.5 7.5t83 19.5t21.5 31q0 23 -36.5 39t-90.5 16z" />
    <glyph glyph-name="uniFEBC" unicode="&#x635;" horiz-adv-x="1024" arabic-form="medial" 
d="M937 272q0 -6 -0.5 -12.5t-1.5 -14.5t-1 -12q29 -13 90 -13v-177l-40 -43q-99 0 -142 75q-117 -89 -356 -89q-342 0 -375 167q-7 -72 -46.5 -112.5t-104.5 -40.5v184l40 36q42 0 58.5 16.5t16.5 52.5v46h170v-45q0 -30 22 -46q88 150 188 222.5t219 72.5
q112 0 187.5 -76.5t75.5 -190.5zM670 319q-152 0 -287 -107q56 -6 143 -6q105 0 166.5 7.5t83 19.5t21.5 31q0 23 -36.5 39t-90.5 16z" />
    <glyph glyph-name="uniFEBE" unicode="&#x636;" horiz-adv-x="1477" arabic-form="final" 
d="M1198 675q0 -37 -24.5 -61.5t-61.5 -24.5t-62.5 24.5t-25.5 61.5t25.5 62.5t62.5 25.5t61.5 -25.5t24.5 -62.5zM1390 272q0 -6 -0.5 -12.5t-1.5 -14.5t-1 -12q29 -13 90 -13v-177l-40 -43q-99 0 -142 75q-117 -89 -356 -89q-219 0 -296 86q-11 -137 -87.5 -202.5
t-224.5 -65.5q-162 0 -241.5 89.5t-79.5 249.5q0 58 16 156h185q-10 -74 -10 -102q1 -80 38.5 -121.5t121.5 -41.5q174 0 174 120q0 54 -21 160l-4 21h170l4 -20q8 -42 38 -67q87 149 186 220t219 71q112 0 187.5 -76.5t75.5 -190.5zM1123 319q-151 0 -286 -107
q55 -6 142 -6q105 0 166.5 7.5t83 19.5t21.5 31q0 23 -36.5 39t-90.5 16z" />
    <glyph glyph-name="uniFEBF" unicode="&#x636;" horiz-adv-x="952" arabic-form="initial" 
d="M745 675q0 -37 -24.5 -61.5t-61.5 -24.5t-62.5 24.5t-25.5 61.5t25.5 62.5t62.5 25.5t61.5 -25.5t24.5 -62.5zM937 272q0 -134 -115 -210t-336 -76q-342 0 -375 167q-7 -72 -46.5 -112.5t-104.5 -40.5v184l40 36q42 0 58.5 16.5t16.5 52.5v46h170v-45q0 -30 22 -46
q88 150 188 222.5t219 72.5q112 0 187.5 -76.5t75.5 -190.5zM670 319q-152 0 -287 -107q56 -6 143 -6q105 0 166.5 7.5t83 19.5t21.5 31q0 23 -36.5 39t-90.5 16z" />
    <glyph glyph-name="uniFEC0" unicode="&#x636;" horiz-adv-x="1024" arabic-form="medial" 
d="M745 675q0 -37 -24.5 -61.5t-61.5 -24.5t-62.5 24.5t-25.5 61.5t25.5 62.5t62.5 25.5t61.5 -25.5t24.5 -62.5zM937 272q0 -6 -0.5 -12.5t-1.5 -14.5t-1 -12q29 -13 90 -13v-177l-40 -43q-99 0 -142 75q-117 -89 -356 -89q-342 0 -375 167q-7 -72 -46.5 -112.5
t-104.5 -40.5v184l40 36q42 0 58.5 16.5t16.5 52.5v46h170v-45q0 -30 22 -46q88 150 188 222.5t219 72.5q112 0 187.5 -76.5t75.5 -190.5zM670 319q-152 0 -287 -107q56 -6 143 -6q105 0 166.5 7.5t83 19.5t21.5 31q0 23 -36.5 39t-90.5 16z" />
    <glyph glyph-name="uniFEC2" unicode="&#x637;" horiz-adv-x="808" arabic-form="final" 
d="M270 0h-310v220h77q9 18 25 43v480h206v-256q88 52 190 52q112 0 187.5 -76.5t75.5 -190.5q0 -6 -0.5 -12.5t-1.5 -14.5t-1 -12q29 -13 90 -13v-177l-40 -43q-101 0 -145 80q-110 -80 -353 -80zM454 319q-149 0 -276 -99h132q162 0 216.5 9t54.5 35q0 23 -36.5 39
t-90.5 16z" />
    <glyph glyph-name="uniFEC3" unicode="&#x637;" horiz-adv-x="736" arabic-form="initial" 
d="M270 0h-310v180l40 40h37q9 18 25 43v480h206v-256q88 52 190 52q112 0 187.5 -76.5t75.5 -190.5q0 -132 -114 -202t-337 -70zM454 319q-149 0 -276 -99h132q162 0 216.5 9t54.5 35q0 23 -36.5 39t-90.5 16z" />
    <glyph glyph-name="uniFEC4" unicode="&#x637;" horiz-adv-x="808" arabic-form="medial" 
d="M270 0h-310v180l40 40h37q9 18 25 43v480h206v-256q88 52 190 52q112 0 187.5 -76.5t75.5 -190.5q0 -6 -0.5 -12.5t-1.5 -14.5t-1 -12q29 -13 90 -13v-177l-40 -43q-101 0 -145 80q-110 -80 -353 -80zM454 319q-149 0 -276 -99h132q162 0 216.5 9t54.5 35q0 23 -36.5 39
t-90.5 16z" />
    <glyph glyph-name="uniFEC6" unicode="&#x638;" horiz-adv-x="808" arabic-form="final" 
d="M529 675q0 -37 -24.5 -61.5t-61.5 -24.5t-62.5 24.5t-25.5 61.5t25.5 62.5t62.5 25.5t61.5 -25.5t24.5 -62.5zM270 0h-310v220h77q9 18 25 43v480h206v-256q88 52 190 52q112 0 187.5 -76.5t75.5 -190.5q0 -6 -0.5 -12.5t-1.5 -14.5t-1 -12q29 -13 90 -13v-177l-40 -43
q-101 0 -145 80q-110 -80 -353 -80zM454 319q-149 0 -276 -99h132q162 0 216.5 9t54.5 35q0 23 -36.5 39t-90.5 16z" />
    <glyph glyph-name="uniFEC7" unicode="&#x638;" horiz-adv-x="736" arabic-form="initial" 
d="M529 675q0 -37 -24.5 -61.5t-61.5 -24.5t-62.5 24.5t-25.5 61.5t25.5 62.5t62.5 25.5t61.5 -25.5t24.5 -62.5zM270 0h-310v180l40 40h37q9 18 25 43v480h206v-256q88 52 190 52q112 0 187.5 -76.5t75.5 -190.5q0 -132 -114 -202t-337 -70zM454 319q-149 0 -276 -99h132
q162 0 216.5 9t54.5 35q0 23 -36.5 39t-90.5 16z" />
    <glyph glyph-name="uniFEC8" unicode="&#x638;" horiz-adv-x="808" arabic-form="medial" 
d="M529 675q0 -37 -24.5 -61.5t-61.5 -24.5t-62.5 24.5t-25.5 61.5t25.5 62.5t62.5 25.5t61.5 -25.5t24.5 -62.5zM270 0h-310v180l40 40h37q9 18 25 43v480h206v-256q88 52 190 52q112 0 187.5 -76.5t75.5 -190.5q0 -6 -0.5 -12.5t-1.5 -14.5t-1 -12q29 -13 90 -13v-177
l-40 -43q-101 0 -145 80q-110 -80 -353 -80zM454 319q-149 0 -276 -99h132q162 0 216.5 9t54.5 35q0 23 -36.5 39t-90.5 16z" />
    <glyph glyph-name="uniFECA" unicode="&#x639;" horiz-adv-x="709" arabic-form="final" 
d="M709 40l-40 -40h-28q-113 0 -189 21q-74 21 -145 78q-75 -29 -106 -52.5t-31 -55.5q0 -47 50 -69t156 -22q139 0 258 50v-230q-114 -52 -278 -52q-158 0 -252 76t-94 201q0 89 42 148t154 107l-53 62l-54 65v200q121 23 241 23q143 0 212 -36t69 -120q0 -108 -95 -172
q62 -2 108 -2h75v-180zM251 347l14 -17q37 -46 76 -69q81 28 107 39.5t26 23.5q0 16 -37.5 21t-115.5 5q-9 0 -34 -1.5t-36 -1.5z" />
    <glyph glyph-name="uniFECB" unicode="&#x639;" horiz-adv-x="569" arabic-form="initial" 
d="M41 0h-81v184l40 36h70q-39 44 -39 109q0 98 67.5 164t176.5 66q110 0 180 -65q70 -64 70 -204h-165q-7 23 -34 36t-62 13q-42 0 -66 -12.5t-24 -34.5q0 -31 38.5 -44t119.5 -13q61 0 128 7l89 9v-210l-89 -14q-175 -27 -419 -27z" />
    <glyph glyph-name="uniFECC" unicode="&#x639;" horiz-adv-x="674" arabic-form="medial" 
d="M90 0h-130v184l40 36h122l-51 57v200q141 33 265 33q143 0 205 -35q62 -34 64 -125q0 -66 -39 -130h108v-180l-40 -40h-25q-134 0 -256 51q-121 -51 -263 -51zM336 310q-53 0 -113 -5q72 -61 142 -76q112 14 112 45q0 20 -33.5 28t-107.5 8z" />
    <glyph glyph-name="uniFECE" unicode="&#x63a;" horiz-adv-x="709" arabic-form="final" 
d="M427 686q0 -37 -24.5 -61.5t-61.5 -24.5t-62.5 24.5t-25.5 61.5t25.5 62.5t62.5 25.5t61.5 -25.5t24.5 -62.5zM709 40l-40 -40h-28q-113 0 -189 21q-74 21 -145 78q-75 -29 -106 -52.5t-31 -55.5q0 -47 50 -69t156 -22q139 0 258 50v-230q-114 -52 -278 -52
q-158 0 -252 76t-94 201q0 89 42 148t154 107l-53 62l-54 65v200q121 23 241 23q143 0 212 -36t69 -120q0 -108 -95 -172q62 -2 108 -2h75v-180zM251 347l14 -17q37 -46 76 -69q81 28 107 39.5t26 23.5q0 16 -37.5 21t-115.5 5q-9 0 -34 -1.5t-36 -1.5z" />
    <glyph glyph-name="uniFECF" unicode="&#x63a;" horiz-adv-x="569" arabic-form="initial" 
d="M362 675q0 -37 -24.5 -61.5t-61.5 -24.5t-62.5 24.5t-25.5 61.5t25.5 62.5t62.5 25.5t61.5 -25.5t24.5 -62.5zM41 0h-81v184l40 36h70q-39 44 -39 109q0 98 67.5 164t176.5 66q110 0 180 -65q70 -64 70 -204h-165q-7 23 -34 36t-62 13q-42 0 -66 -12.5t-24 -34.5
q0 -31 38.5 -44t119.5 -13q61 0 128 7l89 9v-207l-99 -16q-101 -17 -182.5 -22.5t-226.5 -5.5z" />
    <glyph glyph-name="uniFED0" unicode="&#x63a;" horiz-adv-x="674" arabic-form="medial" 
d="M417 646q0 -37 -24.5 -61.5t-61.5 -24.5t-62.5 24.5t-25.5 61.5t25.5 62.5t62.5 25.5t61.5 -25.5t24.5 -62.5zM90 0h-130v184l40 36h122l-51 57v200q141 33 265 33q143 0 205 -35q62 -34 64 -125q0 -66 -39 -130h108v-180l-40 -40h-25q-134 0 -256 51q-121 -51 -263 -51z
M336 310q-53 0 -113 -5q72 -61 142 -76q112 14 112 45q0 20 -33.5 28t-107.5 8z" />
    <glyph glyph-name="uniFED2" unicode="&#x641;" horiz-adv-x="984" arabic-form="final" 
d="M791 675q0 -37 -24.5 -61.5t-61.5 -24.5t-62.5 24.5t-25.5 61.5t25.5 62.5t62.5 25.5t61.5 -25.5t24.5 -62.5zM949 292q0 -39 -16 -72h51v-180l-40 -40q-131 0 -241 34q-132 -48 -273 -48q-217 0 -316 76t-99 242q0 68 15 136h187q-12 -54 -12 -92q0 -73 50 -103
q50 -29 175 -29h48q-14 39 -14 78q0 100 71 172.5t175 72.5q101 0 170 -73t69 -174zM604 284q0 -37 119 -51q86 14 86 43q0 17 -32 30t-77 13q-40 0 -68 -10t-28 -25z" />
    </font>
</defs>
</svg>
