<?xml version="1.0" encoding="UTF-8"?>
<svg width="236px" viewBox="0 0 236 99" version="1.1" xmlns="http://www.w3.org/2000/svg"
     xmlns:xlink="http://www.w3.org/1999/xlink">
    <g id="Symbols" stroke="none" stroke-width="1" fill="none" fill-rule="evenodd">
        <g id="Logo/Dark" transform="translate(-40.000000, -71.000000)" fill="#082471" fill-rule="nonzero">
            <g id="linkati">
                <path d="M275.556536,76.6079029 L275.556536,114.263903 C275.556536,123.695903 267.564536,131.399903 258.420536,131.399903 L258.204536,131.399903 L258.204536,120.455903 L258.420536,120.455903 C261.804536,120.455903 264.612536,117.719903 264.612536,114.263903 L264.612536,76.6079029 C264.612536,69.2639029 275.556536,69.2639029 275.556536,76.6079029 Z M258.636536,131.399903 L254.316536,131.399903 C249.996536,131.399903 245.676536,129.527903 242.580536,126.791903 C239.556536,129.599903 235.164536,131.399903 230.916536,131.399903 L226.596536,131.399903 L226.596536,120.455903 L230.916536,120.455903 C234.300536,120.455903 237.108536,117.719903 237.108536,114.263903 L237.108536,103.247903 C237.108536,95.9039029 248.052536,95.9039029 248.052536,103.247903 L248.052536,114.263903 C248.052536,117.719903 250.860536,120.455903 254.316536,120.455903 L258.636536,120.455903 L258.636536,131.399903 Z M235.884536,148.535903 C233.004536,148.535903 230.412536,145.943903 230.412536,143.063903 C230.412536,140.183903 233.004536,137.591903 235.884536,137.591903 C238.764536,137.591903 241.356536,140.183903 241.356536,143.063903 C241.356536,145.943903 238.764536,148.535903 235.884536,148.535903 Z M249.420536,148.535903 C246.540536,148.535903 243.948536,145.943903 243.948536,143.063903 C243.948536,140.183903 246.540536,137.591903 249.420536,137.591903 C252.300536,137.591903 254.892536,140.183903 254.892536,143.063903 C254.892536,145.943903 252.300536,148.535903 249.420536,148.535903 Z M210.684536,91.5839029 C207.804536,91.5839029 205.212536,88.9919029 205.212536,86.1119029 C205.212536,83.2319029 207.804536,80.6399029 210.684536,80.6399029 C213.564536,80.6399029 216.156536,83.2319029 216.156536,86.1119029 C216.156536,88.9919029 213.564536,91.5839029 210.684536,91.5839029 Z M227.028536,131.399903 L222.708536,131.399903 C218.388536,131.399903 214.068536,129.527903 210.972536,126.791903 C207.948536,129.599903 203.556536,131.399903 199.308536,131.399903 L194.988536,131.399903 L194.988536,120.455903 L199.308536,120.455903 C202.692536,120.455903 205.500536,117.719903 205.500536,114.263903 L205.500536,103.247903 C205.500536,95.9039029 216.444536,95.9039029 216.444536,103.247903 L216.444536,114.263903 C216.444536,117.719903 219.252536,120.455903 222.708536,120.455903 L227.028536,120.455903 L227.028536,131.399903 Z M195.420536,131.399903 L195.204536,131.399903 C190.884536,131.399903 186.492536,129.455903 183.396536,126.647903 C179.868536,129.599903 174.612536,131.399903 169.356536,131.399903 L145.380536,131.399903 L145.380536,120.455903 L169.356536,120.455903 C174.900536,120.455903 178.068536,117.935903 178.068536,114.335903 C178.068536,102.383903 159.852536,102.383903 154.884536,102.599903 C149.988536,102.599903 146.388536,96.1199029 150.780536,92.4479029 L172.812536,72.5039029 C178.212536,67.6079029 185.268536,75.8159029 180.084536,80.7119029 L167.124536,92.5919029 C176.844536,94.3199029 188.940536,99.6479029 189.012536,114.263903 C189.012536,117.719903 191.820536,120.455903 195.204536,120.455903 L195.420536,120.455903 L195.420536,131.399903 Z M128.460536,114.263903 L128.460536,76.6079029 C128.460536,69.2639029 139.404536,69.2639029 139.404536,76.6079029 L139.404536,114.263903 C139.404536,117.647903 142.284536,120.455903 145.596536,120.455903 L145.812536,120.455903 L145.812536,131.399903 L145.596536,131.399903 C136.452536,131.399903 128.460536,123.767903 128.460536,114.263903 Z M103.692536,92.1599029 C100.812536,92.1599029 98.2205362,89.5679029 98.2205362,86.6879029 C98.2205362,83.8079029 100.812536,81.2159029 103.692536,81.2159029 C106.572536,81.2159029 109.164536,83.8079029 109.164536,86.6879029 C109.164536,89.5679029 106.572536,92.1599029 103.692536,92.1599029 Z M117.228536,92.1599029 C114.348536,92.1599029 111.756536,89.5679029 111.756536,86.6879029 C111.756536,83.8079029 114.348536,81.2159029 117.228536,81.2159029 C120.108536,81.2159029 122.700536,83.8079029 122.700536,86.6879029 C122.700536,89.5679029 120.108536,92.1599029 117.228536,92.1599029 Z M105.132536,114.263903 L105.132536,103.247903 C105.132536,95.9039029 116.076536,95.9039029 116.076536,103.247903 L116.076536,114.263903 C116.076536,123.695903 108.156536,131.399903 98.9405362,131.399903 L95.3405362,131.399903 L95.3405362,120.455903 L98.9405362,120.455903 C102.324536,120.455903 105.132536,117.719903 105.132536,114.263903 Z M95.7725362,131.399903 L92.3885362,131.399903 C93.6845362,137.015903 91.0205362,143.207903 88.0685362,145.799903 C82.7405362,150.479903 74.8205362,152.855903 68.0525362,152.855903 C51.9965362,152.855903 34.7885362,139.823903 41.4845362,113.543903 C43.1405362,105.983903 53.6525362,108.791903 51.9965362,116.135903 C47.5325362,134.207903 57.1805362,141.839903 68.0525362,141.911903 C73.0925362,141.911903 77.2685362,140.615903 80.9405362,137.375903 C82.7405362,135.863903 83.3165362,132.623903 76.4045362,131.399903 C74.1005362,130.895903 69.7805362,129.599903 66.1805362,127.151903 C59.2685362,122.615903 66.7565362,114.191903 72.4445362,118.223903 C75.0365362,120.167903 79.0685362,120.455903 85.1885362,120.455903 L95.7725362,120.455903 L95.7725362,131.399903 Z M57.4685362,169.991903 C54.5885362,169.991903 51.9965362,167.399903 51.9965362,164.519903 C51.9965362,161.639903 54.5885362,159.047903 57.4685362,159.047903 C60.3485362,159.047903 62.9405362,161.639903 62.9405362,164.519903 C62.9405362,167.399903 60.3485362,169.991903 57.4685362,169.991903 Z M71.0045362,169.991903 C68.1245362,169.991903 65.5325362,167.399903 65.5325362,164.519903 C65.5325362,161.639903 68.1245362,159.047903 71.0045362,159.047903 C73.8845362,159.047903 76.4765362,161.639903 76.4765362,164.519903 C76.4765362,167.399903 73.8845362,169.991903 71.0045362,169.991903 Z"></path>
            </g>
        </g>
    </g>
</svg>