<?xml version="1.0" standalone="no"?>
<!DOCTYPE svg PUBLIC "-//W3C//DTD SVG 1.1//EN" "http://www.w3.org/Graphics/SVG/1.1/DTD/svg11.dtd" >
<svg>
<metadata>
Created by FontForge 20090622 at Tue Mar 12 12:11:49 2019
 By deploy user
Copyright (c) 2017 Commercial Type, Inc. All rights reserved.
</metadata>
<defs>
<font id="GraphikArabic-SemiBold" horiz-adv-x="600" >
  <font-face 
    font-family="Graphik Arabic SemiBold"
    font-weight="600"
    font-stretch="normal"
    units-per-em="1000"
    panose-1="0 0 0 0 0 0 0 0 0 0"
    ascent="800"
    descent="-200"
    x-height="523"
    cap-height="715"
    bbox="-238 -507 1520 1126"
    underline-thickness="66"
    underline-position="-59"
    unicode-range="U+0020-U+FEFC"
  />
<missing-glyph horiz-adv-x="0" 
 />
    <glyph glyph-name="uniFC03" unicode="&#xfe8b;&#xfef0;" horiz-adv-x="842" arabic-form="isolated" 
d="M816 581v-77l-221 -32v77l40 6q-27 23 -25 61q0 42 28.5 70t71.5 28q39 0 63 -24t27 -67l-51 -6q-14 21 -41 21q-39 0 -39 -30q0 -19 22 -31t52 -7zM753 -52q0 -80 -102 -136t-259 -56q-353 0 -353 276q0 59 16 146h118q-14 -77 -14 -116q0 -163 246 -163q113 0 177 20.5
t64 56.5q0 22 -23.5 38t-73.5 16h-111v139h142q53 0 74 18.5t21 62.5q0 66 -18 175h122q16 -103 16 -191q0 -151 -110 -183q68 -36 68 -103z" />
    <glyph glyph-name="uniFC04" unicode="&#xfe8b;&#xfef2;" horiz-adv-x="842" arabic-form="isolated" 
d="M816 581v-77l-221 -32v77l40 6q-27 23 -25 61q0 42 28.5 70t71.5 28q39 0 63 -24t27 -67l-51 -6q-14 21 -41 21q-39 0 -39 -30q0 -19 22 -31t52 -7zM753 -52q0 -80 -102 -136t-259 -56q-353 0 -353 276q0 59 16 146h118q-14 -77 -14 -116q0 -163 246 -163q113 0 177 20.5
t64 56.5q0 22 -23.5 38t-73.5 16h-111v139h142q53 0 74 18.5t21 62.5q0 66 -18 175h122q16 -103 16 -191q0 -151 -110 -183q68 -36 68 -103zM538 -376q0 -28 -19 -47t-47 -19t-47.5 19t-19.5 47t19.5 47.5t47.5 19.5t47 -19.5t19 -47.5zM379 -376q0 -28 -18.5 -47t-46.5 -19
t-47.5 19t-19.5 47t19.5 47.5t47.5 19.5t46.5 -19.5t18.5 -47.5z" />
    <glyph glyph-name="uniFC09" unicode="&#xfe91;&#xfef0;" horiz-adv-x="842" arabic-form="isolated" 
d="M753 -52q0 -80 -102 -136t-259 -56q-353 0 -353 276q0 59 16 146h118q-14 -77 -14 -116q0 -163 246 -163q113 0 177 20.5t64 56.5q0 22 -23.5 38t-73.5 16h-111v139h142q53 0 74 18.5t21 62.5q0 66 -18 175h122q16 -103 16 -191q0 -151 -110 -183q68 -36 68 -103z
M755 -329q0 -28 -19 -46.5t-47 -18.5t-47 18.5t-19 46.5t19 47.5t47 19.5t47 -19.5t19 -47.5z" />
    <glyph glyph-name="uniFC0A" unicode="&#xfe91;&#xfef2;" horiz-adv-x="842" arabic-form="isolated" 
d="M753 -52q0 -80 -102 -136t-259 -56q-353 0 -353 276q0 59 16 146h118q-14 -77 -14 -116q0 -163 246 -163q113 0 177 20.5t64 56.5q0 22 -23.5 38t-73.5 16h-111v139h142q53 0 74 18.5t21 62.5q0 66 -18 175h122q16 -103 16 -191q0 -151 -110 -183q68 -36 68 -103z
M755 -329q0 -28 -19 -46.5t-47 -18.5t-47 18.5t-19 46.5t19 47.5t47 19.5t47 -19.5t19 -47.5zM538 -376q0 -28 -19 -47t-47 -19t-47.5 19t-19.5 47t19.5 47.5t47.5 19.5t47 -19.5t19 -47.5zM379 -376q0 -28 -18.5 -47t-46.5 -19t-47.5 19t-19.5 47t19.5 47.5t47.5 19.5
t46.5 -19.5t18.5 -47.5z" />
    <glyph glyph-name="uniFC0F" unicode="&#xfe97;&#xfef0;" horiz-adv-x="842" arabic-form="isolated" 
d="M853 551q0 -28 -18.5 -47t-46.5 -19t-47.5 19t-19.5 47t19.5 47t47.5 19t46.5 -19t18.5 -47zM695 551q0 -28 -18.5 -47t-46.5 -19t-47.5 19t-19.5 47t19.5 47t47.5 19t46.5 -19t18.5 -47zM753 -52q0 -80 -102 -136t-259 -56q-353 0 -353 276q0 59 16 146h118
q-14 -77 -14 -116q0 -163 246 -163q113 0 177 20.5t64 56.5q0 22 -23.5 38t-73.5 16h-111v139h142q53 0 74 18.5t21 62.5q0 66 -18 175h122q16 -103 16 -191q0 -151 -110 -183q68 -36 68 -103z" />
    <glyph glyph-name="uniFC10" unicode="&#xfe97;&#xfef2;" horiz-adv-x="842" arabic-form="isolated" 
d="M853 551q0 -28 -18.5 -47t-46.5 -19t-47.5 19t-19.5 47t19.5 47t47.5 19t46.5 -19t18.5 -47zM695 551q0 -28 -18.5 -47t-46.5 -19t-47.5 19t-19.5 47t19.5 47t47.5 19t46.5 -19t18.5 -47zM753 -52q0 -80 -102 -136t-259 -56q-353 0 -353 276q0 59 16 146h118
q-14 -77 -14 -116q0 -163 246 -163q113 0 177 20.5t64 56.5q0 22 -23.5 38t-73.5 16h-111v139h142q53 0 74 18.5t21 62.5q0 66 -18 175h122q16 -103 16 -191q0 -151 -110 -183q68 -36 68 -103zM538 -376q0 -28 -19 -47t-47 -19t-47.5 19t-19.5 47t19.5 47.5t47.5 19.5
t47 -19.5t19 -47.5zM379 -376q0 -28 -18.5 -47t-46.5 -19t-47.5 19t-19.5 47t19.5 47.5t47.5 19.5t46.5 -19.5t18.5 -47.5z" />
    <glyph glyph-name="uniFC13" unicode="&#xfe9b;&#xfef0;" horiz-adv-x="842" arabic-form="isolated" 
d="M767 673q0 -25 -16.5 -41.5t-41.5 -16.5t-42 16.5t-17 41.5t17 42t42 17t41.5 -17t16.5 -42zM695 544q0 -25 -16.5 -42t-41.5 -17t-42 17t-17 42t17 42t42 17t41.5 -17t16.5 -42zM839 544q0 -25 -17 -42t-42 -17t-42 17t-17 42t17 42t42 17t42 -17t17 -42zM753 -52
q0 -80 -102 -136t-259 -56q-353 0 -353 276q0 59 16 146h118q-14 -77 -14 -116q0 -163 246 -163q113 0 177 20.5t64 56.5q0 22 -23.5 38t-73.5 16h-111v139h142q53 0 74 18.5t21 62.5q0 66 -18 175h122q16 -103 16 -191q0 -151 -110 -183q68 -36 68 -103z" />
    <glyph glyph-name="uniFC14" unicode="&#xfe9b;&#xfef2;" horiz-adv-x="842" arabic-form="isolated" 
d="M767 673q0 -25 -16.5 -41.5t-41.5 -16.5t-42 16.5t-17 41.5t17 42t42 17t41.5 -17t16.5 -42zM695 544q0 -25 -16.5 -42t-41.5 -17t-42 17t-17 42t17 42t42 17t41.5 -17t16.5 -42zM839 544q0 -25 -17 -42t-42 -17t-42 17t-17 42t17 42t42 17t42 -17t17 -42zM753 -52
q0 -80 -102 -136t-259 -56q-353 0 -353 276q0 59 16 146h118q-14 -77 -14 -116q0 -163 246 -163q113 0 177 20.5t64 56.5q0 22 -23.5 38t-73.5 16h-111v139h142q53 0 74 18.5t21 62.5q0 66 -18 175h122q16 -103 16 -191q0 -151 -110 -183q68 -36 68 -103zM538 -376
q0 -28 -19 -47t-47 -19t-47.5 19t-19.5 47t19.5 47.5t47.5 19.5t47 -19.5t19 -47.5zM379 -376q0 -28 -18.5 -47t-46.5 -19t-47.5 19t-19.5 47t19.5 47.5t47.5 19.5t46.5 -19.5t18.5 -47.5z" />
    <glyph glyph-name="uniFC31" unicode="&#xfed3;&#xfef0;" horiz-adv-x="817" arabic-form="isolated" 
d="M618 737q0 -28 -19 -47t-47 -19t-47 19t-19 47t19 47t47 19t47 -19t19 -47zM727 -58q0 -77 -94.5 -131.5t-240.5 -54.5q-353 0 -353 284q0 65 17 138h118q-13 -67 -13 -112q0 -167 244 -167q100 0 158 19t58 53q0 45 -97 45h-112v133l143 -1q69 0 97.5 19t34.5 72
q-49 -18 -137 -18q-93 0 -147.5 45t-54.5 123q0 88 62 155t145 67q99 0 162 -89.5t63 -237.5q0 -107 -29 -164t-95 -77q71 -29 71 -101zM444 391q0 -65 110 -65q73 0 129 13q-13 62 -52 98.5t-91 36.5q-44 0 -70 -24t-26 -59z" />
    <glyph glyph-name="uniFC32" unicode="&#xfed3;&#xfef2;" horiz-adv-x="817" arabic-form="isolated" 
d="M618 737q0 -28 -19 -47t-47 -19t-47 19t-19 47t19 47t47 19t47 -19t19 -47zM727 -58q0 -77 -94.5 -131.5t-240.5 -54.5q-353 0 -353 284q0 65 17 138h118q-13 -67 -13 -112q0 -167 244 -167q100 0 158 19t58 53q0 45 -97 45h-112v133l143 -1q69 0 97.5 19t34.5 72
q-49 -18 -137 -18q-93 0 -147.5 45t-54.5 123q0 88 62 155t145 67q99 0 162 -89.5t63 -237.5q0 -107 -29 -164t-95 -77q71 -29 71 -101zM444 391q0 -65 110 -65q73 0 129 13q-13 62 -52 98.5t-91 36.5q-44 0 -70 -24t-26 -59zM523 -372q0 -28 -19 -46.5t-47 -18.5t-47 18.5
t-19 46.5t19 47.5t47 19.5t47 -19.5t19 -47.5zM365 -372q0 -28 -19 -46.5t-47 -18.5t-47 18.5t-19 46.5t19 47.5t47 19.5t47 -19.5t19 -47.5z" />
    <glyph glyph-name="uniFC35" unicode="&#xfed7;&#xfef0;" horiz-adv-x="817" arabic-form="isolated" 
d="M700 737q0 -28 -19 -47t-47 -19t-47.5 19t-19.5 47t19.5 47t47.5 19t47 -19t19 -47zM542 737q0 -28 -19 -47t-47 -19t-47.5 19t-19.5 47t19.5 47t47.5 19t47 -19t19 -47zM727 -58q0 -77 -94.5 -131.5t-240.5 -54.5q-353 0 -353 284q0 65 17 138h118q-13 -67 -13 -112
q0 -167 244 -167q100 0 158 19t58 53q0 45 -97 45h-112v133l143 -1q69 0 97.5 19t34.5 72q-49 -18 -137 -18q-93 0 -147.5 45t-54.5 123q0 88 62 155t145 67q99 0 162 -89.5t63 -237.5q0 -107 -29 -164t-95 -77q71 -29 71 -101zM444 391q0 -65 110 -65q73 0 129 13
q-13 62 -52 98.5t-91 36.5q-44 0 -70 -24t-26 -59z" />
    <glyph glyph-name="uniFC36" unicode="&#xfed7;&#xfef2;" horiz-adv-x="817" arabic-form="isolated" 
d="M700 737q0 -28 -19 -47t-47 -19t-47.5 19t-19.5 47t19.5 47t47.5 19t47 -19t19 -47zM542 737q0 -28 -19 -47t-47 -19t-47.5 19t-19.5 47t19.5 47t47.5 19t47 -19t19 -47zM727 -58q0 -77 -94.5 -131.5t-240.5 -54.5q-353 0 -353 284q0 65 17 138h118q-13 -67 -13 -112
q0 -167 244 -167q100 0 158 19t58 53q0 45 -97 45h-112v133l143 -1q69 0 97.5 19t34.5 72q-49 -18 -137 -18q-93 0 -147.5 45t-54.5 123q0 88 62 155t145 67q99 0 162 -89.5t63 -237.5q0 -107 -29 -164t-95 -77q71 -29 71 -101zM444 391q0 -65 110 -65q73 0 129 13
q-13 62 -52 98.5t-91 36.5q-44 0 -70 -24t-26 -59zM523 -372q0 -28 -19 -46.5t-47 -18.5t-47 18.5t-19 46.5t19 47.5t47 19.5t47 -19.5t19 -47.5zM365 -372q0 -28 -19 -46.5t-47 -18.5t-47 18.5t-19 46.5t19 47.5t47 19.5t47 -19.5t19 -47.5z" />
    <glyph glyph-name="uniFC3D" unicode="&#xfedb;&#xfef0;" horiz-adv-x="794" arabic-form="isolated" 
d="M748 -41q0 -87 -99.5 -145t-255.5 -58q-177 0 -263.5 71t-89.5 213q-1 60 17 138h118q-13 -67 -13 -112q0 -167 244 -167q111 0 173.5 21t62.5 59q0 51 -89 51h-120v135h134q62 0 62 45q0 21 -19.5 41.5t-70.5 50.5l-191 102v118l446 246l-1 -137l-303 -164l92 -55
q82 -43 118 -91.5t36 -109.5q0 -96 -76 -141q88 -31 88 -111z" />
    <glyph glyph-name="uniFC3E" unicode="&#xfedb;&#xfef2;" horiz-adv-x="794" arabic-form="isolated" 
d="M748 -41q0 -87 -99.5 -145t-255.5 -58q-177 0 -263.5 71t-89.5 213q-1 60 17 138h118q-13 -67 -13 -112q0 -167 244 -167q111 0 173.5 21t62.5 59q0 51 -89 51h-120v135h134q62 0 62 45q0 21 -19.5 41.5t-70.5 50.5l-191 102v118l446 246l-1 -137l-303 -164l92 -55
q82 -43 118 -91.5t36 -109.5q0 -96 -76 -141q88 -31 88 -111zM539 -372q0 -28 -19 -46.5t-47 -18.5t-47 18.5t-19 46.5t19 47.5t47 19.5t47 -19.5t19 -47.5zM381 -372q0 -28 -19 -46.5t-47 -18.5t-47 18.5t-19 46.5t19 47.5t47 19.5t47 -19.5t19 -47.5z" />
    <glyph glyph-name="uniFC3F" unicode="&#xfedf;&#xfe9e;" horiz-adv-x="650" arabic-form="isolated" 
d="M622 -122v-146q-116 -52 -260 -52q-164 0 -257 75q-92 75 -92 200q0 90 52.5 161t154.5 116q-22 0 -83 -2t-92 -2v143h170q55 0 75 23q19 23 19 96v270h127v-270q0 -77 -24 -119h216l-1 -140h-23q-227 0 -349 -68.5t-122 -173.5q0 -76 63 -118.5t174 -42.5q133 0 252 50z
M420 8q0 -28 -18.5 -47t-46.5 -19t-47.5 19t-19.5 47t19.5 47t47.5 19t46.5 -19t18.5 -47z" />
    <glyph glyph-name="uniFC40" unicode="&#xfedf;&#xfea2;" horiz-adv-x="650" arabic-form="isolated" 
d="M622 -122v-146q-116 -52 -260 -52q-164 0 -257 75q-92 75 -92 200q0 90 52.5 161t154.5 116q-22 0 -83 -2t-92 -2v143h170q55 0 75 23q19 23 19 96v270h127v-270q0 -77 -24 -119h216l-1 -140h-23q-227 0 -349 -68.5t-122 -173.5q0 -76 63 -118.5t174 -42.5q133 0 252 50z
" />
    <glyph glyph-name="uniFC41" unicode="&#xfedf;&#xfea6;" horiz-adv-x="650" arabic-form="isolated" 
d="M622 -122v-146q-116 -52 -260 -52q-164 0 -257 75q-92 75 -92 200q0 90 52.5 161t154.5 116q-22 0 -83 -2t-92 -2v143h170q55 0 75 23q19 23 19 96v270h127v-270q0 -77 -24 -119h216l-1 -140h-23q-227 0 -349 -68.5t-122 -173.5q0 -76 63 -118.5t174 -42.5q133 0 252 50z
M195 552q0 -28 -18.5 -46.5t-46.5 -18.5t-47.5 18.5t-19.5 46.5t19.5 47.5t47.5 19.5t46.5 -19.5t18.5 -47.5z" />
    <glyph glyph-name="uniFC42" unicode="&#xfedf;&#xfee2;" horiz-adv-x="585" arabic-form="isolated" 
d="M181 -24v-296h-128v303q0 107 49 160.5t140 53.5q36 0 70 -8q-28 37 -28 118v451h127v-451q0 -78 23 -112.5t73 -60.5l73 -39l-67 -121l-52 27q-103 57 -199 57q-43 0 -62 -20t-19 -62z" />
    <glyph glyph-name="uniFC43" unicode="&#xfedf;&#xfef0;" horiz-adv-x="824" arabic-form="isolated" 
d="M747 -47q0 -83 -100 -140t-255 -57q-353 0 -353 284q0 65 17 138h118q-13 -67 -13 -112q0 -167 244 -167q110 0 173 20.5t63 56.5q0 21 -25.5 37.5t-72.5 16.5h-111v139h96q59 0 80.5 19.5t21.5 67.5v504h127v-504q0 -153 -83 -194q73 -31 73 -109z" />
    <glyph glyph-name="uniFC44" unicode="&#xfedf;&#xfef2;" horiz-adv-x="824" arabic-form="isolated" 
d="M747 -47q0 -83 -100 -140t-255 -57q-353 0 -353 284q0 65 17 138h118q-13 -67 -13 -112q0 -167 244 -167q110 0 173 20.5t63 56.5q0 21 -25.5 37.5t-72.5 16.5h-111v139h96q59 0 80.5 19.5t21.5 67.5v504h127v-504q0 -153 -83 -194q73 -31 73 -109zM546 -376
q0 -28 -19 -47t-47 -19t-47 19t-19 47t19 47.5t47 19.5t47 -19.5t19 -47.5zM388 -376q0 -28 -19 -47t-47 -19t-47 19t-19 47t19 47.5t47 19.5t47 -19.5t19 -47.5z" />
    <glyph glyph-name="uniFC4F" unicode="&#xfee7;&#xfef0;" horiz-adv-x="842" arabic-form="isolated" 
d="M772 551q0 -28 -19 -47t-47 -19t-47.5 19t-19.5 47t19.5 47t47.5 19t47 -19t19 -47zM753 -52q0 -80 -102 -136t-259 -56q-353 0 -353 276q0 59 16 146h118q-14 -77 -14 -116q0 -163 246 -163q113 0 177 20.5t64 56.5q0 22 -23.5 38t-73.5 16h-111v139h142q53 0 74 18.5
t21 62.5q0 66 -18 175h122q16 -103 16 -191q0 -151 -110 -183q68 -36 68 -103z" />
    <glyph glyph-name="uniFC50" unicode="&#xfee7;&#xfef2;" horiz-adv-x="842" arabic-form="isolated" 
d="M772 551q0 -28 -19 -47t-47 -19t-47.5 19t-19.5 47t19.5 47t47.5 19t47 -19t19 -47zM753 -52q0 -80 -102 -136t-259 -56q-353 0 -353 276q0 59 16 146h118q-14 -77 -14 -116q0 -163 246 -163q113 0 177 20.5t64 56.5q0 22 -23.5 38t-73.5 16h-111v139h142q53 0 74 18.5
t21 62.5q0 66 -18 175h122q16 -103 16 -191q0 -151 -110 -183q68 -36 68 -103zM538 -376q0 -28 -19 -47t-47 -19t-47.5 19t-19.5 47t19.5 47.5t47.5 19.5t47 -19.5t19 -47.5zM379 -376q0 -28 -18.5 -47t-46.5 -19t-47.5 19t-19.5 47t19.5 47.5t47.5 19.5t46.5 -19.5
t18.5 -47.5z" />
    <glyph glyph-name="uniFC53" unicode="&#xfeeb;&#xfef0;" horiz-adv-x="1243" arabic-form="isolated" 
d="M748 -64q0 -76 -98 -128t-269 -52q-342 0 -342 284q0 65 17 138h118q-13 -67 -13 -112q0 -167 228 -167q127 0 189.5 17t62.5 45q0 48 -102 48h-20v130h75q34 0 84 2q-34 60 -34 121q0 55 28.5 101t75.5 68v100l165 -48q170 -50 236 -110q67 -60 67 -163t-64.5 -162
t-181.5 -59q-107 0 -192 53q-47 -12 -88 -17q58 -33 58 -89zM744 262q0 -63 72 -100q98 28 98 98q0 37 -25.5 62t-62.5 25q-36 0 -59 -24.5t-23 -60.5zM1007 262q0 -75 -59 -132q30 -2 47 -2q123 0 123 79q0 35 -27 60.5t-90 48.5q6 -26 6 -54z" />
    <glyph glyph-name="uniFC54" unicode="&#xfeeb;&#xfef2;" horiz-adv-x="1243" arabic-form="isolated" 
d="M748 -64q0 -76 -98 -128t-269 -52q-342 0 -342 284q0 65 17 138h118q-13 -67 -13 -112q0 -167 228 -167q127 0 189.5 17t62.5 45q0 48 -102 48h-20v130h75q34 0 84 2q-34 60 -34 121q0 55 28.5 101t75.5 68v100l165 -48q170 -50 236 -110q67 -60 67 -163t-64.5 -162
t-181.5 -59q-107 0 -192 53q-47 -12 -88 -17q58 -33 58 -89zM744 262q0 -63 72 -100q98 28 98 98q0 37 -25.5 62t-62.5 25q-36 0 -59 -24.5t-23 -60.5zM1007 262q0 -75 -59 -132q30 -2 47 -2q123 0 123 79q0 35 -27 60.5t-90 48.5q6 -26 6 -54zM538 -376q0 -28 -19 -47
t-47 -19t-47.5 19t-19.5 47t19.5 47.5t47.5 19.5t47 -19.5t19 -47.5zM379 -376q0 -28 -18.5 -47t-46.5 -19t-47.5 19t-19.5 47t19.5 47.5t47.5 19.5t46.5 -19.5t18.5 -47.5z" />
    <glyph glyph-name="uniFC59" unicode="&#xfef3;&#xfef0;" horiz-adv-x="842" arabic-form="isolated" 
d="M753 -52q0 -80 -102 -136t-259 -56q-353 0 -353 276q0 59 16 146h118q-14 -77 -14 -116q0 -163 246 -163q113 0 177 20.5t64 56.5q0 22 -23.5 38t-73.5 16h-111v139h142q53 0 74 18.5t21 62.5q0 66 -18 175h122q16 -103 16 -191q0 -151 -110 -183q68 -36 68 -103z
M836 -329q0 -28 -19 -46.5t-47 -18.5t-47 18.5t-19 46.5t19 47.5t47 19.5t47 -19.5t19 -47.5zM678 -329q0 -28 -19 -46.5t-47 -18.5t-47 18.5t-19 46.5t19 47.5t47 19.5t47 -19.5t19 -47.5z" />
    <glyph glyph-name="uniFC5A" unicode="&#xfef3;&#xfef2;" horiz-adv-x="842" arabic-form="isolated" 
d="M753 -52q0 -80 -102 -136t-259 -56q-353 0 -353 276q0 59 16 146h118q-14 -77 -14 -116q0 -163 246 -163q113 0 177 20.5t64 56.5q0 22 -23.5 38t-73.5 16h-111v139h142q53 0 74 18.5t21 62.5q0 66 -18 175h122q16 -103 16 -191q0 -151 -110 -183q68 -36 68 -103z
M836 -329q0 -28 -19 -46.5t-47 -18.5t-47 18.5t-19 46.5t19 47.5t47 19.5t47 -19.5t19 -47.5zM678 -329q0 -28 -19 -46.5t-47 -18.5t-47 18.5t-19 46.5t19 47.5t47 19.5t47 -19.5t19 -47.5zM538 -376q0 -28 -19 -47t-47 -19t-47.5 19t-19.5 47t19.5 47.5t47.5 19.5t47 -19.5
t19 -47.5zM379 -376q0 -28 -18.5 -47t-46.5 -19t-47.5 19t-19.5 47t19.5 47.5t47.5 19.5t46.5 -19.5t18.5 -47.5z" />
    <glyph glyph-name="uniFC64" unicode="&#xfe8c;&#xfeae;" horiz-adv-x="633" arabic-form="final" 
d="M543 546v-76l-222 -32v77l40 6q-25 23 -25 61q0 42 28.5 70t71.5 28q39 0 63 -24t28 -67l-52 -7q-13 21 -40 21q-39 0 -39 -29q0 -19 21.5 -31t51.5 -7zM269 93q0 -170 -61 -251t-190 -81q-50 0 -90 6v140q46 -8 86 -8q72 0 104 45.5t32 144.5q0 50 -8 116l-18 150
l383 35l18 -161q6 -54 28 -72q23 -18 80 -18v-111l-28 -28q-101 0 -145 51q-44 53 -57 185l-1 5l-142 -13l1 -10q8 -90 8 -125z" />
    <glyph glyph-name="uniFC65" unicode="&#xfe8c;&#xfeb0;" horiz-adv-x="633" arabic-form="final" 
d="M543 546v-76l-222 -32v77l40 6q-25 23 -25 61q0 42 28.5 70t71.5 28q39 0 63 -24t28 -67l-52 -7q-13 21 -40 21q-39 0 -39 -29q0 -19 21.5 -31t51.5 -7zM224 496q0 -28 -19 -46.5t-47 -18.5t-47 18.5t-19 46.5t19 47.5t47 19.5t47 -19.5t19 -47.5zM269 93
q0 -170 -61 -251t-190 -81q-50 0 -90 6v140q46 -8 86 -8q72 0 104 45.5t32 144.5q0 50 -8 116l-18 150l383 35l18 -161q6 -54 28 -72q23 -18 80 -18v-111l-28 -28q-101 0 -145 51q-44 53 -57 185l-1 5l-142 -13l1 -10q8 -90 8 -125z" />
    <glyph glyph-name="uniFC67" unicode="&#xfe8c;&#xfee6;" horiz-adv-x="1013" arabic-form="final" 
d="M948 546v-77l-222 -32v77l40 6q-25 24 -24 61q0 42 28.5 70t71.5 28q39 0 63 -24t27 -67l-52 -6q-12 21 -40 21q-39 0 -39 -30q0 -19 21.5 -31t51.5 -7zM400 413q0 -28 -19 -47t-47 -19t-47 19t-19 47t19 47.5t47 19.5t47 -19.5t19 -47.5zM648 115q0 -147 -80.5 -227.5
t-224.5 -80.5q-148 0 -225.5 69t-78.5 203q0 79 16 156h118q-14 -68 -14 -120q0 -81 48.5 -123t139.5 -42q100 0 146.5 38.5t46.5 123.5q0 37 -8 93l-18 150l372 35l19 -161q6 -54 28 -72q23 -18 80 -18v-111l-29 -28q-101 0 -145 51q-42 51 -56 185l-1 6l-142 -14l1 -10
q7 -68 7 -103z" />
    <glyph glyph-name="uniFC68" unicode="&#xfe8c;&#xfef0;" horiz-adv-x="955" arabic-form="final" 
d="M690 605v-77l-222 -32v77l40 6q-25 23 -25 61q1 42 29.5 70t71.5 28q39 0 62.5 -24t27.5 -67l-52 -6q-12 21 -40 21q-39 0 -39 -30q0 -19 21.5 -31t51.5 -7zM744 -1q0 -109 -104 -176t-262 -67q-172 0 -255.5 70.5t-83.5 213.5q0 60 15 138h118q-13 -67 -13 -112
q0 -85 57.5 -126t178.5 -41q103 0 171 23t68 59q0 40 -95 52l-112 16q-73 10 -109.5 47.5t-36.5 96.5q0 98 94 177t207 79q89 0 145 -44t104 -147l26 -54q18 -39 37.5 -52t60.5 -13v-111l-29 -28q-64 0 -102 27t-75 111l-23 50q-30 68 -70.5 95t-107.5 27q-64 0 -111.5 -25
t-47.5 -59q0 -19 16.5 -29.5t55.5 -16.5l118 -17q90 -12 127.5 -52t37.5 -112z" />
    <glyph glyph-name="uniFC69" unicode="&#xfe8c;&#xfef2;" horiz-adv-x="955" arabic-form="final" 
d="M690 605v-77l-222 -32v77l40 6q-25 23 -25 61q1 42 29.5 70t71.5 28q39 0 62.5 -24t27.5 -67l-52 -6q-12 21 -40 21q-39 0 -39 -30q0 -19 21.5 -31t51.5 -7zM744 -1q0 -109 -104 -176t-262 -67q-172 0 -255.5 70.5t-83.5 213.5q0 60 15 138h118q-13 -67 -13 -112
q0 -85 57.5 -126t178.5 -41q103 0 171 23t68 59q0 40 -95 52l-112 16q-73 10 -109.5 47.5t-36.5 96.5q0 98 94 177t207 79q89 0 145 -44t104 -147l26 -54q18 -39 37.5 -52t60.5 -13v-111l-29 -28q-64 0 -102 27t-75 111l-23 50q-30 68 -70.5 95t-107.5 27q-64 0 -111.5 -25
t-47.5 -59q0 -19 16.5 -29.5t55.5 -16.5l118 -17q90 -12 127.5 -52t37.5 -112zM523 -376q0 -28 -18.5 -47t-46.5 -19t-47.5 19t-19.5 47t19.5 47.5t47.5 19.5t46.5 -19.5t18.5 -47.5zM365 -376q0 -28 -18.5 -47t-46.5 -19t-47.5 19t-19.5 47t19.5 47.5t47.5 19.5t46.5 -19.5
t18.5 -47.5z" />
    <glyph glyph-name="uniFC6A" unicode="&#xfe92;&#xfeae;" horiz-adv-x="633" arabic-form="final" 
d="M269 93q0 -170 -61 -251t-190 -81q-50 0 -90 6v140q46 -8 86 -8q72 0 104 45.5t32 144.5q0 50 -8 116l-18 150l383 35l18 -161q6 -54 28 -72q23 -18 80 -18v-111l-28 -28q-101 0 -145 51q-44 53 -57 185l-1 5l-142 -13l1 -10q8 -90 8 -125zM521 -132q0 -28 -18.5 -47
t-46.5 -19t-47.5 19t-19.5 47t19.5 47t47.5 19t46.5 -19t18.5 -47z" />
    <glyph glyph-name="uniFC6B" unicode="&#xfe92;&#xfeb0;" horiz-adv-x="633" arabic-form="final" 
d="M224 496q0 -28 -19 -46.5t-47 -18.5t-47 18.5t-19 46.5t19 47.5t47 19.5t47 -19.5t19 -47.5zM269 93q0 -170 -61 -251t-190 -81q-50 0 -90 6v140q46 -8 86 -8q72 0 104 45.5t32 144.5q0 50 -8 116l-18 150l383 35l18 -161q6 -54 28 -72q23 -18 80 -18v-111l-28 -28
q-101 0 -145 51q-44 53 -57 185l-1 5l-142 -13l1 -10q8 -90 8 -125zM521 -132q0 -28 -18.5 -47t-46.5 -19t-47.5 19t-19.5 47t19.5 47t47.5 19t46.5 -19t18.5 -47z" />
    <glyph glyph-name="uniFC6D" unicode="&#xfe92;&#xfee6;" horiz-adv-x="1013" arabic-form="final" 
d="M400 413q0 -28 -19 -47t-47 -19t-47 19t-19 47t19 47.5t47 19.5t47 -19.5t19 -47.5zM648 115q0 -147 -80.5 -227.5t-224.5 -80.5q-148 0 -225.5 69t-78.5 203q0 79 16 156h118q-14 -68 -14 -120q0 -81 48.5 -123t139.5 -42q100 0 146.5 38.5t46.5 123.5q0 37 -8 93
l-18 150l372 35l19 -161q6 -54 28 -72q23 -18 80 -18v-111l-29 -28q-101 0 -145 51q-42 51 -56 185l-1 6l-142 -14l1 -10q7 -68 7 -103zM887 -132q0 -28 -19 -47t-47 -19t-47.5 19t-19.5 47t19.5 47t47.5 19t47 -19t19 -47z" />
    <glyph glyph-name="uniFC6E" unicode="&#xfe92;&#xfef0;" horiz-adv-x="955" arabic-form="final" 
d="M744 -1q0 -109 -104 -176t-262 -67q-172 0 -255.5 70.5t-83.5 213.5q0 60 15 138h118q-13 -67 -13 -112q0 -85 57.5 -126t178.5 -41q103 0 171 23t68 59q0 40 -95 52l-112 16q-73 10 -109.5 47.5t-36.5 96.5q0 98 94 177t207 79q89 0 145 -44t104 -147l26 -54
q18 -39 37.5 -52t60.5 -13v-111l-29 -28q-64 0 -102 27t-75 111l-23 50q-30 68 -70.5 95t-107.5 27q-64 0 -111.5 -25t-47.5 -59q0 -19 16.5 -29.5t55.5 -16.5l118 -17q90 -12 127.5 -52t37.5 -112zM867 -267q0 -28 -19 -47t-47 -19t-47 19t-19 47t19 47t47 19t47 -19
t19 -47z" />
    <glyph glyph-name="uniFC6F" unicode="&#xfe92;&#xfef2;" horiz-adv-x="955" arabic-form="final" 
d="M744 -1q0 -109 -104 -176t-262 -67q-172 0 -255.5 70.5t-83.5 213.5q0 60 15 138h118q-13 -67 -13 -112q0 -85 57.5 -126t178.5 -41q103 0 171 23t68 59q0 40 -95 52l-112 16q-73 10 -109.5 47.5t-36.5 96.5q0 98 94 177t207 79q89 0 145 -44t104 -147l26 -54
q18 -39 37.5 -52t60.5 -13v-111l-29 -28q-64 0 -102 27t-75 111l-23 50q-30 68 -70.5 95t-107.5 27q-64 0 -111.5 -25t-47.5 -59q0 -19 16.5 -29.5t55.5 -16.5l118 -17q90 -12 127.5 -52t37.5 -112zM867 -267q0 -28 -19 -47t-47 -19t-47 19t-19 47t19 47t47 19t47 -19
t19 -47zM523 -376q0 -28 -18.5 -47t-46.5 -19t-47.5 19t-19.5 47t19.5 47.5t47.5 19.5t46.5 -19.5t18.5 -47.5zM365 -376q0 -28 -18.5 -47t-46.5 -19t-47.5 19t-19.5 47t19.5 47.5t47.5 19.5t46.5 -19.5t18.5 -47.5z" />
    <glyph glyph-name="uniFC70" unicode="&#xfe98;&#xfeae;" horiz-adv-x="633" arabic-form="final" 
d="M579 517q0 -28 -18.5 -47t-46.5 -19t-47.5 19t-19.5 47t19.5 47t47.5 19t46.5 -19t18.5 -47zM421 517q0 -28 -18.5 -47t-46.5 -19t-47.5 19t-19.5 47t19.5 47t47.5 19t46.5 -19t18.5 -47zM269 93q0 -170 -61 -251t-190 -81q-50 0 -90 6v140q46 -8 86 -8q72 0 104 45.5
t32 144.5q0 50 -8 116l-18 150l383 35l18 -161q6 -54 28 -72q23 -18 80 -18v-111l-28 -28q-101 0 -145 51q-44 53 -57 185l-1 5l-142 -13l1 -10q8 -90 8 -125z" />
    <glyph glyph-name="uniFC71" unicode="&#xfe98;&#xfeb0;" horiz-adv-x="633" arabic-form="final" 
d="M579 517q0 -28 -18.5 -47t-46.5 -19t-47.5 19t-19.5 47t19.5 47t47.5 19t46.5 -19t18.5 -47zM421 517q0 -28 -18.5 -47t-46.5 -19t-47.5 19t-19.5 47t19.5 47t47.5 19t46.5 -19t18.5 -47zM224 496q0 -28 -19 -46.5t-47 -18.5t-47 18.5t-19 46.5t19 47.5t47 19.5t47 -19.5
t19 -47.5zM269 93q0 -170 -61 -251t-190 -81q-50 0 -90 6v140q46 -8 86 -8q72 0 104 45.5t32 144.5q0 50 -8 116l-18 150l383 35l18 -161q6 -54 28 -72q23 -18 80 -18v-111l-28 -28q-101 0 -145 51q-44 53 -57 185l-1 5l-142 -13l1 -10q8 -90 8 -125z" />
    <glyph glyph-name="uniFC73" unicode="&#xfe98;&#xfee6;" horiz-adv-x="1013" arabic-form="final" 
d="M985 516q0 -28 -19 -47t-47 -19t-47 19t-19 47t19 47t47 19t47 -19t19 -47zM827 516q0 -28 -19 -47t-47 -19t-47 19t-19 47t19 47t47 19t47 -19t19 -47zM400 413q0 -28 -19 -47t-47 -19t-47 19t-19 47t19 47.5t47 19.5t47 -19.5t19 -47.5zM648 115q0 -147 -80.5 -227.5
t-224.5 -80.5q-148 0 -225.5 69t-78.5 203q0 79 16 156h118q-14 -68 -14 -120q0 -81 48.5 -123t139.5 -42q100 0 146.5 38.5t46.5 123.5q0 37 -8 93l-18 150l372 35l19 -161q6 -54 28 -72q23 -18 80 -18v-111l-29 -28q-101 0 -145 51q-42 51 -56 185l-1 6l-142 -14l1 -10
q7 -68 7 -103z" />
    <glyph glyph-name="uniFC74" unicode="&#xfe98;&#xfef0;" horiz-adv-x="955" arabic-form="final" 
d="M727 575q0 -28 -19 -47t-47 -19t-47 19t-19 47t19 47t47 19t47 -19t19 -47zM569 575q0 -28 -19 -47t-47 -19t-47.5 19t-19.5 47t19.5 47t47.5 19t47 -19t19 -47zM744 -1q0 -109 -104 -176t-262 -67q-172 0 -255.5 70.5t-83.5 213.5q0 60 15 138h118q-13 -67 -13 -112
q0 -85 57.5 -126t178.5 -41q103 0 171 23t68 59q0 40 -95 52l-112 16q-73 10 -109.5 47.5t-36.5 96.5q0 98 94 177t207 79q89 0 145 -44t104 -147l26 -54q18 -39 37.5 -52t60.5 -13v-111l-29 -28q-64 0 -102 27t-75 111l-23 50q-30 68 -70.5 95t-107.5 27q-64 0 -111.5 -25
t-47.5 -59q0 -19 16.5 -29.5t55.5 -16.5l118 -17q90 -12 127.5 -52t37.5 -112z" />
    <glyph glyph-name="uniFC75" unicode="&#xfe98;&#xfef2;" horiz-adv-x="955" arabic-form="final" 
d="M727 575q0 -28 -19 -47t-47 -19t-47 19t-19 47t19 47t47 19t47 -19t19 -47zM569 575q0 -28 -19 -47t-47 -19t-47.5 19t-19.5 47t19.5 47t47.5 19t47 -19t19 -47zM744 -1q0 -109 -104 -176t-262 -67q-172 0 -255.5 70.5t-83.5 213.5q0 60 15 138h118q-13 -67 -13 -112
q0 -85 57.5 -126t178.5 -41q103 0 171 23t68 59q0 40 -95 52l-112 16q-73 10 -109.5 47.5t-36.5 96.5q0 98 94 177t207 79q89 0 145 -44t104 -147l26 -54q18 -39 37.5 -52t60.5 -13v-111l-29 -28q-64 0 -102 27t-75 111l-23 50q-30 68 -70.5 95t-107.5 27q-64 0 -111.5 -25
t-47.5 -59q0 -19 16.5 -29.5t55.5 -16.5l118 -17q90 -12 127.5 -52t37.5 -112zM523 -376q0 -28 -18.5 -47t-46.5 -19t-47.5 19t-19.5 47t19.5 47.5t47.5 19.5t46.5 -19.5t18.5 -47.5zM365 -376q0 -28 -18.5 -47t-46.5 -19t-47.5 19t-19.5 47t19.5 47.5t47.5 19.5t46.5 -19.5
t18.5 -47.5z" />
    <glyph glyph-name="uniFC76" unicode="&#xfe9c;&#xfeae;" horiz-adv-x="633" arabic-form="final" 
d="M493 639q0 -25 -16.5 -42t-41.5 -17t-42 17t-17 42t17 42t42 17t41.5 -17t16.5 -42zM421 509q0 -25 -16.5 -41.5t-41.5 -16.5t-42 16.5t-17 41.5t17 42t42 17t41.5 -17t16.5 -42zM565 509q0 -25 -17 -41.5t-42 -16.5t-42 16.5t-17 41.5t17 42t42 17t42 -17t17 -42z
M269 93q0 -170 -61 -251t-190 -81q-50 0 -90 6v140q46 -8 86 -8q72 0 104 45.5t32 144.5q0 50 -8 116l-18 150l383 35l18 -161q6 -54 28 -72q23 -18 80 -18v-111l-28 -28q-101 0 -145 51q-44 53 -57 185l-1 5l-142 -13l1 -10q8 -90 8 -125z" />
    <glyph glyph-name="uniFC77" unicode="&#xfe9c;&#xfeb0;" horiz-adv-x="633" arabic-form="final" 
d="M493 639q0 -25 -16.5 -42t-41.5 -17t-42 17t-17 42t17 42t42 17t41.5 -17t16.5 -42zM421 509q0 -25 -16.5 -41.5t-41.5 -16.5t-42 16.5t-17 41.5t17 42t42 17t41.5 -17t16.5 -42zM565 509q0 -25 -17 -41.5t-42 -16.5t-42 16.5t-17 41.5t17 42t42 17t42 -17t17 -42z
M224 496q0 -28 -19 -46.5t-47 -18.5t-47 18.5t-19 46.5t19 47.5t47 19.5t47 -19.5t19 -47.5zM269 93q0 -170 -61 -251t-190 -81q-50 0 -90 6v140q46 -8 86 -8q72 0 104 45.5t32 144.5q0 50 -8 116l-18 150l383 35l18 -161q6 -54 28 -72q23 -18 80 -18v-111l-28 -28
q-101 0 -145 51q-44 53 -57 185l-1 5l-142 -13l1 -10q8 -90 8 -125z" />
    <glyph glyph-name="uniFC79" unicode="&#xfe9c;&#xfee6;" horiz-adv-x="1013" arabic-form="final" 
d="M899 638q0 -25 -17 -41.5t-42 -16.5t-41.5 16.5t-16.5 41.5t16.5 42t41.5 17t42 -17t17 -42zM827 509q0 -25 -17 -42t-42 -17t-42 17t-17 42t17 42t42 17t42 -17t17 -42zM970 509q0 -25 -16.5 -42t-41.5 -17t-42 17t-17 42t17 42t42 17t41.5 -17t16.5 -42zM400 413
q0 -28 -19 -47t-47 -19t-47 19t-19 47t19 47.5t47 19.5t47 -19.5t19 -47.5zM648 115q0 -147 -80.5 -227.5t-224.5 -80.5q-148 0 -225.5 69t-78.5 203q0 79 16 156h118q-14 -68 -14 -120q0 -81 48.5 -123t139.5 -42q100 0 146.5 38.5t46.5 123.5q0 37 -8 93l-18 150l372 35
l19 -161q6 -54 28 -72q23 -18 80 -18v-111l-29 -28q-101 0 -145 51q-42 51 -56 185l-1 6l-142 -14l1 -10q7 -68 7 -103z" />
    <glyph glyph-name="uniFC7A" unicode="&#xfe9c;&#xfef0;" horiz-adv-x="955" arabic-form="final" 
d="M641 697q0 -25 -17 -41.5t-42 -16.5t-42 16.5t-17 41.5t17 42t42 17t42 -17t17 -42zM569 568q0 -25 -17 -42t-42 -17t-42 17t-17 42t17 41.5t42 16.5t42 -16.5t17 -41.5zM712 568q0 -25 -16.5 -42t-41.5 -17t-42 17t-17 42t17 41.5t42 16.5t41.5 -16.5t16.5 -41.5z
M744 -1q0 -109 -104 -176t-262 -67q-172 0 -255.5 70.5t-83.5 213.5q0 60 15 138h118q-13 -67 -13 -112q0 -85 57.5 -126t178.5 -41q103 0 171 23t68 59q0 40 -95 52l-112 16q-73 10 -109.5 47.5t-36.5 96.5q0 98 94 177t207 79q89 0 145 -44t104 -147l26 -54
q18 -39 37.5 -52t60.5 -13v-111l-29 -28q-64 0 -102 27t-75 111l-23 50q-30 68 -70.5 95t-107.5 27q-64 0 -111.5 -25t-47.5 -59q0 -19 16.5 -29.5t55.5 -16.5l118 -17q90 -12 127.5 -52t37.5 -112z" />
    <glyph glyph-name="uniFC7B" unicode="&#xfe9c;&#xfef2;" horiz-adv-x="955" arabic-form="final" 
d="M641 697q0 -25 -17 -41.5t-42 -16.5t-42 16.5t-17 41.5t17 42t42 17t42 -17t17 -42zM569 568q0 -25 -17 -42t-42 -17t-42 17t-17 42t17 41.5t42 16.5t42 -16.5t17 -41.5zM712 568q0 -25 -16.5 -42t-41.5 -17t-42 17t-17 42t17 41.5t42 16.5t41.5 -16.5t16.5 -41.5z
M744 -1q0 -109 -104 -176t-262 -67q-172 0 -255.5 70.5t-83.5 213.5q0 60 15 138h118q-13 -67 -13 -112q0 -85 57.5 -126t178.5 -41q103 0 171 23t68 59q0 40 -95 52l-112 16q-73 10 -109.5 47.5t-36.5 96.5q0 98 94 177t207 79q89 0 145 -44t104 -147l26 -54
q18 -39 37.5 -52t60.5 -13v-111l-29 -28q-64 0 -102 27t-75 111l-23 50q-30 68 -70.5 95t-107.5 27q-64 0 -111.5 -25t-47.5 -59q0 -19 16.5 -29.5t55.5 -16.5l118 -17q90 -12 127.5 -52t37.5 -112zM523 -376q0 -28 -18.5 -47t-46.5 -19t-47.5 19t-19.5 47t19.5 47.5
t47.5 19.5t46.5 -19.5t18.5 -47.5zM365 -376q0 -28 -18.5 -47t-46.5 -19t-47.5 19t-19.5 47t19.5 47.5t47.5 19.5t46.5 -19.5t18.5 -47.5z" />
    <glyph glyph-name="uniFC83" unicode="&#xfedc;&#xfef0;" horiz-adv-x="994" arabic-form="final" 
d="M748 -41q0 -87 -99.5 -145t-255.5 -58q-177 0 -263.5 71t-89.5 213q-1 60 17 138h118q-13 -67 -13 -112q0 -167 244 -167q111 0 173.5 21t62.5 59q0 51 -89 51h-111v139h185q75 0 75 46q0 23 -33 72l-98 148v114l445 246l-1 -135l-320 -178l152 -223q49 -70 77 -95
t71 -25v-111l-28 -28q-51 0 -91 27q-38 26 -88 96l-20 30q-8 -69 -73 -96q53 -34 53 -98z" />
    <glyph glyph-name="uniFC84" unicode="&#xfedc;&#xfef2;" horiz-adv-x="994" arabic-form="final" 
d="M748 -41q0 -87 -99.5 -145t-255.5 -58q-177 0 -263.5 71t-89.5 213q-1 60 17 138h118q-13 -67 -13 -112q0 -167 244 -167q111 0 173.5 21t62.5 59q0 51 -89 51h-111v139h185q75 0 75 46q0 23 -33 72l-98 148v114l445 246l-1 -135l-320 -178l152 -223q49 -70 77 -95
t71 -25v-111l-28 -28q-51 0 -91 27q-38 26 -88 96l-20 30q-8 -69 -73 -96q53 -34 53 -98zM539 -372q0 -28 -19 -46.5t-47 -18.5t-47 18.5t-19 46.5t19 47.5t47 19.5t47 -19.5t19 -47.5zM381 -372q0 -28 -19 -46.5t-47 -18.5t-47 18.5t-19 46.5t19 47.5t47 19.5t47 -19.5
t19 -47.5z" />
    <glyph glyph-name="uniFC86" unicode="&#xfee0;&#xfef0;" horiz-adv-x="973" arabic-form="final" 
d="M747 -48q0 -84 -95 -140t-260 -56q-353 0 -353 284q0 65 17 138h118q-13 -67 -13 -112q0 -167 244 -167q110 0 173 20.5t63 56.5q0 21 -25.5 37.5t-72.5 16.5h-111v139h216q104 0 104 107v484h127v-514q0 -64 20 -85.5t74 -21.5v-111l-28 -28q-161 0 -171 138
q-20 -62 -85 -86q58 -33 58 -100z" />
    <glyph glyph-name="uniFC87" unicode="&#xfee0;&#xfef2;" horiz-adv-x="973" arabic-form="final" 
d="M747 -48q0 -84 -95 -140t-260 -56q-353 0 -353 284q0 65 17 138h118q-13 -67 -13 -112q0 -167 244 -167q110 0 173 20.5t63 56.5q0 21 -25.5 37.5t-72.5 16.5h-111v139h216q104 0 104 107v484h127v-514q0 -64 20 -85.5t74 -21.5v-111l-28 -28q-161 0 -171 138
q-20 -62 -85 -86q58 -33 58 -100zM538 -376q0 -28 -19 -47t-47 -19t-47.5 19t-19.5 47t19.5 47.5t47.5 19.5t47 -19.5t19 -47.5zM379 -376q0 -28 -18.5 -47t-46.5 -19t-47.5 19t-19.5 47t19.5 47.5t47.5 19.5t46.5 -19.5t18.5 -47.5z" />
    <glyph glyph-name="uniFC8A" unicode="&#xfee8;&#xfeae;" horiz-adv-x="633" arabic-form="final" 
d="M498 517q0 -28 -19 -47t-47 -19t-47 19t-19 47t19 47t47 19t47 -19t19 -47zM269 93q0 -170 -61 -251t-190 -81q-50 0 -90 6v140q46 -8 86 -8q72 0 104 45.5t32 144.5q0 50 -8 116l-18 150l383 35l18 -161q6 -54 28 -72q23 -18 80 -18v-111l-28 -28q-101 0 -145 51
q-44 53 -57 185l-1 5l-142 -13l1 -10q8 -90 8 -125z" />
    <glyph glyph-name="uniFC8B" unicode="&#xfee8;&#xfeb0;" horiz-adv-x="633" arabic-form="final" 
d="M498 517q0 -28 -19 -47t-47 -19t-47 19t-19 47t19 47t47 19t47 -19t19 -47zM224 496q0 -28 -19 -46.5t-47 -18.5t-47 18.5t-19 46.5t19 47.5t47 19.5t47 -19.5t19 -47.5zM269 93q0 -170 -61 -251t-190 -81q-50 0 -90 6v140q46 -8 86 -8q72 0 104 45.5t32 144.5
q0 50 -8 116l-18 150l383 35l18 -161q6 -54 28 -72q23 -18 80 -18v-111l-28 -28q-101 0 -145 51q-44 53 -57 185l-1 5l-142 -13l1 -10q8 -90 8 -125z" />
    <glyph glyph-name="uniFC8D" unicode="&#xfee8;&#xfee6;" horiz-adv-x="1013" arabic-form="final" 
d="M904 516q0 -28 -19 -47t-47 -19t-47.5 19t-19.5 47t19.5 47t47.5 19t47 -19t19 -47zM400 413q0 -28 -19 -47t-47 -19t-47 19t-19 47t19 47.5t47 19.5t47 -19.5t19 -47.5zM648 115q0 -147 -80.5 -227.5t-224.5 -80.5q-148 0 -225.5 69t-78.5 203q0 79 16 156h118
q-14 -68 -14 -120q0 -81 48.5 -123t139.5 -42q100 0 146.5 38.5t46.5 123.5q0 37 -8 93l-18 150l372 35l19 -161q6 -54 28 -72q23 -18 80 -18v-111l-29 -28q-101 0 -145 51q-42 51 -56 185l-1 6l-142 -14l1 -10q7 -68 7 -103z" />
    <glyph glyph-name="uniFC8E" unicode="&#xfee8;&#xfef0;" horiz-adv-x="955" arabic-form="final" 
d="M645 575q0 -28 -18.5 -47t-46.5 -19t-47.5 19t-19.5 47t19.5 47t47.5 19t46.5 -19t18.5 -47zM744 -1q0 -109 -104 -176t-262 -67q-172 0 -255.5 70.5t-83.5 213.5q0 60 15 138h118q-13 -67 -13 -112q0 -85 57.5 -126t178.5 -41q103 0 171 23t68 59q0 40 -95 52l-112 16
q-73 10 -109.5 47.5t-36.5 96.5q0 98 94 177t207 79q89 0 145 -44t104 -147l26 -54q18 -39 37.5 -52t60.5 -13v-111l-29 -28q-64 0 -102 27t-75 111l-23 50q-30 68 -70.5 95t-107.5 27q-64 0 -111.5 -25t-47.5 -59q0 -19 16.5 -29.5t55.5 -16.5l118 -17q90 -12 127.5 -52
t37.5 -112z" />
    <glyph glyph-name="uniFC8F" unicode="&#xfee8;&#xfef2;" horiz-adv-x="955" arabic-form="final" 
d="M645 575q0 -28 -18.5 -47t-46.5 -19t-47.5 19t-19.5 47t19.5 47t47.5 19t46.5 -19t18.5 -47zM744 -1q0 -109 -104 -176t-262 -67q-172 0 -255.5 70.5t-83.5 213.5q0 60 15 138h118q-13 -67 -13 -112q0 -85 57.5 -126t178.5 -41q103 0 171 23t68 59q0 40 -95 52l-112 16
q-73 10 -109.5 47.5t-36.5 96.5q0 98 94 177t207 79q89 0 145 -44t104 -147l26 -54q18 -39 37.5 -52t60.5 -13v-111l-29 -28q-64 0 -102 27t-75 111l-23 50q-30 68 -70.5 95t-107.5 27q-64 0 -111.5 -25t-47.5 -59q0 -19 16.5 -29.5t55.5 -16.5l118 -17q90 -12 127.5 -52
t37.5 -112zM523 -376q0 -28 -18.5 -47t-46.5 -19t-47.5 19t-19.5 47t19.5 47.5t47.5 19.5t46.5 -19.5t18.5 -47.5zM365 -376q0 -28 -18.5 -47t-46.5 -19t-47.5 19t-19.5 47t19.5 47.5t47.5 19.5t46.5 -19.5t18.5 -47.5z" />
    <glyph glyph-name="uniFC91" unicode="&#xfef4;&#xfeae;" horiz-adv-x="633" arabic-form="final" 
d="M269 93q0 -170 -61 -251t-190 -81q-50 0 -90 6v140q46 -8 86 -8q72 0 104 45.5t32 144.5q0 50 -8 116l-18 150l383 35l18 -161q6 -54 28 -72q23 -18 80 -18v-111l-28 -28q-101 0 -145 51q-44 53 -57 185l-1 5l-142 -13l1 -10q8 -90 8 -125zM588 -139q0 -25 -17 -42
t-42 -17t-42 17t-17 42t17 42t42 17t42 -17t17 -42zM444 -139q0 -25 -16.5 -42t-41.5 -17t-42 17t-17 42t17 42t42 17t41.5 -17t16.5 -42z" />
    <glyph glyph-name="uniFC92" unicode="&#xfef4;&#xfeb0;" horiz-adv-x="633" arabic-form="final" 
d="M224 496q0 -28 -19 -46.5t-47 -18.5t-47 18.5t-19 46.5t19 47.5t47 19.5t47 -19.5t19 -47.5zM269 93q0 -170 -61 -251t-190 -81q-50 0 -90 6v140q46 -8 86 -8q72 0 104 45.5t32 144.5q0 50 -8 116l-18 150l383 35l18 -161q6 -54 28 -72q23 -18 80 -18v-111l-28 -28
q-101 0 -145 51q-44 53 -57 185l-1 5l-142 -13l1 -10q8 -90 8 -125zM587 -121q0 -25 -17 -41.5t-42 -16.5t-42 16.5t-17 41.5t17 42t42 17t42 -17t17 -42zM445 -121q0 -25 -16.5 -41.5t-41.5 -16.5t-42 16.5t-17 41.5t17 42t42 17t41.5 -17t16.5 -42z" />
    <glyph glyph-name="uniFC94" unicode="&#xfef4;&#xfee6;" horiz-adv-x="1013" arabic-form="final" 
d="M400 413q0 -28 -19 -47t-47 -19t-47 19t-19 47t19 47.5t47 19.5t47 -19.5t19 -47.5zM648 115q0 -147 -80.5 -227.5t-224.5 -80.5q-148 0 -225.5 69t-78.5 203q0 79 16 156h118q-14 -68 -14 -120q0 -81 48.5 -123t139.5 -42q100 0 146.5 38.5t46.5 123.5q0 37 -8 93
l-18 150l372 35l19 -161q6 -54 28 -72q23 -18 80 -18v-111l-29 -28q-101 0 -145 51q-42 51 -56 185l-1 6l-142 -14l1 -10q7 -68 7 -103zM953 -139q0 -25 -17 -42t-42 -17t-42 17t-17 42t17 42t42 17t42 -17t17 -42zM810 -139q0 -25 -17 -42t-42 -17t-42 17t-17 42t17 42
t42 17t42 -17t17 -42z" />
    <glyph glyph-name="uniFC95" unicode="&#xfef4;&#xfef0;" horiz-adv-x="955" arabic-form="final" 
d="M744 -1q0 -109 -104 -176t-262 -67q-172 0 -255.5 70.5t-83.5 213.5q0 60 15 138h118q-13 -67 -13 -112q0 -85 57.5 -126t178.5 -41q103 0 171 23t68 59q0 40 -95 52l-112 16q-73 10 -109.5 47.5t-36.5 96.5q0 98 94 177t207 79q89 0 145 -44t104 -147l26 -54
q18 -39 37.5 -52t60.5 -13v-111l-29 -28q-64 0 -102 27t-75 111l-23 50q-30 68 -70.5 95t-107.5 27q-64 0 -111.5 -25t-47.5 -59q0 -19 16.5 -29.5t55.5 -16.5l118 -17q90 -12 127.5 -52t37.5 -112zM948 -267q0 -28 -19 -47t-47 -19t-47 19t-19 47t19 47t47 19t47 -19
t19 -47zM790 -267q0 -28 -19 -47t-47 -19t-47 19t-19 47t19 47t47 19t47 -19t19 -47z" />
    <glyph glyph-name="uniFC96" unicode="&#xfef4;&#xfef2;" horiz-adv-x="955" arabic-form="final" 
d="M744 -1q0 -109 -104 -176t-262 -67q-172 0 -255.5 70.5t-83.5 213.5q0 60 15 138h118q-13 -67 -13 -112q0 -85 57.5 -126t178.5 -41q103 0 171 23t68 59q0 40 -95 52l-112 16q-73 10 -109.5 47.5t-36.5 96.5q0 98 94 177t207 79q89 0 145 -44t104 -147l26 -54
q18 -39 37.5 -52t60.5 -13v-111l-29 -28q-64 0 -102 27t-75 111l-23 50q-30 68 -70.5 95t-107.5 27q-64 0 -111.5 -25t-47.5 -59q0 -19 16.5 -29.5t55.5 -16.5l118 -17q90 -12 127.5 -52t37.5 -112zM948 -267q0 -28 -19 -47t-47 -19t-47 19t-19 47t19 47t47 19t47 -19
t19 -47zM790 -267q0 -28 -19 -47t-47 -19t-47 19t-19 47t19 47t47 19t47 -19t19 -47zM523 -376q0 -28 -18.5 -47t-46.5 -19t-47.5 19t-19.5 47t19.5 47.5t47.5 19.5t46.5 -19.5t18.5 -47.5zM365 -376q0 -28 -18.5 -47t-46.5 -19t-47.5 19t-19.5 47t19.5 47.5t47.5 19.5
t46.5 -19.5t18.5 -47.5z" />
    <glyph glyph-name="uniFCC9" unicode="&#xfedf;&#xfea0;" horiz-adv-x="672" arabic-form="initial" 
d="M81 0h-109v112l28 27h85q73 0 121.5 8t120.5 30l66 23q53 18 73 22l-74 11l-90 17q-40 7 -82 9q-41 3 -113 3h-65v128h107q83 0 111 24t28 95v251h127v-251q0 -117 -66 -156l62 -12q130 -23 215 -23h27v-128h-32q-43 0 -82.5 -14.5t-115.5 -58.5l-72 -39
q-83 -47 -137 -62.5t-133 -15.5zM394 -132q0 -28 -19 -47t-47 -19t-47.5 19t-19.5 47t19.5 47t47.5 19t47 -19t19 -47z" />
    <glyph glyph-name="uniFCCA" unicode="&#xfedf;&#xfea4;" horiz-adv-x="672" arabic-form="initial" 
d="M81 0h-109v112l28 27h85q73 0 121.5 8t120.5 30l66 23q53 18 73 22l-74 11l-90 17q-40 7 -82 9q-41 3 -113 3h-65v128h107q83 0 111 24t28 95v251h127v-251q0 -117 -66 -156l62 -12q130 -23 215 -23h27v-128h-32q-43 0 -82.5 -14.5t-115.5 -58.5l-72 -39
q-83 -47 -137 -62.5t-133 -15.5z" />
    <glyph glyph-name="uniFCCB" unicode="&#xfedf;&#xfea8;" horiz-adv-x="672" arabic-form="initial" 
d="M81 0h-109v112l28 27h85q73 0 121.5 8t120.5 30l66 23q53 18 73 22l-74 11l-90 17q-40 7 -82 9q-41 3 -113 3h-65v128h107q83 0 111 24t28 95v251h127v-251q0 -117 -66 -156l62 -12q130 -23 215 -23h27v-128h-32q-43 0 -82.5 -14.5t-115.5 -58.5l-72 -39
q-83 -47 -137 -62.5t-133 -15.5zM174 554q0 -28 -19 -47t-47 -19t-47.5 19t-19.5 47t19.5 47t47.5 19t47 -19t19 -47z" />
    <glyph glyph-name="uniFCCD" unicode="&#xfedf;&#xfeec;" horiz-adv-x="629" arabic-form="initial" 
d="M602 210q0 -103 -65 -162t-181 -59q-98 0 -174 39q-99 -28 -210 -28v112l28 27q43 0 62 1q-32 56 -32 122q0 78 51.5 132t127.5 54h10v312h127v-291q142 -48 199 -106q57 -59 57 -153zM129 262q0 -64 75 -101q96 28 96 101q0 36 -26 60.5t-65 24.5q-35 0 -57.5 -24.5
t-22.5 -60.5zM393 262q0 -73 -47 -133q11 -1 35 -1q122 0 122 79q0 35 -26.5 60t-89.5 49q6 -26 6 -54z" />
    <glyph glyph-name="uniFCFB" unicode="&#xfeb3;&#xfef0;" horiz-adv-x="1460" arabic-form="isolated" 
d="M744 -1q0 -109 -104 -176t-262 -67q-172 0 -255.5 70.5t-83.5 213.5q0 60 15 138h118q-13 -67 -13 -112q0 -85 57.5 -126t178.5 -41q103 0 171 23t68 59q0 40 -95 52l-112 16q-73 10 -109.5 47.5t-36.5 96.5q0 98 94 177t207 79q90 0 145 -43q57 -45 103 -142l26 -54
q21 -47 41 -63t59 -16q90 0 90 117v37h120v-51q0 -51 18.5 -77t48.5 -26q66 0 66 89q0 43 -15 135h125q10 -73 10 -139q0 -111 -49.5 -169t-138.5 -58q-58 0 -100.5 29.5t-54.5 80.5q-9 -54 -44.5 -82t-93.5 -28q-69 0 -110 32q-40 31 -81 123l-22 50q-30 63 -70.5 89.5
t-106.5 26.5q-64 0 -111.5 -25t-47.5 -59q0 -19 16 -29t56 -17l118 -17q90 -12 127.5 -52t37.5 -112z" />
    <glyph glyph-name="uniFCFC" unicode="&#xfeb3;&#xfef2;" horiz-adv-x="1460" arabic-form="isolated" 
d="M744 -1q0 -109 -104 -176t-262 -67q-172 0 -255.5 70.5t-83.5 213.5q0 60 15 138h118q-13 -67 -13 -112q0 -85 57.5 -126t178.5 -41q103 0 171 23t68 59q0 40 -95 52l-112 16q-73 10 -109.5 47.5t-36.5 96.5q0 98 94 177t207 79q90 0 145 -43q57 -45 103 -142l26 -54
q21 -47 41 -63t59 -16q90 0 90 117v37h120v-51q0 -51 18.5 -77t48.5 -26q66 0 66 89q0 43 -15 135h125q10 -73 10 -139q0 -111 -49.5 -169t-138.5 -58q-58 0 -100.5 29.5t-54.5 80.5q-9 -54 -44.5 -82t-93.5 -28q-69 0 -110 32q-40 31 -81 123l-22 50q-30 63 -70.5 89.5
t-106.5 26.5q-64 0 -111.5 -25t-47.5 -59q0 -19 16 -29t56 -17l118 -17q90 -12 127.5 -52t37.5 -112zM523 -376q0 -28 -18.5 -47t-46.5 -19t-47.5 19t-19.5 47t19.5 47.5t47.5 19.5t46.5 -19.5t18.5 -47.5zM365 -376q0 -28 -18.5 -47t-46.5 -19t-47.5 19t-19.5 47t19.5 47.5
t47.5 19.5t46.5 -19.5t18.5 -47.5z" />
    <glyph glyph-name="uniFCFD" unicode="&#xfeb7;&#xfef0;" horiz-adv-x="1460" arabic-form="isolated" 
d="M1146 545q0 -25 -16.5 -42t-41.5 -17t-42 17t-17 42t17 42t42 17t41.5 -17t16.5 -42zM1074 415q0 -25 -16.5 -41.5t-41.5 -16.5t-42 16.5t-17 41.5t17 42t42 17t41.5 -17t16.5 -42zM1218 415q0 -25 -17 -41.5t-42 -16.5t-42 16.5t-17 41.5t17 42t42 17t42 -17t17 -42z
M744 -1q0 -109 -104 -176t-262 -67q-172 0 -255.5 70.5t-83.5 213.5q0 60 15 138h118q-13 -67 -13 -112q0 -85 57.5 -126t178.5 -41q103 0 171 23t68 59q0 40 -95 52l-112 16q-73 10 -109.5 47.5t-36.5 96.5q0 98 94 177t207 79q90 0 145 -43q57 -45 103 -142l26 -54
q21 -47 41 -63t59 -16q90 0 90 117v37h120v-51q0 -51 18.5 -77t48.5 -26q66 0 66 89q0 43 -15 135h125q10 -73 10 -139q0 -111 -49.5 -169t-138.5 -58q-58 0 -100.5 29.5t-54.5 80.5q-9 -54 -44.5 -82t-93.5 -28q-69 0 -110 32q-40 31 -81 123l-22 50q-30 63 -70.5 89.5
t-106.5 26.5q-64 0 -111.5 -25t-47.5 -59q0 -19 16 -29t56 -17l118 -17q90 -12 127.5 -52t37.5 -112z" />
    <glyph glyph-name="uniFCFE" unicode="&#xfeb7;&#xfef2;" horiz-adv-x="1460" arabic-form="isolated" 
d="M1146 545q0 -25 -16.5 -42t-41.5 -17t-42 17t-17 42t17 42t42 17t41.5 -17t16.5 -42zM1074 415q0 -25 -16.5 -41.5t-41.5 -16.5t-42 16.5t-17 41.5t17 42t42 17t41.5 -17t16.5 -42zM1218 415q0 -25 -17 -41.5t-42 -16.5t-42 16.5t-17 41.5t17 42t42 17t42 -17t17 -42z
M744 -1q0 -109 -104 -176t-262 -67q-172 0 -255.5 70.5t-83.5 213.5q0 60 15 138h118q-13 -67 -13 -112q0 -85 57.5 -126t178.5 -41q103 0 171 23t68 59q0 40 -95 52l-112 16q-73 10 -109.5 47.5t-36.5 96.5q0 98 94 177t207 79q90 0 145 -43q57 -45 103 -142l26 -54
q21 -47 41 -63t59 -16q90 0 90 117v37h120v-51q0 -51 18.5 -77t48.5 -26q66 0 66 89q0 43 -15 135h125q10 -73 10 -139q0 -111 -49.5 -169t-138.5 -58q-58 0 -100.5 29.5t-54.5 80.5q-9 -54 -44.5 -82t-93.5 -28q-69 0 -110 32q-40 31 -81 123l-22 50q-30 63 -70.5 89.5
t-106.5 26.5q-64 0 -111.5 -25t-47.5 -59q0 -19 16 -29t56 -17l118 -17q90 -12 127.5 -52t37.5 -112zM523 -376q0 -28 -18.5 -47t-46.5 -19t-47.5 19t-19.5 47t19.5 47.5t47.5 19.5t46.5 -19.5t18.5 -47.5zM365 -376q0 -28 -18.5 -47t-46.5 -19t-47.5 19t-19.5 47t19.5 47.5
t47.5 19.5t46.5 -19.5t18.5 -47.5z" />
    <glyph glyph-name="uniFCFF" unicode="&#xfea3;&#xfef0;" horiz-adv-x="1088" arabic-form="isolated" 
d="M747 -27q0 -96 -98.5 -156.5t-261.5 -60.5q-348 0 -348 276q0 59 16 146h118q-14 -77 -14 -116q0 -163 236 -163q117 0 181.5 21t64.5 59q0 21 -22 37t-71 16h-75v119l203 66q89 29 152 44q-25 6 -54 16l-90 31q-57 19 -83 19q-44 0 -52 -45h-108q3 86 45.5 135t115.5 49
q46 0 128 -30l133 -44q63 -24 98 -32.5t78 -8.5h30l-1 -127h-17q-52 0 -123.5 -23.5t-187.5 -70.5l-90 -35q48 -14 72.5 -48t24.5 -74z" />
    <glyph glyph-name="uniFD00" unicode="&#xfea3;&#xfef2;" horiz-adv-x="1088" arabic-form="isolated" 
d="M747 -27q0 -96 -98.5 -156.5t-261.5 -60.5q-348 0 -348 276q0 59 16 146h118q-14 -77 -14 -116q0 -163 236 -163q117 0 181.5 21t64.5 59q0 21 -22 37t-71 16h-75v119l203 66q89 29 152 44q-25 6 -54 16l-90 31q-57 19 -83 19q-44 0 -52 -45h-108q3 86 45.5 135t115.5 49
q46 0 128 -30l133 -44q63 -24 98 -32.5t78 -8.5h30l-1 -127h-17q-52 0 -123.5 -23.5t-187.5 -70.5l-90 -35q48 -14 72.5 -48t24.5 -74zM538 -376q0 -28 -19 -47t-47 -19t-47.5 19t-19.5 47t19.5 47.5t47.5 19.5t47 -19.5t19 -47.5zM379 -376q0 -28 -18.5 -47t-46.5 -19
t-47.5 19t-19.5 47t19.5 47.5t47.5 19.5t46.5 -19.5t18.5 -47.5z" />
    <glyph glyph-name="uniFD01" unicode="&#xfe9f;&#xfef0;" horiz-adv-x="1088" arabic-form="isolated" 
d="M747 -27q0 -96 -98.5 -156.5t-261.5 -60.5q-348 0 -348 276q0 59 16 146h118q-14 -77 -14 -116q0 -163 236 -163q117 0 181.5 21t64.5 59q0 21 -22 37t-71 16h-75v119l203 66q89 29 152 44q-25 6 -54 16l-90 31q-57 19 -83 19q-44 0 -52 -45h-108q3 86 45.5 135t115.5 49
q46 0 128 -30l133 -44q63 -24 98 -32.5t78 -8.5h30l-1 -127h-17q-52 0 -123.5 -23.5t-187.5 -70.5l-90 -35q48 -14 72.5 -48t24.5 -74zM959 -88q0 -28 -19 -47t-47 -19t-47 19t-19 47t19 47t47 19t47 -19t19 -47z" />
    <glyph glyph-name="uniFD02" unicode="&#xfe9f;&#xfef2;" horiz-adv-x="1088" arabic-form="isolated" 
d="M747 -27q0 -96 -98.5 -156.5t-261.5 -60.5q-348 0 -348 276q0 59 16 146h118q-14 -77 -14 -116q0 -163 236 -163q117 0 181.5 21t64.5 59q0 21 -22 37t-71 16h-75v119l203 66q89 29 152 44q-25 6 -54 16l-90 31q-57 19 -83 19q-44 0 -52 -45h-108q3 86 45.5 135t115.5 49
q46 0 128 -30l133 -44q63 -24 98 -32.5t78 -8.5h30l-1 -127h-17q-52 0 -123.5 -23.5t-187.5 -70.5l-90 -35q48 -14 72.5 -48t24.5 -74zM959 -88q0 -28 -19 -47t-47 -19t-47 19t-19 47t19 47t47 19t47 -19t19 -47zM538 -376q0 -28 -19 -47t-47 -19t-47.5 19t-19.5 47
t19.5 47.5t47.5 19.5t47 -19.5t19 -47.5zM379 -376q0 -28 -18.5 -47t-46.5 -19t-47.5 19t-19.5 47t19.5 47.5t47.5 19.5t46.5 -19.5t18.5 -47.5z" />
    <glyph glyph-name="uniFD03" unicode="&#xfea7;&#xfef0;" horiz-adv-x="1088" arabic-form="isolated" 
d="M714 583q0 -28 -19 -46.5t-47 -18.5t-47.5 18.5t-19.5 46.5t19.5 47.5t47.5 19.5t47 -19.5t19 -47.5zM747 -27q0 -96 -98.5 -156.5t-261.5 -60.5q-348 0 -348 276q0 59 16 146h118q-14 -77 -14 -116q0 -163 236 -163q117 0 181.5 21t64.5 59q0 21 -22 37t-71 16h-75v119
l203 66q89 29 152 44q-25 6 -54 16l-90 31q-57 19 -83 19q-44 0 -52 -45h-108q3 86 45.5 135t115.5 49q46 0 128 -30l133 -44q63 -24 98 -32.5t78 -8.5h30l-1 -127h-17q-52 0 -123.5 -23.5t-187.5 -70.5l-90 -35q48 -14 72.5 -48t24.5 -74z" />
    <glyph glyph-name="uniFD04" unicode="&#xfea7;&#xfef2;" horiz-adv-x="1088" arabic-form="isolated" 
d="M714 583q0 -28 -19 -46.5t-47 -18.5t-47.5 18.5t-19.5 46.5t19.5 47.5t47.5 19.5t47 -19.5t19 -47.5zM747 -27q0 -96 -98.5 -156.5t-261.5 -60.5q-348 0 -348 276q0 59 16 146h118q-14 -77 -14 -116q0 -163 236 -163q117 0 181.5 21t64.5 59q0 21 -22 37t-71 16h-75v119
l203 66q89 29 152 44q-25 6 -54 16l-90 31q-57 19 -83 19q-44 0 -52 -45h-108q3 86 45.5 135t115.5 49q46 0 128 -30l133 -44q63 -24 98 -32.5t78 -8.5h30l-1 -127h-17q-52 0 -123.5 -23.5t-187.5 -70.5l-90 -35q48 -14 72.5 -48t24.5 -74zM538 -376q0 -28 -19 -47t-47 -19
t-47.5 19t-19.5 47t19.5 47.5t47.5 19.5t47 -19.5t19 -47.5zM379 -376q0 -28 -18.5 -47t-46.5 -19t-47.5 19t-19.5 47t19.5 47.5t47.5 19.5t46.5 -19.5t18.5 -47.5z" />
    <glyph glyph-name="uniFD05" unicode="&#xfebb;&#xfef0;" horiz-adv-x="1476" arabic-form="isolated" 
d="M744 -1q0 -109 -104 -176t-262 -67q-172 0 -255.5 70.5t-83.5 213.5q0 60 15 138h118q-13 -67 -13 -112q0 -85 57.5 -126t178.5 -41q103 0 171 23t68 59q0 40 -95 52l-112 16q-73 10 -109.5 47.5t-36.5 96.5q0 98 94 177t207 79q85 0 135 -41.5t106 -143.5l29 -54
q5 -12 14 -24q68 129 160 200t198 71q101 0 161.5 -64t60.5 -156q0 -248 -384 -248q-141 0 -204 31t-111 124l-26 50q-33 64 -70.5 90t-102.5 26q-64 0 -111.5 -25t-47.5 -59q0 -19 16 -29t56 -17l118 -17q90 -12 127.5 -52t37.5 -112zM1219 318q-156 0 -279 -177
q48 -11 151 -11q134 0 195 25t61 79q0 33 -34.5 58.5t-93.5 25.5z" />
    <glyph glyph-name="uniFD06" unicode="&#xfebb;&#xfef2;" horiz-adv-x="1476" arabic-form="isolated" 
d="M744 -1q0 -109 -104 -176t-262 -67q-172 0 -255.5 70.5t-83.5 213.5q0 60 15 138h118q-13 -67 -13 -112q0 -85 57.5 -126t178.5 -41q103 0 171 23t68 59q0 40 -95 52l-112 16q-73 10 -109.5 47.5t-36.5 96.5q0 98 94 177t207 79q85 0 135 -41.5t106 -143.5l29 -54
q5 -12 14 -24q68 129 160 200t198 71q101 0 161.5 -64t60.5 -156q0 -248 -384 -248q-141 0 -204 31t-111 124l-26 50q-33 64 -70.5 90t-102.5 26q-64 0 -111.5 -25t-47.5 -59q0 -19 16 -29t56 -17l118 -17q90 -12 127.5 -52t37.5 -112zM1219 318q-156 0 -279 -177
q48 -11 151 -11q134 0 195 25t61 79q0 33 -34.5 58.5t-93.5 25.5zM523 -376q0 -28 -18.5 -47t-46.5 -19t-47.5 19t-19.5 47t19.5 47.5t47.5 19.5t46.5 -19.5t18.5 -47.5zM365 -376q0 -28 -18.5 -47t-46.5 -19t-47.5 19t-19.5 47t19.5 47.5t47.5 19.5t46.5 -19.5t18.5 -47.5z
" />
    <glyph glyph-name="uniFD07" unicode="&#xfebf;&#xfef0;" horiz-adv-x="1476" arabic-form="isolated" 
d="M1258 583q0 -28 -18.5 -46.5t-46.5 -18.5t-47.5 18.5t-19.5 46.5t19.5 47.5t47.5 19.5t46.5 -19.5t18.5 -47.5zM744 -1q0 -109 -104 -176t-262 -67q-172 0 -255.5 70.5t-83.5 213.5q0 60 15 138h118q-13 -67 -13 -112q0 -85 57.5 -126t178.5 -41q103 0 171 23t68 59
q0 40 -95 52l-112 16q-73 10 -109.5 47.5t-36.5 96.5q0 98 94 177t207 79q85 0 135 -41.5t106 -143.5l29 -54q5 -12 14 -24q68 129 160 200t198 71q101 0 161.5 -64t60.5 -156q0 -248 -384 -248q-141 0 -204 31t-111 124l-26 50q-33 64 -70.5 90t-102.5 26q-64 0 -111.5 -25
t-47.5 -59q0 -19 16 -29t56 -17l118 -17q90 -12 127.5 -52t37.5 -112zM1219 318q-156 0 -279 -177q48 -11 151 -11q134 0 195 25t61 79q0 33 -34.5 58.5t-93.5 25.5z" />
    <glyph glyph-name="uniFD08" unicode="&#xfebf;&#xfef2;" horiz-adv-x="1476" arabic-form="isolated" 
d="M1258 583q0 -28 -18.5 -46.5t-46.5 -18.5t-47.5 18.5t-19.5 46.5t19.5 47.5t47.5 19.5t46.5 -19.5t18.5 -47.5zM744 -1q0 -109 -104 -176t-262 -67q-172 0 -255.5 70.5t-83.5 213.5q0 60 15 138h118q-13 -67 -13 -112q0 -85 57.5 -126t178.5 -41q103 0 171 23t68 59
q0 40 -95 52l-112 16q-73 10 -109.5 47.5t-36.5 96.5q0 98 94 177t207 79q85 0 135 -41.5t106 -143.5l29 -54q5 -12 14 -24q68 129 160 200t198 71q101 0 161.5 -64t60.5 -156q0 -248 -384 -248q-141 0 -204 31t-111 124l-26 50q-33 64 -70.5 90t-102.5 26q-64 0 -111.5 -25
t-47.5 -59q0 -19 16 -29t56 -17l118 -17q90 -12 127.5 -52t37.5 -112zM1219 318q-156 0 -279 -177q48 -11 151 -11q134 0 195 25t61 79q0 33 -34.5 58.5t-93.5 25.5zM523 -376q0 -28 -18.5 -47t-46.5 -19t-47.5 19t-19.5 47t19.5 47.5t47.5 19.5t46.5 -19.5t18.5 -47.5z
M365 -376q0 -28 -18.5 -47t-46.5 -19t-47.5 19t-19.5 47t19.5 47.5t47.5 19.5t46.5 -19.5t18.5 -47.5z" />
    <glyph glyph-name="uniFD0D" unicode="&#xfeb7;&#xfeae;" horiz-adv-x="1088" arabic-form="isolated" 
d="M781 533q0 -25 -17 -41.5t-42 -16.5t-42 16.5t-17 41.5t17 42t42 17t42 -17t17 -42zM709 404q0 -25 -17 -42t-42 -17t-42 17t-17 42t17 42t42 17t42 -17t17 -42zM852 404q0 -25 -16.5 -42t-41.5 -17t-42 17t-17 42t17 42t42 17t41.5 -17t16.5 -42zM269 93
q0 -170 -61 -251t-190 -81q-50 0 -90 6v140q46 -8 86 -8q72 0 104 45.5t32 144.5q0 50 -8 116l-14 115l383 35l14 -126q6 -55 23 -76.5t56 -21.5q32 0 51 26t19 77v51h120v-51q0 -51 18.5 -77t48.5 -26q66 0 66 89q0 50 -20 135h125q15 -82 15 -139q0 -111 -49.5 -169
t-138.5 -58q-56 0 -98.5 28t-56.5 77q-14 -105 -124 -105q-84 0 -121 48q-37 49 -52 168l-143 -13q5 -58 5 -99z" />
    <glyph glyph-name="uniFD0E" unicode="&#xfeb3;&#xfeae;" horiz-adv-x="1088" arabic-form="isolated" 
d="M269 93q0 -170 -61 -251t-190 -81q-50 0 -90 6v140q46 -8 86 -8q72 0 104 45.5t32 144.5q0 50 -8 116l-14 115l383 35l14 -126q6 -55 23 -76.5t56 -21.5q32 0 51 26t19 77v51h120v-51q0 -51 18.5 -77t48.5 -26q66 0 66 89q0 50 -20 135h125q15 -82 15 -139
q0 -111 -49.5 -169t-138.5 -58q-56 0 -98.5 28t-56.5 77q-14 -105 -124 -105q-84 0 -121 48q-37 49 -52 168l-143 -13q5 -58 5 -99z" />
    <glyph glyph-name="uniFD0F" unicode="&#xfebb;&#xfeae;" horiz-adv-x="1180" arabic-form="isolated" 
d="M269 93q0 -170 -61 -251t-190 -81q-50 0 -90 6v140q46 -8 86 -8q72 0 104 45.5t32 144.5q0 50 -8 116l-18 150l383 35l18 -161q5 -49 22 -69q73 142 170.5 219.5t210.5 77.5q101 0 162 -64t61 -156q0 -248 -448 -248q-159 0 -222.5 51.5t-77.5 195.5l-1 5l-142 -13l1 -10
q8 -90 8 -125zM924 318q-166 0 -298 -187q72 -3 91 -3q181 0 257.5 26t76.5 80q0 33 -34 58.5t-93 25.5z" />
    <glyph glyph-name="uniFD10" unicode="&#xfebf;&#xfeae;" horiz-adv-x="1180" arabic-form="isolated" 
d="M970 583q0 -28 -19 -46.5t-47 -18.5t-47 18.5t-19 46.5t19 47.5t47 19.5t47 -19.5t19 -47.5zM269 93q0 -170 -61 -251t-190 -81q-50 0 -90 6v140q46 -8 86 -8q72 0 104 45.5t32 144.5q0 50 -8 116l-18 150l383 35l18 -161q5 -49 22 -69q73 142 170.5 219.5t210.5 77.5
q101 0 162 -64t61 -156q0 -248 -448 -248q-159 0 -222.5 51.5t-77.5 195.5l-1 5l-142 -13l1 -10q8 -90 8 -125zM924 318q-166 0 -298 -187q72 -3 91 -3q181 0 257.5 26t76.5 80q0 33 -34 58.5t-93 25.5z" />
    <glyph glyph-name="uniFD13" unicode="&#xfecc;&#xfef0;" horiz-adv-x="1139" arabic-form="final" 
d="M748 -60q0 -78 -98 -131t-269 -53q-342 0 -342 284q0 65 17 138h118q-13 -67 -13 -112q0 -167 228 -167q252 0 252 67q0 47 -112 47h-10v126h184q-31 31 -74 91l-37 49v131q131 35 250 35q123 0 179.5 -35.5t57.5 -115.5q1 -82 -84 -155q12 -1 37 -1l107 1v-111l-28 -28
h-24q-165 0 -263 49q-57 -19 -121 -26q45 -31 45 -83zM842 314q-78 0 -149 -12q43 -61 81 -94.5t85 -48.5q61 15 94 42t32 58q-1 29 -35.5 42t-107.5 13z" />
    <glyph glyph-name="uniFD14" unicode="&#xfecc;&#xfef2;" horiz-adv-x="1139" arabic-form="final" 
d="M748 -60q0 -78 -98 -131t-269 -53q-342 0 -342 284q0 65 17 138h118q-13 -67 -13 -112q0 -167 228 -167q252 0 252 67q0 47 -112 47h-10v126h184q-31 31 -74 91l-37 49v131q131 35 250 35q123 0 179.5 -35.5t57.5 -115.5q1 -82 -84 -155q12 -1 37 -1l107 1v-111l-28 -28
h-24q-165 0 -263 49q-57 -19 -121 -26q45 -31 45 -83zM842 314q-78 0 -149 -12q43 -61 81 -94.5t85 -48.5q61 15 94 42t32 58q-1 29 -35.5 42t-107.5 13zM534 -376q0 -28 -18.5 -47t-46.5 -19t-47.5 19t-19.5 47t19.5 47.5t47.5 19.5t46.5 -19.5t18.5 -47.5zM376 -376
q0 -28 -18.5 -47t-46.5 -19t-47.5 19t-19.5 47t19.5 47.5t47.5 19.5t46.5 -19.5t18.5 -47.5z" />
    <glyph glyph-name="uniFD15" unicode="&#xfed0;&#xfef0;" horiz-adv-x="1139" arabic-form="final" 
d="M902 571q0 -28 -18.5 -47t-46.5 -19t-47.5 19t-19.5 47t19.5 47.5t47.5 19.5t46.5 -19.5t18.5 -47.5zM748 -60q0 -78 -98 -131t-269 -53q-342 0 -342 284q0 65 17 138h118q-13 -67 -13 -112q0 -167 228 -167q252 0 252 67q0 47 -112 47h-10v126h184q-31 31 -74 91l-37 49
v131q131 35 250 35q123 0 179.5 -35.5t57.5 -115.5q1 -82 -84 -155q12 -1 37 -1l107 1v-111l-28 -28h-24q-165 0 -263 49q-57 -19 -121 -26q45 -31 45 -83zM842 314q-78 0 -149 -12q43 -61 81 -94.5t85 -48.5q61 15 94 42t32 58q-1 29 -35.5 42t-107.5 13z" />
    <glyph glyph-name="uniFD16" unicode="&#xfed0;&#xfef2;" horiz-adv-x="1139" arabic-form="final" 
d="M902 571q0 -28 -18.5 -47t-46.5 -19t-47.5 19t-19.5 47t19.5 47.5t47.5 19.5t46.5 -19.5t18.5 -47.5zM748 -60q0 -78 -98 -131t-269 -53q-342 0 -342 284q0 65 17 138h118q-13 -67 -13 -112q0 -167 228 -167q252 0 252 67q0 47 -112 47h-10v126h184q-31 31 -74 91l-37 49
v131q131 35 250 35q123 0 179.5 -35.5t57.5 -115.5q1 -82 -84 -155q12 -1 37 -1l107 1v-111l-28 -28h-24q-165 0 -263 49q-57 -19 -121 -26q45 -31 45 -83zM842 314q-78 0 -149 -12q43 -61 81 -94.5t85 -48.5q61 15 94 42t32 58q-1 29 -35.5 42t-107.5 13zM534 -376
q0 -28 -18.5 -47t-46.5 -19t-47.5 19t-19.5 47t19.5 47.5t47.5 19.5t46.5 -19.5t18.5 -47.5zM376 -376q0 -28 -18.5 -47t-46.5 -19t-47.5 19t-19.5 47t19.5 47.5t47.5 19.5t46.5 -19.5t18.5 -47.5z" />
    <glyph glyph-name="uniFD17" unicode="&#xfeb4;&#xfef0;" horiz-adv-x="1518" arabic-form="final" 
d="M830 264l26 -54q21 -47 41 -63t59 -16q90 0 90 117v37h120v-51q0 -51 18 -77t47 -26q72 0 72 103v86h120v-86q0 -50 23 -72.5t72 -22.5v-111l-28 -28q-65 0 -106 29.5t-52 81.5q-9 -58 -43 -90t-85 -32q-49 0 -83.5 28.5t-44.5 78.5q-20 -107 -138 -107q-69 0 -110 32
q-40 31 -81 123l-22 50q-30 63 -70.5 89.5t-106.5 26.5q-64 0 -111.5 -25t-47.5 -59q0 -19 16 -29t56 -17l118 -17q90 -12 127.5 -52t37.5 -112q0 -109 -104 -176t-262 -67q-172 0 -255.5 70.5t-83.5 213.5q0 60 15 138h118q-13 -67 -13 -112q0 -85 57.5 -126t178.5 -41
q103 0 171 23t68 59q0 40 -95 52l-112 16q-73 10 -109.5 47.5t-36.5 96.5q0 98 94 177t207 79q90 0 145 -43q57 -45 103 -142z" />
    <glyph glyph-name="uniFD18" unicode="&#xfeb4;&#xfef2;" horiz-adv-x="1518" arabic-form="final" 
d="M830 264l26 -54q21 -47 41 -63t59 -16q90 0 90 117v37h120v-51q0 -51 18 -77t47 -26q72 0 72 103v86h120v-86q0 -50 23 -72.5t72 -22.5v-111l-28 -28q-65 0 -106 29.5t-52 81.5q-9 -58 -43 -90t-85 -32q-49 0 -83.5 28.5t-44.5 78.5q-20 -107 -138 -107q-69 0 -110 32
q-40 31 -81 123l-22 50q-30 63 -70.5 89.5t-106.5 26.5q-64 0 -111.5 -25t-47.5 -59q0 -19 16 -29t56 -17l118 -17q90 -12 127.5 -52t37.5 -112q0 -109 -104 -176t-262 -67q-172 0 -255.5 70.5t-83.5 213.5q0 60 15 138h118q-13 -67 -13 -112q0 -85 57.5 -126t178.5 -41
q103 0 171 23t68 59q0 40 -95 52l-112 16q-73 10 -109.5 47.5t-36.5 96.5q0 98 94 177t207 79q90 0 145 -43q57 -45 103 -142zM523 -376q0 -28 -18.5 -47t-46.5 -19t-47.5 19t-19.5 47t19.5 47.5t47.5 19.5t46.5 -19.5t18.5 -47.5zM365 -376q0 -28 -18.5 -47t-46.5 -19
t-47.5 19t-19.5 47t19.5 47.5t47.5 19.5t46.5 -19.5t18.5 -47.5z" />
    <glyph glyph-name="uniFD19" unicode="&#xfeb8;&#xfef0;" horiz-adv-x="1518" arabic-form="final" 
d="M1162 545q0 -25 -16.5 -42t-41.5 -17t-42 17t-17 42t17 42t42 17t41.5 -17t16.5 -42zM1090 415q0 -25 -16.5 -41.5t-41.5 -16.5t-42 16.5t-17 41.5t17 42t42 17t41.5 -17t16.5 -42zM1234 415q0 -25 -17 -41.5t-42 -16.5t-42 16.5t-17 41.5t17 42t42 17t42 -17t17 -42z
M830 264l26 -54q21 -47 41 -63t59 -16q90 0 90 117v37h120v-51q0 -51 18 -77t47 -26q72 0 72 103v86h120v-86q0 -50 23 -72.5t72 -22.5v-111l-28 -28q-65 0 -106 29.5t-52 81.5q-9 -58 -43 -90t-85 -32q-49 0 -83.5 28.5t-44.5 78.5q-20 -107 -138 -107q-69 0 -110 32
q-40 31 -81 123l-22 50q-30 63 -70.5 89.5t-106.5 26.5q-64 0 -111.5 -25t-47.5 -59q0 -19 16 -29t56 -17l118 -17q90 -12 127.5 -52t37.5 -112q0 -109 -104 -176t-262 -67q-172 0 -255.5 70.5t-83.5 213.5q0 60 15 138h118q-13 -67 -13 -112q0 -85 57.5 -126t178.5 -41
q103 0 171 23t68 59q0 40 -95 52l-112 16q-73 10 -109.5 47.5t-36.5 96.5q0 98 94 177t207 79q90 0 145 -43q57 -45 103 -142z" />
    <glyph glyph-name="uniFD1A" unicode="&#xfeb8;&#xfef2;" horiz-adv-x="1518" arabic-form="final" 
d="M1162 545q0 -25 -16.5 -42t-41.5 -17t-42 17t-17 42t17 42t42 17t41.5 -17t16.5 -42zM1090 415q0 -25 -16.5 -41.5t-41.5 -16.5t-42 16.5t-17 41.5t17 42t42 17t41.5 -17t16.5 -42zM1234 415q0 -25 -17 -41.5t-42 -16.5t-42 16.5t-17 41.5t17 42t42 17t42 -17t17 -42z
M830 264l26 -54q21 -47 41 -63t59 -16q90 0 90 117v37h120v-51q0 -51 18 -77t47 -26q72 0 72 103v86h120v-86q0 -50 23 -72.5t72 -22.5v-111l-28 -28q-65 0 -106 29.5t-52 81.5q-9 -58 -43 -90t-85 -32q-49 0 -83.5 28.5t-44.5 78.5q-20 -107 -138 -107q-69 0 -110 32
q-40 31 -81 123l-22 50q-30 63 -70.5 89.5t-106.5 26.5q-64 0 -111.5 -25t-47.5 -59q0 -19 16 -29t56 -17l118 -17q90 -12 127.5 -52t37.5 -112q0 -109 -104 -176t-262 -67q-172 0 -255.5 70.5t-83.5 213.5q0 60 15 138h118q-13 -67 -13 -112q0 -85 57.5 -126t178.5 -41
q103 0 171 23t68 59q0 40 -95 52l-112 16q-73 10 -109.5 47.5t-36.5 96.5q0 98 94 177t207 79q90 0 145 -43q57 -45 103 -142zM523 -376q0 -28 -18.5 -47t-46.5 -19t-47.5 19t-19.5 47t19.5 47.5t47.5 19.5t46.5 -19.5t18.5 -47.5zM365 -376q0 -28 -18.5 -47t-46.5 -19
t-47.5 19t-19.5 47t19.5 47.5t47.5 19.5t46.5 -19.5t18.5 -47.5z" />
    <glyph glyph-name="uniFD1B" unicode="&#xfea4;&#xfef0;" horiz-adv-x="1092" arabic-form="final" 
d="M747 -27q0 -96 -98.5 -156.5t-261.5 -60.5q-348 0 -348 276q0 59 16 146h118q-14 -77 -14 -116q0 -163 236 -163q117 0 181.5 21t64.5 59q0 21 -22 37t-71 16h-75v119l203 66q89 29 152 44q-25 6 -54 16l-90 31q-57 19 -83 19q-44 0 -52 -45h-108q3 86 45.5 135t115.5 49
q46 0 128 -30l133 -44q63 -24 98 -32.5t78 -8.5h30l-1 -127h-17q-23 0 -63 -7v-12q0 -35 23.5 -50.5t80.5 -15.5v-109l-28 -30q-86 0 -129.5 48.5t-43.5 140.5q-20 -7 -151 -59l-90 -35q48 -14 72.5 -48t24.5 -74z" />
    <glyph glyph-name="uniFD1C" unicode="&#xfea4;&#xfef2;" horiz-adv-x="1092" arabic-form="final" 
d="M747 -27q0 -96 -98.5 -156.5t-261.5 -60.5q-348 0 -348 276q0 59 16 146h118q-14 -77 -14 -116q0 -163 236 -163q117 0 181.5 21t64.5 59q0 21 -22 37t-71 16h-75v119l203 66q89 29 152 44q-25 6 -54 16l-90 31q-57 19 -83 19q-44 0 -52 -45h-108q3 86 45.5 135t115.5 49
q46 0 128 -30l133 -44q63 -24 98 -32.5t78 -8.5h30l-1 -127h-17q-23 0 -63 -7v-12q0 -35 23.5 -50.5t80.5 -15.5v-109l-28 -30q-86 0 -129.5 48.5t-43.5 140.5q-20 -7 -151 -59l-90 -35q48 -14 72.5 -48t24.5 -74zM538 -376q0 -28 -19 -47t-47 -19t-47.5 19t-19.5 47
t19.5 47.5t47.5 19.5t47 -19.5t19 -47.5zM379 -376q0 -28 -18.5 -47t-46.5 -19t-47.5 19t-19.5 47t19.5 47.5t47.5 19.5t46.5 -19.5t18.5 -47.5z" />
    <glyph glyph-name="uniFD1D" unicode="&#xfea0;&#xfef0;" horiz-adv-x="1092" arabic-form="final" 
d="M747 -27q0 -96 -98.5 -156.5t-261.5 -60.5q-348 0 -348 276q0 59 16 146h118q-14 -77 -14 -116q0 -163 236 -163q117 0 181.5 21t64.5 59q0 21 -22 37t-71 16h-75v119l203 66q89 29 152 44q-25 6 -54 16l-90 31q-57 19 -83 19q-44 0 -52 -45h-108q3 86 45.5 135t115.5 49
q46 0 128 -30l133 -44q63 -24 98 -32.5t78 -8.5h30l-1 -127h-17q-23 0 -63 -7v-12q0 -35 23.5 -50.5t80.5 -15.5v-109l-28 -30q-86 0 -129.5 48.5t-43.5 140.5q-20 -7 -151 -59l-90 -35q48 -14 72.5 -48t24.5 -74zM959 -88q0 -28 -19 -47t-47 -19t-47 19t-19 47t19 47t47 19
t47 -19t19 -47z" />
    <glyph glyph-name="uniFD1E" unicode="&#xfea0;&#xfef2;" horiz-adv-x="1092" arabic-form="final" 
d="M747 -27q0 -96 -98.5 -156.5t-261.5 -60.5q-348 0 -348 276q0 59 16 146h118q-14 -77 -14 -116q0 -163 236 -163q117 0 181.5 21t64.5 59q0 21 -22 37t-71 16h-75v119l203 66q89 29 152 44q-25 6 -54 16l-90 31q-57 19 -83 19q-44 0 -52 -45h-108q3 86 45.5 135t115.5 49
q46 0 128 -30l133 -44q63 -24 98 -32.5t78 -8.5h30l-1 -127h-17q-23 0 -63 -7v-12q0 -35 23.5 -50.5t80.5 -15.5v-109l-28 -30q-86 0 -129.5 48.5t-43.5 140.5q-20 -7 -151 -59l-90 -35q48 -14 72.5 -48t24.5 -74zM959 -88q0 -28 -19 -47t-47 -19t-47 19t-19 47t19 47t47 19
t47 -19t19 -47zM538 -376q0 -28 -19 -47t-47 -19t-47.5 19t-19.5 47t19.5 47.5t47.5 19.5t47 -19.5t19 -47.5zM379 -376q0 -28 -18.5 -47t-46.5 -19t-47.5 19t-19.5 47t19.5 47.5t47.5 19.5t46.5 -19.5t18.5 -47.5z" />
    <glyph glyph-name="uniFD1F" unicode="&#xfea8;&#xfef0;" horiz-adv-x="1092" arabic-form="final" 
d="M714 583q0 -28 -19 -46.5t-47 -18.5t-47.5 18.5t-19.5 46.5t19.5 47.5t47.5 19.5t47 -19.5t19 -47.5zM747 -27q0 -96 -98.5 -156.5t-261.5 -60.5q-348 0 -348 276q0 59 16 146h118q-14 -77 -14 -116q0 -163 236 -163q117 0 181.5 21t64.5 59q0 21 -22 37t-71 16h-75v119
l203 66q89 29 152 44q-25 6 -54 16l-90 31q-57 19 -83 19q-44 0 -52 -45h-108q3 86 45.5 135t115.5 49q46 0 128 -30l133 -44q63 -24 98 -32.5t78 -8.5h30l-1 -127h-17q-23 0 -63 -7v-12q0 -35 23.5 -50.5t80.5 -15.5v-109l-28 -30q-86 0 -129.5 48.5t-43.5 140.5
q-20 -7 -151 -59l-90 -35q48 -14 72.5 -48t24.5 -74z" />
    <glyph glyph-name="uniFD20" unicode="&#xfea8;&#xfef2;" horiz-adv-x="1092" arabic-form="final" 
d="M714 583q0 -28 -19 -46.5t-47 -18.5t-47.5 18.5t-19.5 46.5t19.5 47.5t47.5 19.5t47 -19.5t19 -47.5zM747 -27q0 -96 -98.5 -156.5t-261.5 -60.5q-348 0 -348 276q0 59 16 146h118q-14 -77 -14 -116q0 -163 236 -163q117 0 181.5 21t64.5 59q0 21 -22 37t-71 16h-75v119
l203 66q89 29 152 44q-25 6 -54 16l-90 31q-57 19 -83 19q-44 0 -52 -45h-108q3 86 45.5 135t115.5 49q46 0 128 -30l133 -44q63 -24 98 -32.5t78 -8.5h30l-1 -127h-17q-23 0 -63 -7v-12q0 -35 23.5 -50.5t80.5 -15.5v-109l-28 -30q-86 0 -129.5 48.5t-43.5 140.5
q-20 -7 -151 -59l-90 -35q48 -14 72.5 -48t24.5 -74zM538 -376q0 -28 -19 -47t-47 -19t-47.5 19t-19.5 47t19.5 47.5t47.5 19.5t47 -19.5t19 -47.5zM379 -376q0 -28 -18.5 -47t-46.5 -19t-47.5 19t-19.5 47t19.5 47.5t47.5 19.5t46.5 -19.5t18.5 -47.5z" />
    <glyph glyph-name="uniFD21" unicode="&#xfebc;&#xfef0;" horiz-adv-x="1520" arabic-form="final" 
d="M744 -1q0 -109 -104 -176t-262 -67q-172 0 -255.5 70.5t-83.5 213.5q0 60 15 138h118q-13 -67 -13 -112q0 -85 57.5 -126t178.5 -41q103 0 171 23t68 59q0 40 -95 52l-112 16q-73 10 -109.5 47.5t-36.5 96.5q0 98 94 177t207 79q85 0 135 -41.5t106 -143.5l29 -54
q5 -12 14 -24q68 129 160 200t198 71q101 0 161.5 -64t60.5 -156q0 -45 -14 -84q33 -14 88 -14v-109l-28 -30q-87 0 -133 58q-97 -69 -297 -69q-141 0 -204 31t-111 124l-26 50q-33 64 -70.5 90t-102.5 26q-64 0 -111.5 -25t-47.5 -59q0 -19 16 -29t56 -17l118 -17
q90 -12 127.5 -52t37.5 -112zM1219 318q-156 0 -279 -177q48 -11 151 -11q134 0 195 25t61 79q0 33 -34.5 58.5t-93.5 25.5z" />
    <glyph glyph-name="uniFD22" unicode="&#xfebc;&#xfef2;" horiz-adv-x="1520" arabic-form="final" 
d="M744 -1q0 -109 -104 -176t-262 -67q-172 0 -255.5 70.5t-83.5 213.5q0 60 15 138h118q-13 -67 -13 -112q0 -85 57.5 -126t178.5 -41q103 0 171 23t68 59q0 40 -95 52l-112 16q-73 10 -109.5 47.5t-36.5 96.5q0 98 94 177t207 79q85 0 135 -41.5t106 -143.5l29 -54
q5 -12 14 -24q68 129 160 200t198 71q101 0 161.5 -64t60.5 -156q0 -45 -14 -84q33 -14 88 -14v-109l-28 -30q-87 0 -133 58q-97 -69 -297 -69q-141 0 -204 31t-111 124l-26 50q-33 64 -70.5 90t-102.5 26q-64 0 -111.5 -25t-47.5 -59q0 -19 16 -29t56 -17l118 -17
q90 -12 127.5 -52t37.5 -112zM1219 318q-156 0 -279 -177q48 -11 151 -11q134 0 195 25t61 79q0 33 -34.5 58.5t-93.5 25.5zM523 -376q0 -28 -18.5 -47t-46.5 -19t-47.5 19t-19.5 47t19.5 47.5t47.5 19.5t46.5 -19.5t18.5 -47.5zM365 -376q0 -28 -18.5 -47t-46.5 -19
t-47.5 19t-19.5 47t19.5 47.5t47.5 19.5t46.5 -19.5t18.5 -47.5z" />
    <glyph glyph-name="uniFD23" unicode="&#xfec0;&#xfef0;" horiz-adv-x="1520" arabic-form="final" 
d="M1258 583q0 -28 -18.5 -46.5t-46.5 -18.5t-47.5 18.5t-19.5 46.5t19.5 47.5t47.5 19.5t46.5 -19.5t18.5 -47.5zM744 -1q0 -109 -104 -176t-262 -67q-172 0 -255.5 70.5t-83.5 213.5q0 60 15 138h118q-13 -67 -13 -112q0 -85 57.5 -126t178.5 -41q103 0 171 23t68 59
q0 40 -95 52l-112 16q-73 10 -109.5 47.5t-36.5 96.5q0 98 94 177t207 79q85 0 135 -41.5t106 -143.5l29 -54q5 -12 14 -24q68 129 160 200t198 71q101 0 161.5 -64t60.5 -156q0 -45 -14 -84q33 -14 88 -14v-109l-28 -30q-87 0 -133 58q-97 -69 -297 -69q-141 0 -204 31
t-111 124l-26 50q-33 64 -70.5 90t-102.5 26q-64 0 -111.5 -25t-47.5 -59q0 -19 16 -29t56 -17l118 -17q90 -12 127.5 -52t37.5 -112zM1219 318q-156 0 -279 -177q48 -11 151 -11q134 0 195 25t61 79q0 33 -34.5 58.5t-93.5 25.5z" />
    <glyph glyph-name="uniFD24" unicode="&#xfec0;&#xfef2;" horiz-adv-x="1520" arabic-form="final" 
d="M1258 583q0 -28 -18.5 -46.5t-46.5 -18.5t-47.5 18.5t-19.5 46.5t19.5 47.5t47.5 19.5t46.5 -19.5t18.5 -47.5zM744 -1q0 -109 -104 -176t-262 -67q-172 0 -255.5 70.5t-83.5 213.5q0 60 15 138h118q-13 -67 -13 -112q0 -85 57.5 -126t178.5 -41q103 0 171 23t68 59
q0 40 -95 52l-112 16q-73 10 -109.5 47.5t-36.5 96.5q0 98 94 177t207 79q85 0 135 -41.5t106 -143.5l29 -54q5 -12 14 -24q68 129 160 200t198 71q101 0 161.5 -64t60.5 -156q0 -45 -14 -84q33 -14 88 -14v-109l-28 -30q-87 0 -133 58q-97 -69 -297 -69q-141 0 -204 31
t-111 124l-26 50q-33 64 -70.5 90t-102.5 26q-64 0 -111.5 -25t-47.5 -59q0 -19 16 -29t56 -17l118 -17q90 -12 127.5 -52t37.5 -112zM1219 318q-156 0 -279 -177q48 -11 151 -11q134 0 195 25t61 79q0 33 -34.5 58.5t-93.5 25.5zM523 -376q0 -28 -18.5 -47t-46.5 -19
t-47.5 19t-19.5 47t19.5 47.5t47.5 19.5t46.5 -19.5t18.5 -47.5zM365 -376q0 -28 -18.5 -47t-46.5 -19t-47.5 19t-19.5 47t19.5 47.5t47.5 19.5t46.5 -19.5t18.5 -47.5z" />
    <glyph glyph-name="uniFD29" unicode="&#xfeb8;&#xfeae;" horiz-adv-x="1176" arabic-form="final" 
d="M799 533q0 -25 -16.5 -41.5t-41.5 -16.5t-42 16.5t-17 41.5t17 42t42 17t41.5 -17t16.5 -42zM727 404q0 -25 -16.5 -42t-41.5 -17t-42 17t-17 42t17 42t42 17t41.5 -17t16.5 -42zM870 404q0 -25 -16.5 -42t-41.5 -17t-42 17t-17 42t17 42t42 17t41.5 -17t16.5 -42z
M269 93q0 -170 -61 -251t-190 -81q-50 0 -90 6v140q46 -8 86 -8q72 0 104 45.5t32 144.5q0 50 -8 116l-14 115l383 35l14 -126q6 -55 23 -76.5t56 -21.5q40 0 58.5 25t18.5 78v51h121v-51q0 -103 70 -103q78 0 78 103v86h120v-86q0 -50 25.5 -72.5t80.5 -22.5v-111l-28 -28
q-69 0 -112.5 29t-55.5 81q-17 -121 -135 -121q-53 0 -88.5 27.5t-45.5 76.5q-17 -104 -131 -104q-84 0 -121 48q-37 49 -52 168l-143 -13q5 -58 5 -99z" />
    <glyph glyph-name="uniFD2A" unicode="&#xfeb4;&#xfeae;" horiz-adv-x="1176" arabic-form="final" 
d="M269 93q0 -170 -61 -251t-190 -81q-50 0 -90 6v140q46 -8 86 -8q72 0 104 45.5t32 144.5q0 50 -8 116l-14 115l383 35l14 -126q6 -55 23 -76.5t56 -21.5q40 0 58.5 25t18.5 78v51h121v-51q0 -103 70 -103q78 0 78 103v86h120v-86q0 -50 25.5 -72.5t80.5 -22.5v-111
l-28 -28q-69 0 -112.5 29t-55.5 81q-17 -121 -135 -121q-53 0 -88.5 27.5t-45.5 76.5q-17 -104 -131 -104q-84 0 -121 48q-37 49 -52 168l-143 -13q5 -58 5 -99z" />
    <glyph glyph-name="uniFD2B" unicode="&#xfebc;&#xfeae;" horiz-adv-x="1249" arabic-form="final" 
d="M269 93q0 -170 -61 -251t-190 -81q-50 0 -90 6v140q46 -8 86 -8q72 0 104 45.5t32 144.5q0 50 -8 116l-18 150l383 35l18 -161q5 -49 22 -69q73 142 170.5 219.5t210.5 77.5q101 0 162 -64t61 -156q0 -40 -10 -70q34 -28 108 -28v-109l-28 -30q-98 0 -145 75
q-104 -86 -373 -86q-159 0 -222.5 51.5t-77.5 195.5l-1 5l-142 -13l1 -10q8 -90 8 -125zM924 318q-166 0 -298 -187q72 -3 91 -3q181 0 257.5 26t76.5 80q0 33 -34 58.5t-93 25.5z" />
    <glyph glyph-name="uniFD2C" unicode="&#xfec0;&#xfeae;" horiz-adv-x="1249" arabic-form="final" 
d="M970 583q0 -28 -19 -46.5t-47 -18.5t-47 18.5t-19 46.5t19 47.5t47 19.5t47 -19.5t19 -47.5zM269 93q0 -170 -61 -251t-190 -81q-50 0 -90 6v140q46 -8 86 -8q72 0 104 45.5t32 144.5q0 50 -8 116l-18 150l383 35l18 -161q5 -49 22 -69q73 142 170.5 219.5t210.5 77.5
q101 0 162 -64t61 -156q0 -40 -10 -70q34 -28 108 -28v-109l-28 -30q-98 0 -145 75q-104 -86 -373 -86q-159 0 -222.5 51.5t-77.5 195.5l-1 5l-142 -13l1 -10q8 -90 8 -125zM924 318q-166 0 -298 -187q72 -3 91 -3q181 0 257.5 26t76.5 80q0 33 -34 58.5t-93 25.5z" />
    <glyph glyph-name="uniFDF2" unicode="&#x627;&#xfedf;&#xfee0;&#xfeea;" horiz-adv-x="1374" arabic-form="isolated" 
d="M707 1082v-181h-66v181h66zM727 704q-48 0 -61 43q-12 -59 -54 -59q-62 0 -62 86q0 23 7 53l58 5q-5 -22 -5 -39q0 -20 15 -20q20 0 20 65l57 6q0 -55 20 -55q16 0 16 27q0 4 -0.5 10t-1.5 14t-1 13l59 5q3 -45 3 -48q0 -51 -18 -78.5t-52 -27.5zM1311 760v-760h-128v760
h128zM1051 704v-472q0 -120 -52 -176t-163 -56q-173 0 -196 116q-18 -116 -144 -116q-136 0 -164 129q-33 -99 -146 -99q-76 0 -121.5 44.5t-45.5 121.5q0 120 149 199l147 81v91h127v-330q0 -51 19 -74.5t61 -23.5q51 0 71.5 22t20.5 76v397h128v-397q0 -52 22.5 -75
t71.5 -23t68.5 20.5t19.5 71.5v473h127zM119 220q0 -51 86 -51q47 0 78 16q32 17 32 70v103l-122 -58q-74 -41 -74 -80z" />
    <glyph glyph-name="uniFEF5" unicode="&#xfedf;&#xfe82;" horiz-adv-x="592" arabic-form="isolated" 
d="M65 676h-58q0 54 23.5 83t66.5 29q26 0 72 -8.5t70 -8.5q32 0 59 10v-77q-23 -12 -60 -12q-30 0 -74 8.5t-67 8.5q-32 0 -32 -33zM346 0h-311v138l202 169l35 30l-292 203l73 112l305 -216q30 57 30 160v164h127v-164q0 -77 -14.5 -127.5t-53.5 -97.5q55 -45 78 -89
t23 -101q0 -89 -51.5 -135t-150.5 -46zM321 257l-151 -118h183q87 0 87 39q0 37 -86 102l-2 2q-15 -14 -31 -25z" />
    <glyph glyph-name="uniFEF6" unicode="&#xfee0;&#xfe82;" horiz-adv-x="633" arabic-form="final" 
d="M60 648h-59q0 54 23.5 83.5t67.5 29.5q26 0 72 -8.5t70 -8.5q25 0 59 9v-76q-25 -13 -60 -13q-29 0 -73 8.5t-68 8.5q-32 0 -32 -33zM202 6l-182 -23v138l153 18l-77 478h136l67 -459q67 14 90 37.5t23 72.5v492h127v-520q0 -57 20.5 -79t73.5 -22v-111l-28 -28h-11
q-74 0 -113 31t-52 97q-16 -52 -68.5 -80.5t-158.5 -41.5z" />
    <glyph glyph-name="uniFEF7" unicode="&#xfedf;&#xfe84;" horiz-adv-x="592" arabic-form="isolated" 
d="M269 801v-77l-221 -32v77l39 6q-26 24 -24 61q0 42 28.5 70t71.5 28q39 0 63 -24t27 -67l-51 -6q-13 20 -41 20q-39 0 -39 -29q0 -19 22 -31t52 -7zM346 0h-311v138l202 169l35 30l-292 203l73 112l305 -216q30 57 30 160v164h127v-164q0 -77 -14.5 -127.5t-53.5 -97.5
q55 -45 78 -89t23 -101q0 -89 -51.5 -135t-150.5 -46zM321 257l-151 -118h183q87 0 87 39q0 37 -86 102l-2 2q-15 -14 -31 -25z" />
    <glyph glyph-name="uniFEF8" unicode="&#xfee0;&#xfe84;" horiz-adv-x="633" arabic-form="final" 
d="M264 773v-77l-222 -31v77l40 5q-25 25 -25 62q1 41 29.5 69.5t71.5 28.5q39 0 62.5 -24t27.5 -67l-52 -7q-11 21 -40 21q-39 0 -39 -29q0 -20 21 -31.5t52 -7.5zM202 6l-182 -23v138l153 18l-77 478h136l67 -459q67 14 90 37.5t23 72.5v492h127v-520q0 -57 20.5 -79
t73.5 -22v-111l-28 -28h-11q-74 0 -113 31t-52 97q-16 -52 -68.5 -80.5t-158.5 -41.5z" />
    <glyph glyph-name="uniFEF9" unicode="&#xfedf;&#xfe88;" horiz-adv-x="592" arabic-form="isolated" 
d="M346 0h-311v138l202 169l35 30l-292 203l73 112l305 -216q30 57 30 160v164h127v-164q0 -77 -14.5 -127.5t-53.5 -97.5q55 -45 78 -89t23 -101q0 -89 -51.5 -135t-150.5 -46zM321 257l-151 -118h183q87 0 87 39q0 37 -86 102l-2 2q-15 -14 -31 -25zM246 -185v-77
l-222 -31v76l40 6q-25 23 -25 61q0 42 28.5 70t71.5 28q39 0 63 -24t28 -66l-52 -7q-14 21 -40 21q-39 0 -39 -30q0 -19 21.5 -31t51.5 -7z" />
    <glyph glyph-name="uniFEFA" unicode="&#xfee0;&#xfe88;" horiz-adv-x="633" arabic-form="final" 
d="M202 6l-182 -23v138l153 18l-77 478h136l67 -459q67 14 90 37.5t23 72.5v492h127v-520q0 -57 20.5 -79t73.5 -22v-111l-28 -28h-11q-74 0 -113 31t-52 97q-16 -52 -68.5 -80.5t-158.5 -41.5zM355 -185v-77l-222 -31v76l40 6q-25 23 -25 61q0 42 28.5 70t71.5 28
q39 0 63 -24t28 -66l-52 -7q-14 21 -40 21q-39 0 -39 -30q0 -19 21.5 -31t51.5 -7z" />
    <glyph glyph-name="uniFEFB" unicode="&#xfedf;&#xfe8e;" horiz-adv-x="592" arabic-form="isolated" 
d="M346 0h-311v138l202 169l35 30l-292 203l73 112l305 -216q30 57 30 160v164h127v-164q0 -77 -14.5 -127.5t-53.5 -97.5q55 -45 78 -89t23 -101q0 -89 -51.5 -135t-150.5 -46zM321 257l-151 -118h183q87 0 87 39q0 37 -86 102l-2 2q-15 -14 -31 -25z" />
    <glyph glyph-name="uniFEFC" unicode="&#xfee0;&#xfe8e;" horiz-adv-x="633" arabic-form="final" 
d="M202 6l-182 -23v138l153 18l-77 478h136l67 -459q67 14 90 37.5t23 72.5v492h127v-520q0 -57 20.5 -79t73.5 -22v-111l-28 -28h-11q-74 0 -113 31t-52 97q-16 -52 -68.5 -80.5t-158.5 -41.5z" />
    <glyph glyph-name="f_f" unicode="ff" horiz-adv-x="686" 
d="M231 0h-143v420h-69v103h69v54q0 89 49.5 135.5t137.5 46.5q43 0 73 -10v-108q-26 8 -52 8q-32 0 -48.5 -19t-16.5 -50v-57h172v60q0 89 49.5 136t137.5 47q29 0 75 -10v-109q-21 8 -53 8q-65 0 -65 -69v-63h114v-103h-114v-420h-144v420h-172v-420z" />
    <glyph glyph-name="f_i" unicode="fi" horiz-adv-x="647" 
d="M231 0h-143v420h-69v103h69v60q0 89 49 136t137 47q35 0 71 -9v-109q-18 7 -49 7q-65 0 -65 -69v-63h114v-103h-114v-420zM505 594q-34 0 -58 23t-24 56t24 56t58 23q35 0 59 -22.5t24 -56.5t-24 -56.5t-59 -22.5zM578 0h-144v523h144v-523z" />
    <glyph glyph-name="f_l" unicode="fl" horiz-adv-x="646" 
d="M231 0h-143v420h-69v103h69v60q0 89 49 136t137 47q35 0 71 -9v-109q-18 7 -49 7q-65 0 -65 -69v-63h114v-103h-114v-420zM578 0h-144v760h144v-760z" />
    <glyph glyph-name="uni064906BA" unicode="&#x649;&#x6ba;" horiz-adv-x="1013" 
d="M648 115q0 -147 -80.5 -227.5t-224.5 -80.5q-148 0 -225.5 69t-78.5 203q0 79 16 156h118q-14 -68 -14 -120q0 -81 48.5 -123t139.5 -42q100 0 146.5 38.5t46.5 123.5q0 37 -8 93l-18 150l372 35l19 -161q6 -54 28 -72q23 -18 80 -18v-111l-29 -28q-101 0 -145 51
q-42 51 -56 185l-1 6l-142 -14l1 -10q7 -68 7 -103z" />
    <glyph glyph-name="uni0649FEE6" unicode="&#x649;&#xfee6;" horiz-adv-x="1013" 
d="M400 413q0 -28 -19 -47t-47 -19t-47 19t-19 47t19 47.5t47 19.5t47 -19.5t19 -47.5zM648 115q0 -147 -80.5 -227.5t-224.5 -80.5q-148 0 -225.5 69t-78.5 203q0 79 16 156h118q-14 -68 -14 -120q0 -81 48.5 -123t139.5 -42q100 0 146.5 38.5t46.5 123.5q0 37 -8 93
l-18 150l372 35l19 -161q6 -54 28 -72q23 -18 80 -18v-111l-29 -28q-101 0 -145 51q-42 51 -56 185l-1 6l-142 -14l1 -10q7 -68 7 -103z" />
    <glyph glyph-name="uni0649FEAE" unicode="&#x649;&#xfeae;" horiz-adv-x="633" 
d="M269 93q0 -170 -61 -251t-190 -81q-50 0 -90 6v140q46 -8 86 -8q72 0 104 45.5t32 144.5q0 50 -8 116l-18 150l383 35l18 -161q6 -54 28 -72q23 -18 80 -18v-111l-28 -28q-101 0 -145 51q-44 53 -57 185l-1 5l-142 -13l1 -10q8 -90 8 -125z" />
    <glyph glyph-name="uni0649FEB0" unicode="&#x649;&#xfeb0;" horiz-adv-x="633" 
d="M224 496q0 -28 -19 -46.5t-47 -18.5t-47 18.5t-19 46.5t19 47.5t47 19.5t47 -19.5t19 -47.5zM269 93q0 -170 -61 -251t-190 -81q-50 0 -90 6v140q46 -8 86 -8q72 0 104 45.5t32 144.5q0 50 -8 116l-18 150l383 35l18 -161q6 -54 28 -72q23 -18 80 -18v-111l-28 -28
q-101 0 -145 51q-44 53 -57 185l-1 5l-142 -13l1 -10q8 -90 8 -125z" />
    <glyph glyph-name="uniFECBFEF0" unicode="&#xfecb;&#xfef0;" horiz-adv-x="1076" 
d="M749 -58q0 -78 -98 -131t-269 -53q-343 0 -343 284q0 65 17 138h118q-13 -67 -13 -112q0 -167 229 -167q127 0 189 17t62 46q0 47 -95 47h-26v132l140 12q-77 54 -77 152q0 93 61 154.5t157 61.5t153.5 -55t61.5 -158h-110q-9 35 -38.5 55t-71.5 20q-52 0 -82.5 -26
t-30.5 -71q0 -49 47 -78t124 -29q47 0 126 9l64 7v-132l-338 -38q43 -30 43 -85z" />
    <glyph glyph-name="uniFECFFEF0" unicode="&#xfecf;&#xfef0;" horiz-adv-x="1080" 
d="M871 624q0 -28 -18.5 -47t-46.5 -19t-47.5 19t-19.5 47t19.5 47.5t47.5 19.5t46.5 -19.5t18.5 -47.5zM749 -58q0 -78 -98 -131t-269 -53q-343 0 -343 284q0 65 17 138h118q-13 -67 -13 -112q0 -167 229 -167q127 0 189 17t62 46q0 47 -95 47h-26v132l140 12
q-77 54 -77 152q0 93 61 154.5t157 61.5t153.5 -55t61.5 -158h-110q-9 35 -38.5 55t-71.5 20q-52 0 -82.5 -26t-30.5 -71q0 -49 47 -78t124 -29q47 0 126 9l64 7v-132l-338 -38q43 -30 43 -85z" />
    <glyph glyph-name="uniFB58FEF0" unicode="&#xfb58;&#xfef0;" horiz-adv-x="842" 
d="M753 -52q0 -80 -102 -136t-259 -56q-353 0 -353 276q0 59 16 146h118q-14 -77 -14 -116q0 -163 246 -163q113 0 177 20.5t64 56.5q0 22 -23.5 38t-73.5 16h-111v139h142q53 0 74 18.5t21 62.5q0 66 -18 175h122q16 -103 16 -191q0 -151 -110 -183q68 -36 68 -103z
M821 -318q0 -25 -17 -42t-42 -17t-42 17t-17 42t17 42t42 17t42 -17t17 -42zM677 -318q0 -25 -17 -42t-42 -17t-41.5 17t-16.5 42t16.5 42t41.5 17t42 -17t17 -42zM749 -448q0 -25 -17 -42t-42 -17t-42 17t-17 42t17 42t42 17t42 -17t17 -42z" />
    <glyph glyph-name="uniFB7CFEF0" unicode="&#xfb7c;&#xfef0;" horiz-adv-x="1088" 
d="M747 -27q0 -96 -98.5 -156.5t-261.5 -60.5q-348 0 -348 276q0 59 16 146h118q-14 -77 -14 -116q0 -163 236 -163q117 0 181.5 21t64.5 59q0 21 -22 37t-71 16h-75v119l203 66q89 29 152 44q-25 6 -54 16l-90 31q-57 19 -83 19q-44 0 -52 -45h-108q3 86 45.5 135t115.5 49
q46 0 128 -30l133 -44q63 -24 98 -32.5t78 -8.5h30l-1 -127h-17q-52 0 -123.5 -23.5t-187.5 -70.5l-90 -35q48 -14 72.5 -48t24.5 -74zM1025 -78q0 -25 -17 -42t-42 -17t-42 17t-17 42t17 42t42 17t42 -17t17 -42zM881 -78q0 -25 -17 -42t-42 -17t-41.5 17t-16.5 42t16.5 42
t41.5 17t42 -17t17 -42zM953 -207q0 -25 -17 -42t-42 -17t-42 17t-17 42t17 41.5t42 16.5t42 -16.5t17 -41.5z" />
    <glyph glyph-name="uniFB6CFEF0" unicode="&#xfb6c;&#xfef0;" horiz-adv-x="817" 
d="M614 859q0 -25 -17 -41.5t-42 -16.5t-42 16.5t-17 41.5t17 42t42 17t42 -17t17 -42zM542 730q0 -25 -17 -42t-42 -17t-42 17t-17 42t17 42t42 17t42 -17t17 -42zM685 730q0 -25 -17 -42t-42 -17t-42 17t-17 42t17 42t42 17t42 -17t17 -42zM727 -58q0 -77 -94.5 -131.5
t-240.5 -54.5q-353 0 -353 284q0 65 17 138h118q-13 -67 -13 -112q0 -167 244 -167q100 0 158 19t58 53q0 45 -97 45h-112v133l143 -1q69 0 97.5 19t34.5 72q-49 -18 -137 -18q-93 0 -147.5 45t-54.5 123q0 88 62 155t145 67q99 0 162 -89.5t63 -237.5q0 -107 -29 -164
t-95 -77q71 -29 71 -101zM444 391q0 -65 110 -65q73 0 129 13q-13 62 -52 98.5t-91 36.5q-44 0 -70 -24t-26 -59z" />
    <glyph glyph-name="uniFB94FEF0" unicode="&#xfb94;&#xfef0;" horiz-adv-x="794" 
d="M794 928l-1 -92l-445 -246v93zM748 -41q0 -87 -99.5 -145t-255.5 -58q-177 0 -263.5 71t-89.5 213q-1 60 17 138h118q-13 -67 -13 -112q0 -167 244 -167q111 0 173.5 21t62.5 59q0 51 -89 51h-120v135h134q62 0 62 45q0 21 -19.5 41.5t-70.5 50.5l-191 102v118l446 246
l-1 -137l-303 -164l92 -55q82 -43 118 -91.5t36 -109.5q0 -96 -76 -141q88 -31 88 -111z" />
    <glyph glyph-name="uniFEDFFB51" unicode="&#xfedf;&#xfb51;" horiz-adv-x="592" 
d="M47 676h-59q0 52 24 80.5t67 28.5h3q23 55 58 85.5t74 30.5q43 0 68 -27t25 -74q0 -107 -102 -107q-24 0 -64.5 8t-61.5 8q-32 0 -32 -33zM207 825q-47 0 -72 -46q48 -10 69 -10q47 0 47 26q0 30 -44 30zM346 0h-311v138l202 169l35 30l-292 203l73 112l305 -216
q30 57 30 160v164h127v-164q0 -77 -14.5 -127.5t-53.5 -97.5q55 -45 78 -89t23 -101q0 -89 -51.5 -135t-150.5 -46zM321 257l-151 -118h183q87 0 87 39q0 37 -86 102l-2 2q-15 -14 -31 -25z" />
    <glyph glyph-name="uniFEDFFEE4" unicode="&#xfedf;&#xfee4;" horiz-adv-x="370" 
d="M315 75l65 -34l-68 -122l-46 25q-64 34 -122.5 45t-171.5 11v112l28 27q77 0 131 -19q-39 44 -39 120v520h127v-520q0 -69 19 -101t77 -64z" />
    <glyph glyph-name="uniFEDFFB7B" unicode="&#xfedf;&#xfb7b;" horiz-adv-x="650" 
d="M622 -122v-146q-116 -52 -260 -52q-164 0 -257 75q-92 75 -92 200q0 90 52.5 161t154.5 116q-22 0 -83 -2t-92 -2v143h170q55 0 75 23q19 23 19 96v270h127v-270q0 -77 -24 -119h216l-1 -140h-23q-227 0 -349 -68.5t-122 -173.5q0 -76 63 -118.5t174 -42.5q133 0 252 50z
M478 63q0 -24 -16 -40t-40 -16t-39.5 16t-15.5 40t15.5 40t39.5 16t40 -16t16 -40zM342 63q0 -24 -16 -40t-40 -16t-40 16t-16 40t16 40t40 16t40 -16t16 -40zM410 -60q0 -24 -16 -40t-40 -16t-40 16t-16 40q0 23 16 39t40 16t40 -16t16 -39z" />
    <glyph glyph-name="uniFEDFFB7D" unicode="&#xfedf;&#xfb7d;" horiz-adv-x="672" 
d="M81 0h-109v112l28 27h85q73 0 121.5 8t120.5 30l66 23q53 18 73 22l-74 11l-90 17q-40 7 -82 9q-41 3 -113 3h-65v128h107q83 0 111 24t28 95v251h127v-251q0 -117 -66 -156l62 -12q130 -23 215 -23h27v-128h-32q-43 0 -82.5 -14.5t-115.5 -58.5l-72 -39
q-83 -47 -137 -62.5t-133 -15.5zM473 -110q0 -25 -17 -42t-42 -17t-42 17t-17 42t17 42t42 17t42 -17t17 -42zM329 -110q0 -25 -17 -42t-42 -17t-41.5 17t-16.5 42t16.5 42t41.5 17t42 -17t17 -42zM401 -239q0 -25 -17 -42t-42 -17t-42 17t-17 42t17 41.5t42 16.5t42 -16.5
t17 -41.5z" />
    <glyph glyph-name="uniFECBFEF2" unicode="&#xfecb;&#xfef2;" horiz-adv-x="1080" 
d="M749 -58q0 -78 -98 -131t-269 -53q-343 0 -343 284q0 65 17 138h118q-13 -67 -13 -112q0 -167 229 -167q127 0 189 17t62 46q0 47 -95 47h-26v132l140 12q-77 54 -77 152q0 93 61 154.5t157 61.5t153.5 -55t61.5 -158h-110q-9 35 -38.5 55t-71.5 20q-52 0 -82.5 -26
t-30.5 -71q0 -49 47 -78t124 -29q47 0 126 9l64 7v-132l-338 -38q43 -30 43 -85zM527 -374q0 -28 -19 -46.5t-47 -18.5t-47 18.5t-19 46.5t19 47.5t47 19.5t47 -19.5t19 -47.5zM369 -374q0 -28 -19 -46.5t-47 -18.5t-47.5 18.5t-19.5 46.5t19.5 47.5t47.5 19.5t47 -19.5
t19 -47.5z" />
    <glyph glyph-name="uniFECFFEF2" unicode="&#xfecf;&#xfef2;" horiz-adv-x="1080" 
d="M871 624q0 -28 -18.5 -47t-46.5 -19t-47.5 19t-19.5 47t19.5 47.5t47.5 19.5t46.5 -19.5t18.5 -47.5zM749 -58q0 -78 -98 -131t-269 -53q-343 0 -343 284q0 65 17 138h118q-13 -67 -13 -112q0 -167 229 -167q127 0 189 17t62 46q0 47 -95 47h-26v132l140 12
q-77 54 -77 152q0 93 61 154.5t157 61.5t153.5 -55t61.5 -158h-110q-9 35 -38.5 55t-71.5 20q-52 0 -82.5 -26t-30.5 -71q0 -49 47 -78t124 -29q47 0 126 9l64 7v-132l-338 -38q43 -30 43 -85zM527 -374q0 -28 -19 -46.5t-47 -18.5t-47 18.5t-19 46.5t19 47.5t47 19.5
t47 -19.5t19 -47.5zM369 -374q0 -28 -19 -46.5t-47 -18.5t-47.5 18.5t-19.5 46.5t19.5 47.5t47.5 19.5t47 -19.5t19 -47.5z" />
    <glyph glyph-name="uniFB58FEF2" unicode="&#xfb58;&#xfef2;" horiz-adv-x="842" 
d="M753 -52q0 -80 -102 -136t-259 -56q-353 0 -353 276q0 59 16 146h118q-14 -77 -14 -116q0 -163 246 -163q113 0 177 20.5t64 56.5q0 22 -23.5 38t-73.5 16h-111v139h142q53 0 74 18.5t21 62.5q0 66 -18 175h122q16 -103 16 -191q0 -151 -110 -183q68 -36 68 -103z
M821 -318q0 -25 -17 -42t-42 -17t-42 17t-17 42t17 42t42 17t42 -17t17 -42zM677 -318q0 -25 -17 -42t-42 -17t-41.5 17t-16.5 42t16.5 42t41.5 17t42 -17t17 -42zM538 -376q0 -28 -19 -47t-47 -19t-47.5 19t-19.5 47t19.5 47.5t47.5 19.5t47 -19.5t19 -47.5zM379 -376
q0 -28 -18.5 -47t-46.5 -19t-47.5 19t-19.5 47t19.5 47.5t47.5 19.5t46.5 -19.5t18.5 -47.5zM749 -448q0 -25 -17 -42t-42 -17t-42 17t-17 42t17 42t42 17t42 -17t17 -42z" />
    <glyph glyph-name="uniFB7CFEF2" unicode="&#xfb7c;&#xfef2;" horiz-adv-x="1088" 
d="M747 -27q0 -96 -98.5 -156.5t-261.5 -60.5q-348 0 -348 276q0 59 16 146h118q-14 -77 -14 -116q0 -163 236 -163q117 0 181.5 21t64.5 59q0 21 -22 37t-71 16h-75v119l203 66q89 29 152 44q-25 6 -54 16l-90 31q-57 19 -83 19q-44 0 -52 -45h-108q3 86 45.5 135t115.5 49
q46 0 128 -30l133 -44q63 -24 98 -32.5t78 -8.5h30l-1 -127h-17q-52 0 -123.5 -23.5t-187.5 -70.5l-90 -35q48 -14 72.5 -48t24.5 -74zM1025 -78q0 -25 -17 -42t-42 -17t-42 17t-17 42t17 42t42 17t42 -17t17 -42zM881 -78q0 -25 -17 -42t-42 -17t-41.5 17t-16.5 42t16.5 42
t41.5 17t42 -17t17 -42zM953 -207q0 -25 -17 -42t-42 -17t-42 17t-17 42t17 41.5t42 16.5t42 -16.5t17 -41.5zM538 -376q0 -28 -19 -47t-47 -19t-47.5 19t-19.5 47t19.5 47.5t47.5 19.5t47 -19.5t19 -47.5zM379 -376q0 -28 -18.5 -47t-46.5 -19t-47.5 19t-19.5 47t19.5 47.5
t47.5 19.5t46.5 -19.5t18.5 -47.5z" />
    <glyph glyph-name="uniFB6CFEF2" unicode="&#xfb6c;&#xfef2;" horiz-adv-x="817" 
d="M614 859q0 -25 -17 -41.5t-42 -16.5t-42 16.5t-17 41.5t17 42t42 17t42 -17t17 -42zM542 730q0 -25 -17 -42t-42 -17t-42 17t-17 42t17 42t42 17t42 -17t17 -42zM685 730q0 -25 -17 -42t-42 -17t-42 17t-17 42t17 42t42 17t42 -17t17 -42zM727 -58q0 -77 -94.5 -131.5
t-240.5 -54.5q-353 0 -353 284q0 65 17 138h118q-13 -67 -13 -112q0 -167 244 -167q100 0 158 19t58 53q0 45 -97 45h-112v133l143 -1q69 0 97.5 19t34.5 72q-49 -18 -137 -18q-93 0 -147.5 45t-54.5 123q0 88 62 155t145 67q99 0 162 -89.5t63 -237.5q0 -107 -29 -164
t-95 -77q71 -29 71 -101zM444 391q0 -65 110 -65q73 0 129 13q-13 62 -52 98.5t-91 36.5q-44 0 -70 -24t-26 -59zM523 -372q0 -28 -19 -46.5t-47 -18.5t-47 18.5t-19 46.5t19 47.5t47 19.5t47 -19.5t19 -47.5zM365 -372q0 -28 -19 -46.5t-47 -18.5t-47 18.5t-19 46.5
t19 47.5t47 19.5t47 -19.5t19 -47.5z" />
    <glyph glyph-name="uniFB90FEF2" unicode="&#xfb90;&#xfef2;" horiz-adv-x="794" 
d="M748 -41q0 -87 -99.5 -145t-255.5 -58q-177 0 -263.5 71t-89.5 213q-1 60 17 138h118q-13 -67 -13 -112q0 -167 244 -167q111 0 173.5 21t62.5 59q0 51 -89 51h-120v135h134q62 0 62 45q0 21 -19.5 41.5t-70.5 50.5l-191 102v118l446 246l-1 -137l-303 -164l92 -55
q82 -43 118 -91.5t36 -109.5q0 -96 -76 -141q88 -31 88 -111zM539 -372q0 -28 -19 -46.5t-47 -18.5t-47 18.5t-19 46.5t19 47.5t47 19.5t47 -19.5t19 -47.5zM381 -372q0 -28 -19 -46.5t-47 -18.5t-47 18.5t-19 46.5t19 47.5t47 19.5t47 -19.5t19 -47.5z" />
    <glyph glyph-name="uniFB94FEF2" unicode="&#xfb94;&#xfef2;" horiz-adv-x="794" 
d="M794 928l-1 -92l-445 -246v93zM748 -41q0 -87 -99.5 -145t-255.5 -58q-177 0 -263.5 71t-89.5 213q-1 60 17 138h118q-13 -67 -13 -112q0 -167 244 -167q111 0 173.5 21t62.5 59q0 51 -89 51h-120v135h134q62 0 62 45q0 21 -19.5 41.5t-70.5 50.5l-191 102v118l446 246
l-1 -137l-303 -164l92 -55q82 -43 118 -91.5t36 -109.5q0 -96 -76 -141q88 -31 88 -111zM539 -372q0 -28 -19 -46.5t-47 -18.5t-47 18.5t-19 46.5t19 47.5t47 19.5t47 -19.5t19 -47.5zM381 -372q0 -28 -19 -46.5t-47 -18.5t-47 18.5t-19 46.5t19 47.5t47 19.5t47 -19.5
t19 -47.5z" />
    <glyph glyph-name="uniFE91FE8A" unicode="&#xfe91;&#xfe8a;" horiz-adv-x="842" 
d="M244 334v-76l-222 -32v77l40 5q-25 25 -24 62q0 42 28.5 70t71.5 28q39 0 63 -24t27 -67l-52 -7q-11 21 -40 21q-39 0 -39 -29q0 -20 21 -31.5t52 -7.5zM753 -52q0 -80 -102 -136t-259 -56q-353 0 -353 276q0 59 16 146h118q-14 -77 -14 -116q0 -163 246 -163
q113 0 177 20.5t64 56.5q0 22 -23.5 38t-73.5 16h-111v139h142q53 0 74 18.5t21 62.5q0 66 -18 175h122q16 -103 16 -191q0 -151 -110 -183q68 -36 68 -103zM755 -329q0 -28 -19 -46.5t-47 -18.5t-47 18.5t-19 46.5t19 47.5t47 19.5t47 -19.5t19 -47.5z" />
    <glyph glyph-name="uniFE97FE8A" unicode="&#xfe97;&#xfe8a;" horiz-adv-x="842" 
d="M853 551q0 -28 -18.5 -47t-46.5 -19t-47.5 19t-19.5 47t19.5 47t47.5 19t46.5 -19t18.5 -47zM695 551q0 -28 -18.5 -47t-46.5 -19t-47.5 19t-19.5 47t19.5 47t47.5 19t46.5 -19t18.5 -47zM244 334v-76l-222 -32v77l40 5q-25 25 -24 62q0 42 28.5 70t71.5 28q39 0 63 -24
t27 -67l-52 -7q-11 21 -40 21q-39 0 -39 -29q0 -20 21 -31.5t52 -7.5zM753 -52q0 -80 -102 -136t-259 -56q-353 0 -353 276q0 59 16 146h118q-14 -77 -14 -116q0 -163 246 -163q113 0 177 20.5t64 56.5q0 22 -23.5 38t-73.5 16h-111v139h142q53 0 74 18.5t21 62.5
q0 66 -18 175h122q16 -103 16 -191q0 -151 -110 -183q68 -36 68 -103z" />
    <glyph glyph-name="uniFE9BFE8A" unicode="&#xfe9b;&#xfe8a;" horiz-adv-x="842" 
d="M767 673q0 -25 -16.5 -41.5t-41.5 -16.5t-42 16.5t-17 41.5t17 42t42 17t41.5 -17t16.5 -42zM695 544q0 -25 -16.5 -42t-41.5 -17t-42 17t-17 42t17 42t42 17t41.5 -17t16.5 -42zM839 544q0 -25 -17 -42t-42 -17t-42 17t-17 42t17 42t42 17t42 -17t17 -42zM244 334v-76
l-222 -32v77l40 5q-25 25 -24 62q0 42 28.5 70t71.5 28q39 0 63 -24t27 -67l-52 -7q-11 21 -40 21q-39 0 -39 -29q0 -20 21 -31.5t52 -7.5zM753 -52q0 -80 -102 -136t-259 -56q-353 0 -353 276q0 59 16 146h118q-14 -77 -14 -116q0 -163 246 -163q113 0 177 20.5t64 56.5
q0 22 -23.5 38t-73.5 16h-111v139h142q53 0 74 18.5t21 62.5q0 66 -18 175h122q16 -103 16 -191q0 -151 -110 -183q68 -36 68 -103z" />
    <glyph glyph-name="uniFE9FFE8A" unicode="&#xfe9f;&#xfe8a;" horiz-adv-x="1088" 
d="M226 334v-76l-222 -32v77l40 5q-25 25 -25 62q0 42 28.5 70t71.5 28q39 0 63 -24t28 -67l-52 -7q-13 21 -40 21q-39 0 -39 -29q0 -20 21 -31.5t52 -7.5zM747 -27q0 -96 -98.5 -156.5t-261.5 -60.5q-348 0 -348 276q0 59 16 146h118q-14 -77 -14 -116q0 -163 236 -163
q117 0 181.5 21t64.5 59q0 21 -22 37t-71 16h-75v119l203 66q89 29 152 44q-25 6 -54 16l-90 31q-57 19 -83 19q-44 0 -52 -45h-108q3 86 45.5 135t115.5 49q46 0 128 -30l133 -44q63 -24 98 -32.5t78 -8.5h30l-1 -127h-17q-52 0 -123.5 -23.5t-187.5 -70.5l-90 -35
q48 -14 72.5 -48t24.5 -74zM959 -88q0 -28 -19 -47t-47 -19t-47 19t-19 47t19 47t47 19t47 -19t19 -47z" />
    <glyph glyph-name="uniFEA3FE8A" unicode="&#xfea3;&#xfe8a;" horiz-adv-x="1088" 
d="M226 334v-76l-222 -32v77l40 5q-25 25 -25 62q0 42 28.5 70t71.5 28q39 0 63 -24t28 -67l-52 -7q-13 21 -40 21q-39 0 -39 -29q0 -20 21 -31.5t52 -7.5zM747 -27q0 -96 -98.5 -156.5t-261.5 -60.5q-348 0 -348 276q0 59 16 146h118q-14 -77 -14 -116q0 -163 236 -163
q117 0 181.5 21t64.5 59q0 21 -22 37t-71 16h-75v119l203 66q89 29 152 44q-25 6 -54 16l-90 31q-57 19 -83 19q-44 0 -52 -45h-108q3 86 45.5 135t115.5 49q46 0 128 -30l133 -44q63 -24 98 -32.5t78 -8.5h30l-1 -127h-17q-52 0 -123.5 -23.5t-187.5 -70.5l-90 -35
q48 -14 72.5 -48t24.5 -74z" />
    <glyph glyph-name="uniFEA7FE8A" unicode="&#xfea7;&#xfe8a;" horiz-adv-x="1088" 
d="M714 583q0 -28 -19 -46.5t-47 -18.5t-47.5 18.5t-19.5 46.5t19.5 47.5t47.5 19.5t47 -19.5t19 -47.5zM226 334v-76l-222 -32v77l40 5q-25 25 -25 62q0 42 28.5 70t71.5 28q39 0 63 -24t28 -67l-52 -7q-13 21 -40 21q-39 0 -39 -29q0 -20 21 -31.5t52 -7.5zM747 -27
q0 -96 -98.5 -156.5t-261.5 -60.5q-348 0 -348 276q0 59 16 146h118q-14 -77 -14 -116q0 -163 236 -163q117 0 181.5 21t64.5 59q0 21 -22 37t-71 16h-75v119l203 66q89 29 152 44q-25 6 -54 16l-90 31q-57 19 -83 19q-44 0 -52 -45h-108q3 86 45.5 135t115.5 49
q46 0 128 -30l133 -44q63 -24 98 -32.5t78 -8.5h30l-1 -127h-17q-52 0 -123.5 -23.5t-187.5 -70.5l-90 -35q48 -14 72.5 -48t24.5 -74z" />
    <glyph glyph-name="uniFEB3FE8A" unicode="&#xfeb3;&#xfe8a;" horiz-adv-x="1460" 
d="M218 334v-76l-222 -32v77l40 5q-25 25 -25 62q1 42 29.5 70t71.5 28q39 0 62.5 -24t27.5 -67l-52 -7q-11 21 -40 21q-39 0 -39 -29q0 -20 21 -31.5t52 -7.5zM744 -1q0 -109 -104 -176t-262 -67q-172 0 -255.5 70.5t-83.5 213.5q0 60 15 138h118q-13 -67 -13 -112
q0 -85 57.5 -126t178.5 -41q103 0 171 23t68 59q0 40 -95 52l-112 16q-73 10 -109.5 47.5t-36.5 96.5q0 98 94 177t207 79q90 0 145 -43q57 -45 103 -142l26 -54q21 -47 41 -63t59 -16q90 0 90 117v37h120v-51q0 -51 18.5 -77t48.5 -26q66 0 66 89q0 43 -15 135h125
q10 -73 10 -139q0 -111 -49.5 -169t-138.5 -58q-58 0 -100.5 29.5t-54.5 80.5q-9 -54 -44.5 -82t-93.5 -28q-69 0 -110 32q-40 31 -81 123l-22 50q-30 63 -70.5 89.5t-106.5 26.5q-64 0 -111.5 -25t-47.5 -59q0 -19 16 -29t56 -17l118 -17q90 -12 127.5 -52t37.5 -112z" />
    <glyph glyph-name="uniFEB7FE8A" unicode="&#xfeb7;&#xfe8a;" horiz-adv-x="1460" 
d="M1146 545q0 -25 -16.5 -42t-41.5 -17t-42 17t-17 42t17 42t42 17t41.5 -17t16.5 -42zM1074 415q0 -25 -16.5 -41.5t-41.5 -16.5t-42 16.5t-17 41.5t17 42t42 17t41.5 -17t16.5 -42zM1218 415q0 -25 -17 -41.5t-42 -16.5t-42 16.5t-17 41.5t17 42t42 17t42 -17t17 -42z
M218 334v-76l-222 -32v77l40 5q-25 25 -25 62q1 42 29.5 70t71.5 28q39 0 62.5 -24t27.5 -67l-52 -7q-11 21 -40 21q-39 0 -39 -29q0 -20 21 -31.5t52 -7.5zM744 -1q0 -109 -104 -176t-262 -67q-172 0 -255.5 70.5t-83.5 213.5q0 60 15 138h118q-13 -67 -13 -112
q0 -85 57.5 -126t178.5 -41q103 0 171 23t68 59q0 40 -95 52l-112 16q-73 10 -109.5 47.5t-36.5 96.5q0 98 94 177t207 79q90 0 145 -43q57 -45 103 -142l26 -54q21 -47 41 -63t59 -16q90 0 90 117v37h120v-51q0 -51 18.5 -77t48.5 -26q66 0 66 89q0 43 -15 135h125
q10 -73 10 -139q0 -111 -49.5 -169t-138.5 -58q-58 0 -100.5 29.5t-54.5 80.5q-9 -54 -44.5 -82t-93.5 -28q-69 0 -110 32q-40 31 -81 123l-22 50q-30 63 -70.5 89.5t-106.5 26.5q-64 0 -111.5 -25t-47.5 -59q0 -19 16 -29t56 -17l118 -17q90 -12 127.5 -52t37.5 -112z" />
    <glyph glyph-name="uniFEBBFE8A" unicode="&#xfebb;&#xfe8a;" horiz-adv-x="1476" 
d="M218 334v-76l-222 -32v77l40 5q-25 25 -25 62q1 42 29.5 70t71.5 28q39 0 62.5 -24t27.5 -67l-52 -7q-11 21 -40 21q-39 0 -39 -29q0 -20 21 -31.5t52 -7.5zM744 -1q0 -109 -104 -176t-262 -67q-172 0 -255.5 70.5t-83.5 213.5q0 60 15 138h118q-13 -67 -13 -112
q0 -85 57.5 -126t178.5 -41q103 0 171 23t68 59q0 40 -95 52l-112 16q-73 10 -109.5 47.5t-36.5 96.5q0 98 94 177t207 79q85 0 135 -41.5t106 -143.5l29 -54q5 -12 14 -24q68 129 160 200t198 71q101 0 161.5 -64t60.5 -156q0 -248 -384 -248q-141 0 -204 31t-111 124
l-26 50q-33 64 -70.5 90t-102.5 26q-64 0 -111.5 -25t-47.5 -59q0 -19 16 -29t56 -17l118 -17q90 -12 127.5 -52t37.5 -112zM1219 318q-156 0 -279 -177q48 -11 151 -11q134 0 195 25t61 79q0 33 -34.5 58.5t-93.5 25.5z" />
    <glyph glyph-name="uniFEBFFE8A" unicode="&#xfebf;&#xfe8a;" horiz-adv-x="1476" 
d="M1258 583q0 -28 -18.5 -46.5t-46.5 -18.5t-47.5 18.5t-19.5 46.5t19.5 47.5t47.5 19.5t46.5 -19.5t18.5 -47.5zM218 334v-76l-222 -32v77l40 5q-25 25 -25 62q1 42 29.5 70t71.5 28q39 0 62.5 -24t27.5 -67l-52 -7q-11 21 -40 21q-39 0 -39 -29q0 -20 21 -31.5t52 -7.5z
M744 -1q0 -109 -104 -176t-262 -67q-172 0 -255.5 70.5t-83.5 213.5q0 60 15 138h118q-13 -67 -13 -112q0 -85 57.5 -126t178.5 -41q103 0 171 23t68 59q0 40 -95 52l-112 16q-73 10 -109.5 47.5t-36.5 96.5q0 98 94 177t207 79q85 0 135 -41.5t106 -143.5l29 -54
q5 -12 14 -24q68 129 160 200t198 71q101 0 161.5 -64t60.5 -156q0 -248 -384 -248q-141 0 -204 31t-111 124l-26 50q-33 64 -70.5 90t-102.5 26q-64 0 -111.5 -25t-47.5 -59q0 -19 16 -29t56 -17l118 -17q90 -12 127.5 -52t37.5 -112zM1219 318q-156 0 -279 -177
q48 -11 151 -11q134 0 195 25t61 79q0 33 -34.5 58.5t-93.5 25.5z" />
    <glyph glyph-name="uniFECBFE8A" unicode="&#xfecb;&#xfe8a;" horiz-adv-x="1080" 
d="M749 -58q0 -78 -98 -131t-269 -53q-343 0 -343 284q0 65 17 138h118q-13 -67 -13 -112q0 -167 229 -167q127 0 189 17t62 46q0 47 -95 47h-26v132l140 12q-77 54 -77 152q0 93 61 154.5t157 61.5t153.5 -55t61.5 -158h-110q-9 35 -38.5 55t-71.5 20q-52 0 -82.5 -26
t-30.5 -71q0 -49 47 -78t124 -29q47 0 126 9l64 7v-132l-338 -38q43 -30 43 -85zM228 336v-76l-222 -32v77l40 6q-25 23 -25 61q0 42 28.5 70t71.5 28q39 0 63 -24t28 -67l-52 -7q-13 21 -40 21q-39 0 -39 -29q0 -20 21.5 -31.5t51.5 -6.5z" />
    <glyph glyph-name="uniFECFFE8A" unicode="&#xfecf;&#xfe8a;" horiz-adv-x="1080" 
d="M871 624q0 -28 -18.5 -47t-46.5 -19t-47.5 19t-19.5 47t19.5 47.5t47.5 19.5t46.5 -19.5t18.5 -47.5zM749 -58q0 -78 -98 -131t-269 -53q-343 0 -343 284q0 65 17 138h118q-13 -67 -13 -112q0 -167 229 -167q127 0 189 17t62 46q0 47 -95 47h-26v132l140 12
q-77 54 -77 152q0 93 61 154.5t157 61.5t153.5 -55t61.5 -158h-110q-9 35 -38.5 55t-71.5 20q-52 0 -82.5 -26t-30.5 -71q0 -49 47 -78t124 -29q47 0 126 9l64 7v-132l-338 -38q43 -30 43 -85zM228 336v-76l-222 -32v77l40 6q-25 23 -25 61q0 42 28.5 70t71.5 28
q39 0 63 -24t28 -67l-52 -7q-13 21 -40 21q-39 0 -39 -29q0 -20 21.5 -31.5t51.5 -6.5z" />
    <glyph glyph-name="uniFED3FE8A" unicode="&#xfed3;&#xfe8a;" horiz-adv-x="817" 
d="M618 737q0 -28 -19 -47t-47 -19t-47 19t-19 47t19 47t47 19t47 -19t19 -47zM727 -58q0 -77 -94.5 -131.5t-240.5 -54.5q-353 0 -353 284q0 65 17 138h118q-13 -67 -13 -112q0 -167 244 -167q100 0 158 19t58 53q0 45 -97 45h-112v133l143 -1q69 0 97.5 19t34.5 72
q-49 -18 -137 -18q-93 0 -147.5 45t-54.5 123q0 88 62 155t145 67q99 0 162 -89.5t63 -237.5q0 -107 -29 -164t-95 -77q71 -29 71 -101zM444 391q0 -65 110 -65q73 0 129 13q-13 62 -52 98.5t-91 36.5q-44 0 -70 -24t-26 -59zM227 334v-76l-222 -32v77l40 5q-25 25 -25 62
q1 42 29.5 70t71.5 28q38 0 62 -24t28 -67l-52 -7q-11 21 -40 21q-39 0 -39 -29q0 -20 21 -31.5t52 -7.5z" />
    <glyph glyph-name="uniFED7FE8A" unicode="&#xfed7;&#xfe8a;" horiz-adv-x="817" 
d="M700 737q0 -28 -19 -47t-47 -19t-47.5 19t-19.5 47t19.5 47t47.5 19t47 -19t19 -47zM542 737q0 -28 -19 -47t-47 -19t-47.5 19t-19.5 47t19.5 47t47.5 19t47 -19t19 -47zM727 -58q0 -77 -94.5 -131.5t-240.5 -54.5q-353 0 -353 284q0 65 17 138h118q-13 -67 -13 -112
q0 -167 244 -167q100 0 158 19t58 53q0 45 -97 45h-112v133l143 -1q69 0 97.5 19t34.5 72q-49 -18 -137 -18q-93 0 -147.5 45t-54.5 123q0 88 62 155t145 67q99 0 162 -89.5t63 -237.5q0 -107 -29 -164t-95 -77q71 -29 71 -101zM444 391q0 -65 110 -65q73 0 129 13
q-13 62 -52 98.5t-91 36.5q-44 0 -70 -24t-26 -59zM227 334v-76l-222 -32v77l40 5q-25 25 -25 62q1 42 29.5 70t71.5 28q38 0 62 -24t28 -67l-52 -7q-11 21 -40 21q-39 0 -39 -29q0 -20 21 -31.5t52 -7.5z" />
    <glyph glyph-name="uniFEDBFE8A" unicode="&#xfedb;&#xfe8a;" horiz-adv-x="794" 
d="M747 -41q0 -87 -99.5 -145t-255.5 -58q-177 0 -263.5 71t-89.5 213q-1 60 17 138h118q-13 -67 -13 -112q0 -167 244 -167q111 0 173.5 21t62.5 59q0 51 -89 51h-120v135h134q62 0 62 45q0 21 -19.5 41.5t-70.5 50.5l-191 102v118l446 246l-1 -137l-303 -164l92 -55
q82 -43 118 -91.5t36 -109.5q0 -96 -76 -141q88 -31 88 -111zM227 334v-76l-221 -32v77l39 5q-25 25 -24 62q0 42 28.5 70t71.5 28q39 0 63 -24t27 -67l-51 -7q-13 21 -41 21q-39 0 -39 -29q0 -20 21.5 -31.5t52.5 -7.5z" />
    <glyph glyph-name="uniFEDFFE8A" unicode="&#xfedf;&#xfe8a;" horiz-adv-x="824" 
d="M747 -47q0 -83 -100 -140t-255 -57q-353 0 -353 284q0 65 17 138h118q-13 -67 -13 -112q0 -167 244 -167q110 0 173 20.5t63 56.5q0 21 -25.5 37.5t-72.5 16.5h-111v139h96q59 0 80.5 19.5t21.5 67.5v504h127v-504q0 -153 -83 -194q73 -31 73 -109zM226 334v-76l-222 -32
v77l40 5q-25 25 -25 62q1 42 29.5 70t71.5 28q39 0 63 -24t27 -67l-52 -7q-11 21 -40 21q-39 0 -39 -29q0 -20 21 -31.5t52 -7.5z" />
    <glyph glyph-name="uniFEE7FE8A" unicode="&#xfee7;&#xfe8a;" horiz-adv-x="842" 
d="M772 551q0 -28 -19 -47t-47 -19t-47.5 19t-19.5 47t19.5 47t47.5 19t47 -19t19 -47zM244 334v-76l-222 -32v77l40 5q-25 25 -24 62q0 42 28.5 70t71.5 28q39 0 63 -24t27 -67l-52 -7q-11 21 -40 21q-39 0 -39 -29q0 -20 21 -31.5t52 -7.5zM753 -52q0 -80 -102 -136
t-259 -56q-353 0 -353 276q0 59 16 146h118q-14 -77 -14 -116q0 -163 246 -163q113 0 177 20.5t64 56.5q0 22 -23.5 38t-73.5 16h-111v139h142q53 0 74 18.5t21 62.5q0 66 -18 175h122q16 -103 16 -191q0 -151 -110 -183q68 -36 68 -103z" />
    <glyph glyph-name="uniFEEBFE8A" unicode="&#xfeeb;&#xfe8a;" horiz-adv-x="1243" 
d="M748 -64q0 -76 -98 -128t-269 -52q-342 0 -342 284q0 65 17 138h118q-13 -67 -13 -112q0 -167 228 -167q127 0 189.5 17t62.5 45q0 48 -102 48h-20v130h75q34 0 84 2q-34 60 -34 121q0 55 28.5 101t75.5 68v100l165 -48q170 -50 236 -110q67 -60 67 -163t-64.5 -162
t-181.5 -59q-107 0 -192 53q-47 -12 -88 -17q58 -33 58 -89zM227 334v-76l-221 -32v77l39 5q-25 25 -24 62q0 42 28.5 70t71.5 28q39 0 63 -24t27 -67l-51 -7q-13 21 -41 21q-39 0 -39 -29q0 -20 21.5 -31.5t52.5 -7.5zM744 262q0 -63 72 -100q98 28 98 98q0 37 -25.5 62
t-62.5 25q-36 0 -59 -24.5t-23 -60.5zM1007 262q0 -75 -59 -132q30 -2 47 -2q123 0 123 79q0 35 -27 60.5t-90 48.5q6 -26 6 -54z" />
    <glyph glyph-name="uniFEF3FE8A" unicode="&#xfef3;&#xfe8a;" horiz-adv-x="842" 
d="M244 334v-76l-222 -32v77l40 5q-25 25 -24 62q0 42 28.5 70t71.5 28q39 0 63 -24t27 -67l-52 -7q-11 21 -40 21q-39 0 -39 -29q0 -20 21 -31.5t52 -7.5zM753 -52q0 -80 -102 -136t-259 -56q-353 0 -353 276q0 59 16 146h118q-14 -77 -14 -116q0 -163 246 -163
q113 0 177 20.5t64 56.5q0 22 -23.5 38t-73.5 16h-111v139h142q53 0 74 18.5t21 62.5q0 66 -18 175h122q16 -103 16 -191q0 -151 -110 -183q68 -36 68 -103zM836 -329q0 -28 -19 -46.5t-47 -18.5t-47 18.5t-19 46.5t19 47.5t47 19.5t47 -19.5t19 -47.5zM678 -329
q0 -28 -19 -46.5t-47 -18.5t-47 18.5t-19 46.5t19 47.5t47 19.5t47 -19.5t19 -47.5z" />
    <glyph glyph-name="uniFB58FE8A" unicode="&#xfb58;&#xfe8a;" horiz-adv-x="842" 
d="M244 334v-76l-222 -32v77l40 5q-25 25 -24 62q0 42 28.5 70t71.5 28q39 0 63 -24t27 -67l-52 -7q-11 21 -40 21q-39 0 -39 -29q0 -20 21 -31.5t52 -7.5zM753 -52q0 -80 -102 -136t-259 -56q-353 0 -353 276q0 59 16 146h118q-14 -77 -14 -116q0 -163 246 -163
q113 0 177 20.5t64 56.5q0 22 -23.5 38t-73.5 16h-111v139h142q53 0 74 18.5t21 62.5q0 66 -18 175h122q16 -103 16 -191q0 -151 -110 -183q68 -36 68 -103zM821 -318q0 -25 -17 -42t-42 -17t-42 17t-17 42t17 42t42 17t42 -17t17 -42zM677 -318q0 -25 -17 -42t-42 -17
t-41.5 17t-16.5 42t16.5 42t41.5 17t42 -17t17 -42zM749 -448q0 -25 -17 -42t-42 -17t-42 17t-17 42t17 42t42 17t42 -17t17 -42z" />
    <glyph glyph-name="uniFB7CFE8A" unicode="&#xfb7c;&#xfe8a;" horiz-adv-x="1088" 
d="M226 334v-76l-222 -32v77l40 5q-25 25 -25 62q0 42 28.5 70t71.5 28q39 0 63 -24t28 -67l-52 -7q-13 21 -40 21q-39 0 -39 -29q0 -20 21 -31.5t52 -7.5zM747 -27q0 -96 -98.5 -156.5t-261.5 -60.5q-348 0 -348 276q0 59 16 146h118q-14 -77 -14 -116q0 -163 236 -163
q117 0 181.5 21t64.5 59q0 21 -22 37t-71 16h-75v119l203 66q89 29 152 44q-25 6 -54 16l-90 31q-57 19 -83 19q-44 0 -52 -45h-108q3 86 45.5 135t115.5 49q46 0 128 -30l133 -44q63 -24 98 -32.5t78 -8.5h30l-1 -127h-17q-52 0 -123.5 -23.5t-187.5 -70.5l-90 -35
q48 -14 72.5 -48t24.5 -74zM1025 -78q0 -25 -17 -42t-42 -17t-42 17t-17 42t17 42t42 17t42 -17t17 -42zM881 -78q0 -25 -17 -42t-42 -17t-41.5 17t-16.5 42t16.5 42t41.5 17t42 -17t17 -42zM953 -207q0 -25 -17 -42t-42 -17t-42 17t-17 42t17 41.5t42 16.5t42 -16.5
t17 -41.5z" />
    <glyph glyph-name="uniFB6CFE8A" unicode="&#xfb6c;&#xfe8a;" horiz-adv-x="817" 
d="M614 859q0 -25 -17 -41.5t-42 -16.5t-42 16.5t-17 41.5t17 42t42 17t42 -17t17 -42zM542 730q0 -25 -17 -42t-42 -17t-42 17t-17 42t17 42t42 17t42 -17t17 -42zM685 730q0 -25 -17 -42t-42 -17t-42 17t-17 42t17 42t42 17t42 -17t17 -42zM727 -58q0 -77 -94.5 -131.5
t-240.5 -54.5q-353 0 -353 284q0 65 17 138h118q-13 -67 -13 -112q0 -167 244 -167q100 0 158 19t58 53q0 45 -97 45h-112v133l143 -1q69 0 97.5 19t34.5 72q-49 -18 -137 -18q-93 0 -147.5 45t-54.5 123q0 88 62 155t145 67q99 0 162 -89.5t63 -237.5q0 -107 -29 -164
t-95 -77q71 -29 71 -101zM444 391q0 -65 110 -65q73 0 129 13q-13 62 -52 98.5t-91 36.5q-44 0 -70 -24t-26 -59zM227 334v-76l-222 -32v77l40 5q-25 25 -25 62q1 42 29.5 70t71.5 28q38 0 62 -24t28 -67l-52 -7q-11 21 -40 21q-39 0 -39 -29q0 -20 21 -31.5t52 -7.5z" />
    <glyph glyph-name="uniFB94FE8A" unicode="&#xfb94;&#xfe8a;" horiz-adv-x="794" 
d="M793 928l-1 -92l-445 -246v93zM747 -41q0 -87 -99.5 -145t-255.5 -58q-177 0 -263.5 71t-89.5 213q-1 60 17 138h118q-13 -67 -13 -112q0 -167 244 -167q111 0 173.5 21t62.5 59q0 51 -89 51h-120v135h134q62 0 62 45q0 21 -19.5 41.5t-70.5 50.5l-191 102v118l446 246
l-1 -137l-303 -164l92 -55q82 -43 118 -91.5t36 -109.5q0 -96 -76 -141q88 -31 88 -111zM227 334v-76l-221 -32v77l39 5q-25 25 -24 62q0 42 28.5 70t71.5 28q39 0 63 -24t27 -67l-51 -7q-13 21 -41 21q-39 0 -39 -29q0 -20 21.5 -31.5t52.5 -7.5z" />
    <glyph glyph-name="uniFE8BFE8A" unicode="&#xfe8b;&#xfe8a;" horiz-adv-x="842" 
d="M816 581v-77l-221 -32v77l40 6q-27 23 -25 61q0 42 28.5 70t71.5 28q39 0 63 -24t27 -67l-51 -6q-14 21 -41 21q-39 0 -39 -30q0 -19 22 -31t52 -7zM753 -52q0 -80 -102 -136t-259 -56q-353 0 -353 276q0 59 16 146h118q-14 -77 -14 -116q0 -163 246 -163q113 0 177 20.5
t64 56.5q0 22 -23.5 38t-73.5 16h-111v139h142q53 0 74 18.5t21 62.5q0 66 -18 175h122q16 -103 16 -191q0 -151 -110 -183q68 -36 68 -103zM538 -376q0 -28 -19 -47t-47 -19t-47.5 19t-19.5 47t19.5 47.5t47.5 19.5t47 -19.5t19 -47.5zM379 -376q0 -28 -18.5 -47t-46.5 -19
t-47.5 19t-19.5 47t19.5 47.5t47.5 19.5t46.5 -19.5t18.5 -47.5z" />
    <glyph glyph-name="uniFE91FBFD" unicode="&#xfe91;&#xfbfd;" horiz-adv-x="842" 
d="M753 -52q0 -80 -102 -136t-259 -56q-353 0 -353 276q0 59 16 146h118q-14 -77 -14 -116q0 -163 246 -163q113 0 177 20.5t64 56.5q0 22 -23.5 38t-73.5 16h-111v139h142q53 0 74 18.5t21 62.5q0 66 -18 175h122q16 -103 16 -191q0 -151 -110 -183q68 -36 68 -103z
M755 -329q0 -28 -19 -46.5t-47 -18.5t-47 18.5t-19 46.5t19 47.5t47 19.5t47 -19.5t19 -47.5z" />
    <glyph glyph-name="uniFE97FBFD" unicode="&#xfe97;&#xfbfd;" horiz-adv-x="842" 
d="M853 551q0 -28 -18.5 -47t-46.5 -19t-47.5 19t-19.5 47t19.5 47t47.5 19t46.5 -19t18.5 -47zM695 551q0 -28 -18.5 -47t-46.5 -19t-47.5 19t-19.5 47t19.5 47t47.5 19t46.5 -19t18.5 -47zM753 -52q0 -80 -102 -136t-259 -56q-353 0 -353 276q0 59 16 146h118
q-14 -77 -14 -116q0 -163 246 -163q113 0 177 20.5t64 56.5q0 22 -23.5 38t-73.5 16h-111v139h142q53 0 74 18.5t21 62.5q0 66 -18 175h122q16 -103 16 -191q0 -151 -110 -183q68 -36 68 -103z" />
    <glyph glyph-name="uniFE9BFBFD" unicode="&#xfe9b;&#xfbfd;" horiz-adv-x="842" 
d="M767 673q0 -25 -16.5 -41.5t-41.5 -16.5t-42 16.5t-17 41.5t17 42t42 17t41.5 -17t16.5 -42zM695 544q0 -25 -16.5 -42t-41.5 -17t-42 17t-17 42t17 42t42 17t41.5 -17t16.5 -42zM839 544q0 -25 -17 -42t-42 -17t-42 17t-17 42t17 42t42 17t42 -17t17 -42zM753 -52
q0 -80 -102 -136t-259 -56q-353 0 -353 276q0 59 16 146h118q-14 -77 -14 -116q0 -163 246 -163q113 0 177 20.5t64 56.5q0 22 -23.5 38t-73.5 16h-111v139h142q53 0 74 18.5t21 62.5q0 66 -18 175h122q16 -103 16 -191q0 -151 -110 -183q68 -36 68 -103z" />
    <glyph glyph-name="uniFE9FFBFD" unicode="&#xfe9f;&#xfbfd;" horiz-adv-x="1088" 
d="M747 -27q0 -96 -98.5 -156.5t-261.5 -60.5q-348 0 -348 276q0 59 16 146h118q-14 -77 -14 -116q0 -163 236 -163q117 0 181.5 21t64.5 59q0 21 -22 37t-71 16h-75v119l203 66q89 29 152 44q-25 6 -54 16l-90 31q-57 19 -83 19q-44 0 -52 -45h-108q3 86 45.5 135t115.5 49
q46 0 128 -30l133 -44q63 -24 98 -32.5t78 -8.5h30l-1 -127h-17q-52 0 -123.5 -23.5t-187.5 -70.5l-90 -35q48 -14 72.5 -48t24.5 -74zM959 -88q0 -28 -19 -47t-47 -19t-47 19t-19 47t19 47t47 19t47 -19t19 -47z" />
    <glyph glyph-name="uniFEA3FBFD" unicode="&#xfea3;&#xfbfd;" horiz-adv-x="1068" 
d="M727 -27q0 -96 -93 -156.5t-247 -60.5q-348 0 -348 276q0 59 16 146h118q-14 -77 -14 -116q0 -163 236 -163q106 0 166 21t60 59q0 21 -22 37t-71 16h-75v119l203 66q89 29 152 44q-25 6 -54 16l-90 31q-57 19 -83 19q-44 0 -52 -45h-108q3 86 45.5 135t115.5 49
q46 0 128 -30l133 -44q63 -24 98 -32.5t78 -8.5h30l-1 -127h-17q-52 0 -123.5 -23.5t-187.5 -70.5l-90 -35q48 -14 72.5 -48t24.5 -74z" />
    <glyph glyph-name="uniFEA7FBFD" unicode="&#xfea7;&#xfbfd;" horiz-adv-x="1088" 
d="M714 583q0 -28 -19 -46.5t-47 -18.5t-47.5 18.5t-19.5 46.5t19.5 47.5t47.5 19.5t47 -19.5t19 -47.5zM747 -27q0 -96 -98.5 -156.5t-261.5 -60.5q-348 0 -348 276q0 59 16 146h118q-14 -77 -14 -116q0 -163 236 -163q117 0 181.5 21t64.5 59q0 21 -22 37t-71 16h-75v119
l203 66q89 29 152 44q-25 6 -54 16l-90 31q-57 19 -83 19q-44 0 -52 -45h-108q3 86 45.5 135t115.5 49q46 0 128 -30l133 -44q63 -24 98 -32.5t78 -8.5h30l-1 -127h-17q-52 0 -123.5 -23.5t-187.5 -70.5l-90 -35q48 -14 72.5 -48t24.5 -74z" />
    <glyph glyph-name="uniFEB3FBFD" unicode="&#xfeb3;&#xfbfd;" horiz-adv-x="1424" 
d="M710 -8q0 -103 -99 -169.5t-243 -66.5q-162 0 -245.5 72t-83.5 212q0 60 15 138h118q-13 -67 -13 -112q0 -80 58.5 -123.5t159.5 -43.5q92 0 155 20t63 55q0 27 -71 41l-86 18q-67 12 -97 44t-30 85q0 92 87.5 170.5t184.5 78.5q71 0 119.5 -34t92.5 -119l27 -54
q19 -38 41 -55.5t57 -17.5q90 0 90 117v37h120v-51q0 -51 18.5 -77t48.5 -26q65 0 65 89q0 49 -14 135h125q10 -73 10 -139q0 -111 -49.5 -169t-138.5 -58q-57 0 -99.5 28.5t-55.5 78.5q-20 -107 -138 -107q-67 0 -108.5 36.5t-80.5 112.5l-25 50q-43 90 -134 90
q-49 0 -93 -26t-44 -58q0 -27 47 -37l100 -22q78 -14 112 -49t34 -94z" />
    <glyph glyph-name="uniFEB7FBFD" unicode="&#xfeb7;&#xfbfd;" horiz-adv-x="1460" 
d="M1146 545q0 -25 -16.5 -42t-41.5 -17t-42 17t-17 42t17 42t42 17t41.5 -17t16.5 -42zM1074 415q0 -25 -16.5 -41.5t-41.5 -16.5t-42 16.5t-17 41.5t17 42t42 17t41.5 -17t16.5 -42zM1218 415q0 -25 -17 -41.5t-42 -16.5t-42 16.5t-17 41.5t17 42t42 17t42 -17t17 -42z
M744 -1q0 -109 -104 -176t-262 -67q-172 0 -255.5 70.5t-83.5 213.5q0 60 15 138h118q-13 -67 -13 -112q0 -85 57.5 -126t178.5 -41q103 0 171 23t68 59q0 40 -95 52l-112 16q-73 10 -109.5 47.5t-36.5 96.5q0 98 94 177t207 79q90 0 145 -43q57 -45 103 -142l26 -54
q21 -47 41 -63t59 -16q90 0 90 117v37h120v-51q0 -51 18.5 -77t48.5 -26q66 0 66 89q0 43 -15 135h125q10 -73 10 -139q0 -111 -49.5 -169t-138.5 -58q-58 0 -100.5 29.5t-54.5 80.5q-9 -54 -44.5 -82t-93.5 -28q-69 0 -110 32q-40 31 -81 123l-22 50q-30 63 -70.5 89.5
t-106.5 26.5q-64 0 -111.5 -25t-47.5 -59q0 -19 16 -29t56 -17l118 -17q90 -12 127.5 -52t37.5 -112z" />
    <glyph glyph-name="uniFEBBFBFD" unicode="&#xfebb;&#xfbfd;" horiz-adv-x="1451" 
d="M710 -8q0 -103 -99 -169.5t-243 -66.5q-162 0 -245.5 72t-83.5 212q0 60 15 138h118q-13 -67 -13 -112q0 -80 58.5 -123.5t159.5 -43.5q92 0 155 20t63 55q0 27 -71 41l-86 18q-67 12 -97 44t-30 85q0 92 87.5 170.5t184.5 78.5q68 0 117 -32q48 -31 95 -115l33 -58
q8 -16 13 -21q68 130 159.5 201t198.5 71q102 0 162.5 -64t60.5 -156q0 -237 -384 -237q-147 0 -211.5 29.5t-107.5 109.5l-30 54q-26 46 -57 65.5t-75 19.5q-52 0 -96 -26t-44 -58q0 -27 47 -37l100 -22q78 -14 112 -49t34 -94zM1195 318q-156 0 -276 -172q46 -7 147 -7
q134 0 195 23t61 72q0 33 -34 58.5t-93 25.5z" />
    <glyph glyph-name="uniFEBFFBFD" unicode="&#xfebf;&#xfbfd;" horiz-adv-x="1476" 
d="M1258 583q0 -28 -18.5 -46.5t-46.5 -18.5t-47.5 18.5t-19.5 46.5t19.5 47.5t47.5 19.5t46.5 -19.5t18.5 -47.5zM744 -1q0 -109 -104 -176t-262 -67q-172 0 -255.5 70.5t-83.5 213.5q0 60 15 138h118q-13 -67 -13 -112q0 -85 57.5 -126t178.5 -41q103 0 171 23t68 59
q0 40 -95 52l-112 16q-73 10 -109.5 47.5t-36.5 96.5q0 98 94 177t207 79q85 0 135 -41.5t106 -143.5l29 -54q5 -12 14 -24q68 129 160 200t198 71q101 0 161.5 -64t60.5 -156q0 -248 -384 -248q-141 0 -204 31t-111 124l-26 50q-33 64 -70.5 90t-102.5 26q-64 0 -111.5 -25
t-47.5 -59q0 -19 16 -29t56 -17l118 -17q90 -12 127.5 -52t37.5 -112zM1219 318q-156 0 -279 -177q48 -11 151 -11q134 0 195 25t61 79q0 33 -34.5 58.5t-93.5 25.5z" />
    <glyph glyph-name="uniFECBFBFD" unicode="&#xfecb;&#xfbfd;" horiz-adv-x="1076" 
d="M749 -58q0 -78 -98 -131t-269 -53q-343 0 -343 284q0 65 17 138h118q-13 -67 -13 -112q0 -167 229 -167q127 0 189 17t62 46q0 47 -95 47h-26v132l140 12q-77 54 -77 152q0 93 61 154.5t157 61.5t153.5 -55t61.5 -158h-110q-9 35 -38.5 55t-71.5 20q-52 0 -82.5 -26
t-30.5 -71q0 -49 47 -78t124 -29q47 0 126 9l64 7v-132l-338 -38q43 -30 43 -85z" />
    <glyph glyph-name="uniFECFFBFD" unicode="&#xfecf;&#xfbfd;" horiz-adv-x="1080" 
d="M871 624q0 -28 -18.5 -47t-46.5 -19t-47.5 19t-19.5 47t19.5 47.5t47.5 19.5t46.5 -19.5t18.5 -47.5zM749 -58q0 -78 -98 -131t-269 -53q-343 0 -343 284q0 65 17 138h118q-13 -67 -13 -112q0 -167 229 -167q127 0 189 17t62 46q0 47 -95 47h-26v132l140 12
q-77 54 -77 152q0 93 61 154.5t157 61.5t153.5 -55t61.5 -158h-110q-9 35 -38.5 55t-71.5 20q-52 0 -82.5 -26t-30.5 -71q0 -49 47 -78t124 -29q47 0 126 9l64 7v-132l-338 -38q43 -30 43 -85z" />
    <glyph glyph-name="uniFED3FBFD" unicode="&#xfed3;&#xfbfd;" horiz-adv-x="817" 
d="M618 737q0 -28 -19 -47t-47 -19t-47 19t-19 47t19 47t47 19t47 -19t19 -47zM727 -58q0 -77 -94.5 -131.5t-240.5 -54.5q-353 0 -353 284q0 65 17 138h118q-13 -67 -13 -112q0 -167 244 -167q100 0 158 19t58 53q0 45 -97 45h-112v133l143 -1q69 0 97.5 19t34.5 72
q-49 -18 -137 -18q-93 0 -147.5 45t-54.5 123q0 88 62 155t145 67q99 0 162 -89.5t63 -237.5q0 -107 -29 -164t-95 -77q71 -29 71 -101zM444 391q0 -65 110 -65q73 0 129 13q-13 62 -52 98.5t-91 36.5q-44 0 -70 -24t-26 -59z" />
    <glyph glyph-name="uniFED7FBFD" unicode="&#xfed7;&#xfbfd;" horiz-adv-x="817" 
d="M700 737q0 -28 -19 -47t-47 -19t-47.5 19t-19.5 47t19.5 47t47.5 19t47 -19t19 -47zM542 737q0 -28 -19 -47t-47 -19t-47.5 19t-19.5 47t19.5 47t47.5 19t47 -19t19 -47zM727 -58q0 -77 -94.5 -131.5t-240.5 -54.5q-353 0 -353 284q0 65 17 138h118q-13 -67 -13 -112
q0 -167 244 -167q100 0 158 19t58 53q0 45 -97 45h-112v133l143 -1q69 0 97.5 19t34.5 72q-49 -18 -137 -18q-93 0 -147.5 45t-54.5 123q0 88 62 155t145 67q99 0 162 -89.5t63 -237.5q0 -107 -29 -164t-95 -77q71 -29 71 -101zM444 391q0 -65 110 -65q73 0 129 13
q-13 62 -52 98.5t-91 36.5q-44 0 -70 -24t-26 -59z" />
    <glyph glyph-name="uniFEDFFBFD" unicode="&#xfedf;&#xfbfd;" horiz-adv-x="804" 
d="M727 -47q0 -83 -94.5 -140t-240.5 -57q-353 0 -353 284q0 65 17 138h118q-13 -67 -13 -112q0 -167 244 -167q100 0 158 20.5t58 56.5q0 21 -25.5 37.5t-72.5 16.5h-111v139h96q59 0 80.5 19.5t21.5 67.5v504h127v-504q0 -153 -83 -194q73 -31 73 -109z" />
    <glyph glyph-name="uniFEE7FBFD" unicode="&#xfee7;&#xfbfd;" horiz-adv-x="842" 
d="M772 551q0 -28 -19 -47t-47 -19t-47.5 19t-19.5 47t19.5 47t47.5 19t47 -19t19 -47zM753 -52q0 -80 -102 -136t-259 -56q-353 0 -353 276q0 59 16 146h118q-14 -77 -14 -116q0 -163 246 -163q113 0 177 20.5t64 56.5q0 22 -23.5 38t-73.5 16h-111v139h142q53 0 74 18.5
t21 62.5q0 66 -18 175h122q16 -103 16 -191q0 -151 -110 -183q68 -36 68 -103z" />
    <glyph glyph-name="uniFEEBFBFD" unicode="&#xfeeb;&#xfbfd;" horiz-adv-x="1243" 
d="M748 -64q0 -76 -98 -128t-269 -52q-342 0 -342 284q0 65 17 138h118q-13 -67 -13 -112q0 -167 228 -167q127 0 189.5 17t62.5 45q0 48 -102 48h-20v130h75q34 0 84 2q-34 60 -34 121q0 55 28.5 101t75.5 68v100l165 -48q170 -50 236 -110q67 -60 67 -163t-64.5 -162
t-181.5 -59q-107 0 -192 53q-47 -12 -88 -17q58 -33 58 -89zM744 262q0 -63 72 -100q98 28 98 98q0 37 -25.5 62t-62.5 25q-36 0 -59 -24.5t-23 -60.5zM1007 262q0 -75 -59 -132q30 -2 47 -2q123 0 123 79q0 35 -27 60.5t-90 48.5q6 -26 6 -54z" />
    <glyph glyph-name="uniFEF3FBFD" unicode="&#xfef3;&#xfbfd;" horiz-adv-x="842" 
d="M753 -52q0 -80 -102 -136t-259 -56q-353 0 -353 276q0 59 16 146h118q-14 -77 -14 -116q0 -163 246 -163q113 0 177 20.5t64 56.5q0 22 -23.5 38t-73.5 16h-111v139h142q53 0 74 18.5t21 62.5q0 66 -18 175h122q16 -103 16 -191q0 -151 -110 -183q68 -36 68 -103z
M836 -329q0 -28 -19 -46.5t-47 -18.5t-47 18.5t-19 46.5t19 47.5t47 19.5t47 -19.5t19 -47.5zM678 -329q0 -28 -19 -46.5t-47 -18.5t-47 18.5t-19 46.5t19 47.5t47 19.5t47 -19.5t19 -47.5z" />
    <glyph glyph-name="uniFB58FBFD" unicode="&#xfb58;&#xfbfd;" horiz-adv-x="842" 
d="M753 -52q0 -80 -102 -136t-259 -56q-353 0 -353 276q0 59 16 146h118q-14 -77 -14 -116q0 -163 246 -163q113 0 177 20.5t64 56.5q0 22 -23.5 38t-73.5 16h-111v139h142q53 0 74 18.5t21 62.5q0 66 -18 175h122q16 -103 16 -191q0 -151 -110 -183q68 -36 68 -103z
M821 -318q0 -25 -17 -42t-42 -17t-42 17t-17 42t17 42t42 17t42 -17t17 -42zM677 -318q0 -25 -17 -42t-42 -17t-41.5 17t-16.5 42t16.5 42t41.5 17t42 -17t17 -42zM749 -448q0 -25 -17 -42t-42 -17t-42 17t-17 42t17 42t42 17t42 -17t17 -42z" />
    <glyph glyph-name="uniFB90FBFD" unicode="&#xfb90;&#xfbfd;" horiz-adv-x="774" 
d="M728 -41q0 -87 -94 -145t-241 -58q-177 0 -263.5 71t-89.5 213q-1 60 17 138h118q-13 -67 -13 -112q0 -167 244 -167q101 0 158.5 21t57.5 59q0 51 -89 51h-120v135h134q62 0 62 45q0 21 -19.5 41.5t-70.5 50.5l-191 102v118l446 246l-1 -137l-303 -164l92 -55
q82 -43 118 -91.5t36 -109.5q0 -96 -76 -141q88 -31 88 -111z" />
    <glyph glyph-name="uniFB94FBFD" unicode="&#xfb94;&#xfbfd;" horiz-adv-x="794" 
d="M794 928l-1 -92l-445 -246v93zM748 -41q0 -87 -99.5 -145t-255.5 -58q-177 0 -263.5 71t-89.5 213q-1 60 17 138h118q-13 -67 -13 -112q0 -167 244 -167q111 0 173.5 21t62.5 59q0 51 -89 51h-120v135h134q62 0 62 45q0 21 -19.5 41.5t-70.5 50.5l-191 102v118l446 246
l-1 -137l-303 -164l92 -55q82 -43 118 -91.5t36 -109.5q0 -96 -76 -141q88 -31 88 -111z" />
    <glyph glyph-name="uniFE8BFBFD" unicode="&#xfe8b;&#xfbfd;" horiz-adv-x="842" 
d="M816 581v-77l-221 -32v77l40 6q-27 23 -25 61q0 42 28.5 70t71.5 28q39 0 63 -24t27 -67l-51 -6q-14 21 -41 21q-39 0 -39 -30q0 -19 22 -31t52 -7zM753 -52q0 -80 -102 -136t-259 -56q-353 0 -353 276q0 59 16 146h118q-14 -77 -14 -116q0 -163 246 -163q113 0 177 20.5
t64 56.5q0 22 -23.5 38t-73.5 16h-111v139h142q53 0 74 18.5t21 62.5q0 66 -18 175h122q16 -103 16 -191q0 -151 -110 -183q68 -36 68 -103z" />
    <glyph glyph-name="uniFEB3FEB0" unicode="&#xfeb3;&#xfeb0;" horiz-adv-x="1088" 
d="M224 461q0 -28 -19 -46.5t-47 -18.5t-47 18.5t-19 46.5t19 47.5t47 19.5t47 -19.5t19 -47.5zM269 93q0 -170 -61 -251t-190 -81q-50 0 -90 6v140q46 -8 86 -8q72 0 104 45.5t32 144.5q0 50 -8 116l-14 115l383 35l14 -126q6 -55 23 -76.5t56 -21.5q32 0 51 26t19 77v51
h120v-51q0 -51 18.5 -77t48.5 -26q66 0 66 89q0 50 -20 135h125q15 -82 15 -139q0 -111 -49.5 -169t-138.5 -58q-56 0 -98.5 28t-56.5 77q-14 -105 -124 -105q-84 0 -121 48q-37 49 -52 168l-143 -13q5 -58 5 -99z" />
    <glyph glyph-name="uniFEB7FEB0" unicode="&#xfeb7;&#xfeb0;" horiz-adv-x="1088" 
d="M781 533q0 -25 -17 -41.5t-42 -16.5t-42 16.5t-17 41.5t17 42t42 17t42 -17t17 -42zM224 461q0 -28 -19 -46.5t-47 -18.5t-47 18.5t-19 46.5t19 47.5t47 19.5t47 -19.5t19 -47.5zM709 404q0 -25 -17 -42t-42 -17t-42 17t-17 42t17 42t42 17t42 -17t17 -42zM852 404
q0 -25 -16.5 -42t-41.5 -17t-42 17t-17 42t17 42t42 17t41.5 -17t16.5 -42zM269 93q0 -170 -61 -251t-190 -81q-50 0 -90 6v140q46 -8 86 -8q72 0 104 45.5t32 144.5q0 50 -8 116l-14 115l383 35l14 -126q6 -55 23 -76.5t56 -21.5q32 0 51 26t19 77v51h120v-51
q0 -51 18.5 -77t48.5 -26q66 0 66 89q0 50 -20 135h125q15 -82 15 -139q0 -111 -49.5 -169t-138.5 -58q-56 0 -98.5 28t-56.5 77q-14 -105 -124 -105q-84 0 -121 48q-37 49 -52 168l-143 -13q5 -58 5 -99z" />
    <glyph glyph-name="uniFEBBFEB0" unicode="&#xfebb;&#xfeb0;" horiz-adv-x="1180" 
d="M226 496q0 -28 -19 -46.5t-47 -18.5t-47 18.5t-19 46.5t19 47.5t47 19.5t47 -19.5t19 -47.5zM269 93q0 -170 -61 -251t-190 -81q-50 0 -90 6v140q46 -8 86 -8q72 0 104 45.5t32 144.5q0 50 -8 116l-18 150l383 35l18 -161q5 -49 22 -69q73 142 170.5 219.5t210.5 77.5
q101 0 162 -64t61 -156q0 -248 -448 -248q-159 0 -222.5 51.5t-77.5 195.5l-1 5l-142 -13l1 -10q8 -90 8 -125zM924 318q-166 0 -298 -187q72 -3 91 -3q181 0 257.5 26t76.5 80q0 33 -34 58.5t-93 25.5z" />
    <glyph glyph-name="uniFEBFFEB0" unicode="&#xfebf;&#xfeb0;" horiz-adv-x="1180" 
d="M970 583q0 -28 -19 -46.5t-47 -18.5t-47 18.5t-19 46.5t19 47.5t47 19.5t47 -19.5t19 -47.5zM226 496q0 -28 -19 -46.5t-47 -18.5t-47 18.5t-19 46.5t19 47.5t47 19.5t47 -19.5t19 -47.5zM269 93q0 -170 -61 -251t-190 -81q-50 0 -90 6v140q46 -8 86 -8q72 0 104 45.5
t32 144.5q0 50 -8 116l-18 150l383 35l18 -161q5 -49 22 -69q73 142 170.5 219.5t210.5 77.5q101 0 162 -64t61 -156q0 -248 -448 -248q-159 0 -222.5 51.5t-77.5 195.5l-1 5l-142 -13l1 -10q8 -90 8 -125zM924 318q-166 0 -298 -187q72 -3 91 -3q181 0 257.5 26t76.5 80
q0 33 -34 58.5t-93 25.5z" />
    <glyph glyph-name="uniFB59FEF0" unicode="&#xfb59;&#xfef0;" horiz-adv-x="955" 
d="M744 -1q0 -109 -104 -176t-262 -67q-172 0 -255.5 70.5t-83.5 213.5q0 60 15 138h118q-13 -67 -13 -112q0 -85 57.5 -126t178.5 -41q103 0 171 23t68 59q0 40 -95 52l-112 16q-73 10 -109.5 47.5t-36.5 96.5q0 98 94 177t207 79q89 0 145 -44t104 -147l26 -54
q18 -39 37.5 -52t60.5 -13v-111l-29 -28q-64 0 -102 27t-75 111l-23 50q-30 68 -70.5 95t-107.5 27q-64 0 -111.5 -25t-47.5 -59q0 -19 16.5 -29.5t55.5 -16.5l118 -17q90 -12 127.5 -52t37.5 -112zM933 -257q0 -25 -17 -42t-42 -17t-42 17t-17 42t17 42t42 17t42 -17
t17 -42zM789 -257q0 -25 -17 -42t-42 -17t-41.5 17t-16.5 42t16.5 42t41.5 17t42 -17t17 -42zM861 -387q0 -25 -17 -42t-42 -17t-42 17t-17 42t17 42t42 17t42 -17t17 -42z" />
    <glyph glyph-name="uniFB7DFEF0" unicode="&#xfb7d;&#xfef0;" horiz-adv-x="1092" 
d="M747 -27q0 -96 -98.5 -156.5t-261.5 -60.5q-348 0 -348 276q0 59 16 146h118q-14 -77 -14 -116q0 -163 236 -163q117 0 181.5 21t64.5 59q0 21 -22 37t-71 16h-75v119l203 66q89 29 152 44q-25 6 -54 16l-90 31q-57 19 -83 19q-44 0 -52 -45h-108q3 86 45.5 135t115.5 49
q46 0 128 -30l133 -44q63 -24 98 -32.5t78 -8.5h30l-1 -127h-17q-23 0 -63 -7v-12q0 -35 23.5 -50.5t80.5 -15.5v-109l-28 -30q-86 0 -129.5 48.5t-43.5 140.5q-20 -7 -151 -59l-90 -35q48 -14 72.5 -48t24.5 -74zM1025 -78q0 -25 -17 -42t-42 -17t-42 17t-17 42t17 42
t42 17t42 -17t17 -42zM881 -78q0 -25 -17 -42t-42 -17t-41.5 17t-16.5 42t16.5 42t41.5 17t42 -17t17 -42zM953 -207q0 -25 -17 -42t-42 -17t-42 17t-17 42t17 41.5t42 16.5t42 -16.5t17 -41.5z" />
    <glyph glyph-name="uniFB95FEF0" unicode="&#xfb95;&#xfef0;" horiz-adv-x="994" 
d="M1016 955l-1 -92l-444 -246v93zM748 -41q0 -87 -99.5 -145t-255.5 -58q-177 0 -263.5 71t-89.5 213q-1 60 17 138h118q-13 -67 -13 -112q0 -167 244 -167q111 0 173.5 21t62.5 59q0 51 -89 51h-111v139h185q75 0 75 46q0 23 -33 72l-98 148v114l445 246l-1 -135
l-320 -178l152 -223q49 -70 77 -95t71 -25v-111l-28 -28q-51 0 -91 27q-38 26 -88 96l-20 30q-8 -69 -73 -96q53 -34 53 -98z" />
    <glyph glyph-name="uniFEE0FB51" unicode="&#xfee0;&#xfb51;" horiz-adv-x="633" 
d="M42 649h-59q0 52 23.5 80t67.5 28h2q51 116 132 116q44 0 69 -26.5t25 -73.5q0 -52 -26.5 -79.5t-76.5 -27.5q-24 0 -64 8t-61 8q-32 0 -32 -33zM202 798q-46 0 -72 -47q48 -10 68 -10q48 0 48 27q0 13 -12 21.5t-32 8.5zM202 6l-182 -23v138l153 18l-77 478h136l67 -459
q67 14 90 37.5t23 72.5v492h127v-520q0 -57 20.5 -79t73.5 -22v-111l-28 -28h-11q-74 0 -113 31t-52 97q-16 -52 -68.5 -80.5t-158.5 -41.5z" />
    <glyph glyph-name="uniFB59FEE6" unicode="&#xfb59;&#xfee6;" horiz-adv-x="1013" 
d="M400 413q0 -28 -19 -47t-47 -19t-47 19t-19 47t19 47.5t47 19.5t47 -19.5t19 -47.5zM648 115q0 -147 -80.5 -227.5t-224.5 -80.5q-148 0 -225.5 69t-78.5 203q0 79 16 156h118q-14 -68 -14 -120q0 -81 48.5 -123t139.5 -42q100 0 146.5 38.5t46.5 123.5q0 37 -8 93
l-18 150l372 35l19 -161q6 -54 28 -72q23 -18 80 -18v-111l-29 -28q-101 0 -145 51q-42 51 -56 185l-1 6l-142 -14l1 -10q7 -68 7 -103zM952 -122q0 -25 -17 -42t-42 -17t-41.5 17t-16.5 42t16.5 42t41.5 17t42 -17t17 -42zM809 -122q0 -25 -17 -42t-42 -17t-41.5 17
t-16.5 42t16.5 42t41.5 17t42 -17t17 -42zM880 -251q0 -25 -17 -42t-42 -17t-41.5 17t-16.5 42t16.5 41.5t41.5 16.5t42 -16.5t17 -41.5z" />
    <glyph glyph-name="uniFBFFFEE6" unicode="&#xfbff;&#xfee6;" horiz-adv-x="1013" 
d="M400 413q0 -28 -19 -47t-47 -19t-47 19t-19 47t19 47.5t47 19.5t47 -19.5t19 -47.5zM648 115q0 -147 -80.5 -227.5t-224.5 -80.5q-148 0 -225.5 69t-78.5 203q0 79 16 156h118q-14 -68 -14 -120q0 -81 48.5 -123t139.5 -42q100 0 146.5 38.5t46.5 123.5q0 37 -8 93
l-18 150l372 35l19 -161q6 -54 28 -72q23 -18 80 -18v-111l-29 -28q-101 0 -145 51q-42 51 -56 185l-1 6l-142 -14l1 -10q7 -68 7 -103zM953 -139q0 -25 -17 -42t-42 -17t-42 17t-17 42t17 42t42 17t42 -17t17 -42zM810 -139q0 -25 -17 -42t-42 -17t-42 17t-17 42t17 42
t42 17t42 -17t17 -42z" />
    <glyph glyph-name="uniFB59FEAE" unicode="&#xfb59;&#xfeae;" horiz-adv-x="633" 
d="M269 93q0 -170 -61 -251t-190 -81q-50 0 -90 6v140q46 -8 86 -8q72 0 104 45.5t32 144.5q0 50 -8 116l-18 150l383 35l18 -161q6 -54 28 -72q23 -18 80 -18v-111l-28 -28q-101 0 -145 51q-44 53 -57 185l-1 5l-142 -13l1 -10q8 -90 8 -125zM587 -122q0 -25 -17 -42
t-42 -17t-41.5 17t-16.5 42t16.5 42t41.5 17t42 -17t17 -42zM444 -122q0 -25 -17 -42t-42 -17t-42 17t-17 42t17 42t42 17t42 -17t17 -42zM515 -251q0 -25 -17 -42t-42 -17t-41.5 17t-16.5 42t16.5 41.5t41.5 16.5t42 -16.5t17 -41.5z" />
    <glyph glyph-name="uniFBFFFEAE" unicode="&#xfbff;&#xfeae;" horiz-adv-x="633" 
d="M269 93q0 -170 -61 -251t-190 -81q-50 0 -90 6v140q46 -8 86 -8q72 0 104 45.5t32 144.5q0 50 -8 116l-18 150l383 35l18 -161q6 -54 28 -72q23 -18 80 -18v-111l-28 -28q-101 0 -145 51q-44 53 -57 185l-1 5l-142 -13l1 -10q8 -90 8 -125zM588 -139q0 -25 -17 -42
t-42 -17t-42 17t-17 42t17 42t42 17t42 -17t17 -42zM444 -139q0 -25 -16.5 -42t-41.5 -17t-42 17t-17 42t17 42t42 17t41.5 -17t16.5 -42z" />
    <glyph glyph-name="uniFB59FEF2" unicode="&#xfb59;&#xfef2;" horiz-adv-x="955" 
d="M744 -1q0 -109 -104 -176t-262 -67q-172 0 -255.5 70.5t-83.5 213.5q0 60 15 138h118q-13 -67 -13 -112q0 -85 57.5 -126t178.5 -41q103 0 171 23t68 59q0 40 -95 52l-112 16q-73 10 -109.5 47.5t-36.5 96.5q0 98 94 177t207 79q89 0 145 -44t104 -147l26 -54
q18 -39 37.5 -52t60.5 -13v-111l-29 -28q-64 0 -102 27t-75 111l-23 50q-30 68 -70.5 95t-107.5 27q-64 0 -111.5 -25t-47.5 -59q0 -19 16.5 -29.5t55.5 -16.5l118 -17q90 -12 127.5 -52t37.5 -112zM933 -257q0 -25 -17 -42t-42 -17t-42 17t-17 42t17 42t42 17t42 -17
t17 -42zM789 -257q0 -25 -17 -42t-42 -17t-41.5 17t-16.5 42t16.5 42t41.5 17t42 -17t17 -42zM523 -376q0 -28 -18.5 -47t-46.5 -19t-47.5 19t-19.5 47t19.5 47.5t47.5 19.5t46.5 -19.5t18.5 -47.5zM365 -376q0 -28 -18.5 -47t-46.5 -19t-47.5 19t-19.5 47t19.5 47.5
t47.5 19.5t46.5 -19.5t18.5 -47.5zM861 -387q0 -25 -17 -42t-42 -17t-42 17t-17 42t17 42t42 17t42 -17t17 -42z" />
    <glyph glyph-name="uniFB7DFEF2" unicode="&#xfb7d;&#xfef2;" horiz-adv-x="1092" 
d="M747 -27q0 -96 -98.5 -156.5t-261.5 -60.5q-348 0 -348 276q0 59 16 146h118q-14 -77 -14 -116q0 -163 236 -163q117 0 181.5 21t64.5 59q0 21 -22 37t-71 16h-75v119l203 66q89 29 152 44q-25 6 -54 16l-90 31q-57 19 -83 19q-44 0 -52 -45h-108q3 86 45.5 135t115.5 49
q46 0 128 -30l133 -44q63 -24 98 -32.5t78 -8.5h30l-1 -127h-17q-23 0 -63 -7v-12q0 -35 23.5 -50.5t80.5 -15.5v-109l-28 -30q-86 0 -129.5 48.5t-43.5 140.5q-20 -7 -151 -59l-90 -35q48 -14 72.5 -48t24.5 -74zM1025 -78q0 -25 -17 -42t-42 -17t-42 17t-17 42t17 42
t42 17t42 -17t17 -42zM881 -78q0 -25 -17 -42t-42 -17t-41.5 17t-16.5 42t16.5 42t41.5 17t42 -17t17 -42zM953 -207q0 -25 -17 -42t-42 -17t-42 17t-17 42t17 41.5t42 16.5t42 -16.5t17 -41.5zM538 -376q0 -28 -19 -47t-47 -19t-47.5 19t-19.5 47t19.5 47.5t47.5 19.5
t47 -19.5t19 -47.5zM379 -376q0 -28 -18.5 -47t-46.5 -19t-47.5 19t-19.5 47t19.5 47.5t47.5 19.5t46.5 -19.5t18.5 -47.5z" />
    <glyph glyph-name="uniFB95FEF2" unicode="&#xfb95;&#xfef2;" horiz-adv-x="994" 
d="M1016 955l-1 -92l-444 -246v93zM748 -41q0 -87 -99.5 -145t-255.5 -58q-177 0 -263.5 71t-89.5 213q-1 60 17 138h118q-13 -67 -13 -112q0 -167 244 -167q111 0 173.5 21t62.5 59q0 51 -89 51h-111v139h185q75 0 75 46q0 23 -33 72l-98 148v114l445 246l-1 -135
l-320 -178l152 -223q49 -70 77 -95t71 -25v-111l-28 -28q-51 0 -91 27q-38 26 -88 96l-20 30q-8 -69 -73 -96q53 -34 53 -98zM539 -372q0 -28 -19 -46.5t-47 -18.5t-47 18.5t-19 46.5t19 47.5t47 19.5t47 -19.5t19 -47.5zM381 -372q0 -28 -19 -46.5t-47 -18.5t-47 18.5
t-19 46.5t19 47.5t47 19.5t47 -19.5t19 -47.5z" />
    <glyph glyph-name="uniFE92FE8A" unicode="&#xfe92;&#xfe8a;" horiz-adv-x="955" 
d="M218 334v-76l-222 -32v77l40 5q-25 25 -25 62q1 42 29.5 70t71.5 28q39 0 62.5 -24t27.5 -67l-52 -7q-11 21 -40 21q-39 0 -39 -29q0 -20 21 -31.5t52 -7.5zM744 -1q0 -109 -104 -176t-262 -67q-172 0 -255.5 70.5t-83.5 213.5q0 60 15 138h118q-13 -67 -13 -112
q0 -85 57.5 -126t178.5 -41q103 0 171 23t68 59q0 40 -95 52l-112 16q-73 10 -109.5 47.5t-36.5 96.5q0 98 94 177t207 79q89 0 145 -44t104 -147l26 -54q18 -39 37.5 -52t60.5 -13v-111l-29 -28q-64 0 -102 27t-75 111l-23 50q-30 68 -70.5 95t-107.5 27q-64 0 -111.5 -25
t-47.5 -59q0 -19 16.5 -29.5t55.5 -16.5l118 -17q90 -12 127.5 -52t37.5 -112zM867 -267q0 -28 -19 -47t-47 -19t-47 19t-19 47t19 47t47 19t47 -19t19 -47z" />
    <glyph glyph-name="uniFE98FE8A" unicode="&#xfe98;&#xfe8a;" horiz-adv-x="955" 
d="M727 575q0 -28 -19 -47t-47 -19t-47 19t-19 47t19 47t47 19t47 -19t19 -47zM569 575q0 -28 -19 -47t-47 -19t-47.5 19t-19.5 47t19.5 47t47.5 19t47 -19t19 -47zM218 334v-76l-222 -32v77l40 5q-25 25 -25 62q1 42 29.5 70t71.5 28q39 0 62.5 -24t27.5 -67l-52 -7
q-11 21 -40 21q-39 0 -39 -29q0 -20 21 -31.5t52 -7.5zM744 -1q0 -109 -104 -176t-262 -67q-172 0 -255.5 70.5t-83.5 213.5q0 60 15 138h118q-13 -67 -13 -112q0 -85 57.5 -126t178.5 -41q103 0 171 23t68 59q0 40 -95 52l-112 16q-73 10 -109.5 47.5t-36.5 96.5
q0 98 94 177t207 79q89 0 145 -44t104 -147l26 -54q18 -39 37.5 -52t60.5 -13v-111l-29 -28q-64 0 -102 27t-75 111l-23 50q-30 68 -70.5 95t-107.5 27q-64 0 -111.5 -25t-47.5 -59q0 -19 16.5 -29.5t55.5 -16.5l118 -17q90 -12 127.5 -52t37.5 -112z" />
    <glyph glyph-name="uniFE9CFE8A" unicode="&#xfe9c;&#xfe8a;" horiz-adv-x="955" 
d="M641 697q0 -25 -17 -41.5t-42 -16.5t-42 16.5t-17 41.5t17 42t42 17t42 -17t17 -42zM569 568q0 -25 -17 -42t-42 -17t-42 17t-17 42t17 41.5t42 16.5t42 -16.5t17 -41.5zM712 568q0 -25 -16.5 -42t-41.5 -17t-42 17t-17 42t17 41.5t42 16.5t41.5 -16.5t16.5 -41.5z
M218 334v-76l-222 -32v77l40 5q-25 25 -25 62q1 42 29.5 70t71.5 28q39 0 62.5 -24t27.5 -67l-52 -7q-11 21 -40 21q-39 0 -39 -29q0 -20 21 -31.5t52 -7.5zM744 -1q0 -109 -104 -176t-262 -67q-172 0 -255.5 70.5t-83.5 213.5q0 60 15 138h118q-13 -67 -13 -112
q0 -85 57.5 -126t178.5 -41q103 0 171 23t68 59q0 40 -95 52l-112 16q-73 10 -109.5 47.5t-36.5 96.5q0 98 94 177t207 79q89 0 145 -44t104 -147l26 -54q18 -39 37.5 -52t60.5 -13v-111l-29 -28q-64 0 -102 27t-75 111l-23 50q-30 68 -70.5 95t-107.5 27q-64 0 -111.5 -25
t-47.5 -59q0 -19 16.5 -29.5t55.5 -16.5l118 -17q90 -12 127.5 -52t37.5 -112z" />
    <glyph glyph-name="uniFEA0FE8A" unicode="&#xfea0;&#xfe8a;" horiz-adv-x="1092" 
d="M226 334v-76l-222 -32v77l40 5q-25 25 -25 62q0 42 28.5 70t71.5 28q39 0 63 -24t28 -67l-52 -7q-13 21 -40 21q-39 0 -39 -29q0 -20 21 -31.5t52 -7.5zM747 -27q0 -96 -98.5 -156.5t-261.5 -60.5q-348 0 -348 276q0 59 16 146h118q-14 -77 -14 -116q0 -163 236 -163
q117 0 181.5 21t64.5 59q0 21 -22 37t-71 16h-75v119l203 66q89 29 152 44q-25 6 -54 16l-90 31q-57 19 -83 19q-44 0 -52 -45h-108q3 86 45.5 135t115.5 49q46 0 128 -30l133 -44q63 -24 98 -32.5t78 -8.5h30l-1 -127h-17q-23 0 -63 -7v-12q0 -35 23.5 -50.5t80.5 -15.5
v-109l-28 -30q-86 0 -129.5 48.5t-43.5 140.5q-20 -7 -151 -59l-90 -35q48 -14 72.5 -48t24.5 -74zM959 -88q0 -28 -19 -47t-47 -19t-47 19t-19 47t19 47t47 19t47 -19t19 -47z" />
    <glyph glyph-name="uniFEA4FE8A" unicode="&#xfea4;&#xfe8a;" horiz-adv-x="1092" 
d="M226 334v-76l-222 -32v77l40 5q-25 25 -25 62q0 42 28.5 70t71.5 28q39 0 63 -24t28 -67l-52 -7q-13 21 -40 21q-39 0 -39 -29q0 -20 21 -31.5t52 -7.5zM747 -27q0 -96 -98.5 -156.5t-261.5 -60.5q-348 0 -348 276q0 59 16 146h118q-14 -77 -14 -116q0 -163 236 -163
q117 0 181.5 21t64.5 59q0 21 -22 37t-71 16h-75v119l203 66q89 29 152 44q-25 6 -54 16l-90 31q-57 19 -83 19q-44 0 -52 -45h-108q3 86 45.5 135t115.5 49q46 0 128 -30l133 -44q63 -24 98 -32.5t78 -8.5h30l-1 -127h-17q-23 0 -63 -7v-12q0 -35 23.5 -50.5t80.5 -15.5
v-109l-28 -30q-86 0 -129.5 48.5t-43.5 140.5q-20 -7 -151 -59l-90 -35q48 -14 72.5 -48t24.5 -74z" />
    <glyph glyph-name="uniFEA8FE8A" unicode="&#xfea8;&#xfe8a;" horiz-adv-x="1092" 
d="M714 583q0 -28 -19 -46.5t-47 -18.5t-47.5 18.5t-19.5 46.5t19.5 47.5t47.5 19.5t47 -19.5t19 -47.5zM226 334v-76l-222 -32v77l40 5q-25 25 -25 62q0 42 28.5 70t71.5 28q39 0 63 -24t28 -67l-52 -7q-13 21 -40 21q-39 0 -39 -29q0 -20 21 -31.5t52 -7.5zM747 -27
q0 -96 -98.5 -156.5t-261.5 -60.5q-348 0 -348 276q0 59 16 146h118q-14 -77 -14 -116q0 -163 236 -163q117 0 181.5 21t64.5 59q0 21 -22 37t-71 16h-75v119l203 66q89 29 152 44q-25 6 -54 16l-90 31q-57 19 -83 19q-44 0 -52 -45h-108q3 86 45.5 135t115.5 49
q46 0 128 -30l133 -44q63 -24 98 -32.5t78 -8.5h30l-1 -127h-17q-23 0 -63 -7v-12q0 -35 23.5 -50.5t80.5 -15.5v-109l-28 -30q-86 0 -129.5 48.5t-43.5 140.5q-20 -7 -151 -59l-90 -35q48 -14 72.5 -48t24.5 -74z" />
    <glyph glyph-name="uniFEB4FE8A" unicode="&#xfeb4;&#xfe8a;" horiz-adv-x="1518" 
d="M218 334v-76l-222 -32v77l40 5q-25 25 -25 62q1 42 29.5 70t71.5 28q39 0 62.5 -24t27.5 -67l-52 -7q-11 21 -40 21q-39 0 -39 -29q0 -20 21 -31.5t52 -7.5zM830 264l26 -54q21 -47 41 -63t59 -16q90 0 90 117v37h120v-51q0 -51 18 -77t47 -26q72 0 72 103v86h120v-86
q0 -50 23 -72.5t72 -22.5v-111l-28 -28q-65 0 -106 29.5t-52 81.5q-9 -58 -43 -90t-85 -32q-49 0 -83.5 28.5t-44.5 78.5q-20 -107 -138 -107q-69 0 -110 32q-40 31 -81 123l-22 50q-30 63 -70.5 89.5t-106.5 26.5q-64 0 -111.5 -25t-47.5 -59q0 -19 16 -29t56 -17l118 -17
q90 -12 127.5 -52t37.5 -112q0 -109 -104 -176t-262 -67q-172 0 -255.5 70.5t-83.5 213.5q0 60 15 138h118q-13 -67 -13 -112q0 -85 57.5 -126t178.5 -41q103 0 171 23t68 59q0 40 -95 52l-112 16q-73 10 -109.5 47.5t-36.5 96.5q0 98 94 177t207 79q90 0 145 -43
q57 -45 103 -142z" />
    <glyph glyph-name="uniFEB8FE8A" unicode="&#xfeb8;&#xfe8a;" horiz-adv-x="1518" 
d="M1162 545q0 -25 -16.5 -42t-41.5 -17t-42 17t-17 42t17 42t42 17t41.5 -17t16.5 -42zM1090 415q0 -25 -16.5 -41.5t-41.5 -16.5t-42 16.5t-17 41.5t17 42t42 17t41.5 -17t16.5 -42zM1234 415q0 -25 -17 -41.5t-42 -16.5t-42 16.5t-17 41.5t17 42t42 17t42 -17t17 -42z
M218 334v-76l-222 -32v77l40 5q-25 25 -25 62q1 42 29.5 70t71.5 28q39 0 62.5 -24t27.5 -67l-52 -7q-11 21 -40 21q-39 0 -39 -29q0 -20 21 -31.5t52 -7.5zM830 264l26 -54q21 -47 41 -63t59 -16q90 0 90 117v37h120v-51q0 -51 18 -77t47 -26q72 0 72 103v86h120v-86
q0 -50 23 -72.5t72 -22.5v-111l-28 -28q-65 0 -106 29.5t-52 81.5q-9 -58 -43 -90t-85 -32q-49 0 -83.5 28.5t-44.5 78.5q-20 -107 -138 -107q-69 0 -110 32q-40 31 -81 123l-22 50q-30 63 -70.5 89.5t-106.5 26.5q-64 0 -111.5 -25t-47.5 -59q0 -19 16 -29t56 -17l118 -17
q90 -12 127.5 -52t37.5 -112q0 -109 -104 -176t-262 -67q-172 0 -255.5 70.5t-83.5 213.5q0 60 15 138h118q-13 -67 -13 -112q0 -85 57.5 -126t178.5 -41q103 0 171 23t68 59q0 40 -95 52l-112 16q-73 10 -109.5 47.5t-36.5 96.5q0 98 94 177t207 79q90 0 145 -43
q57 -45 103 -142z" />
    <glyph glyph-name="uniFEBCFE8A" unicode="&#xfebc;&#xfe8a;" horiz-adv-x="1520" 
d="M218 334v-76l-222 -32v77l40 5q-25 25 -25 62q1 42 29.5 70t71.5 28q39 0 62.5 -24t27.5 -67l-52 -7q-11 21 -40 21q-39 0 -39 -29q0 -20 21 -31.5t52 -7.5zM744 -1q0 -109 -104 -176t-262 -67q-172 0 -255.5 70.5t-83.5 213.5q0 60 15 138h118q-13 -67 -13 -112
q0 -85 57.5 -126t178.5 -41q103 0 171 23t68 59q0 40 -95 52l-112 16q-73 10 -109.5 47.5t-36.5 96.5q0 98 94 177t207 79q85 0 135 -41.5t106 -143.5l29 -54q5 -12 14 -24q68 129 160 200t198 71q101 0 161.5 -64t60.5 -156q0 -45 -14 -84q33 -14 88 -14v-109l-28 -30
q-87 0 -133 58q-97 -69 -297 -69q-141 0 -204 31t-111 124l-26 50q-33 64 -70.5 90t-102.5 26q-64 0 -111.5 -25t-47.5 -59q0 -19 16 -29t56 -17l118 -17q90 -12 127.5 -52t37.5 -112zM1219 318q-156 0 -279 -177q48 -11 151 -11q134 0 195 25t61 79q0 33 -34.5 58.5
t-93.5 25.5z" />
    <glyph glyph-name="uniFEC0FE8A" unicode="&#xfec0;&#xfe8a;" horiz-adv-x="1520" 
d="M1258 583q0 -28 -18.5 -46.5t-46.5 -18.5t-47.5 18.5t-19.5 46.5t19.5 47.5t47.5 19.5t46.5 -19.5t18.5 -47.5zM218 334v-76l-222 -32v77l40 5q-25 25 -25 62q1 42 29.5 70t71.5 28q39 0 62.5 -24t27.5 -67l-52 -7q-11 21 -40 21q-39 0 -39 -29q0 -20 21 -31.5t52 -7.5z
M744 -1q0 -109 -104 -176t-262 -67q-172 0 -255.5 70.5t-83.5 213.5q0 60 15 138h118q-13 -67 -13 -112q0 -85 57.5 -126t178.5 -41q103 0 171 23t68 59q0 40 -95 52l-112 16q-73 10 -109.5 47.5t-36.5 96.5q0 98 94 177t207 79q85 0 135 -41.5t106 -143.5l29 -54
q5 -12 14 -24q68 129 160 200t198 71q101 0 161.5 -64t60.5 -156q0 -45 -14 -84q33 -14 88 -14v-109l-28 -30q-87 0 -133 58q-97 -69 -297 -69q-141 0 -204 31t-111 124l-26 50q-33 64 -70.5 90t-102.5 26q-64 0 -111.5 -25t-47.5 -59q0 -19 16 -29t56 -17l118 -17
q90 -12 127.5 -52t37.5 -112zM1219 318q-156 0 -279 -177q48 -11 151 -11q134 0 195 25t61 79q0 33 -34.5 58.5t-93.5 25.5z" />
    <glyph glyph-name="uniFECCFE8A" unicode="&#xfecc;&#xfe8a;" horiz-adv-x="1139" 
d="M227 334v-76l-222 -32v77l40 5q-25 25 -25 62q1 42 29.5 70t71.5 28q38 0 62 -24t28 -67l-52 -7q-11 21 -40 21q-39 0 -39 -29q0 -20 21 -31.5t52 -7.5zM748 -60q0 -78 -98 -131t-269 -53q-342 0 -342 284q0 65 17 138h118q-13 -67 -13 -112q0 -167 228 -167
q252 0 252 67q0 47 -112 47h-10v126h184q-31 31 -74 91l-37 49v131q131 35 250 35q123 0 179.5 -35.5t57.5 -115.5q1 -82 -84 -155q12 -1 37 -1l107 1v-111l-28 -28h-24q-165 0 -263 49q-57 -19 -121 -26q45 -31 45 -83zM842 314q-78 0 -149 -12q43 -61 81 -94.5t85 -48.5
q61 15 94 42t32 58q-1 29 -35.5 42t-107.5 13z" />
    <glyph glyph-name="uniFED0FE8A" unicode="&#xfed0;&#xfe8a;" horiz-adv-x="1139" 
d="M902 571q0 -28 -18.5 -47t-46.5 -19t-47.5 19t-19.5 47t19.5 47.5t47.5 19.5t46.5 -19.5t18.5 -47.5zM227 334v-76l-222 -32v77l40 5q-25 25 -25 62q1 42 29.5 70t71.5 28q38 0 62 -24t28 -67l-52 -7q-11 21 -40 21q-39 0 -39 -29q0 -20 21 -31.5t52 -7.5zM748 -60
q0 -78 -98 -131t-269 -53q-342 0 -342 284q0 65 17 138h118q-13 -67 -13 -112q0 -167 228 -167q252 0 252 67q0 47 -112 47h-10v126h184q-31 31 -74 91l-37 49v131q131 35 250 35q123 0 179.5 -35.5t57.5 -115.5q1 -82 -84 -155q12 -1 37 -1l107 1v-111l-28 -28h-24
q-165 0 -263 49q-57 -19 -121 -26q45 -31 45 -83zM842 314q-78 0 -149 -12q43 -61 81 -94.5t85 -48.5q61 15 94 42t32 58q-1 29 -35.5 42t-107.5 13z" />
    <glyph glyph-name="uniFEDCFE8A" unicode="&#xfedc;&#xfe8a;" horiz-adv-x="994" 
d="M747 -41q0 -87 -99.5 -145t-255.5 -58q-177 0 -263.5 71t-89.5 213q-1 60 17 138h118q-13 -67 -13 -112q0 -167 244 -167q111 0 173.5 21t62.5 59q0 51 -89 51h-111v139h185q75 0 75 46q0 23 -33 72l-98 148v114l445 246l-1 -135l-320 -178l152 -223q49 -70 77 -95
t71 -25v-111l-28 -28q-50 0 -91 27q-38 26 -88 96l-20 30q-8 -69 -73 -96q53 -34 53 -98zM227 334v-76l-221 -32v77l39 5q-25 25 -24 62q0 42 28.5 70t71.5 28q39 0 63 -24t27 -67l-51 -7q-13 21 -41 21q-39 0 -39 -29q0 -20 21.5 -31.5t52.5 -7.5z" />
    <glyph glyph-name="uniFEE0FE8A" unicode="&#xfee0;&#xfe8a;" horiz-adv-x="973" 
d="M747 -48q0 -84 -95 -140t-260 -56q-353 0 -353 284q0 65 17 138h118q-13 -67 -13 -112q0 -167 244 -167q110 0 173 20.5t63 56.5q0 21 -25.5 37.5t-72.5 16.5h-111v139h216q104 0 104 107v484h127v-514q0 -64 20 -85.5t74 -21.5v-111l-28 -28q-161 0 -171 138
q-20 -62 -85 -86q58 -33 58 -100zM227 334v-76l-222 -32v77l40 5q-26 25 -25 62q0 42 28.5 70t71.5 28q39 0 63 -24t28 -67l-52 -7q-13 21 -40 21q-40 0 -40 -29q0 -20 21.5 -31.5t52.5 -7.5z" />
    <glyph glyph-name="uniFEE8FE8A" unicode="&#xfee8;&#xfe8a;" horiz-adv-x="955" 
d="M645 575q0 -28 -18.5 -47t-46.5 -19t-47.5 19t-19.5 47t19.5 47t47.5 19t46.5 -19t18.5 -47zM218 334v-76l-222 -32v77l40 5q-25 25 -25 62q1 42 29.5 70t71.5 28q39 0 62.5 -24t27.5 -67l-52 -7q-11 21 -40 21q-39 0 -39 -29q0 -20 21 -31.5t52 -7.5zM744 -1
q0 -109 -104 -176t-262 -67q-172 0 -255.5 70.5t-83.5 213.5q0 60 15 138h118q-13 -67 -13 -112q0 -85 57.5 -126t178.5 -41q103 0 171 23t68 59q0 40 -95 52l-112 16q-73 10 -109.5 47.5t-36.5 96.5q0 98 94 177t207 79q89 0 145 -44t104 -147l26 -54q18 -39 37.5 -52
t60.5 -13v-111l-29 -28q-64 0 -102 27t-75 111l-23 50q-30 68 -70.5 95t-107.5 27q-64 0 -111.5 -25t-47.5 -59q0 -19 16.5 -29.5t55.5 -16.5l118 -17q90 -12 127.5 -52t37.5 -112z" />
    <glyph glyph-name="uniFEF4FE8A" unicode="&#xfef4;&#xfe8a;" horiz-adv-x="955" 
d="M218 334v-76l-222 -32v77l40 5q-25 25 -25 62q1 42 29.5 70t71.5 28q39 0 62.5 -24t27.5 -67l-52 -7q-11 21 -40 21q-39 0 -39 -29q0 -20 21 -31.5t52 -7.5zM744 -1q0 -109 -104 -176t-262 -67q-172 0 -255.5 70.5t-83.5 213.5q0 60 15 138h118q-13 -67 -13 -112
q0 -85 57.5 -126t178.5 -41q103 0 171 23t68 59q0 40 -95 52l-112 16q-73 10 -109.5 47.5t-36.5 96.5q0 98 94 177t207 79q89 0 145 -44t104 -147l26 -54q18 -39 37.5 -52t60.5 -13v-111l-29 -28q-64 0 -102 27t-75 111l-23 50q-30 68 -70.5 95t-107.5 27q-64 0 -111.5 -25
t-47.5 -59q0 -19 16.5 -29.5t55.5 -16.5l118 -17q90 -12 127.5 -52t37.5 -112zM948 -267q0 -28 -19 -47t-47 -19t-47 19t-19 47t19 47t47 19t47 -19t19 -47zM790 -267q0 -28 -19 -47t-47 -19t-47 19t-19 47t19 47t47 19t47 -19t19 -47z" />
    <glyph glyph-name="uniFB59FE8A" unicode="&#xfb59;&#xfe8a;" horiz-adv-x="955" 
d="M218 334v-76l-222 -32v77l40 5q-25 25 -25 62q1 42 29.5 70t71.5 28q39 0 62.5 -24t27.5 -67l-52 -7q-11 21 -40 21q-39 0 -39 -29q0 -20 21 -31.5t52 -7.5zM744 -1q0 -109 -104 -176t-262 -67q-172 0 -255.5 70.5t-83.5 213.5q0 60 15 138h118q-13 -67 -13 -112
q0 -85 57.5 -126t178.5 -41q103 0 171 23t68 59q0 40 -95 52l-112 16q-73 10 -109.5 47.5t-36.5 96.5q0 98 94 177t207 79q89 0 145 -44t104 -147l26 -54q18 -39 37.5 -52t60.5 -13v-111l-29 -28q-64 0 -102 27t-75 111l-23 50q-30 68 -70.5 95t-107.5 27q-64 0 -111.5 -25
t-47.5 -59q0 -19 16.5 -29.5t55.5 -16.5l118 -17q90 -12 127.5 -52t37.5 -112zM933 -257q0 -25 -17 -42t-42 -17t-42 17t-17 42t17 42t42 17t42 -17t17 -42zM789 -257q0 -25 -17 -42t-42 -17t-41.5 17t-16.5 42t16.5 42t41.5 17t42 -17t17 -42zM861 -387q0 -25 -17 -42
t-42 -17t-42 17t-17 42t17 42t42 17t42 -17t17 -42z" />
    <glyph glyph-name="uniFB7DFE8A" unicode="&#xfb7d;&#xfe8a;" horiz-adv-x="1092" 
d="M226 334v-76l-222 -32v77l40 5q-25 25 -25 62q0 42 28.5 70t71.5 28q39 0 63 -24t28 -67l-52 -7q-13 21 -40 21q-39 0 -39 -29q0 -20 21 -31.5t52 -7.5zM747 -27q0 -96 -98.5 -156.5t-261.5 -60.5q-348 0 -348 276q0 59 16 146h118q-14 -77 -14 -116q0 -163 236 -163
q117 0 181.5 21t64.5 59q0 21 -22 37t-71 16h-75v119l203 66q89 29 152 44q-25 6 -54 16l-90 31q-57 19 -83 19q-44 0 -52 -45h-108q3 86 45.5 135t115.5 49q46 0 128 -30l133 -44q63 -24 98 -32.5t78 -8.5h30l-1 -127h-17q-23 0 -63 -7v-12q0 -35 23.5 -50.5t80.5 -15.5
v-109l-28 -30q-86 0 -129.5 48.5t-43.5 140.5q-20 -7 -151 -59l-90 -35q48 -14 72.5 -48t24.5 -74zM1025 -78q0 -25 -17 -42t-42 -17t-42 17t-17 42t17 42t42 17t42 -17t17 -42zM881 -78q0 -25 -17 -42t-42 -17t-41.5 17t-16.5 42t16.5 42t41.5 17t42 -17t17 -42zM953 -207
q0 -25 -17 -42t-42 -17t-42 17t-17 42t17 41.5t42 16.5t42 -16.5t17 -41.5z" />
    <glyph glyph-name="uniFB95FE8A" unicode="&#xfb95;&#xfe8a;" horiz-adv-x="994" 
d="M1015 955l-1 -92l-444 -246v93zM747 -41q0 -87 -99.5 -145t-255.5 -58q-177 0 -263.5 71t-89.5 213q-1 60 17 138h118q-13 -67 -13 -112q0 -167 244 -167q111 0 173.5 21t62.5 59q0 51 -89 51h-111v139h185q75 0 75 46q0 23 -33 72l-98 148v114l445 246l-1 -135
l-320 -178l152 -223q49 -70 77 -95t71 -25v-111l-28 -28q-50 0 -91 27q-38 26 -88 96l-20 30q-8 -69 -73 -96q53 -34 53 -98zM227 334v-76l-221 -32v77l39 5q-25 25 -24 62q0 42 28.5 70t71.5 28q39 0 63 -24t27 -67l-51 -7q-13 21 -41 21q-39 0 -39 -29q0 -20 21.5 -31.5
t52.5 -7.5z" />
    <glyph glyph-name="uniFE8CFE8A" unicode="&#xfe8c;&#xfe8a;" horiz-adv-x="955" 
d="M690 605v-77l-222 -32v77l40 6q-25 23 -25 61q1 42 29.5 70t71.5 28q39 0 62.5 -24t27.5 -67l-52 -6q-12 21 -40 21q-39 0 -39 -30q0 -19 21.5 -31t51.5 -7zM218 334v-76l-222 -32v77l40 5q-25 25 -25 62q1 42 29.5 70t71.5 28q39 0 62.5 -24t27.5 -67l-52 -7
q-11 21 -40 21q-39 0 -39 -29q0 -20 21 -31.5t52 -7.5zM744 -1q0 -109 -104 -176t-262 -67q-172 0 -255.5 70.5t-83.5 213.5q0 60 15 138h118q-13 -67 -13 -112q0 -85 57.5 -126t178.5 -41q103 0 171 23t68 59q0 40 -95 52l-112 16q-73 10 -109.5 47.5t-36.5 96.5
q0 98 94 177t207 79q89 0 145 -44t104 -147l26 -54q18 -39 37.5 -52t60.5 -13v-111l-29 -28q-64 0 -102 27t-75 111l-23 50q-30 68 -70.5 95t-107.5 27q-64 0 -111.5 -25t-47.5 -59q0 -19 16.5 -29.5t55.5 -16.5l118 -17q90 -12 127.5 -52t37.5 -112z" />
    <glyph glyph-name="uniFE92FBFD" unicode="&#xfe92;&#xfbfd;" horiz-adv-x="955" 
d="M744 -1q0 -109 -104 -176t-262 -67q-172 0 -255.5 70.5t-83.5 213.5q0 60 15 138h118q-13 -67 -13 -112q0 -85 57.5 -126t178.5 -41q103 0 171 23t68 59q0 40 -95 52l-112 16q-73 10 -109.5 47.5t-36.5 96.5q0 98 94 177t207 79q89 0 145 -44t104 -147l26 -54
q18 -39 37.5 -52t60.5 -13v-111l-29 -28q-64 0 -102 27t-75 111l-23 50q-30 68 -70.5 95t-107.5 27q-64 0 -111.5 -25t-47.5 -59q0 -19 16.5 -29.5t55.5 -16.5l118 -17q90 -12 127.5 -52t37.5 -112zM867 -267q0 -28 -19 -47t-47 -19t-47 19t-19 47t19 47t47 19t47 -19
t19 -47z" />
    <glyph glyph-name="uniFE98FBFD" unicode="&#xfe98;&#xfbfd;" horiz-adv-x="955" 
d="M727 575q0 -28 -19 -47t-47 -19t-47 19t-19 47t19 47t47 19t47 -19t19 -47zM569 575q0 -28 -19 -47t-47 -19t-47.5 19t-19.5 47t19.5 47t47.5 19t47 -19t19 -47zM744 -1q0 -109 -104 -176t-262 -67q-172 0 -255.5 70.5t-83.5 213.5q0 60 15 138h118q-13 -67 -13 -112
q0 -85 57.5 -126t178.5 -41q103 0 171 23t68 59q0 40 -95 52l-112 16q-73 10 -109.5 47.5t-36.5 96.5q0 98 94 177t207 79q89 0 145 -44t104 -147l26 -54q18 -39 37.5 -52t60.5 -13v-111l-29 -28q-64 0 -102 27t-75 111l-23 50q-30 68 -70.5 95t-107.5 27q-64 0 -111.5 -25
t-47.5 -59q0 -19 16.5 -29.5t55.5 -16.5l118 -17q90 -12 127.5 -52t37.5 -112z" />
    <glyph glyph-name="uniFE9CFBFD" unicode="&#xfe9c;&#xfbfd;" horiz-adv-x="955" 
d="M641 697q0 -25 -17 -41.5t-42 -16.5t-42 16.5t-17 41.5t17 42t42 17t42 -17t17 -42zM569 568q0 -25 -17 -42t-42 -17t-42 17t-17 42t17 41.5t42 16.5t42 -16.5t17 -41.5zM712 568q0 -25 -16.5 -42t-41.5 -17t-42 17t-17 42t17 41.5t42 16.5t41.5 -16.5t16.5 -41.5z
M744 -1q0 -109 -104 -176t-262 -67q-172 0 -255.5 70.5t-83.5 213.5q0 60 15 138h118q-13 -67 -13 -112q0 -85 57.5 -126t178.5 -41q103 0 171 23t68 59q0 40 -95 52l-112 16q-73 10 -109.5 47.5t-36.5 96.5q0 98 94 177t207 79q89 0 145 -44t104 -147l26 -54
q18 -39 37.5 -52t60.5 -13v-111l-29 -28q-64 0 -102 27t-75 111l-23 50q-30 68 -70.5 95t-107.5 27q-64 0 -111.5 -25t-47.5 -59q0 -19 16.5 -29.5t55.5 -16.5l118 -17q90 -12 127.5 -52t37.5 -112z" />
    <glyph glyph-name="uniFEA0FBFD" unicode="&#xfea0;&#xfbfd;" horiz-adv-x="1092" 
d="M747 -27q0 -96 -98.5 -156.5t-261.5 -60.5q-348 0 -348 276q0 59 16 146h118q-14 -77 -14 -116q0 -163 236 -163q117 0 181.5 21t64.5 59q0 21 -22 37t-71 16h-75v119l203 66q89 29 152 44q-25 6 -54 16l-90 31q-57 19 -83 19q-44 0 -52 -45h-108q3 86 45.5 135t115.5 49
q46 0 128 -30l133 -44q63 -24 98 -32.5t78 -8.5h30l-1 -127h-17q-23 0 -63 -7v-12q0 -35 23.5 -50.5t80.5 -15.5v-109l-28 -30q-86 0 -129.5 48.5t-43.5 140.5q-20 -7 -151 -59l-90 -35q48 -14 72.5 -48t24.5 -74zM959 -88q0 -28 -19 -47t-47 -19t-47 19t-19 47t19 47t47 19
t47 -19t19 -47z" />
    <glyph glyph-name="uniFEA4FBFD" unicode="&#xfea4;&#xfbfd;" horiz-adv-x="1092" 
d="M747 -27q0 -96 -98.5 -156.5t-261.5 -60.5q-348 0 -348 276q0 59 16 146h118q-14 -77 -14 -116q0 -163 236 -163q117 0 181.5 21t64.5 59q0 21 -22 37t-71 16h-75v119l203 66q89 29 152 44q-25 6 -54 16l-90 31q-57 19 -83 19q-44 0 -52 -45h-108q3 86 45.5 135t115.5 49
q46 0 128 -30l133 -44q63 -24 98 -32.5t78 -8.5h30l-1 -127h-17q-23 0 -63 -7v-12q0 -35 23.5 -50.5t80.5 -15.5v-109l-28 -30q-86 0 -129.5 48.5t-43.5 140.5q-20 -7 -151 -59l-90 -35q48 -14 72.5 -48t24.5 -74z" />
    <glyph glyph-name="uniFEA8FBFD" unicode="&#xfea8;&#xfbfd;" horiz-adv-x="1092" 
d="M714 583q0 -28 -19 -46.5t-47 -18.5t-47.5 18.5t-19.5 46.5t19.5 47.5t47.5 19.5t47 -19.5t19 -47.5zM747 -27q0 -96 -98.5 -156.5t-261.5 -60.5q-348 0 -348 276q0 59 16 146h118q-14 -77 -14 -116q0 -163 236 -163q117 0 181.5 21t64.5 59q0 21 -22 37t-71 16h-75v119
l203 66q89 29 152 44q-25 6 -54 16l-90 31q-57 19 -83 19q-44 0 -52 -45h-108q3 86 45.5 135t115.5 49q46 0 128 -30l133 -44q63 -24 98 -32.5t78 -8.5h30l-1 -127h-17q-23 0 -63 -7v-12q0 -35 23.5 -50.5t80.5 -15.5v-109l-28 -30q-86 0 -129.5 48.5t-43.5 140.5
q-20 -7 -151 -59l-90 -35q48 -14 72.5 -48t24.5 -74z" />
    <glyph glyph-name="uniFEB4FBFD" unicode="&#xfeb4;&#xfbfd;" horiz-adv-x="1482" 
d="M710 -8q0 -103 -99 -169.5t-243 -66.5q-162 0 -245.5 72t-83.5 212q0 60 15 138h118q-13 -67 -13 -112q0 -80 58.5 -123.5t159.5 -43.5q92 0 155 20t63 55q0 27 -71 41l-86 18q-67 12 -97 44t-30 85q0 92 87.5 170.5t184.5 78.5q71 0 119.5 -34t92.5 -119l27 -54
q19 -38 41 -55.5t57 -17.5q90 0 90 117v37h120v-51q0 -103 65 -103q71 0 71 103v86h121v-86q0 -50 23 -72.5t72 -22.5v-111l-29 -28q-64 0 -105 29.5t-52 81.5q-9 -57 -43 -89.5t-85 -32.5q-49 0 -83.5 27.5t-45.5 77.5q-20 -105 -137 -105q-67 0 -108.5 36.5t-80.5 112.5
l-25 50q-43 90 -134 90q-49 0 -93 -26t-44 -58q0 -27 47 -37l100 -22q78 -14 112 -49t34 -94z" />
    <glyph glyph-name="uniFEB8FBFD" unicode="&#xfeb8;&#xfbfd;" horiz-adv-x="1518" 
d="M1162 545q0 -25 -16.5 -42t-41.5 -17t-42 17t-17 42t17 42t42 17t41.5 -17t16.5 -42zM1090 415q0 -25 -16.5 -41.5t-41.5 -16.5t-42 16.5t-17 41.5t17 42t42 17t41.5 -17t16.5 -42zM1234 415q0 -25 -17 -41.5t-42 -16.5t-42 16.5t-17 41.5t17 42t42 17t42 -17t17 -42z
M830 264l26 -54q21 -47 41 -63t59 -16q90 0 90 117v37h120v-51q0 -51 18 -77t47 -26q72 0 72 103v86h120v-86q0 -50 23 -72.5t72 -22.5v-111l-28 -28q-65 0 -106 29.5t-52 81.5q-9 -58 -43 -90t-85 -32q-49 0 -83.5 28.5t-44.5 78.5q-20 -107 -138 -107q-69 0 -110 32
q-40 31 -81 123l-22 50q-30 63 -70.5 89.5t-106.5 26.5q-64 0 -111.5 -25t-47.5 -59q0 -19 16 -29t56 -17l118 -17q90 -12 127.5 -52t37.5 -112q0 -109 -104 -176t-262 -67q-172 0 -255.5 70.5t-83.5 213.5q0 60 15 138h118q-13 -67 -13 -112q0 -85 57.5 -126t178.5 -41
q103 0 171 23t68 59q0 40 -95 52l-112 16q-73 10 -109.5 47.5t-36.5 96.5q0 98 94 177t207 79q90 0 145 -43q57 -45 103 -142z" />
    <glyph glyph-name="uniFEBCFBFD" unicode="&#xfebc;&#xfbfd;" horiz-adv-x="1520" 
d="M744 -1q0 -109 -104 -176t-262 -67q-172 0 -255.5 70.5t-83.5 213.5q0 60 15 138h118q-13 -67 -13 -112q0 -85 57.5 -126t178.5 -41q103 0 171 23t68 59q0 40 -95 52l-112 16q-73 10 -109.5 47.5t-36.5 96.5q0 98 94 177t207 79q85 0 135 -41.5t106 -143.5l29 -54
q5 -12 14 -24q68 129 160 200t198 71q101 0 161.5 -64t60.5 -156q0 -45 -14 -84q33 -14 88 -14v-109l-28 -30q-87 0 -133 58q-97 -69 -297 -69q-141 0 -204 31t-111 124l-26 50q-33 64 -70.5 90t-102.5 26q-64 0 -111.5 -25t-47.5 -59q0 -19 16 -29t56 -17l118 -17
q90 -12 127.5 -52t37.5 -112zM1219 318q-156 0 -279 -177q48 -11 151 -11q134 0 195 25t61 79q0 33 -34.5 58.5t-93.5 25.5z" />
    <glyph glyph-name="uniFEC0FBFD" unicode="&#xfec0;&#xfbfd;" horiz-adv-x="1520" 
d="M1258 583q0 -28 -18.5 -46.5t-46.5 -18.5t-47.5 18.5t-19.5 46.5t19.5 47.5t47.5 19.5t46.5 -19.5t18.5 -47.5zM744 -1q0 -109 -104 -176t-262 -67q-172 0 -255.5 70.5t-83.5 213.5q0 60 15 138h118q-13 -67 -13 -112q0 -85 57.5 -126t178.5 -41q103 0 171 23t68 59
q0 40 -95 52l-112 16q-73 10 -109.5 47.5t-36.5 96.5q0 98 94 177t207 79q85 0 135 -41.5t106 -143.5l29 -54q5 -12 14 -24q68 129 160 200t198 71q101 0 161.5 -64t60.5 -156q0 -45 -14 -84q33 -14 88 -14v-109l-28 -30q-87 0 -133 58q-97 -69 -297 -69q-141 0 -204 31
t-111 124l-26 50q-33 64 -70.5 90t-102.5 26q-64 0 -111.5 -25t-47.5 -59q0 -19 16 -29t56 -17l118 -17q90 -12 127.5 -52t37.5 -112zM1219 318q-156 0 -279 -177q48 -11 151 -11q134 0 195 25t61 79q0 33 -34.5 58.5t-93.5 25.5z" />
    <glyph glyph-name="uniFECCFBFD" unicode="&#xfecc;&#xfbfd;" horiz-adv-x="1139" 
d="M748 -60q0 -78 -98 -131t-269 -53q-342 0 -342 284q0 65 17 138h118q-13 -67 -13 -112q0 -167 228 -167q252 0 252 67q0 47 -112 47h-10v126h184q-31 31 -74 91l-37 49v131q131 35 250 35q123 0 179.5 -35.5t57.5 -115.5q1 -82 -84 -155q12 -1 37 -1l107 1v-111l-28 -28
h-24q-165 0 -263 49q-57 -19 -121 -26q45 -31 45 -83zM842 314q-78 0 -149 -12q43 -61 81 -94.5t85 -48.5q61 15 94 42t32 58q-1 29 -35.5 42t-107.5 13z" />
    <glyph glyph-name="uniFED0FBFD" unicode="&#xfed0;&#xfbfd;" horiz-adv-x="1139" 
d="M902 571q0 -28 -18.5 -47t-46.5 -19t-47.5 19t-19.5 47t19.5 47.5t47.5 19.5t46.5 -19.5t18.5 -47.5zM748 -60q0 -78 -98 -131t-269 -53q-342 0 -342 284q0 65 17 138h118q-13 -67 -13 -112q0 -167 228 -167q252 0 252 67q0 47 -112 47h-10v126h184q-31 31 -74 91l-37 49
v131q131 35 250 35q123 0 179.5 -35.5t57.5 -115.5q1 -82 -84 -155q12 -1 37 -1l107 1v-111l-28 -28h-24q-165 0 -263 49q-57 -19 -121 -26q45 -31 45 -83zM842 314q-78 0 -149 -12q43 -61 81 -94.5t85 -48.5q61 15 94 42t32 58q-1 29 -35.5 42t-107.5 13z" />
    <glyph glyph-name="uniFEE0FBFD" unicode="&#xfee0;&#xfbfd;" horiz-adv-x="953" 
d="M727 -48q0 -84 -89.5 -140t-245.5 -56q-353 0 -353 284q0 65 17 138h118q-13 -67 -13 -112q0 -167 244 -167q100 0 158 20.5t58 56.5q0 21 -25.5 37.5t-72.5 16.5h-111v139h216q104 0 104 107v484h127v-514q0 -64 20 -85.5t74 -21.5v-111l-28 -28q-161 0 -171 138
q-20 -62 -85 -86q58 -33 58 -100z" />
    <glyph glyph-name="uniFEE8FBFD" unicode="&#xfee8;&#xfbfd;" horiz-adv-x="955" 
d="M645 575q0 -28 -18.5 -47t-46.5 -19t-47.5 19t-19.5 47t19.5 47t47.5 19t46.5 -19t18.5 -47zM744 -1q0 -109 -104 -176t-262 -67q-172 0 -255.5 70.5t-83.5 213.5q0 60 15 138h118q-13 -67 -13 -112q0 -85 57.5 -126t178.5 -41q103 0 171 23t68 59q0 40 -95 52l-112 16
q-73 10 -109.5 47.5t-36.5 96.5q0 98 94 177t207 79q89 0 145 -44t104 -147l26 -54q18 -39 37.5 -52t60.5 -13v-111l-29 -28q-64 0 -102 27t-75 111l-23 50q-30 68 -70.5 95t-107.5 27q-64 0 -111.5 -25t-47.5 -59q0 -19 16.5 -29.5t55.5 -16.5l118 -17q90 -12 127.5 -52
t37.5 -112z" />
    <glyph glyph-name="uniFEF4FBFD" unicode="&#xfef4;&#xfbfd;" horiz-adv-x="955" 
d="M744 -1q0 -109 -104 -176t-262 -67q-172 0 -255.5 70.5t-83.5 213.5q0 60 15 138h118q-13 -67 -13 -112q0 -85 57.5 -126t178.5 -41q103 0 171 23t68 59q0 40 -95 52l-112 16q-73 10 -109.5 47.5t-36.5 96.5q0 98 94 177t207 79q89 0 145 -44t104 -147l26 -54
q18 -39 37.5 -52t60.5 -13v-111l-29 -28q-64 0 -102 27t-75 111l-23 50q-30 68 -70.5 95t-107.5 27q-64 0 -111.5 -25t-47.5 -59q0 -19 16.5 -29.5t55.5 -16.5l118 -17q90 -12 127.5 -52t37.5 -112zM948 -267q0 -28 -19 -47t-47 -19t-47 19t-19 47t19 47t47 19t47 -19
t19 -47zM790 -267q0 -28 -19 -47t-47 -19t-47 19t-19 47t19 47t47 19t47 -19t19 -47z" />
    <glyph glyph-name="uniFB59FBFD" unicode="&#xfb59;&#xfbfd;" horiz-adv-x="955" 
d="M744 -1q0 -109 -104 -176t-262 -67q-172 0 -255.5 70.5t-83.5 213.5q0 60 15 138h118q-13 -67 -13 -112q0 -85 57.5 -126t178.5 -41q103 0 171 23t68 59q0 40 -95 52l-112 16q-73 10 -109.5 47.5t-36.5 96.5q0 98 94 177t207 79q89 0 145 -44t104 -147l26 -54
q18 -39 37.5 -52t60.5 -13v-111l-29 -28q-64 0 -102 27t-75 111l-23 50q-30 68 -70.5 95t-107.5 27q-64 0 -111.5 -25t-47.5 -59q0 -19 16.5 -29.5t55.5 -16.5l118 -17q90 -12 127.5 -52t37.5 -112zM933 -257q0 -25 -17 -42t-42 -17t-42 17t-17 42t17 42t42 17t42 -17
t17 -42zM789 -257q0 -25 -17 -42t-42 -17t-41.5 17t-16.5 42t16.5 42t41.5 17t42 -17t17 -42zM861 -387q0 -25 -17 -42t-42 -17t-42 17t-17 42t17 42t42 17t42 -17t17 -42z" />
    <glyph glyph-name="uniFB91FBFD" unicode="&#xfb91;&#xfbfd;" horiz-adv-x="974" 
d="M728 -41q0 -87 -94 -145t-241 -58q-177 0 -263.5 71t-89.5 213q-1 60 17 138h118q-13 -67 -13 -112q0 -167 244 -167q101 0 158.5 21t57.5 59q0 51 -89 51h-111v139h185q75 0 75 46q0 23 -33 72l-98 148v114l445 246l-1 -135l-320 -178l152 -223q49 -70 77 -95t71 -25
v-111l-28 -28q-51 0 -91 27q-38 26 -88 96l-20 30q-8 -69 -73 -96q53 -34 53 -98z" />
    <glyph glyph-name="uniFB95FBFD" unicode="&#xfb95;&#xfbfd;" horiz-adv-x="994" 
d="M1016 955l-1 -92l-444 -246v93zM748 -41q0 -87 -99.5 -145t-255.5 -58q-177 0 -263.5 71t-89.5 213q-1 60 17 138h118q-13 -67 -13 -112q0 -167 244 -167q111 0 173.5 21t62.5 59q0 51 -89 51h-111v139h185q75 0 75 46q0 23 -33 72l-98 148v114l445 246l-1 -135
l-320 -178l152 -223q49 -70 77 -95t71 -25v-111l-28 -28q-51 0 -91 27q-38 26 -88 96l-20 30q-8 -69 -73 -96q53 -34 53 -98z" />
    <glyph glyph-name="uniFE8CFBFD" unicode="&#xfe8c;&#xfbfd;" horiz-adv-x="955" 
d="M690 605v-77l-222 -32v77l40 6q-25 23 -25 61q1 42 29.5 70t71.5 28q39 0 62.5 -24t27.5 -67l-52 -6q-12 21 -40 21q-39 0 -39 -30q0 -19 21.5 -31t51.5 -7zM744 -1q0 -109 -104 -176t-262 -67q-172 0 -255.5 70.5t-83.5 213.5q0 60 15 138h118q-13 -67 -13 -112
q0 -85 57.5 -126t178.5 -41q103 0 171 23t68 59q0 40 -95 52l-112 16q-73 10 -109.5 47.5t-36.5 96.5q0 98 94 177t207 79q89 0 145 -44t104 -147l26 -54q18 -39 37.5 -52t60.5 -13v-111l-29 -28q-64 0 -102 27t-75 111l-23 50q-30 68 -70.5 95t-107.5 27q-64 0 -111.5 -25
t-47.5 -59q0 -19 16.5 -29.5t55.5 -16.5l118 -17q90 -12 127.5 -52t37.5 -112z" />
    <glyph glyph-name="uniFEB4FEB0" unicode="&#xfeb4;&#xfeb0;" horiz-adv-x="1176" 
d="M224 461q0 -28 -19 -46.5t-47 -18.5t-47 18.5t-19 46.5t19 47.5t47 19.5t47 -19.5t19 -47.5zM269 93q0 -170 -61 -251t-190 -81q-50 0 -90 6v140q46 -8 86 -8q72 0 104 45.5t32 144.5q0 50 -8 116l-14 115l383 35l14 -126q6 -55 23 -76.5t56 -21.5q40 0 58.5 25t18.5 78
v51h121v-51q0 -103 70 -103q78 0 78 103v86h120v-86q0 -50 25.5 -72.5t80.5 -22.5v-111l-28 -28q-69 0 -112.5 29t-55.5 81q-17 -121 -135 -121q-53 0 -88.5 27.5t-45.5 76.5q-17 -104 -131 -104q-84 0 -121 48q-37 49 -52 168l-143 -13q5 -58 5 -99z" />
    <glyph glyph-name="uniFEB8FEB0" unicode="&#xfeb8;&#xfeb0;" horiz-adv-x="1176" 
d="M799 533q0 -25 -16.5 -41.5t-41.5 -16.5t-42 16.5t-17 41.5t17 42t42 17t41.5 -17t16.5 -42zM224 461q0 -28 -19 -46.5t-47 -18.5t-47 18.5t-19 46.5t19 47.5t47 19.5t47 -19.5t19 -47.5zM727 404q0 -25 -16.5 -42t-41.5 -17t-42 17t-17 42t17 42t42 17t41.5 -17
t16.5 -42zM870 404q0 -25 -16.5 -42t-41.5 -17t-42 17t-17 42t17 42t42 17t41.5 -17t16.5 -42zM269 93q0 -170 -61 -251t-190 -81q-50 0 -90 6v140q46 -8 86 -8q72 0 104 45.5t32 144.5q0 50 -8 116l-14 115l383 35l14 -126q6 -55 23 -76.5t56 -21.5q40 0 58.5 25t18.5 78
v51h121v-51q0 -103 70 -103q78 0 78 103v86h120v-86q0 -50 25.5 -72.5t80.5 -22.5v-111l-28 -28q-69 0 -112.5 29t-55.5 81q-17 -121 -135 -121q-53 0 -88.5 27.5t-45.5 76.5q-17 -104 -131 -104q-84 0 -121 48q-37 49 -52 168l-143 -13q5 -58 5 -99z" />
    <glyph glyph-name="uniFEBCFEB0" unicode="&#xfebc;&#xfeb0;" horiz-adv-x="1249" 
d="M226 496q0 -28 -19 -46.5t-47 -18.5t-47 18.5t-19 46.5t19 47.5t47 19.5t47 -19.5t19 -47.5zM269 93q0 -170 -61 -251t-190 -81q-50 0 -90 6v140q46 -8 86 -8q72 0 104 45.5t32 144.5q0 50 -8 116l-18 150l383 35l18 -161q5 -49 22 -69q73 142 170.5 219.5t210.5 77.5
q101 0 162 -64t61 -156q0 -40 -10 -70q34 -28 108 -28v-109l-28 -30q-98 0 -145 75q-104 -86 -373 -86q-159 0 -222.5 51.5t-77.5 195.5l-1 5l-142 -13l1 -10q8 -90 8 -125zM924 318q-166 0 -298 -187q72 -3 91 -3q181 0 257.5 26t76.5 80q0 33 -34 58.5t-93 25.5z" />
    <glyph glyph-name="uniFEC0FEB0" unicode="&#xfec0;&#xfeb0;" horiz-adv-x="1249" 
d="M970 583q0 -28 -19 -46.5t-47 -18.5t-47 18.5t-19 46.5t19 47.5t47 19.5t47 -19.5t19 -47.5zM226 496q0 -28 -19 -46.5t-47 -18.5t-47 18.5t-19 46.5t19 47.5t47 19.5t47 -19.5t19 -47.5zM269 93q0 -170 -61 -251t-190 -81q-50 0 -90 6v140q46 -8 86 -8q72 0 104 45.5
t32 144.5q0 50 -8 116l-18 150l383 35l18 -161q5 -49 22 -69q73 142 170.5 219.5t210.5 77.5q101 0 162 -64t61 -156q0 -40 -10 -70q34 -28 108 -28v-109l-28 -30q-98 0 -145 75q-104 -86 -373 -86q-159 0 -222.5 51.5t-77.5 195.5l-1 5l-142 -13l1 -10q8 -90 8 -125z
M924 318q-166 0 -298 -187q72 -3 91 -3q181 0 257.5 26t76.5 80q0 33 -34 58.5t-93 25.5z" />
    <glyph glyph-name="uniFB59FEB0" unicode="&#xfb59;&#xfeb0;" horiz-adv-x="633" 
d="M224 496q0 -28 -19 -46.5t-47 -18.5t-47 18.5t-19 46.5t19 47.5t47 19.5t47 -19.5t19 -47.5zM269 93q0 -170 -61 -251t-190 -81q-50 0 -90 6v140q46 -8 86 -8q72 0 104 45.5t32 144.5q0 50 -8 116l-18 150l383 35l18 -161q6 -54 28 -72q23 -18 80 -18v-111l-28 -28
q-101 0 -145 51q-44 53 -57 185l-1 5l-142 -13l1 -10q8 -90 8 -125zM587 -122q0 -25 -17 -42t-42 -17t-41.5 17t-16.5 42t16.5 42t41.5 17t42 -17t17 -42zM444 -122q0 -25 -17 -42t-42 -17t-42 17t-17 42t17 42t42 17t42 -17t17 -42zM515 -251q0 -25 -17 -42t-42 -17
t-41.5 17t-16.5 42t16.5 41.5t41.5 16.5t42 -16.5t17 -41.5z" />
    <glyph glyph-name="uniFBFFFEB0" unicode="&#xfbff;&#xfeb0;" horiz-adv-x="633" 
d="M224 496q0 -28 -19 -46.5t-47 -18.5t-47 18.5t-19 46.5t19 47.5t47 19.5t47 -19.5t19 -47.5zM269 93q0 -170 -61 -251t-190 -81q-50 0 -90 6v140q46 -8 86 -8q72 0 104 45.5t32 144.5q0 50 -8 116l-18 150l383 35l18 -161q6 -54 28 -72q23 -18 80 -18v-111l-28 -28
q-101 0 -145 51q-44 53 -57 185l-1 5l-142 -13l1 -10q8 -90 8 -125zM587 -121q0 -25 -17 -41.5t-42 -16.5t-42 16.5t-17 41.5t17 42t42 17t42 -17t17 -42zM445 -121q0 -25 -16.5 -41.5t-41.5 -16.5t-42 16.5t-17 41.5t17 42t42 17t41.5 -17t16.5 -42z" />
    <glyph glyph-name="uni066E.init" unicode="&#x66e;" horiz-adv-x="260" 
d="M9 0h-37v112l28 27q55 0 76.5 25.5t21.5 85.5q0 53 -15 175h122q14 -110 14 -191q0 -115 -53 -174.5t-157 -59.5z" />
    <glyph glyph-name="uni066E.medi" unicode="&#x66e;" horiz-adv-x="312" 
d="M312 139v-111l-28 -28q-141 0 -164 112q-20 -112 -148 -112v112l28 27q53 0 74.5 24.5t21.5 82.5v109h120v-109q0 -64 20.5 -85.5t75.5 -21.5z" />
    <glyph glyph-name="uni066E.fina" unicode="&#x66e;" horiz-adv-x="943" 
d="M943 28l-28 -28q-140 0 -163 110q-44 -121 -327 -121q-202 0 -293 63t-91 202q0 73 17 136h119q-15 -68 -15 -109q0 -80 64 -114.5t212 -34.5q119 0 179 10t85 33.5t25 70.5v109h120v-109q0 -64 20.5 -85.5t75.5 -21.5v-111z" />
    <glyph glyph-name="uni066F.fina" unicode="&#x66f;" horiz-adv-x="750" 
d="M750 28l-29 -28h-15q-19 -126 -99.5 -187t-227.5 -61q-340 0 -340 311q0 75 17 151h119q-16 -71 -16 -136q1 -95 57 -141t179 -46q102 0 152.5 25t65.5 84h-118q-101 0 -157 51.5t-56 141.5q0 96 63 168.5t151 72.5q90 0 146.5 -77.5t66.5 -217.5h41v-111zM487 139h128
q-12 78 -49.5 120.5t-94.5 42.5q-41 0 -67 -28t-26 -66q0 -69 109 -69z" />
    <glyph glyph-name="uni06A1.init" unicode="&#x6a1;" horiz-adv-x="493" 
d="M180 0h-208v112l28 27h186q91 0 127 12q37 13 44 65q-48 -18 -136 -18q-93 0 -147 46.5t-54 127.5q0 91 61.5 160t144.5 69q100 0 162.5 -90.5t62.5 -240.5q0 -153 -61 -211q-62 -59 -210 -59zM115 379q0 -67 110 -67q73 0 130 10q-12 68 -52 107t-92 39
q-43 0 -69.5 -25.5t-26.5 -63.5z" />
    <glyph glyph-name="uni06A1.medi" unicode="&#x6a1;" horiz-adv-x="500" 
d="M36 0h-64v112l28 27h82q-46 59 -46 128q0 94 64 159.5t153 65.5t149 -65.5t60 -155.5q0 -71 -52 -132h90v-111l-28 -28h-29q-111 0 -201 33q-96 -33 -206 -33zM135 264q0 -37 33 -64.5t93 -42.5q102 28 102 101q0 39 -33 67.5t-84 27.5q-49 0 -80 -26t-31 -63z" />
    <glyph glyph-name="uni06A1.fina" unicode="&#x6a1;" horiz-adv-x="950" 
d="M903 265q0 -65 -47 -123q87 -3 95 -3v-111l-29 -28q-131 0 -233 33q-118 -44 -263 -44q-196 0 -290.5 61t-93.5 201q0 64 20 139h119q-18 -66 -18 -111q-1 -84 61 -115.5t202 -31.5q11 0 98 3q-47 60 -47 131q0 90 63.5 158t150.5 68q91 0 151.5 -67t60.5 -160zM576 264
q0 -69 121 -101q51 16 79 41.5t28 56.5q0 35 -33 63q-34 29 -84 29q-47 0 -79 -27t-32 -62z" />
    <glyph glyph-name="uni06C2.fina" unicode="&#x6c2;" horiz-adv-x="540" 
d="M381 723v-77l-222 -31v76l40 6q-25 23 -25 61q0 42 28.5 70t71.5 28q39 0 63 -24t28 -66l-52 -7q-13 21 -40 21q-39 0 -39 -30q0 -19 21.5 -30.5t51.5 -7.5zM540 139v-111l-29 -28q-78 0 -116.5 29t-49.5 95q-35 -100 -152 -100q-82 0 -128 47t-46 130q0 140 163 209
l151 66v91h127v-337q0 -50 18.5 -70.5t61.5 -20.5zM119 222q0 -59 89 -59q125 0 125 96v111l-124 -54q-48 -22 -69 -43.5t-21 -50.5z" />
    <glyph glyph-name="uni06C3.fina" unicode="&#x6c3;" horiz-adv-x="673" 
d="M482 508q0 -28 -19 -46.5t-47 -18.5t-47.5 18.5t-19.5 46.5t19.5 47.5t47.5 19.5t47 -19.5t19 -47.5zM324 508q0 -28 -19 -46.5t-47 -18.5t-47.5 18.5t-19.5 46.5t19.5 47.5t47.5 19.5t47 -19.5t19 -47.5zM673 139v-111l-29 -28q-107 0 -155 30.5t-74 119.5l-13 38
q-9 31 -23 43.5t-41 12.5q-88 0 -308 -124v126q227 136 332 136q60 0 92 -27q33 -28 55 -102l14 -41q13 -46 37 -60q22 -13 84 -13h29z" />
    <glyph glyph-name="uni06CC.init" unicode="&#x6cc;" horiz-adv-x="260" arabic-form="initial" 
d="M9 0h-37v112l28 27q55 0 76.5 25.5t21.5 85.5q0 53 -15 175h122q14 -110 14 -191q0 -115 -53 -174.5t-157 -59.5zM256 -139q0 -25 -17 -42t-42 -17t-42 17t-17 42t17 42t42 17t42 -17t17 -42zM112 -139q0 -25 -16.5 -42t-41.5 -17t-42 17t-17 42t17 42t42 17t41.5 -17
t16.5 -42z" />
    <glyph glyph-name="uni06D5.fina" unicode="&#x6d5;" horiz-adv-x="540" 
d="M540 139v-111l-29 -28q-78 0 -116.5 29t-49.5 95q-35 -100 -152 -100q-82 0 -128 47t-46 130q0 140 163 209l151 66v91h127v-337q0 -50 18.5 -70.5t61.5 -20.5zM119 222q0 -59 89 -59q125 0 125 96v111l-124 -54q-48 -22 -69 -43.5t-21 -50.5z" />
    <glyph glyph-name="uniFB51" unicode="&#x671;" horiz-adv-x="284" arabic-form="final" 
d="M17 630h-58q0 52 23.5 80t66.5 28h3q51 116 132 116q44 0 69 -26.5t25 -73.5q0 -52 -26.5 -79.5t-76.5 -27.5q-24 0 -64 8t-62 8q-32 0 -32 -33zM177 779q-45 0 -71 -47q48 -10 68 -10q47 0 47 27q0 30 -44 30zM284 139v-111l-28 -28q-103 0 -148 56t-45 184v364h127
v-364q0 -54 22.5 -77.5t71.5 -23.5z" />
    <glyph glyph-name="uniFB57" unicode="&#x67e;" horiz-adv-x="943" arabic-form="final" 
d="M943 28l-28 -28q-140 0 -163 110q-44 -121 -327 -121q-202 0 -293 63t-91 202q0 73 17 136h119q-15 -68 -15 -109q0 -80 64 -114.5t212 -34.5q119 0 179 10t85 33.5t25 70.5v109h120v-109q0 -64 20.5 -85.5t75.5 -21.5v-111zM577 -128q0 -25 -17 -42t-42 -17t-42 17
t-17 42t17 42t42 17t42 -17t17 -42zM433 -128q0 -25 -17 -42t-42 -17t-41.5 17t-16.5 42t16.5 42t41.5 17t42 -17t17 -42zM505 -257q0 -25 -17 -42t-42 -17t-42 17t-17 42t17 41.5t42 16.5t42 -16.5t17 -41.5z" />
    <glyph glyph-name="uniFB58" unicode="&#x67e;" horiz-adv-x="260" arabic-form="initial" 
d="M9 0h-37v112l28 27q55 0 76.5 25.5t21.5 85.5q0 53 -15 175h122q14 -110 14 -191q0 -115 -53 -174.5t-157 -59.5zM255 -122q0 -25 -17 -42t-42 -17t-41.5 17t-16.5 42t16.5 42t41.5 17t42 -17t17 -42zM112 -122q0 -25 -17 -42t-42 -17t-42 17t-17 42t17 42t42 17t42 -17
t17 -42zM183 -251q0 -25 -17 -42t-42 -17t-41.5 17t-16.5 42t16.5 41.5t41.5 16.5t42 -16.5t17 -41.5z" />
    <glyph glyph-name="uniFB59" unicode="&#x67e;" horiz-adv-x="312" arabic-form="medial" 
d="M312 139v-111l-28 -28q-141 0 -164 112q-20 -112 -148 -112v112l28 27q53 0 74.5 24.5t21.5 82.5v109h120v-109q0 -64 20.5 -85.5t75.5 -21.5zM270 -122q0 -25 -17 -42t-42 -17t-41.5 17t-16.5 42t16.5 42t41.5 17t42 -17t17 -42zM127 -122q0 -25 -17 -42t-42 -17
t-41.5 17t-16.5 42t16.5 42t41.5 17t42 -17t17 -42zM198 -251q0 -25 -17 -42t-42 -17t-41.5 17t-16.5 42t16.5 41.5t41.5 16.5t42 -16.5t17 -41.5z" />
    <glyph glyph-name="uniFB67" unicode="&#x679;" horiz-adv-x="943" arabic-form="final" 
d="M461 397h-169v75h45l11 25v198h59v-117q38 32 83 32q44 0 69.5 -28t25.5 -78q0 -53 -32.5 -80t-91.5 -27zM484 535q-56 0 -88 -63h64q69 0 69 32q0 14 -12.5 22.5t-32.5 8.5zM943 28l-28 -28q-140 0 -163 110q-44 -121 -327 -121q-202 0 -293 63t-91 202q0 73 17 136h119
q-15 -68 -15 -109q0 -80 64 -114.5t212 -34.5q119 0 179 10t85 33.5t25 70.5v109h120v-109q0 -64 20.5 -85.5t75.5 -21.5v-111z" />
    <glyph glyph-name="uniFB68" unicode="&#x679;" horiz-adv-x="260" arabic-form="initial" 
d="M149 494h-169v75h45q4 12 11 26v197h59v-117q38 32 83 32q44 0 69.5 -28t25.5 -78q0 -53 -32.5 -80t-91.5 -27zM172 632q-56 0 -88 -63h64q68 0 68 32q0 31 -44 31zM9 0h-37v112l28 27q55 0 76.5 25.5t21.5 85.5q0 53 -15 175h122q14 -110 14 -191q0 -115 -53 -174.5
t-157 -59.5z" />
    <glyph glyph-name="uniFB69" unicode="&#x679;" horiz-adv-x="312" arabic-form="medial" 
d="M172 424h-168v75h44l12 27v196h59v-116q37 31 82 31q44 0 69.5 -28t25.5 -78q0 -53 -32.5 -80t-91.5 -27zM195 562q-57 0 -88 -63h65q68 0 68 32q0 14 -12.5 22.5t-32.5 8.5zM312 139v-111l-28 -28q-141 0 -164 112q-20 -112 -148 -112v112l28 27q53 0 74.5 24.5
t21.5 82.5v109h120v-109q0 -64 20.5 -85.5t75.5 -21.5z" />
    <glyph glyph-name="uniFB6B" unicode="&#x6a4;" horiz-adv-x="950" arabic-form="final" 
d="M750 741q0 -25 -16.5 -42t-41.5 -17t-42 17t-17 42t17 42t42 17t41.5 -17t16.5 -42zM678 611q0 -25 -16.5 -42t-41.5 -17t-42 17t-17 42t17 42t42 17t41.5 -17t16.5 -42zM822 611q0 -25 -17 -42t-42 -17t-42 17t-17 42t17 42t42 17t42 -17t17 -42zM903 265
q0 -65 -47 -123q87 -3 95 -3v-111l-29 -28q-131 0 -233 33q-118 -44 -263 -44q-196 0 -290.5 61t-93.5 201q0 64 20 139h119q-18 -66 -18 -111q-1 -84 61 -115.5t202 -31.5q11 0 98 3q-47 60 -47 131q0 90 63.5 158t150.5 68q91 0 151.5 -67t60.5 -160zM576 264
q0 -69 121 -101q51 16 79 41.5t28 56.5q0 35 -33 63q-34 29 -84 29q-47 0 -79 -27t-32 -62z" />
    <glyph glyph-name="uniFB6C" unicode="&#x6a4;" horiz-adv-x="493" arabic-form="initial" 
d="M280 850q0 -25 -16.5 -41.5t-41.5 -16.5t-42 16.5t-17 41.5t17 42t42 17t41.5 -17t16.5 -42zM208 721q0 -25 -16.5 -42t-41.5 -17t-42 17t-17 42t17 42t42 17t41.5 -17t16.5 -42zM352 721q0 -25 -17 -42t-42 -17t-42 17t-17 42t17 42t42 17t42 -17t17 -42zM180 0h-208
v112l28 27h186q91 0 127 12q37 13 44 65q-48 -18 -136 -18q-93 0 -147 46.5t-54 127.5q0 91 61.5 160t144.5 69q100 0 162.5 -90.5t62.5 -240.5q0 -153 -61 -211q-62 -59 -210 -59zM115 379q0 -67 110 -67q73 0 130 10q-12 68 -52 107t-92 39q-43 0 -69.5 -25.5t-26.5 -63.5
z" />
    <glyph glyph-name="uniFB6D" unicode="&#x6a4;" horiz-adv-x="500" arabic-form="medial" 
d="M310 741q0 -25 -17 -42t-42 -17t-42 17t-17 42t17 42t42 17t42 -17t17 -42zM238 611q0 -25 -17 -42t-42 -17t-42 17t-17 42t17 42t42 17t42 -17t17 -42zM381 611q0 -25 -16.5 -42t-41.5 -17t-42 17t-17 42t17 42t42 17t41.5 -17t16.5 -42zM36 0h-64v112l28 27h82
q-46 59 -46 128q0 94 64 159.5t153 65.5t149 -65.5t60 -155.5q0 -71 -52 -132h90v-111l-28 -28h-29q-111 0 -201 33q-96 -33 -206 -33zM135 264q0 -37 33 -64.5t93 -42.5q102 28 102 101q0 39 -33 67.5t-84 27.5q-49 0 -80 -26t-31 -63z" />
    <glyph glyph-name="uniFB7B" unicode="&#x686;" horiz-adv-x="662" arabic-form="final" 
d="M662 139v-109l-28 -30q-86 0 -130 49t-44 143v46q-155 -23 -241 -90.5t-86 -154.5q0 -80 61.5 -122.5t175.5 -42.5q137 0 257 50v-146q-121 -52 -265 -52q-164 0 -257 78q-92 78 -92 209q0 134 95 222.5t283 118.5l-33 12l-77 29q-54 19 -87 19q-46 0 -54 -45h-108
q3 87 45.5 135.5t115.5 48.5q58 0 145 -36l110 -46q103 -45 161 -45h19l-1 -132h-20q-33 0 -49 -1v-42q0 -35 23.5 -50.5t80.5 -15.5zM457 65q0 -24 -16.5 -40t-39.5 -16q-24 0 -40 16t-16 40t16 40t40 16q23 0 39.5 -16t16.5 -40zM320 65q0 -24 -16 -40t-40 -16t-40 16
t-16 40t16 40t40 16t40 -16t16 -40zM388 -58q0 -24 -16 -40.5t-40 -16.5t-40 16.5t-16 40.5q0 23 16 39t40 16t40 -16t16 -39z" />
    <glyph glyph-name="uniFB7C" unicode="&#x686;" horiz-adv-x="672" arabic-form="initial" 
d="M73 0h-101v112l28 27h73q142 0 239 49l68 32q4 2 26.5 12t33.5 14q-32 6 -88 25l-84 29q-51 18 -82 18q-46 0 -52 -45h-108q2 87 44.5 135.5t115.5 48.5q41 0 128 -29l133 -45q65 -25 98 -32q38 -8 79 -8h29v-124h-35q-44 0 -82 -16.5t-111 -64.5l-70 -48
q-82 -54 -138.5 -72t-143.5 -18zM469 -122q0 -25 -17 -42t-42 -17t-42 17t-17 42t17 42t42 17t42 -17t17 -42zM326 -122q0 -25 -17 -42t-42 -17t-42 17t-17 42t17 42t42 17t42 -17t17 -42zM397 -251q0 -25 -17 -42t-42 -17t-42 17t-17 42t17 41.5t42 16.5t42 -16.5t17 -41.5
z" />
    <glyph glyph-name="uniFB7D" unicode="&#x686;" horiz-adv-x="676" arabic-form="medial" 
d="M73 0h-101v112l28 27h73q142 0 239 49l68 32q4 2 26.5 12t33.5 14q-32 6 -88 25l-84 29q-51 18 -82 18q-46 0 -52 -45h-108q2 87 44.5 135.5t115.5 48.5q41 0 128 -29l133 -45q65 -25 98 -32q38 -8 79 -8h29v-124h-35q-27 0 -46 -5v-9q0 -35 23.5 -50.5t80.5 -15.5v-109
l-28 -30q-164 0 -172 170l-51 -32l-70 -48q-82 -54 -138.5 -72t-143.5 -18zM469 -122q0 -25 -17 -42t-42 -17t-42 17t-17 42t17 42t42 17t42 -17t17 -42zM326 -122q0 -25 -17 -42t-42 -17t-42 17t-17 42t17 42t42 17t42 -17t17 -42zM397 -251q0 -25 -17 -42t-42 -17t-42 17
t-17 42t17 41.5t42 16.5t42 -16.5t17 -41.5z" />
    <glyph glyph-name="uniFB89" unicode="&#x688;" horiz-adv-x="586" arabic-form="final" 
d="M316 586h-169v76h45q3 9 11 25v198h59v-117q38 32 83 32q44 0 69.5 -28.5t25.5 -78.5q0 -53 -33 -80t-91 -27zM339 724q-57 0 -89 -62h65q68 0 68 31t-44 31zM586 139v-111l-28 -28q-47 0 -78.5 16.5t-57.5 55.5q-96 -84 -213 -84q-100 1 -144 49.5t-44 154.5h112
q1 -34 20 -49.5t68 -15.5q87 0 157 34q-1 2 -14 36l-117 320h143l99 -275q21 -59 39 -82q18 -21 58 -21z" />
    <glyph glyph-name="uniFB8B" unicode="&#x698;" horiz-adv-x="366" arabic-form="final" 
d="M224 603q0 -25 -17 -41.5t-42 -16.5t-42 16.5t-17 41.5t17 42t42 17t42 -17t17 -42zM152 474q0 -25 -17 -42t-42 -17t-42 17t-17 42t17 42t42 17t42 -17t17 -42zM295 474q0 -25 -16.5 -42t-41.5 -17t-42 17t-17 42t17 42t42 17t41.5 -17t16.5 -42zM366 28l-28 -28
q-72 0 -104 49q-7 -141 -62 -214.5t-155 -73.5q-54 0 -89 6v139q51 -7 77 -7q66 0 103.5 50.5t37.5 149.5q0 116 -29 256h124l17 -110q8 -58 33 -82t75 -24v-111z" />
    <glyph glyph-name="uniFB8D" unicode="&#x691;" horiz-adv-x="366" arabic-form="final" 
d="M180 424h-168v75h44l12 27v196h59v-116q37 31 82 31t70 -28t25 -78q0 -53 -32.5 -80t-91.5 -27zM203 562q-57 0 -88 -63h65q68 0 68 32q0 14 -12.5 22.5t-32.5 8.5zM366 28l-28 -28q-72 0 -104 49q-7 -141 -62 -214.5t-155 -73.5q-54 0 -89 6v139q51 -7 77 -7
q66 0 103.5 50.5t37.5 149.5q0 116 -29 256h124l17 -110q8 -58 33 -82t75 -24v-111z" />
    <glyph glyph-name="uniFB8F" unicode="&#x6a9;" horiz-adv-x="896" arabic-form="final" 
d="M896 28l-28 -28q-58 0 -101 27q-41 26 -96 95q-12 -61 -86 -97t-192 -36q-185 0 -271.5 63.5t-86.5 201.5q0 63 16 136h120q-15 -67 -15 -109q0 -80 60 -114.5t198 -34.5q191 0 191 53q0 23 -39 72l-126 166v113l446 246l-1 -137l-317 -175l162 -211q56 -73 88 -96
q34 -24 78 -24v-111z" />
    <glyph glyph-name="uniFB90" unicode="&#x6a9;" horiz-adv-x="479" arabic-form="initial" 
d="M197 0h-225v112l28 27h233q35 0 52 12.5t17 32.5q0 22 -18 42t-69 57l-193 123v118l445 246l-1 -138l-310 -168l102 -72q81 -51 116.5 -99t35.5 -110q0 -85 -55.5 -134t-157.5 -49z" />
    <glyph glyph-name="uniFB91" unicode="&#x6a9;" horiz-adv-x="483" arabic-form="medial" 
d="M99 0h-127v112l28 27h117q75 0 75 46q0 23 -37 70l-132 172v114l446 241v-137l-318 -172l164 -214q56 -73 88 -96q35 -24 80 -24v-111l-29 -28q-61 0 -105.5 27t-90.5 93q-8 -55 -51 -87.5t-108 -32.5z" />
    <glyph glyph-name="uniFB93" unicode="&#x6af;" horiz-adv-x="896" arabic-form="final" 
d="M886 943l-1 -93l-445 -246v93zM896 28l-28 -28q-58 0 -101 27q-41 26 -96 95q-12 -61 -86 -97t-192 -36q-185 0 -271.5 63.5t-86.5 201.5q0 63 16 136h120q-15 -67 -15 -109q0 -80 60 -114.5t198 -34.5q191 0 191 53q0 23 -39 72l-126 166v113l446 246l-1 -137l-317 -175
l162 -211q56 -73 88 -96q34 -24 78 -24v-111z" />
    <glyph glyph-name="uniFB94" unicode="&#x6af;" horiz-adv-x="479" arabic-form="initial" 
d="M467 930l-1 -92l-444 -246v92zM197 0h-225v112l28 27h233q35 0 52 12.5t17 32.5q0 22 -18 42t-69 57l-193 123v118l445 246l-1 -138l-310 -168l102 -72q81 -51 116.5 -99t35.5 -110q0 -85 -55.5 -134t-157.5 -49z" />
    <glyph glyph-name="uniFB95" unicode="&#x6af;" horiz-adv-x="483" arabic-form="medial" 
d="M472 943v-93l-445 -246v93zM99 0h-127v112l28 27h117q75 0 75 46q0 23 -37 70l-132 172v114l446 241v-137l-318 -172l164 -214q56 -73 88 -96q35 -24 80 -24v-111l-29 -28q-61 0 -105.5 27t-90.5 93q-8 -55 -51 -87.5t-108 -32.5z" />
    <glyph glyph-name="uniFB9F" unicode="&#x6ba;" horiz-adv-x="746" arabic-form="final" 
d="M747 28l-28 -28q-72 0 -108 40q-20 -233 -273 -233q-153 0 -226 77.5t-72 219.5q1 60 16 145h118q-12 -64 -14 -114q-1 -93 43 -139t145 -46q99 0 146 36.5t47 113.5q0 45 -13 122l-11 63h121l11 -61q8 -49 28.5 -67t69.5 -18v-111z" />
    <glyph glyph-name="uniFBA7" unicode="&#x6c1;" horiz-adv-x="673" arabic-form="final" 
d="M673 139v-111l-29 -28q-107 0 -155 30.5t-74 119.5l-13 38q-9 31 -23 43.5t-41 12.5q-88 0 -308 -124v126q227 136 332 136q60 0 92 -27q33 -28 55 -102l14 -41q13 -46 37 -60q22 -13 84 -13h29z" />
    <glyph glyph-name="uniFBA8" unicode="&#x6c1;" horiz-adv-x="509" arabic-form="initial" 
d="M468 193q0 -100 -47.5 -152t-134.5 -52q-68 0 -110 29.5t-54 83.5q-20 -102 -150 -102l2 112l26 27q49 0 73 22.5t24 72.5v51h120v-51q0 -53 16.5 -78t53.5 -25q30 0 45 16.5t15 56.5q0 51 -12 116h123q10 -64 10 -127zM339 -273h-125q-8 32 -8 50q0 45 39 126l23 49
l95 -39l-15 -43q-14 -48 -14 -86q0 -32 5 -57z" />
    <glyph glyph-name="uniFBA9" unicode="&#x6c1;" horiz-adv-x="537" arabic-form="medial" 
d="M406 -107v-101l-97 -89l-147 144q-93 91 -66 192q-48 -39 -124 -39v112l28 27q56 0 87 17q31 18 67 61l26 31l83 -69l-27 -35q-43 -56 -40 -105t53 -99l51 -50v40q0 209 237 209v-111l-28 -28q-53 0 -78 -26t-25 -81z" />
    <glyph glyph-name="uniFBAB" unicode="&#x6be;" horiz-adv-x="602" arabic-form="final" 
d="M520 238q0 -53 -32 -99h114v-111l-29 -28h-33q30 -32 30 -84q0 -65 -50 -110t-134 -45q-83 0 -156 62.5t-119 172.5q-65 5 -101 14v136q65 -10 109 -11q77 139 210 258h129q62 -74 62 -155zM424 224q0 42 -60 83q-85 -71 -147 -173q113 3 160 24t47 66zM469 -59
q0 52 -130 86q-54 -22 -126 -30q32 -49 78 -75.5t98 -26.5q38 0 59 13t21 33z" />
    <glyph glyph-name="uniFBAC" unicode="&#x6be;" horiz-adv-x="629" arabic-form="initial" 
d="M602 210q0 -103 -65 -162t-181 -59q-98 0 -174 39q-99 -28 -210 -28v112l28 27q43 0 62 1q-32 56 -32 122q0 56 28.5 102t75.5 68v99l165 -48q167 -49 236 -110q67 -60 67 -163zM129 262q0 -64 75 -102q96 29 96 102q0 36 -25.5 60.5t-63.5 24.5q-36 0 -59 -24.5
t-23 -60.5zM393 262q0 -73 -47 -133q11 -1 35 -1q122 0 122 79q0 35 -26.5 60t-89.5 49q6 -26 6 -54z" />
    <glyph glyph-name="uniFBAD" unicode="&#x6be;" horiz-adv-x="529" arabic-form="medial" 
d="M497 -84q0 -65 -50 -110q-49 -45 -134 -45q-84 0 -157 63t-119 176h-65v112l28 27l48 -1q79 142 208 255h129q62 -74 62 -155q0 -52 -34 -99h116v-111l-29 -28h-33q30 -32 30 -84zM351 224q0 44 -63 85q-84 -76 -141 -170q112 4 158 23.5t46 61.5zM396 -59q0 55 -143 89
q-54 -19 -116 -27q31 -51 78 -79.5t101 -28.5q38 0 59 13t21 33z" />
    <glyph glyph-name="uniFBAF" unicode="&#x6d2;" horiz-adv-x="889" arabic-form="final" 
d="M863 -117v-138q-166 -18 -382 -18q-229 0 -338 43t-109 135q0 98 121.5 166t337.5 68h396v-112l-28 -27h-368q-185 0 -266 -27t-81 -55t78.5 -40.5t256.5 -12.5q220 0 382 18z" />
    <glyph glyph-name="uniFBB1" unicode="&#x6d3;" horiz-adv-x="889" arabic-form="final" 
d="M437 295v-77l-221 -31v77l39 5q-25 25 -24 62q0 41 28.5 69.5t71.5 28.5q39 0 63 -24t27 -67l-51 -7q-13 21 -41 21q-18 0 -28.5 -8t-10.5 -21q0 -20 21.5 -31.5t52.5 -7.5zM863 -117v-138q-166 -18 -382 -18q-229 0 -338 43t-109 135q0 98 121.5 166t337.5 68h396v-112
l-28 -27h-368q-185 0 -266 -27t-81 -55t78.5 -40.5t256.5 -12.5q220 0 382 18z" />
    <glyph glyph-name="uniFBFD" unicode="&#x6cc;" horiz-adv-x="779" arabic-form="final" 
d="M748 -64q0 -74 -98.5 -127t-268.5 -53q-342 0 -342 276q0 73 18 146h118q-15 -73 -15 -118q0 -161 229 -161q127 0 189.5 18t62.5 47q0 45 -96 45h-26v130h260v-111l-29 -28h-28q26 -26 26 -64z" />
    <glyph glyph-name="uniFBFF" unicode="&#x6cc;" horiz-adv-x="312" arabic-form="medial" 
d="M312 139v-111l-28 -28q-141 0 -164 112q-20 -112 -148 -112v112l28 27q53 0 74.5 24.5t21.5 82.5v109h120v-109q0 -64 20.5 -85.5t75.5 -21.5zM271 -139q0 -25 -17 -42t-42 -17t-41.5 17t-16.5 42t16.5 42t41.5 17t42 -17t17 -42zM128 -139q0 -25 -17 -42t-42 -17t-42 17
t-17 42t17 42t42 17t42 -17t17 -42z" />
    <glyph glyph-name="uniFDFC" unicode="&#xfdfc;" horiz-adv-x="1269" arabic-form="isolated" 
d="M667 326v-184q0 -162 -84 -248.5t-238 -86.5q-156 0 -231 72.5t-74 207.5q1 61 16 137h118q-12 -58 -14 -106q-1 -84 42 -126t143 -42q104 0 150.5 44t46.5 148v81q-86 -53 -172 -53q-208 0 -208 209q0 56 13 120h128q-15 -68 -15 -100q0 -86 101 -86q79 0 153 51v417
h125v-307l102 95l21 22v190h125v-87q48 29 101 29q162 0 162 -186h-121q0 55 -53 55q-41 0 -89 -40v-309q0 -59 21.5 -81.5t75.5 -22.5t75 26t21 85q0 41 -15 153h122q14 -101 14 -169q0 -234 -217 -234q-123 0 -173 56q-49 55 -49 187v190zM1006 -121q0 -25 -17 -41.5
t-42 -16.5t-42 16.5t-17 41.5t17 42t42 17t42 -17t17 -42zM1144 -121q0 -25 -17 -41.5t-42 -16.5t-41.5 16.5t-16.5 41.5t16.5 42t41.5 17t42 -17t17 -42z" />
    <glyph glyph-name="uniFE82" unicode="&#x622;" horiz-adv-x="284" arabic-form="final" 
d="M29 629h-59q0 54 23.5 83.5t67.5 29.5q26 0 72 -8.5t70 -8.5q32 0 59 10v-77q-25 -13 -60 -13q-30 0 -74 8.5t-67 8.5q-32 0 -32 -33zM284 139v-111l-28 -28q-103 0 -148 56t-45 184v364h127v-364q0 -54 22.5 -77.5t71.5 -23.5z" />
    <glyph glyph-name="uniFE84" unicode="&#x623;" horiz-adv-x="284" arabic-form="final" 
d="M233 754v-76l-222 -32v77l40 5q-25 25 -25 62q1 42 29.5 70t71.5 28q39 0 62.5 -24t27.5 -67l-52 -7q-11 21 -40 21q-39 0 -39 -29q0 -20 21 -31.5t52 -7.5zM284 139v-111l-28 -28q-103 0 -148 56t-45 184v364h127v-364q0 -54 22.5 -77.5t71.5 -23.5z" />
    <glyph glyph-name="uniFE86" unicode="&#x624;" horiz-adv-x="490" arabic-form="final" 
d="M344 591v-77l-221 -32v77l39 6q-25 24 -24 61q0 42 28.5 70t71.5 28q39 0 63 -24t27 -67l-52 -6q-12 21 -40 21q-39 0 -39 -30q0 -19 22 -31t51 -7zM490 28l-28 -28h-10q-32 -239 -264 -239q-77 0 -146 17v132q72 -19 144 -19q79 0 120 25t54 84h-101q-114 0 -173 51
t-59 141q0 98 62 170.5t153 72.5q89 0 146.5 -77.5t67.5 -218.5h34v-111zM246 139h117q-10 80 -48 122t-98 42q-41 0 -68 -28.5t-27 -65.5t29 -53.5t95 -16.5z" />
    <glyph glyph-name="uniFE88" unicode="&#x625;" horiz-adv-x="279" arabic-form="final" 
d="M279 28l-29 -28h-11q-96 0 -139 52.5t-43 163.5v544h128v-520q0 -57 20 -79t74 -22v-111zM261 -185v-77l-221 -31v76l39 6q-25 24 -24 61q0 42 28.5 70t71.5 28q39 0 63 -24t27 -66l-52 -7q-12 21 -40 21q-39 0 -39 -30q0 -19 22 -31t51 -7z" />
    <glyph glyph-name="uniFE8A" unicode="&#x626;" horiz-adv-x="779" arabic-form="final" 
d="M234 334v-76l-222 -32v77l40 5q-25 25 -24 62q0 42 28.5 70t71.5 28q39 0 63 -24t27 -67l-52 -7q-11 21 -40 21q-39 0 -39 -29q0 -20 21 -31.5t52 -7.5zM748 -64q0 -74 -98.5 -127t-268.5 -53q-342 0 -342 276q0 73 18 146h118q-15 -73 -15 -118q0 -161 229 -161
q127 0 189.5 18t62.5 47q0 45 -96 45h-26v130h260v-111l-29 -28h-28q26 -26 26 -64z" />
    <glyph glyph-name="uniFE8B" unicode="&#x626;" horiz-adv-x="260" arabic-form="initial" 
d="M241 581v-77l-221 -32v77l40 6q-27 23 -25 61q0 42 28.5 70t71.5 28q39 0 63 -24t27 -67l-51 -6q-14 21 -40 21q-40 0 -40 -30q0 -19 22 -31t52 -7zM9 0h-37v112l28 27q55 0 76.5 25.5t21.5 85.5q0 53 -15 175h122q14 -110 14 -191q0 -115 -53 -174.5t-157 -59.5z" />
    <glyph glyph-name="uniFE8C" unicode="&#x626;" horiz-adv-x="312" arabic-form="medial" 
d="M265 511v-77l-222 -32v77l40 6q-25 23 -25 61q1 42 29.5 70t71.5 28q39 0 62.5 -24t27.5 -67l-52 -6q-12 21 -40 21q-39 0 -39 -30q0 -19 21.5 -31t51.5 -7zM312 139v-111l-28 -28q-141 0 -164 112q-20 -112 -148 -112v112l28 27q53 0 74.5 24.5t21.5 82.5v109h120v-109
q0 -64 20.5 -85.5t75.5 -21.5z" />
    <glyph glyph-name="uniFE8E" unicode="&#x627;" horiz-adv-x="279" arabic-form="final" 
d="M279 28l-29 -28h-11q-96 0 -139 52.5t-43 163.5v544h128v-520q0 -57 20 -79t74 -22v-111z" />
    <glyph glyph-name="uniFE90" unicode="&#x628;" horiz-adv-x="943" arabic-form="final" 
d="M943 28l-28 -28q-140 0 -163 110q-44 -121 -327 -121q-202 0 -293 63t-91 202q0 73 17 136h119q-15 -68 -15 -109q0 -80 64 -114.5t212 -34.5q119 0 179 10t85 33.5t25 70.5v109h120v-109q0 -64 20.5 -85.5t75.5 -21.5v-111zM511 -138q0 -28 -19 -47t-47 -19t-47.5 19
t-19.5 47t19.5 47t47.5 19t47 -19t19 -47z" />
    <glyph glyph-name="uniFE91" unicode="&#x628;" horiz-adv-x="260" arabic-form="initial" 
d="M9 0h-37v112l28 27q55 0 76.5 25.5t21.5 85.5q0 53 -15 175h122q14 -110 14 -191q0 -115 -53 -174.5t-157 -59.5zM189 -132q0 -28 -18.5 -47t-46.5 -19t-47.5 19t-19.5 47t19.5 47t47.5 19t46.5 -19t18.5 -47z" />
    <glyph glyph-name="uniFE92" unicode="&#x628;" horiz-adv-x="312" arabic-form="medial" 
d="M312 139v-111l-28 -28q-141 0 -164 112q-20 -112 -148 -112v112l28 27q53 0 74.5 24.5t21.5 82.5v109h120v-109q0 -64 20.5 -85.5t75.5 -21.5zM205 -132q0 -28 -19 -47t-47 -19t-47.5 19t-19.5 47t19.5 47t47.5 19t47 -19t19 -47z" />
    <glyph glyph-name="uniFE94" unicode="&#x629;" horiz-adv-x="540" arabic-form="final" 
d="M418 693q0 -28 -19 -47t-47 -19t-47.5 19t-19.5 47t19.5 47t47.5 19t47 -19t19 -47zM260 693q0 -28 -19 -47t-47 -19t-47.5 19t-19.5 47t19.5 47t47.5 19t47 -19t19 -47zM540 139v-111l-29 -28q-78 0 -116.5 29t-49.5 95q-35 -100 -152 -100q-82 0 -128 47t-46 130
q0 140 163 209l151 66v91h127v-337q0 -50 18.5 -70.5t61.5 -20.5zM119 222q0 -59 89 -59q125 0 125 96v111l-124 -54q-48 -22 -69 -43.5t-21 -50.5z" />
    <glyph glyph-name="uniFE96" unicode="&#x62a;" horiz-adv-x="943" arabic-form="final" 
d="M591 454q0 -28 -19 -47t-47 -19t-47.5 19t-19.5 47t19.5 47t47.5 19t47 -19t19 -47zM433 454q0 -28 -19 -47t-47 -19t-47.5 19t-19.5 47t19.5 47t47.5 19t47 -19t19 -47zM943 28l-28 -28q-140 0 -163 110q-44 -121 -327 -121q-202 0 -293 63t-91 202q0 73 17 136h119
q-15 -68 -15 -109q0 -80 64 -114.5t212 -34.5q119 0 179 10t85 33.5t25 70.5v109h120v-109q0 -64 20.5 -85.5t75.5 -21.5v-111z" />
    <glyph glyph-name="uniFE97" unicode="&#x62a;" horiz-adv-x="260" arabic-form="initial" 
d="M264 544q0 -25 -17 -42t-42 -17t-42 17t-17 42t17 42t42 17t42 -17t17 -42zM120 544q0 -25 -16.5 -42t-41.5 -17t-42 17t-17 42t17 42t42 17t41.5 -17t16.5 -42zM9 0h-37v112l28 27q55 0 76.5 25.5t21.5 85.5q0 53 -15 175h122q14 -110 14 -191q0 -115 -53 -174.5
t-157 -59.5z" />
    <glyph glyph-name="uniFE98" unicode="&#x62a;" horiz-adv-x="312" arabic-form="medial" 
d="M287 474q0 -25 -17 -42t-42 -17t-42 17t-17 42t17 42t42 17t42 -17t17 -42zM144 474q0 -25 -17 -42t-42 -17t-42 17t-17 42t17 42t42 17t42 -17t17 -42zM312 139v-111l-28 -28q-141 0 -164 112q-20 -112 -148 -112v112l28 27q53 0 74.5 24.5t21.5 82.5v109h120v-109
q0 -64 20.5 -85.5t75.5 -21.5z" />
    <glyph glyph-name="uniFE9A" unicode="&#x62b;" horiz-adv-x="943" arabic-form="final" 
d="M505 576q0 -25 -17 -41.5t-42 -16.5t-42 16.5t-17 41.5t17 42t42 17t42 -17t17 -42zM433 447q0 -25 -17 -42t-42 -17t-42 17t-17 42t17 42t42 17t42 -17t17 -42zM576 447q0 -25 -17 -42t-42 -17t-42 17t-17 42t17 42t42 17t42 -17t17 -42zM943 28l-28 -28
q-140 0 -163 110q-44 -121 -327 -121q-202 0 -293 63t-91 202q0 73 17 136h119q-15 -68 -15 -109q0 -80 64 -114.5t212 -34.5q119 0 179 10t85 33.5t25 70.5v109h120v-109q0 -64 20.5 -85.5t75.5 -21.5v-111z" />
    <glyph glyph-name="uniFE9B" unicode="&#x62b;" horiz-adv-x="260" arabic-form="initial" 
d="M192 673q0 -25 -16.5 -41.5t-41.5 -16.5t-42 16.5t-17 41.5t17 42t42 17t41.5 -17t16.5 -42zM120 544q0 -25 -16.5 -42t-41.5 -17t-42 17t-17 42t17 42t42 17t41.5 -17t16.5 -42zM264 544q0 -25 -17 -42t-42 -17t-42 17t-17 42t17 42t42 17t42 -17t17 -42zM9 0h-37v112
l28 27q55 0 76.5 25.5t21.5 85.5q0 53 -15 175h122q14 -110 14 -191q0 -115 -53 -174.5t-157 -59.5z" />
    <glyph glyph-name="uniFE9C" unicode="&#x62b;" horiz-adv-x="312" arabic-form="medial" 
d="M216 603q0 -25 -17 -41.5t-42 -16.5t-42 16.5t-17 41.5t17 42t42 17t42 -17t17 -42zM144 474q0 -25 -17 -42t-42 -17t-42 17t-17 42t17 42t42 17t42 -17t17 -42zM287 474q0 -25 -17 -42t-42 -17t-42 17t-17 42t17 42t42 17t42 -17t17 -42zM312 139v-111l-28 -28
q-141 0 -164 112q-20 -112 -148 -112v112l28 27q53 0 74.5 24.5t21.5 82.5v109h120v-109q0 -64 20.5 -85.5t75.5 -21.5z" />
    <glyph glyph-name="uniFE9E" unicode="&#x62c;" horiz-adv-x="662" arabic-form="final" 
d="M662 139v-109l-28 -30q-86 0 -130 49t-44 143v46q-155 -23 -241 -90.5t-86 -154.5q0 -80 61.5 -122.5t175.5 -42.5q137 0 257 50v-146q-121 -52 -265 -52q-164 0 -257 78q-92 78 -92 209q0 134 95 222.5t283 118.5l-33 12l-77 29q-54 19 -87 19q-46 0 -54 -45h-108
q3 87 45.5 135.5t115.5 48.5q58 0 145 -36l110 -46q103 -45 161 -45h19l-1 -132h-20q-33 0 -49 -1v-42q0 -35 23.5 -50.5t80.5 -15.5zM399 10q0 -28 -19 -47t-47 -19t-47.5 19t-19.5 47t19.5 47t47.5 19t47 -19t19 -47z" />
    <glyph glyph-name="uniFE9F" unicode="&#x62c;" horiz-adv-x="672" arabic-form="initial" 
d="M73 0h-101v112l28 27h73q142 0 239 49l68 32q4 2 26.5 12t33.5 14q-32 6 -88 25l-84 29q-51 18 -82 18q-46 0 -52 -45h-108q2 87 44.5 135.5t115.5 48.5q41 0 128 -29l133 -45q65 -25 98 -32q38 -8 79 -8h29v-124h-35q-44 0 -82 -16.5t-111 -64.5l-70 -48
q-82 -54 -138.5 -72t-143.5 -18zM403 -132q0 -28 -19 -47t-47 -19t-47 19t-19 47t19 47t47 19t47 -19t19 -47z" />
    <glyph glyph-name="uniFEA0" unicode="&#x62c;" horiz-adv-x="676" arabic-form="medial" 
d="M73 0h-101v112l28 27h73q142 0 239 49l68 32q4 2 26.5 12t33.5 14q-32 6 -88 25l-84 29q-51 18 -82 18q-46 0 -52 -45h-108q2 87 44.5 135.5t115.5 48.5q41 0 128 -29l133 -45q65 -25 98 -32q38 -8 79 -8h29v-124h-35q-27 0 -46 -5v-9q0 -35 23.5 -50.5t80.5 -15.5v-109
l-28 -30q-164 0 -172 170l-51 -32l-70 -48q-82 -54 -138.5 -72t-143.5 -18zM403 -132q0 -28 -19 -47t-47 -19t-47 19t-19 47t19 47t47 19t47 -19t19 -47z" />
    <glyph glyph-name="uniFEA2" unicode="&#x62d;" horiz-adv-x="662" arabic-form="final" 
d="M662 139v-109l-28 -30q-86 0 -130 49t-44 143v46q-155 -23 -241 -90.5t-86 -154.5q0 -80 61.5 -122.5t175.5 -42.5q137 0 257 50v-146q-121 -52 -265 -52q-164 0 -257 78q-92 78 -92 209q0 134 95 222.5t283 118.5l-33 12l-77 29q-54 19 -87 19q-46 0 -54 -45h-108
q3 87 45.5 135.5t115.5 48.5q58 0 145 -36l110 -46q103 -45 161 -45h19l-1 -132h-20q-33 0 -49 -1v-42q0 -35 23.5 -50.5t80.5 -15.5z" />
    <glyph glyph-name="uniFEA3" unicode="&#x62d;" horiz-adv-x="672" arabic-form="initial" 
d="M73 0h-101v112l28 27h73q142 0 239 49l68 32q4 2 26.5 12t33.5 14q-32 6 -88 25l-84 29q-51 18 -82 18q-46 0 -52 -45h-108q2 87 44.5 135.5t115.5 48.5q41 0 128 -29l133 -45q65 -25 98 -32q38 -8 79 -8h29v-124h-35q-44 0 -82 -16.5t-111 -64.5l-70 -48
q-82 -54 -138.5 -72t-143.5 -18z" />
    <glyph glyph-name="uniFEA4" unicode="&#x62d;" horiz-adv-x="676" arabic-form="medial" 
d="M73 0h-101v112l28 27h73q142 0 239 49l68 32q4 2 26.5 12t33.5 14q-32 6 -88 25l-84 29q-51 18 -82 18q-46 0 -52 -45h-108q2 87 44.5 135.5t115.5 48.5q41 0 128 -29l133 -45q65 -25 98 -32q38 -8 79 -8h29v-124h-35q-27 0 -46 -5v-9q0 -35 23.5 -50.5t80.5 -15.5v-109
l-28 -30q-164 0 -172 170l-51 -32l-70 -48q-82 -54 -138.5 -72t-143.5 -18z" />
    <glyph glyph-name="uniFEA6" unicode="&#x62e;" horiz-adv-x="662" arabic-form="final" 
d="M349 614q0 -28 -19 -47t-47 -19t-47.5 19t-19.5 47t19.5 47t47.5 19t47 -19t19 -47zM662 139v-109l-28 -30q-86 0 -130 49t-44 143v46q-155 -23 -241 -90.5t-86 -154.5q0 -80 61.5 -122.5t175.5 -42.5q137 0 257 50v-146q-121 -52 -265 -52q-164 0 -257 78
q-92 78 -92 209q0 134 95 222.5t283 118.5l-33 12l-77 29q-54 19 -87 19q-46 0 -54 -45h-108q3 87 45.5 135.5t115.5 48.5q58 0 145 -36l110 -46q103 -45 161 -45h19l-1 -132h-20q-33 0 -49 -1v-42q0 -35 23.5 -50.5t80.5 -15.5z" />
    <glyph glyph-name="uniFEA7" unicode="&#x62e;" horiz-adv-x="672" arabic-form="initial" 
d="M282 583q0 -28 -19 -46.5t-47 -18.5t-47 18.5t-19 46.5t19 47.5t47 19.5t47 -19.5t19 -47.5zM73 0h-101v112l28 27h73q142 0 239 49l68 32q4 2 26.5 12t33.5 14q-32 6 -88 25l-84 29q-51 18 -82 18q-46 0 -52 -45h-108q2 87 44.5 135.5t115.5 48.5q41 0 128 -29l133 -45
q65 -25 98 -32q38 -8 79 -8h29v-124h-35q-44 0 -82 -16.5t-111 -64.5l-70 -48q-82 -54 -138.5 -72t-143.5 -18z" />
    <glyph glyph-name="uniFEA8" unicode="&#x62e;" horiz-adv-x="676" arabic-form="medial" 
d="M282 583q0 -28 -19 -46.5t-47 -18.5t-47 18.5t-19 46.5t19 47.5t47 19.5t47 -19.5t19 -47.5zM73 0h-101v112l28 27h73q142 0 239 49l68 32q4 2 26.5 12t33.5 14q-32 6 -88 25l-84 29q-51 18 -82 18q-46 0 -52 -45h-108q2 87 44.5 135.5t115.5 48.5q41 0 128 -29l133 -45
q65 -25 98 -32q38 -8 79 -8h29v-124h-35q-27 0 -46 -5v-9q0 -35 23.5 -50.5t80.5 -15.5v-109l-28 -30q-164 0 -172 170l-51 -32l-70 -48q-82 -54 -138.5 -72t-143.5 -18z" />
    <glyph glyph-name="uniFEAA" unicode="&#x62f;" horiz-adv-x="586" arabic-form="final" 
d="M586 139v-111l-28 -28q-47 0 -78.5 16.5t-57.5 55.5q-96 -84 -213 -84q-100 1 -144 49.5t-44 154.5h112q1 -34 20 -49.5t68 -15.5q87 0 157 34q-1 2 -14 36l-117 320h143l99 -275q21 -59 39 -82q18 -21 58 -21z" />
    <glyph glyph-name="uniFEAC" unicode="&#x630;" horiz-adv-x="586" arabic-form="final" 
d="M364 643q0 -28 -19 -46.5t-47 -18.5t-47.5 18.5t-19.5 46.5t19.5 47.5t47.5 19.5t47 -19.5t19 -47.5zM586 139v-111l-28 -28q-47 0 -78.5 16.5t-57.5 55.5q-96 -84 -213 -84q-100 1 -144 49.5t-44 154.5h112q1 -34 20 -49.5t68 -15.5q87 0 157 34q-1 2 -14 36l-117 320
h143l99 -275q21 -59 39 -82q18 -21 58 -21z" />
    <glyph glyph-name="uniFEAE" unicode="&#x631;" horiz-adv-x="366" arabic-form="final" 
d="M366 28l-28 -28q-72 0 -104 49q-7 -141 -62 -214.5t-155 -73.5q-54 0 -89 6v139q51 -7 77 -7q66 0 103.5 50.5t37.5 149.5q0 116 -29 256h124l17 -110q8 -58 33 -82t75 -24v-111z" />
    <glyph glyph-name="uniFEB0" unicode="&#x632;" horiz-adv-x="366" arabic-form="final" 
d="M228 481q0 -28 -18.5 -47t-46.5 -19t-47.5 19t-19.5 47t19.5 47t47.5 19t46.5 -19t18.5 -47zM366 28l-28 -28q-72 0 -104 49q-7 -141 -62 -214.5t-155 -73.5q-54 0 -89 6v139q51 -7 77 -7q66 0 103.5 50.5t37.5 149.5q0 116 -29 256h124l17 -110q8 -58 33 -82t75 -24
v-111z" />
    <glyph glyph-name="uniFEB2" unicode="&#x633;" horiz-adv-x="1266" arabic-form="final" 
d="M707 -11q-59 0 -96 45q-24 -227 -276 -227q-152 0 -224 79q-71 78 -72 210q0 70 18 153h118q-15 -75 -15 -125q1 -86 45 -130t143 -44t146 36.5t47 113.5q0 45 -13 122l-12 63h121l12 -61q9 -52 28 -72.5t52 -20.5t50.5 27t17.5 76v51h121v-51q0 -103 64 -103q33 0 51 27
t18 76v86h120v-86q0 -50 23 -72.5t72 -22.5v-111l-28 -28q-63 0 -104 28.5t-52 79.5q-7 -58 -39.5 -88.5t-86.5 -30.5q-48 0 -83 28t-46 76q-14 -104 -120 -104z" />
    <glyph glyph-name="uniFEB3" unicode="&#x633;" horiz-adv-x="768" arabic-form="initial" 
d="M727 216q0 -111 -49.5 -169t-136.5 -58q-56 0 -99 28.5t-55 78.5q-17 -107 -122 -107q-57 0 -94.5 29t-48.5 83q-20 -101 -150 -101v112l28 27q49 0 73 22.5t24 72.5l-1 51h121v-51q0 -103 73 -103q66 0 66 103v51h120l1 -51q0 -51 18.5 -77t48.5 -26q62 0 62 89
q0 56 -18 135h125q14 -76 14 -139z" />
    <glyph glyph-name="uniFEB4" unicode="&#x633;" horiz-adv-x="825" arabic-form="medial" 
d="M825 28l-28 -28q-63 0 -104 29t-53 80q-7 -58 -39.5 -89t-84.5 -31q-49 0 -84 27.5t-46 77.5q-17 -105 -121 -105q-57 0 -94.5 29t-48.5 83q-20 -101 -150 -101v112l28 27q49 0 73 22.5t24 72.5l-1 51h121v-51q0 -103 73 -103q30 0 48 26t18 77v51h120l1 -51
q0 -103 67 -103q31 0 48.5 27t17.5 76v86h120v-86q0 -50 22.5 -72.5t72.5 -22.5v-111z" />
    <glyph glyph-name="uniFEB6" unicode="&#x634;" horiz-adv-x="1266" arabic-form="final" 
d="M920 545q0 -25 -16.5 -42t-41.5 -17t-42 17t-17 42t17 42t42 17t41.5 -17t16.5 -42zM848 415q0 -25 -16.5 -41.5t-41.5 -16.5t-42 16.5t-17 41.5t17 42t42 17t41.5 -17t16.5 -42zM991 415q0 -25 -16.5 -41.5t-41.5 -16.5t-42 16.5t-17 41.5t17 42t42 17t41.5 -17
t16.5 -42zM707 -11q-59 0 -96 45q-24 -227 -276 -227q-152 0 -224 79q-71 78 -72 210q0 70 18 153h118q-15 -75 -15 -125q1 -86 45 -130t143 -44t146 36.5t47 113.5q0 45 -13 122l-12 63h121l12 -61q9 -52 28 -72.5t52 -20.5t50.5 27t17.5 76v51h121v-51q0 -103 64 -103
q33 0 51 27t18 76v86h120v-86q0 -50 23 -72.5t72 -22.5v-111l-28 -28q-63 0 -104 28.5t-52 79.5q-7 -58 -39.5 -88.5t-86.5 -30.5q-48 0 -83 28t-46 76q-14 -104 -120 -104z" />
    <glyph glyph-name="uniFEB7" unicode="&#x634;" horiz-adv-x="768" arabic-form="initial" 
d="M470 545q0 -25 -17 -42t-42 -17t-42 17t-17 42t17 42t42 17t42 -17t17 -42zM398 415q0 -25 -17 -41.5t-42 -16.5t-42 16.5t-17 41.5t17 42t42 17t42 -17t17 -42zM541 415q0 -25 -17 -41.5t-42 -16.5t-42 16.5t-17 41.5t17 42t42 17t42 -17t17 -42zM727 216
q0 -111 -49.5 -169t-136.5 -58q-56 0 -99 28.5t-55 78.5q-17 -107 -122 -107q-57 0 -94.5 29t-48.5 83q-20 -101 -150 -101v112l28 27q49 0 73 22.5t24 72.5l-1 51h121v-51q0 -103 73 -103q66 0 66 103v51h120l1 -51q0 -51 18.5 -77t48.5 -26q62 0 62 89q0 56 -18 135h125
q14 -76 14 -139z" />
    <glyph glyph-name="uniFEB8" unicode="&#x634;" horiz-adv-x="825" arabic-form="medial" 
d="M478 545q0 -25 -16.5 -42t-41.5 -17t-42 17t-17 42t17 42t42 17t41.5 -17t16.5 -42zM406 415q0 -25 -16.5 -41.5t-41.5 -16.5t-42 16.5t-17 41.5t17 42t42 17t41.5 -17t16.5 -42zM550 415q0 -25 -17 -41.5t-42 -16.5t-42 16.5t-17 41.5t17 42t42 17t42 -17t17 -42z
M825 28l-28 -28q-63 0 -104 29t-53 80q-7 -58 -39.5 -89t-84.5 -31q-49 0 -84 27.5t-46 77.5q-17 -105 -121 -105q-57 0 -94.5 29t-48.5 83q-20 -101 -150 -101v112l28 27q49 0 73 22.5t24 72.5l-1 51h121v-51q0 -103 73 -103q30 0 48 26t18 77v51h120l1 -51q0 -103 67 -103
q31 0 48.5 27t17.5 76v86h120v-86q0 -50 22.5 -72.5t72.5 -22.5v-111z" />
    <glyph glyph-name="uniFEBA" unicode="&#x635;" horiz-adv-x="1380" arabic-form="final" 
d="M1295 237q0 -44 -13 -77q34 -21 99 -21v-109l-28 -30q-93 0 -141 68q-105 -79 -342 -79q-190 0 -253 72q-12 -254 -282 -254q-151 0 -223.5 77t-71.5 219q1 61 16 146h118q-13 -76 -13 -115q-1 -91 42.5 -137.5t144.5 -46.5q99 0 146 36.5t47 113.5q0 37 -14 126l-10 59
h113l7 -45q11 -60 52 -83q73 143 171 221.5t213 78.5q101 0 161.5 -64t60.5 -156zM1068 318q-166 0 -296 -184q50 -6 126 -6q157 0 227.5 26.5t70.5 79.5q0 33 -34.5 58.5t-93.5 25.5z" />
    <glyph glyph-name="uniFEBB" unicode="&#x635;" horiz-adv-x="885" arabic-form="initial" 
d="M855 237q0 -120 -106.5 -184t-318.5 -64q-274 0 -307 137q-18 -126 -151 -126v112l28 27q53 0 75 23t22 78v45h112v-44q0 -60 41 -82q73 143 170.5 220.5t212.5 77.5q101 0 161.5 -64t60.5 -156zM628 318q-166 0 -295 -184q49 -6 125 -6q157 0 227.5 26.5t70.5 79.5
q0 33 -34.5 58.5t-93.5 25.5z" />
    <glyph glyph-name="uniFEBC" unicode="&#x635;" horiz-adv-x="941" arabic-form="medial" 
d="M855 237q0 -44 -13 -77q34 -21 99 -21v-109l-28 -30q-93 0 -141 68q-105 -79 -342 -79q-274 0 -307 137q-18 -126 -151 -126v112l28 27q53 0 75 23t22 78v45h112v-44q0 -60 41 -82q73 143 170.5 220.5t212.5 77.5q101 0 161.5 -64t60.5 -156zM628 318q-166 0 -295 -184
q49 -6 125 -6q157 0 227.5 26.5t70.5 79.5q0 33 -34.5 58.5t-93.5 25.5z" />
    <glyph glyph-name="uniFEBE" unicode="&#x636;" horiz-adv-x="1380" arabic-form="final" 
d="M1115 583q0 -28 -19 -46.5t-47 -18.5t-47 18.5t-19 46.5t19 47.5t47 19.5t47 -19.5t19 -47.5zM1295 237q0 -44 -13 -77q34 -21 99 -21v-109l-28 -30q-93 0 -141 68q-105 -79 -342 -79q-190 0 -253 72q-12 -254 -282 -254q-151 0 -223.5 77t-71.5 219q1 61 16 146h118
q-13 -76 -13 -115q-1 -91 42.5 -137.5t144.5 -46.5q99 0 146 36.5t47 113.5q0 37 -14 126l-10 59h113l7 -45q11 -60 52 -83q73 143 171 221.5t213 78.5q101 0 161.5 -64t60.5 -156zM1068 318q-166 0 -296 -184q50 -6 126 -6q157 0 227.5 26.5t70.5 79.5q0 33 -34.5 58.5
t-93.5 25.5z" />
    <glyph glyph-name="uniFEBF" unicode="&#x636;" horiz-adv-x="885" arabic-form="initial" 
d="M675 583q0 -28 -19 -46.5t-47 -18.5t-47 18.5t-19 46.5t19 47.5t47 19.5t47 -19.5t19 -47.5zM855 237q0 -120 -106.5 -184t-318.5 -64q-274 0 -307 137q-18 -126 -151 -126v112l28 27q53 0 75 23t22 78v45h112v-44q0 -60 41 -82q73 143 170.5 220.5t212.5 77.5
q101 0 161.5 -64t60.5 -156zM628 318q-166 0 -295 -184q49 -6 125 -6q157 0 227.5 26.5t70.5 79.5q0 33 -34.5 58.5t-93.5 25.5z" />
    <glyph glyph-name="uniFEC0" unicode="&#x636;" horiz-adv-x="941" arabic-form="medial" 
d="M675 583q0 -28 -19 -46.5t-47 -18.5t-47 18.5t-19 46.5t19 47.5t47 19.5t47 -19.5t19 -47.5zM855 237q0 -44 -13 -77q34 -21 99 -21v-109l-28 -30q-93 0 -141 68q-105 -79 -342 -79q-274 0 -307 137q-18 -126 -151 -126v112l28 27q53 0 75 23t22 78v45h112v-44
q0 -60 41 -82q73 143 170.5 220.5t212.5 77.5q101 0 161.5 -64t60.5 -156zM628 318q-166 0 -295 -184q49 -6 125 -6q157 0 227.5 26.5t70.5 79.5q0 33 -34.5 58.5t-93.5 25.5z" />
    <glyph glyph-name="uniFEC2" unicode="&#x637;" horiz-adv-x="762" arabic-form="final" 
d="M250 0h-278v139h89q4 9 30 58v563h127v-399q107 96 235 96q102 0 162.5 -64t60.5 -156q0 -44 -13 -77q34 -21 99 -21v-109l-29 -30q-95 0 -142 71q-104 -71 -341 -71zM449 318q-163 0 -293 -179h123q163 0 229 22q68 23 68 73q0 33 -34 58.5t-93 25.5z" />
    <glyph glyph-name="uniFEC3" unicode="&#x637;" horiz-adv-x="705" arabic-form="initial" 
d="M250 0h-278v110l28 29h61q4 9 30 58v563h127v-399q107 96 235 96q102 0 162.5 -64t60.5 -156q0 -237 -426 -237zM449 318q-163 0 -293 -179h123q163 0 229 22q68 23 68 73q0 33 -34 58.5t-93 25.5z" />
    <glyph glyph-name="uniFEC4" unicode="&#x637;" horiz-adv-x="762" arabic-form="medial" 
d="M250 0h-278v110l28 29h61q4 9 30 58v563h127v-399q107 96 235 96q102 0 162.5 -64t60.5 -156q0 -44 -13 -77q34 -21 99 -21v-109l-29 -30q-95 0 -142 71q-104 -71 -341 -71zM449 318q-163 0 -293 -179h123q163 0 229 22q68 23 68 73q0 33 -34 58.5t-93 25.5z" />
    <glyph glyph-name="uniFEC6" unicode="&#x638;" horiz-adv-x="762" arabic-form="final" 
d="M250 0h-278v139h89q4 9 30 58v563h127v-399q107 96 235 96q102 0 162.5 -64t60.5 -156q0 -44 -13 -77q34 -21 99 -21v-109l-29 -30q-95 0 -142 71q-104 -71 -341 -71zM495 583q0 -28 -18.5 -46.5t-46.5 -18.5t-47.5 18.5t-19.5 46.5t19.5 47.5t47.5 19.5t46.5 -19.5
t18.5 -47.5zM449 318q-163 0 -293 -179h123q163 0 229 22q68 23 68 73q0 33 -34 58.5t-93 25.5z" />
    <glyph glyph-name="uniFEC7" unicode="&#x638;" horiz-adv-x="705" arabic-form="initial" 
d="M250 0h-278v110l28 29h61q4 9 30 58v563h127v-399q107 96 235 96q102 0 162.5 -64t60.5 -156q0 -237 -426 -237zM495 583q0 -28 -18.5 -46.5t-46.5 -18.5t-47.5 18.5t-19.5 46.5t19.5 47.5t47.5 19.5t46.5 -19.5t18.5 -47.5zM449 318q-163 0 -293 -179h123q163 0 229 22
q68 23 68 73q0 33 -34 58.5t-93 25.5z" />
    <glyph glyph-name="uniFEC8" unicode="&#x638;" horiz-adv-x="762" arabic-form="medial" 
d="M250 0h-278v110l28 29h61q4 9 30 58v563h127v-399q107 96 235 96q102 0 162.5 -64t60.5 -156q0 -44 -13 -77q34 -21 99 -21v-109l-29 -30q-95 0 -142 71q-104 -71 -341 -71zM495 583q0 -28 -18.5 -46.5t-46.5 -18.5t-47.5 18.5t-19.5 46.5t19.5 47.5t47.5 19.5
t46.5 -19.5t18.5 -47.5zM449 318q-163 0 -293 -179h123q163 0 229 22q68 23 68 73q0 33 -34 58.5t-93 25.5z" />
    <glyph glyph-name="uniFECA" unicode="&#x639;" horiz-adv-x="653" arabic-form="final" 
d="M653 28l-29 -28h-22q-105 0 -176 22.5t-134 76.5q-87 -36 -127.5 -70.5t-40.5 -85.5q0 -57 58.5 -88.5t168.5 -31.5q135 0 252 50v-141q-114 -52 -260 -52q-151 0 -239 66t-88 178q0 84 48.5 141.5t159.5 104.5q-47 55 -74 94l-65 90v131q123 29 222 29q134 0 198 -36
t64 -118q0 -63 -39 -111t-121 -88q70 -22 201 -22h43v-111zM187 375l46 -64q45 -64 85 -98q79 33 113.5 59.5t34.5 54.5q0 31 -41.5 44t-125.5 13q-33 0 -112 -9z" />
    <glyph glyph-name="uniFECB" unicode="&#x639;" horiz-adv-x="532" arabic-form="initial" 
d="M80 0h-108v112l29 27h116q-78 54 -78 153q0 94 61 155.5t157 61.5t153.5 -55t61.5 -158h-110q-9 34 -38.5 54t-71.5 20q-52 0 -82.5 -25.5t-30.5 -70.5q0 -50 46 -80t123 -30q58 0 128 11l64 10v-135l-62 -13q-184 -37 -358 -37z" />
    <glyph glyph-name="uniFECC" unicode="&#x639;" horiz-adv-x="606" arabic-form="medial" 
d="M73 0h-101v112l28 27h139q22 0 33 1q-38 39 -76 91l-37 49v130q128 35 250 35q124 0 180 -35t57 -115q1 -82 -74 -156h134v-111l-28 -28h-25q-148 0 -243 41q-112 -41 -237 -41zM309 315q-79 0 -150 -12q43 -61 81 -94.5t84 -48.5q61 15 94.5 42t32.5 58q-1 30 -35 42.5
t-107 12.5z" />
    <glyph glyph-name="uniFECE" unicode="&#x63a;" horiz-adv-x="653" arabic-form="final" 
d="M385 640q0 -28 -18.5 -47t-46.5 -19t-47.5 19t-19.5 47t19.5 47.5t47.5 19.5t46.5 -19.5t18.5 -47.5zM653 28l-29 -28h-22q-105 0 -176 22.5t-134 76.5q-87 -36 -127.5 -70.5t-40.5 -85.5q0 -57 58.5 -88.5t168.5 -31.5q135 0 252 50v-141q-114 -52 -260 -52
q-151 0 -239 66t-88 178q0 84 48.5 141.5t159.5 104.5q-47 55 -74 94l-65 90v131q123 29 222 29q134 0 198 -36t64 -118q0 -63 -39 -111t-121 -88q70 -22 201 -22h43v-111zM187 375l46 -64q45 -64 85 -98q79 33 113.5 59.5t34.5 54.5q0 31 -41.5 44t-125.5 13q-33 0 -112 -9
z" />
    <glyph glyph-name="uniFECF" unicode="&#x63a;" horiz-adv-x="532" arabic-form="initial" 
d="M323 627q0 -28 -19 -47t-47 -19t-47 19t-19 47t19 47t47 19t47 -19t19 -47zM80 0h-108v112l29 27h116q-78 54 -78 153q0 94 61 155.5t157 61.5t153.5 -55t61.5 -158h-110q-9 34 -38.5 54t-71.5 20q-52 0 -82.5 -25.5t-30.5 -70.5q0 -50 46 -80t123 -30q58 0 128 11l64 10
v-134l-66 -13q-186 -38 -354 -38z" />
    <glyph glyph-name="uniFED0" unicode="&#x63a;" horiz-adv-x="606" arabic-form="medial" 
d="M367 571q0 -28 -19 -47t-47 -19t-47.5 19t-19.5 47t19.5 47.5t47.5 19.5t47 -19.5t19 -47.5zM73 0h-101v112l28 27h139q22 0 33 1q-38 39 -76 91l-37 49v130q128 35 250 35q124 0 180 -35t57 -115q1 -82 -74 -156h134v-111l-28 -28h-25q-148 0 -243 41q-112 -41 -237 -41
zM309 315q-79 0 -150 -12q43 -61 81 -94.5t84 -48.5q61 15 94.5 42t32.5 58q-1 30 -35 42.5t-107 12.5z" />
    <glyph glyph-name="uniFED2" unicode="&#x641;" horiz-adv-x="950" arabic-form="final" 
d="M755 618q0 -28 -19 -47t-47 -19t-47 19t-19 47t19 47.5t47 19.5t47 -19.5t19 -47.5zM903 265q0 -65 -47 -123q87 -3 95 -3v-111l-29 -28q-131 0 -233 33q-118 -44 -263 -44q-196 0 -290.5 61t-93.5 201q0 64 20 139h119q-18 -66 -18 -111q-1 -84 61 -115.5t202 -31.5
q11 0 98 3q-47 60 -47 131q0 90 63.5 158t150.5 68q91 0 151.5 -67t60.5 -160zM576 264q0 -69 121 -101q51 16 79 41.5t28 56.5q0 35 -33 63q-34 29 -84 29q-47 0 -79 -27t-32 -62z" />
    <glyph glyph-name="uniFED3" unicode="&#x641;" horiz-adv-x="493" arabic-form="initial" 
d="M285 728q0 -28 -19 -47t-47 -19t-47.5 19t-19.5 47t19.5 47t47.5 19t47 -19t19 -47zM180 0h-208v112l28 27h186q91 0 127 12q37 13 44 65q-48 -18 -136 -18q-93 0 -147 46.5t-54 127.5q0 91 61.5 160t144.5 69q100 0 162.5 -90.5t62.5 -240.5q0 -153 -61 -211
q-62 -59 -210 -59zM115 379q0 -67 110 -67q73 0 130 10q-12 68 -52 107t-92 39q-43 0 -69.5 -25.5t-26.5 -63.5z" />
    <glyph glyph-name="uniFED4" unicode="&#x641;" horiz-adv-x="500" arabic-form="medial" 
d="M314 618q0 -28 -18.5 -47t-46.5 -19t-47.5 19t-19.5 47t19.5 47.5t47.5 19.5t46.5 -19.5t18.5 -47.5zM36 0h-64v112l28 27h82q-46 59 -46 128q0 94 64 159.5t153 65.5t149 -65.5t60 -155.5q0 -71 -52 -132h90v-111l-28 -28h-29q-111 0 -201 33q-96 -33 -206 -33zM135 264
q0 -37 33 -64.5t93 -42.5q102 28 102 101q0 39 -33 67.5t-84 27.5q-49 0 -80 -26t-31 -63z" />
    <glyph glyph-name="uniFED6" unicode="&#x642;" horiz-adv-x="750" arabic-form="final" 
d="M641 560q0 -28 -19 -47t-47 -19t-47.5 19t-19.5 47t19.5 47t47.5 19t47 -19t19 -47zM483 560q0 -28 -19 -47t-47 -19t-47.5 19t-19.5 47t19.5 47t47.5 19t47 -19t19 -47zM750 28l-29 -28h-15q-19 -126 -99.5 -187t-227.5 -61q-340 0 -340 311q0 75 17 151h119
q-16 -71 -16 -136q1 -95 57 -141t179 -46q102 0 152.5 25t65.5 84h-118q-101 0 -157 51.5t-56 141.5q0 96 63 168.5t151 72.5q90 0 146.5 -77.5t66.5 -217.5h41v-111zM487 139h128q-12 78 -49.5 120.5t-94.5 42.5q-41 0 -67 -28t-26 -66q0 -69 109 -69z" />
    <glyph glyph-name="uniFED7" unicode="&#x642;" horiz-adv-x="493" arabic-form="initial" 
d="M366 728q0 -28 -19 -47t-47 -19t-47 19t-19 47t19 47t47 19t47 -19t19 -47zM208 728q0 -28 -19 -47t-47 -19t-47 19t-19 47t19 47t47 19t47 -19t19 -47zM180 0h-208v112l28 27h186q91 0 127 12q37 13 44 65q-48 -18 -136 -18q-93 0 -147 46.5t-54 127.5q0 91 61.5 160
t144.5 69q100 0 162.5 -90.5t62.5 -240.5q0 -153 -61 -211q-62 -59 -210 -59zM115 379q0 -67 110 -67q73 0 130 10q-12 68 -52 107t-92 39q-43 0 -69.5 -25.5t-26.5 -63.5z" />
    <glyph glyph-name="uniFED8" unicode="&#x642;" horiz-adv-x="500" arabic-form="medial" 
d="M396 618q0 -28 -19 -47t-47 -19t-47 19t-19 47t19 47.5t47 19.5t47 -19.5t19 -47.5zM238 618q0 -28 -19 -47t-47 -19t-47 19t-19 47t19 47.5t47 19.5t47 -19.5t19 -47.5zM36 0h-64v112l28 27h82q-46 59 -46 128q0 94 64 159.5t153 65.5t149 -65.5t60 -155.5
q0 -71 -52 -132h90v-111l-28 -28h-29q-111 0 -201 33q-96 -33 -206 -33zM135 264q0 -37 33 -64.5t93 -42.5q102 28 102 101q0 39 -33 67.5t-84 27.5q-49 0 -80 -26t-31 -63z" />
    <glyph glyph-name="uniFEDA" unicode="&#x643;" horiz-adv-x="880" arabic-form="final" 
d="M880 28l-28 -28q-158 0 -174 138q-21 -66 -108.5 -107.5t-216.5 -41.5q-311 0 -312 250q0 59 16 132h119q-14 -58 -14 -96q0 -77 50.5 -110t161.5 -33q146 0 215.5 39.5t69.5 122.5v466h127v-514q0 -64 20 -85.5t74 -21.5v-111zM539 372q0 -62 -59.5 -91t-183.5 -29v81
q173 0 173 34q0 12 -26 12h-34q-77 0 -77 63q0 47 45 86.5t126 62.5v-81q-100 -21 -100 -53q0 -13 23 -13h34q79 0 79 -72z" />
    <glyph glyph-name="uniFEDB" unicode="&#x643;" horiz-adv-x="479" arabic-form="initial" 
d="M197 0h-225v112l28 27h233q35 0 52 12.5t17 32.5q0 22 -18 42t-69 57l-193 123v118l445 246l-1 -138l-310 -168l102 -72q81 -51 116.5 -99t35.5 -110q0 -85 -55.5 -134t-157.5 -49z" />
    <glyph glyph-name="uniFEDC" unicode="&#x643;" horiz-adv-x="483" arabic-form="medial" 
d="M99 0h-127v112l28 27h117q75 0 75 46q0 23 -37 70l-132 172v114l446 241v-137l-318 -172l164 -214q56 -73 88 -96q35 -24 80 -24v-111l-29 -28q-61 0 -105.5 27t-90.5 93q-8 -55 -51 -87.5t-108 -32.5z" />
    </font>
</defs>
</svg>
