<?xml version="1.0" standalone="no"?>
<!DOCTYPE svg PUBLIC "-//W3C//DTD SVG 20010904//EN"
 "http://www.w3.org/TR/2001/REC-SVG-20010904/DTD/svg10.dtd">
<svg version="1.0" xmlns="http://www.w3.org/2000/svg"
 width="700.000000pt" height="700.000000pt" viewBox="0 0 700.000000 700.000000"
 preserveAspectRatio="xMidYMid meet">
<metadata>
Created by potrace 1.11, written by Peter Selinger 2001-2013
</metadata>
<g transform="translate(0.000000,700.000000) scale(0.100000,-0.100000)"
fill="#000000" stroke="none">
<path d="M1300 6985 c-430 -64 -806 -300 -1043 -653 -93 -139 -199 -385 -222
-517 -12 -66 -15 -88 -23 -140 -9 -65 -9 -4271 0 -4350 7 -60 12 -85 25 -140
4 -16 7 -32 8 -35 2 -16 28 -108 35 -125 45 -115 67 -166 86 -200 12 -22 30
-56 40 -75 69 -128 221 -304 359 -416 211 -170 485 -287 760 -323 67 -8 4275
-8 4345 1 30 4 80 12 110 18 30 6 66 14 80 16 108 21 347 127 464 206 187 127
345 292 457 479 54 90 140 274 129 274 -1 0 5 18 14 40 24 62 55 194 63 271 5
38 8 1034 8 2214 0 2037 -1 2149 -18 2225 -10 44 -20 88 -22 98 -2 10 -7 27
-10 37 -3 10 -7 27 -9 37 -17 84 -122 300 -205 421 -225 325 -600 568 -971
627 -25 4 -54 10 -65 13 -11 4 -985 7 -2165 8 -1694 2 -2163 -1 -2230 -11z"/>
</g>
</svg>
