<?xml version="1.0" standalone="no"?>
<!DOCTYPE svg PUBLIC "-//W3C//DTD SVG 1.1//EN" "http://www.w3.org/Graphics/SVG/1.1/DTD/svg11.dtd" >
<svg>
<metadata>
Created by FontForge 20090622 at Tue Mar 12 12:09:47 2019
 By deploy user
Copyright (c) 2017 Commercial Type, Inc. All rights reserved.
</metadata>
<defs>
<font id="GraphikArabic-Light" horiz-adv-x="600" >
  <font-face 
    font-family="Graphik Arabic Light"
    font-weight="300"
    font-stretch="normal"
    units-per-em="1000"
    panose-1="0 0 0 0 0 0 0 0 0 0"
    ascent="800"
    descent="-200"
    x-height="523"
    cap-height="715"
    bbox="-224 -446 1409 1091"
    underline-thickness="66"
    underline-position="-59"
    unicode-range="U+0020-U+FEFC"
  />
<missing-glyph horiz-adv-x="0" 
 />
    <glyph glyph-name="uniFC03" unicode="&#xfe8b;&#xfef0;" horiz-adv-x="777" arabic-form="isolated" 
d="M761 494v-41l-188 -25v40l55 8q-36 19 -36 63q0 34 23 56.5t58 22.5q30 0 49 -17t23 -47l-32 -4q-8 27 -42 27q-19 0 -32.5 -12.5t-13.5 -30.5q0 -24 21.5 -39t48.5 -11zM701 -69q0 -68 -90 -115t-234 -47q-317 0 -317 236q0 52 15 119h45q-15 -65 -15 -111
q0 -193 272 -193q125 0 202 32.5t77 88.5q0 34 -30.5 57t-87.5 23h-81v51h81q79 0 109 27.5t30 92.5q0 54 -16 177h46q15 -108 15 -177q0 -138 -98 -162q77 -30 77 -99z" />
    <glyph glyph-name="uniFC04" unicode="&#xfe8b;&#xfef2;" horiz-adv-x="777" arabic-form="isolated" 
d="M761 494v-41l-188 -25v40l55 8q-36 19 -36 63q0 34 23 56.5t58 22.5q30 0 49 -17t23 -47l-32 -4q-8 27 -42 27q-19 0 -32.5 -12.5t-13.5 -30.5q0 -24 21.5 -39t48.5 -11zM701 -69q0 -68 -90 -115t-234 -47q-317 0 -317 236q0 52 15 119h45q-15 -65 -15 -111
q0 -193 272 -193q125 0 202 32.5t77 88.5q0 34 -30.5 57t-87.5 23h-81v51h81q79 0 109 27.5t30 92.5q0 54 -16 177h46q15 -108 15 -177q0 -138 -98 -162q77 -30 77 -99zM465 -356q0 -14 -10.5 -24.5t-25.5 -10.5t-25 10.5t-10 24.5q0 15 10 25.5t25 10.5q16 0 26 -10.5
t10 -25.5zM359 -356q0 -14 -10 -24.5t-25 -10.5t-25 10.5t-10 24.5q0 15 10 25.5t25 10.5t25 -10.5t10 -25.5z" />
    <glyph glyph-name="uniFC09" unicode="&#xfe91;&#xfef0;" horiz-adv-x="777" arabic-form="isolated" 
d="M701 -69q0 -68 -90 -115t-234 -47q-317 0 -317 236q0 52 15 119h45q-15 -65 -15 -111q0 -193 272 -193q125 0 202 32.5t77 88.5q0 34 -30.5 57t-87.5 23h-81v51h81q79 0 109 27.5t30 92.5q0 54 -16 177h46q15 -108 15 -177q0 -138 -98 -162q77 -30 77 -99zM692 -316
q0 -15 -10 -25t-25 -10t-25 10t-10 25t10 25t25 10t25 -10t10 -25z" />
    <glyph glyph-name="uniFC0A" unicode="&#xfe91;&#xfef2;" horiz-adv-x="777" arabic-form="isolated" 
d="M701 -69q0 -68 -90 -115t-234 -47q-317 0 -317 236q0 52 15 119h45q-15 -65 -15 -111q0 -193 272 -193q125 0 202 32.5t77 88.5q0 34 -30.5 57t-87.5 23h-81v51h81q79 0 109 27.5t30 92.5q0 54 -16 177h46q15 -108 15 -177q0 -138 -98 -162q77 -30 77 -99zM692 -316
q0 -15 -10 -25t-25 -10t-25 10t-10 25t10 25t25 10t25 -10t10 -25zM465 -356q0 -14 -10.5 -24.5t-25.5 -10.5t-25 10.5t-10 24.5q0 15 10 25.5t25 10.5q16 0 26 -10.5t10 -25.5zM359 -356q0 -14 -10 -24.5t-25 -10.5t-25 10.5t-10 24.5q0 15 10 25.5t25 10.5t25 -10.5
t10 -25.5z" />
    <glyph glyph-name="uniFC0F" unicode="&#xfe97;&#xfef0;" horiz-adv-x="777" arabic-form="isolated" 
d="M761 489q0 -15 -10 -25t-26 -10q-15 0 -25 10t-10 25t10 25t25 10q16 0 26 -10t10 -25zM655 489q0 -15 -10 -25t-25 -10t-25 10t-10 25t10 25t25 10t25 -10t10 -25zM701 -69q0 -68 -90 -115t-234 -47q-317 0 -317 236q0 52 15 119h45q-15 -65 -15 -111q0 -193 272 -193
q125 0 202 32.5t77 88.5q0 34 -30.5 57t-87.5 23h-81v51h81q79 0 109 27.5t30 92.5q0 54 -16 177h46q15 -108 15 -177q0 -138 -98 -162q77 -30 77 -99z" />
    <glyph glyph-name="uniFC10" unicode="&#xfe97;&#xfef2;" horiz-adv-x="777" arabic-form="isolated" 
d="M761 489q0 -15 -10 -25t-26 -10q-15 0 -25 10t-10 25t10 25t25 10q16 0 26 -10t10 -25zM655 489q0 -15 -10 -25t-25 -10t-25 10t-10 25t10 25t25 10t25 -10t10 -25zM701 -69q0 -68 -90 -115t-234 -47q-317 0 -317 236q0 52 15 119h45q-15 -65 -15 -111q0 -193 272 -193
q125 0 202 32.5t77 88.5q0 34 -30.5 57t-87.5 23h-81v51h81q79 0 109 27.5t30 92.5q0 54 -16 177h46q15 -108 15 -177q0 -138 -98 -162q77 -30 77 -99zM465 -356q0 -14 -10.5 -24.5t-25.5 -10.5t-25 10.5t-10 24.5q0 15 10 25.5t25 10.5q16 0 26 -10.5t10 -25.5zM359 -356
q0 -14 -10 -24.5t-25 -10.5t-25 10.5t-10 24.5q0 15 10 25.5t25 10.5t25 -10.5t10 -25.5z" />
    <glyph glyph-name="uniFC13" unicode="&#xfe9b;&#xfef0;" horiz-adv-x="777" arabic-form="isolated" 
d="M708 584q0 -15 -10 -25t-25 -10t-25 10t-10 25t10 25t25 10t25 -10t10 -25zM655 489q0 -15 -10 -25t-25 -10t-25 10t-10 25t10 25t25 10t25 -10t10 -25zM761 489q0 -15 -10 -25t-26 -10q-15 0 -25 10t-10 25t10 25t25 10q16 0 26 -10t10 -25zM701 -69q0 -68 -90 -115
t-234 -47q-317 0 -317 236q0 52 15 119h45q-15 -65 -15 -111q0 -193 272 -193q125 0 202 32.5t77 88.5q0 34 -30.5 57t-87.5 23h-81v51h81q79 0 109 27.5t30 92.5q0 54 -16 177h46q15 -108 15 -177q0 -138 -98 -162q77 -30 77 -99z" />
    <glyph glyph-name="uniFC14" unicode="&#xfe9b;&#xfef2;" horiz-adv-x="777" arabic-form="isolated" 
d="M708 584q0 -15 -10 -25t-25 -10t-25 10t-10 25t10 25t25 10t25 -10t10 -25zM655 489q0 -15 -10 -25t-25 -10t-25 10t-10 25t10 25t25 10t25 -10t10 -25zM761 489q0 -15 -10 -25t-26 -10q-15 0 -25 10t-10 25t10 25t25 10q16 0 26 -10t10 -25zM701 -69q0 -68 -90 -115
t-234 -47q-317 0 -317 236q0 52 15 119h45q-15 -65 -15 -111q0 -193 272 -193q125 0 202 32.5t77 88.5q0 34 -30.5 57t-87.5 23h-81v51h81q79 0 109 27.5t30 92.5q0 54 -16 177h46q15 -108 15 -177q0 -138 -98 -162q77 -30 77 -99zM465 -356q0 -14 -10.5 -24.5t-25.5 -10.5
t-25 10.5t-10 24.5q0 15 10 25.5t25 10.5q16 0 26 -10.5t10 -25.5zM359 -356q0 -14 -10 -24.5t-25 -10.5t-25 10.5t-10 24.5q0 15 10 25.5t25 10.5t25 -10.5t10 -25.5z" />
    <glyph glyph-name="uniFC31" unicode="&#xfed3;&#xfef0;" horiz-adv-x="752" arabic-form="isolated" 
d="M547 645q0 -15 -10 -25t-26 -10q-15 0 -25 10t-10 25t10 25t25 10q16 0 26 -10t10 -25zM671 -74q0 -63 -80 -110t-214 -47q-317 0 -317 236q0 52 15 119h45q-15 -65 -15 -111q0 -193 272 -193q109 0 179 32q70 31 70 84q0 34 -31.5 53t-85.5 19h-82v51h82q71 0 103 26
t39 91q-53 -13 -121 -13q-93 0 -143.5 43t-50.5 121q0 81 51.5 139.5t123.5 58.5q88 0 138.5 -75.5t50.5 -209.5q0 -98 -24.5 -150t-80.5 -69q76 -26 76 -95zM382 327q0 -55 39 -84t110 -29q56 0 123 15v6q0 110 -38 174t-105 64q-55 0 -92 -42q-37 -41 -37 -104z" />
    <glyph glyph-name="uniFC32" unicode="&#xfed3;&#xfef2;" horiz-adv-x="752" arabic-form="isolated" 
d="M547 645q0 -15 -10 -25t-26 -10q-15 0 -25 10t-10 25t10 25t25 10q16 0 26 -10t10 -25zM671 -74q0 -63 -80 -110t-214 -47q-317 0 -317 236q0 52 15 119h45q-15 -65 -15 -111q0 -193 272 -193q109 0 179 32q70 31 70 84q0 34 -31.5 53t-85.5 19h-82v51h82q71 0 103 26
t39 91q-53 -13 -121 -13q-93 0 -143.5 43t-50.5 121q0 81 51.5 139.5t123.5 58.5q88 0 138.5 -75.5t50.5 -209.5q0 -98 -24.5 -150t-80.5 -69q76 -26 76 -95zM382 327q0 -55 39 -84t110 -29q56 0 123 15v6q0 110 -38 174t-105 64q-55 0 -92 -42q-37 -41 -37 -104zM451 -356
q0 -14 -10.5 -24.5t-25.5 -10.5t-25 10.5t-10 24.5q0 15 10 25.5t25 10.5q16 0 26 -10.5t10 -25.5zM345 -356q0 -14 -10 -24.5t-25 -10.5t-25 10.5t-10 24.5q0 15 10 25.5t25 10.5t25 -10.5t10 -25.5z" />
    <glyph glyph-name="uniFC35" unicode="&#xfed7;&#xfef0;" horiz-adv-x="752" arabic-form="isolated" 
d="M599 645q0 -15 -10 -25t-25 -10t-25 10t-10 25t10 25t25 10t25 -10t10 -25zM494 645q0 -15 -10 -25t-25 -10t-25.5 10t-10.5 25t10.5 25t25.5 10t25 -10t10 -25zM671 -74q0 -63 -80 -110t-214 -47q-317 0 -317 236q0 52 15 119h45q-15 -65 -15 -111q0 -193 272 -193
q109 0 179 32q70 31 70 84q0 34 -31.5 53t-85.5 19h-82v51h82q71 0 103 26t39 91q-53 -13 -121 -13q-93 0 -143.5 43t-50.5 121q0 81 51.5 139.5t123.5 58.5q88 0 138.5 -75.5t50.5 -209.5q0 -98 -24.5 -150t-80.5 -69q76 -26 76 -95zM382 327q0 -55 39 -84t110 -29
q56 0 123 15v6q0 110 -38 174t-105 64q-55 0 -92 -42q-37 -41 -37 -104z" />
    <glyph glyph-name="uniFC36" unicode="&#xfed7;&#xfef2;" horiz-adv-x="752" arabic-form="isolated" 
d="M599 645q0 -15 -10 -25t-25 -10t-25 10t-10 25t10 25t25 10t25 -10t10 -25zM494 645q0 -15 -10 -25t-25 -10t-25.5 10t-10.5 25t10.5 25t25.5 10t25 -10t10 -25zM671 -74q0 -63 -80 -110t-214 -47q-317 0 -317 236q0 52 15 119h45q-15 -65 -15 -111q0 -193 272 -193
q109 0 179 32q70 31 70 84q0 34 -31.5 53t-85.5 19h-82v51h82q71 0 103 26t39 91q-53 -13 -121 -13q-93 0 -143.5 43t-50.5 121q0 81 51.5 139.5t123.5 58.5q88 0 138.5 -75.5t50.5 -209.5q0 -98 -24.5 -150t-80.5 -69q76 -26 76 -95zM382 327q0 -55 39 -84t110 -29
q56 0 123 15v6q0 110 -38 174t-105 64q-55 0 -92 -42q-37 -41 -37 -104zM451 -356q0 -14 -10.5 -24.5t-25.5 -10.5t-25 10.5t-10 24.5q0 15 10 25.5t25 10.5q16 0 26 -10.5t10 -25.5zM345 -356q0 -14 -10 -24.5t-25 -10.5t-25 10.5t-10 24.5q0 15 10 25.5t25 10.5t25 -10.5
t10 -25.5z" />
    <glyph glyph-name="uniFC3D" unicode="&#xfedb;&#xfef0;" horiz-adv-x="758" arabic-form="isolated" 
d="M696 -62q0 -72 -88 -120.5t-230 -48.5q-159 0 -236.5 59t-80.5 177q-1 47 15 119h45q-15 -65 -15 -111q0 -193 272 -193q122 0 197.5 33.5t75.5 89.5q0 36 -28.5 57t-81.5 21h-89v51h81q114 0 114 77q0 31 -24 65q-23 34 -84 96l-174 174v44l393 231v-59l-342 -197
l151 -151q73 -73 98 -117q27 -43 27 -86q0 -83 -81 -112q41 -12 63 -38.5t22 -60.5z" />
    <glyph glyph-name="uniFC3E" unicode="&#xfedb;&#xfef2;" horiz-adv-x="758" arabic-form="isolated" 
d="M696 -62q0 -72 -88 -120.5t-230 -48.5q-159 0 -236.5 59t-80.5 177q-1 47 15 119h45q-15 -65 -15 -111q0 -193 272 -193q122 0 197.5 33.5t75.5 89.5q0 36 -28.5 57t-81.5 21h-89v51h81q114 0 114 77q0 31 -24 65q-23 34 -84 96l-174 174v44l393 231v-59l-342 -197
l151 -151q73 -73 98 -117q27 -43 27 -86q0 -83 -81 -112q41 -12 63 -38.5t22 -60.5zM466 -356q0 -14 -10 -24.5t-26 -10.5q-15 0 -25 10.5t-10 24.5q0 15 10 25.5t25 10.5q16 0 26 -10.5t10 -25.5zM360 -356q0 -14 -10 -24.5t-25 -10.5t-25 10.5t-10 24.5q0 15 10 25.5
t25 10.5t25 -10.5t10 -25.5z" />
    <glyph glyph-name="uniFC3F" unicode="&#xfedf;&#xfe9e;" horiz-adv-x="594" arabic-form="isolated" 
d="M560 -205v-50q-110 -49 -238 -49q-137 0 -217 68q-79 67 -79 184q0 104 73 184.5t206 119.5q-133 -5 -244 -5v52h162q63 0 86 27q23 29 23 106v341h45v-352q0 -88 -33 -122h220v-49h-17q-220 0 -347.5 -86.5t-127.5 -212.5q0 -96 66.5 -150t183.5 -54q126 0 238 48z
M337 -33q0 -15 -10 -25t-26 -10q-15 0 -25 10t-10 25t10 25t25 10q16 0 26 -10t10 -25z" />
    <glyph glyph-name="uniFC40" unicode="&#xfedf;&#xfea2;" horiz-adv-x="594" arabic-form="isolated" 
d="M560 -205v-50q-110 -49 -238 -49q-137 0 -217 68q-79 67 -79 184q0 104 73 184.5t206 119.5q-133 -5 -244 -5v52h162q63 0 86 27q23 29 23 106v341h45v-352q0 -88 -33 -122h220v-49h-17q-220 0 -347.5 -86.5t-127.5 -212.5q0 -96 66.5 -150t183.5 -54q126 0 238 48z" />
    <glyph glyph-name="uniFC41" unicode="&#xfedf;&#xfea6;" horiz-adv-x="594" arabic-form="isolated" 
d="M560 -205v-50q-110 -49 -238 -49q-137 0 -217 68q-79 67 -79 184q0 104 73 184.5t206 119.5q-133 -5 -244 -5v52h162q63 0 86 27q23 29 23 106v341h45v-352q0 -88 -33 -122h220v-49h-17q-220 0 -347.5 -86.5t-127.5 -212.5q0 -96 66.5 -150t183.5 -54q126 0 238 48z
M183 485q0 -15 -10 -25t-26 -10q-15 0 -25 10t-10 25t10 25.5t25 10.5q16 0 26 -10.5t10 -25.5z" />
    <glyph glyph-name="uniFC42" unicode="&#xfedf;&#xfee2;" horiz-adv-x="436" arabic-form="isolated" 
d="M103 -3v-304h-45v304q0 66 35.5 99t95.5 33q41 0 68 -9q-25 32 -25 105v546h45v-546q0 -65 23 -94q22 -27 68 -48l61 -28l-25 -46l-49 23q-92 45 -162 45q-90 0 -90 -80z" />
    <glyph glyph-name="uniFC43" unicode="&#xfedf;&#xfef0;" horiz-adv-x="797" arabic-form="isolated" 
d="M695 -69q0 -68 -88.5 -115t-229.5 -47q-317 0 -317 236q0 52 15 119h45q-15 -65 -15 -111q0 -193 272 -193q122 0 197.5 32.5t75.5 88.5q0 34 -30.5 57t-87.5 23h-81v51h82q78 0 108 27.5t30 92.5v581h46v-581q0 -137 -99 -162q77 -29 77 -99z" />
    <glyph glyph-name="uniFC44" unicode="&#xfedf;&#xfef2;" horiz-adv-x="797" arabic-form="isolated" 
d="M695 -69q0 -68 -88.5 -115t-229.5 -47q-317 0 -317 236q0 52 15 119h45q-15 -65 -15 -111q0 -193 272 -193q122 0 197.5 32.5t75.5 88.5q0 34 -30.5 57t-87.5 23h-81v51h82q78 0 108 27.5t30 92.5v581h46v-581q0 -137 -99 -162q77 -29 77 -99zM465 -356
q0 -14 -10.5 -24.5t-25.5 -10.5t-25 10.5t-10 24.5q0 15 10 25.5t25 10.5q16 0 26 -10.5t10 -25.5zM359 -356q0 -14 -10 -24.5t-25 -10.5t-25 10.5t-10 24.5q0 15 10 25.5t25 10.5t25 -10.5t10 -25.5z" />
    <glyph glyph-name="uniFC4F" unicode="&#xfee7;&#xfef0;" horiz-adv-x="777" arabic-form="isolated" 
d="M708 489q0 -15 -10 -25t-25 -10q-16 0 -26 10t-10 25t10 25t26 10q15 0 25 -10t10 -25zM701 -69q0 -68 -90 -115t-234 -47q-317 0 -317 236q0 52 15 119h45q-15 -65 -15 -111q0 -193 272 -193q125 0 202 32.5t77 88.5q0 34 -30.5 57t-87.5 23h-81v51h81q79 0 109 27.5
t30 92.5q0 54 -16 177h46q15 -108 15 -177q0 -138 -98 -162q77 -30 77 -99z" />
    <glyph glyph-name="uniFC50" unicode="&#xfee7;&#xfef2;" horiz-adv-x="777" arabic-form="isolated" 
d="M708 489q0 -15 -10 -25t-25 -10q-16 0 -26 10t-10 25t10 25t26 10q15 0 25 -10t10 -25zM701 -69q0 -68 -90 -115t-234 -47q-317 0 -317 236q0 52 15 119h45q-15 -65 -15 -111q0 -193 272 -193q125 0 202 32.5t77 88.5q0 34 -30.5 57t-87.5 23h-81v51h81q79 0 109 27.5
t30 92.5q0 54 -16 177h46q15 -108 15 -177q0 -138 -98 -162q77 -30 77 -99zM465 -356q0 -14 -10.5 -24.5t-25.5 -10.5t-25 10.5t-10 24.5q0 15 10 25.5t25 10.5q16 0 26 -10.5t10 -25.5zM359 -356q0 -14 -10 -24.5t-25 -10.5t-25 10.5t-10 24.5q0 15 10 25.5t25 10.5
t25 -10.5t10 -25.5z" />
    <glyph glyph-name="uniFC53" unicode="&#xfeeb;&#xfef0;" horiz-adv-x="1139" arabic-form="isolated" 
d="M696 -73q0 -65 -84 -111q-83 -47 -246 -47q-306 0 -306 236q0 52 15 119h45q-15 -65 -15 -111q0 -193 261 -193q136 0 210 30.5t74 79.5q0 33 -33 51.5t-95 18.5h-27v51h5q96 0 188 16q-74 66 -74 154q0 56 30.5 99t78.5 57l-21 8v52l159 -62q131 -49 184 -99
q52 -49 52 -122q0 -76 -51.5 -119t-144.5 -43q-89 0 -164 40q-42 -12 -108 -20q67 -28 67 -85zM660 221q0 -86 88 -139q131 42 131 140q0 49 -32 82.5t-82 33.5q-45 0 -75 -33t-30 -84zM924 222q0 -109 -120 -165q48 -15 100 -15q68 0 108 28.5t40 84.5q0 48 -34.5 82.5
t-117.5 70.5q24 -38 24 -86z" />
    <glyph glyph-name="uniFC54" unicode="&#xfeeb;&#xfef2;" horiz-adv-x="1139" arabic-form="isolated" 
d="M696 -73q0 -65 -84 -111q-83 -47 -246 -47q-306 0 -306 236q0 52 15 119h45q-15 -65 -15 -111q0 -193 261 -193q136 0 210 30.5t74 79.5q0 33 -33 51.5t-95 18.5h-27v51h5q96 0 188 16q-74 66 -74 154q0 56 30.5 99t78.5 57l-21 8v52l159 -62q131 -49 184 -99
q52 -49 52 -122q0 -76 -51.5 -119t-144.5 -43q-89 0 -164 40q-42 -12 -108 -20q67 -28 67 -85zM660 221q0 -86 88 -139q131 42 131 140q0 49 -32 82.5t-82 33.5q-45 0 -75 -33t-30 -84zM924 222q0 -109 -120 -165q48 -15 100 -15q68 0 108 28.5t40 84.5q0 48 -34.5 82.5
t-117.5 70.5q24 -38 24 -86zM465 -356q0 -14 -10.5 -24.5t-25.5 -10.5t-25 10.5t-10 24.5q0 15 10 25.5t25 10.5q16 0 26 -10.5t10 -25.5zM359 -356q0 -14 -10 -24.5t-25 -10.5t-25 10.5t-10 24.5q0 15 10 25.5t25 10.5t25 -10.5t10 -25.5z" />
    <glyph glyph-name="uniFC59" unicode="&#xfef3;&#xfef0;" horiz-adv-x="777" arabic-form="isolated" 
d="M701 -69q0 -68 -90 -115t-234 -47q-317 0 -317 236q0 52 15 119h45q-15 -65 -15 -111q0 -193 272 -193q125 0 202 32.5t77 88.5q0 34 -30.5 57t-87.5 23h-81v51h81q79 0 109 27.5t30 92.5q0 54 -16 177h46q15 -108 15 -177q0 -138 -98 -162q77 -30 77 -99zM745 -316
q0 -15 -10 -25t-25 -10q-16 0 -26 10t-10 25t10 25t26 10q15 0 25 -10t10 -25zM640 -316q0 -15 -10 -25t-26 -10q-15 0 -25 10t-10 25t10 25t25 10q16 0 26 -10t10 -25z" />
    <glyph glyph-name="uniFC5A" unicode="&#xfef3;&#xfef2;" horiz-adv-x="777" arabic-form="isolated" 
d="M701 -69q0 -68 -90 -115t-234 -47q-317 0 -317 236q0 52 15 119h45q-15 -65 -15 -111q0 -193 272 -193q125 0 202 32.5t77 88.5q0 34 -30.5 57t-87.5 23h-81v51h81q79 0 109 27.5t30 92.5q0 54 -16 177h46q15 -108 15 -177q0 -138 -98 -162q77 -30 77 -99zM745 -316
q0 -15 -10 -25t-25 -10q-16 0 -26 10t-10 25t10 25t26 10q15 0 25 -10t10 -25zM640 -316q0 -15 -10 -25t-26 -10q-15 0 -25 10t-10 25t10 25t25 10q16 0 26 -10t10 -25zM465 -356q0 -14 -10.5 -24.5t-25.5 -10.5t-25 10.5t-10 24.5q0 15 10 25.5t25 10.5q16 0 26 -10.5
t10 -25.5zM359 -356q0 -14 -10 -24.5t-25 -10.5t-25 10.5t-10 24.5q0 15 10 25.5t25 10.5t25 -10.5t10 -25.5z" />
    <glyph glyph-name="uniFC64" unicode="&#xfe8c;&#xfeae;" horiz-adv-x="571" arabic-form="final" 
d="M490 456v-40l-188 -26v41l55 8q-36 21 -36 62q0 34 23 56.5t57 22.5q64 0 72 -63l-32 -4q-8 27 -41 27q-19 0 -33 -12.5t-14 -30.5q0 -24 21.5 -39t49.5 -11zM220 57q0 -145 -49 -214t-150 -69q-43 0 -87 10v52q45 -11 84 -11q80 0 118 56.5t38 175.5q0 41 -5 101
l-15 142l272 31l17 -171q8 -64 33 -86q26 -23 95 -23v-38l-13 -13q-80 0 -115.5 34.5t-44.5 119.5l-12 121l-182 -22l10 -90q6 -55 6 -106z" />
    <glyph glyph-name="uniFC65" unicode="&#xfe8c;&#xfeb0;" horiz-adv-x="571" arabic-form="final" 
d="M490 456v-40l-188 -26v41l55 8q-36 21 -36 62q0 34 23 56.5t57 22.5q64 0 72 -63l-32 -4q-8 27 -41 27q-19 0 -33 -12.5t-14 -30.5q0 -24 21.5 -39t49.5 -11zM201 420q0 -15 -10 -25t-25 -10t-25 10t-10 25t10 25t25 10t25 -10t10 -25zM220 57q0 -145 -49 -214t-150 -69
q-43 0 -87 10v52q45 -11 84 -11q80 0 118 56.5t38 175.5q0 41 -5 101l-15 142l272 31l17 -171q8 -64 33 -86q26 -23 95 -23v-38l-13 -13q-80 0 -115.5 34.5t-44.5 119.5l-12 121l-182 -22l10 -90q6 -55 6 -106z" />
    <glyph glyph-name="uniFC67" unicode="&#xfe8c;&#xfee6;" horiz-adv-x="947" arabic-form="final" 
d="M871 456v-40l-188 -26v41l55 8q-36 19 -36 62q0 34 23 56.5t58 22.5q30 0 49 -16.5t23 -46.5l-32 -4q-8 27 -42 27q-19 0 -32.5 -12.5t-13.5 -30.5q0 -24 21.5 -39t48.5 -11zM359 341q0 -14 -10 -24.5t-25 -10.5t-25.5 10.5t-10.5 24.5q0 15 10.5 25.5t25.5 10.5
t25 -10.5t10 -25.5zM597 54q0 -117 -69 -179.5t-196 -62.5q-132 0 -202 55t-70 162q0 58 16 142h45q-16 -84 -16 -134q0 -174 227 -174q111 0 165 46.5t54 144.5q0 39 -7 104l-15 142l272 31l18 -171q6 -63 32 -86q28 -23 96 -23v-38l-13 -13q-81 0 -116.5 34.5t-43.5 119.5
l-12 121l-182 -21l10 -91q7 -65 7 -109z" />
    <glyph glyph-name="uniFC68" unicode="&#xfe8c;&#xfef0;" horiz-adv-x="875" arabic-form="final" 
d="M643 491v-41l-188 -25v41l54 8q-35 20 -35 62q0 34 23 56.5t57 22.5q31 0 50 -17t23 -47l-32 -4q-8 27 -42 27q-19 0 -32.5 -12t-13.5 -30q0 -24 21.5 -39t48.5 -11zM699 -39q0 -82 -97 -137t-241 -55q-301 0 -301 236q0 52 15 119h45q-15 -65 -15 -111
q0 -98 63.5 -145.5t192.5 -47.5q124 0 208.5 40.5t84.5 99.5q0 33 -25.5 51.5t-85.5 28.5l-107 17q-119 19 -119 111q0 76 72.5 137t164.5 61q77 0 119 -39q42 -38 71 -130l15 -49q17 -58 39 -77q23 -20 77 -20v-38l-13 -13q-65 0 -96 29q-29 29 -55 114l-15 48
q-21 68 -54.5 95.5t-90.5 27.5q-73 0 -131 -42.5t-58 -96.5q0 -52 86 -68l116 -19q72 -12 103.5 -44t31.5 -83z" />
    <glyph glyph-name="uniFC69" unicode="&#xfe8c;&#xfef2;" horiz-adv-x="875" arabic-form="final" 
d="M643 491v-41l-188 -25v41l54 8q-35 20 -35 62q0 34 23 56.5t57 22.5q31 0 50 -17t23 -47l-32 -4q-8 27 -42 27q-19 0 -32.5 -12t-13.5 -30q0 -24 21.5 -39t48.5 -11zM699 -39q0 -82 -97 -137t-241 -55q-301 0 -301 236q0 52 15 119h45q-15 -65 -15 -111
q0 -98 63.5 -145.5t192.5 -47.5q124 0 208.5 40.5t84.5 99.5q0 33 -25.5 51.5t-85.5 28.5l-107 17q-119 19 -119 111q0 76 72.5 137t164.5 61q77 0 119 -39q42 -38 71 -130l15 -49q17 -58 39 -77q23 -20 77 -20v-38l-13 -13q-65 0 -96 29q-29 29 -55 114l-15 48
q-21 68 -54.5 95.5t-90.5 27.5q-73 0 -131 -42.5t-58 -96.5q0 -52 86 -68l116 -19q72 -12 103.5 -44t31.5 -83zM449 -356q0 -14 -10.5 -24.5t-25.5 -10.5t-25 10.5t-10 24.5q0 15 10 25.5t25 10.5t25.5 -10.5t10.5 -25.5zM343 -356q0 -14 -10 -24.5t-25 -10.5t-25 10.5
t-10 24.5q0 15 10 25.5t25 10.5t25 -10.5t10 -25.5z" />
    <glyph glyph-name="uniFC6A" unicode="&#xfe92;&#xfeae;" horiz-adv-x="571" arabic-form="final" 
d="M220 57q0 -145 -49 -214t-150 -69q-43 0 -87 10v52q45 -11 84 -11q80 0 118 56.5t38 175.5q0 41 -5 101l-15 142l272 31l17 -171q8 -64 33 -86q26 -23 95 -23v-38l-13 -13q-80 0 -115.5 34.5t-44.5 119.5l-12 121l-182 -22l10 -90q6 -55 6 -106zM448 -125
q0 -14 -10 -24.5t-25 -10.5t-25 10.5t-10 24.5q0 15 10 25.5t25 10.5t25 -10.5t10 -25.5z" />
    <glyph glyph-name="uniFC6B" unicode="&#xfe92;&#xfeb0;" horiz-adv-x="571" arabic-form="final" 
d="M201 420q0 -15 -10 -25t-25 -10t-25 10t-10 25t10 25t25 10t25 -10t10 -25zM220 57q0 -145 -49 -214t-150 -69q-43 0 -87 10v52q45 -11 84 -11q80 0 118 56.5t38 175.5q0 41 -5 101l-15 142l272 31l17 -171q8 -64 33 -86q26 -23 95 -23v-38l-13 -13q-80 0 -115.5 34.5
t-44.5 119.5l-12 121l-182 -22l10 -90q6 -55 6 -106zM448 -125q0 -14 -10 -24.5t-25 -10.5t-25 10.5t-10 24.5q0 15 10 25.5t25 10.5t25 -10.5t10 -25.5z" />
    <glyph glyph-name="uniFC6D" unicode="&#xfe92;&#xfee6;" horiz-adv-x="947" arabic-form="final" 
d="M359 341q0 -14 -10 -24.5t-25 -10.5t-25.5 10.5t-10.5 24.5q0 15 10.5 25.5t25.5 10.5t25 -10.5t10 -25.5zM597 54q0 -117 -69 -179.5t-196 -62.5q-132 0 -202 55t-70 162q0 58 16 142h45q-16 -84 -16 -134q0 -174 227 -174q111 0 165 46.5t54 144.5q0 39 -7 104l-15 142
l272 31l18 -171q6 -63 32 -86q28 -23 96 -23v-38l-13 -13q-81 0 -116.5 34.5t-43.5 119.5l-12 121l-182 -21l10 -91q7 -65 7 -109zM814 -125q0 -14 -10 -24.5t-25 -10.5t-25.5 10t-10.5 25t10 25.5t26 10.5q15 0 25 -10.5t10 -25.5z" />
    <glyph glyph-name="uniFC6E" unicode="&#xfe92;&#xfef0;" horiz-adv-x="875" arabic-form="final" 
d="M699 -39q0 -82 -97 -137t-241 -55q-301 0 -301 236q0 52 15 119h45q-15 -65 -15 -111q0 -98 63.5 -145.5t192.5 -47.5q124 0 208.5 40.5t84.5 99.5q0 33 -25.5 51.5t-85.5 28.5l-107 17q-119 19 -119 111q0 76 72.5 137t164.5 61q77 0 119 -39q42 -38 71 -130l15 -49
q17 -58 39 -77q23 -20 77 -20v-38l-13 -13q-65 0 -96 29q-29 29 -55 114l-15 48q-21 68 -54.5 95.5t-90.5 27.5q-73 0 -131 -42.5t-58 -96.5q0 -52 86 -68l116 -19q72 -12 103.5 -44t31.5 -83zM779 -239q0 -15 -10 -25.5t-26 -10.5q-15 0 -25 10.5t-10 25.5q0 14 10 24.5
t25 10.5t25.5 -10t10.5 -25z" />
    <glyph glyph-name="uniFC6F" unicode="&#xfe92;&#xfef2;" horiz-adv-x="875" arabic-form="final" 
d="M699 -39q0 -82 -97 -137t-241 -55q-301 0 -301 236q0 52 15 119h45q-15 -65 -15 -111q0 -98 63.5 -145.5t192.5 -47.5q124 0 208.5 40.5t84.5 99.5q0 33 -25.5 51.5t-85.5 28.5l-107 17q-119 19 -119 111q0 76 72.5 137t164.5 61q77 0 119 -39q42 -38 71 -130l15 -49
q17 -58 39 -77q23 -20 77 -20v-38l-13 -13q-65 0 -96 29q-29 29 -55 114l-15 48q-21 68 -54.5 95.5t-90.5 27.5q-73 0 -131 -42.5t-58 -96.5q0 -52 86 -68l116 -19q72 -12 103.5 -44t31.5 -83zM779 -239q0 -15 -10 -25.5t-26 -10.5q-15 0 -25 10.5t-10 25.5q0 14 10 24.5
t25 10.5t25.5 -10t10.5 -25zM449 -356q0 -14 -10.5 -24.5t-25.5 -10.5t-25 10.5t-10 24.5q0 15 10 25.5t25 10.5t25.5 -10.5t10.5 -25.5zM343 -356q0 -14 -10 -24.5t-25 -10.5t-25 10.5t-10 24.5q0 15 10 25.5t25 10.5t25 -10.5t10 -25.5z" />
    <glyph glyph-name="uniFC70" unicode="&#xfe98;&#xfeae;" horiz-adv-x="571" arabic-form="final" 
d="M489 452q0 -15 -10 -25.5t-25 -10.5t-25.5 10.5t-10.5 25.5t10.5 25t25.5 10t25 -10t10 -25zM384 452q0 -15 -10 -25.5t-25 -10.5q-16 0 -26 10.5t-10 25.5t10 25t26 10q15 0 25 -10t10 -25zM220 57q0 -145 -49 -214t-150 -69q-43 0 -87 10v52q45 -11 84 -11
q80 0 118 56.5t38 175.5q0 41 -5 101l-15 142l272 31l17 -171q8 -64 33 -86q26 -23 95 -23v-38l-13 -13q-80 0 -115.5 34.5t-44.5 119.5l-12 121l-182 -22l10 -90q6 -55 6 -106z" />
    <glyph glyph-name="uniFC71" unicode="&#xfe98;&#xfeb0;" horiz-adv-x="571" arabic-form="final" 
d="M489 452q0 -15 -10 -25.5t-25 -10.5t-25.5 10.5t-10.5 25.5t10.5 25t25.5 10t25 -10t10 -25zM384 452q0 -15 -10 -25.5t-25 -10.5q-16 0 -26 10.5t-10 25.5t10 25t26 10q15 0 25 -10t10 -25zM201 420q0 -15 -10 -25t-25 -10t-25 10t-10 25t10 25t25 10t25 -10t10 -25z
M220 57q0 -145 -49 -214t-150 -69q-43 0 -87 10v52q45 -11 84 -11q80 0 118 56.5t38 175.5q0 41 -5 101l-15 142l272 31l17 -171q8 -64 33 -86q26 -23 95 -23v-38l-13 -13q-80 0 -115.5 34.5t-44.5 119.5l-12 121l-182 -22l10 -90q6 -55 6 -106z" />
    <glyph glyph-name="uniFC73" unicode="&#xfe98;&#xfee6;" horiz-adv-x="947" arabic-form="final" 
d="M871 452q0 -15 -10.5 -25.5t-25.5 -10.5t-25 10.5t-10 25.5t10 25t25 10t25.5 -10t10.5 -25zM765 452q0 -15 -10 -25.5t-25 -10.5t-25.5 10.5t-10.5 25.5t10.5 25t25.5 10t25 -10t10 -25zM359 341q0 -14 -10 -24.5t-25 -10.5t-25.5 10.5t-10.5 24.5q0 15 10.5 25.5
t25.5 10.5t25 -10.5t10 -25.5zM597 54q0 -117 -69 -179.5t-196 -62.5q-132 0 -202 55t-70 162q0 58 16 142h45q-16 -84 -16 -134q0 -174 227 -174q111 0 165 46.5t54 144.5q0 39 -7 104l-15 142l272 31l18 -171q6 -63 32 -86q28 -23 96 -23v-38l-13 -13q-81 0 -116.5 34.5
t-43.5 119.5l-12 121l-182 -21l10 -91q7 -65 7 -109z" />
    <glyph glyph-name="uniFC74" unicode="&#xfe98;&#xfef0;" horiz-adv-x="875" arabic-form="final" 
d="M643 486q0 -14 -10.5 -24.5t-25.5 -10.5t-25 10.5t-10 24.5q0 15 10 25.5t25 10.5t25.5 -10.5t10.5 -25.5zM537 486q0 -14 -10 -24.5t-25 -10.5t-25.5 10.5t-10.5 24.5q0 15 10.5 25.5t25.5 10.5t25 -10.5t10 -25.5zM699 -39q0 -82 -97 -137t-241 -55q-301 0 -301 236
q0 52 15 119h45q-15 -65 -15 -111q0 -98 63.5 -145.5t192.5 -47.5q124 0 208.5 40.5t84.5 99.5q0 33 -25.5 51.5t-85.5 28.5l-107 17q-119 19 -119 111q0 76 72.5 137t164.5 61q77 0 119 -39q42 -38 71 -130l15 -49q17 -58 39 -77q23 -20 77 -20v-38l-13 -13q-65 0 -96 29
q-29 29 -55 114l-15 48q-21 68 -54.5 95.5t-90.5 27.5q-73 0 -131 -42.5t-58 -96.5q0 -52 86 -68l116 -19q72 -12 103.5 -44t31.5 -83z" />
    <glyph glyph-name="uniFC75" unicode="&#xfe98;&#xfef2;" horiz-adv-x="875" arabic-form="final" 
d="M643 486q0 -14 -10.5 -24.5t-25.5 -10.5t-25 10.5t-10 24.5q0 15 10 25.5t25 10.5t25.5 -10.5t10.5 -25.5zM537 486q0 -14 -10 -24.5t-25 -10.5t-25.5 10.5t-10.5 24.5q0 15 10.5 25.5t25.5 10.5t25 -10.5t10 -25.5zM699 -39q0 -82 -97 -137t-241 -55q-301 0 -301 236
q0 52 15 119h45q-15 -65 -15 -111q0 -98 63.5 -145.5t192.5 -47.5q124 0 208.5 40.5t84.5 99.5q0 33 -25.5 51.5t-85.5 28.5l-107 17q-119 19 -119 111q0 76 72.5 137t164.5 61q77 0 119 -39q42 -38 71 -130l15 -49q17 -58 39 -77q23 -20 77 -20v-38l-13 -13q-65 0 -96 29
q-29 29 -55 114l-15 48q-21 68 -54.5 95.5t-90.5 27.5q-73 0 -131 -42.5t-58 -96.5q0 -52 86 -68l116 -19q72 -12 103.5 -44t31.5 -83zM449 -356q0 -14 -10.5 -24.5t-25.5 -10.5t-25 10.5t-10 24.5q0 15 10 25.5t25 10.5t25.5 -10.5t10.5 -25.5zM343 -356q0 -14 -10 -24.5
t-25 -10.5t-25 10.5t-10 24.5q0 15 10 25.5t25 10.5t25 -10.5t10 -25.5z" />
    <glyph glyph-name="uniFC76" unicode="&#xfe9c;&#xfeae;" horiz-adv-x="571" arabic-form="final" 
d="M437 547q0 -15 -10 -25.5t-25 -10.5q-16 0 -26 10.5t-10 25.5t10 25t26 10q15 0 25 -10.5t10 -24.5zM384 452q0 -15 -10 -25.5t-25 -10.5q-16 0 -26 10.5t-10 25.5t10 25t26 10q15 0 25 -10t10 -25zM489 452q0 -15 -10 -25.5t-25 -10.5t-25.5 10.5t-10.5 25.5t10.5 25
t25.5 10t25 -10t10 -25zM220 57q0 -145 -49 -214t-150 -69q-43 0 -87 10v52q45 -11 84 -11q80 0 118 56.5t38 175.5q0 41 -5 101l-15 142l272 31l17 -171q8 -64 33 -86q26 -23 95 -23v-38l-13 -13q-80 0 -115.5 34.5t-44.5 119.5l-12 121l-182 -22l10 -90q6 -55 6 -106z" />
    <glyph glyph-name="uniFC77" unicode="&#xfe9c;&#xfeb0;" horiz-adv-x="571" arabic-form="final" 
d="M437 547q0 -15 -10 -25.5t-25 -10.5q-16 0 -26 10.5t-10 25.5t10 25t26 10q15 0 25 -10.5t10 -24.5zM384 452q0 -15 -10 -25.5t-25 -10.5q-16 0 -26 10.5t-10 25.5t10 25t26 10q15 0 25 -10t10 -25zM489 452q0 -15 -10 -25.5t-25 -10.5t-25.5 10.5t-10.5 25.5t10.5 25
t25.5 10t25 -10t10 -25zM201 420q0 -15 -10 -25t-25 -10t-25 10t-10 25t10 25t25 10t25 -10t10 -25zM220 57q0 -145 -49 -214t-150 -69q-43 0 -87 10v52q45 -11 84 -11q80 0 118 56.5t38 175.5q0 41 -5 101l-15 142l272 31l17 -171q8 -64 33 -86q26 -23 95 -23v-38l-13 -13
q-80 0 -115.5 34.5t-44.5 119.5l-12 121l-182 -22l10 -90q6 -55 6 -106z" />
    <glyph glyph-name="uniFC79" unicode="&#xfe9c;&#xfee6;" horiz-adv-x="947" arabic-form="final" 
d="M818 547q0 -15 -10 -25.5t-25 -10.5t-25 10.5t-10 25.5q0 14 10 24.5t25 10.5t25 -10.5t10 -24.5zM765 452q0 -15 -10 -25.5t-25 -10.5t-25.5 10.5t-10.5 25.5t10.5 25t25.5 10t25 -10t10 -25zM871 452q0 -15 -10.5 -25.5t-25.5 -10.5t-25 10.5t-10 25.5t10 25t25 10
t25.5 -10t10.5 -25zM359 341q0 -14 -10 -24.5t-25 -10.5t-25.5 10.5t-10.5 24.5q0 15 10.5 25.5t25.5 10.5t25 -10.5t10 -25.5zM597 54q0 -117 -69 -179.5t-196 -62.5q-132 0 -202 55t-70 162q0 58 16 142h45q-16 -84 -16 -134q0 -174 227 -174q111 0 165 46.5t54 144.5
q0 39 -7 104l-15 142l272 31l18 -171q6 -63 32 -86q28 -23 96 -23v-38l-13 -13q-81 0 -116.5 34.5t-43.5 119.5l-12 121l-182 -21l10 -91q7 -65 7 -109z" />
    <glyph glyph-name="uniFC7A" unicode="&#xfe9c;&#xfef0;" horiz-adv-x="875" arabic-form="final" 
d="M590 581q0 -15 -10 -25t-25 -10t-25 10t-10 25t10 25.5t25 10.5t25 -10.5t10 -25.5zM537 486q0 -14 -10 -24.5t-25 -10.5t-25.5 10.5t-10.5 24.5q0 15 10.5 25.5t25.5 10.5t25 -10.5t10 -25.5zM643 486q0 -14 -10.5 -24.5t-25.5 -10.5t-25 10.5t-10 24.5q0 15 10 25.5
t25 10.5t25.5 -10.5t10.5 -25.5zM699 -39q0 -82 -97 -137t-241 -55q-301 0 -301 236q0 52 15 119h45q-15 -65 -15 -111q0 -98 63.5 -145.5t192.5 -47.5q124 0 208.5 40.5t84.5 99.5q0 33 -25.5 51.5t-85.5 28.5l-107 17q-119 19 -119 111q0 76 72.5 137t164.5 61
q77 0 119 -39q42 -38 71 -130l15 -49q17 -58 39 -77q23 -20 77 -20v-38l-13 -13q-65 0 -96 29q-29 29 -55 114l-15 48q-21 68 -54.5 95.5t-90.5 27.5q-73 0 -131 -42.5t-58 -96.5q0 -52 86 -68l116 -19q72 -12 103.5 -44t31.5 -83z" />
    <glyph glyph-name="uniFC7B" unicode="&#xfe9c;&#xfef2;" horiz-adv-x="875" arabic-form="final" 
d="M590 581q0 -15 -10 -25t-25 -10t-25 10t-10 25t10 25.5t25 10.5t25 -10.5t10 -25.5zM537 486q0 -14 -10 -24.5t-25 -10.5t-25.5 10.5t-10.5 24.5q0 15 10.5 25.5t25.5 10.5t25 -10.5t10 -25.5zM643 486q0 -14 -10.5 -24.5t-25.5 -10.5t-25 10.5t-10 24.5q0 15 10 25.5
t25 10.5t25.5 -10.5t10.5 -25.5zM699 -39q0 -82 -97 -137t-241 -55q-301 0 -301 236q0 52 15 119h45q-15 -65 -15 -111q0 -98 63.5 -145.5t192.5 -47.5q124 0 208.5 40.5t84.5 99.5q0 33 -25.5 51.5t-85.5 28.5l-107 17q-119 19 -119 111q0 76 72.5 137t164.5 61
q77 0 119 -39q42 -38 71 -130l15 -49q17 -58 39 -77q23 -20 77 -20v-38l-13 -13q-65 0 -96 29q-29 29 -55 114l-15 48q-21 68 -54.5 95.5t-90.5 27.5q-73 0 -131 -42.5t-58 -96.5q0 -52 86 -68l116 -19q72 -12 103.5 -44t31.5 -83zM449 -356q0 -14 -10.5 -24.5t-25.5 -10.5
t-25 10.5t-10 24.5q0 15 10 25.5t25 10.5t25.5 -10.5t10.5 -25.5zM343 -356q0 -14 -10 -24.5t-25 -10.5t-25 10.5t-10 24.5q0 15 10 25.5t25 10.5t25 -10.5t10 -25.5z" />
    <glyph glyph-name="uniFC83" unicode="&#xfedc;&#xfef0;" horiz-adv-x="880" arabic-form="final" 
d="M696 -62q0 -72 -88 -120.5t-230 -48.5q-159 0 -236.5 59t-80.5 177q-1 47 15 119h45q-15 -65 -15 -111q0 -193 272 -193q122 0 197.5 33.5t75.5 89.5q0 36 -28.5 57t-81.5 21h-89v51h146q46 0 70 19t24 51q0 27 -22 67l-142 277v44l393 231v-57l-346 -202l165 -318
q45 -82 70.5 -107.5t70.5 -25.5v-38l-14 -13q-42 0 -74 23.5t-62 78.5l-7 12q-5 -33 -28.5 -55.5t-62.5 -29.5q63 -29 63 -91z" />
    <glyph glyph-name="uniFC84" unicode="&#xfedc;&#xfef2;" horiz-adv-x="880" arabic-form="final" 
d="M696 -62q0 -72 -88 -120.5t-230 -48.5q-159 0 -236.5 59t-80.5 177q-1 47 15 119h45q-15 -65 -15 -111q0 -193 272 -193q122 0 197.5 33.5t75.5 89.5q0 36 -28.5 57t-81.5 21h-89v51h146q46 0 70 19t24 51q0 27 -22 67l-142 277v44l393 231v-57l-346 -202l165 -318
q45 -82 70.5 -107.5t70.5 -25.5v-38l-14 -13q-42 0 -74 23.5t-62 78.5l-7 12q-5 -33 -28.5 -55.5t-62.5 -29.5q63 -29 63 -91zM466 -356q0 -14 -10 -24.5t-26 -10.5q-15 0 -25 10.5t-10 24.5q0 15 10 25.5t25 10.5q16 0 26 -10.5t10 -25.5zM360 -356q0 -14 -10 -24.5
t-25 -10.5t-25 10.5t-10 24.5q0 15 10 25.5t25 10.5t25 -10.5t10 -25.5z" />
    <glyph glyph-name="uniFC86" unicode="&#xfee0;&#xfef0;" horiz-adv-x="877" arabic-form="final" 
d="M695 -69q0 -68 -88.5 -115t-229.5 -47q-317 0 -317 236q0 52 15 119h45q-15 -65 -15 -111q0 -193 272 -193q122 0 197.5 32.5t75.5 88.5q0 34 -30.5 57t-87.5 23h-81v51h127q71 0 106 30.5t35 99.5v571h45v-597q0 -72 25 -98.5t88 -26.5v-38l-13 -13q-122 0 -136 104
q-22 -63 -102 -77q69 -29 69 -96z" />
    <glyph glyph-name="uniFC87" unicode="&#xfee0;&#xfef2;" horiz-adv-x="877" arabic-form="final" 
d="M695 -69q0 -68 -88.5 -115t-229.5 -47q-317 0 -317 236q0 52 15 119h45q-15 -65 -15 -111q0 -193 272 -193q122 0 197.5 32.5t75.5 88.5q0 34 -30.5 57t-87.5 23h-81v51h127q71 0 106 30.5t35 99.5v571h45v-597q0 -72 25 -98.5t88 -26.5v-38l-13 -13q-122 0 -136 104
q-22 -63 -102 -77q69 -29 69 -96zM465 -356q0 -14 -10.5 -24.5t-25.5 -10.5t-25 10.5t-10 24.5q0 15 10 25.5t25 10.5q16 0 26 -10.5t10 -25.5zM359 -356q0 -14 -10 -24.5t-25 -10.5t-25 10.5t-10 24.5q0 15 10 25.5t25 10.5t25 -10.5t10 -25.5z" />
    <glyph glyph-name="uniFC8A" unicode="&#xfee8;&#xfeae;" horiz-adv-x="571" arabic-form="final" 
d="M437 452q0 -15 -10.5 -25.5t-25.5 -10.5t-25 10.5t-10 25.5t10 25t25 10t25.5 -10t10.5 -25zM220 57q0 -145 -49 -214t-150 -69q-43 0 -87 10v52q45 -11 84 -11q80 0 118 56.5t38 175.5q0 41 -5 101l-15 142l272 31l17 -171q8 -64 33 -86q26 -23 95 -23v-38l-13 -13
q-80 0 -115.5 34.5t-44.5 119.5l-12 121l-182 -22l10 -90q6 -55 6 -106z" />
    <glyph glyph-name="uniFC8B" unicode="&#xfee8;&#xfeb0;" horiz-adv-x="571" arabic-form="final" 
d="M437 452q0 -15 -10.5 -25.5t-25.5 -10.5t-25 10.5t-10 25.5t10 25t25 10t25.5 -10t10.5 -25zM201 420q0 -15 -10 -25t-25 -10t-25 10t-10 25t10 25t25 10t25 -10t10 -25zM220 57q0 -145 -49 -214t-150 -69q-43 0 -87 10v52q45 -11 84 -11q80 0 118 56.5t38 175.5
q0 41 -5 101l-15 142l272 31l17 -171q8 -64 33 -86q26 -23 95 -23v-38l-13 -13q-80 0 -115.5 34.5t-44.5 119.5l-12 121l-182 -22l10 -90q6 -55 6 -106z" />
    <glyph glyph-name="uniFC8D" unicode="&#xfee8;&#xfee6;" horiz-adv-x="947" arabic-form="final" 
d="M818 452q0 -15 -10 -25.5t-25 -10.5q-16 0 -26 10.5t-10 25.5t10 25t26 10q15 0 25 -10t10 -25zM359 341q0 -14 -10 -24.5t-25 -10.5t-25.5 10.5t-10.5 24.5q0 15 10.5 25.5t25.5 10.5t25 -10.5t10 -25.5zM597 54q0 -117 -69 -179.5t-196 -62.5q-132 0 -202 55t-70 162
q0 58 16 142h45q-16 -84 -16 -134q0 -174 227 -174q111 0 165 46.5t54 144.5q0 39 -7 104l-15 142l272 31l18 -171q6 -63 32 -86q28 -23 96 -23v-38l-13 -13q-81 0 -116.5 34.5t-43.5 119.5l-12 121l-182 -21l10 -91q7 -65 7 -109z" />
    <glyph glyph-name="uniFC8E" unicode="&#xfee8;&#xfef0;" horiz-adv-x="875" arabic-form="final" 
d="M590 486q0 -14 -10 -24.5t-26 -10.5q-15 0 -25 10.5t-10 24.5q0 15 10 25.5t25 10.5q16 0 26 -10.5t10 -25.5zM699 -39q0 -82 -97 -137t-241 -55q-301 0 -301 236q0 52 15 119h45q-15 -65 -15 -111q0 -98 63.5 -145.5t192.5 -47.5q124 0 208.5 40.5t84.5 99.5
q0 33 -25.5 51.5t-85.5 28.5l-107 17q-119 19 -119 111q0 76 72.5 137t164.5 61q77 0 119 -39q42 -38 71 -130l15 -49q17 -58 39 -77q23 -20 77 -20v-38l-13 -13q-65 0 -96 29q-29 29 -55 114l-15 48q-21 68 -54.5 95.5t-90.5 27.5q-73 0 -131 -42.5t-58 -96.5q0 -52 86 -68
l116 -19q72 -12 103.5 -44t31.5 -83z" />
    <glyph glyph-name="uniFC8F" unicode="&#xfee8;&#xfef2;" horiz-adv-x="875" arabic-form="final" 
d="M590 486q0 -14 -10 -24.5t-26 -10.5q-15 0 -25 10.5t-10 24.5q0 15 10 25.5t25 10.5q16 0 26 -10.5t10 -25.5zM699 -39q0 -82 -97 -137t-241 -55q-301 0 -301 236q0 52 15 119h45q-15 -65 -15 -111q0 -98 63.5 -145.5t192.5 -47.5q124 0 208.5 40.5t84.5 99.5
q0 33 -25.5 51.5t-85.5 28.5l-107 17q-119 19 -119 111q0 76 72.5 137t164.5 61q77 0 119 -39q42 -38 71 -130l15 -49q17 -58 39 -77q23 -20 77 -20v-38l-13 -13q-65 0 -96 29q-29 29 -55 114l-15 48q-21 68 -54.5 95.5t-90.5 27.5q-73 0 -131 -42.5t-58 -96.5q0 -52 86 -68
l116 -19q72 -12 103.5 -44t31.5 -83zM449 -356q0 -14 -10.5 -24.5t-25.5 -10.5t-25 10.5t-10 24.5q0 15 10 25.5t25 10.5t25.5 -10.5t10.5 -25.5zM343 -356q0 -14 -10 -24.5t-25 -10.5t-25 10.5t-10 24.5q0 15 10 25.5t25 10.5t25 -10.5t10 -25.5z" />
    <glyph glyph-name="uniFC91" unicode="&#xfef4;&#xfeae;" horiz-adv-x="571" arabic-form="final" 
d="M220 57q0 -145 -49 -214t-150 -69q-43 0 -87 10v52q45 -11 84 -11q80 0 118 56.5t38 175.5q0 41 -5 101l-15 142l272 31l17 -171q8 -64 33 -86q26 -23 95 -23v-38l-13 -13q-80 0 -115.5 34.5t-44.5 119.5l-12 121l-182 -22l10 -90q6 -55 6 -106zM501 -125
q0 -14 -10 -24.5t-25 -10.5q-16 0 -26 10t-10 25t10 25.5t26 10.5q15 0 25 -10.5t10 -25.5zM396 -125q0 -15 -10 -25t-26 -10q-15 0 -25 10.5t-10 24.5q0 15 10 25.5t25 10.5q16 0 26 -10.5t10 -25.5z" />
    <glyph glyph-name="uniFC92" unicode="&#xfef4;&#xfeb0;" horiz-adv-x="571" arabic-form="final" 
d="M201 420q0 -15 -10 -25t-25 -10t-25 10t-10 25t10 25t25 10t25 -10t10 -25zM220 57q0 -145 -49 -214t-150 -69q-43 0 -87 10v52q45 -11 84 -11q80 0 118 56.5t38 175.5q0 41 -5 101l-15 142l272 31l17 -171q8 -64 33 -86q26 -23 95 -23v-38l-13 -13q-80 0 -115.5 34.5
t-44.5 119.5l-12 121l-182 -22l10 -90q6 -55 6 -106zM501 -125q0 -14 -10 -24.5t-25 -10.5q-16 0 -26 10t-10 25t10 25.5t26 10.5q15 0 25 -10.5t10 -25.5zM396 -125q0 -15 -10 -25t-26 -10q-15 0 -25 10.5t-10 24.5q0 15 10 25.5t25 10.5q16 0 26 -10.5t10 -25.5z" />
    <glyph glyph-name="uniFC94" unicode="&#xfef4;&#xfee6;" horiz-adv-x="947" arabic-form="final" 
d="M359 341q0 -14 -10 -24.5t-25 -10.5t-25.5 10.5t-10.5 24.5q0 15 10.5 25.5t25.5 10.5t25 -10.5t10 -25.5zM597 54q0 -117 -69 -179.5t-196 -62.5q-132 0 -202 55t-70 162q0 58 16 142h45q-16 -84 -16 -134q0 -174 227 -174q111 0 165 46.5t54 144.5q0 39 -7 104l-15 142
l272 31l18 -171q6 -63 32 -86q28 -23 96 -23v-38l-13 -13q-81 0 -116.5 34.5t-43.5 119.5l-12 121l-182 -21l10 -91q7 -65 7 -109zM867 -125q0 -15 -10.5 -25t-25.5 -10t-25 10.5t-10 24.5q0 15 10 25.5t25 10.5q16 0 26 -10.5t10 -25.5zM761 -125q0 -14 -10 -24.5
t-25 -10.5t-25 10.5t-10 24.5q0 15 10 25.5t25 10.5t25 -10.5t10 -25.5z" />
    <glyph glyph-name="uniFC95" unicode="&#xfef4;&#xfef0;" horiz-adv-x="875" arabic-form="final" 
d="M699 -39q0 -82 -97 -137t-241 -55q-301 0 -301 236q0 52 15 119h45q-15 -65 -15 -111q0 -98 63.5 -145.5t192.5 -47.5q124 0 208.5 40.5t84.5 99.5q0 33 -25.5 51.5t-85.5 28.5l-107 17q-119 19 -119 111q0 76 72.5 137t164.5 61q77 0 119 -39q42 -38 71 -130l15 -49
q17 -58 39 -77q23 -20 77 -20v-38l-13 -13q-65 0 -96 29q-29 29 -55 114l-15 48q-21 68 -54.5 95.5t-90.5 27.5q-73 0 -131 -42.5t-58 -96.5q0 -52 86 -68l116 -19q72 -12 103.5 -44t31.5 -83zM831 -239q0 -15 -10 -25.5t-25 -10.5t-25 10.5t-10 25.5q0 14 10 24.5t25 10.5
t25 -10.5t10 -24.5zM726 -239q0 -15 -10 -25.5t-25 -10.5q-16 0 -26 10.5t-10 25.5t10.5 25t25.5 10t25 -10.5t10 -24.5z" />
    <glyph glyph-name="uniFC96" unicode="&#xfef4;&#xfef2;" horiz-adv-x="875" arabic-form="final" 
d="M699 -39q0 -82 -97 -137t-241 -55q-301 0 -301 236q0 52 15 119h45q-15 -65 -15 -111q0 -98 63.5 -145.5t192.5 -47.5q124 0 208.5 40.5t84.5 99.5q0 33 -25.5 51.5t-85.5 28.5l-107 17q-119 19 -119 111q0 76 72.5 137t164.5 61q77 0 119 -39q42 -38 71 -130l15 -49
q17 -58 39 -77q23 -20 77 -20v-38l-13 -13q-65 0 -96 29q-29 29 -55 114l-15 48q-21 68 -54.5 95.5t-90.5 27.5q-73 0 -131 -42.5t-58 -96.5q0 -52 86 -68l116 -19q72 -12 103.5 -44t31.5 -83zM831 -239q0 -15 -10 -25.5t-25 -10.5t-25 10.5t-10 25.5q0 14 10 24.5t25 10.5
t25 -10.5t10 -24.5zM726 -239q0 -15 -10 -25.5t-25 -10.5q-16 0 -26 10.5t-10 25.5t10.5 25t25.5 10t25 -10.5t10 -24.5zM449 -356q0 -14 -10.5 -24.5t-25.5 -10.5t-25 10.5t-10 24.5q0 15 10 25.5t25 10.5t25.5 -10.5t10.5 -25.5zM343 -356q0 -14 -10 -24.5t-25 -10.5
t-25 10.5t-10 24.5q0 15 10 25.5t25 10.5t25 -10.5t10 -25.5z" />
    <glyph glyph-name="uniFCC9" unicode="&#xfedf;&#xfea0;" horiz-adv-x="609" arabic-form="initial" 
d="M60 0h-73v38l13 13h60q65 0 111.5 12.5t112.5 50.5l71 39q58 33 104 50q-49 7 -92 18l-93 22q-61 15 -147 15h-65v52h95q83 0 111 27q30 29 30 105v331h45v-342q0 -59 -14.5 -92t-49.5 -48l98 -23q50 -12 106 -23q39 -6 77 -6h30v-48h-32q-34 0 -71 -15q-40 -16 -114 -61
l-69 -40q-80 -45 -128 -60t-116 -15zM352 -125q0 -14 -10 -24.5t-25 -10.5t-25 10.5t-10 24.5q0 15 10 25.5t25 10.5t25 -10.5t10 -25.5z" />
    <glyph glyph-name="uniFCCA" unicode="&#xfedf;&#xfea4;" horiz-adv-x="609" arabic-form="initial" 
d="M60 0h-73v38l13 13h60q65 0 111.5 12.5t112.5 50.5l71 39q58 33 104 50q-49 7 -92 18l-93 22q-61 15 -147 15h-65v52h95q83 0 111 27q30 29 30 105v331h45v-342q0 -59 -14.5 -92t-49.5 -48l98 -23q50 -12 106 -23q39 -6 77 -6h30v-48h-32q-34 0 -71 -15q-40 -16 -114 -61
l-69 -40q-80 -45 -128 -60t-116 -15z" />
    <glyph glyph-name="uniFCCB" unicode="&#xfedf;&#xfea8;" horiz-adv-x="609" arabic-form="initial" 
d="M60 0h-73v38l13 13h60q65 0 111.5 12.5t112.5 50.5l71 39q58 33 104 50q-49 7 -92 18l-93 22q-61 15 -147 15h-65v52h95q83 0 111 27q30 29 30 105v331h45v-342q0 -59 -14.5 -92t-49.5 -48l98 -23q50 -12 106 -23q39 -6 77 -6h30v-48h-32q-34 0 -71 -15q-40 -16 -114 -61
l-69 -40q-80 -45 -128 -60t-116 -15zM149 490q0 -15 -10 -25.5t-26 -10.5q-15 0 -25 10.5t-10 25.5t10 25t25 10q16 0 26 -10t10 -25z" />
    <glyph glyph-name="uniFCCD" unicode="&#xfedf;&#xfeec;" horiz-adv-x="579" arabic-form="initial" 
d="M537 154q0 -76 -51 -119t-144 -43q-82 0 -153 34q-84 -26 -202 -26v38l13 13q61 0 135 10q-80 67 -80 160q0 68 44 115t107 47q3 0 30 -3v393h45v-390l21 -8q130 -49 183 -99q52 -49 52 -122zM100 221q0 -44 26 -82t72 -62q122 42 122 145q0 48 -33 82t-81 34
q-46 0 -76 -33t-30 -84zM365 222q0 -111 -109 -168q40 -12 89 -12q68 0 107.5 28.5t39.5 84.5q0 48 -34 83t-117 70q24 -38 24 -86z" />
    <glyph glyph-name="uniFCFB" unicode="&#xfeb3;&#xfef0;" horiz-adv-x="1315" arabic-form="isolated" 
d="M699 -39q0 -82 -97 -137t-241 -55q-301 0 -301 236q0 52 15 119h45q-15 -65 -15 -111q0 -98 63.5 -145.5t192.5 -47.5q124 0 208.5 40.5t84.5 99.5q0 33 -25.5 51.5t-85.5 28.5l-107 17q-119 19 -119 111q0 76 72.5 137t164.5 61q76 0 119 -38t70 -127l14 -47
q20 -67 42 -89q25 -23 75 -23q102 0 102 133v58h45v-67q0 -62 25.5 -93t69.5 -31q94 0 94 121q0 65 -13 136h47q11 -77 11 -136q0 -85 -36 -128.5t-103 -43.5q-107 0 -127 97q-18 -97 -118 -97q-66 0 -100 32q-32 31 -61 125l-15 48q-18 64 -52.5 91t-91.5 27
q-73 0 -131 -42.5t-58 -96.5q0 -52 86 -68l116 -19q72 -12 103.5 -44t31.5 -83z" />
    <glyph glyph-name="uniFCFC" unicode="&#xfeb3;&#xfef2;" horiz-adv-x="1315" arabic-form="isolated" 
d="M699 -39q0 -82 -97 -137t-241 -55q-301 0 -301 236q0 52 15 119h45q-15 -65 -15 -111q0 -98 63.5 -145.5t192.5 -47.5q124 0 208.5 40.5t84.5 99.5q0 33 -25.5 51.5t-85.5 28.5l-107 17q-119 19 -119 111q0 76 72.5 137t164.5 61q76 0 119 -38t70 -127l14 -47
q20 -67 42 -89q25 -23 75 -23q102 0 102 133v58h45v-67q0 -62 25.5 -93t69.5 -31q94 0 94 121q0 65 -13 136h47q11 -77 11 -136q0 -85 -36 -128.5t-103 -43.5q-107 0 -127 97q-18 -97 -118 -97q-66 0 -100 32q-32 31 -61 125l-15 48q-18 64 -52.5 91t-91.5 27
q-73 0 -131 -42.5t-58 -96.5q0 -52 86 -68l116 -19q72 -12 103.5 -44t31.5 -83zM449 -356q0 -14 -10.5 -24.5t-25.5 -10.5t-25 10.5t-10 24.5q0 15 10 25.5t25 10.5t25.5 -10.5t10.5 -25.5zM343 -356q0 -14 -10 -24.5t-25 -10.5t-25 10.5t-10 24.5q0 15 10 25.5t25 10.5
t25 -10.5t10 -25.5z" />
    <glyph glyph-name="uniFCFD" unicode="&#xfeb7;&#xfef0;" horiz-adv-x="1315" arabic-form="isolated" 
d="M1032 459q0 -15 -10 -25t-26 -10q-15 0 -25 10.5t-10 24.5q0 15 10 25.5t25 10.5q16 0 26 -10.5t10 -25.5zM978 364q0 -14 -10 -24.5t-25 -10.5t-25 10.5t-10 24.5q0 15 10 25.5t25 10.5t25 -10.5t10 -25.5zM1084 364q0 -14 -10 -24.5t-26 -10.5q-15 0 -25 10.5t-10 24.5
q0 15 10 25.5t25 10.5q16 0 26 -10.5t10 -25.5zM699 -39q0 -82 -97 -137t-241 -55q-301 0 -301 236q0 52 15 119h45q-15 -65 -15 -111q0 -98 63.5 -145.5t192.5 -47.5q124 0 208.5 40.5t84.5 99.5q0 33 -25.5 51.5t-85.5 28.5l-107 17q-119 19 -119 111q0 76 72.5 137
t164.5 61q76 0 119 -38t70 -127l14 -47q20 -67 42 -89q25 -23 75 -23q102 0 102 133v58h45v-67q0 -62 25.5 -93t69.5 -31q94 0 94 121q0 65 -13 136h47q11 -77 11 -136q0 -85 -36 -128.5t-103 -43.5q-107 0 -127 97q-18 -97 -118 -97q-66 0 -100 32q-32 31 -61 125l-15 48
q-18 64 -52.5 91t-91.5 27q-73 0 -131 -42.5t-58 -96.5q0 -52 86 -68l116 -19q72 -12 103.5 -44t31.5 -83z" />
    <glyph glyph-name="uniFCFE" unicode="&#xfeb7;&#xfef2;" horiz-adv-x="1315" arabic-form="isolated" 
d="M1032 459q0 -15 -10 -25t-26 -10q-15 0 -25 10.5t-10 24.5q0 15 10 25.5t25 10.5q16 0 26 -10.5t10 -25.5zM978 364q0 -14 -10 -24.5t-25 -10.5t-25 10.5t-10 24.5q0 15 10 25.5t25 10.5t25 -10.5t10 -25.5zM1084 364q0 -14 -10 -24.5t-26 -10.5q-15 0 -25 10.5t-10 24.5
q0 15 10 25.5t25 10.5q16 0 26 -10.5t10 -25.5zM699 -39q0 -82 -97 -137t-241 -55q-301 0 -301 236q0 52 15 119h45q-15 -65 -15 -111q0 -98 63.5 -145.5t192.5 -47.5q124 0 208.5 40.5t84.5 99.5q0 33 -25.5 51.5t-85.5 28.5l-107 17q-119 19 -119 111q0 76 72.5 137
t164.5 61q76 0 119 -38t70 -127l14 -47q20 -67 42 -89q25 -23 75 -23q102 0 102 133v58h45v-67q0 -62 25.5 -93t69.5 -31q94 0 94 121q0 65 -13 136h47q11 -77 11 -136q0 -85 -36 -128.5t-103 -43.5q-107 0 -127 97q-18 -97 -118 -97q-66 0 -100 32q-32 31 -61 125l-15 48
q-18 64 -52.5 91t-91.5 27q-73 0 -131 -42.5t-58 -96.5q0 -52 86 -68l116 -19q72 -12 103.5 -44t31.5 -83zM449 -356q0 -14 -10.5 -24.5t-25.5 -10.5t-25 10.5t-10 24.5q0 15 10 25.5t25 10.5t25.5 -10.5t10.5 -25.5zM343 -356q0 -14 -10 -24.5t-25 -10.5t-25 10.5t-10 24.5
q0 15 10 25.5t25 10.5t25 -10.5t10 -25.5z" />
    <glyph glyph-name="uniFCFF" unicode="&#xfea3;&#xfef0;" horiz-adv-x="1002" arabic-form="isolated" 
d="M695 -59q0 -77 -88.5 -124.5t-235.5 -47.5q-311 0 -311 235q0 53 15 120h45q-15 -67 -15 -112q0 -192 266 -192q125 0 202 32.5t77 88.5q0 34 -30.5 57t-89.5 23h-79v51l244 90q105 38 147 46q-38 11 -91 35l-103 49q-70 31 -101 31q-55 0 -68 -61h-45q5 52 35.5 82
t78.5 30q44 0 122 -36l97 -46q67 -32 104.5 -42.5t79.5 -10.5h33v-48h-24q-14 0 -29 -2t-33.5 -6.5t-32.5 -8.5t-38.5 -12t-36 -12.5l-40 -15t-38.5 -13.5l-163 -61q70 -5 108 -38.5t38 -80.5z" />
    <glyph glyph-name="uniFD00" unicode="&#xfea3;&#xfef2;" horiz-adv-x="1002" arabic-form="isolated" 
d="M695 -59q0 -77 -88.5 -124.5t-235.5 -47.5q-311 0 -311 235q0 53 15 120h45q-15 -67 -15 -112q0 -192 266 -192q125 0 202 32.5t77 88.5q0 34 -30.5 57t-89.5 23h-79v51l244 90q105 38 147 46q-38 11 -91 35l-103 49q-70 31 -101 31q-55 0 -68 -61h-45q5 52 35.5 82
t78.5 30q44 0 122 -36l97 -46q67 -32 104.5 -42.5t79.5 -10.5h33v-48h-24q-14 0 -29 -2t-33.5 -6.5t-32.5 -8.5t-38.5 -12t-36 -12.5l-40 -15t-38.5 -13.5l-163 -61q70 -5 108 -38.5t38 -80.5zM465 -356q0 -15 -10 -25t-26 -10q-15 0 -25 10t-10 25t10 25t25 10q16 0 26 -10
t10 -25zM359 -356q0 -15 -10 -25t-25 -10t-25 10t-10 25t10 25t25 10t25 -10t10 -25z" />
    <glyph glyph-name="uniFD01" unicode="&#xfe9f;&#xfef0;" horiz-adv-x="1002" arabic-form="isolated" 
d="M695 -59q0 -77 -88.5 -124.5t-235.5 -47.5q-311 0 -311 235q0 53 15 120h45q-15 -67 -15 -112q0 -192 266 -192q125 0 202 32.5t77 88.5q0 34 -30.5 57t-89.5 23h-79v51l244 90q105 38 147 46q-38 11 -91 35l-103 49q-70 31 -101 31q-55 0 -68 -61h-45q5 52 35.5 82
t78.5 30q44 0 122 -36l97 -46q67 -32 104.5 -42.5t79.5 -10.5h33v-48h-24q-14 0 -29 -2t-33.5 -6.5t-32.5 -8.5t-38.5 -12t-36 -12.5l-40 -15t-38.5 -13.5l-163 -61q70 -5 108 -38.5t38 -80.5zM877 -85q0 -14 -10.5 -24.5t-25.5 -10.5t-25 10.5t-10 24.5q0 15 10 25.5
t25 10.5t25.5 -10.5t10.5 -25.5z" />
    <glyph glyph-name="uniFD02" unicode="&#xfe9f;&#xfef2;" horiz-adv-x="1002" arabic-form="isolated" 
d="M695 -59q0 -77 -88.5 -124.5t-235.5 -47.5q-311 0 -311 235q0 53 15 120h45q-15 -67 -15 -112q0 -192 266 -192q125 0 202 32.5t77 88.5q0 34 -30.5 57t-89.5 23h-79v51l244 90q105 38 147 46q-38 11 -91 35l-103 49q-70 31 -101 31q-55 0 -68 -61h-45q5 52 35.5 82
t78.5 30q44 0 122 -36l97 -46q67 -32 104.5 -42.5t79.5 -10.5h33v-48h-24q-14 0 -29 -2t-33.5 -6.5t-32.5 -8.5t-38.5 -12t-36 -12.5l-40 -15t-38.5 -13.5l-163 -61q70 -5 108 -38.5t38 -80.5zM877 -85q0 -14 -10.5 -24.5t-25.5 -10.5t-25 10.5t-10 24.5q0 15 10 25.5
t25 10.5t25.5 -10.5t10.5 -25.5zM465 -356q0 -15 -10 -25t-26 -10q-15 0 -25 10t-10 25t10 25t25 10q16 0 26 -10t10 -25zM359 -356q0 -15 -10 -25t-25 -10t-25 10t-10 25t10 25t25 10t25 -10t10 -25z" />
    <glyph glyph-name="uniFD03" unicode="&#xfea7;&#xfef0;" horiz-adv-x="1002" arabic-form="isolated" 
d="M612 494q0 -14 -10 -24.5t-25 -10.5t-25 10.5t-10 24.5q0 15 10 25.5t25 10.5t25 -10.5t10 -25.5zM695 -59q0 -77 -88.5 -124.5t-235.5 -47.5q-311 0 -311 235q0 53 15 120h45q-15 -67 -15 -112q0 -192 266 -192q125 0 202 32.5t77 88.5q0 34 -30.5 57t-89.5 23h-79v51
l244 90q105 38 147 46q-38 11 -91 35l-103 49q-70 31 -101 31q-55 0 -68 -61h-45q5 52 35.5 82t78.5 30q44 0 122 -36l97 -46q67 -32 104.5 -42.5t79.5 -10.5h33v-48h-24q-14 0 -29 -2t-33.5 -6.5t-32.5 -8.5t-38.5 -12t-36 -12.5l-40 -15t-38.5 -13.5l-163 -61
q70 -5 108 -38.5t38 -80.5z" />
    <glyph glyph-name="uniFD04" unicode="&#xfea7;&#xfef2;" horiz-adv-x="1002" arabic-form="isolated" 
d="M612 494q0 -14 -10 -24.5t-25 -10.5t-25 10.5t-10 24.5q0 15 10 25.5t25 10.5t25 -10.5t10 -25.5zM695 -59q0 -77 -88.5 -124.5t-235.5 -47.5q-311 0 -311 235q0 53 15 120h45q-15 -67 -15 -112q0 -192 266 -192q125 0 202 32.5t77 88.5q0 34 -30.5 57t-89.5 23h-79v51
l244 90q105 38 147 46q-38 11 -91 35l-103 49q-70 31 -101 31q-55 0 -68 -61h-45q5 52 35.5 82t78.5 30q44 0 122 -36l97 -46q67 -32 104.5 -42.5t79.5 -10.5h33v-48h-24q-14 0 -29 -2t-33.5 -6.5t-32.5 -8.5t-38.5 -12t-36 -12.5l-40 -15t-38.5 -13.5l-163 -61
q70 -5 108 -38.5t38 -80.5zM465 -356q0 -15 -10 -25t-26 -10q-15 0 -25 10t-10 25t10 25t25 10q16 0 26 -10t10 -25zM359 -356q0 -15 -10 -25t-25 -10t-25 10t-10 25t10 25t25 10t25 -10t10 -25z" />
    <glyph glyph-name="uniFD05" unicode="&#xfebb;&#xfef0;" horiz-adv-x="1362" arabic-form="isolated" 
d="M699 -39q0 -82 -97 -137t-241 -55q-301 0 -301 236q0 52 15 119h45q-15 -65 -15 -111q0 -98 63.5 -145.5t192.5 -47.5q124 0 208.5 40.5t84.5 99.5q0 33 -25.5 51.5t-85.5 28.5l-107 17q-119 19 -119 111q0 76 72.5 137t164.5 61q75 0 116.5 -37.5t71.5 -127.5l15 -47
q14 -49 41 -73q53 134 142 213q91 80 198 80q90 0 135 -51.5t45 -121.5q0 -211 -348 -209q-124 0 -177 31.5t-83 124.5l-16 48q-20 65 -53 91.5t-90 26.5q-73 0 -131 -42.5t-58 -96.5q0 -52 86 -68l116 -19q72 -12 103.5 -44t31.5 -83zM1136 322q-95 0 -175 -71
q-77 -69 -128 -190q46 -18 150 -18q290 0 290 158q0 51 -36 86t-101 35z" />
    <glyph glyph-name="uniFD06" unicode="&#xfebb;&#xfef2;" horiz-adv-x="1362" arabic-form="isolated" 
d="M699 -39q0 -82 -97 -137t-241 -55q-301 0 -301 236q0 52 15 119h45q-15 -65 -15 -111q0 -98 63.5 -145.5t192.5 -47.5q124 0 208.5 40.5t84.5 99.5q0 33 -25.5 51.5t-85.5 28.5l-107 17q-119 19 -119 111q0 76 72.5 137t164.5 61q75 0 116.5 -37.5t71.5 -127.5l15 -47
q14 -49 41 -73q53 134 142 213q91 80 198 80q90 0 135 -51.5t45 -121.5q0 -211 -348 -209q-124 0 -177 31.5t-83 124.5l-16 48q-20 65 -53 91.5t-90 26.5q-73 0 -131 -42.5t-58 -96.5q0 -52 86 -68l116 -19q72 -12 103.5 -44t31.5 -83zM1136 322q-95 0 -175 -71
q-77 -69 -128 -190q46 -18 150 -18q290 0 290 158q0 51 -36 86t-101 35zM449 -356q0 -14 -10.5 -24.5t-25.5 -10.5t-25 10.5t-10 24.5q0 15 10 25.5t25 10.5t25.5 -10.5t10.5 -25.5zM343 -356q0 -14 -10 -24.5t-25 -10.5t-25 10.5t-10 24.5q0 15 10 25.5t25 10.5t25 -10.5
t10 -25.5z" />
    <glyph glyph-name="uniFD07" unicode="&#xfebf;&#xfef0;" horiz-adv-x="1362" arabic-form="isolated" 
d="M1147 494q0 -14 -10.5 -24.5t-25.5 -10.5t-25 10.5t-10 24.5q0 15 10 25.5t25 10.5q16 0 26 -10.5t10 -25.5zM699 -39q0 -82 -97 -137t-241 -55q-301 0 -301 236q0 52 15 119h45q-15 -65 -15 -111q0 -98 63.5 -145.5t192.5 -47.5q124 0 208.5 40.5t84.5 99.5
q0 33 -25.5 51.5t-85.5 28.5l-107 17q-119 19 -119 111q0 76 72.5 137t164.5 61q75 0 116.5 -37.5t71.5 -127.5l15 -47q14 -49 41 -73q53 134 142 213q91 80 198 80q90 0 135 -51.5t45 -121.5q0 -211 -348 -209q-124 0 -177 31.5t-83 124.5l-16 48q-20 65 -53 91.5t-90 26.5
q-73 0 -131 -42.5t-58 -96.5q0 -52 86 -68l116 -19q72 -12 103.5 -44t31.5 -83zM1136 322q-95 0 -175 -71q-77 -69 -128 -190q46 -18 150 -18q290 0 290 158q0 51 -36 86t-101 35z" />
    <glyph glyph-name="uniFD08" unicode="&#xfebf;&#xfef2;" horiz-adv-x="1362" arabic-form="isolated" 
d="M1147 494q0 -14 -10.5 -24.5t-25.5 -10.5t-25 10.5t-10 24.5q0 15 10 25.5t25 10.5q16 0 26 -10.5t10 -25.5zM699 -39q0 -82 -97 -137t-241 -55q-301 0 -301 236q0 52 15 119h45q-15 -65 -15 -111q0 -98 63.5 -145.5t192.5 -47.5q124 0 208.5 40.5t84.5 99.5
q0 33 -25.5 51.5t-85.5 28.5l-107 17q-119 19 -119 111q0 76 72.5 137t164.5 61q75 0 116.5 -37.5t71.5 -127.5l15 -47q14 -49 41 -73q53 134 142 213q91 80 198 80q90 0 135 -51.5t45 -121.5q0 -211 -348 -209q-124 0 -177 31.5t-83 124.5l-16 48q-20 65 -53 91.5t-90 26.5
q-73 0 -131 -42.5t-58 -96.5q0 -52 86 -68l116 -19q72 -12 103.5 -44t31.5 -83zM1136 322q-95 0 -175 -71q-77 -69 -128 -190q46 -18 150 -18q290 0 290 158q0 51 -36 86t-101 35zM449 -356q0 -14 -10.5 -24.5t-25.5 -10.5t-25 10.5t-10 24.5q0 15 10 25.5t25 10.5
t25.5 -10.5t10.5 -25.5zM343 -356q0 -14 -10 -24.5t-25 -10.5t-25 10.5t-10 24.5q0 15 10 25.5t25 10.5t25 -10.5t10 -25.5z" />
    <glyph glyph-name="uniFD0D" unicode="&#xfeb7;&#xfeae;" horiz-adv-x="987" arabic-form="isolated" 
d="M705 449q0 -15 -10 -25.5t-26 -10.5q-15 0 -25 10.5t-10 25.5q0 14 10 24.5t25 10.5t25.5 -10t10.5 -25zM652 354q0 -15 -10.5 -25.5t-25.5 -10.5t-25 10.5t-10 25.5q0 14 10 24.5t25 10.5t25.5 -10.5t10.5 -24.5zM757 354q0 -15 -10 -25.5t-26 -10.5q-15 0 -25 10.5
t-10 25.5q0 14 10 24.5t25 10.5t25.5 -10.5t10.5 -24.5zM220 57q0 -145 -49 -214t-150 -69q-43 0 -87 10v52q45 -11 84 -11q80 0 118 56.5t38 175.5q0 44 -6 106l-11 103l272 33l14 -139q7 -66 31 -92t77 -26q97 0 97 128v63h45v-67q0 -62 25.5 -93t69.5 -31q94 0 94 121
q0 60 -14 136h48q11 -77 11 -136q0 -85 -36 -128.5t-103 -43.5q-49 0 -82.5 25t-44.5 70q-16 -95 -116 -95q-72 0 -105 36.5t-42 126.5l-9 88l-181 -22l6 -53q6 -62 6 -110z" />
    <glyph glyph-name="uniFD0E" unicode="&#xfeb3;&#xfeae;" horiz-adv-x="987" arabic-form="isolated" 
d="M220 57q0 -145 -49 -214t-150 -69q-43 0 -87 10v52q45 -11 84 -11q80 0 118 56.5t38 175.5q0 44 -6 106l-11 103l272 33l14 -139q7 -66 31 -92t77 -26q97 0 97 128v63h45v-67q0 -62 25.5 -93t69.5 -31q94 0 94 121q0 60 -14 136h48q11 -77 11 -136q0 -85 -36 -128.5
t-103 -43.5q-49 0 -82.5 25t-44.5 70q-16 -95 -116 -95q-72 0 -105 36.5t-42 126.5l-9 88l-181 -22l6 -53q6 -62 6 -110z" />
    <glyph glyph-name="uniFD0F" unicode="&#xfebb;&#xfeae;" horiz-adv-x="1069" arabic-form="isolated" 
d="M220 57q0 -145 -49 -214t-150 -69q-43 0 -87 10v52q45 -11 84 -11q80 0 118 56.5t38 175.5q0 41 -5 101l-15 142l272 31l17 -171q8 -68 46 -91q53 140 148 222.5t208 82.5q89 0 134 -51.5t45 -121.5q0 -210 -391 -210q-120 0 -173 35q-51 35 -62 128l-12 121l-182 -22
l10 -90q6 -55 6 -106zM842 322q-100 0 -183 -73q-84 -73 -133 -196q40 -11 118 -11q335 0 335 159q0 51 -35.5 86t-101.5 35z" />
    <glyph glyph-name="uniFD10" unicode="&#xfebf;&#xfeae;" horiz-adv-x="1069" arabic-form="isolated" 
d="M864 494q0 -14 -10 -24.5t-25 -10.5t-25.5 10.5t-10.5 24.5q0 15 10 25.5t26 10.5q15 0 25 -10.5t10 -25.5zM220 57q0 -145 -49 -214t-150 -69q-43 0 -87 10v52q45 -11 84 -11q80 0 118 56.5t38 175.5q0 41 -5 101l-15 142l272 31l17 -171q8 -68 46 -91q53 140 148 222.5
t208 82.5q89 0 134 -51.5t45 -121.5q0 -210 -391 -210q-120 0 -173 35q-51 35 -62 128l-12 121l-182 -22l10 -90q6 -55 6 -106zM842 322q-100 0 -183 -73q-84 -73 -133 -196q40 -11 118 -11q335 0 335 159q0 51 -35.5 86t-101.5 35z" />
    <glyph glyph-name="uniFD13" unicode="&#xfecc;&#xfef0;" horiz-adv-x="1033" arabic-form="final" 
d="M696 -73q0 -65 -84 -111q-83 -47 -246 -47q-306 0 -306 236q0 52 15 119h45q-15 -65 -15 -111q0 -193 261 -193q136 0 210 30.5t74 79.5q0 33 -33 51.5t-97 18.5h-25v51l82 4q64 4 126 16q-59 50 -125 166l-28 49v52q122 36 230 36q195 0 196 -131q1 -52 -39 -98.5
t-112 -79.5q61 -14 142 -14h66v-38l-13 -13h-53q-138 0 -213 38q-52 -17 -120 -28q62 -27 62 -83zM596 299l18 -34q40 -71 75 -113t78 -64q80 24 122.5 64.5t41.5 87.5q-1 83 -151 83q-89 0 -184 -24z" />
    <glyph glyph-name="uniFD14" unicode="&#xfecc;&#xfef2;" horiz-adv-x="1033" arabic-form="final" 
d="M696 -73q0 -65 -84 -111q-83 -47 -246 -47q-306 0 -306 236q0 52 15 119h45q-15 -65 -15 -111q0 -193 261 -193q136 0 210 30.5t74 79.5q0 33 -33 51.5t-97 18.5h-25v51l82 4q64 4 126 16q-59 50 -125 166l-28 49v52q122 36 230 36q195 0 196 -131q1 -52 -39 -98.5
t-112 -79.5q61 -14 142 -14h66v-38l-13 -13h-53q-138 0 -213 38q-52 -17 -120 -28q62 -27 62 -83zM596 299l18 -34q40 -71 75 -113t78 -64q80 24 122.5 64.5t41.5 87.5q-1 83 -151 83q-89 0 -184 -24zM454 -356q0 -14 -10 -24.5t-25 -10.5t-25.5 10.5t-10.5 24.5
q0 15 10 25.5t26 10.5q15 0 25 -10.5t10 -25.5zM349 -356q0 -14 -10.5 -24.5t-25.5 -10.5t-25 10.5t-10 24.5q0 15 10 25.5t25 10.5q16 0 26 -10.5t10 -25.5z" />
    <glyph glyph-name="uniFD15" unicode="&#xfed0;&#xfef0;" horiz-adv-x="1033" arabic-form="final" 
d="M804 494q0 -14 -10 -24.5t-25 -10.5t-25 10.5t-10 24.5q0 15 10 25.5t25 10.5t25 -10.5t10 -25.5zM696 -73q0 -65 -84 -111q-83 -47 -246 -47q-306 0 -306 236q0 52 15 119h45q-15 -65 -15 -111q0 -193 261 -193q136 0 210 30.5t74 79.5q0 33 -33 51.5t-97 18.5h-25v51
l82 4q64 4 126 16q-59 50 -125 166l-28 49v52q122 36 230 36q195 0 196 -131q1 -52 -39 -98.5t-112 -79.5q61 -14 142 -14h66v-38l-13 -13h-53q-138 0 -213 38q-52 -17 -120 -28q62 -27 62 -83zM596 299l18 -34q40 -71 75 -113t78 -64q80 24 122.5 64.5t41.5 87.5
q-1 83 -151 83q-89 0 -184 -24z" />
    <glyph glyph-name="uniFD16" unicode="&#xfed0;&#xfef2;" horiz-adv-x="1033" arabic-form="final" 
d="M804 494q0 -14 -10 -24.5t-25 -10.5t-25 10.5t-10 24.5q0 15 10 25.5t25 10.5t25 -10.5t10 -25.5zM696 -73q0 -65 -84 -111q-83 -47 -246 -47q-306 0 -306 236q0 52 15 119h45q-15 -65 -15 -111q0 -193 261 -193q136 0 210 30.5t74 79.5q0 33 -33 51.5t-97 18.5h-25v51
l82 4q64 4 126 16q-59 50 -125 166l-28 49v52q122 36 230 36q195 0 196 -131q1 -52 -39 -98.5t-112 -79.5q61 -14 142 -14h66v-38l-13 -13h-53q-138 0 -213 38q-52 -17 -120 -28q62 -27 62 -83zM596 299l18 -34q40 -71 75 -113t78 -64q80 24 122.5 64.5t41.5 87.5
q-1 83 -151 83q-89 0 -184 -24zM454 -356q0 -14 -10 -24.5t-25 -10.5t-25.5 10.5t-10.5 24.5q0 15 10 25.5t26 10.5q15 0 25 -10.5t10 -25.5zM349 -356q0 -14 -10.5 -24.5t-25.5 -10.5t-25 10.5t-10 24.5q0 15 10 25.5t25 10.5q16 0 26 -10.5t10 -25.5z" />
    <glyph glyph-name="uniFD17" unicode="&#xfeb4;&#xfef0;" horiz-adv-x="1381" arabic-form="final" 
d="M743 201l14 -47q20 -67 42 -89q25 -23 75 -23q102 0 102 133v58h45v-67q0 -124 93 -124q101 0 101 128v96h45v-100q0 -115 121 -115v-38l-13 -13q-117 0 -140 89q-10 -47 -41.5 -72.5t-77.5 -25.5q-100 0 -120 96q-18 -96 -118 -96q-66 0 -100 32q-32 31 -61 125l-15 48
q-18 64 -52.5 91t-91.5 27q-73 0 -131 -42.5t-58 -96.5q0 -52 86 -68l116 -19q72 -12 103.5 -44t31.5 -83q0 -82 -97 -137t-241 -55q-301 0 -301 236q0 52 15 119h45q-15 -65 -15 -111q0 -98 63.5 -145.5t192.5 -47.5q124 0 208.5 40.5t84.5 99.5q0 33 -25.5 51.5
t-85.5 28.5l-107 17q-119 19 -119 111q0 76 72.5 137t164.5 61q76 0 119 -38t70 -127z" />
    <glyph glyph-name="uniFD18" unicode="&#xfeb4;&#xfef2;" horiz-adv-x="1381" arabic-form="final" 
d="M743 201l14 -47q20 -67 42 -89q25 -23 75 -23q102 0 102 133v58h45v-67q0 -124 93 -124q101 0 101 128v96h45v-100q0 -115 121 -115v-38l-13 -13q-117 0 -140 89q-10 -47 -41.5 -72.5t-77.5 -25.5q-100 0 -120 96q-18 -96 -118 -96q-66 0 -100 32q-32 31 -61 125l-15 48
q-18 64 -52.5 91t-91.5 27q-73 0 -131 -42.5t-58 -96.5q0 -52 86 -68l116 -19q72 -12 103.5 -44t31.5 -83q0 -82 -97 -137t-241 -55q-301 0 -301 236q0 52 15 119h45q-15 -65 -15 -111q0 -98 63.5 -145.5t192.5 -47.5q124 0 208.5 40.5t84.5 99.5q0 33 -25.5 51.5
t-85.5 28.5l-107 17q-119 19 -119 111q0 76 72.5 137t164.5 61q76 0 119 -38t70 -127zM449 -356q0 -14 -10.5 -24.5t-25.5 -10.5t-25 10.5t-10 24.5q0 15 10 25.5t25 10.5t25.5 -10.5t10.5 -25.5zM343 -356q0 -14 -10 -24.5t-25 -10.5t-25 10.5t-10 24.5q0 15 10 25.5
t25 10.5t25 -10.5t10 -25.5z" />
    <glyph glyph-name="uniFD19" unicode="&#xfeb8;&#xfef0;" horiz-adv-x="1381" arabic-form="final" 
d="M1033 459q0 -14 -10 -24.5t-25 -10.5t-25 10.5t-10 24.5q0 15 10 25.5t25 10.5t25 -10.5t10 -25.5zM980 364q0 -14 -10 -24.5t-25 -10.5t-25.5 10.5t-10.5 24.5q0 15 10 25.5t26 10.5q15 0 25 -10.5t10 -25.5zM1085 364q0 -14 -10 -24.5t-25 -10.5t-25 10.5t-10 24.5
q0 15 10 25.5t25 10.5t25 -10.5t10 -25.5zM743 201l14 -47q20 -67 42 -89q25 -23 75 -23q102 0 102 133v58h45v-67q0 -124 93 -124q101 0 101 128v96h45v-100q0 -115 121 -115v-38l-13 -13q-117 0 -140 89q-10 -47 -41.5 -72.5t-77.5 -25.5q-100 0 -120 96q-18 -96 -118 -96
q-66 0 -100 32q-32 31 -61 125l-15 48q-18 64 -52.5 91t-91.5 27q-73 0 -131 -42.5t-58 -96.5q0 -52 86 -68l116 -19q72 -12 103.5 -44t31.5 -83q0 -82 -97 -137t-241 -55q-301 0 -301 236q0 52 15 119h45q-15 -65 -15 -111q0 -98 63.5 -145.5t192.5 -47.5q124 0 208.5 40.5
t84.5 99.5q0 33 -25.5 51.5t-85.5 28.5l-107 17q-119 19 -119 111q0 76 72.5 137t164.5 61q76 0 119 -38t70 -127z" />
    <glyph glyph-name="uniFD1A" unicode="&#xfeb8;&#xfef2;" horiz-adv-x="1381" arabic-form="final" 
d="M1033 459q0 -14 -10 -24.5t-25 -10.5t-25 10.5t-10 24.5q0 15 10 25.5t25 10.5t25 -10.5t10 -25.5zM980 364q0 -14 -10 -24.5t-25 -10.5t-25.5 10.5t-10.5 24.5q0 15 10 25.5t26 10.5q15 0 25 -10.5t10 -25.5zM1085 364q0 -14 -10 -24.5t-25 -10.5t-25 10.5t-10 24.5
q0 15 10 25.5t25 10.5t25 -10.5t10 -25.5zM743 201l14 -47q20 -67 42 -89q25 -23 75 -23q102 0 102 133v58h45v-67q0 -124 93 -124q101 0 101 128v96h45v-100q0 -115 121 -115v-38l-13 -13q-117 0 -140 89q-10 -47 -41.5 -72.5t-77.5 -25.5q-100 0 -120 96q-18 -96 -118 -96
q-66 0 -100 32q-32 31 -61 125l-15 48q-18 64 -52.5 91t-91.5 27q-73 0 -131 -42.5t-58 -96.5q0 -52 86 -68l116 -19q72 -12 103.5 -44t31.5 -83q0 -82 -97 -137t-241 -55q-301 0 -301 236q0 52 15 119h45q-15 -65 -15 -111q0 -98 63.5 -145.5t192.5 -47.5q124 0 208.5 40.5
t84.5 99.5q0 33 -25.5 51.5t-85.5 28.5l-107 17q-119 19 -119 111q0 76 72.5 137t164.5 61q76 0 119 -38t70 -127zM449 -356q0 -14 -10.5 -24.5t-25.5 -10.5t-25 10.5t-10 24.5q0 15 10 25.5t25 10.5t25.5 -10.5t10.5 -25.5zM343 -356q0 -14 -10 -24.5t-25 -10.5t-25 10.5
t-10 24.5q0 15 10 25.5t25 10.5t25 -10.5t10 -25.5z" />
    <glyph glyph-name="uniFD1B" unicode="&#xfea4;&#xfef0;" horiz-adv-x="1034" arabic-form="final" 
d="M695 -59q0 -77 -88.5 -124.5t-235.5 -47.5q-311 0 -311 235q0 53 15 120h45q-15 -67 -15 -112q0 -192 266 -192q125 0 202 32.5t77 88.5q0 34 -30.5 57t-89.5 23h-79v51l244 90q105 38 147 46q-38 11 -91 35l-103 49q-70 31 -101 31q-55 0 -68 -61h-45q5 52 35.5 82
t78.5 30q44 0 122 -36l97 -46q67 -32 104.5 -42.5t79.5 -10.5h33v-48h-24q-20 0 -48 -5l1 -39q4 -53 32 -74.5t89 -21.5v-38l-14 -13q-78 0 -113 33.5t-40 111.5v30q-40 -11 -155 -54l-163 -61q70 -5 108 -38.5t38 -80.5z" />
    <glyph glyph-name="uniFD1C" unicode="&#xfea4;&#xfef2;" horiz-adv-x="1034" arabic-form="final" 
d="M695 -59q0 -77 -88.5 -124.5t-235.5 -47.5q-311 0 -311 235q0 53 15 120h45q-15 -67 -15 -112q0 -192 266 -192q125 0 202 32.5t77 88.5q0 34 -30.5 57t-89.5 23h-79v51l244 90q105 38 147 46q-38 11 -91 35l-103 49q-70 31 -101 31q-55 0 -68 -61h-45q5 52 35.5 82
t78.5 30q44 0 122 -36l97 -46q67 -32 104.5 -42.5t79.5 -10.5h33v-48h-24q-20 0 -48 -5l1 -39q4 -53 32 -74.5t89 -21.5v-38l-14 -13q-78 0 -113 33.5t-40 111.5v30q-40 -11 -155 -54l-163 -61q70 -5 108 -38.5t38 -80.5zM465 -356q0 -15 -10 -25t-26 -10q-15 0 -25 10
t-10 25t10 25t25 10q16 0 26 -10t10 -25zM359 -356q0 -15 -10 -25t-25 -10t-25 10t-10 25t10 25t25 10t25 -10t10 -25z" />
    <glyph glyph-name="uniFD1D" unicode="&#xfea0;&#xfef0;" horiz-adv-x="1034" arabic-form="final" 
d="M695 -59q0 -77 -88.5 -124.5t-235.5 -47.5q-311 0 -311 235q0 53 15 120h45q-15 -67 -15 -112q0 -192 266 -192q125 0 202 32.5t77 88.5q0 34 -30.5 57t-89.5 23h-79v51l244 90q105 38 147 46q-38 11 -91 35l-103 49q-70 31 -101 31q-55 0 -68 -61h-45q5 52 35.5 82
t78.5 30q44 0 122 -36l97 -46q67 -32 104.5 -42.5t79.5 -10.5h33v-48h-24q-20 0 -48 -5l1 -39q4 -53 32 -74.5t89 -21.5v-38l-14 -13q-78 0 -113 33.5t-40 111.5v30q-40 -11 -155 -54l-163 -61q70 -5 108 -38.5t38 -80.5zM877 -85q0 -14 -10.5 -24.5t-25.5 -10.5t-25 10.5
t-10 24.5q0 15 10 25.5t25 10.5t25.5 -10.5t10.5 -25.5z" />
    <glyph glyph-name="uniFD1E" unicode="&#xfea0;&#xfef2;" horiz-adv-x="1034" arabic-form="final" 
d="M695 -59q0 -77 -88.5 -124.5t-235.5 -47.5q-311 0 -311 235q0 53 15 120h45q-15 -67 -15 -112q0 -192 266 -192q125 0 202 32.5t77 88.5q0 34 -30.5 57t-89.5 23h-79v51l244 90q105 38 147 46q-38 11 -91 35l-103 49q-70 31 -101 31q-55 0 -68 -61h-45q5 52 35.5 82
t78.5 30q44 0 122 -36l97 -46q67 -32 104.5 -42.5t79.5 -10.5h33v-48h-24q-20 0 -48 -5l1 -39q4 -53 32 -74.5t89 -21.5v-38l-14 -13q-78 0 -113 33.5t-40 111.5v30q-40 -11 -155 -54l-163 -61q70 -5 108 -38.5t38 -80.5zM877 -85q0 -14 -10.5 -24.5t-25.5 -10.5t-25 10.5
t-10 24.5q0 15 10 25.5t25 10.5t25.5 -10.5t10.5 -25.5zM465 -356q0 -15 -10 -25t-26 -10q-15 0 -25 10t-10 25t10 25t25 10q16 0 26 -10t10 -25zM359 -356q0 -15 -10 -25t-25 -10t-25 10t-10 25t10 25t25 10t25 -10t10 -25z" />
    <glyph glyph-name="uniFD1F" unicode="&#xfea8;&#xfef0;" horiz-adv-x="1034" arabic-form="final" 
d="M612 494q0 -14 -10 -24.5t-25 -10.5t-25 10.5t-10 24.5q0 15 10 25.5t25 10.5t25 -10.5t10 -25.5zM695 -59q0 -77 -88.5 -124.5t-235.5 -47.5q-311 0 -311 235q0 53 15 120h45q-15 -67 -15 -112q0 -192 266 -192q125 0 202 32.5t77 88.5q0 34 -30.5 57t-89.5 23h-79v51
l244 90q105 38 147 46q-38 11 -91 35l-103 49q-70 31 -101 31q-55 0 -68 -61h-45q5 52 35.5 82t78.5 30q44 0 122 -36l97 -46q67 -32 104.5 -42.5t79.5 -10.5h33v-48h-24q-20 0 -48 -5l1 -39q4 -53 32 -74.5t89 -21.5v-38l-14 -13q-78 0 -113 33.5t-40 111.5v30
q-40 -11 -155 -54l-163 -61q70 -5 108 -38.5t38 -80.5z" />
    <glyph glyph-name="uniFD20" unicode="&#xfea8;&#xfef2;" horiz-adv-x="1034" arabic-form="final" 
d="M612 494q0 -14 -10 -24.5t-25 -10.5t-25 10.5t-10 24.5q0 15 10 25.5t25 10.5t25 -10.5t10 -25.5zM695 -59q0 -77 -88.5 -124.5t-235.5 -47.5q-311 0 -311 235q0 53 15 120h45q-15 -67 -15 -112q0 -192 266 -192q125 0 202 32.5t77 88.5q0 34 -30.5 57t-89.5 23h-79v51
l244 90q105 38 147 46q-38 11 -91 35l-103 49q-70 31 -101 31q-55 0 -68 -61h-45q5 52 35.5 82t78.5 30q44 0 122 -36l97 -46q67 -32 104.5 -42.5t79.5 -10.5h33v-48h-24q-20 0 -48 -5l1 -39q4 -53 32 -74.5t89 -21.5v-38l-14 -13q-78 0 -113 33.5t-40 111.5v30
q-40 -11 -155 -54l-163 -61q70 -5 108 -38.5t38 -80.5zM465 -356q0 -15 -10 -25t-26 -10q-15 0 -25 10t-10 25t10 25t25 10q16 0 26 -10t10 -25zM359 -356q0 -15 -10 -25t-25 -10t-25 10t-10 25t10 25t25 10t25 -10t10 -25z" />
    <glyph glyph-name="uniFD21" unicode="&#xfebc;&#xfef0;" horiz-adv-x="1409" arabic-form="final" 
d="M699 -39q0 -82 -97 -137t-241 -55q-301 0 -301 236q0 52 15 119h45q-15 -65 -15 -111q0 -98 63.5 -145.5t192.5 -47.5q124 0 208.5 40.5t84.5 99.5q0 33 -25.5 51.5t-85.5 28.5l-107 17q-119 19 -119 111q0 76 72.5 137t164.5 61q75 0 116.5 -37.5t71.5 -127.5l15 -47
q14 -49 41 -73q53 134 142 213q91 80 198 80q90 0 135 -51.5t45 -121.5q0 -68 -34 -111q36 -39 125 -39v-38l-13 -13q-95 0 -146 57q-86 -67 -280 -65q-124 0 -177 31.5t-83 124.5l-16 48q-20 65 -53 91.5t-90 26.5q-73 0 -131 -42.5t-58 -96.5q0 -52 86 -68l116 -19
q72 -12 103.5 -44t31.5 -83zM1136 322q-95 0 -175 -71q-77 -69 -128 -190q46 -18 150 -18q290 0 290 158q0 51 -36 86t-101 35z" />
    <glyph glyph-name="uniFD22" unicode="&#xfebc;&#xfef2;" horiz-adv-x="1409" arabic-form="final" 
d="M699 -39q0 -82 -97 -137t-241 -55q-301 0 -301 236q0 52 15 119h45q-15 -65 -15 -111q0 -98 63.5 -145.5t192.5 -47.5q124 0 208.5 40.5t84.5 99.5q0 33 -25.5 51.5t-85.5 28.5l-107 17q-119 19 -119 111q0 76 72.5 137t164.5 61q75 0 116.5 -37.5t71.5 -127.5l15 -47
q14 -49 41 -73q53 134 142 213q91 80 198 80q90 0 135 -51.5t45 -121.5q0 -68 -34 -111q36 -39 125 -39v-38l-13 -13q-95 0 -146 57q-86 -67 -280 -65q-124 0 -177 31.5t-83 124.5l-16 48q-20 65 -53 91.5t-90 26.5q-73 0 -131 -42.5t-58 -96.5q0 -52 86 -68l116 -19
q72 -12 103.5 -44t31.5 -83zM1136 322q-95 0 -175 -71q-77 -69 -128 -190q46 -18 150 -18q290 0 290 158q0 51 -36 86t-101 35zM449 -356q0 -14 -10.5 -24.5t-25.5 -10.5t-25 10.5t-10 24.5q0 15 10 25.5t25 10.5t25.5 -10.5t10.5 -25.5zM343 -356q0 -14 -10 -24.5
t-25 -10.5t-25 10.5t-10 24.5q0 15 10 25.5t25 10.5t25 -10.5t10 -25.5z" />
    <glyph glyph-name="uniFD23" unicode="&#xfec0;&#xfef0;" horiz-adv-x="1409" arabic-form="final" 
d="M1147 494q0 -14 -10.5 -24.5t-25.5 -10.5t-25 10.5t-10 24.5q0 15 10 25.5t25 10.5q16 0 26 -10.5t10 -25.5zM699 -39q0 -82 -97 -137t-241 -55q-301 0 -301 236q0 52 15 119h45q-15 -65 -15 -111q0 -98 63.5 -145.5t192.5 -47.5q124 0 208.5 40.5t84.5 99.5
q0 33 -25.5 51.5t-85.5 28.5l-107 17q-119 19 -119 111q0 76 72.5 137t164.5 61q75 0 116.5 -37.5t71.5 -127.5l15 -47q14 -49 41 -73q53 134 142 213q91 80 198 80q90 0 135 -51.5t45 -121.5q0 -68 -34 -111q36 -39 125 -39v-38l-13 -13q-95 0 -146 57q-86 -67 -280 -65
q-124 0 -177 31.5t-83 124.5l-16 48q-20 65 -53 91.5t-90 26.5q-73 0 -131 -42.5t-58 -96.5q0 -52 86 -68l116 -19q72 -12 103.5 -44t31.5 -83zM1136 322q-95 0 -175 -71q-77 -69 -128 -190q46 -18 150 -18q290 0 290 158q0 51 -36 86t-101 35z" />
    <glyph glyph-name="uniFD24" unicode="&#xfec0;&#xfef2;" horiz-adv-x="1409" arabic-form="final" 
d="M1147 494q0 -14 -10.5 -24.5t-25.5 -10.5t-25 10.5t-10 24.5q0 15 10 25.5t25 10.5q16 0 26 -10.5t10 -25.5zM699 -39q0 -82 -97 -137t-241 -55q-301 0 -301 236q0 52 15 119h45q-15 -65 -15 -111q0 -98 63.5 -145.5t192.5 -47.5q124 0 208.5 40.5t84.5 99.5
q0 33 -25.5 51.5t-85.5 28.5l-107 17q-119 19 -119 111q0 76 72.5 137t164.5 61q75 0 116.5 -37.5t71.5 -127.5l15 -47q14 -49 41 -73q53 134 142 213q91 80 198 80q90 0 135 -51.5t45 -121.5q0 -68 -34 -111q36 -39 125 -39v-38l-13 -13q-95 0 -146 57q-86 -67 -280 -65
q-124 0 -177 31.5t-83 124.5l-16 48q-20 65 -53 91.5t-90 26.5q-73 0 -131 -42.5t-58 -96.5q0 -52 86 -68l116 -19q72 -12 103.5 -44t31.5 -83zM1136 322q-95 0 -175 -71q-77 -69 -128 -190q46 -18 150 -18q290 0 290 158q0 51 -36 86t-101 35zM449 -356q0 -14 -10.5 -24.5
t-25.5 -10.5t-25 10.5t-10 24.5q0 15 10 25.5t25 10.5t25.5 -10.5t10.5 -25.5zM343 -356q0 -14 -10 -24.5t-25 -10.5t-25 10.5t-10 24.5q0 15 10 25.5t25 10.5t25 -10.5t10 -25.5z" />
    <glyph glyph-name="uniFD29" unicode="&#xfeb8;&#xfeae;" horiz-adv-x="1086" arabic-form="final" 
d="M714 449q0 -15 -10 -25.5t-25 -10.5t-25.5 10.5t-10.5 25.5q0 14 10.5 24.5t25.5 10.5t25 -10.5t10 -24.5zM661 354q0 -15 -10 -25.5t-25 -10.5q-16 0 -26 10.5t-10 25.5q0 14 10 24.5t26 10.5q15 0 25 -10.5t10 -24.5zM766 354q0 -15 -10 -25.5t-25 -10.5t-25 10.5
t-10 25.5q0 14 10 24.5t25 10.5t25 -10.5t10 -24.5zM220 57q0 -145 -49 -214t-150 -69q-43 0 -87 10v52q45 -11 84 -11q80 0 118 56.5t38 175.5q0 44 -6 106l-11 103l272 33l14 -139q7 -66 31 -92t77 -26q54 0 79 31t25 97v63h45v-67q0 -124 99 -124q54 0 80 31t26 97v96h45
v-100q0 -115 136 -115v-38l-13 -13q-61 0 -101 23.5t-53 66.5q-18 -99 -126 -99q-105 0 -125 95q-18 -95 -123 -95q-72 0 -105 36.5t-42 126.5l-9 88l-181 -22l6 -53q6 -62 6 -110z" />
    <glyph glyph-name="uniFD2A" unicode="&#xfeb4;&#xfeae;" horiz-adv-x="1086" arabic-form="final" 
d="M220 57q0 -145 -49 -214t-150 -69q-43 0 -87 10v52q45 -11 84 -11q80 0 118 56.5t38 175.5q0 44 -6 106l-11 103l272 33l14 -139q7 -66 31 -92t77 -26q54 0 79 31t25 97v63h45v-67q0 -124 99 -124q54 0 80 31t26 97v96h45v-100q0 -115 136 -115v-38l-13 -13
q-61 0 -101 23.5t-53 66.5q-18 -99 -126 -99q-105 0 -125 95q-18 -95 -123 -95q-72 0 -105 36.5t-42 126.5l-9 88l-181 -22l6 -53q6 -62 6 -110z" />
    <glyph glyph-name="uniFD2B" unicode="&#xfebc;&#xfeae;" horiz-adv-x="1126" arabic-form="final" 
d="M220 57q0 -145 -49 -214t-150 -69q-43 0 -87 10v52q45 -11 84 -11q80 0 118 56.5t38 175.5q0 41 -5 101l-15 142l272 31l17 -171q8 -68 46 -91q53 140 148 222.5t208 82.5q89 0 134 -51.5t45 -121.5q0 -59 -31 -102q39 -48 133 -48v-38l-13 -13q-101 0 -153 65
q-92 -74 -327 -74q-120 0 -173 35q-51 35 -62 128l-12 121l-182 -22l10 -90q6 -55 6 -106zM842 322q-100 0 -183 -73q-84 -73 -133 -196q40 -11 118 -11q335 0 335 159q0 51 -35.5 86t-101.5 35z" />
    <glyph glyph-name="uniFD2C" unicode="&#xfec0;&#xfeae;" horiz-adv-x="1126" arabic-form="final" 
d="M864 494q0 -14 -10 -24.5t-25 -10.5t-25.5 10.5t-10.5 24.5q0 15 10 25.5t26 10.5q15 0 25 -10.5t10 -25.5zM220 57q0 -145 -49 -214t-150 -69q-43 0 -87 10v52q45 -11 84 -11q80 0 118 56.5t38 175.5q0 41 -5 101l-15 142l272 31l17 -171q8 -68 46 -91q53 140 148 222.5
t208 82.5q89 0 134 -51.5t45 -121.5q0 -59 -31 -102q39 -48 133 -48v-38l-13 -13q-101 0 -153 65q-92 -74 -327 -74q-120 0 -173 35q-51 35 -62 128l-12 121l-182 -22l10 -90q6 -55 6 -106zM842 322q-100 0 -183 -73q-84 -73 -133 -196q40 -11 118 -11q335 0 335 159
q0 51 -35.5 86t-101.5 35z" />
    <glyph glyph-name="uniFDF2" unicode="&#x627;&#xfedf;&#xfee0;&#xfeea;" horiz-adv-x="1173" arabic-form="isolated" 
d="M606 1007v-181h-41v181h41zM633 661q-40 0 -52 43q-11 -58 -50 -58q-24 0 -37.5 18.5t-13.5 50.5q0 23 6 42l34 4q-7 -23 -7 -40q0 -32 23 -32q30 0 32 79l35 4q2 -69 29 -69q25 0 25 41q0 21 -4 38l35 4q3 -39 3 -44q0 -38 -15 -59.5t-43 -21.5zM1093 773v-773h-45v773
h45zM883 695v-534q0 -84 -37 -122.5t-116 -38.5q-129 0 -151 88q-19 -88 -125 -88q-64 0 -99 27t-45 88q-30 -81 -138 -81q-64 0 -103 32.5t-39 88.5q0 46 29 84t98 85l149 103v73h45v-320q0 -71 23.5 -100t79.5 -29q60 0 86.5 28t26.5 94v423h45v-428q0 -61 28.5 -89
t89.5 -28q58 0 83 25t25 85v534h45zM75 162q0 -38 27 -57.5t76 -19.5q63 0 95.5 29t32.5 95v165l-126 -83q-105 -70 -105 -129z" />
    <glyph glyph-name="uniFEF5" unicode="&#xfedf;&#xfe82;" horiz-adv-x="543" arabic-form="isolated" 
d="M309 0h-269v51l213 178q31 25 59 52l-320 282l33 39l322 -284q42 50 56 103q13 51 13 140v212h45v-212q0 -103 -15.5 -160t-64.5 -114q58 -52 80.5 -90t22.5 -78q0 -62 -42.5 -90.5t-132.5 -28.5zM20 657h-32q0 34 18 53.5t50 19.5q21 0 69.5 -8.5t69.5 -8.5q35 0 58 11
v-38q-25 -13 -58 -13q-27 0 -73.5 8.5t-65.5 8.5q-36 0 -36 -33zM282 195l-174 -144h201q67 0 98.5 15.5t31.5 50.5q0 50 -93 134q-24 -24 -64 -56z" />
    <glyph glyph-name="uniFEF6" unicode="&#xfee0;&#xfe82;" horiz-adv-x="556" arabic-form="final" 
d="M160 10l-145 -25v52l137 23l66 13l-102 545h46l100 -535q74 19 102.5 43.5t28.5 67.5l-1 579h45l1 -605q0 -64 26.5 -90.5t91.5 -26.5v-38l-13 -13h-4q-125 0 -142 116q-36 -71 -237 -106zM29 653h-32q0 33 18 52.5t50 19.5q21 0 69 -8.5t70 -8.5q35 0 58 11v-37
q-25 -13 -58 -13q-27 0 -73.5 8.5t-65.5 8.5q-36 0 -36 -33z" />
    <glyph glyph-name="uniFEF7" unicode="&#xfedf;&#xfe84;" horiz-adv-x="543" arabic-form="isolated" 
d="M214 748v-41l-188 -25v40l55 8q-36 21 -36 63q0 34 23 56.5t57 22.5q31 0 49.5 -17t22.5 -47l-32 -4q-8 27 -41 27q-19 0 -33 -12t-14 -30q0 -25 21.5 -39.5t49.5 -10.5zM309 0h-269v51l213 178q31 25 59 52l-320 282l33 39l322 -284q42 50 56 103q13 51 13 140v212h45
v-212q0 -103 -15.5 -160t-64.5 -114q58 -52 80.5 -90t22.5 -78q0 -62 -42.5 -90.5t-132.5 -28.5zM282 195l-174 -144h201q67 0 98.5 15.5t31.5 50.5q0 50 -93 134q-24 -24 -64 -56z" />
    <glyph glyph-name="uniFEF8" unicode="&#xfee0;&#xfe84;" horiz-adv-x="556" arabic-form="final" 
d="M223 743v-40l-188 -26v41l55 8q-36 21 -36 63q0 33 23 56t57 23q31 0 49.5 -17t22.5 -47l-32 -4q-8 27 -42 27q-19 0 -32.5 -12.5t-13.5 -30.5q0 -24 21.5 -39t49.5 -11zM160 10l-145 -25v52l137 23l66 13l-102 545h46l100 -535q74 19 102.5 43.5t28.5 67.5l-1 579h45
l1 -605q0 -64 26.5 -90.5t91.5 -26.5v-38l-13 -13h-4q-125 0 -142 116q-36 -71 -237 -106z" />
    <glyph glyph-name="uniFEF9" unicode="&#xfedf;&#xfe88;" horiz-adv-x="543" arabic-form="isolated" 
d="M309 0h-269v51l213 178q31 25 59 52l-320 282l33 39l322 -284q42 50 56 103q13 51 13 140v212h45v-212q0 -103 -15.5 -160t-64.5 -114q58 -52 80.5 -90t22.5 -78q0 -62 -42.5 -90.5t-132.5 -28.5zM282 195l-174 -144h201q67 0 98.5 15.5t31.5 50.5q0 50 -93 134
q-24 -24 -64 -56zM210 -189v-41l-188 -25v41l55 8q-36 21 -36 62q0 34 23 56.5t57 22.5q30 0 49 -16.5t23 -46.5l-32 -4q-8 27 -41 27q-19 0 -33 -12.5t-14 -30.5q0 -24 21.5 -39t49.5 -11z" />
    <glyph glyph-name="uniFEFA" unicode="&#xfee0;&#xfe88;" horiz-adv-x="556" arabic-form="final" 
d="M160 10l-145 -25v52l137 23l66 13l-102 545h46l100 -535q74 19 102.5 43.5t28.5 67.5l-1 579h45l1 -605q0 -64 26.5 -90.5t91.5 -26.5v-38l-13 -13h-4q-125 0 -142 116q-36 -71 -237 -106zM348 -189v-41l-188 -25v41l55 8q-36 19 -36 62q0 34 23 56.5t58 22.5
q30 0 49 -17t23 -46l-32 -4q-8 27 -42 27q-19 0 -32.5 -12.5t-13.5 -30.5q0 -24 21.5 -39t48.5 -11z" />
    <glyph glyph-name="uniFEFB" unicode="&#xfedf;&#xfe8e;" horiz-adv-x="543" arabic-form="isolated" 
d="M309 0h-269v51l213 178q31 25 59 52l-320 282l33 39l322 -284q42 50 56 103q13 51 13 140v212h45v-212q0 -103 -15.5 -160t-64.5 -114q58 -52 80.5 -90t22.5 -78q0 -62 -42.5 -90.5t-132.5 -28.5zM282 195l-174 -144h201q67 0 98.5 15.5t31.5 50.5q0 50 -93 134
q-24 -24 -64 -56z" />
    <glyph glyph-name="uniFEFC" unicode="&#xfee0;&#xfe8e;" horiz-adv-x="556" arabic-form="final" 
d="M160 10l-145 -25v52l137 23l66 13l-102 545h46l100 -535q74 19 102.5 43.5t28.5 67.5l-1 579h45l1 -605q0 -64 26.5 -90.5t91.5 -26.5v-38l-13 -13h-4q-125 0 -142 116q-36 -71 -237 -106z" />
    <glyph glyph-name="f_f" unicode="ff" horiz-adv-x="611" 
d="M158 0h-53v478h-79v45h79v86q0 78 40 118.5t108 40.5q34 0 58 -9v-45q-27 9 -56 9q-45 0 -71 -27t-26 -82v-91h226v94q0 79 40 119t108 40q23 0 57 -9v-45q-27 9 -56 9q-45 0 -70.5 -27t-25.5 -82v-99h145v-45h-145v-478h-53v478h-226v-478z" />
    <glyph glyph-name="f_i" unicode="fi" horiz-adv-x="548" 
d="M158 0h-53v478h-79v45h79v94q0 79 39 119t105 40q31 0 55 -8v-45q-21 8 -54 8q-43 0 -67.5 -27t-24.5 -82v-99h146v-45h-146v-478zM436 635q-16 0 -27 11t-11 27q0 15 11 26t27 11t26.5 -11t10.5 -26q0 -16 -10.5 -27t-26.5 -11zM463 0h-53v523h53v-523z" />
    <glyph glyph-name="f_l" unicode="fl" horiz-adv-x="548" 
d="M158 0h-53v478h-79v45h79v94q0 79 39 119t105 40q31 0 55 -8v-45q-21 8 -54 8q-43 0 -67.5 -27t-24.5 -82v-99h146v-45h-146v-478zM464 0h-54v773h54v-773z" />
    <glyph glyph-name="uni064906BA" unicode="&#x649;&#x6ba;" horiz-adv-x="947" 
d="M597 54q0 -117 -69 -179.5t-196 -62.5q-132 0 -202 55t-70 162q0 58 16 142h45q-16 -84 -16 -134q0 -174 227 -174q111 0 165 46.5t54 144.5q0 39 -7 104l-15 142l272 31l18 -171q6 -63 32 -86q28 -23 96 -23v-38l-13 -13q-81 0 -116.5 34.5t-43.5 119.5l-12 121
l-182 -21l10 -91q7 -65 7 -109z" />
    <glyph glyph-name="uni0649FEE6" unicode="&#x649;&#xfee6;" horiz-adv-x="947" 
d="M359 341q0 -14 -10 -24.5t-25 -10.5t-25.5 10.5t-10.5 24.5q0 15 10.5 25.5t25.5 10.5t25 -10.5t10 -25.5zM597 54q0 -117 -69 -179.5t-196 -62.5q-132 0 -202 55t-70 162q0 58 16 142h45q-16 -84 -16 -134q0 -174 227 -174q111 0 165 46.5t54 144.5q0 39 -7 104l-15 142
l272 31l18 -171q6 -63 32 -86q28 -23 96 -23v-38l-13 -13q-81 0 -116.5 34.5t-43.5 119.5l-12 121l-182 -21l10 -91q7 -65 7 -109z" />
    <glyph glyph-name="uni0649FEAE" unicode="&#x649;&#xfeae;" horiz-adv-x="571" 
d="M220 57q0 -145 -49 -214t-150 -69q-43 0 -87 10v52q45 -11 84 -11q80 0 118 56.5t38 175.5q0 41 -5 101l-15 142l272 31l17 -171q8 -64 33 -86q26 -23 95 -23v-38l-13 -13q-80 0 -115.5 34.5t-44.5 119.5l-12 121l-182 -22l10 -90q6 -55 6 -106z" />
    <glyph glyph-name="uni0649FEB0" unicode="&#x649;&#xfeb0;" horiz-adv-x="571" 
d="M201 420q0 -15 -10 -25t-25 -10t-25 10t-10 25t10 25t25 10t25 -10t10 -25zM220 57q0 -145 -49 -214t-150 -69q-43 0 -87 10v52q45 -11 84 -11q80 0 118 56.5t38 175.5q0 41 -5 101l-15 142l272 31l17 -171q8 -64 33 -86q26 -23 95 -23v-38l-13 -13q-80 0 -115.5 34.5
t-44.5 119.5l-12 121l-182 -22l10 -90q6 -55 6 -106z" />
    <glyph glyph-name="uniFECBFEF0" unicode="&#xfecb;&#xfef0;" horiz-adv-x="1002" 
d="M696 -73q0 -65 -84 -111q-83 -47 -246 -47q-306 0 -306 236q0 52 15 119h45q-15 -65 -15 -111q0 -193 261 -193q136 0 210 30.5t74 79.5q0 33 -32 51.5t-91 18.5h-32v51l193 26q-58 24 -92 74t-34 114q0 90 55 145q56 56 138 56q69 0 115 -37t57 -103h-45
q-13 41 -46.5 64.5t-80.5 23.5q-67 0 -107.5 -40t-40.5 -112q0 -68 54 -115q53 -46 136 -46q37 0 111 10l50 7v-49l-341 -52q79 -26 79 -90z" />
    <glyph glyph-name="uniFECFFEF0" unicode="&#xfecf;&#xfef0;" horiz-adv-x="998" 
d="M786 579q0 -15 -10 -25t-25 -10q-16 0 -26 10t-10 25t10 25.5t26 10.5q15 0 25 -10.5t10 -25.5zM691 -73q0 -65 -84 -111q-83 -47 -246 -47q-306 0 -306 236q0 52 15 119h46q-15 -65 -15 -111q0 -193 260 -193q136 0 210.5 30.5t74.5 79.5q0 33 -32.5 51.5t-91.5 18.5
h-32v51l193 26q-58 24 -92 74t-34 114q0 90 55 145q56 56 139 56q69 0 115 -37t56 -103h-45q-13 41 -46.5 64.5t-79.5 23.5q-67 0 -107.5 -40t-40.5 -112q0 -68 53 -115q53 -46 137 -46q36 0 110 10l50 7v-49l-340 -51q78 -27 78 -91z" />
    <glyph glyph-name="uniFB58FEF0" unicode="&#xfb58;&#xfef0;" horiz-adv-x="777" 
d="M701 -69q0 -68 -90 -115t-234 -47q-317 0 -317 236q0 52 15 119h45q-15 -65 -15 -111q0 -193 272 -193q125 0 202 32.5t77 88.5q0 34 -30.5 57t-87.5 23h-81v51h81q79 0 109 27.5t30 92.5q0 54 -16 177h46q15 -108 15 -177q0 -138 -98 -162q77 -30 77 -99zM744 -316
q0 -15 -10 -25t-25 -10t-25 10t-10 25t10 25t25 10t25 -10t10 -25zM639 -316q0 -15 -10 -25t-25 -10q-16 0 -26 10t-10 25t10 25t26 10q15 0 25 -10t10 -25zM691 -411q0 -15 -10 -25t-25 -10t-25.5 10t-10.5 25t10.5 25.5t25.5 10.5t25 -10.5t10 -25.5z" />
    <glyph glyph-name="uniFB7CFEF0" unicode="&#xfb7c;&#xfef0;" horiz-adv-x="1002" 
d="M695 -59q0 -77 -88.5 -124.5t-235.5 -47.5q-311 0 -311 235q0 53 15 120h45q-15 -67 -15 -112q0 -192 266 -192q125 0 202 32.5t77 88.5q0 34 -30.5 57t-89.5 23h-79v51l244 90q105 38 147 46q-38 11 -91 35l-103 49q-70 31 -101 31q-55 0 -68 -61h-45q5 52 35.5 82
t78.5 30q44 0 122 -36l97 -46q67 -32 104.5 -42.5t79.5 -10.5h33v-48h-24q-14 0 -29 -2t-33.5 -6.5t-32.5 -8.5t-38.5 -12t-36 -12.5l-40 -15t-38.5 -13.5l-163 -61q70 -5 108 -38.5t38 -80.5zM929 -85q0 -15 -10.5 -25t-25.5 -10t-25 10.5t-10 24.5q0 15 10 25.5t25 10.5
q16 0 26 -10.5t10 -25.5zM823 -85q0 -14 -10 -24.5t-25 -10.5t-25 10.5t-10 24.5q0 15 10 25.5t25 10.5t25 -10.5t10 -25.5zM875 -179q0 -15 -10 -25.5t-25 -10.5t-25 10.5t-10 25.5q0 14 10 24.5t25 10.5t25 -10.5t10 -24.5z" />
    <glyph glyph-name="uniFB6CFEF0" unicode="&#xfb6c;&#xfef0;" horiz-adv-x="752" 
d="M547 740q0 -15 -10 -25.5t-25 -10.5t-25 10.5t-10 25.5t10 25t25 10t25 -10t10 -25zM494 645q0 -15 -10 -25t-25 -10t-25.5 10t-10.5 25t10.5 25t25.5 10t25 -10t10 -25zM599 645q0 -15 -10 -25t-25 -10t-25 10t-10 25t10 25t25 10t25 -10t10 -25zM671 -74
q0 -63 -80 -110t-214 -47q-317 0 -317 236q0 52 15 119h45q-15 -65 -15 -111q0 -193 272 -193q109 0 179 32q70 31 70 84q0 34 -31.5 53t-85.5 19h-82v51h82q71 0 103 26t39 91q-53 -13 -121 -13q-93 0 -143.5 43t-50.5 121q0 81 51.5 139.5t123.5 58.5q88 0 138.5 -75.5
t50.5 -209.5q0 -98 -24.5 -150t-80.5 -69q76 -26 76 -95zM382 327q0 -55 39 -84t110 -29q56 0 123 15v6q0 110 -38 174t-105 64q-55 0 -92 -42q-37 -41 -37 -104z" />
    <glyph glyph-name="uniFB94FEF0" unicode="&#xfb94;&#xfef0;" horiz-adv-x="758" 
d="M761 874l-1 -43l-395 -233v43zM696 -62q0 -72 -88 -120.5t-230 -48.5q-159 0 -236.5 59t-80.5 177q-1 47 15 119h45q-15 -65 -15 -111q0 -193 272 -193q122 0 197.5 33.5t75.5 89.5q0 36 -28.5 57t-81.5 21h-89v51h81q114 0 114 77q0 31 -24 65q-23 34 -84 96l-174 174
v44l393 231v-59l-342 -197l151 -151q73 -73 98 -117q27 -43 27 -86q0 -83 -81 -112q41 -12 63 -38.5t22 -60.5z" />
    <glyph glyph-name="uniFEDFFB51" unicode="&#xfedf;&#xfb51;" horiz-adv-x="543" 
d="M18 658h-33q0 33 18 53t47 20q10 0 14 -1q19 42 46 66t58 24q33 0 52 -18.5t19 -52.5q0 -35 -20.5 -55t-57.5 -20q-23 0 -58 8.5t-53 8.5q-32 0 -32 -33zM164 780q-44 0 -71 -55q63 -11 68 -11q45 0 45 31q0 16 -11.5 25.5t-30.5 9.5zM309 0h-269v51l213 178q31 25 59 52
l-320 282l33 39l322 -284q42 50 56 103q13 51 13 140v212h45v-212q0 -103 -15.5 -160t-64.5 -114q58 -52 80.5 -90t22.5 -78q0 -62 -42.5 -90.5t-132.5 -28.5zM282 195l-174 -144h201q67 0 98.5 15.5t31.5 50.5q0 50 -93 134q-24 -24 -64 -56z" />
    <glyph glyph-name="uniFEDFFEE4" unicode="&#xfedf;&#xfee4;" horiz-adv-x="304" 
d="M251 6l59 -29l-24 -45l-50 23q-57 27 -107 36t-142 9v37l13 14q92 0 153 -22q-38 37 -38 118v626h45v-626q0 -59 18 -88q19 -27 73 -53z" />
    <glyph glyph-name="uniFEDFFB7B" unicode="&#xfedf;&#xfb7b;" horiz-adv-x="594" 
d="M560 -205v-50q-110 -49 -238 -49q-137 0 -217 68q-79 67 -79 184q0 104 73 184.5t206 119.5q-133 -5 -244 -5v52h162q63 0 86 27q23 29 23 106v341h45v-352q0 -88 -33 -122h220v-49h-17q-220 0 -347.5 -86.5t-127.5 -212.5q0 -96 66.5 -150t183.5 -54q126 0 238 48z
M389 14q0 -15 -10 -25t-25 -10t-25 10t-10 25t10 25.5t25 10.5t25 -10.5t10 -25.5zM284 14q0 -15 -10 -25t-25 -10t-25.5 10t-10.5 25t10.5 25.5t25.5 10.5t25 -10.5t10 -25.5zM336 -81q0 -14 -10 -24.5t-25 -10.5t-25 10.5t-10 24.5q0 15 10 25.5t25 10.5t25 -10.5
t10 -25.5z" />
    <glyph glyph-name="uniFEDFFB7D" unicode="&#xfedf;&#xfb7d;" horiz-adv-x="609" 
d="M60 0h-73v38l13 13h60q65 0 111.5 12.5t112.5 50.5l71 39q58 33 104 50q-49 7 -92 18l-93 22q-61 15 -147 15h-65v52h95q83 0 111 27q30 29 30 105v331h45v-342q0 -59 -14.5 -92t-49.5 -48l98 -23q50 -12 106 -23q39 -6 77 -6h30v-48h-32q-34 0 -71 -15q-40 -16 -114 -61
l-69 -40q-80 -45 -128 -60t-116 -15zM392 -153q0 -15 -10 -25t-25 -10t-25 10t-10 25t10 25.5t25 10.5t25 -10.5t10 -25.5zM287 -153q0 -15 -10 -25t-25 -10q-16 0 -26 10t-10 25t10 25.5t26 10.5q15 0 25 -10.5t10 -25.5zM339 -248q0 -14 -10 -24.5t-25 -10.5t-25.5 10.5
t-10.5 24.5q0 15 10.5 25.5t25.5 10.5t25 -10.5t10 -25.5z" />
    <glyph glyph-name="uniFECBFEF2" unicode="&#xfecb;&#xfef2;" horiz-adv-x="998" 
d="M691 -73q0 -65 -84 -111q-83 -47 -246 -47q-306 0 -306 236q0 52 15 119h46q-15 -65 -15 -111q0 -193 260 -193q136 0 210.5 30.5t74.5 79.5q0 33 -32.5 51.5t-91.5 18.5h-32v51l193 26q-58 24 -92 74t-34 114q0 90 55 145q56 56 139 56q69 0 115 -37t56 -103h-45
q-13 41 -46.5 64.5t-79.5 23.5q-67 0 -107.5 -40t-40.5 -112q0 -68 53 -115q53 -46 137 -46q36 0 110 10l50 7v-49l-340 -51q78 -27 78 -91zM449 -356q0 -14 -10 -24.5t-25 -10.5t-25 10.5t-10 24.5q0 15 10 25.5t25 10.5t25 -10.5t10 -25.5zM344 -356q0 -14 -10 -24.5
t-25 -10.5t-25.5 10.5t-10.5 24.5q0 15 10 25.5t26 10.5q15 0 25 -10.5t10 -25.5z" />
    <glyph glyph-name="uniFECFFEF2" unicode="&#xfecf;&#xfef2;" horiz-adv-x="998" 
d="M786 579q0 -15 -10 -25t-25 -10q-16 0 -26 10t-10 25t10 25.5t26 10.5q15 0 25 -10.5t10 -25.5zM691 -73q0 -65 -84 -111q-83 -47 -246 -47q-306 0 -306 236q0 52 15 119h46q-15 -65 -15 -111q0 -193 260 -193q136 0 210.5 30.5t74.5 79.5q0 33 -32.5 51.5t-91.5 18.5
h-32v51l193 26q-58 24 -92 74t-34 114q0 90 55 145q56 56 139 56q69 0 115 -37t56 -103h-45q-13 41 -46.5 64.5t-79.5 23.5q-67 0 -107.5 -40t-40.5 -112q0 -68 53 -115q53 -46 137 -46q36 0 110 10l50 7v-49l-340 -51q78 -27 78 -91zM449 -356q0 -14 -10 -24.5t-25 -10.5
t-25 10.5t-10 24.5q0 15 10 25.5t25 10.5t25 -10.5t10 -25.5zM344 -356q0 -14 -10 -24.5t-25 -10.5t-25.5 10.5t-10.5 24.5q0 15 10 25.5t26 10.5q15 0 25 -10.5t10 -25.5z" />
    <glyph glyph-name="uniFB58FEF2" unicode="&#xfb58;&#xfef2;" horiz-adv-x="777" 
d="M701 -69q0 -68 -90 -115t-234 -47q-317 0 -317 236q0 52 15 119h45q-15 -65 -15 -111q0 -193 272 -193q125 0 202 32.5t77 88.5q0 34 -30.5 57t-87.5 23h-81v51h81q79 0 109 27.5t30 92.5q0 54 -16 177h46q15 -108 15 -177q0 -138 -98 -162q77 -30 77 -99zM744 -316
q0 -15 -10 -25t-25 -10t-25 10t-10 25t10 25t25 10t25 -10t10 -25zM639 -316q0 -15 -10 -25t-25 -10q-16 0 -26 10t-10 25t10 25t26 10q15 0 25 -10t10 -25zM465 -356q0 -14 -10.5 -24.5t-25.5 -10.5t-25 10.5t-10 24.5q0 15 10 25.5t25 10.5q16 0 26 -10.5t10 -25.5z
M359 -356q0 -14 -10 -24.5t-25 -10.5t-25 10.5t-10 24.5q0 15 10 25.5t25 10.5t25 -10.5t10 -25.5zM691 -411q0 -15 -10 -25t-25 -10t-25.5 10t-10.5 25t10.5 25.5t25.5 10.5t25 -10.5t10 -25.5z" />
    <glyph glyph-name="uniFB7CFEF2" unicode="&#xfb7c;&#xfef2;" horiz-adv-x="1002" 
d="M695 -59q0 -77 -88.5 -124.5t-235.5 -47.5q-311 0 -311 235q0 53 15 120h45q-15 -67 -15 -112q0 -192 266 -192q125 0 202 32.5t77 88.5q0 34 -30.5 57t-89.5 23h-79v51l244 90q105 38 147 46q-38 11 -91 35l-103 49q-70 31 -101 31q-55 0 -68 -61h-45q5 52 35.5 82
t78.5 30q44 0 122 -36l97 -46q67 -32 104.5 -42.5t79.5 -10.5h33v-48h-24q-14 0 -29 -2t-33.5 -6.5t-32.5 -8.5t-38.5 -12t-36 -12.5l-40 -15t-38.5 -13.5l-163 -61q70 -5 108 -38.5t38 -80.5zM929 -85q0 -15 -10.5 -25t-25.5 -10t-25 10.5t-10 24.5q0 15 10 25.5t25 10.5
q16 0 26 -10.5t10 -25.5zM823 -85q0 -14 -10 -24.5t-25 -10.5t-25 10.5t-10 24.5q0 15 10 25.5t25 10.5t25 -10.5t10 -25.5zM875 -179q0 -15 -10 -25.5t-25 -10.5t-25 10.5t-10 25.5q0 14 10 24.5t25 10.5t25 -10.5t10 -24.5zM465 -356q0 -15 -10 -25t-26 -10q-15 0 -25 10
t-10 25t10 25t25 10q16 0 26 -10t10 -25zM359 -356q0 -15 -10 -25t-25 -10t-25 10t-10 25t10 25t25 10t25 -10t10 -25z" />
    <glyph glyph-name="uniFB6CFEF2" unicode="&#xfb6c;&#xfef2;" horiz-adv-x="752" 
d="M547 740q0 -15 -10 -25.5t-25 -10.5t-25 10.5t-10 25.5t10 25t25 10t25 -10t10 -25zM494 645q0 -15 -10 -25t-25 -10t-25.5 10t-10.5 25t10.5 25t25.5 10t25 -10t10 -25zM599 645q0 -15 -10 -25t-25 -10t-25 10t-10 25t10 25t25 10t25 -10t10 -25zM671 -74
q0 -63 -80 -110t-214 -47q-317 0 -317 236q0 52 15 119h45q-15 -65 -15 -111q0 -193 272 -193q109 0 179 32q70 31 70 84q0 34 -31.5 53t-85.5 19h-82v51h82q71 0 103 26t39 91q-53 -13 -121 -13q-93 0 -143.5 43t-50.5 121q0 81 51.5 139.5t123.5 58.5q88 0 138.5 -75.5
t50.5 -209.5q0 -98 -24.5 -150t-80.5 -69q76 -26 76 -95zM382 327q0 -55 39 -84t110 -29q56 0 123 15v6q0 110 -38 174t-105 64q-55 0 -92 -42q-37 -41 -37 -104zM451 -356q0 -14 -10.5 -24.5t-25.5 -10.5t-25 10.5t-10 24.5q0 15 10 25.5t25 10.5q16 0 26 -10.5t10 -25.5z
M345 -356q0 -14 -10 -24.5t-25 -10.5t-25 10.5t-10 24.5q0 15 10 25.5t25 10.5t25 -10.5t10 -25.5z" />
    <glyph glyph-name="uniFB90FEF2" unicode="&#xfb90;&#xfef2;" horiz-adv-x="758" 
d="M696 -62q0 -72 -88 -120.5t-230 -48.5q-159 0 -236.5 59t-80.5 177q-1 47 15 119h45q-15 -65 -15 -111q0 -193 272 -193q122 0 197.5 33.5t75.5 89.5q0 36 -28.5 57t-81.5 21h-89v51h81q114 0 114 77q0 31 -24 65q-23 34 -84 96l-174 174v44l393 231v-59l-342 -197
l151 -151q73 -73 98 -117q27 -43 27 -86q0 -83 -81 -112q41 -12 63 -38.5t22 -60.5zM466 -356q0 -14 -10 -24.5t-26 -10.5q-15 0 -25 10.5t-10 24.5q0 15 10 25.5t25 10.5q16 0 26 -10.5t10 -25.5zM360 -356q0 -14 -10 -24.5t-25 -10.5t-25 10.5t-10 24.5q0 15 10 25.5
t25 10.5t25 -10.5t10 -25.5z" />
    <glyph glyph-name="uniFB94FEF2" unicode="&#xfb94;&#xfef2;" horiz-adv-x="758" 
d="M761 874l-1 -43l-395 -233v43zM696 -62q0 -72 -88 -120.5t-230 -48.5q-159 0 -236.5 59t-80.5 177q-1 47 15 119h45q-15 -65 -15 -111q0 -193 272 -193q122 0 197.5 33.5t75.5 89.5q0 36 -28.5 57t-81.5 21h-89v51h81q114 0 114 77q0 31 -24 65q-23 34 -84 96l-174 174
v44l393 231v-59l-342 -197l151 -151q73 -73 98 -117q27 -43 27 -86q0 -83 -81 -112q41 -12 63 -38.5t22 -60.5zM466 -356q0 -14 -10 -24.5t-26 -10.5q-15 0 -25 10.5t-10 24.5q0 15 10 25.5t25 10.5q16 0 26 -10.5t10 -25.5zM360 -356q0 -14 -10 -24.5t-25 -10.5t-25 10.5
t-10 24.5q0 15 10 25.5t25 10.5t25 -10.5t10 -25.5z" />
    <glyph glyph-name="uniFE91FE8A" unicode="&#xfe91;&#xfe8a;" horiz-adv-x="777" 
d="M203 249v-41l-188 -25v41l55 8q-36 19 -36 62q0 34 23 56.5t57 22.5q31 0 50 -17t23 -46l-32 -5q-8 27 -42 27q-19 0 -32.5 -12t-13.5 -30q0 -24 21.5 -39t48.5 -11zM701 -69q0 -68 -90 -115t-234 -47q-317 0 -317 236q0 52 15 119h45q-15 -65 -15 -111q0 -193 272 -193
q125 0 202 32.5t77 88.5q0 34 -30.5 57t-87.5 23h-81v51h81q79 0 109 27.5t30 92.5q0 54 -16 177h46q15 -108 15 -177q0 -138 -98 -162q77 -30 77 -99zM692 -316q0 -15 -10 -25t-25 -10t-25 10t-10 25t10 25t25 10t25 -10t10 -25z" />
    <glyph glyph-name="uniFE97FE8A" unicode="&#xfe97;&#xfe8a;" horiz-adv-x="777" 
d="M761 489q0 -15 -10 -25t-26 -10q-15 0 -25 10t-10 25t10 25t25 10q16 0 26 -10t10 -25zM655 489q0 -15 -10 -25t-25 -10t-25 10t-10 25t10 25t25 10t25 -10t10 -25zM203 249v-41l-188 -25v41l55 8q-36 19 -36 62q0 34 23 56.5t57 22.5q31 0 50 -17t23 -46l-32 -5
q-8 27 -42 27q-19 0 -32.5 -12t-13.5 -30q0 -24 21.5 -39t48.5 -11zM701 -69q0 -68 -90 -115t-234 -47q-317 0 -317 236q0 52 15 119h45q-15 -65 -15 -111q0 -193 272 -193q125 0 202 32.5t77 88.5q0 34 -30.5 57t-87.5 23h-81v51h81q79 0 109 27.5t30 92.5q0 54 -16 177h46
q15 -108 15 -177q0 -138 -98 -162q77 -30 77 -99z" />
    <glyph glyph-name="uniFE9BFE8A" unicode="&#xfe9b;&#xfe8a;" horiz-adv-x="777" 
d="M708 584q0 -15 -10 -25t-25 -10t-25 10t-10 25t10 25t25 10t25 -10t10 -25zM655 489q0 -15 -10 -25t-25 -10t-25 10t-10 25t10 25t25 10t25 -10t10 -25zM761 489q0 -15 -10 -25t-26 -10q-15 0 -25 10t-10 25t10 25t25 10q16 0 26 -10t10 -25zM203 249v-41l-188 -25v41
l55 8q-36 19 -36 62q0 34 23 56.5t57 22.5q31 0 50 -17t23 -46l-32 -5q-8 27 -42 27q-19 0 -32.5 -12t-13.5 -30q0 -24 21.5 -39t48.5 -11zM701 -69q0 -68 -90 -115t-234 -47q-317 0 -317 236q0 52 15 119h45q-15 -65 -15 -111q0 -193 272 -193q125 0 202 32.5t77 88.5
q0 34 -30.5 57t-87.5 23h-81v51h81q79 0 109 27.5t30 92.5q0 54 -16 177h46q15 -108 15 -177q0 -138 -98 -162q77 -30 77 -99z" />
    <glyph glyph-name="uniFE9FFE8A" unicode="&#xfe9f;&#xfe8a;" horiz-adv-x="1002" 
d="M695 -59q0 -77 -88.5 -124.5t-235.5 -47.5q-311 0 -311 235q0 53 15 120h45q-15 -67 -15 -112q0 -192 266 -192q125 0 202 32.5t77 88.5q0 34 -30.5 57t-89.5 23h-79v51l244 90q105 38 147 46q-38 11 -91 35l-103 49q-70 31 -101 31q-55 0 -68 -61h-45q5 52 35.5 82
t78.5 30q44 0 122 -36l97 -46q67 -32 104.5 -42.5t79.5 -10.5h33v-48h-24q-14 0 -29 -2t-33.5 -6.5t-32.5 -8.5t-38.5 -12t-36 -12.5l-40 -15t-38.5 -13.5l-163 -61q70 -5 108 -38.5t38 -80.5zM186 249v-41l-188 -25v41l54 8q-35 18 -35 62q0 34 23 56.5t57 22.5
q30 0 49 -16.5t23 -46.5l-32 -5q-8 27 -41 27q-19 0 -33 -12t-14 -30q0 -24 21.5 -39t49.5 -11zM877 -85q0 -14 -10.5 -24.5t-25.5 -10.5t-25 10.5t-10 24.5q0 15 10 25.5t25 10.5t25.5 -10.5t10.5 -25.5z" />
    <glyph glyph-name="uniFEA3FE8A" unicode="&#xfea3;&#xfe8a;" horiz-adv-x="1002" 
d="M695 -59q0 -77 -88.5 -124.5t-235.5 -47.5q-311 0 -311 235q0 53 15 120h45q-15 -67 -15 -112q0 -192 266 -192q125 0 202 32.5t77 88.5q0 34 -30.5 57t-89.5 23h-79v51l244 90q105 38 147 46q-38 11 -91 35l-103 49q-70 31 -101 31q-55 0 -68 -61h-45q5 52 35.5 82
t78.5 30q44 0 122 -36l97 -46q67 -32 104.5 -42.5t79.5 -10.5h33v-48h-24q-14 0 -29 -2t-33.5 -6.5t-32.5 -8.5t-38.5 -12t-36 -12.5l-40 -15t-38.5 -13.5l-163 -61q70 -5 108 -38.5t38 -80.5zM186 249v-41l-188 -25v41l54 8q-35 18 -35 62q0 34 23 56.5t57 22.5
q30 0 49 -16.5t23 -46.5l-32 -5q-8 27 -41 27q-19 0 -33 -12t-14 -30q0 -24 21.5 -39t49.5 -11z" />
    <glyph glyph-name="uniFEA7FE8A" unicode="&#xfea7;&#xfe8a;" horiz-adv-x="1002" 
d="M612 494q0 -14 -10 -24.5t-25 -10.5t-25 10.5t-10 24.5q0 15 10 25.5t25 10.5t25 -10.5t10 -25.5zM695 -59q0 -77 -88.5 -124.5t-235.5 -47.5q-311 0 -311 235q0 53 15 120h45q-15 -67 -15 -112q0 -192 266 -192q125 0 202 32.5t77 88.5q0 34 -30.5 57t-89.5 23h-79v51
l244 90q105 38 147 46q-38 11 -91 35l-103 49q-70 31 -101 31q-55 0 -68 -61h-45q5 52 35.5 82t78.5 30q44 0 122 -36l97 -46q67 -32 104.5 -42.5t79.5 -10.5h33v-48h-24q-14 0 -29 -2t-33.5 -6.5t-32.5 -8.5t-38.5 -12t-36 -12.5l-40 -15t-38.5 -13.5l-163 -61
q70 -5 108 -38.5t38 -80.5zM186 249v-41l-188 -25v41l54 8q-35 18 -35 62q0 34 23 56.5t57 22.5q30 0 49 -16.5t23 -46.5l-32 -5q-8 27 -41 27q-19 0 -33 -12t-14 -30q0 -24 21.5 -39t49.5 -11z" />
    <glyph glyph-name="uniFEB3FE8A" unicode="&#xfeb3;&#xfe8a;" horiz-adv-x="1315" 
d="M185 249v-41l-188 -25v41l54 8q-36 19 -36 62q0 34 23.5 56.5t57.5 22.5q30 0 49 -16.5t23 -46.5l-32 -5q-8 27 -42 27q-19 0 -32.5 -12t-13.5 -30q0 -24 21.5 -39t49.5 -11zM699 -39q0 -82 -97 -137t-241 -55q-301 0 -301 236q0 52 15 119h45q-15 -65 -15 -111
q0 -98 63.5 -145.5t192.5 -47.5q124 0 208.5 40.5t84.5 99.5q0 33 -25.5 51.5t-85.5 28.5l-107 17q-119 19 -119 111q0 76 72.5 137t164.5 61q76 0 119 -38t70 -127l14 -47q20 -67 42 -89q25 -23 75 -23q102 0 102 133v58h45v-67q0 -62 25.5 -93t69.5 -31q94 0 94 121
q0 65 -13 136h47q11 -77 11 -136q0 -85 -36 -128.5t-103 -43.5q-107 0 -127 97q-18 -97 -118 -97q-66 0 -100 32q-32 31 -61 125l-15 48q-18 64 -52.5 91t-91.5 27q-73 0 -131 -42.5t-58 -96.5q0 -52 86 -68l116 -19q72 -12 103.5 -44t31.5 -83z" />
    <glyph glyph-name="uniFEB7FE8A" unicode="&#xfeb7;&#xfe8a;" horiz-adv-x="1315" 
d="M1032 459q0 -15 -10 -25t-26 -10q-15 0 -25 10.5t-10 24.5q0 15 10 25.5t25 10.5q16 0 26 -10.5t10 -25.5zM978 364q0 -14 -10 -24.5t-25 -10.5t-25 10.5t-10 24.5q0 15 10 25.5t25 10.5t25 -10.5t10 -25.5zM1084 364q0 -14 -10 -24.5t-26 -10.5q-15 0 -25 10.5t-10 24.5
q0 15 10 25.5t25 10.5q16 0 26 -10.5t10 -25.5zM185 249v-41l-188 -25v41l54 8q-36 19 -36 62q0 34 23.5 56.5t57.5 22.5q30 0 49 -16.5t23 -46.5l-32 -5q-8 27 -42 27q-19 0 -32.5 -12t-13.5 -30q0 -24 21.5 -39t49.5 -11zM699 -39q0 -82 -97 -137t-241 -55
q-301 0 -301 236q0 52 15 119h45q-15 -65 -15 -111q0 -98 63.5 -145.5t192.5 -47.5q124 0 208.5 40.5t84.5 99.5q0 33 -25.5 51.5t-85.5 28.5l-107 17q-119 19 -119 111q0 76 72.5 137t164.5 61q76 0 119 -38t70 -127l14 -47q20 -67 42 -89q25 -23 75 -23q102 0 102 133v58
h45v-67q0 -62 25.5 -93t69.5 -31q94 0 94 121q0 65 -13 136h47q11 -77 11 -136q0 -85 -36 -128.5t-103 -43.5q-107 0 -127 97q-18 -97 -118 -97q-66 0 -100 32q-32 31 -61 125l-15 48q-18 64 -52.5 91t-91.5 27q-73 0 -131 -42.5t-58 -96.5q0 -52 86 -68l116 -19
q72 -12 103.5 -44t31.5 -83z" />
    <glyph glyph-name="uniFEBBFE8A" unicode="&#xfebb;&#xfe8a;" horiz-adv-x="1362" 
d="M699 -39q0 -82 -97 -137t-241 -55q-301 0 -301 236q0 52 15 119h45q-15 -65 -15 -111q0 -98 63.5 -145.5t192.5 -47.5q124 0 208.5 40.5t84.5 99.5q0 33 -25.5 51.5t-85.5 28.5l-107 17q-119 19 -119 111q0 76 72.5 137t164.5 61q75 0 116.5 -37.5t71.5 -127.5l15 -47
q14 -49 41 -73q53 134 142 213q91 80 198 80q90 0 135 -51.5t45 -121.5q0 -211 -348 -209q-124 0 -177 31.5t-83 124.5l-16 48q-20 65 -53 91.5t-90 26.5q-73 0 -131 -42.5t-58 -96.5q0 -52 86 -68l116 -19q72 -12 103.5 -44t31.5 -83zM185 249v-41l-188 -25v41l54 8
q-36 19 -36 62q0 34 23.5 56.5t57.5 22.5q30 0 49 -16.5t23 -46.5l-32 -5q-8 27 -42 27q-19 0 -32.5 -12t-13.5 -30q0 -24 21.5 -39t49.5 -11zM1136 322q-95 0 -175 -71q-77 -69 -128 -190q46 -18 150 -18q290 0 290 158q0 51 -36 86t-101 35z" />
    <glyph glyph-name="uniFEBFFE8A" unicode="&#xfebf;&#xfe8a;" horiz-adv-x="1362" 
d="M1147 494q0 -14 -10.5 -24.5t-25.5 -10.5t-25 10.5t-10 24.5q0 15 10 25.5t25 10.5q16 0 26 -10.5t10 -25.5zM699 -39q0 -82 -97 -137t-241 -55q-301 0 -301 236q0 52 15 119h45q-15 -65 -15 -111q0 -98 63.5 -145.5t192.5 -47.5q124 0 208.5 40.5t84.5 99.5
q0 33 -25.5 51.5t-85.5 28.5l-107 17q-119 19 -119 111q0 76 72.5 137t164.5 61q75 0 116.5 -37.5t71.5 -127.5l15 -47q14 -49 41 -73q53 134 142 213q91 80 198 80q90 0 135 -51.5t45 -121.5q0 -211 -348 -209q-124 0 -177 31.5t-83 124.5l-16 48q-20 65 -53 91.5t-90 26.5
q-73 0 -131 -42.5t-58 -96.5q0 -52 86 -68l116 -19q72 -12 103.5 -44t31.5 -83zM185 249v-41l-188 -25v41l54 8q-36 19 -36 62q0 34 23.5 56.5t57.5 22.5q30 0 49 -16.5t23 -46.5l-32 -5q-8 27 -42 27q-19 0 -32.5 -12t-13.5 -30q0 -24 21.5 -39t49.5 -11zM1136 322
q-95 0 -175 -71q-77 -69 -128 -190q46 -18 150 -18q290 0 290 158q0 51 -36 86t-101 35z" />
    <glyph glyph-name="uniFECBFE8A" unicode="&#xfecb;&#xfe8a;" horiz-adv-x="1031" 
d="M724 -73q0 -65 -84 -111q-83 -47 -246 -47q-305 0 -305 236q0 57 14 119h46q-15 -65 -15 -111q0 -193 260 -193q136 0 210.5 30.5t74.5 79.5q0 33 -32.5 51.5t-91.5 18.5h-32v51l193 26q-57 24 -91 74t-34 114q0 90 55 145q56 56 138 56q69 0 115 -37t56 -103h-45
q-13 41 -46 64.5t-80 23.5q-67 0 -107.5 -40t-40.5 -112q0 -68 53 -115q53 -46 137 -46q36 0 110 10l50 7v-49l-340 -52q78 -25 78 -90zM216 249v-41l-189 -25v41l55 8q-36 19 -36 62q0 34 23 56.5t58 22.5q30 0 49 -17t23 -46l-32 -5q-8 27 -42 27q-19 0 -32.5 -12
t-13.5 -30q0 -24 21.5 -39t48.5 -11z" />
    <glyph glyph-name="uniFECFFE8A" unicode="&#xfecf;&#xfe8a;" horiz-adv-x="1031" 
d="M819 579q0 -15 -10 -25t-25 -10q-16 0 -26 10t-10 25t10 25.5t26 10.5q15 0 25 -10.5t10 -25.5zM724 -73q0 -65 -84 -111q-83 -47 -246 -47q-305 0 -305 236q0 57 14 119h46q-15 -65 -15 -111q0 -193 260 -193q136 0 210.5 30.5t74.5 79.5q0 33 -32.5 51.5t-91.5 18.5
h-32v51l193 26q-57 24 -91 74t-34 114q0 90 55 145q56 56 138 56q69 0 115 -37t56 -103h-45q-13 41 -46 64.5t-80 23.5q-67 0 -107.5 -40t-40.5 -112q0 -68 53 -115q53 -46 137 -46q36 0 110 10l50 7v-49l-340 -52q78 -25 78 -90zM216 249v-41l-189 -25v41l55 8
q-36 19 -36 62q0 34 23 56.5t58 22.5q30 0 49 -17t23 -46l-32 -5q-8 27 -42 27q-19 0 -32.5 -12t-13.5 -30q0 -24 21.5 -39t48.5 -11z" />
    <glyph glyph-name="uniFED3FE8A" unicode="&#xfed3;&#xfe8a;" horiz-adv-x="752" 
d="M547 645q0 -15 -10 -25t-26 -10q-15 0 -25 10t-10 25t10 25t25 10q16 0 26 -10t10 -25zM671 -74q0 -63 -80 -110t-214 -47q-317 0 -317 236q0 52 15 119h45q-15 -65 -15 -111q0 -193 272 -193q109 0 179 32q70 31 70 84q0 34 -31.5 53t-85.5 19h-82v51h82q71 0 103 26
t39 91q-53 -13 -121 -13q-93 0 -143.5 43t-50.5 121q0 81 51.5 139.5t123.5 58.5q88 0 138.5 -75.5t50.5 -209.5q0 -98 -24.5 -150t-80.5 -69q76 -26 76 -95zM382 327q0 -55 39 -84t110 -29q56 0 123 15v6q0 110 -38 174t-105 64q-55 0 -92 -42q-37 -41 -37 -104zM187 249
v-41l-188 -25v41l54 8q-35 18 -35 62q0 34 23 56.5t57 22.5q31 0 50 -17t23 -46l-33 -5q-8 27 -41 27q-19 0 -33 -12t-14 -30q0 -24 21.5 -39t49.5 -11z" />
    <glyph glyph-name="uniFED7FE8A" unicode="&#xfed7;&#xfe8a;" horiz-adv-x="752" 
d="M599 645q0 -15 -10 -25t-25 -10t-25 10t-10 25t10 25t25 10t25 -10t10 -25zM494 645q0 -15 -10 -25t-25 -10t-25.5 10t-10.5 25t10.5 25t25.5 10t25 -10t10 -25zM671 -74q0 -63 -80 -110t-214 -47q-317 0 -317 236q0 52 15 119h45q-15 -65 -15 -111q0 -193 272 -193
q109 0 179 32q70 31 70 84q0 34 -31.5 53t-85.5 19h-82v51h82q71 0 103 26t39 91q-53 -13 -121 -13q-93 0 -143.5 43t-50.5 121q0 81 51.5 139.5t123.5 58.5q88 0 138.5 -75.5t50.5 -209.5q0 -98 -24.5 -150t-80.5 -69q76 -26 76 -95zM382 327q0 -55 39 -84t110 -29
q56 0 123 15v6q0 110 -38 174t-105 64q-55 0 -92 -42q-37 -41 -37 -104zM187 249v-41l-188 -25v41l54 8q-35 18 -35 62q0 34 23 56.5t57 22.5q31 0 50 -17t23 -46l-33 -5q-8 27 -41 27q-19 0 -33 -12t-14 -30q0 -24 21.5 -39t49.5 -11z" />
    <glyph glyph-name="uniFEDBFE8A" unicode="&#xfedb;&#xfe8a;" horiz-adv-x="758" 
d="M695 -62q0 -72 -88 -120.5t-230 -48.5q-159 0 -236.5 59t-80.5 177q-1 47 15 119h45q-15 -65 -15 -111q0 -193 272 -193q122 0 197.5 33.5t75.5 89.5q0 36 -28.5 57t-81.5 21h-89v51h81q114 0 114 77q0 31 -24 65q-22 34 -84 96l-174 174v44l393 231v-59l-342 -197
l151 -151q73 -73 98 -117q27 -43 27 -86q0 -83 -81 -112q41 -12 63 -38.5t22 -60.5zM188 249v-41l-189 -25v41l55 8q-36 19 -36 62q0 34 23 56.5t58 22.5q30 0 49 -17t23 -46l-32 -5q-8 27 -42 27q-19 0 -32.5 -12t-13.5 -30q0 -24 21.5 -39t48.5 -11z" />
    <glyph glyph-name="uniFEDFFE8A" unicode="&#xfedf;&#xfe8a;" horiz-adv-x="797" 
d="M695 -69q0 -68 -88.5 -115t-229.5 -47q-317 0 -317 236q0 52 15 119h45q-15 -65 -15 -111q0 -193 272 -193q122 0 197.5 32.5t75.5 88.5q0 34 -30.5 57t-87.5 23h-81v51h82q78 0 108 27.5t30 92.5v581h46v-581q0 -137 -99 -162q77 -29 77 -99zM188 249v-41l-189 -25v41
l55 8q-36 19 -36 62q0 34 23 56.5t58 22.5q30 0 49 -17t23 -46l-32 -5q-8 27 -42 27q-19 0 -32.5 -12t-13.5 -30q0 -24 21.5 -39t48.5 -11z" />
    <glyph glyph-name="uniFEE7FE8A" unicode="&#xfee7;&#xfe8a;" horiz-adv-x="777" 
d="M708 489q0 -15 -10 -25t-25 -10q-16 0 -26 10t-10 25t10 25t26 10q15 0 25 -10t10 -25zM203 249v-41l-188 -25v41l55 8q-36 19 -36 62q0 34 23 56.5t57 22.5q31 0 50 -17t23 -46l-32 -5q-8 27 -42 27q-19 0 -32.5 -12t-13.5 -30q0 -24 21.5 -39t48.5 -11zM701 -69
q0 -68 -90 -115t-234 -47q-317 0 -317 236q0 52 15 119h45q-15 -65 -15 -111q0 -193 272 -193q125 0 202 32.5t77 88.5q0 34 -30.5 57t-87.5 23h-81v51h81q79 0 109 27.5t30 92.5q0 54 -16 177h46q15 -108 15 -177q0 -138 -98 -162q77 -30 77 -99z" />
    <glyph glyph-name="uniFEEBFE8A" unicode="&#xfeeb;&#xfe8a;" horiz-adv-x="1139" 
d="M696 -73q0 -65 -84 -111q-83 -47 -246 -47q-306 0 -306 236q0 52 15 119h45q-15 -65 -15 -111q0 -193 261 -193q136 0 210 30.5t74 79.5q0 33 -33 51.5t-95 18.5h-27v51h5q96 0 188 16q-74 66 -74 154q0 56 30.5 99t78.5 57l-21 8v52l159 -62q131 -49 184 -99
q52 -49 52 -122q0 -76 -51.5 -119t-144.5 -43q-89 0 -164 40q-42 -12 -108 -20q67 -28 67 -85zM188 249v-41l-188 -25v41l54 8q-35 18 -35 62q0 34 23 56.5t57 22.5q31 0 50 -17t23 -46l-33 -5q-8 27 -41 27q-19 0 -33 -12t-14 -30q0 -24 21.5 -39t49.5 -11zM660 221
q0 -86 88 -139q131 42 131 140q0 49 -32 82.5t-82 33.5q-45 0 -75 -33t-30 -84zM924 222q0 -109 -120 -165q48 -15 100 -15q68 0 108 28.5t40 84.5q0 48 -34.5 82.5t-117.5 70.5q24 -38 24 -86z" />
    <glyph glyph-name="uniFEF3FE8A" unicode="&#xfef3;&#xfe8a;" horiz-adv-x="777" 
d="M203 249v-41l-188 -25v41l55 8q-36 19 -36 62q0 34 23 56.5t57 22.5q31 0 50 -17t23 -46l-32 -5q-8 27 -42 27q-19 0 -32.5 -12t-13.5 -30q0 -24 21.5 -39t48.5 -11zM701 -69q0 -68 -90 -115t-234 -47q-317 0 -317 236q0 52 15 119h45q-15 -65 -15 -111q0 -193 272 -193
q125 0 202 32.5t77 88.5q0 34 -30.5 57t-87.5 23h-81v51h81q79 0 109 27.5t30 92.5q0 54 -16 177h46q15 -108 15 -177q0 -138 -98 -162q77 -30 77 -99zM745 -316q0 -15 -10 -25t-25 -10q-16 0 -26 10t-10 25t10 25t26 10q15 0 25 -10t10 -25zM640 -316q0 -15 -10 -25
t-26 -10q-15 0 -25 10t-10 25t10 25t25 10q16 0 26 -10t10 -25z" />
    <glyph glyph-name="uniFB58FE8A" unicode="&#xfb58;&#xfe8a;" horiz-adv-x="777" 
d="M203 249v-41l-188 -25v41l55 8q-36 19 -36 62q0 34 23 56.5t57 22.5q31 0 50 -17t23 -46l-32 -5q-8 27 -42 27q-19 0 -32.5 -12t-13.5 -30q0 -24 21.5 -39t48.5 -11zM701 -69q0 -68 -90 -115t-234 -47q-317 0 -317 236q0 52 15 119h45q-15 -65 -15 -111q0 -193 272 -193
q125 0 202 32.5t77 88.5q0 34 -30.5 57t-87.5 23h-81v51h81q79 0 109 27.5t30 92.5q0 54 -16 177h46q15 -108 15 -177q0 -138 -98 -162q77 -30 77 -99zM744 -316q0 -15 -10 -25t-25 -10t-25 10t-10 25t10 25t25 10t25 -10t10 -25zM639 -316q0 -15 -10 -25t-25 -10
q-16 0 -26 10t-10 25t10 25t26 10q15 0 25 -10t10 -25zM691 -411q0 -15 -10 -25t-25 -10t-25.5 10t-10.5 25t10.5 25.5t25.5 10.5t25 -10.5t10 -25.5z" />
    <glyph glyph-name="uniFB7CFE8A" unicode="&#xfb7c;&#xfe8a;" horiz-adv-x="1002" 
d="M695 -59q0 -77 -88.5 -124.5t-235.5 -47.5q-311 0 -311 235q0 53 15 120h45q-15 -67 -15 -112q0 -192 266 -192q125 0 202 32.5t77 88.5q0 34 -30.5 57t-89.5 23h-79v51l244 90q105 38 147 46q-38 11 -91 35l-103 49q-70 31 -101 31q-55 0 -68 -61h-45q5 52 35.5 82
t78.5 30q44 0 122 -36l97 -46q67 -32 104.5 -42.5t79.5 -10.5h33v-48h-24q-14 0 -29 -2t-33.5 -6.5t-32.5 -8.5t-38.5 -12t-36 -12.5l-40 -15t-38.5 -13.5l-163 -61q70 -5 108 -38.5t38 -80.5zM186 249v-41l-188 -25v41l54 8q-35 18 -35 62q0 34 23 56.5t57 22.5
q30 0 49 -16.5t23 -46.5l-32 -5q-8 27 -41 27q-19 0 -33 -12t-14 -30q0 -24 21.5 -39t49.5 -11zM929 -85q0 -15 -10.5 -25t-25.5 -10t-25 10.5t-10 24.5q0 15 10 25.5t25 10.5q16 0 26 -10.5t10 -25.5zM823 -85q0 -14 -10 -24.5t-25 -10.5t-25 10.5t-10 24.5q0 15 10 25.5
t25 10.5t25 -10.5t10 -25.5zM875 -179q0 -15 -10 -25.5t-25 -10.5t-25 10.5t-10 25.5q0 14 10 24.5t25 10.5t25 -10.5t10 -24.5z" />
    <glyph glyph-name="uniFB6CFE8A" unicode="&#xfb6c;&#xfe8a;" horiz-adv-x="752" 
d="M547 740q0 -15 -10 -25.5t-25 -10.5t-25 10.5t-10 25.5t10 25t25 10t25 -10t10 -25zM494 645q0 -15 -10 -25t-25 -10t-25.5 10t-10.5 25t10.5 25t25.5 10t25 -10t10 -25zM599 645q0 -15 -10 -25t-25 -10t-25 10t-10 25t10 25t25 10t25 -10t10 -25zM671 -74
q0 -63 -80 -110t-214 -47q-317 0 -317 236q0 52 15 119h45q-15 -65 -15 -111q0 -193 272 -193q109 0 179 32q70 31 70 84q0 34 -31.5 53t-85.5 19h-82v51h82q71 0 103 26t39 91q-53 -13 -121 -13q-93 0 -143.5 43t-50.5 121q0 81 51.5 139.5t123.5 58.5q88 0 138.5 -75.5
t50.5 -209.5q0 -98 -24.5 -150t-80.5 -69q76 -26 76 -95zM382 327q0 -55 39 -84t110 -29q56 0 123 15v6q0 110 -38 174t-105 64q-55 0 -92 -42q-37 -41 -37 -104zM187 249v-41l-188 -25v41l54 8q-35 18 -35 62q0 34 23 56.5t57 22.5q31 0 50 -17t23 -46l-33 -5q-8 27 -41 27
q-19 0 -33 -12t-14 -30q0 -24 21.5 -39t49.5 -11z" />
    <glyph glyph-name="uniFB94FE8A" unicode="&#xfb94;&#xfe8a;" horiz-adv-x="758" 
d="M760 874l-1 -43l-395 -233v43zM695 -62q0 -72 -88 -120.5t-230 -48.5q-159 0 -236.5 59t-80.5 177q-1 47 15 119h45q-15 -65 -15 -111q0 -193 272 -193q122 0 197.5 33.5t75.5 89.5q0 36 -28.5 57t-81.5 21h-89v51h81q114 0 114 77q0 31 -24 65q-22 34 -84 96l-174 174
v44l393 231v-59l-342 -197l151 -151q73 -73 98 -117q27 -43 27 -86q0 -83 -81 -112q41 -12 63 -38.5t22 -60.5zM188 249v-41l-189 -25v41l55 8q-36 19 -36 62q0 34 23 56.5t58 22.5q30 0 49 -17t23 -46l-32 -5q-8 27 -42 27q-19 0 -32.5 -12t-13.5 -30q0 -24 21.5 -39
t48.5 -11z" />
    <glyph glyph-name="uniFE8BFE8A" unicode="&#xfe8b;&#xfe8a;" horiz-adv-x="777" 
d="M761 494v-41l-188 -25v40l55 8q-36 19 -36 63q0 34 23 56.5t58 22.5q30 0 49 -17t23 -47l-32 -4q-8 27 -42 27q-19 0 -32.5 -12.5t-13.5 -30.5q0 -24 21.5 -39t48.5 -11zM701 -69q0 -68 -90 -115t-234 -47q-317 0 -317 236q0 52 15 119h45q-15 -65 -15 -111
q0 -193 272 -193q125 0 202 32.5t77 88.5q0 34 -30.5 57t-87.5 23h-81v51h81q79 0 109 27.5t30 92.5q0 54 -16 177h46q15 -108 15 -177q0 -138 -98 -162q77 -30 77 -99zM465 -356q0 -14 -10.5 -24.5t-25.5 -10.5t-25 10.5t-10 24.5q0 15 10 25.5t25 10.5q16 0 26 -10.5
t10 -25.5zM359 -356q0 -14 -10 -24.5t-25 -10.5t-25 10.5t-10 24.5q0 15 10 25.5t25 10.5t25 -10.5t10 -25.5z" />
    <glyph glyph-name="uniFE91FBFD" unicode="&#xfe91;&#xfbfd;" horiz-adv-x="777" 
d="M701 -69q0 -68 -90 -115t-234 -47q-317 0 -317 236q0 52 15 119h45q-15 -65 -15 -111q0 -193 272 -193q125 0 202 32.5t77 88.5q0 34 -30.5 57t-87.5 23h-81v51h81q79 0 109 27.5t30 92.5q0 54 -16 177h46q15 -108 15 -177q0 -138 -98 -162q77 -30 77 -99zM692 -316
q0 -15 -10 -25t-25 -10t-25 10t-10 25t10 25t25 10t25 -10t10 -25z" />
    <glyph glyph-name="uniFE97FBFD" unicode="&#xfe97;&#xfbfd;" horiz-adv-x="777" 
d="M761 489q0 -15 -10 -25t-26 -10q-15 0 -25 10t-10 25t10 25t25 10q16 0 26 -10t10 -25zM655 489q0 -15 -10 -25t-25 -10t-25 10t-10 25t10 25t25 10t25 -10t10 -25zM701 -69q0 -68 -90 -115t-234 -47q-317 0 -317 236q0 52 15 119h45q-15 -65 -15 -111q0 -193 272 -193
q125 0 202 32.5t77 88.5q0 34 -30.5 57t-87.5 23h-81v51h81q79 0 109 27.5t30 92.5q0 54 -16 177h46q15 -108 15 -177q0 -138 -98 -162q77 -30 77 -99z" />
    <glyph glyph-name="uniFE9BFBFD" unicode="&#xfe9b;&#xfbfd;" horiz-adv-x="777" 
d="M708 584q0 -15 -10 -25t-25 -10t-25 10t-10 25t10 25t25 10t25 -10t10 -25zM655 489q0 -15 -10 -25t-25 -10t-25 10t-10 25t10 25t25 10t25 -10t10 -25zM761 489q0 -15 -10 -25t-26 -10q-15 0 -25 10t-10 25t10 25t25 10q16 0 26 -10t10 -25zM701 -69q0 -68 -90 -115
t-234 -47q-317 0 -317 236q0 52 15 119h45q-15 -65 -15 -111q0 -193 272 -193q125 0 202 32.5t77 88.5q0 34 -30.5 57t-87.5 23h-81v51h81q79 0 109 27.5t30 92.5q0 54 -16 177h46q15 -108 15 -177q0 -138 -98 -162q77 -30 77 -99z" />
    <glyph glyph-name="uniFE9FFBFD" unicode="&#xfe9f;&#xfbfd;" horiz-adv-x="1002" 
d="M695 -59q0 -77 -88.5 -124.5t-235.5 -47.5q-311 0 -311 235q0 53 15 120h45q-15 -67 -15 -112q0 -192 266 -192q125 0 202 32.5t77 88.5q0 34 -30.5 57t-89.5 23h-79v51l244 90q105 38 147 46q-38 11 -91 35l-103 49q-70 31 -101 31q-55 0 -68 -61h-45q5 52 35.5 82
t78.5 30q44 0 122 -36l97 -46q67 -32 104.5 -42.5t79.5 -10.5h33v-48h-24q-14 0 -29 -2t-33.5 -6.5t-32.5 -8.5t-38.5 -12t-36 -12.5l-40 -15t-38.5 -13.5l-163 -61q70 -5 108 -38.5t38 -80.5zM877 -85q0 -14 -10.5 -24.5t-25.5 -10.5t-25 10.5t-10 24.5q0 15 10 25.5
t25 10.5t25.5 -10.5t10.5 -25.5z" />
    <glyph glyph-name="uniFEA3FBFD" unicode="&#xfea3;&#xfbfd;" horiz-adv-x="978" 
d="M671 -59q0 -77 -82.5 -124.5t-217.5 -47.5q-311 0 -311 235q0 53 15 120h45q-15 -67 -15 -112q0 -192 266 -192q115 0 185 32.5t70 88.5q0 34 -31 57t-90 23h-78v51l244 90q105 38 147 46q-38 11 -91 35l-104 49q-67 31 -100 31q-56 0 -68 -61h-45q4 52 34 82t79 30
q45 0 122 -36l98 -46q67 -32 104.5 -42.5t78.5 -10.5h33v-48h-24q-14 0 -29 -2t-33.5 -6.5t-32.5 -8.5t-38.5 -12t-36 -12.5l-40 -15t-38.5 -13.5l-163 -61q70 -5 108.5 -38.5t38.5 -80.5z" />
    <glyph glyph-name="uniFEA7FBFD" unicode="&#xfea7;&#xfbfd;" horiz-adv-x="1002" 
d="M612 494q0 -14 -10 -24.5t-25 -10.5t-25 10.5t-10 24.5q0 15 10 25.5t25 10.5t25 -10.5t10 -25.5zM695 -59q0 -77 -88.5 -124.5t-235.5 -47.5q-311 0 -311 235q0 53 15 120h45q-15 -67 -15 -112q0 -192 266 -192q125 0 202 32.5t77 88.5q0 34 -30.5 57t-89.5 23h-79v51
l244 90q105 38 147 46q-38 11 -91 35l-103 49q-70 31 -101 31q-55 0 -68 -61h-45q5 52 35.5 82t78.5 30q44 0 122 -36l97 -46q67 -32 104.5 -42.5t79.5 -10.5h33v-48h-24q-14 0 -29 -2t-33.5 -6.5t-32.5 -8.5t-38.5 -12t-36 -12.5l-40 -15t-38.5 -13.5l-163 -61
q70 -5 108 -38.5t38 -80.5z" />
    <glyph glyph-name="uniFEB3FBFD" unicode="&#xfeb3;&#xfbfd;" horiz-adv-x="1277" 
d="M655 -40q0 -79 -89 -135t-220 -56q-139 0 -212.5 60t-73.5 176q0 52 15 119h45q-15 -65 -15 -111q0 -94 64 -143.5t177 -49.5q105 0 184.5 40.5t79.5 97.5q0 48 -78 66l-76 17q-61 12 -88.5 34.5t-27.5 61.5q0 73 70 134.5t145 61.5q59 0 94.5 -33.5t57.5 -101.5l15 -50
q15 -55 42 -80.5t72 -25.5q102 0 102 133v58h45v-67q0 -124 96 -124q93 0 93 121q0 65 -13 136h47q11 -67 11 -136q0 -85 -36 -128.5t-102 -43.5q-108 0 -128 97q-18 -97 -118 -97q-63 0 -99.5 37.5t-59.5 113.5l-15 50q-31 95 -108 95q-54 0 -110.5 -45t-56.5 -96
q0 -21 19 -33t60 -21l87 -21q105 -21 105 -111z" />
    <glyph glyph-name="uniFEB7FBFD" unicode="&#xfeb7;&#xfbfd;" horiz-adv-x="1315" 
d="M1032 459q0 -15 -10 -25t-26 -10q-15 0 -25 10.5t-10 24.5q0 15 10 25.5t25 10.5q16 0 26 -10.5t10 -25.5zM978 364q0 -14 -10 -24.5t-25 -10.5t-25 10.5t-10 24.5q0 15 10 25.5t25 10.5t25 -10.5t10 -25.5zM1084 364q0 -14 -10 -24.5t-26 -10.5q-15 0 -25 10.5t-10 24.5
q0 15 10 25.5t25 10.5q16 0 26 -10.5t10 -25.5zM699 -39q0 -82 -97 -137t-241 -55q-301 0 -301 236q0 52 15 119h45q-15 -65 -15 -111q0 -98 63.5 -145.5t192.5 -47.5q124 0 208.5 40.5t84.5 99.5q0 33 -25.5 51.5t-85.5 28.5l-107 17q-119 19 -119 111q0 76 72.5 137
t164.5 61q76 0 119 -38t70 -127l14 -47q20 -67 42 -89q25 -23 75 -23q102 0 102 133v58h45v-67q0 -62 25.5 -93t69.5 -31q94 0 94 121q0 65 -13 136h47q11 -77 11 -136q0 -85 -36 -128.5t-103 -43.5q-107 0 -127 97q-18 -97 -118 -97q-66 0 -100 32q-32 31 -61 125l-15 48
q-18 64 -52.5 91t-91.5 27q-73 0 -131 -42.5t-58 -96.5q0 -52 86 -68l116 -19q72 -12 103.5 -44t31.5 -83z" />
    <glyph glyph-name="uniFEBBFBFD" unicode="&#xfebb;&#xfbfd;" horiz-adv-x="1329" 
d="M655 -40q0 -79 -89 -135t-220 -56q-139 0 -212.5 60t-73.5 176q0 52 15 119h45q-15 -65 -15 -111q0 -94 64 -143.5t177 -49.5q105 0 184.5 40.5t79.5 97.5q0 48 -78 66l-76 17q-61 12 -88.5 34.5t-27.5 61.5q0 73 70 134.5t145 61.5q59 0 95 -32t58 -98l16 -54
q14 -51 40 -69q53 136 143.5 215t197.5 79q89 0 134.5 -51.5t45.5 -121.5q0 -201 -349 -201q-130 0 -183 30t-77 112l-16 54q-27 91 -106 91q-56 0 -113 -45t-57 -96q0 -21 19 -33t60 -21l87 -21q105 -21 105 -111zM1102 322q-92 0 -172 -69.5t-129 -189.5q44 -12 149 -12
q290 0 290 150q0 51 -36 86t-102 35z" />
    <glyph glyph-name="uniFEBFFBFD" unicode="&#xfebf;&#xfbfd;" horiz-adv-x="1362" 
d="M1147 494q0 -14 -10.5 -24.5t-25.5 -10.5t-25 10.5t-10 24.5q0 15 10 25.5t25 10.5q16 0 26 -10.5t10 -25.5zM699 -39q0 -82 -97 -137t-241 -55q-301 0 -301 236q0 52 15 119h45q-15 -65 -15 -111q0 -98 63.5 -145.5t192.5 -47.5q124 0 208.5 40.5t84.5 99.5
q0 33 -25.5 51.5t-85.5 28.5l-107 17q-119 19 -119 111q0 76 72.5 137t164.5 61q75 0 116.5 -37.5t71.5 -127.5l15 -47q14 -49 41 -73q53 134 142 213q91 80 198 80q90 0 135 -51.5t45 -121.5q0 -211 -348 -209q-124 0 -177 31.5t-83 124.5l-16 48q-20 65 -53 91.5t-90 26.5
q-73 0 -131 -42.5t-58 -96.5q0 -52 86 -68l116 -19q72 -12 103.5 -44t31.5 -83zM1136 322q-95 0 -175 -71q-77 -69 -128 -190q46 -18 150 -18q290 0 290 158q0 51 -36 86t-101 35z" />
    <glyph glyph-name="uniFECBFBFD" unicode="&#xfecb;&#xfbfd;" horiz-adv-x="998" 
d="M691 -73q0 -65 -84 -111q-83 -47 -246 -47q-306 0 -306 236q0 52 15 119h46q-15 -65 -15 -111q0 -193 260 -193q136 0 210.5 30.5t74.5 79.5q0 33 -32.5 51.5t-91.5 18.5h-32v51l193 26q-58 24 -92 74t-34 114q0 90 55 145q56 56 139 56q69 0 115 -37t56 -103h-45
q-13 41 -46.5 64.5t-79.5 23.5q-67 0 -107.5 -40t-40.5 -112q0 -68 53 -115q53 -46 137 -46q36 0 110 10l50 7v-49l-340 -51q78 -27 78 -91z" />
    <glyph glyph-name="uniFECFFBFD" unicode="&#xfecf;&#xfbfd;" horiz-adv-x="1002" 
d="M790 579q0 -15 -10 -25t-25 -10t-25 10t-10 25t10 25.5t25 10.5t25 -10.5t10 -25.5zM696 -73q0 -65 -84 -111q-83 -47 -246 -47q-306 0 -306 236q0 52 15 119h45q-15 -65 -15 -111q0 -193 261 -193q136 0 210 30.5t74 79.5q0 33 -32 51.5t-91 18.5h-32v51l193 26
q-58 24 -92 74t-34 114q0 90 55 145q56 56 138 56q69 0 115 -37t57 -103h-45q-13 41 -46.5 64.5t-80.5 23.5q-67 0 -107.5 -40t-40.5 -112q0 -68 54 -115q53 -46 136 -46q37 0 111 10l50 7v-49l-341 -52q79 -26 79 -90z" />
    <glyph glyph-name="uniFED3FBFD" unicode="&#xfed3;&#xfbfd;" horiz-adv-x="752" 
d="M547 645q0 -15 -10 -25t-26 -10q-15 0 -25 10t-10 25t10 25t25 10q16 0 26 -10t10 -25zM671 -74q0 -63 -80 -110t-214 -47q-317 0 -317 236q0 52 15 119h45q-15 -65 -15 -111q0 -193 272 -193q109 0 179 32q70 31 70 84q0 34 -31.5 53t-85.5 19h-82v51h82q71 0 103 26
t39 91q-53 -13 -121 -13q-93 0 -143.5 43t-50.5 121q0 81 51.5 139.5t123.5 58.5q88 0 138.5 -75.5t50.5 -209.5q0 -98 -24.5 -150t-80.5 -69q76 -26 76 -95zM382 327q0 -55 39 -84t110 -29q56 0 123 15v6q0 110 -38 174t-105 64q-55 0 -92 -42q-37 -41 -37 -104z" />
    <glyph glyph-name="uniFED7FBFD" unicode="&#xfed7;&#xfbfd;" horiz-adv-x="752" 
d="M599 645q0 -15 -10 -25t-25 -10t-25 10t-10 25t10 25t25 10t25 -10t10 -25zM494 645q0 -15 -10 -25t-25 -10t-25.5 10t-10.5 25t10.5 25t25.5 10t25 -10t10 -25zM671 -74q0 -63 -80 -110t-214 -47q-317 0 -317 236q0 52 15 119h45q-15 -65 -15 -111q0 -193 272 -193
q109 0 179 32q70 31 70 84q0 34 -31.5 53t-85.5 19h-82v51h82q71 0 103 26t39 91q-53 -13 -121 -13q-93 0 -143.5 43t-50.5 121q0 81 51.5 139.5t123.5 58.5q88 0 138.5 -75.5t50.5 -209.5q0 -98 -24.5 -150t-80.5 -69q76 -26 76 -95zM382 327q0 -55 39 -84t110 -29
q56 0 123 15v6q0 110 -38 174t-105 64q-55 0 -92 -42q-37 -41 -37 -104z" />
    <glyph glyph-name="uniFEDFFBFD" unicode="&#xfedf;&#xfbfd;" horiz-adv-x="772" 
d="M671 -69q0 -68 -81.5 -115t-212.5 -47q-317 0 -317 236q0 52 15 119h45q-15 -65 -15 -111q0 -193 272 -193q110 0 179 33q70 33 70 88q0 34 -31.5 57t-86.5 23h-81v51h81q79 0 109 27.5t30 92.5v581h45v-581q0 -138 -98 -162q77 -30 77 -99z" />
    <glyph glyph-name="uniFEE7FBFD" unicode="&#xfee7;&#xfbfd;" horiz-adv-x="777" 
d="M708 489q0 -15 -10 -25t-25 -10q-16 0 -26 10t-10 25t10 25t26 10q15 0 25 -10t10 -25zM701 -69q0 -68 -90 -115t-234 -47q-317 0 -317 236q0 52 15 119h45q-15 -65 -15 -111q0 -193 272 -193q125 0 202 32.5t77 88.5q0 34 -30.5 57t-87.5 23h-81v51h81q79 0 109 27.5
t30 92.5q0 54 -16 177h46q15 -108 15 -177q0 -138 -98 -162q77 -30 77 -99z" />
    <glyph glyph-name="uniFEEBFBFD" unicode="&#xfeeb;&#xfbfd;" horiz-adv-x="1139" 
d="M696 -73q0 -65 -84 -111q-83 -47 -246 -47q-306 0 -306 236q0 52 15 119h45q-15 -65 -15 -111q0 -193 261 -193q136 0 210 30.5t74 79.5q0 33 -33 51.5t-95 18.5h-27v51h5q96 0 188 16q-74 66 -74 154q0 56 30.5 99t78.5 57l-21 8v52l159 -62q131 -49 184 -99
q52 -49 52 -122q0 -76 -51.5 -119t-144.5 -43q-89 0 -164 40q-42 -12 -108 -20q67 -28 67 -85zM660 221q0 -86 88 -139q131 42 131 140q0 49 -32 82.5t-82 33.5q-45 0 -75 -33t-30 -84zM924 222q0 -109 -120 -165q48 -15 100 -15q68 0 108 28.5t40 84.5q0 48 -34.5 82.5
t-117.5 70.5q24 -38 24 -86z" />
    <glyph glyph-name="uniFEF3FBFD" unicode="&#xfef3;&#xfbfd;" horiz-adv-x="777" 
d="M701 -69q0 -68 -90 -115t-234 -47q-317 0 -317 236q0 52 15 119h45q-15 -65 -15 -111q0 -193 272 -193q125 0 202 32.5t77 88.5q0 34 -30.5 57t-87.5 23h-81v51h81q79 0 109 27.5t30 92.5q0 54 -16 177h46q15 -108 15 -177q0 -138 -98 -162q77 -30 77 -99zM745 -316
q0 -15 -10 -25t-25 -10q-16 0 -26 10t-10 25t10 25t26 10q15 0 25 -10t10 -25zM640 -316q0 -15 -10 -25t-26 -10q-15 0 -25 10t-10 25t10 25t25 10q16 0 26 -10t10 -25z" />
    <glyph glyph-name="uniFB58FBFD" unicode="&#xfb58;&#xfbfd;" horiz-adv-x="777" 
d="M701 -69q0 -68 -90 -115t-234 -47q-317 0 -317 236q0 52 15 119h45q-15 -65 -15 -111q0 -193 272 -193q125 0 202 32.5t77 88.5q0 34 -30.5 57t-87.5 23h-81v51h81q79 0 109 27.5t30 92.5q0 54 -16 177h46q15 -108 15 -177q0 -138 -98 -162q77 -30 77 -99zM744 -316
q0 -15 -10 -25t-25 -10t-25 10t-10 25t10 25t25 10t25 -10t10 -25zM639 -316q0 -15 -10 -25t-25 -10q-16 0 -26 10t-10 25t10 25t26 10q15 0 25 -10t10 -25zM691 -411q0 -15 -10 -25t-25 -10t-25.5 10t-10.5 25t10.5 25.5t25.5 10.5t25 -10.5t10 -25.5z" />
    <glyph glyph-name="uniFB90FBFD" unicode="&#xfb90;&#xfbfd;" horiz-adv-x="733" 
d="M672 -62q0 -70 -80 -120q-79 -49 -214 -49q-159 0 -236.5 59t-80.5 177q-1 47 15 119h45q-15 -65 -15 -111q0 -193 272 -193q110 0 179 33q70 33 70 90q0 36 -29 57t-81 21h-89v51h80q114 0 114 77q0 30 -23 65q-21 32 -85 96l-174 174v44l394 231l-1 -59l-341 -197
l151 -151q73 -73 98 -117q26 -44 26 -86q0 -86 -80 -112q40 -12 62.5 -38.5t22.5 -60.5z" />
    <glyph glyph-name="uniFB94FBFD" unicode="&#xfb94;&#xfbfd;" horiz-adv-x="758" 
d="M761 874l-1 -43l-395 -233v43zM696 -62q0 -72 -88 -120.5t-230 -48.5q-159 0 -236.5 59t-80.5 177q-1 47 15 119h45q-15 -65 -15 -111q0 -193 272 -193q122 0 197.5 33.5t75.5 89.5q0 36 -28.5 57t-81.5 21h-89v51h81q114 0 114 77q0 31 -24 65q-23 34 -84 96l-174 174
v44l393 231v-59l-342 -197l151 -151q73 -73 98 -117q27 -43 27 -86q0 -83 -81 -112q41 -12 63 -38.5t22 -60.5z" />
    <glyph glyph-name="uniFE8BFBFD" unicode="&#xfe8b;&#xfbfd;" horiz-adv-x="777" 
d="M761 494v-41l-188 -25v40l55 8q-36 19 -36 63q0 34 23 56.5t58 22.5q30 0 49 -17t23 -47l-32 -4q-8 27 -42 27q-19 0 -32.5 -12.5t-13.5 -30.5q0 -24 21.5 -39t48.5 -11zM701 -69q0 -68 -90 -115t-234 -47q-317 0 -317 236q0 52 15 119h45q-15 -65 -15 -111
q0 -193 272 -193q125 0 202 32.5t77 88.5q0 34 -30.5 57t-87.5 23h-81v51h81q79 0 109 27.5t30 92.5q0 54 -16 177h46q15 -108 15 -177q0 -138 -98 -162q77 -30 77 -99z" />
    <glyph glyph-name="uniFEB3FEB0" unicode="&#xfeb3;&#xfeb0;" horiz-adv-x="987" 
d="M202 386q0 -14 -10 -24.5t-25 -10.5t-25 10.5t-10 24.5q0 15 10 25.5t25 10.5t25 -10.5t10 -25.5zM220 57q0 -145 -49 -214t-150 -69q-43 0 -87 10v52q45 -11 84 -11q80 0 118 56.5t38 175.5q0 44 -6 106l-11 103l272 33l14 -139q7 -66 31 -92t77 -26q97 0 97 128v63h45
v-67q0 -62 25.5 -93t69.5 -31q94 0 94 121q0 60 -14 136h48q11 -77 11 -136q0 -85 -36 -128.5t-103 -43.5q-49 0 -82.5 25t-44.5 70q-16 -95 -116 -95q-72 0 -105 36.5t-42 126.5l-9 88l-181 -22l6 -53q6 -62 6 -110z" />
    <glyph glyph-name="uniFEB7FEB0" unicode="&#xfeb7;&#xfeb0;" horiz-adv-x="987" 
d="M705 449q0 -15 -10 -25.5t-26 -10.5q-15 0 -25 10.5t-10 25.5q0 14 10 24.5t25 10.5t25.5 -10t10.5 -25zM202 386q0 -14 -10 -24.5t-25 -10.5t-25 10.5t-10 24.5q0 15 10 25.5t25 10.5t25 -10.5t10 -25.5zM652 354q0 -15 -10.5 -25.5t-25.5 -10.5t-25 10.5t-10 25.5
q0 14 10 24.5t25 10.5t25.5 -10.5t10.5 -24.5zM757 354q0 -15 -10 -25.5t-26 -10.5q-15 0 -25 10.5t-10 25.5q0 14 10 24.5t25 10.5t25.5 -10.5t10.5 -24.5zM220 57q0 -145 -49 -214t-150 -69q-43 0 -87 10v52q45 -11 84 -11q80 0 118 56.5t38 175.5q0 44 -6 106l-11 103
l272 33l14 -139q7 -66 31 -92t77 -26q97 0 97 128v63h45v-67q0 -62 25.5 -93t69.5 -31q94 0 94 121q0 60 -14 136h48q11 -77 11 -136q0 -85 -36 -128.5t-103 -43.5q-49 0 -82.5 25t-44.5 70q-16 -95 -116 -95q-72 0 -105 36.5t-42 126.5l-9 88l-181 -22l6 -53q6 -62 6 -110z
" />
    <glyph glyph-name="uniFEBBFEB0" unicode="&#xfebb;&#xfeb0;" horiz-adv-x="1069" 
d="M202 420q0 -15 -10 -25t-25 -10t-25 10t-10 25t10 25t25 10t25 -10t10 -25zM220 57q0 -145 -49 -214t-150 -69q-43 0 -87 10v52q45 -11 84 -11q80 0 118 56.5t38 175.5q0 41 -5 101l-15 142l272 31l17 -171q8 -68 46 -91q53 140 148 222.5t208 82.5q89 0 134 -51.5
t45 -121.5q0 -210 -391 -210q-120 0 -173 35q-51 35 -62 128l-12 121l-182 -22l10 -90q6 -55 6 -106zM842 322q-100 0 -183 -73q-84 -73 -133 -196q40 -11 118 -11q335 0 335 159q0 51 -35.5 86t-101.5 35z" />
    <glyph glyph-name="uniFEBFFEB0" unicode="&#xfebf;&#xfeb0;" horiz-adv-x="1069" 
d="M864 494q0 -14 -10 -24.5t-25 -10.5t-25.5 10.5t-10.5 24.5q0 15 10 25.5t26 10.5q15 0 25 -10.5t10 -25.5zM202 420q0 -15 -10 -25t-25 -10t-25 10t-10 25t10 25t25 10t25 -10t10 -25zM220 57q0 -145 -49 -214t-150 -69q-43 0 -87 10v52q45 -11 84 -11q80 0 118 56.5
t38 175.5q0 41 -5 101l-15 142l272 31l17 -171q8 -68 46 -91q53 140 148 222.5t208 82.5q89 0 134 -51.5t45 -121.5q0 -210 -391 -210q-120 0 -173 35q-51 35 -62 128l-12 121l-182 -22l10 -90q6 -55 6 -106zM842 322q-100 0 -183 -73q-84 -73 -133 -196q40 -11 118 -11
q335 0 335 159q0 51 -35.5 86t-101.5 35z" />
    <glyph glyph-name="uniFB59FEF0" unicode="&#xfb59;&#xfef0;" horiz-adv-x="875" 
d="M699 -39q0 -82 -97 -137t-241 -55q-301 0 -301 236q0 52 15 119h45q-15 -65 -15 -111q0 -98 63.5 -145.5t192.5 -47.5q124 0 208.5 40.5t84.5 99.5q0 33 -25.5 51.5t-85.5 28.5l-107 17q-119 19 -119 111q0 76 72.5 137t164.5 61q77 0 119 -39q42 -38 71 -130l15 -49
q17 -58 39 -77q23 -20 77 -20v-38l-13 -13q-65 0 -96 29q-29 29 -55 114l-15 48q-21 68 -54.5 95.5t-90.5 27.5q-73 0 -131 -42.5t-58 -96.5q0 -52 86 -68l116 -19q72 -12 103.5 -44t31.5 -83zM831 -239q0 -15 -10 -25.5t-25 -10.5q-16 0 -26 10.5t-10 25.5t10 25t26 10
q15 0 25 -10.5t10 -24.5zM726 -239q0 -15 -10.5 -25.5t-25.5 -10.5t-25 10.5t-10 25.5q0 14 10 24.5t25 10.5t25.5 -10.5t10.5 -24.5zM778 -334q0 -15 -10 -25.5t-26 -10.5q-15 0 -25 10.5t-10 25.5q0 14 10 24.5t25 10.5q16 0 26 -10.5t10 -24.5z" />
    <glyph glyph-name="uniFB7DFEF0" unicode="&#xfb7d;&#xfef0;" horiz-adv-x="1034" 
d="M695 -59q0 -77 -88.5 -124.5t-235.5 -47.5q-311 0 -311 235q0 53 15 120h45q-15 -67 -15 -112q0 -192 266 -192q125 0 202 32.5t77 88.5q0 34 -30.5 57t-89.5 23h-79v51l244 90q105 38 147 46q-38 11 -91 35l-103 49q-70 31 -101 31q-55 0 -68 -61h-45q5 52 35.5 82
t78.5 30q44 0 122 -36l97 -46q67 -32 104.5 -42.5t79.5 -10.5h33v-48h-24q-20 0 -48 -5l1 -39q4 -53 32 -74.5t89 -21.5v-38l-14 -13q-78 0 -113 33.5t-40 111.5v30q-40 -11 -155 -54l-163 -61q70 -5 108 -38.5t38 -80.5zM929 -85q0 -15 -10.5 -25t-25.5 -10t-25 10.5
t-10 24.5q0 15 10 25.5t25 10.5q16 0 26 -10.5t10 -25.5zM823 -85q0 -14 -10 -24.5t-25 -10.5t-25 10.5t-10 24.5q0 15 10 25.5t25 10.5t25 -10.5t10 -25.5zM875 -179q0 -15 -10 -25.5t-25 -10.5t-25 10.5t-10 25.5q0 14 10 24.5t25 10.5t25 -10.5t10 -24.5z" />
    <glyph glyph-name="uniFB95FEF0" unicode="&#xfb95;&#xfef0;" horiz-adv-x="880" 
d="M924 876v-43l-396 -233v43zM696 -62q0 -72 -88 -120.5t-230 -48.5q-159 0 -236.5 59t-80.5 177q-1 47 15 119h45q-15 -65 -15 -111q0 -193 272 -193q122 0 197.5 33.5t75.5 89.5q0 36 -28.5 57t-81.5 21h-89v51h146q46 0 70 19t24 51q0 27 -22 67l-142 277v44l393 231
v-57l-346 -202l165 -318q45 -82 70.5 -107.5t70.5 -25.5v-38l-14 -13q-42 0 -74 23.5t-62 78.5l-7 12q-5 -33 -28.5 -55.5t-62.5 -29.5q63 -29 63 -91z" />
    <glyph glyph-name="uniFEE0FB51" unicode="&#xfee0;&#xfb51;" horiz-adv-x="556" 
d="M27 654h-33q0 33 18 52.5t47 19.5q10 0 14 -1q40 91 104 91q33 0 52 -18.5t19 -52.5q0 -35 -20.5 -55t-57.5 -20q-23 0 -58 8.5t-53 8.5q-32 0 -32 -33zM173 776q-44 0 -71 -55q55 -12 68 -12q45 0 45 32q0 16 -11.5 25.5t-30.5 9.5zM160 10l-145 -25v52l137 23l66 13
l-102 545h46l100 -535q74 19 102.5 43.5t28.5 67.5l-1 579h45l1 -605q0 -64 26.5 -90.5t91.5 -26.5v-38l-13 -13h-4q-125 0 -142 116q-36 -71 -237 -106z" />
    <glyph glyph-name="uniFB59FEE6" unicode="&#xfb59;&#xfee6;" horiz-adv-x="947" 
d="M359 341q0 -14 -10 -24.5t-25 -10.5t-25.5 10.5t-10.5 24.5q0 15 10.5 25.5t25.5 10.5t25 -10.5t10 -25.5zM597 54q0 -117 -69 -179.5t-196 -62.5q-132 0 -202 55t-70 162q0 58 16 142h45q-16 -84 -16 -134q0 -174 227 -174q111 0 165 46.5t54 144.5q0 39 -7 104l-15 142
l272 31l18 -171q6 -63 32 -86q28 -23 96 -23v-38l-13 -13q-81 0 -116.5 34.5t-43.5 119.5l-12 121l-182 -21l10 -91q7 -65 7 -109zM866 -125q0 -14 -10 -24.5t-25 -10.5t-25.5 10.5t-10.5 24.5q0 15 10.5 25.5t25.5 10.5t25 -10.5t10 -25.5zM761 -125q0 -14 -10 -24.5
t-25 -10.5q-16 0 -26 10t-10 25t10 25.5t26 10.5q15 0 25 -10.5t10 -25.5zM813 -219q0 -15 -10 -25.5t-25 -10.5q-16 0 -26 10.5t-10 25.5t10 25t26 10q15 0 25 -10.5t10 -24.5z" />
    <glyph glyph-name="uniFBFFFEE6" unicode="&#xfbff;&#xfee6;" horiz-adv-x="947" 
d="M359 341q0 -14 -10 -24.5t-25 -10.5t-25.5 10.5t-10.5 24.5q0 15 10.5 25.5t25.5 10.5t25 -10.5t10 -25.5zM597 54q0 -117 -69 -179.5t-196 -62.5q-132 0 -202 55t-70 162q0 58 16 142h45q-16 -84 -16 -134q0 -174 227 -174q111 0 165 46.5t54 144.5q0 39 -7 104l-15 142
l272 31l18 -171q6 -63 32 -86q28 -23 96 -23v-38l-13 -13q-81 0 -116.5 34.5t-43.5 119.5l-12 121l-182 -21l10 -91q7 -65 7 -109zM867 -125q0 -15 -10.5 -25t-25.5 -10t-25 10.5t-10 24.5q0 15 10 25.5t25 10.5q16 0 26 -10.5t10 -25.5zM761 -125q0 -14 -10 -24.5
t-25 -10.5t-25 10.5t-10 24.5q0 15 10 25.5t25 10.5t25 -10.5t10 -25.5z" />
    <glyph glyph-name="uniFB59FEAE" unicode="&#xfb59;&#xfeae;" horiz-adv-x="571" 
d="M220 57q0 -145 -49 -214t-150 -69q-43 0 -87 10v52q45 -11 84 -11q80 0 118 56.5t38 175.5q0 41 -5 101l-15 142l272 31l17 -171q8 -64 33 -86q26 -23 95 -23v-38l-13 -13q-80 0 -115.5 34.5t-44.5 119.5l-12 121l-182 -22l10 -90q6 -55 6 -106zM500 -125
q0 -14 -10 -24.5t-25 -10.5t-25 10.5t-10 24.5q0 15 10 25.5t25 10.5t25 -10.5t10 -25.5zM395 -125q0 -14 -10 -24.5t-25 -10.5t-25.5 10.5t-10.5 24.5q0 15 10.5 25.5t25.5 10.5t25 -10.5t10 -25.5zM447 -219q0 -15 -10 -25.5t-25 -10.5t-25 10.5t-10 25.5q0 14 10 24.5
t25 10.5t25 -10.5t10 -24.5z" />
    <glyph glyph-name="uniFBFFFEAE" unicode="&#xfbff;&#xfeae;" horiz-adv-x="571" 
d="M220 57q0 -145 -49 -214t-150 -69q-43 0 -87 10v52q45 -11 84 -11q80 0 118.5 56.5t38.5 175.5q0 31 -6 101l-15 142l272 31l17 -171q8 -64 33 -86q26 -23 95 -23v-38l-13 -13q-80 0 -115.5 34.5t-44.5 119.5l-12 121l-181 -21l9 -91q6 -55 6 -106zM501 -125
q0 -14 -10 -24.5t-25 -10.5q-16 0 -26 10t-10 25t10 25.5t26 10.5q15 0 25 -10.5t10 -25.5zM396 -125q0 -15 -10 -25t-26 -10q-15 0 -25 10.5t-10 24.5q0 15 10 25.5t25 10.5q16 0 26 -10.5t10 -25.5z" />
    <glyph glyph-name="uniFB59FEF2" unicode="&#xfb59;&#xfef2;" horiz-adv-x="875" 
d="M699 -39q0 -82 -97 -137t-241 -55q-301 0 -301 236q0 52 15 119h45q-15 -65 -15 -111q0 -98 63.5 -145.5t192.5 -47.5q124 0 208.5 40.5t84.5 99.5q0 33 -25.5 51.5t-85.5 28.5l-107 17q-119 19 -119 111q0 76 72.5 137t164.5 61q77 0 119 -39q42 -38 71 -130l15 -49
q17 -58 39 -77q23 -20 77 -20v-38l-13 -13q-65 0 -96 29q-29 29 -55 114l-15 48q-21 68 -54.5 95.5t-90.5 27.5q-73 0 -131 -42.5t-58 -96.5q0 -52 86 -68l116 -19q72 -12 103.5 -44t31.5 -83zM831 -239q0 -15 -10 -25.5t-25 -10.5q-16 0 -26 10.5t-10 25.5t10 25t26 10
q15 0 25 -10.5t10 -24.5zM726 -239q0 -15 -10.5 -25.5t-25.5 -10.5t-25 10.5t-10 25.5q0 14 10 24.5t25 10.5t25.5 -10.5t10.5 -24.5zM778 -334q0 -15 -10 -25.5t-26 -10.5q-15 0 -25 10.5t-10 25.5q0 14 10 24.5t25 10.5q16 0 26 -10.5t10 -24.5zM449 -356
q0 -14 -10.5 -24.5t-25.5 -10.5t-25 10.5t-10 24.5q0 15 10 25.5t25 10.5t25.5 -10.5t10.5 -25.5zM343 -356q0 -14 -10 -24.5t-25 -10.5t-25 10.5t-10 24.5q0 15 10 25.5t25 10.5t25 -10.5t10 -25.5z" />
    <glyph glyph-name="uniFB7DFEF2" unicode="&#xfb7d;&#xfef2;" horiz-adv-x="1034" 
d="M695 -59q0 -77 -88.5 -124.5t-235.5 -47.5q-311 0 -311 235q0 53 15 120h45q-15 -67 -15 -112q0 -192 266 -192q125 0 202 32.5t77 88.5q0 34 -30.5 57t-89.5 23h-79v51l244 90q105 38 147 46q-38 11 -91 35l-103 49q-70 31 -101 31q-55 0 -68 -61h-45q5 52 35.5 82
t78.5 30q44 0 122 -36l97 -46q67 -32 104.5 -42.5t79.5 -10.5h33v-48h-24q-20 0 -48 -5l1 -39q4 -53 32 -74.5t89 -21.5v-38l-14 -13q-78 0 -113 33.5t-40 111.5v30q-40 -11 -155 -54l-163 -61q70 -5 108 -38.5t38 -80.5zM929 -85q0 -15 -10.5 -25t-25.5 -10t-25 10.5
t-10 24.5q0 15 10 25.5t25 10.5q16 0 26 -10.5t10 -25.5zM823 -85q0 -14 -10 -24.5t-25 -10.5t-25 10.5t-10 24.5q0 15 10 25.5t25 10.5t25 -10.5t10 -25.5zM875 -179q0 -15 -10 -25.5t-25 -10.5t-25 10.5t-10 25.5q0 14 10 24.5t25 10.5t25 -10.5t10 -24.5zM465 -356
q0 -15 -10 -25t-26 -10q-15 0 -25 10t-10 25t10 25t25 10q16 0 26 -10t10 -25zM359 -356q0 -15 -10 -25t-25 -10t-25 10t-10 25t10 25t25 10t25 -10t10 -25z" />
    <glyph glyph-name="uniFB95FEF2" unicode="&#xfb95;&#xfef2;" horiz-adv-x="880" 
d="M924 876v-43l-396 -233v43zM696 -62q0 -72 -88 -120.5t-230 -48.5q-159 0 -236.5 59t-80.5 177q-1 47 15 119h45q-15 -65 -15 -111q0 -193 272 -193q122 0 197.5 33.5t75.5 89.5q0 36 -28.5 57t-81.5 21h-89v51h146q46 0 70 19t24 51q0 27 -22 67l-142 277v44l393 231
v-57l-346 -202l165 -318q45 -82 70.5 -107.5t70.5 -25.5v-38l-14 -13q-42 0 -74 23.5t-62 78.5l-7 12q-5 -33 -28.5 -55.5t-62.5 -29.5q63 -29 63 -91zM466 -356q0 -14 -10 -24.5t-26 -10.5q-15 0 -25 10.5t-10 24.5q0 15 10 25.5t25 10.5q16 0 26 -10.5t10 -25.5zM360 -356
q0 -14 -10 -24.5t-25 -10.5t-25 10.5t-10 24.5q0 15 10 25.5t25 10.5t25 -10.5t10 -25.5z" />
    <glyph glyph-name="uniFE92FE8A" unicode="&#xfe92;&#xfe8a;" horiz-adv-x="875" 
d="M185 249v-41l-188 -25v41l54 8q-36 19 -36 62q0 34 23.5 56.5t57.5 22.5q30 0 49 -16.5t23 -46.5l-32 -5q-8 27 -42 27q-19 0 -32.5 -12t-13.5 -30q0 -24 21.5 -39t49.5 -11zM699 -39q0 -82 -97 -137t-241 -55q-301 0 -301 236q0 52 15 119h45q-15 -65 -15 -111
q0 -98 63.5 -145.5t192.5 -47.5q124 0 208.5 40.5t84.5 99.5q0 33 -25.5 51.5t-85.5 28.5l-107 17q-119 19 -119 111q0 76 72.5 137t164.5 61q77 0 119 -39q42 -38 71 -130l15 -49q17 -58 39 -77q23 -20 77 -20v-38l-13 -13q-65 0 -96 29q-29 29 -55 114l-15 48
q-21 68 -54.5 95.5t-90.5 27.5q-73 0 -131 -42.5t-58 -96.5q0 -52 86 -68l116 -19q72 -12 103.5 -44t31.5 -83zM779 -239q0 -15 -10 -25.5t-26 -10.5q-15 0 -25 10.5t-10 25.5q0 14 10 24.5t25 10.5t25.5 -10t10.5 -25z" />
    <glyph glyph-name="uniFE98FE8A" unicode="&#xfe98;&#xfe8a;" horiz-adv-x="875" 
d="M643 486q0 -14 -10.5 -24.5t-25.5 -10.5t-25 10.5t-10 24.5q0 15 10 25.5t25 10.5t25.5 -10.5t10.5 -25.5zM537 486q0 -14 -10 -24.5t-25 -10.5t-25.5 10.5t-10.5 24.5q0 15 10.5 25.5t25.5 10.5t25 -10.5t10 -25.5zM185 249v-41l-188 -25v41l54 8q-36 19 -36 62
q0 34 23.5 56.5t57.5 22.5q30 0 49 -16.5t23 -46.5l-32 -5q-8 27 -42 27q-19 0 -32.5 -12t-13.5 -30q0 -24 21.5 -39t49.5 -11zM699 -39q0 -82 -97 -137t-241 -55q-301 0 -301 236q0 52 15 119h45q-15 -65 -15 -111q0 -98 63.5 -145.5t192.5 -47.5q124 0 208.5 40.5
t84.5 99.5q0 33 -25.5 51.5t-85.5 28.5l-107 17q-119 19 -119 111q0 76 72.5 137t164.5 61q77 0 119 -39q42 -38 71 -130l15 -49q17 -58 39 -77q23 -20 77 -20v-38l-13 -13q-65 0 -96 29q-29 29 -55 114l-15 48q-21 68 -54.5 95.5t-90.5 27.5q-73 0 -131 -42.5t-58 -96.5
q0 -52 86 -68l116 -19q72 -12 103.5 -44t31.5 -83z" />
    <glyph glyph-name="uniFE9CFE8A" unicode="&#xfe9c;&#xfe8a;" horiz-adv-x="875" 
d="M590 581q0 -15 -10 -25t-25 -10t-25 10t-10 25t10 25.5t25 10.5t25 -10.5t10 -25.5zM537 486q0 -14 -10 -24.5t-25 -10.5t-25.5 10.5t-10.5 24.5q0 15 10.5 25.5t25.5 10.5t25 -10.5t10 -25.5zM643 486q0 -14 -10.5 -24.5t-25.5 -10.5t-25 10.5t-10 24.5q0 15 10 25.5
t25 10.5t25.5 -10.5t10.5 -25.5zM185 249v-41l-188 -25v41l54 8q-36 19 -36 62q0 34 23.5 56.5t57.5 22.5q30 0 49 -16.5t23 -46.5l-32 -5q-8 27 -42 27q-19 0 -32.5 -12t-13.5 -30q0 -24 21.5 -39t49.5 -11zM699 -39q0 -82 -97 -137t-241 -55q-301 0 -301 236q0 52 15 119
h45q-15 -65 -15 -111q0 -98 63.5 -145.5t192.5 -47.5q124 0 208.5 40.5t84.5 99.5q0 33 -25.5 51.5t-85.5 28.5l-107 17q-119 19 -119 111q0 76 72.5 137t164.5 61q77 0 119 -39q42 -38 71 -130l15 -49q17 -58 39 -77q23 -20 77 -20v-38l-13 -13q-65 0 -96 29
q-29 29 -55 114l-15 48q-21 68 -54.5 95.5t-90.5 27.5q-73 0 -131 -42.5t-58 -96.5q0 -52 86 -68l116 -19q72 -12 103.5 -44t31.5 -83z" />
    <glyph glyph-name="uniFEA0FE8A" unicode="&#xfea0;&#xfe8a;" horiz-adv-x="1034" 
d="M695 -59q0 -77 -88.5 -124.5t-235.5 -47.5q-311 0 -311 235q0 53 15 120h45q-15 -67 -15 -112q0 -192 266 -192q125 0 202 32.5t77 88.5q0 34 -30.5 57t-89.5 23h-79v51l244 90q105 38 147 46q-38 11 -91 35l-103 49q-70 31 -101 31q-55 0 -68 -61h-45q5 52 35.5 82
t78.5 30q44 0 122 -36l97 -46q67 -32 104.5 -42.5t79.5 -10.5h33v-48h-24q-20 0 -48 -5l1 -39q4 -53 32 -74.5t89 -21.5v-38l-14 -13q-78 0 -113 33.5t-40 111.5v30q-40 -11 -155 -54l-163 -61q70 -5 108 -38.5t38 -80.5zM186 249v-41l-188 -25v41l54 8q-35 18 -35 62
q0 34 23 56.5t57 22.5q30 0 49 -16.5t23 -46.5l-32 -5q-8 27 -41 27q-19 0 -33 -12t-14 -30q0 -24 21.5 -39t49.5 -11zM877 -85q0 -14 -10.5 -24.5t-25.5 -10.5t-25 10.5t-10 24.5q0 15 10 25.5t25 10.5t25.5 -10.5t10.5 -25.5z" />
    <glyph glyph-name="uniFEA4FE8A" unicode="&#xfea4;&#xfe8a;" horiz-adv-x="1034" 
d="M695 -59q0 -77 -88.5 -124.5t-235.5 -47.5q-311 0 -311 235q0 53 15 120h45q-15 -67 -15 -112q0 -192 266 -192q125 0 202 32.5t77 88.5q0 34 -30.5 57t-89.5 23h-79v51l244 90q105 38 147 46q-38 11 -91 35l-103 49q-70 31 -101 31q-55 0 -68 -61h-45q5 52 35.5 82
t78.5 30q44 0 122 -36l97 -46q67 -32 104.5 -42.5t79.5 -10.5h33v-48h-24q-20 0 -48 -5l1 -39q4 -53 32 -74.5t89 -21.5v-38l-14 -13q-78 0 -113 33.5t-40 111.5v30q-40 -11 -155 -54l-163 -61q70 -5 108 -38.5t38 -80.5zM186 249v-41l-188 -25v41l54 8q-35 18 -35 62
q0 34 23 56.5t57 22.5q30 0 49 -16.5t23 -46.5l-32 -5q-8 27 -41 27q-19 0 -33 -12t-14 -30q0 -24 21.5 -39t49.5 -11z" />
    <glyph glyph-name="uniFEA8FE8A" unicode="&#xfea8;&#xfe8a;" horiz-adv-x="1034" 
d="M612 494q0 -14 -10 -24.5t-25 -10.5t-25 10.5t-10 24.5q0 15 10 25.5t25 10.5t25 -10.5t10 -25.5zM695 -59q0 -77 -88.5 -124.5t-235.5 -47.5q-311 0 -311 235q0 53 15 120h45q-15 -67 -15 -112q0 -192 266 -192q125 0 202 32.5t77 88.5q0 34 -30.5 57t-89.5 23h-79v51
l244 90q105 38 147 46q-38 11 -91 35l-103 49q-70 31 -101 31q-55 0 -68 -61h-45q5 52 35.5 82t78.5 30q44 0 122 -36l97 -46q67 -32 104.5 -42.5t79.5 -10.5h33v-48h-24q-20 0 -48 -5l1 -39q4 -53 32 -74.5t89 -21.5v-38l-14 -13q-78 0 -113 33.5t-40 111.5v30
q-40 -11 -155 -54l-163 -61q70 -5 108 -38.5t38 -80.5zM186 249v-41l-188 -25v41l54 8q-35 18 -35 62q0 34 23 56.5t57 22.5q30 0 49 -16.5t23 -46.5l-32 -5q-8 27 -41 27q-19 0 -33 -12t-14 -30q0 -24 21.5 -39t49.5 -11z" />
    <glyph glyph-name="uniFEB4FE8A" unicode="&#xfeb4;&#xfe8a;" horiz-adv-x="1381" 
d="M185 249v-41l-188 -25v41l54 8q-36 19 -36 62q0 34 23.5 56.5t57.5 22.5q30 0 49 -16.5t23 -46.5l-32 -5q-8 27 -42 27q-19 0 -32.5 -12t-13.5 -30q0 -24 21.5 -39t49.5 -11zM743 201l14 -47q20 -67 42 -89q25 -23 75 -23q102 0 102 133v58h45v-67q0 -124 93 -124
q101 0 101 128v96h45v-100q0 -115 121 -115v-38l-13 -13q-117 0 -140 89q-10 -47 -41.5 -72.5t-77.5 -25.5q-100 0 -120 96q-18 -96 -118 -96q-66 0 -100 32q-32 31 -61 125l-15 48q-18 64 -52.5 91t-91.5 27q-73 0 -131 -42.5t-58 -96.5q0 -52 86 -68l116 -19
q72 -12 103.5 -44t31.5 -83q0 -82 -97 -137t-241 -55q-301 0 -301 236q0 52 15 119h45q-15 -65 -15 -111q0 -98 63.5 -145.5t192.5 -47.5q124 0 208.5 40.5t84.5 99.5q0 33 -25.5 51.5t-85.5 28.5l-107 17q-119 19 -119 111q0 76 72.5 137t164.5 61q76 0 119 -38t70 -127z
" />
    <glyph glyph-name="uniFEB8FE8A" unicode="&#xfeb8;&#xfe8a;" horiz-adv-x="1381" 
d="M1033 459q0 -14 -10 -24.5t-25 -10.5t-25 10.5t-10 24.5q0 15 10 25.5t25 10.5t25 -10.5t10 -25.5zM980 364q0 -14 -10 -24.5t-25 -10.5t-25.5 10.5t-10.5 24.5q0 15 10 25.5t26 10.5q15 0 25 -10.5t10 -25.5zM1085 364q0 -14 -10 -24.5t-25 -10.5t-25 10.5t-10 24.5
q0 15 10 25.5t25 10.5t25 -10.5t10 -25.5zM185 249v-41l-188 -25v41l54 8q-36 19 -36 62q0 34 23.5 56.5t57.5 22.5q30 0 49 -16.5t23 -46.5l-32 -5q-8 27 -42 27q-19 0 -32.5 -12t-13.5 -30q0 -24 21.5 -39t49.5 -11zM743 201l14 -47q20 -67 42 -89q25 -23 75 -23
q102 0 102 133v58h45v-67q0 -124 93 -124q101 0 101 128v96h45v-100q0 -115 121 -115v-38l-13 -13q-117 0 -140 89q-10 -47 -41.5 -72.5t-77.5 -25.5q-100 0 -120 96q-18 -96 -118 -96q-66 0 -100 32q-32 31 -61 125l-15 48q-18 64 -52.5 91t-91.5 27q-73 0 -131 -42.5
t-58 -96.5q0 -52 86 -68l116 -19q72 -12 103.5 -44t31.5 -83q0 -82 -97 -137t-241 -55q-301 0 -301 236q0 52 15 119h45q-15 -65 -15 -111q0 -98 63.5 -145.5t192.5 -47.5q124 0 208.5 40.5t84.5 99.5q0 33 -25.5 51.5t-85.5 28.5l-107 17q-119 19 -119 111q0 76 72.5 137
t164.5 61q76 0 119 -38t70 -127z" />
    <glyph glyph-name="uniFEBCFE8A" unicode="&#xfebc;&#xfe8a;" horiz-adv-x="1409" 
d="M699 -39q0 -82 -97 -137t-241 -55q-301 0 -301 236q0 52 15 119h45q-15 -65 -15 -111q0 -98 63.5 -145.5t192.5 -47.5q124 0 208.5 40.5t84.5 99.5q0 33 -25.5 51.5t-85.5 28.5l-107 17q-119 19 -119 111q0 76 72.5 137t164.5 61q75 0 116.5 -37.5t71.5 -127.5l15 -47
q14 -49 41 -73q53 134 142 213q91 80 198 80q90 0 135 -51.5t45 -121.5q0 -68 -34 -111q36 -39 125 -39v-38l-13 -13q-95 0 -146 57q-86 -67 -280 -65q-124 0 -177 31.5t-83 124.5l-16 48q-20 65 -53 91.5t-90 26.5q-73 0 -131 -42.5t-58 -96.5q0 -52 86 -68l116 -19
q72 -12 103.5 -44t31.5 -83zM185 249v-41l-188 -25v41l54 8q-36 19 -36 62q0 34 23.5 56.5t57.5 22.5q30 0 49 -16.5t23 -46.5l-32 -5q-8 27 -42 27q-19 0 -32.5 -12t-13.5 -30q0 -24 21.5 -39t49.5 -11zM1136 322q-95 0 -175 -71q-77 -69 -128 -190q46 -18 150 -18
q290 0 290 158q0 51 -36 86t-101 35z" />
    <glyph glyph-name="uniFEC0FE8A" unicode="&#xfec0;&#xfe8a;" horiz-adv-x="1409" 
d="M1147 494q0 -14 -10.5 -24.5t-25.5 -10.5t-25 10.5t-10 24.5q0 15 10 25.5t25 10.5q16 0 26 -10.5t10 -25.5zM699 -39q0 -82 -97 -137t-241 -55q-301 0 -301 236q0 52 15 119h45q-15 -65 -15 -111q0 -98 63.5 -145.5t192.5 -47.5q124 0 208.5 40.5t84.5 99.5
q0 33 -25.5 51.5t-85.5 28.5l-107 17q-119 19 -119 111q0 76 72.5 137t164.5 61q75 0 116.5 -37.5t71.5 -127.5l15 -47q14 -49 41 -73q53 134 142 213q91 80 198 80q90 0 135 -51.5t45 -121.5q0 -68 -34 -111q36 -39 125 -39v-38l-13 -13q-95 0 -146 57q-86 -67 -280 -65
q-124 0 -177 31.5t-83 124.5l-16 48q-20 65 -53 91.5t-90 26.5q-73 0 -131 -42.5t-58 -96.5q0 -52 86 -68l116 -19q72 -12 103.5 -44t31.5 -83zM185 249v-41l-188 -25v41l54 8q-36 19 -36 62q0 34 23.5 56.5t57.5 22.5q30 0 49 -16.5t23 -46.5l-32 -5q-8 27 -42 27
q-19 0 -32.5 -12t-13.5 -30q0 -24 21.5 -39t49.5 -11zM1136 322q-95 0 -175 -71q-77 -69 -128 -190q46 -18 150 -18q290 0 290 158q0 51 -36 86t-101 35z" />
    <glyph glyph-name="uniFECCFE8A" unicode="&#xfecc;&#xfe8a;" horiz-adv-x="1033" 
d="M696 -73q0 -65 -84 -111q-83 -47 -246 -47q-306 0 -306 236q0 52 15 119h45q-15 -65 -15 -111q0 -193 261 -193q136 0 210 30.5t74 79.5q0 33 -33 51.5t-97 18.5h-25v51l82 4q64 4 126 16q-59 50 -125 166l-28 49v52q122 36 230 36q195 0 196 -131q1 -52 -39 -98.5
t-112 -79.5q61 -14 142 -14h66v-38l-13 -13h-53q-138 0 -213 38q-52 -17 -120 -28q62 -27 62 -83zM187 249v-41l-188 -25v41l55 8q-36 19 -36 62q0 34 23 56.5t58 22.5q30 0 49 -17t23 -46l-32 -5q-8 27 -42 27q-19 0 -32.5 -12t-13.5 -30q0 -24 21.5 -39t48.5 -11zM596 299
l18 -34q40 -71 75 -113t78 -64q80 24 122.5 64.5t41.5 87.5q-1 83 -151 83q-89 0 -184 -24z" />
    <glyph glyph-name="uniFED0FE8A" unicode="&#xfed0;&#xfe8a;" horiz-adv-x="1033" 
d="M804 494q0 -14 -10 -24.5t-25 -10.5t-25 10.5t-10 24.5q0 15 10 25.5t25 10.5t25 -10.5t10 -25.5zM696 -73q0 -65 -84 -111q-83 -47 -246 -47q-306 0 -306 236q0 52 15 119h45q-15 -65 -15 -111q0 -193 261 -193q136 0 210 30.5t74 79.5q0 33 -33 51.5t-97 18.5h-25v51
l82 4q64 4 126 16q-59 50 -125 166l-28 49v52q122 36 230 36q195 0 196 -131q1 -52 -39 -98.5t-112 -79.5q61 -14 142 -14h66v-38l-13 -13h-53q-138 0 -213 38q-52 -17 -120 -28q62 -27 62 -83zM187 249v-41l-188 -25v41l55 8q-36 19 -36 62q0 34 23 56.5t58 22.5
q30 0 49 -17t23 -46l-32 -5q-8 27 -42 27q-19 0 -32.5 -12t-13.5 -30q0 -24 21.5 -39t48.5 -11zM596 299l18 -34q40 -71 75 -113t78 -64q80 24 122.5 64.5t41.5 87.5q-1 83 -151 83q-89 0 -184 -24z" />
    <glyph glyph-name="uniFEDCFE8A" unicode="&#xfedc;&#xfe8a;" horiz-adv-x="880" 
d="M695 -62q0 -72 -88 -120.5t-230 -48.5q-159 0 -236.5 59t-80.5 177q-1 47 15 119h45q-15 -65 -15 -111q0 -193 272 -193q122 0 197.5 33.5t75.5 89.5q0 36 -28.5 57t-81.5 21h-89v51h146q46 0 70 19t24 51q0 27 -22 67l-142 277v44l393 231v-57l-346 -202l165 -318
q45 -82 70.5 -107.5t70.5 -25.5v-38l-14 -13q-42 0 -74 23.5t-62 78.5l-7 12q-5 -33 -28.5 -55.5t-62.5 -29.5q63 -29 63 -91zM188 249v-41l-189 -25v41l55 8q-36 19 -36 62q0 34 23 56.5t58 22.5q30 0 49 -17t23 -46l-32 -5q-8 27 -42 27q-19 0 -32.5 -12t-13.5 -30
q0 -24 21.5 -39t48.5 -11z" />
    <glyph glyph-name="uniFEE0FE8A" unicode="&#xfee0;&#xfe8a;" horiz-adv-x="877" 
d="M695 -69q0 -68 -88.5 -115t-229.5 -47q-317 0 -317 236q0 52 15 119h45q-15 -65 -15 -111q0 -193 272 -193q122 0 197.5 32.5t75.5 88.5q0 34 -30.5 57t-87.5 23h-81v51h127q71 0 106 30.5t35 99.5v571h45v-597q0 -72 25 -98.5t88 -26.5v-38l-13 -13q-122 0 -136 104
q-22 -63 -102 -77q69 -29 69 -96zM188 249v-41l-189 -25v41l55 8q-36 19 -36 62q0 34 23 56.5t58 22.5q30 0 49 -17t23 -46l-32 -5q-8 27 -42 27q-19 0 -32.5 -12t-13.5 -30q0 -24 21.5 -39t48.5 -11z" />
    <glyph glyph-name="uniFEE8FE8A" unicode="&#xfee8;&#xfe8a;" horiz-adv-x="875" 
d="M590 486q0 -14 -10 -24.5t-26 -10.5q-15 0 -25 10.5t-10 24.5q0 15 10 25.5t25 10.5q16 0 26 -10.5t10 -25.5zM185 249v-41l-188 -25v41l54 8q-36 19 -36 62q0 34 23.5 56.5t57.5 22.5q30 0 49 -16.5t23 -46.5l-32 -5q-8 27 -42 27q-19 0 -32.5 -12t-13.5 -30
q0 -24 21.5 -39t49.5 -11zM699 -39q0 -82 -97 -137t-241 -55q-301 0 -301 236q0 52 15 119h45q-15 -65 -15 -111q0 -98 63.5 -145.5t192.5 -47.5q124 0 208.5 40.5t84.5 99.5q0 33 -25.5 51.5t-85.5 28.5l-107 17q-119 19 -119 111q0 76 72.5 137t164.5 61q77 0 119 -39
q42 -38 71 -130l15 -49q17 -58 39 -77q23 -20 77 -20v-38l-13 -13q-65 0 -96 29q-29 29 -55 114l-15 48q-21 68 -54.5 95.5t-90.5 27.5q-73 0 -131 -42.5t-58 -96.5q0 -52 86 -68l116 -19q72 -12 103.5 -44t31.5 -83z" />
    <glyph glyph-name="uniFEF4FE8A" unicode="&#xfef4;&#xfe8a;" horiz-adv-x="875" 
d="M185 249v-41l-188 -25v41l54 8q-36 19 -36 62q0 34 23.5 56.5t57.5 22.5q30 0 49 -16.5t23 -46.5l-32 -5q-8 27 -42 27q-19 0 -32.5 -12t-13.5 -30q0 -24 21.5 -39t49.5 -11zM699 -39q0 -82 -97 -137t-241 -55q-301 0 -301 236q0 52 15 119h45q-15 -65 -15 -111
q0 -98 63.5 -145.5t192.5 -47.5q124 0 208.5 40.5t84.5 99.5q0 33 -25.5 51.5t-85.5 28.5l-107 17q-119 19 -119 111q0 76 72.5 137t164.5 61q77 0 119 -39q42 -38 71 -130l15 -49q17 -58 39 -77q23 -20 77 -20v-38l-13 -13q-65 0 -96 29q-29 29 -55 114l-15 48
q-21 68 -54.5 95.5t-90.5 27.5q-73 0 -131 -42.5t-58 -96.5q0 -52 86 -68l116 -19q72 -12 103.5 -44t31.5 -83zM831 -239q0 -15 -10 -25.5t-25 -10.5t-25 10.5t-10 25.5q0 14 10 24.5t25 10.5t25 -10.5t10 -24.5zM726 -239q0 -15 -10 -25.5t-25 -10.5q-16 0 -26 10.5
t-10 25.5t10.5 25t25.5 10t25 -10.5t10 -24.5z" />
    <glyph glyph-name="uniFB59FE8A" unicode="&#xfb59;&#xfe8a;" horiz-adv-x="875" 
d="M185 249v-41l-188 -25v41l54 8q-36 19 -36 62q0 34 23.5 56.5t57.5 22.5q30 0 49 -16.5t23 -46.5l-32 -5q-8 27 -42 27q-19 0 -32.5 -12t-13.5 -30q0 -24 21.5 -39t49.5 -11zM699 -39q0 -82 -97 -137t-241 -55q-301 0 -301 236q0 52 15 119h45q-15 -65 -15 -111
q0 -98 63.5 -145.5t192.5 -47.5q124 0 208.5 40.5t84.5 99.5q0 33 -25.5 51.5t-85.5 28.5l-107 17q-119 19 -119 111q0 76 72.5 137t164.5 61q77 0 119 -39q42 -38 71 -130l15 -49q17 -58 39 -77q23 -20 77 -20v-38l-13 -13q-65 0 -96 29q-29 29 -55 114l-15 48
q-21 68 -54.5 95.5t-90.5 27.5q-73 0 -131 -42.5t-58 -96.5q0 -52 86 -68l116 -19q72 -12 103.5 -44t31.5 -83zM831 -239q0 -15 -10 -25.5t-25 -10.5q-16 0 -26 10.5t-10 25.5t10 25t26 10q15 0 25 -10.5t10 -24.5zM726 -239q0 -15 -10.5 -25.5t-25.5 -10.5t-25 10.5
t-10 25.5q0 14 10 24.5t25 10.5t25.5 -10.5t10.5 -24.5zM778 -334q0 -15 -10 -25.5t-26 -10.5q-15 0 -25 10.5t-10 25.5q0 14 10 24.5t25 10.5q16 0 26 -10.5t10 -24.5z" />
    <glyph glyph-name="uniFB7DFE8A" unicode="&#xfb7d;&#xfe8a;" horiz-adv-x="1034" 
d="M695 -59q0 -77 -88.5 -124.5t-235.5 -47.5q-311 0 -311 235q0 53 15 120h45q-15 -67 -15 -112q0 -192 266 -192q125 0 202 32.5t77 88.5q0 34 -30.5 57t-89.5 23h-79v51l244 90q105 38 147 46q-38 11 -91 35l-103 49q-70 31 -101 31q-55 0 -68 -61h-45q5 52 35.5 82
t78.5 30q44 0 122 -36l97 -46q67 -32 104.5 -42.5t79.5 -10.5h33v-48h-24q-20 0 -48 -5l1 -39q4 -53 32 -74.5t89 -21.5v-38l-14 -13q-78 0 -113 33.5t-40 111.5v30q-40 -11 -155 -54l-163 -61q70 -5 108 -38.5t38 -80.5zM186 249v-41l-188 -25v41l54 8q-35 18 -35 62
q0 34 23 56.5t57 22.5q30 0 49 -16.5t23 -46.5l-32 -5q-8 27 -41 27q-19 0 -33 -12t-14 -30q0 -24 21.5 -39t49.5 -11zM929 -85q0 -15 -10.5 -25t-25.5 -10t-25 10.5t-10 24.5q0 15 10 25.5t25 10.5q16 0 26 -10.5t10 -25.5zM823 -85q0 -14 -10 -24.5t-25 -10.5t-25 10.5
t-10 24.5q0 15 10 25.5t25 10.5t25 -10.5t10 -25.5zM875 -179q0 -15 -10 -25.5t-25 -10.5t-25 10.5t-10 25.5q0 14 10 24.5t25 10.5t25 -10.5t10 -24.5z" />
    <glyph glyph-name="uniFB95FE8A" unicode="&#xfb95;&#xfe8a;" horiz-adv-x="880" 
d="M923 876v-43l-396 -233v43zM695 -62q0 -72 -88 -120.5t-230 -48.5q-159 0 -236.5 59t-80.5 177q-1 47 15 119h45q-15 -65 -15 -111q0 -193 272 -193q122 0 197.5 33.5t75.5 89.5q0 36 -28.5 57t-81.5 21h-89v51h146q46 0 70 19t24 51q0 27 -22 67l-142 277v44l393 231
v-57l-346 -202l165 -318q45 -82 70.5 -107.5t70.5 -25.5v-38l-14 -13q-42 0 -74 23.5t-62 78.5l-7 12q-5 -33 -28.5 -55.5t-62.5 -29.5q63 -29 63 -91zM188 249v-41l-189 -25v41l55 8q-36 19 -36 62q0 34 23 56.5t58 22.5q30 0 49 -17t23 -46l-32 -5q-8 27 -42 27
q-19 0 -32.5 -12t-13.5 -30q0 -24 21.5 -39t48.5 -11z" />
    <glyph glyph-name="uniFE8CFE8A" unicode="&#xfe8c;&#xfe8a;" horiz-adv-x="875" 
d="M643 491v-41l-188 -25v41l54 8q-35 20 -35 62q0 34 23 56.5t57 22.5q31 0 50 -17t23 -47l-32 -4q-8 27 -42 27q-19 0 -32.5 -12t-13.5 -30q0 -24 21.5 -39t48.5 -11zM185 249v-41l-188 -25v41l54 8q-36 19 -36 62q0 34 23.5 56.5t57.5 22.5q30 0 49 -16.5t23 -46.5
l-32 -5q-8 27 -42 27q-19 0 -32.5 -12t-13.5 -30q0 -24 21.5 -39t49.5 -11zM699 -39q0 -82 -97 -137t-241 -55q-301 0 -301 236q0 52 15 119h45q-15 -65 -15 -111q0 -98 63.5 -145.5t192.5 -47.5q124 0 208.5 40.5t84.5 99.5q0 33 -25.5 51.5t-85.5 28.5l-107 17
q-119 19 -119 111q0 76 72.5 137t164.5 61q77 0 119 -39q42 -38 71 -130l15 -49q17 -58 39 -77q23 -20 77 -20v-38l-13 -13q-65 0 -96 29q-29 29 -55 114l-15 48q-21 68 -54.5 95.5t-90.5 27.5q-73 0 -131 -42.5t-58 -96.5q0 -52 86 -68l116 -19q72 -12 103.5 -44t31.5 -83z
" />
    <glyph glyph-name="uniFE92FBFD" unicode="&#xfe92;&#xfbfd;" horiz-adv-x="875" 
d="M699 -39q0 -82 -97 -137t-241 -55q-301 0 -301 236q0 52 15 119h45q-15 -65 -15 -111q0 -98 63.5 -145.5t192.5 -47.5q124 0 208.5 40.5t84.5 99.5q0 33 -25.5 51.5t-85.5 28.5l-107 17q-119 19 -119 111q0 76 72.5 137t164.5 61q77 0 119 -39q42 -38 71 -130l15 -49
q17 -58 39 -77q23 -20 77 -20v-38l-13 -13q-65 0 -96 29q-29 29 -55 114l-15 48q-21 68 -54.5 95.5t-90.5 27.5q-73 0 -131 -42.5t-58 -96.5q0 -52 86 -68l116 -19q72 -12 103.5 -44t31.5 -83zM779 -239q0 -15 -10 -25.5t-26 -10.5q-15 0 -25 10.5t-10 25.5q0 14 10 24.5
t25 10.5t25.5 -10t10.5 -25z" />
    <glyph glyph-name="uniFE98FBFD" unicode="&#xfe98;&#xfbfd;" horiz-adv-x="875" 
d="M643 486q0 -14 -10.5 -24.5t-25.5 -10.5t-25 10.5t-10 24.5q0 15 10 25.5t25 10.5t25.5 -10.5t10.5 -25.5zM537 486q0 -14 -10 -24.5t-25 -10.5t-25.5 10.5t-10.5 24.5q0 15 10.5 25.5t25.5 10.5t25 -10.5t10 -25.5zM699 -39q0 -82 -97 -137t-241 -55q-301 0 -301 236
q0 52 15 119h45q-15 -65 -15 -111q0 -98 63.5 -145.5t192.5 -47.5q124 0 208.5 40.5t84.5 99.5q0 33 -25.5 51.5t-85.5 28.5l-107 17q-119 19 -119 111q0 76 72.5 137t164.5 61q77 0 119 -39q42 -38 71 -130l15 -49q17 -58 39 -77q23 -20 77 -20v-38l-13 -13q-65 0 -96 29
q-29 29 -55 114l-15 48q-21 68 -54.5 95.5t-90.5 27.5q-73 0 -131 -42.5t-58 -96.5q0 -52 86 -68l116 -19q72 -12 103.5 -44t31.5 -83z" />
    <glyph glyph-name="uniFE9CFBFD" unicode="&#xfe9c;&#xfbfd;" horiz-adv-x="875" 
d="M590 581q0 -15 -10 -25t-25 -10t-25 10t-10 25t10 25.5t25 10.5t25 -10.5t10 -25.5zM537 486q0 -14 -10 -24.5t-25 -10.5t-25.5 10.5t-10.5 24.5q0 15 10.5 25.5t25.5 10.5t25 -10.5t10 -25.5zM643 486q0 -14 -10.5 -24.5t-25.5 -10.5t-25 10.5t-10 24.5q0 15 10 25.5
t25 10.5t25.5 -10.5t10.5 -25.5zM699 -39q0 -82 -97 -137t-241 -55q-301 0 -301 236q0 52 15 119h45q-15 -65 -15 -111q0 -98 63.5 -145.5t192.5 -47.5q124 0 208.5 40.5t84.5 99.5q0 33 -25.5 51.5t-85.5 28.5l-107 17q-119 19 -119 111q0 76 72.5 137t164.5 61
q77 0 119 -39q42 -38 71 -130l15 -49q17 -58 39 -77q23 -20 77 -20v-38l-13 -13q-65 0 -96 29q-29 29 -55 114l-15 48q-21 68 -54.5 95.5t-90.5 27.5q-73 0 -131 -42.5t-58 -96.5q0 -52 86 -68l116 -19q72 -12 103.5 -44t31.5 -83z" />
    <glyph glyph-name="uniFEA0FBFD" unicode="&#xfea0;&#xfbfd;" horiz-adv-x="1034" 
d="M695 -59q0 -77 -88.5 -124.5t-235.5 -47.5q-311 0 -311 235q0 53 15 120h45q-15 -67 -15 -112q0 -192 266 -192q125 0 202 32.5t77 88.5q0 34 -30.5 57t-89.5 23h-79v51l244 90q105 38 147 46q-38 11 -91 35l-103 49q-70 31 -101 31q-55 0 -68 -61h-45q5 52 35.5 82
t78.5 30q44 0 122 -36l97 -46q67 -32 104.5 -42.5t79.5 -10.5h33v-48h-24q-20 0 -48 -5l1 -39q4 -53 32 -74.5t89 -21.5v-38l-14 -13q-78 0 -113 33.5t-40 111.5v30q-40 -11 -155 -54l-163 -61q70 -5 108 -38.5t38 -80.5zM877 -85q0 -14 -10.5 -24.5t-25.5 -10.5t-25 10.5
t-10 24.5q0 15 10 25.5t25 10.5t25.5 -10.5t10.5 -25.5z" />
    <glyph glyph-name="uniFEA4FBFD" unicode="&#xfea4;&#xfbfd;" horiz-adv-x="1034" 
d="M695 -59q0 -77 -88.5 -124.5t-235.5 -47.5q-311 0 -311 235q0 53 15 120h45q-15 -67 -15 -112q0 -192 266 -192q125 0 202 32.5t77 88.5q0 34 -30.5 57t-89.5 23h-79v51l244 90q105 38 147 46q-38 11 -91 35l-103 49q-70 31 -101 31q-55 0 -68 -61h-45q5 52 35.5 82
t78.5 30q44 0 122 -36l97 -46q67 -32 104.5 -42.5t79.5 -10.5h33v-48h-24q-20 0 -48 -5l1 -39q4 -53 32 -74.5t89 -21.5v-38l-14 -13q-78 0 -113 33.5t-40 111.5v30q-40 -11 -155 -54l-163 -61q70 -5 108 -38.5t38 -80.5z" />
    <glyph glyph-name="uniFEA8FBFD" unicode="&#xfea8;&#xfbfd;" horiz-adv-x="1034" 
d="M612 494q0 -14 -10 -24.5t-25 -10.5t-25 10.5t-10 24.5q0 15 10 25.5t25 10.5t25 -10.5t10 -25.5zM695 -59q0 -77 -88.5 -124.5t-235.5 -47.5q-311 0 -311 235q0 53 15 120h45q-15 -67 -15 -112q0 -192 266 -192q125 0 202 32.5t77 88.5q0 34 -30.5 57t-89.5 23h-79v51
l244 90q105 38 147 46q-38 11 -91 35l-103 49q-70 31 -101 31q-55 0 -68 -61h-45q5 52 35.5 82t78.5 30q44 0 122 -36l97 -46q67 -32 104.5 -42.5t79.5 -10.5h33v-48h-24q-20 0 -48 -5l1 -39q4 -53 32 -74.5t89 -21.5v-38l-14 -13q-78 0 -113 33.5t-40 111.5v30
q-40 -11 -155 -54l-163 -61q70 -5 108 -38.5t38 -80.5z" />
    <glyph glyph-name="uniFEB4FBFD" unicode="&#xfeb4;&#xfbfd;" horiz-adv-x="1343" 
d="M655 -40q0 -79 -89 -135t-220 -56q-139 0 -212.5 60t-73.5 176q0 52 15 119h45q-15 -65 -15 -111q0 -94 64 -143.5t177 -49.5q105 0 184.5 40.5t79.5 97.5q0 48 -78 66l-76 17q-61 12 -88.5 34.5t-27.5 61.5q0 73 70 134.5t145 61.5q59 0 94.5 -33.5t57.5 -101.5l15 -50
q15 -55 42 -80.5t72 -25.5q102 0 102 133v58h45v-67q0 -124 93 -124q101 0 101 128v96h45v-100q0 -115 121 -115v-38l-13 -13q-117 0 -140 91q-10 -48 -41 -74t-78 -26q-100 0 -120 96q-18 -96 -118 -96q-63 0 -99.5 37.5t-59.5 113.5l-15 50q-31 95 -108 95
q-54 0 -110.5 -45t-56.5 -96q0 -21 19 -33t60 -21l87 -21q105 -21 105 -111z" />
    <glyph glyph-name="uniFEB8FBFD" unicode="&#xfeb8;&#xfbfd;" horiz-adv-x="1381" 
d="M1033 459q0 -14 -10 -24.5t-25 -10.5t-25 10.5t-10 24.5q0 15 10 25.5t25 10.5t25 -10.5t10 -25.5zM980 364q0 -14 -10 -24.5t-25 -10.5t-25.5 10.5t-10.5 24.5q0 15 10 25.5t26 10.5q15 0 25 -10.5t10 -25.5zM1085 364q0 -14 -10 -24.5t-25 -10.5t-25 10.5t-10 24.5
q0 15 10 25.5t25 10.5t25 -10.5t10 -25.5zM743 201l14 -47q20 -67 42 -89q25 -23 75 -23q102 0 102 133v58h45v-67q0 -124 93 -124q101 0 101 128v96h45v-100q0 -115 121 -115v-38l-13 -13q-117 0 -140 89q-10 -47 -41.5 -72.5t-77.5 -25.5q-100 0 -120 96q-18 -96 -118 -96
q-66 0 -100 32q-32 31 -61 125l-15 48q-18 64 -52.5 91t-91.5 27q-73 0 -131 -42.5t-58 -96.5q0 -52 86 -68l116 -19q72 -12 103.5 -44t31.5 -83q0 -82 -97 -137t-241 -55q-301 0 -301 236q0 52 15 119h45q-15 -65 -15 -111q0 -98 63.5 -145.5t192.5 -47.5q124 0 208.5 40.5
t84.5 99.5q0 33 -25.5 51.5t-85.5 28.5l-107 17q-119 19 -119 111q0 76 72.5 137t164.5 61q76 0 119 -38t70 -127z" />
    <glyph glyph-name="uniFEBCFBFD" unicode="&#xfebc;&#xfbfd;" horiz-adv-x="1409" 
d="M699 -39q0 -82 -97 -137t-241 -55q-301 0 -301 236q0 52 15 119h45q-15 -65 -15 -111q0 -98 63.5 -145.5t192.5 -47.5q124 0 208.5 40.5t84.5 99.5q0 33 -25.5 51.5t-85.5 28.5l-107 17q-119 19 -119 111q0 76 72.5 137t164.5 61q75 0 116.5 -37.5t71.5 -127.5l15 -47
q14 -49 41 -73q53 134 142 213q91 80 198 80q90 0 135 -51.5t45 -121.5q0 -68 -34 -111q36 -39 125 -39v-38l-13 -13q-95 0 -146 57q-86 -67 -280 -65q-124 0 -177 31.5t-83 124.5l-16 48q-20 65 -53 91.5t-90 26.5q-73 0 -131 -42.5t-58 -96.5q0 -52 86 -68l116 -19
q72 -12 103.5 -44t31.5 -83zM1136 322q-95 0 -175 -71q-77 -69 -128 -190q46 -18 150 -18q290 0 290 158q0 51 -36 86t-101 35z" />
    <glyph glyph-name="uniFEC0FBFD" unicode="&#xfec0;&#xfbfd;" horiz-adv-x="1409" 
d="M1147 494q0 -14 -10.5 -24.5t-25.5 -10.5t-25 10.5t-10 24.5q0 15 10 25.5t25 10.5q16 0 26 -10.5t10 -25.5zM699 -39q0 -82 -97 -137t-241 -55q-301 0 -301 236q0 52 15 119h45q-15 -65 -15 -111q0 -98 63.5 -145.5t192.5 -47.5q124 0 208.5 40.5t84.5 99.5
q0 33 -25.5 51.5t-85.5 28.5l-107 17q-119 19 -119 111q0 76 72.5 137t164.5 61q75 0 116.5 -37.5t71.5 -127.5l15 -47q14 -49 41 -73q53 134 142 213q91 80 198 80q90 0 135 -51.5t45 -121.5q0 -68 -34 -111q36 -39 125 -39v-38l-13 -13q-95 0 -146 57q-86 -67 -280 -65
q-124 0 -177 31.5t-83 124.5l-16 48q-20 65 -53 91.5t-90 26.5q-73 0 -131 -42.5t-58 -96.5q0 -52 86 -68l116 -19q72 -12 103.5 -44t31.5 -83zM1136 322q-95 0 -175 -71q-77 -69 -128 -190q46 -18 150 -18q290 0 290 158q0 51 -36 86t-101 35z" />
    <glyph glyph-name="uniFECCFBFD" unicode="&#xfecc;&#xfbfd;" horiz-adv-x="1033" 
d="M696 -73q0 -65 -84 -111q-83 -47 -246 -47q-306 0 -306 236q0 52 15 119h45q-15 -65 -15 -111q0 -193 261 -193q136 0 210 30.5t74 79.5q0 33 -33 51.5t-97 18.5h-25v51l82 4q64 4 126 16q-59 50 -125 166l-28 49v52q122 36 230 36q195 0 196 -131q1 -52 -39 -98.5
t-112 -79.5q61 -14 142 -14h66v-38l-13 -13h-53q-138 0 -213 38q-52 -17 -120 -28q62 -27 62 -83zM596 299l18 -34q40 -71 75 -113t78 -64q80 24 122.5 64.5t41.5 87.5q-1 83 -151 83q-89 0 -184 -24z" />
    <glyph glyph-name="uniFED0FBFD" unicode="&#xfed0;&#xfbfd;" horiz-adv-x="1033" 
d="M804 494q0 -14 -10 -24.5t-25 -10.5t-25 10.5t-10 24.5q0 15 10 25.5t25 10.5t25 -10.5t10 -25.5zM696 -73q0 -65 -84 -111q-83 -47 -246 -47q-306 0 -306 236q0 52 15 119h45q-15 -65 -15 -111q0 -193 261 -193q136 0 210 30.5t74 79.5q0 33 -33 51.5t-97 18.5h-25v51
l82 4q64 4 126 16q-59 50 -125 166l-28 49v52q122 36 230 36q195 0 196 -131q1 -52 -39 -98.5t-112 -79.5q61 -14 142 -14h66v-38l-13 -13h-53q-138 0 -213 38q-52 -17 -120 -28q62 -27 62 -83zM596 299l18 -34q40 -71 75 -113t78 -64q80 24 122.5 64.5t41.5 87.5
q-1 83 -151 83q-89 0 -184 -24z" />
    <glyph glyph-name="uniFEE0FBFD" unicode="&#xfee0;&#xfbfd;" horiz-adv-x="852" 
d="M671 -69q0 -68 -81.5 -115t-212.5 -47q-317 0 -317 236q0 52 15 119h45q-15 -65 -15 -111q0 -193 272 -193q110 0 179 33q70 33 70 88q0 34 -31.5 57t-86.5 23h-81v51h126q71 0 106 30.5t35 99.5v571h45v-597q0 -72 25 -98.5t88 -26.5v-38l-13 -13q-122 0 -136 104
q-22 -63 -102 -77q70 -30 70 -96z" />
    <glyph glyph-name="uniFEE8FBFD" unicode="&#xfee8;&#xfbfd;" horiz-adv-x="875" 
d="M590 486q0 -14 -10 -24.5t-26 -10.5q-15 0 -25 10.5t-10 24.5q0 15 10 25.5t25 10.5q16 0 26 -10.5t10 -25.5zM699 -39q0 -82 -97 -137t-241 -55q-301 0 -301 236q0 52 15 119h45q-15 -65 -15 -111q0 -98 63.5 -145.5t192.5 -47.5q124 0 208.5 40.5t84.5 99.5
q0 33 -25.5 51.5t-85.5 28.5l-107 17q-119 19 -119 111q0 76 72.5 137t164.5 61q77 0 119 -39q42 -38 71 -130l15 -49q17 -58 39 -77q23 -20 77 -20v-38l-13 -13q-65 0 -96 29q-29 29 -55 114l-15 48q-21 68 -54.5 95.5t-90.5 27.5q-73 0 -131 -42.5t-58 -96.5q0 -52 86 -68
l116 -19q72 -12 103.5 -44t31.5 -83z" />
    <glyph glyph-name="uniFEF4FBFD" unicode="&#xfef4;&#xfbfd;" horiz-adv-x="875" 
d="M699 -39q0 -82 -97 -137t-241 -55q-301 0 -301 236q0 52 15 119h45q-15 -65 -15 -111q0 -98 63.5 -145.5t192.5 -47.5q124 0 208.5 40.5t84.5 99.5q0 33 -25.5 51.5t-85.5 28.5l-107 17q-119 19 -119 111q0 76 72.5 137t164.5 61q77 0 119 -39q42 -38 71 -130l15 -49
q17 -58 39 -77q23 -20 77 -20v-38l-13 -13q-65 0 -96 29q-29 29 -55 114l-15 48q-21 68 -54.5 95.5t-90.5 27.5q-73 0 -131 -42.5t-58 -96.5q0 -52 86 -68l116 -19q72 -12 103.5 -44t31.5 -83zM831 -239q0 -15 -10 -25.5t-25 -10.5t-25 10.5t-10 25.5q0 14 10 24.5t25 10.5
t25 -10.5t10 -24.5zM726 -239q0 -15 -10 -25.5t-25 -10.5q-16 0 -26 10.5t-10 25.5t10.5 25t25.5 10t25 -10.5t10 -24.5z" />
    <glyph glyph-name="uniFB59FBFD" unicode="&#xfb59;&#xfbfd;" horiz-adv-x="875" 
d="M699 -39q0 -82 -97 -137t-241 -55q-301 0 -301 236q0 52 15 119h45q-15 -65 -15 -111q0 -98 63.5 -145.5t192.5 -47.5q124 0 208.5 40.5t84.5 99.5q0 33 -25.5 51.5t-85.5 28.5l-107 17q-119 19 -119 111q0 76 72.5 137t164.5 61q77 0 119 -39q42 -38 71 -130l15 -49
q17 -58 39 -77q23 -20 77 -20v-38l-13 -13q-65 0 -96 29q-29 29 -55 114l-15 48q-21 68 -54.5 95.5t-90.5 27.5q-73 0 -131 -42.5t-58 -96.5q0 -52 86 -68l116 -19q72 -12 103.5 -44t31.5 -83zM831 -239q0 -15 -10 -25.5t-25 -10.5q-16 0 -26 10.5t-10 25.5t10 25t26 10
q15 0 25 -10.5t10 -24.5zM726 -239q0 -15 -10.5 -25.5t-25.5 -10.5t-25 10.5t-10 25.5q0 14 10 24.5t25 10.5t25.5 -10.5t10.5 -24.5zM778 -334q0 -15 -10 -25.5t-26 -10.5q-15 0 -25 10.5t-10 25.5q0 14 10 24.5t25 10.5q16 0 26 -10.5t10 -24.5z" />
    <glyph glyph-name="uniFB91FBFD" unicode="&#xfb91;&#xfbfd;" horiz-adv-x="855" 
d="M672 -62q0 -70 -80 -120q-79 -49 -214 -49q-159 0 -236.5 59t-80.5 177q-1 47 15 119h45q-15 -65 -15 -111q0 -193 272 -193q110 0 179 33q70 33 70 90q0 36 -29 57t-81 21h-89v51h145q46 0 70 19t24 51q0 27 -22 67l-141 277v44l393 231l-1 -57l-345 -202l165 -318
q41 -78 67 -105q27 -28 73 -28v-38l-13 -13q-42 0 -73.5 23t-63.5 79l-7 12q-4 -33 -27.5 -55.5t-63.5 -29.5q64 -30 64 -91z" />
    <glyph glyph-name="uniFB95FBFD" unicode="&#xfb95;&#xfbfd;" horiz-adv-x="880" 
d="M924 876v-43l-396 -233v43zM696 -62q0 -72 -88 -120.5t-230 -48.5q-159 0 -236.5 59t-80.5 177q-1 47 15 119h45q-15 -65 -15 -111q0 -193 272 -193q122 0 197.5 33.5t75.5 89.5q0 36 -28.5 57t-81.5 21h-89v51h146q46 0 70 19t24 51q0 27 -22 67l-142 277v44l393 231
v-57l-346 -202l165 -318q45 -82 70.5 -107.5t70.5 -25.5v-38l-14 -13q-42 0 -74 23.5t-62 78.5l-7 12q-5 -33 -28.5 -55.5t-62.5 -29.5q63 -29 63 -91z" />
    <glyph glyph-name="uniFE8CFBFD" unicode="&#xfe8c;&#xfbfd;" horiz-adv-x="875" 
d="M643 491v-41l-188 -25v41l54 8q-35 20 -35 62q0 34 23 56.5t57 22.5q31 0 50 -17t23 -47l-32 -4q-8 27 -42 27q-19 0 -32.5 -12t-13.5 -30q0 -24 21.5 -39t48.5 -11zM699 -39q0 -82 -97 -137t-241 -55q-301 0 -301 236q0 52 15 119h45q-15 -65 -15 -111
q0 -98 63.5 -145.5t192.5 -47.5q124 0 208.5 40.5t84.5 99.5q0 33 -25.5 51.5t-85.5 28.5l-107 17q-119 19 -119 111q0 76 72.5 137t164.5 61q77 0 119 -39q42 -38 71 -130l15 -49q17 -58 39 -77q23 -20 77 -20v-38l-13 -13q-65 0 -96 29q-29 29 -55 114l-15 48
q-21 68 -54.5 95.5t-90.5 27.5q-73 0 -131 -42.5t-58 -96.5q0 -52 86 -68l116 -19q72 -12 103.5 -44t31.5 -83z" />
    <glyph glyph-name="uniFEB4FEB0" unicode="&#xfeb4;&#xfeb0;" horiz-adv-x="1086" 
d="M202 386q0 -14 -10 -24.5t-25 -10.5t-25 10.5t-10 24.5q0 15 10 25.5t25 10.5t25 -10.5t10 -25.5zM220 57q0 -145 -49 -214t-150 -69q-43 0 -87 10v52q45 -11 84 -11q80 0 118 56.5t38 175.5q0 44 -6 106l-11 103l272 33l14 -139q7 -66 31 -92t77 -26q54 0 79 31t25 97
v63h45v-67q0 -124 99 -124q54 0 80 31t26 97v96h45v-100q0 -115 136 -115v-38l-13 -13q-61 0 -101 23.5t-53 66.5q-18 -99 -126 -99q-105 0 -125 95q-18 -95 -123 -95q-72 0 -105 36.5t-42 126.5l-9 88l-181 -22l6 -53q6 -62 6 -110z" />
    <glyph glyph-name="uniFEB8FEB0" unicode="&#xfeb8;&#xfeb0;" horiz-adv-x="1086" 
d="M714 449q0 -15 -10 -25.5t-25 -10.5t-25.5 10.5t-10.5 25.5q0 14 10.5 24.5t25.5 10.5t25 -10.5t10 -24.5zM202 386q0 -14 -10 -24.5t-25 -10.5t-25 10.5t-10 24.5q0 15 10 25.5t25 10.5t25 -10.5t10 -25.5zM661 354q0 -15 -10 -25.5t-25 -10.5q-16 0 -26 10.5t-10 25.5
q0 14 10 24.5t26 10.5q15 0 25 -10.5t10 -24.5zM766 354q0 -15 -10 -25.5t-25 -10.5t-25 10.5t-10 25.5q0 14 10 24.5t25 10.5t25 -10.5t10 -24.5zM220 57q0 -145 -49 -214t-150 -69q-43 0 -87 10v52q45 -11 84 -11q80 0 118 56.5t38 175.5q0 44 -6 106l-11 103l272 33
l14 -139q7 -66 31 -92t77 -26q54 0 79 31t25 97v63h45v-67q0 -124 99 -124q54 0 80 31t26 97v96h45v-100q0 -115 136 -115v-38l-13 -13q-61 0 -101 23.5t-53 66.5q-18 -99 -126 -99q-105 0 -125 95q-18 -95 -123 -95q-72 0 -105 36.5t-42 126.5l-9 88l-181 -22l6 -53
q6 -62 6 -110z" />
    <glyph glyph-name="uniFEBCFEB0" unicode="&#xfebc;&#xfeb0;" horiz-adv-x="1126" 
d="M202 420q0 -15 -10 -25t-25 -10t-25 10t-10 25t10 25t25 10t25 -10t10 -25zM220 57q0 -145 -49 -214t-150 -69q-43 0 -87 10v52q45 -11 84 -11q80 0 118 56.5t38 175.5q0 41 -5 101l-15 142l272 31l17 -171q8 -68 46 -91q53 140 148 222.5t208 82.5q89 0 134 -51.5
t45 -121.5q0 -59 -31 -102q39 -48 133 -48v-38l-13 -13q-101 0 -153 65q-92 -74 -327 -74q-120 0 -173 35q-51 35 -62 128l-12 121l-182 -22l10 -90q6 -55 6 -106zM842 322q-100 0 -183 -73q-84 -73 -133 -196q40 -11 118 -11q335 0 335 159q0 51 -35.5 86t-101.5 35z" />
    <glyph glyph-name="uniFEC0FEB0" unicode="&#xfec0;&#xfeb0;" horiz-adv-x="1126" 
d="M864 494q0 -14 -10 -24.5t-25 -10.5t-25.5 10.5t-10.5 24.5q0 15 10 25.5t26 10.5q15 0 25 -10.5t10 -25.5zM202 420q0 -15 -10 -25t-25 -10t-25 10t-10 25t10 25t25 10t25 -10t10 -25zM220 57q0 -145 -49 -214t-150 -69q-43 0 -87 10v52q45 -11 84 -11q80 0 118 56.5
t38 175.5q0 41 -5 101l-15 142l272 31l17 -171q8 -68 46 -91q53 140 148 222.5t208 82.5q89 0 134 -51.5t45 -121.5q0 -59 -31 -102q39 -48 133 -48v-38l-13 -13q-101 0 -153 65q-92 -74 -327 -74q-120 0 -173 35q-51 35 -62 128l-12 121l-182 -22l10 -90q6 -55 6 -106z
M842 322q-100 0 -183 -73q-84 -73 -133 -196q40 -11 118 -11q335 0 335 159q0 51 -35.5 86t-101.5 35z" />
    <glyph glyph-name="uniFB59FEB0" unicode="&#xfb59;&#xfeb0;" horiz-adv-x="571" 
d="M201 420q0 -15 -10 -25t-25 -10t-25 10t-10 25t10 25t25 10t25 -10t10 -25zM220 57q0 -145 -49 -214t-150 -69q-43 0 -87 10v52q45 -11 84 -11q80 0 118 56.5t38 175.5q0 41 -5 101l-15 142l272 31l17 -171q8 -64 33 -86q26 -23 95 -23v-38l-13 -13q-80 0 -115.5 34.5
t-44.5 119.5l-12 121l-182 -22l10 -90q6 -55 6 -106zM500 -125q0 -14 -10 -24.5t-25 -10.5t-25 10.5t-10 24.5q0 15 10 25.5t25 10.5t25 -10.5t10 -25.5zM395 -125q0 -14 -10 -24.5t-25 -10.5t-25.5 10.5t-10.5 24.5q0 15 10.5 25.5t25.5 10.5t25 -10.5t10 -25.5zM447 -219
q0 -15 -10 -25.5t-25 -10.5t-25 10.5t-10 25.5q0 14 10 24.5t25 10.5t25 -10.5t10 -24.5z" />
    <glyph glyph-name="uniFBFFFEB0" unicode="&#xfbff;&#xfeb0;" horiz-adv-x="571" 
d="M201 420q0 -15 -10 -25t-25 -10t-25 10t-10 25t10 25t25 10t25 -10t10 -25zM220 57q0 -145 -49 -214t-150 -69q-43 0 -87 10v52q45 -11 84 -11q80 0 118.5 56.5t38.5 175.5q0 31 -6 101l-15 142l272 31l17 -171q8 -64 33 -86q26 -23 95 -23v-38l-13 -13
q-80 0 -115.5 34.5t-44.5 119.5l-12 121l-181 -21l9 -91q6 -55 6 -106zM501 -125q0 -14 -10 -24.5t-25 -10.5q-16 0 -26 10t-10 25t10 25.5t26 10.5q15 0 25 -10.5t10 -25.5zM396 -125q0 -15 -10 -25t-26 -10q-15 0 -25 10.5t-10 24.5q0 15 10 25.5t25 10.5q16 0 26 -10.5
t10 -25.5z" />
    <glyph glyph-name="uni066E.init" unicode="&#x66e;" horiz-adv-x="236" 
d="M0 0h-13v38l13 13q74 0 102.5 30t28.5 102q0 78 -16 181h47q14 -104 14 -181q0 -98 -40.5 -140.5t-135.5 -42.5z" />
    <glyph glyph-name="uni066E.medi" unicode="&#x66e;" horiz-adv-x="279" 
d="M279 51v-38l-13 -13q-117 0 -137 91q-19 -91 -142 -91v38l13 13q61 0 88.5 30t27.5 99v119h45v-123q0 -68 27.5 -96.5t90.5 -28.5z" />
    <glyph glyph-name="uni066E.fina" unicode="&#x66e;" horiz-adv-x="895" 
d="M895 13l-13 -13q-120 0 -140 98q-40 -107 -335 -107q-180 0 -263.5 50t-83.5 158q0 73 18 132h46q-19 -69 -19 -124q0 -85 73 -125t229 -40q181 0 253 30q72 32 72 108v119h45v-123q0 -68 27.5 -96.5t90.5 -28.5v-38z" />
    <glyph glyph-name="uni066F.fina" unicode="&#x66f;" horiz-adv-x="710" 
d="M667 71v-20h43v-38l-13 -13h-34q-13 -116 -82.5 -173.5t-210.5 -57.5q-152 0 -231 68.5t-79 197.5q0 66 17 136h45q-17 -74 -17 -136q0 -103 67.5 -159t197.5 -56q121 0 178.5 42t69.5 138h-117q-97 0 -148 44t-51 123q0 85 52 146t126 61q88 0 137.5 -79.5t49.5 -223.5z
M502 51h120v16q0 120 -38 188t-106 68q-56 0 -93 -46t-37 -110q0 -116 154 -116z" />
    <glyph glyph-name="uni06A1.init" unicode="&#x6a1;" horiz-adv-x="443" 
d="M148 0h-161v38l13 13h148q110 0 149.5 21t47.5 94q-58 -14 -121 -14q-92 0 -143 44.5t-51 123.5q0 83 51.5 144t123.5 61q88 0 138 -75.5t50 -209.5q0 -77 -10.5 -122t-40 -72.5t-74 -36.5t-120.5 -9zM75 320q0 -56 39.5 -86t110.5 -30q61 0 123 14v17q0 110 -38 174
t-105 64q-54 0 -92 -44t-38 -109z" />
    <glyph glyph-name="uni06A1.medi" unicode="&#x6a1;" horiz-adv-x="459" 
d="M44 0h-57v38l13 13h44q66 0 112 7q-112 65 -112 172q0 83 55 143t131 60q78 0 130 -59.5t52 -138.5q0 -113 -109 -176q53 -8 109 -8h47v-38l-14 -13h-33q-102 0 -183 26q-80 -26 -185 -26zM89 233q0 -54 38 -95t107 -63q133 44 133 154q0 62 -39 107.5t-100 45.5
q-60 0 -99.5 -44.5t-39.5 -104.5z" />
    <glyph glyph-name="uni06A1.fina" unicode="&#x6a1;" horiz-adv-x="898" 
d="M848 229q0 -101 -108 -166q68 -12 159 -12v-38l-13 -13q-129 0 -221 29q-108 -38 -259 -38q-175 0 -260.5 47.5t-84.5 156.5q0 56 22 136h46q-23 -67 -23 -127q0 -89 72 -125.5t228 -36.5q104 0 186 17q-112 62 -112 170q0 81 54.5 142.5t129.5 61.5q79 0 131.5 -60.5
t52.5 -143.5zM525 232q0 -107 142 -152q136 51 136 152q0 60 -39.5 105t-99.5 45t-99.5 -45t-39.5 -105z" />
    <glyph glyph-name="uni06C2.fina" unicode="&#x6c2;" horiz-adv-x="470" 
d="M334 625v-41l-188 -25v41l54 8q-35 20 -35 62q0 34 23 56.5t58 22.5q30 0 49 -17t23 -47l-32 -4q-8 27 -42 27q-19 0 -32.5 -12t-13.5 -30q0 -24 21.5 -39t48.5 -11zM470 51v-38l-13 -13q-59 0 -88.5 26.5t-36.5 91.5q-31 -90 -147 -90q-72 0 -113.5 38t-41.5 104
q0 52 31.5 93t101.5 81l163 88v68h45v-327q0 -69 22 -95.5t77 -26.5zM75 170q0 -42 29.5 -66t80.5 -24q73 0 107 32t34 100v174l-138 -75q-60 -34 -86.5 -66.5t-26.5 -74.5z" />
    <glyph glyph-name="uni06C3.fina" unicode="&#x6c3;" horiz-adv-x="576" 
d="M370 392q0 -14 -10 -24.5t-25 -10.5t-25 10.5t-10 24.5q0 15 10 25.5t25 10.5t25 -10.5t10 -25.5zM265 392q0 -14 -10 -24.5t-25 -10.5t-25.5 10.5t-10.5 24.5q0 15 10.5 25.5t25.5 10.5t25 -10.5t10 -25.5zM576 51v-38l-14 -13q-82 0 -117 22t-52 90l-12 50
q-13 59 -64 59q-90 0 -291 -116v52q200 115 291 115q45 0 69.5 -22t37.5 -74l13 -53q12 -45 35 -59q23 -13 90 -13h14z" />
    <glyph glyph-name="uni06CC.init" unicode="&#x6cc;" horiz-adv-x="236" arabic-form="initial" 
d="M0 0h-13v38l13 13q74 0 102.5 30t28.5 102q0 78 -16 181h47q14 -104 14 -181q0 -98 -40.5 -140.5t-135.5 -42.5zM198 -125q0 -14 -10 -24.5t-25 -10.5t-25.5 10t-10.5 25t10 25.5t26 10.5q15 0 25 -10.5t10 -25.5zM93 -125q0 -15 -10.5 -25t-25.5 -10t-25 10.5t-10 24.5
q0 15 10 25.5t25 10.5q16 0 26 -10.5t10 -25.5z" />
    <glyph glyph-name="uni06D5.fina" unicode="&#x6d5;" horiz-adv-x="470" 
d="M470 51v-38l-13 -13q-59 0 -88.5 26.5t-36.5 91.5q-31 -90 -147 -90q-72 0 -113.5 38t-41.5 104q0 52 31.5 93t101.5 81l163 88v68h45v-327q0 -69 22 -95.5t77 -26.5zM75 170q0 -42 29.5 -66t80.5 -24q73 0 107 32t34 100v174l-138 -75q-60 -34 -86.5 -66.5t-26.5 -74.5z
" />
    <glyph glyph-name="uniFB51" unicode="&#x671;" horiz-adv-x="243" arabic-form="final" 
d="M-14 644h-32q0 33 17.5 52.5t46.5 19.5q10 0 14 -1q40 91 104 91q34 0 53 -18.5t19 -52.5q0 -35 -20.5 -55t-57.5 -20q-23 0 -58 8.5t-54 8.5q-32 0 -32 -33zM133 766q-45 0 -71 -56q63 -11 68 -11q45 0 45 32q0 16 -11.5 25.5t-30.5 9.5zM243 51v-38l-13 -13
q-79 0 -114.5 39.5t-35.5 128.5v446h45v-446q0 -62 27.5 -89.5t90.5 -27.5z" />
    <glyph glyph-name="uniFB57" unicode="&#x67e;" horiz-adv-x="895" arabic-form="final" 
d="M895 13l-13 -13q-120 0 -140 98q-40 -107 -335 -107q-180 0 -263.5 50t-83.5 158q0 73 18 132h46q-19 -69 -19 -124q0 -85 73 -125t229 -40q181 0 253 30q72 32 72 108v119h45v-123q0 -68 27.5 -96.5t90.5 -28.5v-38zM494 -125q0 -15 -10 -25t-26 -10q-15 0 -25 10.5
t-10 24.5q0 15 10 25.5t25 10.5q16 0 26 -10.5t10 -25.5zM388 -125q0 -14 -10 -24.5t-25 -10.5t-25 10.5t-10 24.5q0 15 10 25.5t25 10.5t25 -10.5t10 -25.5zM441 -219q0 -15 -10.5 -25.5t-25.5 -10.5t-25 10.5t-10 25.5q0 14 10 24.5t25 10.5t25.5 -10.5t10.5 -24.5z" />
    <glyph glyph-name="uniFB58" unicode="&#x67e;" horiz-adv-x="236" arabic-form="initial" 
d="M0 0h-13v38l13 13q74 0 102.5 30t28.5 102q0 78 -16 181h47q14 -104 14 -181q0 -98 -40.5 -140.5t-135.5 -42.5zM198 -125q0 -14 -10.5 -24.5t-25.5 -10.5t-25 10.5t-10 24.5q0 15 10 25.5t25 10.5t25.5 -10.5t10.5 -25.5zM92 -125q0 -14 -10 -24.5t-25 -10.5t-25 10.5
t-10 24.5q0 15 10 25.5t25 10.5t25 -10.5t10 -25.5zM144 -219q0 -15 -10 -25.5t-25 -10.5t-25 10.5t-10 25.5q0 14 10 24.5t25 10.5t25 -10.5t10 -24.5z" />
    <glyph glyph-name="uniFB59" unicode="&#x67e;" horiz-adv-x="279" arabic-form="medial" 
d="M279 51v-38l-13 -13q-117 0 -137 91q-19 -91 -142 -91v38l13 13q61 0 88.5 30t27.5 99v119h45v-123q0 -68 27.5 -96.5t90.5 -28.5zM215 -125q0 -14 -10 -24.5t-25 -10.5t-25 10.5t-10 24.5q0 15 10 25.5t25 10.5t25 -10.5t10 -25.5zM110 -125q0 -14 -10 -24.5t-25 -10.5
t-25.5 10.5t-10.5 24.5q0 15 10.5 25.5t25.5 10.5t25 -10.5t10 -25.5zM162 -219q0 -15 -10 -25.5t-25 -10.5t-25 10.5t-10 25.5q0 14 10 24.5t25 10.5t25 -10.5t10 -24.5z" />
    <glyph glyph-name="uniFB67" unicode="&#x679;" horiz-adv-x="895" arabic-form="final" 
d="M427 372h-136v40h39q8 22 13 31v181h32v-132q36 39 81 39q34 0 54 -21t20 -57q0 -39 -27 -60t-76 -21zM453 491q-58 0 -92 -79h66q71 0 71 41q0 17 -12 27.5t-33 10.5zM895 13l-13 -13q-120 0 -140 98q-40 -107 -335 -107q-180 0 -263.5 50t-83.5 158q0 73 18 132h46
q-19 -69 -19 -124q0 -85 73 -125t229 -40q181 0 253 30q72 32 72 108v119h45v-123q0 -68 27.5 -96.5t90.5 -28.5v-38z" />
    <glyph glyph-name="uniFB68" unicode="&#x679;" horiz-adv-x="236" arabic-form="initial" 
d="M138 452h-135v40h39l12 30v182h32v-133q37 40 81 40q35 0 55 -21t20 -57q0 -39 -27.5 -60t-76.5 -21zM164 571q-57 0 -91 -79h65q72 0 72 41q0 17 -12.5 27.5t-33.5 10.5zM0 0h-13v38l13 13q74 0 102.5 30t28.5 102q0 78 -16 181h47q14 -104 14 -181q0 -98 -40.5 -140.5
t-135.5 -42.5z" />
    <glyph glyph-name="uniFB69" unicode="&#x679;" horiz-adv-x="279" arabic-form="medial" 
d="M151 386h-135v40h39l12 29v183h33v-132q37 40 81 40q34 0 54 -21t20 -57q0 -39 -27.5 -60.5t-76.5 -21.5zM177 506q-57 0 -91 -80h65q72 0 72 42q0 17 -12.5 27.5t-33.5 10.5zM279 51v-38l-13 -13q-117 0 -137 91q-19 -91 -142 -91v38l13 13q61 0 88.5 30t27.5 99v119h45
v-123q0 -68 27.5 -96.5t90.5 -28.5z" />
    <glyph glyph-name="uniFB6B" unicode="&#x6a4;" horiz-adv-x="898" arabic-form="final" 
d="M700 648q0 -14 -10 -24.5t-25 -10.5t-25.5 10.5t-10.5 24.5q0 15 10 25.5t26 10.5q15 0 25 -10.5t10 -25.5zM647 554q0 -15 -10 -25.5t-26 -10.5q-15 0 -25 10.5t-10 25.5q0 14 10 24.5t25 10.5t25.5 -10.5t10.5 -24.5zM752 554q0 -15 -10 -25.5t-25 -10.5t-25.5 10.5
t-10.5 25.5q0 14 10.5 24.5t25.5 10.5t25 -10.5t10 -24.5zM848 229q0 -101 -108 -166q68 -12 159 -12v-38l-13 -13q-129 0 -221 29q-108 -38 -259 -38q-175 0 -260.5 47.5t-84.5 156.5q0 56 22 136h46q-23 -67 -23 -127q0 -89 72 -125.5t228 -36.5q104 0 186 17
q-112 62 -112 170q0 81 54.5 142.5t129.5 61.5q79 0 131.5 -60.5t52.5 -143.5zM525 232q0 -107 142 -152q136 51 136 152q0 60 -39.5 105t-99.5 45t-99.5 -45t-39.5 -105z" />
    <glyph glyph-name="uniFB6C" unicode="&#x6a4;" horiz-adv-x="443" arabic-form="initial" 
d="M241 740q0 -15 -10 -25.5t-25 -10.5t-25.5 10.5t-10.5 25.5t10.5 25t25.5 10t25 -10t10 -25zM188 645q0 -15 -10 -25t-25 -10q-16 0 -26 10t-10 25t10 25t26 10q15 0 25 -10t10 -25zM293 645q0 -15 -10 -25t-25 -10t-25 10t-10 25t10 25t25 10t25 -10t10 -25zM148 0h-161
v38l13 13h148q110 0 149.5 21t47.5 94q-58 -14 -121 -14q-92 0 -143 44.5t-51 123.5q0 83 51.5 144t123.5 61q88 0 138 -75.5t50 -209.5q0 -77 -10.5 -122t-40 -72.5t-74 -36.5t-120.5 -9zM75 320q0 -56 39.5 -86t110.5 -30q61 0 123 14v17q0 110 -38 174t-105 64
q-54 0 -92 -44t-38 -109z" />
    <glyph glyph-name="uniFB6D" unicode="&#x6a4;" horiz-adv-x="459" arabic-form="medial" 
d="M265 648q0 -14 -10.5 -24.5t-25.5 -10.5t-25 10.5t-10 24.5q0 15 10 25.5t25 10.5q16 0 26 -10.5t10 -25.5zM211 554q0 -15 -10 -25.5t-25 -10.5t-25 10.5t-10 25.5q0 14 10 24.5t25 10.5t25 -10.5t10 -24.5zM317 554q0 -15 -10 -25.5t-26 -10.5q-15 0 -25 10.5t-10 25.5
q0 14 10 24.5t25 10.5t25.5 -10.5t10.5 -24.5zM44 0h-57v38l13 13h44q66 0 112 7q-112 65 -112 172q0 83 55 143t131 60q78 0 130 -59.5t52 -138.5q0 -113 -109 -176q53 -8 109 -8h47v-38l-14 -13h-33q-102 0 -183 26q-80 -26 -185 -26zM89 233q0 -54 38 -95t107 -63
q133 44 133 154q0 62 -39 107.5t-100 45.5q-60 0 -99.5 -44.5t-39.5 -104.5z" />
    <glyph glyph-name="uniFB7B" unicode="&#x686;" arabic-form="final" 
d="M600 51v-38l-13 -13q-81 0 -116 36t-35 121v86q-172 -21 -268 -102t-96 -190q0 -96 66.5 -150t183.5 -54q129 0 242 53v-51q-116 -53 -242 -53q-137 0 -217 68q-79 67 -79 184q0 127 105.5 216t294.5 113q-21 5 -70 27l-90 40q-66 29 -102 29q-57 0 -69 -61h-45
q5 52 35 82t80 30q49 0 123 -33l91 -40q70 -32 103 -42t64 -10h18v-49h-17q-24 0 -66 -2v-91q0 -59 27 -82.5t92 -23.5zM372 8q0 -15 -10 -25t-25 -10q-16 0 -26 10t-10 25t10 25t26 10q15 0 25 -10t10 -25zM267 8q0 -15 -10 -25t-26 -10q-15 0 -25 10t-10 25t10 25t25 10
q16 0 26 -10t10 -25zM319 -87q0 -15 -10 -25t-26 -10q-15 0 -25 10t-10 25t10 25.5t25 10.5q16 0 26 -10.5t10 -25.5z" />
    <glyph glyph-name="uniFB7C" unicode="&#x686;" horiz-adv-x="609" arabic-form="initial" 
d="M60 0h-73v38l13 13h60q65 0 111.5 12.5t112.5 50.5l71 39q61 34 107 52q-37 8 -111 41l-97 46q-67 31 -101 31q-55 0 -68 -61h-45q5 52 35.5 82t78.5 30q44 0 122 -36l97 -46q75 -34 106.5 -43.5t77.5 -9.5h33v-48h-32q-34 0 -71 -15q-40 -16 -114 -61l-69 -40
q-80 -45 -128 -60t-116 -15zM401 -125q0 -14 -10 -24.5t-25 -10.5t-25 10.5t-10 24.5q0 15 10 25.5t25 10.5t25 -10.5t10 -25.5zM296 -125q0 -14 -10 -24.5t-25 -10.5t-25.5 10t-10.5 25t10 25.5t26 10.5q15 0 25 -10.5t10 -25.5zM348 -219q0 -15 -10 -25.5t-25 -10.5
t-25.5 10.5t-10.5 25.5q0 14 10.5 24.5t25.5 10.5t25 -10.5t10 -24.5z" />
    <glyph glyph-name="uniFB7D" unicode="&#x686;" horiz-adv-x="639" arabic-form="medial" 
d="M60 0h-73v38l13 13h60q65 0 111.5 12.5t112.5 50.5l71 39q61 34 107 52q-37 8 -111 41l-97 46q-67 31 -101 31q-55 0 -68 -61h-45q5 52 35.5 82t78.5 30q44 0 122 -36l97 -46q75 -34 106.5 -43.5t77.5 -9.5h33v-48h-32q-22 0 -41 -5l1 -39q4 -53 32 -74.5t89 -21.5v-38
l-13 -13q-78 0 -113 33.5t-40 111.5v24q-29 -13 -100 -54l-69 -40q-80 -45 -128 -60t-116 -15zM401 -125q0 -14 -10 -24.5t-25 -10.5t-25 10.5t-10 24.5q0 15 10 25.5t25 10.5t25 -10.5t10 -25.5zM296 -125q0 -14 -10 -24.5t-25 -10.5t-25.5 10t-10.5 25t10 25.5t26 10.5
q15 0 25 -10.5t10 -25.5zM348 -219q0 -15 -10 -25.5t-25 -10.5t-25.5 10.5t-10.5 25.5q0 14 10.5 24.5t25.5 10.5t25 -10.5t10 -24.5z" />
    <glyph glyph-name="uniFB89" unicode="&#x688;" horiz-adv-x="535" arabic-form="final" 
d="M289 551h-135v40h39l12 30v182h32v-133q37 40 81 40q35 0 55 -21t20 -57q0 -39 -27.5 -60t-76.5 -21zM315 671q-57 0 -91 -80h65q72 0 72 41q0 18 -12.5 28.5t-33.5 10.5zM535 51v-38l-13 -13q-40 0 -65.5 16t-45.5 54q-112 -81 -234 -79q-75 1 -110 32t-35 96h45
q0 -40 23.5 -58.5t76.5 -18.5q121 0 218 65q-5 9 -7 17l-125 340h51l118 -325q18 -49 40 -68.5t63 -19.5z" />
    <glyph glyph-name="uniFB8B" unicode="&#x698;" horiz-adv-x="355" arabic-form="final" 
d="M200 514q0 -15 -10 -25t-25 -10q-16 0 -26 10t-10 25t10 25t26 10q15 0 25 -10t10 -25zM147 419q0 -15 -10 -25t-25 -10q-16 0 -26 10t-10 25t10 25t26 10q15 0 25 -10t10 -25zM252 419q0 -15 -10 -25t-25 -10t-25 10t-10 25t10 25t25 10t25 -10t10 -25zM355 13l-13 -13
q-95 0 -130 56q-4 -138 -54 -212.5t-137 -74.5q-44 0 -87 11v52q44 -12 84 -12q75 0 115.5 66t40.5 190q0 92 -18 223h44l18 -139q7 -59 40 -84t97 -25v-38z" />
    <glyph glyph-name="uniFB8D" unicode="&#x691;" horiz-adv-x="355" arabic-form="final" 
d="M176 386h-136v40h40q2 8 12 30v182h32v-132q37 40 81 40q35 0 55 -21t20 -57q0 -39 -27.5 -60.5t-76.5 -21.5zM202 506q-57 0 -91 -80h65q71 0 71 42q0 17 -12 27.5t-33 10.5zM355 13l-13 -13q-95 0 -130 56q-4 -138 -54 -212.5t-137 -74.5q-44 0 -87 11v52
q44 -12 84 -12q75 0 115.5 66t40.5 190q0 92 -18 223h44l18 -139q7 -59 40 -84t97 -25v-38z" />
    <glyph glyph-name="uniFB8F" unicode="&#x6a9;" horiz-adv-x="866" arabic-form="final" 
d="M866 13l-13 -13q-58 0 -96 22t-72 74q-9 -48 -81 -76.5t-207 -28.5q-176 0 -254.5 48.5t-78.5 159.5q0 59 16 125h46q-17 -70 -17 -117q0 -89 68 -127t220 -38q129 0 193 20.5t64 55.5q0 25 -29 73l-172 294v45l393 231v-59l-344 -201l187 -317q49 -79 84 -106
q36 -27 93 -27v-38z" />
    <glyph glyph-name="uniFB90" unicode="&#x6a9;" horiz-adv-x="438" arabic-form="initial" 
d="M181 0h-194v38l13 13h189q53 0 83 23t30 61q0 33 -24 67q-21 33 -82 98l-176 185v45l393 231v-59l-342 -198l153 -163q70 -73 96 -120q27 -45 27 -86q0 -60 -42.5 -97.5t-123.5 -37.5z" />
    <glyph glyph-name="uniFB91" unicode="&#x6a9;" horiz-adv-x="433" arabic-form="medial" 
d="M125 0h-138v38l13 13h126q46 0 70.5 18.5t24.5 48.5q0 25 -29 73l-172 294v45l393 231v-59l-344 -201l187 -317q49 -79 84 -106q36 -27 93 -27v-38l-13 -13q-57 0 -95.5 21.5t-72.5 73.5q-4 -44 -36.5 -69.5t-90.5 -25.5z" />
    <glyph glyph-name="uniFB93" unicode="&#x6af;" horiz-adv-x="866" arabic-form="final" 
d="M849 876v-43l-396 -233v43zM866 13l-13 -13q-58 0 -96 22t-72 74q-9 -48 -81 -76.5t-207 -28.5q-176 0 -254.5 48.5t-78.5 159.5q0 59 16 125h46q-17 -70 -17 -117q0 -89 68 -127t220 -38q129 0 193 20.5t64 55.5q0 25 -29 73l-172 294v45l393 231v-59l-344 -201
l187 -317q49 -79 84 -106q36 -27 93 -27v-38z" />
    <glyph glyph-name="uniFB94" unicode="&#x6af;" horiz-adv-x="438" arabic-form="initial" 
d="M416 876l-1 -44l-395 -232v43zM181 0h-194v38l13 13h189q53 0 83 23t30 61q0 33 -24 67q-21 33 -82 98l-176 185v45l393 231v-59l-342 -198l153 -163q70 -73 96 -120q27 -45 27 -86q0 -60 -42.5 -97.5t-123.5 -37.5z" />
    <glyph glyph-name="uniFB95" unicode="&#x6af;" horiz-adv-x="433" arabic-form="medial" 
d="M416 876v-43l-396 -233v43zM125 0h-138v38l13 13h126q46 0 70.5 18.5t24.5 48.5q0 25 -29 73l-172 294v45l393 231v-59l-344 -201l187 -317q49 -79 84 -106q36 -27 93 -27v-38l-13 -13q-57 0 -95.5 21.5t-72.5 73.5q-4 -44 -36.5 -69.5t-90.5 -25.5z" />
    <glyph glyph-name="uniFB9F" unicode="&#x6ba;" horiz-adv-x="721" arabic-form="final" 
d="M587 48v-8q0 -109 -67 -168.5t-192 -59.5q-134 0 -201 61t-66 178q2 77 20 150h45q-18 -75 -20 -141q-1 -99 54 -148t168 -49q110 0 167 46t57 135q0 44 -7 94l-16 95h46l14 -79q10 -58 38.5 -80.5t94.5 -22.5v-38l-14 -13q-88 0 -121 48z" />
    <glyph glyph-name="uniFBA7" unicode="&#x6c1;" horiz-adv-x="576" arabic-form="final" 
d="M576 51v-38l-14 -13q-82 0 -117 22t-52 90l-12 50q-13 59 -64 59q-90 0 -291 -116v52q200 115 291 115q45 0 69.5 -22t37.5 -74l13 -53q12 -45 35 -59q23 -13 90 -13h14z" />
    <glyph glyph-name="uniFBA8" unicode="&#x6c1;" horiz-adv-x="441" arabic-form="initial" 
d="M381 134q0 -71 -33 -107t-94 -36q-110 0 -130 98q-22 -89 -137 -89l2 38l11 13q113 0 113 121v61h45v-72q0 -119 95 -119q83 0 83 95q0 47 -15 129h47q13 -80 13 -132zM271 -213h-52q-5 20 -5 35q0 34 22 92l15 39l41 -17l-13 -36q-14 -39 -14 -78q0 -17 6 -35z" />
    <glyph glyph-name="uniFBA9" unicode="&#x6c1;" horiz-adv-x="447" arabic-form="medial" 
d="M308 -123l-1 -126l-36 -38l-113 108q-35 34 -53.5 64.5t-24.5 70t11 80.5q-40 -36 -104 -36v38l13 13q46 0 75 19t66 69l24 32l33 -25l-21 -32q-53 -73 -50.5 -133.5t67.5 -121.5l68 -65l1 82q0 175 184 175v-38l-13 -13q-64 0 -94.5 -29t-31.5 -94z" />
    <glyph glyph-name="uniFBAB" unicode="&#x6be;" horiz-adv-x="549" arabic-form="final" 
d="M464 162q0 -64 -60 -111h145v-38l-13 -13h-95q57 -40 57 -102q0 -57 -39.5 -93t-102.5 -36q-73 0 -133.5 57t-102.5 167q-59 4 -110 20v51q47 -15 108 -20q91 183 221 285h47q78 -89 78 -167zM419 165q0 60 -62 124q-111 -91 -194 -247h22q114 0 174 31.5t60 91.5z
M185 -9h-18q36 -83 85 -127t104 -44q44 0 71.5 22t27.5 56q0 78 -124 115q-69 -22 -146 -22z" />
    <glyph glyph-name="uniFBAC" unicode="&#x6be;" horiz-adv-x="579" arabic-form="initial" 
d="M537 154q0 -76 -51.5 -119t-144.5 -43q-81 0 -152 34q-86 -26 -202 -26v38l13 13q60 0 134 10q-80 67 -80 160q0 56 30.5 99t78.5 57l-21 8v52l159 -62q131 -49 184 -99q52 -49 52 -122zM100 221q0 -44 26 -82t71 -62q122 41 122 145q0 49 -32 82.5t-82 33.5
q-45 0 -75 -33t-30 -84zM364 222q0 -109 -109 -169q42 -11 89 -11q68 0 108 28.5t40 84.5q0 48 -34 83t-118 71q24 -40 24 -87z" />
    <glyph glyph-name="uniFBAD" unicode="&#x6be;" horiz-adv-x="499" arabic-form="medial" 
d="M448 -102q0 -57 -39.5 -93t-102.5 -36q-76 0 -140 59t-106 172h-73v38l13 13h61q41 81 99 155t119 123h48q78 -89 78 -167q0 -65 -67 -111h161v-38l-13 -13h-98q60 -39 60 -102zM360 165q0 62 -63 123q-108 -87 -190 -237h21q232 0 232 114zM128 0h-21q80 -180 199 -180
q44 0 71 22t27 56q0 83 -145 118q-66 -16 -131 -16z" />
    <glyph glyph-name="uniFBAF" unicode="&#x6d2;" horiz-adv-x="749" arabic-form="final" 
d="M728 -162v-51q-124 -18 -342 -18q-361 0 -361 114q0 69 95 118.5t278 49.5h351v-38l-13 -13h-338q-84 0 -150 -11t-103 -28t-55.5 -35.5t-18.5 -36.5q0 -69 315 -69q204 0 342 18z" />
    <glyph glyph-name="uniFBB1" unicode="&#x6d3;" horiz-adv-x="749" arabic-form="final" 
d="M388 176v-40l-188 -26v41l55 8q-37 21 -37 63q0 33 23.5 56t57.5 23q31 0 49.5 -17t22.5 -47l-32 -4q-8 27 -42 27q-19 0 -32.5 -12.5t-13.5 -30.5q0 -24 21.5 -39t49.5 -11zM728 -162v-51q-124 -18 -342 -18q-361 0 -361 114q0 69 95 118.5t278 49.5h351v-38l-13 -13
h-338q-84 0 -150 -11t-103 -28t-55.5 -35.5t-18.5 -36.5q0 -69 315 -69q204 0 342 18z" />
    <glyph glyph-name="uniFBFD" unicode="&#x6cc;" horiz-adv-x="726" arabic-form="final" 
d="M696 -70q0 -67 -88.5 -114t-250.5 -47q-297 0 -297 236q0 52 15 119h45q-15 -65 -15 -111q0 -193 252 -193q140 0 216.5 32.5t76.5 80.5q0 28 -28 47.5t-77 19.5h-45v51h226v-38l-13 -13h-51q34 -28 34 -70z" />
    <glyph glyph-name="uniFBFF" unicode="&#x6cc;" horiz-adv-x="279" arabic-form="medial" 
d="M279 51v-38l-13 -13q-117 0 -137 91q-19 -91 -142 -91v38l13 13q61 0 88.5 30t27.5 99v119h45v-123q0 -68 27.5 -96.5t90.5 -28.5zM216 -125q0 -14 -10 -24.5t-25 -10.5t-25.5 10t-10.5 25t10 25.5t26 10.5q15 0 25 -10.5t10 -25.5zM111 -125q0 -15 -10.5 -25t-25.5 -10
t-25 10.5t-10 24.5q0 15 10 25.5t25 10.5q16 0 26 -10.5t10 -25.5z" />
    <glyph glyph-name="uniFDFC" unicode="&#xfdfc;" horiz-adv-x="1146" arabic-form="isolated" 
d="M593 211v-132q0 -129 -68.5 -198t-200.5 -69t-198 61t-65 178q2 77 20 150h45q-18 -75 -20 -141q-1 -99 53 -148t165 -49q224 0 224 216v85q-86 -80 -180 -80q-81 0 -125.5 41.5t-44.5 119.5q0 41 15 99h47q-17 -52 -17 -99q0 -53 33 -81.5t92 -28.5q93 0 180 93v545h45
v-491q1 2 4 5.5t3 4.5l123 169l25 35v277h45v-217q44 58 75 82t64 24q97 0 97 -119h-45q0 67 -52 67q-24 0 -52 -25q-30 -27 -87 -103v-302q0 -68 29.5 -98.5t96.5 -30.5q68 0 95.5 29.5t27.5 100.5q0 78 -16 183h47q14 -106 14 -183q0 -96 -39.5 -138.5t-128.5 -42.5
q-87 0 -129 44t-42 136v241l-112 -154q-6 -9 -13.5 -18.5l-16.5 -20.5t-13 -17zM911 -125q0 -14 -10 -24.5t-25 -10.5q-16 0 -26 10t-10 25t10 25.5t26 10.5q15 0 25 -10.5t10 -25.5zM1016 -125q0 -14 -10 -24.5t-25 -10.5t-25.5 10.5t-10.5 24.5q0 15 10.5 25.5t25.5 10.5
t25 -10.5t10 -25.5z" />
    <glyph glyph-name="uniFE82" unicode="&#x622;" horiz-adv-x="243" arabic-form="final" 
d="M-2 643h-32q0 33 18 52.5t50 19.5q20 0 69 -8.5t69 -8.5q36 0 59 11v-37q-25 -13 -59 -13q-27 0 -73 8.5t-65 8.5q-36 0 -36 -33zM243 51v-38l-13 -13q-79 0 -114.5 39.5t-35.5 128.5v446h45v-446q0 -62 27.5 -89.5t90.5 -27.5z" />
    <glyph glyph-name="uniFE84" unicode="&#x623;" horiz-adv-x="243" arabic-form="final" 
d="M191 733v-40l-188 -26v41l55 8q-36 19 -36 62q0 34 23 57t58 23q30 0 49 -17t23 -47l-32 -4q-8 27 -42 27q-19 0 -32.5 -12.5t-13.5 -30.5q0 -24 21.5 -39t48.5 -11zM243 51v-38l-13 -13q-79 0 -114.5 39.5t-35.5 128.5v446h45v-446q0 -62 27.5 -89.5t90.5 -27.5z" />
    <glyph glyph-name="uniFE86" unicode="&#x624;" horiz-adv-x="453" arabic-form="final" 
d="M309 499v-41l-188 -25v41l54 8q-35 18 -35 62q0 34 23 56.5t57 22.5q31 0 50 -17t22 -46l-32 -5q-8 27 -41 27q-19 0 -33 -12t-14 -30q0 -24 21.5 -39t49.5 -11zM406 70v-19h47v-38l-13 -13h-37q-10 -121 -65 -176t-163 -55q-64 0 -122 15v54q62 -18 124 -18
q86 0 128 41.5t52 138.5h-98q-217 0 -217 166q0 86 52 147t128 61q85 0 134.5 -79.5t49.5 -224.5zM259 51h101v19q0 120 -37.5 186.5t-103.5 66.5q-57 0 -94 -46t-37 -110q0 -116 171 -116z" />
    <glyph glyph-name="uniFE88" unicode="&#x625;" horiz-adv-x="238" arabic-form="final" 
d="M238 13l-14 -13h-3q-75 0 -110.5 40.5t-35.5 127.5l-1 605h45l1 -605q0 -64 26.5 -90.5t91.5 -26.5v-38zM228 -189v-41l-188 -25v41l55 8q-36 21 -36 62q0 34 23 56.5t57 22.5q31 0 50 -17t23 -46l-33 -4q-8 27 -41 27q-19 0 -32.5 -12.5t-13.5 -30.5q0 -24 21.5 -39
t48.5 -11z" />
    <glyph glyph-name="uniFE8A" unicode="&#x626;" horiz-adv-x="726" arabic-form="final" 
d="M193 249v-41l-188 -25v41l55 8q-36 19 -36 62q0 34 23 56.5t57 22.5q31 0 50 -17t23 -46l-32 -5q-8 27 -42 27q-19 0 -32.5 -12t-13.5 -30q0 -24 21.5 -39t48.5 -11zM696 -70q0 -67 -88.5 -114t-250.5 -47q-297 0 -297 236q0 52 15 119h45q-15 -65 -15 -111
q0 -193 252 -193q140 0 216.5 32.5t76.5 80.5q0 28 -28 47.5t-77 19.5h-45v51h226v-38l-13 -13h-51q34 -28 34 -70z" />
    <glyph glyph-name="uniFE8B" unicode="&#x626;" horiz-adv-x="236" arabic-form="initial" 
d="M215 489v-41l-188 -25v41l55 8q-36 19 -36 62q0 34 23 56.5t57 22.5q31 0 50 -17t23 -46l-32 -5q-8 27 -42 27q-19 0 -32.5 -12t-13.5 -30q0 -24 21.5 -39t48.5 -11zM0 0h-13v38l13 13q74 0 102.5 30t28.5 102q0 78 -16 181h47q14 -104 14 -181q0 -98 -40.5 -140.5
t-135.5 -42.5z" />
    <glyph glyph-name="uniFE8C" unicode="&#x626;" horiz-adv-x="279" arabic-form="medial" 
d="M229 424v-41l-189 -25v40l56 8q-37 21 -37 63q0 34 23 56.5t58 22.5q30 0 49 -17t23 -47l-32 -4q-8 27 -42 27q-19 0 -32.5 -12.5t-13.5 -30.5q0 -24 21.5 -39t48.5 -11zM279 51v-38l-13 -13q-117 0 -137 91q-19 -91 -142 -91v38l13 13q61 0 88.5 30t27.5 99v119h45v-123
q0 -68 27.5 -96.5t90.5 -28.5z" />
    <glyph glyph-name="uniFE8E" unicode="&#x627;" horiz-adv-x="238" arabic-form="final" 
d="M238 13l-14 -13h-3q-75 0 -110.5 40.5t-35.5 127.5l-1 605h45l1 -605q0 -64 26.5 -90.5t91.5 -26.5v-38z" />
    <glyph glyph-name="uniFE90" unicode="&#x628;" horiz-adv-x="895" arabic-form="final" 
d="M895 13l-13 -13q-120 0 -140 98q-40 -107 -335 -107q-180 0 -263.5 50t-83.5 158q0 73 18 132h46q-19 -69 -19 -124q0 -85 73 -125t229 -40q181 0 253 30q72 32 72 108v119h45v-123q0 -68 27.5 -96.5t90.5 -28.5v-38zM442 -125q0 -14 -10.5 -24.5t-25.5 -10.5t-25 10.5
t-10 24.5q0 15 10 25.5t25 10.5t25.5 -10.5t10.5 -25.5z" />
    <glyph glyph-name="uniFE91" unicode="&#x628;" horiz-adv-x="236" arabic-form="initial" 
d="M0 0h-13v38l13 13q74 0 102.5 30t28.5 102q0 78 -16 181h47q14 -104 14 -181q0 -98 -40.5 -140.5t-135.5 -42.5zM145 -125q0 -14 -10 -24.5t-25 -10.5t-25 10.5t-10 24.5q0 15 10 25.5t25 10.5t25 -10.5t10 -25.5z" />
    <glyph glyph-name="uniFE92" unicode="&#x628;" horiz-adv-x="279" arabic-form="medial" 
d="M279 51v-38l-13 -13q-117 0 -137 91q-19 -91 -142 -91v38l13 13q61 0 88.5 30t27.5 99v119h45v-123q0 -68 27.5 -96.5t90.5 -28.5zM163 -125q0 -14 -10 -24.5t-25 -10.5t-25 10.5t-10 24.5q0 15 10 25.5t25 10.5t25 -10.5t10 -25.5z" />
    <glyph glyph-name="uniFE94" unicode="&#x629;" horiz-adv-x="470" arabic-form="final" 
d="M334 620q0 -14 -10 -24.5t-26 -10.5q-15 0 -25 10.5t-10 24.5q0 15 10 25.5t25 10.5q16 0 26 -10.5t10 -25.5zM228 620q0 -14 -10 -24.5t-25 -10.5t-25 10.5t-10 24.5q0 15 10 25.5t25 10.5t25 -10.5t10 -25.5zM470 51v-38l-13 -13q-59 0 -88.5 26.5t-36.5 91.5
q-31 -90 -147 -90q-72 0 -113.5 38t-41.5 104q0 52 31.5 93t101.5 81l163 88v68h45v-327q0 -69 22 -95.5t77 -26.5zM75 170q0 -42 29.5 -66t80.5 -24q73 0 107 32t34 100v174l-138 -75q-60 -34 -86.5 -66.5t-26.5 -74.5z" />
    <glyph glyph-name="uniFE96" unicode="&#x62a;" horiz-adv-x="895" arabic-form="final" 
d="M503 404q0 -14 -10 -24.5t-25 -10.5q-16 0 -26 10.5t-10 24.5q0 15 10 25.5t26 10.5q15 0 25 -10.5t10 -25.5zM398 404q0 -14 -10 -24.5t-26 -10.5q-15 0 -25 10.5t-10 24.5q0 15 10 25.5t25 10.5q16 0 26 -10.5t10 -25.5zM895 13l-13 -13q-120 0 -140 98
q-40 -107 -335 -107q-180 0 -263.5 50t-83.5 158q0 73 18 132h46q-19 -69 -19 -124q0 -85 73 -125t229 -40q181 0 253 30q72 32 72 108v119h45v-123q0 -68 27.5 -96.5t90.5 -28.5v-38z" />
    <glyph glyph-name="uniFE97" unicode="&#x62a;" horiz-adv-x="236" arabic-form="initial" 
d="M214 484q0 -14 -10 -24.5t-25 -10.5t-25 10.5t-10 24.5q0 15 10 25.5t25 10.5t25 -10.5t10 -25.5zM109 484q0 -14 -10 -24.5t-25 -10.5t-25.5 10.5t-10.5 24.5q0 15 10.5 25.5t25.5 10.5t25 -10.5t10 -25.5zM0 0h-13v38l13 13q74 0 102.5 30t28.5 102q0 78 -16 181h47
q14 -104 14 -181q0 -98 -40.5 -140.5t-135.5 -42.5z" />
    <glyph glyph-name="uniFE98" unicode="&#x62a;" horiz-adv-x="279" arabic-form="medial" 
d="M228 419q0 -15 -10 -25t-26 -10q-15 0 -25 10t-10 25t10 25t25 10q16 0 26 -10t10 -25zM122 419q0 -15 -10 -25t-25 -10t-25 10t-10 25t10 25t25 10t25 -10t10 -25zM279 51v-38l-13 -13q-117 0 -137 91q-19 -91 -142 -91v38l13 13q61 0 88.5 30t27.5 99v119h45v-123
q0 -68 27.5 -96.5t90.5 -28.5z" />
    <glyph glyph-name="uniFE9A" unicode="&#x62b;" horiz-adv-x="895" arabic-form="final" 
d="M451 499q0 -14 -10 -24.5t-25 -10.5q-16 0 -26 10t-10 25t10 25.5t26 10.5q15 0 25 -10.5t10 -25.5zM398 404q0 -14 -10 -24.5t-26 -10.5q-15 0 -25 10.5t-10 24.5q0 15 10 25.5t25 10.5q16 0 26 -10.5t10 -25.5zM503 404q0 -14 -10 -24.5t-25 -10.5q-16 0 -26 10.5
t-10 24.5q0 15 10 25.5t26 10.5q15 0 25 -10.5t10 -25.5zM895 13l-13 -13q-120 0 -140 98q-40 -107 -335 -107q-180 0 -263.5 50t-83.5 158q0 73 18 132h46q-19 -69 -19 -124q0 -85 73 -125t229 -40q181 0 253 30q72 32 72 108v119h45v-123q0 -68 27.5 -96.5t90.5 -28.5v-38
z" />
    <glyph glyph-name="uniFE9B" unicode="&#x62b;" horiz-adv-x="236" arabic-form="initial" 
d="M162 579q0 -14 -10 -24.5t-25 -10.5t-25 10.5t-10 24.5q0 15 10 25.5t25 10.5t25 -10.5t10 -25.5zM109 484q0 -14 -10 -24.5t-25 -10.5t-25.5 10.5t-10.5 24.5q0 15 10.5 25.5t25.5 10.5t25 -10.5t10 -25.5zM214 484q0 -14 -10 -24.5t-25 -10.5t-25 10.5t-10 24.5
q0 15 10 25.5t25 10.5t25 -10.5t10 -25.5zM0 0h-13v38l13 13q74 0 102.5 30t28.5 102q0 78 -16 181h47q14 -104 14 -181q0 -98 -40.5 -140.5t-135.5 -42.5z" />
    <glyph glyph-name="uniFE9C" unicode="&#x62b;" horiz-adv-x="279" arabic-form="medial" 
d="M176 514q0 -15 -10 -25t-26 -10q-15 0 -25 10t-10 25t10 25t25 10q16 0 26 -10t10 -25zM122 419q0 -15 -10 -25t-25 -10t-25 10t-10 25t10 25t25 10t25 -10t10 -25zM228 419q0 -15 -10 -25t-26 -10q-15 0 -25 10t-10 25t10 25t25 10q16 0 26 -10t10 -25zM279 51v-38
l-13 -13q-117 0 -137 91q-19 -91 -142 -91v38l13 13q61 0 88.5 30t27.5 99v119h45v-123q0 -68 27.5 -96.5t90.5 -28.5z" />
    <glyph glyph-name="uniFE9E" unicode="&#x62c;" arabic-form="final" 
d="M600 51v-38l-13 -13q-81 0 -116 36t-35 121v86q-172 -21 -268 -102t-96 -190q0 -96 66.5 -150t183.5 -54q129 0 242 53v-51q-116 -53 -242 -53q-137 0 -217 68q-79 67 -79 184q0 127 105.5 216t294.5 113q-21 5 -70 27l-90 40q-66 29 -102 29q-57 0 -69 -61h-45
q5 52 35 82t80 30q49 0 123 -33l91 -40q70 -32 103 -42t64 -10h18v-49h-17q-24 0 -66 -2v-91q0 -59 27 -82.5t92 -23.5zM319 -39q0 -15 -10 -25t-25 -10t-25 10t-10 25t10 25t25 10t25 -10t10 -25z" />
    <glyph glyph-name="uniFE9F" unicode="&#x62c;" horiz-adv-x="609" arabic-form="initial" 
d="M60 0h-73v38l13 13h60q65 0 111.5 12.5t112.5 50.5l71 39q61 34 107 52q-37 8 -111 41l-97 46q-67 31 -101 31q-55 0 -68 -61h-45q5 52 35.5 82t78.5 30q44 0 122 -36l97 -46q75 -34 106.5 -43.5t77.5 -9.5h33v-48h-32q-34 0 -71 -15q-40 -16 -114 -61l-69 -40
q-80 -45 -128 -60t-116 -15zM349 -125q0 -14 -10 -24.5t-25 -10.5t-25.5 10.5t-10.5 24.5q0 15 10.5 25.5t25.5 10.5t25 -10.5t10 -25.5z" />
    <glyph glyph-name="uniFEA0" unicode="&#x62c;" horiz-adv-x="639" arabic-form="medial" 
d="M60 0h-73v38l13 13h60q65 0 111.5 12.5t112.5 50.5l71 39q61 34 107 52q-37 8 -111 41l-97 46q-67 31 -101 31q-55 0 -68 -61h-45q5 52 35.5 82t78.5 30q44 0 122 -36l97 -46q75 -34 106.5 -43.5t77.5 -9.5h33v-48h-32q-22 0 -41 -5l1 -39q4 -53 32 -74.5t89 -21.5v-38
l-13 -13q-78 0 -113 33.5t-40 111.5v24q-29 -13 -100 -54l-69 -40q-80 -45 -128 -60t-116 -15zM349 -125q0 -14 -10 -24.5t-25 -10.5t-25.5 10.5t-10.5 24.5q0 15 10.5 25.5t25.5 10.5t25 -10.5t10 -25.5z" />
    <glyph glyph-name="uniFEA2" unicode="&#x62d;" arabic-form="final" 
d="M600 51v-38l-13 -13q-81 0 -116 36t-35 121v86q-172 -21 -268 -102t-96 -190q0 -96 66.5 -150t183.5 -54q129 0 242 53v-51q-116 -53 -242 -53q-137 0 -217 68q-79 67 -79 184q0 127 105.5 216t294.5 113q-21 5 -70 27l-90 40q-66 29 -102 29q-57 0 -69 -61h-45
q5 52 35 82t80 30q49 0 123 -33l91 -40q70 -32 103 -42t64 -10h18v-49h-17q-24 0 -66 -2v-91q0 -59 27 -82.5t92 -23.5z" />
    <glyph glyph-name="uniFEA3" unicode="&#x62d;" horiz-adv-x="609" arabic-form="initial" 
d="M60 0h-73v38l13 13h60q65 0 111.5 12.5t112.5 50.5l71 39q61 34 107 52q-37 8 -111 41l-97 46q-67 31 -101 31q-55 0 -68 -61h-45q5 52 35.5 82t78.5 30q44 0 122 -36l97 -46q75 -34 106.5 -43.5t77.5 -9.5h33v-48h-32q-34 0 -71 -15q-40 -16 -114 -61l-69 -40
q-80 -45 -128 -60t-116 -15z" />
    <glyph glyph-name="uniFEA4" unicode="&#x62d;" horiz-adv-x="639" arabic-form="medial" 
d="M60 0h-73v38l13 13h60q65 0 111.5 12.5t112.5 50.5l71 39q61 34 107 52q-37 8 -111 41l-97 46q-67 31 -101 31q-55 0 -68 -61h-45q5 52 35.5 82t78.5 30q44 0 122 -36l97 -46q75 -34 106.5 -43.5t77.5 -9.5h33v-48h-32q-22 0 -41 -5l1 -39q4 -53 32 -74.5t89 -21.5v-38
l-13 -13q-78 0 -113 33.5t-40 111.5v24q-29 -13 -100 -54l-69 -40q-80 -45 -128 -60t-116 -15z" />
    <glyph glyph-name="uniFEA6" unicode="&#x62e;" arabic-form="final" 
d="M302 526q0 -15 -10 -25.5t-25 -10.5q-16 0 -26 10.5t-10 25.5q0 14 10.5 24.5t25.5 10.5t25 -10.5t10 -24.5zM600 51v-38l-13 -13q-81 0 -116 36t-35 121v86q-172 -21 -268 -102t-96 -190q0 -96 66.5 -150t183.5 -54q129 0 242 53v-51q-116 -53 -242 -53q-137 0 -217 68
q-79 67 -79 184q0 127 105.5 216t294.5 113q-21 5 -70 27l-90 40q-66 29 -102 29q-57 0 -69 -61h-45q5 52 35 82t80 30q49 0 123 -33l91 -40q70 -32 103 -42t64 -10h18v-49h-17q-24 0 -66 -2v-91q0 -59 27 -82.5t92 -23.5z" />
    <glyph glyph-name="uniFEA7" unicode="&#x62e;" horiz-adv-x="609" arabic-form="initial" 
d="M238 490q0 -15 -10 -25.5t-25 -10.5t-25.5 10.5t-10.5 25.5t10.5 25t25.5 10t25 -10t10 -25zM60 0h-73v38l13 13h60q65 0 111.5 12.5t112.5 50.5l71 39q61 34 107 52q-37 8 -111 41l-97 46q-67 31 -101 31q-55 0 -68 -61h-45q5 52 35.5 82t78.5 30q44 0 122 -36l97 -46
q75 -34 106.5 -43.5t77.5 -9.5h33v-48h-32q-34 0 -71 -15q-40 -16 -114 -61l-69 -40q-80 -45 -128 -60t-116 -15z" />
    <glyph glyph-name="uniFEA8" unicode="&#x62e;" horiz-adv-x="639" arabic-form="medial" 
d="M238 490q0 -15 -10 -25.5t-25 -10.5t-25.5 10.5t-10.5 25.5t10.5 25t25.5 10t25 -10t10 -25zM60 0h-73v38l13 13h60q65 0 111.5 12.5t112.5 50.5l71 39q61 34 107 52q-37 8 -111 41l-97 46q-67 31 -101 31q-55 0 -68 -61h-45q5 52 35.5 82t78.5 30q44 0 122 -36l97 -46
q75 -34 106.5 -43.5t77.5 -9.5h33v-48h-32q-22 0 -41 -5l1 -39q4 -53 32 -74.5t89 -21.5v-38l-13 -13q-78 0 -113 33.5t-40 111.5v24q-29 -13 -100 -54l-69 -40q-80 -45 -128 -60t-116 -15z" />
    <glyph glyph-name="uniFEAA" unicode="&#x62f;" horiz-adv-x="535" arabic-form="final" 
d="M535 51v-38l-13 -13q-40 0 -65.5 16t-45.5 54q-112 -81 -234 -79q-75 1 -110 32t-35 96h45q0 -40 23.5 -58.5t76.5 -18.5q121 0 218 65q-5 9 -7 17l-125 340h51l118 -325q18 -49 40 -68.5t63 -19.5z" />
    <glyph glyph-name="uniFEAC" unicode="&#x630;" horiz-adv-x="535" arabic-form="final" 
d="M313 584q0 -15 -10 -25t-26 -10q-15 0 -25 10t-10 25t10 25t25 10q16 0 26 -10t10 -25zM535 51v-38l-13 -13q-40 0 -65.5 16t-45.5 54q-112 -81 -234 -79q-75 1 -110 32t-35 96h45q0 -40 23.5 -58.5t76.5 -18.5q121 0 218 65q-5 9 -7 17l-125 340h51l118 -325
q18 -49 40 -68.5t63 -19.5z" />
    <glyph glyph-name="uniFEAE" unicode="&#x631;" horiz-adv-x="355" arabic-form="final" 
d="M355 13l-13 -13q-95 0 -130 56q-4 -138 -54 -212.5t-137 -74.5q-44 0 -87 11v52q44 -12 84 -12q75 0 115.5 66t40.5 190q0 92 -18 223h44l18 -139q7 -59 40 -84t97 -25v-38z" />
    <glyph glyph-name="uniFEB0" unicode="&#x632;" horiz-adv-x="355" arabic-form="final" 
d="M200 419q0 -15 -10.5 -25t-25.5 -10t-25 10t-10 25t10 25t25 10t25.5 -10t10.5 -25zM355 13l-13 -13q-95 0 -130 56q-4 -138 -54 -212.5t-137 -74.5q-44 0 -87 11v52q44 -12 84 -12q75 0 115.5 66t40.5 190q0 92 -18 223h44l18 -139q7 -59 40 -84t97 -25v-38z" />
    <glyph glyph-name="uniFEB2" unicode="&#x633;" horiz-adv-x="1196" arabic-form="final" 
d="M586 46v-6q0 -109 -67 -168.5t-192 -59.5q-131 0 -198.5 59t-68.5 173q0 68 21 157h45q-21 -84 -21 -150q0 -188 222 -188q110 0 167 46t57 135q0 44 -7 94l-17 95h46l15 -79q10 -59 35 -85.5t68 -26.5q96 0 96 128v63h45v-67q0 -124 93 -124q100 0 100 128v96h46v-100
q0 -115 125 -115v-38l-13 -13q-57 0 -94.5 24t-49.5 67q-16 -100 -119 -100q-97 0 -120 93q-18 -93 -115 -93q-68 0 -99 55z" />
    <glyph glyph-name="uniFEB3" unicode="&#x633;" horiz-adv-x="700" arabic-form="initial" 
d="M640 163q0 -85 -36 -128.5t-100 -43.5q-107 0 -130 96q-16 -96 -115 -96q-110 0 -130 98q-19 -89 -142 -89v38l13 13q117 0 117 119v63h45v-67q0 -63 25 -93.5t78 -30.5q96 0 96 128v63h45l1 -67q0 -124 97 -124q91 0 91 121q0 67 -17 136h48q14 -76 14 -136z" />
    <glyph glyph-name="uniFEB4" unicode="&#x633;" horiz-adv-x="771" arabic-form="medial" 
d="M771 13l-13 -13q-57 0 -94.5 23.5t-50.5 65.5q-17 -98 -117 -98q-48 0 -80 24.5t-42 70.5q-18 -95 -115 -95q-110 0 -130 98q-19 -89 -142 -89v38l13 13q117 0 117 119v63h45v-67q0 -63 25 -93.5t78 -30.5q96 0 96 128v63h45l1 -67q0 -124 95 -124q98 0 98 128v96h45
v-100q0 -115 126 -115v-38z" />
    <glyph glyph-name="uniFEB6" unicode="&#x634;" horiz-adv-x="1196" arabic-form="final" 
d="M843 459q0 -15 -10.5 -25t-25.5 -10t-25 10.5t-10 24.5q0 15 10 25.5t25 10.5q16 0 26 -10.5t10 -25.5zM789 364q0 -14 -10 -24.5t-25 -10.5t-25 10.5t-10 24.5q0 15 10 25.5t25 10.5t25 -10.5t10 -25.5zM895 364q0 -14 -10.5 -24.5t-25.5 -10.5t-25 10.5t-10 24.5
q0 15 10 25.5t25 10.5q16 0 26 -10.5t10 -25.5zM586 46v-6q0 -109 -67 -168.5t-192 -59.5q-131 0 -198.5 59t-68.5 173q0 68 21 157h45q-21 -84 -21 -150q0 -188 222 -188q110 0 167 46t57 135q0 44 -7 94l-17 95h46l15 -79q10 -59 35 -85.5t68 -26.5q96 0 96 128v63h45v-67
q0 -124 93 -124q100 0 100 128v96h46v-100q0 -115 125 -115v-38l-13 -13q-57 0 -94.5 24t-49.5 67q-16 -100 -119 -100q-97 0 -120 93q-18 -93 -115 -93q-68 0 -99 55z" />
    <glyph glyph-name="uniFEB7" unicode="&#x634;" horiz-adv-x="700" arabic-form="initial" 
d="M418 459q0 -15 -10 -25t-26 -10q-15 0 -25 10.5t-10 24.5q0 15 10 25.5t25 10.5q16 0 26 -10.5t10 -25.5zM365 364q0 -14 -10.5 -24.5t-25.5 -10.5t-25 10.5t-10 24.5q0 15 10 25.5t25 10.5q16 0 26 -10.5t10 -25.5zM470 364q0 -14 -10 -24.5t-25 -10.5t-25.5 10.5
t-10.5 24.5q0 15 10 25.5t26 10.5q15 0 25 -10.5t10 -25.5zM640 163q0 -85 -36 -128.5t-100 -43.5q-107 0 -130 96q-16 -96 -115 -96q-110 0 -130 98q-19 -89 -142 -89v38l13 13q117 0 117 119v63h45v-67q0 -63 25 -93.5t78 -30.5q96 0 96 128v63h45l1 -67q0 -124 97 -124
q91 0 91 121q0 67 -17 136h48q14 -76 14 -136z" />
    <glyph glyph-name="uniFEB8" unicode="&#x634;" horiz-adv-x="771" arabic-form="medial" 
d="M414 459q0 -15 -10 -25t-26 -10q-15 0 -25 10.5t-10 24.5q0 15 10 25.5t25 10.5q16 0 26 -10.5t10 -25.5zM360 364q0 -14 -10 -24.5t-25 -10.5t-25 10.5t-10 24.5q0 15 10 25.5t25 10.5t25 -10.5t10 -25.5zM466 364q0 -14 -10 -24.5t-26 -10.5q-15 0 -25 10.5t-10 24.5
q0 15 10 25.5t25 10.5q16 0 26 -10.5t10 -25.5zM771 13l-13 -13q-57 0 -94.5 23.5t-50.5 65.5q-17 -98 -117 -98q-48 0 -80 24.5t-42 70.5q-18 -95 -115 -95q-110 0 -130 98q-19 -89 -142 -89v38l13 13q117 0 117 119v63h45v-67q0 -63 25 -93.5t78 -30.5q96 0 96 128v63h45
l1 -67q0 -124 95 -124q98 0 98 128v96h45v-100q0 -115 126 -115v-38z" />
    <glyph glyph-name="uniFEBA" unicode="&#x635;" horiz-adv-x="1293" arabic-form="final" 
d="M587 60v-20q0 -109 -67 -168.5t-192 -59.5q-134 0 -201 61t-66 178q2 77 20 150h45q-18 -75 -20 -141q-1 -99 54 -148t168 -49q110 0 167 46t57 135q0 44 -7 94l-16 95h46l13 -72q12 -76 68 -98q55 143 149 227t207 84q90 0 135 -51.5t45 -121.5q0 -59 -30 -103
q40 -47 132 -47v-38l-13 -13q-100 0 -152 64q-90 -73 -312 -73q-99 0 -152.5 16t-77.5 53zM1010 322q-100 0 -183 -74t-132 -196q47 -10 135 -10q317 0 317 159q0 51 -36 86t-101 35z" />
    <glyph glyph-name="uniFEBB" unicode="&#x635;" horiz-adv-x="796" arabic-form="initial" 
d="M752 201q0 -210 -375 -210q-116 0 -176.5 25t-75.5 79q-18 -95 -138 -95v38l13 13q60 0 86 29t26 95v58h45v-63q0 -80 59 -105q55 143 149 226t207 83q90 0 135 -51.5t45 -121.5zM569 322q-99 0 -182 -74t-132 -195q45 -11 135 -11q317 0 317 159q0 51 -36 86t-102 35z
" />
    <glyph glyph-name="uniFEBC" unicode="&#x635;" horiz-adv-x="854" arabic-form="medial" 
d="M752 201q0 -59 -30 -103q40 -47 132 -47v-38l-13 -13q-100 0 -152 64q-90 -73 -312 -73q-116 0 -176.5 25t-75.5 79q-18 -95 -138 -95v38l13 13q60 0 86 29t26 95v58h45v-63q0 -80 59 -105q55 143 149 226t207 83q90 0 135 -51.5t45 -121.5zM569 322q-99 0 -182 -74
t-132 -195q45 -11 135 -11q317 0 317 159q0 51 -36 86t-102 35z" />
    <glyph glyph-name="uniFEBE" unicode="&#x636;" horiz-adv-x="1293" arabic-form="final" 
d="M1013 494q0 -14 -10 -24.5t-25 -10.5q-16 0 -26 10.5t-10 24.5q0 15 10 25.5t26 10.5q15 0 25 -10.5t10 -25.5zM587 60v-20q0 -109 -67 -168.5t-192 -59.5q-134 0 -201 61t-66 178q2 77 20 150h45q-18 -75 -20 -141q-1 -99 54 -148t168 -49q110 0 167 46t57 135
q0 44 -7 94l-16 95h46l13 -72q12 -76 68 -98q55 143 149 227t207 84q90 0 135 -51.5t45 -121.5q0 -59 -30 -103q40 -47 132 -47v-38l-13 -13q-100 0 -152 64q-90 -73 -312 -73q-99 0 -152.5 16t-77.5 53zM1010 322q-100 0 -183 -74t-132 -196q47 -10 135 -10q317 0 317 159
q0 51 -36 86t-101 35z" />
    <glyph glyph-name="uniFEBF" unicode="&#x636;" horiz-adv-x="796" arabic-form="initial" 
d="M573 494q0 -14 -10 -24.5t-25 -10.5q-16 0 -26 10.5t-10 24.5q0 15 10 25.5t26 10.5q15 0 25 -10.5t10 -25.5zM752 201q0 -210 -375 -210q-116 0 -176.5 25t-75.5 79q-18 -95 -138 -95v38l13 13q60 0 86 29t26 95v58h45v-63q0 -80 59 -105q55 143 149 226t207 83
q90 0 135 -51.5t45 -121.5zM569 322q-99 0 -182 -74t-132 -195q45 -11 135 -11q317 0 317 159q0 51 -36 86t-102 35z" />
    <glyph glyph-name="uniFEC0" unicode="&#x636;" horiz-adv-x="854" arabic-form="medial" 
d="M573 494q0 -14 -10 -24.5t-25 -10.5q-16 0 -26 10.5t-10 24.5q0 15 10 25.5t26 10.5q15 0 25 -10.5t10 -25.5zM752 201q0 -59 -30 -103q40 -47 132 -47v-38l-13 -13q-100 0 -152 64q-90 -73 -312 -73q-116 0 -176.5 25t-75.5 79q-18 -95 -138 -95v38l13 13q60 0 86 29
t26 95v58h45v-63q0 -80 59 -105q55 143 149 226t207 83q90 0 135 -51.5t45 -121.5zM569 322q-99 0 -182 -74t-132 -195q45 -11 135 -11q317 0 317 159q0 51 -36 86t-102 35z" />
    <glyph glyph-name="uniFEC2" unicode="&#x637;" horiz-adv-x="704" arabic-form="final" 
d="M226 0h-258v51h93q8 25 34 79v643h45v-567q55 79 128 123.5t154 44.5q89 0 134.5 -51.5t45.5 -121.5q0 -62 -31 -103q40 -47 133 -47v-38l-13 -13q-102 0 -153 66q-88 -66 -312 -66zM419 322q-99 0 -182 -74q-85 -75 -133 -197h135q162 0 239.5 36.5t77.5 113.5
q0 51 -35.5 86t-101.5 35z" />
    <glyph glyph-name="uniFEC3" unicode="&#x637;" horiz-adv-x="646" arabic-form="initial" 
d="M226 0h-239v38l13 13h61q8 25 34 79v643h45v-567q55 79 128 123.5t154 44.5q89 0 134.5 -51.5t45.5 -121.5q0 -103 -91.5 -152t-284.5 -49zM419 322q-99 0 -182 -74q-85 -75 -133 -197h135q162 0 239.5 36.5t77.5 113.5q0 51 -35.5 86t-101.5 35z" />
    <glyph glyph-name="uniFEC4" unicode="&#x637;" horiz-adv-x="704" arabic-form="medial" 
d="M226 0h-239v38l13 13h61q8 25 34 79v643h45v-567q55 79 128 123.5t154 44.5q89 0 134.5 -51.5t45.5 -121.5q0 -62 -31 -103q40 -47 133 -47v-38l-13 -13q-102 0 -153 66q-88 -66 -312 -66zM419 322q-99 0 -182 -74q-85 -75 -133 -197h135q162 0 239.5 36.5t77.5 113.5
q0 51 -35.5 86t-101.5 35z" />
    <glyph glyph-name="uniFEC6" unicode="&#x638;" horiz-adv-x="704" arabic-form="final" 
d="M226 0h-258v51h93q8 25 34 79v643h45v-567q55 79 128 123.5t154 44.5q89 0 134.5 -51.5t45.5 -121.5q0 -62 -31 -103q40 -47 133 -47v-38l-13 -13q-102 0 -153 66q-88 -66 -312 -66zM423 494q0 -14 -10.5 -24.5t-25.5 -10.5t-25 10.5t-10 24.5q0 15 10 25.5t25 10.5
q16 0 26 -10.5t10 -25.5zM419 322q-99 0 -182 -74q-85 -75 -133 -197h135q162 0 239.5 36.5t77.5 113.5q0 51 -35.5 86t-101.5 35z" />
    <glyph glyph-name="uniFEC7" unicode="&#x638;" horiz-adv-x="646" arabic-form="initial" 
d="M226 0h-239v38l13 13h61q8 25 34 79v643h45v-567q55 79 128 123.5t154 44.5q89 0 134.5 -51.5t45.5 -121.5q0 -103 -91.5 -152t-284.5 -49zM423 494q0 -14 -10.5 -24.5t-25.5 -10.5t-25 10.5t-10 24.5q0 15 10 25.5t25 10.5q16 0 26 -10.5t10 -25.5zM419 322
q-99 0 -182 -74q-85 -75 -133 -197h135q162 0 239.5 36.5t77.5 113.5q0 51 -35.5 86t-101.5 35z" />
    <glyph glyph-name="uniFEC8" unicode="&#x638;" horiz-adv-x="704" arabic-form="medial" 
d="M226 0h-239v38l13 13h61q8 25 34 79v643h45v-567q55 79 128 123.5t154 44.5q89 0 134.5 -51.5t45.5 -121.5q0 -62 -31 -103q40 -47 133 -47v-38l-13 -13q-102 0 -153 66q-88 -66 -312 -66zM423 494q0 -14 -10.5 -24.5t-25.5 -10.5t-25 10.5t-10 24.5q0 15 10 25.5
t25 10.5q16 0 26 -10.5t10 -25.5zM419 322q-99 0 -182 -74q-85 -75 -133 -197h135q162 0 239.5 36.5t77.5 113.5q0 51 -35.5 86t-101.5 35z" />
    </font>
</defs>
</svg>
