<?xml version="1.0" standalone="no"?>
<!DOCTYPE svg PUBLIC "-//W3C//DTD SVG 1.1//EN" "http://www.w3.org/Graphics/SVG/1.1/DTD/svg11.dtd" >
<svg>
<metadata>
Created by FontForge 20090622 at Sat Jul 27 11:59:52 2019
 By deploy user
Copyright 2016 Indian Type Foundry. All Rights Reserved.
</metadata>
<defs>
<font id="DiodrumArabic-Bold" horiz-adv-x="0" >
  <font-face 
    font-family="DiodrumArabic-Bold"
    font-weight="400"
    font-stretch="normal"
    units-per-em="1000"
    panose-1="0 0 8 0 0 0 0 0 0 0"
    ascent="798"
    descent="-202"
    x-height="515"
    cap-height="700"
    bbox="-1537 -703 1579 1297"
    underline-thickness="0"
    underline-position="0"
    unicode-range="U+000D-U+FEFC"
  />
<missing-glyph horiz-adv-x="756" 
d="M160 0v701h436v-701h-436zM241 625v-549h275v549h-275z" />
    <glyph glyph-name="uniFEF5" unicode="&#xfedf;&#xfe82;" horiz-adv-x="603" arabic-form="isolated" 
d="M292 740l29 -75q-42 -35 -101 -35q-29 0 -78.5 15t-66.5 15q-30 0 -55 -27l-45 63q42 67 99 67q21 0 80 -17.5t79 -17.5q37 0 59 12zM219 -5q-97 0 -174 25v165q48 -5 110 -6q0 151 -98 356l145 68q28 -78 41 -117t26.5 -111t13.5 -143q0 -34 -2 -51q64 7 107 28
q6 45 6 128q0 73 -9 375l154 13q9 -237 9 -322q0 -220 -44 -320q-117 -88 -285 -88z" />
    <glyph glyph-name="uniFEF6" unicode="&#xfee0;&#xfe82;" horiz-adv-x="648" arabic-form="final" 
d="M292 740l29 -75q-42 -35 -101 -35q-29 0 -78.5 15t-66.5 15q-30 0 -55 -27l-45 63q42 67 99 67q21 0 80 -17.5t79 -17.5q37 0 59 12zM617 0q-110 0 -171 70q-84 -75 -227 -75q-97 0 -174 25v165q44 -5 110 -6q0 151 -98 356l145 68q28 -78 41 -117t26.5 -111t13.5 -143
q0 -33 -2 -50q70 8 92 34.5t22 80.5v415l154 13v-436q0 -66 17 -88.5t56 -22.5h26v-178h-31z" />
    <glyph glyph-name="uniFEF7" unicode="&#xfedf;&#xfe84;" horiz-adv-x="603" arabic-form="isolated" 
d="M251 655q-118 -21 -228 -64l-23 69q29 15 62 26q-34 29 -34 81q0 47 32 75.5t80 28.5q46 0 85 -20l-24 -65q-30 8 -53 8q-21 0 -34.5 -9.5t-13.5 -24.5q0 -17 12 -30.5t36 -13.5t89 13zM219 -5q-97 0 -174 25v165q48 -5 110 -6q0 77 -29 161t-80 192l143 53
q50 -92 72 -169t22 -184q0 -34 -2 -51q64 7 107 28q6 45 6 128q0 35 -9 375l154 13q9 -276 9 -322q0 -220 -44 -320q-117 -88 -285 -88z" />
    <glyph glyph-name="uniFEF8" unicode="&#xfee0;&#xfe84;" horiz-adv-x="648" arabic-form="final" 
d="M251 655q-118 -21 -228 -64l-23 69q29 15 62 26q-34 29 -34 81q0 47 32 75.5t80 28.5q46 0 85 -20l-24 -65q-30 8 -53 8q-21 0 -34.5 -9.5t-13.5 -24.5q0 -17 12 -30.5t36 -13.5t89 13zM617 0q-110 0 -171 70q-84 -75 -227 -75q-97 0 -174 25v165q44 -5 110 -6
q0 77 -29 161t-80 192l143 53q50 -92 72 -169t22 -184q0 -33 -2 -50q70 8 92 34.5t22 80.5v415l154 13v-436q0 -66 17 -88.5t56 -22.5h26v-178h-31z" />
    <glyph glyph-name="uniFEF9" unicode="&#xfedf;&#xfe88;" horiz-adv-x="630" arabic-form="isolated" 
d="M250 -5q-97 0 -174 25v165q48 -5 110 -6q0 163 -141 413l148 83q59 -109 90 -214.5t31 -228.5q0 -34 -2 -51q66 5 110 22q5 40 5 87q0 64 -11 422l154 13q5 -314 5 -400q0 -150 -40 -242q-117 -88 -285 -88zM307 -267q-118 -21 -228 -64l-23 69q29 15 62 26
q-34 29 -34 81q0 47 32 75.5t80 28.5q46 0 85 -20l-24 -65q-30 8 -53 8q-21 0 -34.5 -9.5t-13.5 -24.5q0 -17 12 -30.5t36 -13.5t89 13z" />
    <glyph glyph-name="uniFEFA" unicode="&#xfee0;&#xfe88;" horiz-adv-x="679" arabic-form="final" 
d="M648 0q-110 0 -171 70q-84 -75 -227 -75q-97 0 -174 25v165q44 -5 110 -6q0 163 -141 413l148 83q59 -109 90 -214.5t31 -228.5q0 -33 -2 -50q70 8 92 34.5t22 80.5v415l154 13v-436q0 -66 17 -88.5t56 -22.5h26v-178h-31zM307 -267q-118 -21 -228 -64l-23 69
q29 15 62 26q-34 29 -34 81q0 47 32 75.5t80 28.5q46 0 85 -20l-24 -65q-30 8 -53 8q-21 0 -34.5 -9.5t-13.5 -24.5q0 -17 12 -30.5t36 -13.5t89 13z" />
    <glyph glyph-name="uniFEFB" unicode="&#xfedf;&#xfe8e;" horiz-adv-x="630" arabic-form="isolated" 
d="M250 -5q-97 0 -174 25v165q48 -5 110 -6q0 163 -141 413l148 83q59 -109 90 -214.5t31 -228.5q0 -34 -2 -51q66 5 110 22q5 40 5 87q0 64 -11 422l154 13q5 -314 5 -400q0 -150 -40 -242q-117 -88 -285 -88z" />
    <glyph glyph-name="uniFEFC" unicode="&#xfee0;&#xfe8e;" horiz-adv-x="679" arabic-form="final" 
d="M648 0q-110 0 -171 70q-84 -75 -227 -75q-97 0 -174 25v165q44 -5 110 -6q0 163 -141 413l148 83q59 -109 90 -214.5t31 -228.5q0 -33 -2 -50q70 8 92 34.5t22 80.5v415l154 13v-436q0 -66 17 -88.5t56 -22.5h26v-178h-31z" />
    <glyph glyph-name="uni066E.init" unicode="&#x66e;" horiz-adv-x="303" 
d="M0 0q-15 0 -25.5 26t-10.5 63t10.5 63t25.5 26h8q65 0 109 10q-4 113 -29 219l145 31q20 -92 20 -199q0 -117 -24 -189q-37 -20 -100 -35t-124 -15h-5z" />
    <glyph glyph-name="uni066E.medi" unicode="&#x66e;" horiz-adv-x="390" 
d="M0 0q-15 0 -25.5 26t-10.5 63t10.5 63t25.5 26h15q67 0 89 14.5t22 40.5v146l148 10v-138q0 -37 -4 -62q49 -11 114 -11h6v-178h-34q-101 0 -160 42q-57 -42 -164 -42h-32z" />
    <glyph glyph-name="uni066E.fina" unicode="&#x66e;" horiz-adv-x="951" 
d="M917 0q-121 0 -188 52q-94 -62 -327 -62q-106 0 -177.5 17.5t-108.5 51.5t-51.5 74t-14.5 94q0 81 38 195l133 -26q-13 -67 -13 -106q0 -46 16.5 -70t66.5 -37t146 -13q98 0 150.5 10t63.5 21.5t11 31.5v146l148 10v-173q0 -15 -1 -21q51 -17 131 -17h11v-178h-34z" />
    <glyph glyph-name="uni0672.fina" unicode="&#x672;" horiz-adv-x="306" 
d="M57 694q-28 0 -60 -27l-37 47q48 54 96 54q16 0 47.5 -15.5t52.5 -15.5q8 0 26 2q-33 10 -52 39t-19 61q0 51 31 82.5t76 31.5q46 0 85 -20l-20 -60q-30 8 -53 8q-22 0 -36 -12.5t-14 -31.5q0 -20 14 -36t42 -16q30 0 87 20l19 -63q-36 -13 -75.5 -33t-64 -30t-47.5 -10
q-27 0 -56.5 12.5t-41.5 12.5zM306 178v-178h-23q-124 0 -176 61t-52 177v379l156 13v-358q0 -94 84 -94h11z" />
    <glyph glyph-name="uni06C2.fina" unicode="&#x6c2;" horiz-adv-x="500" 
d="M333 455q-118 -21 -228 -64l-23 69q29 15 62 26q-34 29 -34 81q0 47 32 75.5t80 28.5q46 0 85 -20l-24 -65q-30 8 -53 8q-21 0 -34.5 -9.5t-13.5 -24.5q0 -17 12 -30.5t36 -13.5t89 13zM472 178h28v-178h-32q-53 0 -92.5 19t-61 46t-37.5 54t-31.5 46t-33.5 19
q-48 0 -105 -49l-77 115q109 98 211 98q31 0 55.5 -17.5t42 -42.5l34.5 -50t42 -42.5t57 -17.5z" />
    <glyph glyph-name="uni06C3.fina" unicode="&#x6c3;" horiz-adv-x="500" 
d="M322 391l-83 68l-63 -71l-97 80l79 94l83 -71l63 74l98 -84zM472 178h28v-178h-32q-53 0 -92.5 19t-61 46t-37.5 54t-31.5 46t-33.5 19q-48 0 -105 -49l-77 115q109 98 211 98q31 0 55.5 -17.5t42 -42.5l34.5 -50t42 -42.5t57 -17.5z" />
    <glyph glyph-name="uniFB50" unicode="&#x671;" horiz-adv-x="266" arabic-form="isolated" 
d="M186 745q54 0 54 36q0 19 -15 29t-32 10q-49 0 -87 -62q43 -13 80 -13zM180 669q-37 0 -79.5 16.5t-51.5 16.5q-31 0 -59 -28l-42 51q42 51 86 51h8q40 70 79.5 97t85.5 27q48 0 75.5 -31t27.5 -82q0 -52 -33.5 -85t-96.5 -33zM211 0h-156v617l156 13v-630z" />
    <glyph glyph-name="uniFB51" unicode="&#x671;" horiz-adv-x="306" arabic-form="final" 
d="M186 745q54 0 54 36q0 19 -15 29t-32 10q-49 0 -87 -62q43 -13 80 -13zM180 669q-37 0 -79.5 16.5t-51.5 16.5q-31 0 -59 -28l-42 51q42 51 86 51h8q40 70 79.5 97t85.5 27q48 0 75.5 -31t27.5 -82q0 -52 -33.5 -85t-96.5 -33zM306 178v-178h-23q-124 0 -176 61t-52 177
v379l156 13v-358q0 -94 84 -94h11z" />
    <glyph glyph-name="uniFB56" unicode="&#x67e;" horiz-adv-x="876" arabic-form="isolated" 
d="M404 -10q-106 0 -178 17.5t-109 51.5t-52 74t-15 94q0 81 38 195l133 -26q-13 -67 -13 -106q0 -45 17 -69.5t67.5 -37.5t144.5 -13q144 0 233 26q-2 88 -28 206l161 31q23 -101 23 -199q0 -101 -28 -167q-119 -77 -394 -77zM507 -215l-81 70l-66 -77l-95 82l78 89l81 -67
l66 74l95 -79zM445 -339l-86 74l70 80l86 -71z" />
    <glyph glyph-name="uniFB57" unicode="&#x67e;" horiz-adv-x="951" arabic-form="final" 
d="M917 0q-121 0 -188 52q-94 -62 -327 -62q-106 0 -177.5 17.5t-108.5 51.5t-51.5 74t-14.5 94q0 81 38 195l133 -26q-13 -67 -13 -106q0 -46 16.5 -70t66.5 -37t146 -13q98 0 150.5 10t63.5 21.5t11 31.5v146l148 10v-173q0 -15 -1 -21q51 -17 131 -17h11v-178h-34z
M502 -217l-81 70l-66 -77l-95 82l78 89l81 -67l66 74l95 -79zM440 -341l-86 74l70 80l86 -71z" />
    <glyph glyph-name="uniFB58" unicode="&#x67e;" horiz-adv-x="303" arabic-form="initial" 
d="M0 0q-15 0 -25.5 26t-10.5 63t10.5 63t25.5 26h8q65 0 109 10q-4 113 -29 219l145 31q20 -92 20 -199q0 -117 -24 -189q-37 -20 -100 -35t-124 -15h-5zM169 -215l-81 70l-66 -77l-95 82l78 89l81 -67l66 74l95 -79zM107 -339l-86 74l70 80l86 -71z" />
    <glyph glyph-name="uniFB59" unicode="&#x67e;" horiz-adv-x="390" arabic-form="medial" 
d="M0 0q-15 0 -25.5 26t-10.5 63t10.5 63t25.5 26h15q67 0 89 14.5t22 40.5v146l148 10v-138q0 -37 -4 -62q49 -11 114 -11h6v-178h-34q-101 0 -160 42q-57 -42 -164 -42h-32zM168 -211l-81 70l-66 -77l-95 82l78 89l81 -67l66 74l95 -79zM106 -335l-86 74l70 80l86 -71z
" />
    <glyph glyph-name="uniFB66" unicode="&#x679;" horiz-adv-x="876" arabic-form="isolated" 
d="M437 473q62 0 108 11q-5 55 -52 55q-43 0 -86 -66h30zM428 400q-52 0 -116 6v70q3 0 13 -0.5t17 -0.5q8 22 8 65v145l64 7v-71q0 -38 -8 -70q40 57 98 57q44 0 71.5 -28.5t27.5 -75.5q0 -42 -15 -78q-46 -26 -160 -26zM404 -10q-106 0 -178 17.5t-109 51.5t-52 74t-15 94
q0 81 38 195l133 -26q-13 -67 -13 -106q0 -45 17 -69.5t67.5 -37.5t144.5 -13q144 0 233 26q-2 88 -28 206l161 31q23 -101 23 -199q0 -101 -28 -167q-119 -77 -394 -77z" />
    <glyph glyph-name="uniFB67" unicode="&#x679;" horiz-adv-x="951" arabic-form="final" 
d="M443 452q62 0 108 11q-5 55 -52 55q-43 0 -86 -66h30zM434 379q-52 0 -116 6v70q3 0 13 -0.5t17 -0.5q8 22 8 65v145l64 7v-71q0 -38 -8 -70q40 57 98 57q44 0 71.5 -28.5t27.5 -75.5q0 -42 -15 -78q-46 -26 -160 -26zM917 0q-121 0 -188 52q-94 -62 -327 -62
q-106 0 -177.5 17.5t-108.5 51.5t-51.5 74t-14.5 94q0 81 38 195l133 -26q-13 -67 -13 -106q0 -46 16.5 -70t66.5 -37t146 -13q98 0 150.5 10t63.5 21.5t11 31.5v146l148 10v-173q0 -15 -1 -21q51 -17 131 -17h11v-178h-34z" />
    <glyph glyph-name="uniFB68" unicode="&#x679;" horiz-adv-x="303" arabic-form="initial" 
d="M110 548q62 0 108 11q-5 55 -52 55q-43 0 -86 -66h30zM101 475q-52 0 -116 6v70q3 0 13 -0.5t17 -0.5q8 22 8 65v145l64 7v-71q0 -38 -8 -70q40 57 98 57q44 0 71.5 -28.5t27.5 -75.5q0 -42 -15 -78q-46 -26 -160 -26zM0 0q-15 0 -25.5 26t-10.5 63t10.5 63t25.5 26h8
q65 0 109 10q-4 113 -29 219l145 31q20 -92 20 -199q0 -117 -24 -189q-37 -20 -100 -35t-124 -15h-5z" />
    <glyph glyph-name="uniFB69" unicode="&#x679;" horiz-adv-x="390" arabic-form="medial" 
d="M140 513q62 0 108 11q-5 55 -52 55q-43 0 -86 -66h30zM131 440q-52 0 -116 6v70q3 0 13 -0.5t17 -0.5q8 22 8 65v145l64 7v-71q0 -38 -8 -70q40 57 98 57q44 0 71.5 -28.5t27.5 -75.5q0 -42 -15 -78q-46 -26 -160 -26zM0 0q-15 0 -25.5 26t-10.5 63t10.5 63t25.5 26h15
q67 0 89 14.5t22 40.5v146l148 10v-138q0 -37 -4 -62q49 -11 114 -11h6v-178h-34q-101 0 -160 42q-57 -42 -164 -42h-32z" />
    <glyph glyph-name="uniFB7A" unicode="&#x686;" horiz-adv-x="653" arabic-form="isolated" 
d="M360 -277q-146 0 -222.5 64t-76.5 177q0 62 25.5 114t69 87.5t96 59.5t112.5 37q-86 74 -132 74q-25 0 -40 -12t-31 -40l-111 52q56 151 191 151q44 0 100 -29t100 -65l94.5 -75t79.5 -52l-39 -119q-165 0 -260.5 -48.5t-95.5 -112.5q0 -44 44.5 -67t119.5 -23
q103 0 204 34l45 -140q-122 -67 -273 -67zM486 -7l-60 51l-47 -56l-70 60l57 64l59 -49l48 54l69 -57zM440 -97l-62 53l51 58l62 -51z" />
    <glyph glyph-name="uniFB7B" unicode="&#x686;" horiz-adv-x="704" arabic-form="final" 
d="M636 -240q-122 -67 -273 -67q-146 0 -222.5 64t-76.5 177q0 106 73 182.5t185 112.5q-72 70 -97 70q-21 0 -33 -11.5t-28 -40.5l-114 43q32 86 72 127t102 41q36 0 73.5 -16t79.5 -50.5t68.5 -59.5l70.5 -70q50 -50 91 -67t91 -17h6v-178h-12q-75 0 -128 26.5t-138 103.5
q-101 -27 -152 -71t-51 -94q0 -49 47.5 -74t127.5 -25q94 0 193 34zM453 -36l-60 51l-47 -56l-70 60l57 64l59 -49l48 54l69 -57zM407 -126l-62 53l51 58l62 -51z" />
    <glyph glyph-name="uniFB7C" unicode="&#x686;" horiz-adv-x="632" arabic-form="initial" 
d="M0 0q-15 0 -25.5 26t-10.5 63t10.5 63t25.5 26h46q189 0 350 30l-24.5 16l-23.5 16t-21.5 14t-21.5 13l-19 11t-19 10.5t-17 7.5t-17.5 6t-15.5 3.5t-15 1.5q-36 0 -62 -49l-114 40q32 86 75.5 126t104.5 40t125.5 -33.5t151 -98t124.5 -87.5l-11 -131q-35 -5 -120 -35.5
t-201 -54.5t-260 -24h-15zM356 -187l-81 70l-66 -77l-95 82l78 89l81 -67l66 74l95 -79zM294 -311l-86 74l70 80l86 -71z" />
    <glyph glyph-name="uniFB7D" unicode="&#x686;" horiz-adv-x="697" arabic-form="medial" 
d="M0 0q-15 0 -25.5 26t-10.5 63t10.5 63t25.5 26h46q212 0 318 15q-115 113 -160 113q-21 0 -34.5 -10t-29.5 -38l-108 40q31 87 74.5 126.5t104.5 39.5q15 0 31 -3t33.5 -11t30.5 -14.5t33 -21.5l30 -22.5t32.5 -28l30.5 -27.5t32.5 -31t30.5 -29q65 -62 98.5 -80
t89.5 -18h14v-178h-20q-54 0 -94.5 14t-82.5 47q-225 -61 -485 -61h-15zM359 -204l-81 70l-66 -77l-95 82l78 89l81 -67l66 74l95 -79zM297 -328l-86 74l70 80l86 -71z" />
    <glyph glyph-name="uniFB88" unicode="&#x688;" horiz-adv-x="485" arabic-form="isolated" 
d="M207 633q62 0 108 11q-5 55 -52 55q-43 0 -86 -66h30zM198 560q-52 0 -116 6v70q3 0 13 -0.5t17 -0.5q8 22 8 65v145l64 7v-71q0 -38 -8 -70q40 57 98 57q44 0 71.5 -28.5t27.5 -75.5q0 -42 -15 -78q-46 -26 -160 -26zM158 -10q-73 0 -133 8v172q86 -6 151 -6t125 6
q-37 124 -156 232l113 120q177 -155 177 -379q0 -49 -10 -107q-83 -46 -267 -46z" />
    <glyph glyph-name="uniFB89" unicode="&#x688;" horiz-adv-x="525" arabic-form="final" 
d="M208 635q62 0 108 11q-5 55 -52 55q-43 0 -86 -66h30zM199 562q-52 0 -116 6v70q3 0 13 -0.5t17 -0.5q8 22 8 65v145l64 7v-71q0 -38 -8 -70q40 57 98 57q44 0 71.5 -28.5t27.5 -75.5q0 -42 -15 -78q-46 -26 -160 -26zM506 0q-88 0 -136 45q-93 -54 -213 -54
q-83 0 -132 7v177q88 -4 130 -4q91 0 142 13q-8 24 -13 36q-35 96 -124 197l113 110q37 -38 67 -85.5t42 -74.5t32 -77q28 -69 45 -90.5t58 -21.5h8v-178h-19z" />
    <glyph glyph-name="uniFB8A" unicode="&#x698;" horiz-adv-x="421" arabic-form="isolated" 
d="M205 706l86 -74l-70 -80l-86 71zM307 418l-81 67l-66 -74l-95 79l78 92l81 -70l66 77l95 -82zM371 150q0 -73 -14 -134t-44.5 -111t-84 -78t-126.5 -28q-46 0 -102 12l12 146q24 -4 50 -4q87 0 124.5 52t37.5 128q0 60 -44 212l158 45q33 -123 33 -240z" />
    <glyph glyph-name="uniFB8B" unicode="&#x698;" horiz-adv-x="518" arabic-form="final" 
d="M210 706l86 -74l-70 -80l-86 71zM312 418l-81 67l-66 -74l-95 79l78 92l81 -70l66 77l95 -82zM102 -201q-46 0 -102 12l12 146q24 -4 50 -4q90 0 131 52.5t41 127.5q0 71 -41 212l145 45q2 -9 8.5 -34.5t9.5 -35.5l8.5 -29t9.5 -29.5t10 -23.5t13 -23q26 -37 97 -37h24
v-178h-36q-78 0 -121 33q-20 -106 -84 -170t-175 -64z" />
    <glyph glyph-name="uniFB8C" unicode="&#x691;" horiz-adv-x="421" arabic-form="isolated" 
d="M214 496q62 0 108 11q-5 55 -52 55q-43 0 -86 -66h30zM205 423q-52 0 -116 6v70q3 0 13 -0.5t17 -0.5q8 22 8 65v145l64 7v-71q0 -38 -8 -70q40 57 98 57q44 0 71.5 -28.5t27.5 -75.5q0 -42 -15 -78q-46 -26 -160 -26zM371 150q0 -73 -14 -134t-44.5 -111t-84 -78
t-126.5 -28q-46 0 -102 12l12 146q24 -4 50 -4q87 0 124.5 52t37.5 128q0 60 -44 212l158 45q33 -123 33 -240z" />
    <glyph glyph-name="uniFB8D" unicode="&#x691;" horiz-adv-x="518" arabic-form="final" 
d="M229 496q62 0 108 11q-5 55 -52 55q-43 0 -86 -66h30zM220 423q-52 0 -116 6v70q3 0 13 -0.5t17 -0.5q8 22 8 65v145l64 7v-71q0 -38 -8 -70q40 57 98 57q44 0 71.5 -28.5t27.5 -75.5q0 -42 -15 -78q-46 -26 -160 -26zM102 -201q-46 0 -102 12l12 146q24 -4 50 -4
q90 0 131 52.5t41 127.5q0 71 -41 212l145 45q2 -9 8.5 -34.5t9.5 -35.5l8.5 -29t9.5 -29.5t10 -23.5t13 -23q26 -37 97 -37h24v-178h-36q-78 0 -121 33q-20 -106 -84 -170t-175 -64z" />
    <glyph glyph-name="uniFB8E" unicode="&#x6a9;" horiz-adv-x="905" arabic-form="isolated" 
d="M414 -10q-88 0 -153 12.5t-105 34t-64 54t-33 67t-9 79.5q0 81 38 195l133 -26q-13 -63 -13 -101q0 -47 16 -72.5t63.5 -40t135.5 -14.5q155 0 239 24q-26 57 -84 102t-140 72v203q194 130 442 181v-166q-161 -35 -291 -107q228 -104 228 -334q0 -48 -8 -89
q-163 -74 -395 -74z" />
    <glyph glyph-name="uniFB8F" unicode="&#x6a9;" horiz-adv-x="917" arabic-form="final" 
d="M901 0q-83 0 -136 46q-151 -56 -351 -56q-88 0 -153 12.5t-105 34t-64 54t-33 67t-9 79.5q0 81 38 195l133 -26q-13 -63 -13 -101q0 -47 16 -72.5t63.5 -40t135.5 -14.5q158 0 238 24q-37 59 -88 102.5t-135 71.5v203q192 130 441 181v-171q-151 -33 -280 -101
q50 -27 94.5 -69t63 -67.5l50.5 -72.5q9 -13 24 -38t22 -35t20.5 -19t30.5 -9h13v-178h-16z" />
    <glyph glyph-name="uniFB90" unicode="&#x6a9;" horiz-adv-x="501" arabic-form="initial" 
d="M0 0q-15 0 -25.5 26t-10.5 63t10.5 63t25.5 26h19q147 0 239 19q-26 59 -84.5 105.5t-142.5 74.5v200q198 133 445 183v-166q-161 -35 -291 -107q228 -104 228 -334q0 -48 -8 -89q-115 -64 -382 -64h-23z" />
    <glyph glyph-name="uniFB91" unicode="&#x6a9;" horiz-adv-x="514" arabic-form="medial" 
d="M0 0q-15 0 -25.5 26t-10.5 63t10.5 63t25.5 26h19q155 0 239 24q-79 126 -227 175v200q198 133 445 183v-166q-165 -37 -294 -108q42 -21 76.5 -47.5t63.5 -60.5t43 -53t39 -56q6 -8 18.5 -28.5t18 -27l15.5 -17.5t20.5 -14.5t24.5 -3.5h13v-178h-16q-93 0 -147 57
q-126 -57 -328 -57h-23z" />
    <glyph glyph-name="uniFB92" unicode="&#x6af;" horiz-adv-x="905" arabic-form="isolated" 
d="M517 654v86q111 58 286 108v-88q-150 -43 -286 -106zM414 -10q-88 0 -153 12.5t-105 34t-64 54t-33 67t-9 79.5q0 81 38 195l133 -26q-13 -63 -13 -101q0 -69 44 -98t171 -29q155 0 239 24q-51 113 -214 171v192q192 126 432 175v-161q-153 -34 -281 -101
q218 -105 218 -330q0 -43 -8 -84q-163 -74 -395 -74z" />
    <glyph glyph-name="uniFB93" unicode="&#x6af;" horiz-adv-x="917" arabic-form="final" 
d="M517 654v86q111 58 286 108v-88q-150 -43 -286 -106zM901 0q-83 0 -136 46q-151 -56 -351 -56q-88 0 -153 12.5t-105 34t-64 54t-33 67t-9 79.5q0 81 38 195l133 -26q-13 -63 -13 -101q0 -69 44 -98t171 -29q154 0 238 24q-75 124 -207 169v199q193 123 426 170v-161
q-152 -34 -275 -98q49 -27 91 -66.5t63 -67t48 -68.5q9 -13 24 -38t22 -35t20.5 -19t30.5 -9h13v-178h-16z" />
    <glyph glyph-name="uniFB94" unicode="&#x6af;" horiz-adv-x="501" arabic-form="initial" 
d="M113 654v86q111 58 286 108v-88q-150 -43 -286 -106zM0 0q-15 0 -25.5 26t-10.5 63t10.5 63t25.5 26h14q146 0 244 23q-53 116 -215 172v192q192 126 433 175v-161q-153 -34 -281 -101q218 -104 218 -330q0 -43 -8 -84q-58 -28 -164.5 -46t-227.5 -18h-13z" />
    <glyph glyph-name="uniFB95" unicode="&#x6af;" horiz-adv-x="514" arabic-form="medial" 
d="M113 654v86q111 58 286 108v-88q-150 -43 -286 -106zM0 0q-15 0 -25.5 26t-10.5 63t10.5 63t25.5 26h19q155 0 239 24q-36 57 -83 99t-123 69v201q193 122 424 169v-156q-162 -36 -289 -105q53 -27 98.5 -68t67.5 -69.5t51 -72.5q6 -8 18.5 -28.5t18 -27l15.5 -17.5
t20.5 -14.5t24.5 -3.5h13v-178h-16q-93 0 -147 57q-126 -57 -328 -57h-23z" />
    <glyph glyph-name="uniFB9E" unicode="&#x6ba;" horiz-adv-x="705" arabic-form="isolated" 
d="M608 369q38 -137 44 -198q3 -31 3 -64q0 -146 -86.5 -227t-249.5 -81q-130 0 -199.5 65t-69.5 182q0 119 70 247l122 -48q-36 -87 -36 -146q0 -61 34 -92t107 -31q70 0 113 28.5t43 76.5q0 82 -50 242z" />
    <glyph glyph-name="uniFB9F" unicode="&#x6ba;" horiz-adv-x="732" arabic-form="final" 
d="M319 -216q-130 0 -199.5 65t-69.5 182q0 119 70 247l122 -48q-36 -87 -36 -146q0 -61 34 -92t107 -31q70 0 113 28.5t43 76.5q0 82 -50 242l155 46q33 -118 40 -168q38 -8 73 -8h11v-178h-17q-41 0 -69 6q-23 -107 -106.5 -164.5t-220.5 -57.5z" />
    <glyph glyph-name="uniFBA6" unicode="&#x6c1;" horiz-adv-x="511" arabic-form="isolated" 
d="M194 525q282 -111 282 -309q0 -98 -61 -161t-185 -63q-94 0 -144.5 49.5t-50.5 139.5q0 89 44 179t115 165zM249 168q38 0 66.5 11t28.5 28q0 29 -36.5 67t-87.5 66q-49 -58 -49 -107q0 -65 78 -65z" />
    <glyph glyph-name="uniFBA7" unicode="&#x6c1;" horiz-adv-x="500" arabic-form="final" 
d="M472 178h28v-178h-32q-53 0 -92.5 19t-61 46t-37.5 54t-31.5 46t-33.5 19q-48 0 -105 -49l-77 115q109 98 211 98q31 0 55.5 -17.5t42 -42.5l34.5 -50t42 -42.5t57 -17.5z" />
    <glyph glyph-name="uniFBA8" unicode="&#x6c1;" horiz-adv-x="445" arabic-form="initial" 
d="M0 0q-15 0 -25.5 26t-10.5 63t10.5 63t25.5 26h9q12 0 23.5 1.5t19.5 3t16.5 4.5t13.5 5t11.5 6t9 6l7.5 6l5 4q36 -31 69 -31q54 0 54 48q0 24 -22 75l138 55q41 -98 41 -173q0 -84 -43.5 -133.5t-126.5 -49.5q-64 0 -106 29q-39 -34 -115 -34h-4zM233 -347
q-60 27 -90.5 61.5t-30.5 86.5q0 99 137 180l39 -61q-57 -57 -57 -91q0 -36 62 -57z" />
    <glyph glyph-name="uniFBA9" unicode="&#x6c1;" horiz-adv-x="612" arabic-form="medial" 
d="M357 -310q-171 117 -205 318q-64 -8 -118 -8h-34q-15 0 -25.5 26t-10.5 63t10.5 63t25.5 26h34q100 0 230 8q35 -214 108 -317q-7 34 -7 71q0 98 62 168t155 70h30v-178h-33q-52 0 -74.5 -40t-22.5 -101q0 -48 13 -100zM124 -438q-60 27 -90.5 61.5t-30.5 86.5
q0 99 137 180l39 -61q-57 -57 -57 -91q0 -36 62 -57z" />
    <glyph glyph-name="uniFBAA" unicode="&#x6be;" horiz-adv-x="737" arabic-form="isolated" 
d="M563 -25q-142 0 -267 65q-95 -45 -223 -55l-38 155q73 6 128 18q-27 48 -27 99q0 141 130 285q112 -16 207 -65.5t154.5 -130.5t59.5 -176q0 -84 -29 -139.5t-95 -55.5zM258 287q0 -47 50 -78q72 42 72 86q0 58 -96 76q-26 -46 -26 -84zM544 127q13 0 13 13q0 78 -69 141
q-8 -69 -53 -130q73 -24 109 -24z" />
    <glyph glyph-name="uniFBAB" unicode="&#x6be;" horiz-adv-x="765" arabic-form="final" 
d="M530 273q0 41 -67 98q-71 -87 -82 -187q149 29 149 89zM520 -73q16 0 34 3q-8 79 -61 133q-46 -23 -98 -37q34 -99 125 -99zM646 -202q-46 -25 -130 -25q-95 0 -162 60.5t-93 162.5q-96 -17 -149 -59l-82 125q49 45 97 67.5t121 33.5q9 118 61 222.5t134 167.5
q107 -45 162 -118.5t55 -156.5q0 -48 -31 -97q40 -3 102 -3h34v-178h-43q-38 0 -57 1q12 -37 12 -78q0 -67 -31 -125z" />
    <glyph glyph-name="uniFBAC" unicode="&#x6be;" horiz-adv-x="672" arabic-form="initial" 
d="M193 287q0 -47 50 -78q36 21 54 44.5t18 41.5q0 58 -96 76q-26 -46 -26 -84zM479 127q13 0 13 13q0 77 -69 142q-9 -68 -54 -130q74 -25 110 -25zM498 -25q-140 0 -264 64q-84 -39 -206 -39h-28q-15 0 -25.5 26t-10.5 63t10.5 63t25.5 26h13q38 0 73 3q-15 36 -15 76
q0 141 130 285q112 -16 207 -65.5t154.5 -130.5t59.5 -176q0 -84 -29 -139.5t-95 -55.5z" />
    <glyph glyph-name="uniFBAD" unicode="&#x6be;" horiz-adv-x="612" arabic-form="medial" 
d="M377 273q0 41 -67 98q-71 -87 -82 -187q149 29 149 89zM367 -73q16 0 34 3q-8 79 -61 133q-46 -23 -98 -37q34 -99 125 -99zM493 -202q-46 -25 -130 -25q-98 0 -166 64t-92 171q-46 -8 -87 -8h-18q-15 0 -25.5 26t-10.5 63t10.5 63t25.5 26h21q44 0 76 4
q12 113 63.5 211.5t129.5 159.5q107 -45 162 -118.5t55 -156.5q0 -48 -31 -97q41 -3 102 -3h34v-178h-43q-38 0 -57 1q12 -37 12 -78q0 -67 -31 -125z" />
    <glyph glyph-name="uniFBAE" unicode="&#x6d2;" horiz-adv-x="740" arabic-form="isolated" 
d="M725 179l-41 -179h-370q-264 0 -264 190q0 128 87 218.5t203 90.5q75 0 126.5 -49t61.5 -131l-131 -54q-28 72 -80 72q-36 0 -70 -31.5t-34 -59.5q0 -32 35 -49.5t126 -17.5h351z" />
    <glyph glyph-name="uniFBAF" unicode="&#x6d2;" horiz-adv-x="724" arabic-form="final" 
d="M637 -91l-41 -179h-300q-246 0 -246 176q0 122 103.5 197t287.5 75h283v-178h-321q-178 0 -178 -55q0 -36 171 -36h241z" />
    <glyph glyph-name="uniFBB0" unicode="&#x6d3;" horiz-adv-x="740" arabic-form="isolated" 
d="M420 593q-118 -21 -228 -64l-23 69q29 15 62 26q-34 29 -34 81q0 47 32 75.5t80 28.5q46 0 85 -20l-24 -65q-30 8 -53 8q-21 0 -34.5 -9.5t-13.5 -24.5q0 -17 12 -30.5t36 -13.5t89 13zM725 179l-41 -179h-370q-264 0 -264 190q0 128 87 218.5t203 90.5q75 0 126.5 -49
t61.5 -131l-131 -54q-28 72 -80 72q-36 0 -70 -31.5t-34 -59.5q0 -32 35 -49.5t126 -17.5h351z" />
    <glyph glyph-name="uniFBB1" unicode="&#x6d3;" horiz-adv-x="724" arabic-form="final" 
d="M372 257q-118 -21 -228 -64l-23 69q29 15 62 26q-34 29 -34 81q0 47 32 75.5t80 28.5q46 0 85 -20l-24 -65q-30 8 -53 8q-21 0 -34.5 -9.5t-13.5 -24.5q0 -17 12 -30.5t36 -13.5t89 13zM637 -91l-41 -179h-300q-246 0 -246 176q0 122 103.5 197t287.5 75h283v-178h-321
q-178 0 -178 -55q0 -36 171 -36h241z" />
    <glyph glyph-name="uniFBFC" unicode="&#x6cc;" horiz-adv-x="770" arabic-form="isolated" 
d="M342 -200q-145 0 -218.5 66t-73.5 190q0 114 63 237l120 -48q-31 -84 -31 -141q0 -68 40.5 -99t127.5 -31q135 0 191 58q-27 19 -63 36.5t-83.5 38.5t-78.5 37q-3 34 -3 63q0 83 23 145t63 96.5t85 50.5t96 16q40 0 80 -14.5t60 -33.5l-63 -155q-49 30 -108 30
q-36 0 -60 -16t-39 -62q65 -27 98 -42.5t76 -42t74 -57.5q-1 -82 -30 -144.5t-80.5 -101t-118.5 -57.5t-147 -19z" />
    <glyph glyph-name="uniFBFD" unicode="&#x6cc;" horiz-adv-x="716" arabic-form="final" 
d="M339 -211q-141 0 -215 63t-74 179q0 113 70 252l122 -48q-36 -99 -36 -156q0 -121 166 -121q134 0 181 57q-80 16 -153 42l31 155q140 -34 269 -34h16v-178h-14h-21q-20 -95 -108.5 -153t-233.5 -58z" />
    <glyph glyph-name="uniFBFE" unicode="&#x6cc;" horiz-adv-x="303" arabic-form="initial" 
d="M0 0q-15 0 -25.5 26t-10.5 63t10.5 63t25.5 26h8q65 0 109 10q-4 113 -29 219l145 31q20 -92 20 -199q0 -117 -24 -189q-37 -20 -100 -35t-124 -15h-5zM171 -237l-83 68l-63 -71l-97 80l79 94l83 -71l63 74l98 -84z" />
    <glyph glyph-name="uniFBFF" unicode="&#x6cc;" horiz-adv-x="390" arabic-form="medial" 
d="M0 0q-15 0 -25.5 26t-10.5 63t10.5 63t25.5 26h15q67 0 89 14.5t22 40.5v146l148 10v-138q0 -37 -4 -62q49 -11 114 -11h6v-178h-34q-101 0 -160 42q-57 -42 -164 -42h-32zM187 -237l-83 68l-63 -71l-97 80l79 94l83 -71l63 74l98 -84z" />
    <glyph glyph-name="uniFC5E" unicode="&#xfc5e;" arabic-form="isolated" 
d="M5 906v73q133 35 153 42q-36 9 -57.5 32.5t-21.5 54.5q0 41 31 71t76 30q39 0 65 -28.5t26 -71.5q0 -32 -15 -65q-23 -49 -77.5 -78.5t-179.5 -59.5zM143 1112q0 -27 66 -48q4 13 4 31t-11 31.5t-27 13.5q-14 0 -23 -7.5t-9 -20.5zM197 744q-32 0 -51 9q-38 -39 -94 -39
q-35 0 -56.5 21.5t-21.5 59.5q0 16 3 34.5t5 28.5l3 10l52 -5q-2 -17 -2 -34q0 -34 39 -34q21 0 34 9q-4 15 -4 39v40l62 11v-37q0 -33 33 -33q14 0 23.5 10.5t9.5 30.5q0 29 -10 59l65 27q14 -42 14 -85q0 -52 -28 -87t-76 -35z" />
    <glyph glyph-name="uniFC5F" unicode="&#xfc5f;" arabic-form="isolated" 
d="M220 998q-32 0 -51 9q-38 -39 -94 -39q-35 0 -56.5 21.5t-21.5 59.5q0 16 3 34.5t6 28.5l2 10l52 -5q-2 -17 -2 -34q0 -34 39 -34q21 0 34 9q-4 15 -4 39v40l62 11v-37q0 -33 33 -33q14 0 23.5 10.5t9.5 30.5q0 29 -10 59l65 27q14 -42 14 -85q0 -52 -28 -87t-76 -35z
M297 961v-81q-142 -20 -272 -56v78q108 33 272 59zM297 846v-81q-142 -20 -272 -56v78q108 33 272 59z" />
    <glyph glyph-name="uniFC60" unicode="&#xfc60;" arabic-form="isolated" 
d="M299 1056v-84q-111 -18 -272 -59v84q129 37 272 59zM225 734q-32 0 -51 9q-38 -39 -94 -39q-35 0 -56.5 21.5t-21.5 59.5q0 16 3 34.5t5 28.5l3 10l52 -5q-2 -17 -2 -34q0 -34 39 -34q21 0 34 9q-4 15 -4 39v40l62 11v-37q0 -33 33 -33q14 0 23.5 10.5t9.5 30.5
q0 29 -10 59l65 27q14 -42 14 -85q0 -52 -28 -87t-76 -35z" />
    <glyph glyph-name="uniFC61" unicode="&#xfc61;" arabic-form="isolated" 
d="M178 1115q0 -12 16 -25t49 -23q5 13 5 31t-11 31.5t-27 13.5q-14 0 -23 -7.5t-9 -20.5zM23 905l-17 67q28 13 38 22.5t10 23.5q0 23 -28 23q-15 0 -36 -7l-15 64q32 10 56 10q39 0 59.5 -19.5t20.5 -53.5q0 -20 -10 -37q46 11 91 26q-36 10 -57 33.5t-21 53.5q0 41 31 71
t76 30q39 0 65 -28.5t26 -71.5q0 -32 -15 -65q-24 -51 -76.5 -79.5t-197.5 -62.5zM215 744q-32 0 -51 9q-38 -39 -94 -39q-35 0 -56.5 21.5t-21.5 59.5q0 16 3 34.5t5 28.5l3 10l52 -5q-2 -17 -2 -34q0 -34 39 -34q21 0 34 9q-4 15 -4 39v40l62 11v-37q0 -33 33 -33
q14 0 23.5 10.5t9.5 30.5q0 29 -10 59l65 27q14 -42 14 -85q0 -52 -28 -87t-76 -35z" />
    <glyph glyph-name="uniFC62" unicode="&#xfc62;" arabic-form="isolated" 
d="M235 888q-32 0 -51 9q-38 -39 -94 -39q-35 0 -56.5 21.5t-21.5 59.5q0 16 3 34.5t5 28.5l3 10l52 -5q-2 -17 -2 -34q0 -34 39 -34q21 0 34 9q-4 15 -4 39v40l62 11v-37q0 -33 33 -33q14 0 23.5 10.5t9.5 30.5q0 29 -10 59l65 27q14 -42 14 -85q0 -52 -28 -87t-76 -35z
M312 856v-84q-111 -18 -272 -59v84q129 37 272 59z" />
    <glyph glyph-name="uniFC63" unicode="&#xfc63;" arabic-form="isolated" 
d="M109 1141l81 17q8 -79 8 -219l-71 -7q-4 144 -18 209zM225 744q-32 0 -51 9q-38 -39 -94 -39q-35 0 -56.5 21.5t-21.5 59.5q0 16 3 34.5t5 28.5l3 10l52 -5q-2 -17 -2 -34q0 -34 39 -34q21 0 34 9q-4 15 -4 39v40l62 11v-37q0 -33 33 -33q14 0 23.5 10.5t9.5 30.5
q0 29 -10 59l65 27q14 -42 14 -85q0 -52 -28 -87t-76 -35z" />
    <glyph glyph-name="uniFDF2" unicode="&#xfdf2;" horiz-adv-x="1399" arabic-form="isolated" 
d="M632 1051l81 17q8 -79 8 -219l-71 -7q-4 144 -18 209zM1344 0h-156v712l156 13v-725zM748 654q-32 0 -51 9q-38 -39 -94 -39q-35 0 -56.5 21.5t-21.5 59.5q0 16 2.5 34.5t5.5 28.5l3 10l52 -5q-2 -17 -2 -34q0 -34 39 -34q21 0 34 9q-4 15 -4 39v40l62 11v-37
q0 -33 33 -33q14 0 23.5 10.5t9.5 30.5q0 29 -10 59l65 27q14 -42 14 -85q0 -52 -28 -87t-76 -35zM860 8q-120 0 -163 83q-52 -83 -179 -83q-151 0 -189 112q-17 -2 -47 -2q-237 0 -237 169q0 88 61.5 152t155 93t204.5 29q-8 -224 -8 -277q0 -98 87 -98q86 0 86 101v283
l154 13v-286q0 -68 20 -89.5t78 -21.5q36 0 68 8q-2 134 -35 426l151 28q31 -245 31 -394q0 -125 -24 -196q-36 -20 -96.5 -35t-117.5 -15zM303 263h10q0 4 3 142q-64 -10 -106.5 -37.5t-42.5 -46.5q0 -23 35.5 -40.5t100.5 -17.5z" />
    <glyph glyph-name="uniFDFC" unicode="&#xfdfc;" horiz-adv-x="1159" arabic-form="isolated" 
d="M584 209q0 -127 -77 -197t-219 -70q-115 0 -176.5 58t-61.5 164q0 83 44 186l123 -39q-19 -61 -19 -107q0 -52 28 -76t88 -24q59 0 94 24.5t35 54.5q0 12 -3 125q-32 -6 -66 -6q-201 0 -201 193q0 74 42 184l126 -30q-17 -53 -17 -91q0 -43 22 -69t79 -26h12
q-3 190 -4 240l142 12l4 -214q42 20 80 45l-1 174l156 13v-92q97 50 182 50q48 0 96 -14l-20 -145q-32 7 -68 7q-91 0 -190 -48v-211q0 -94 79 -94q40 0 81 12v17q0 71 -30 200l145 31q20 -92 20 -199q0 -117 -24 -189q-37 -20 -100 -35t-124 -15q-109 0 -154.5 61
t-46.5 177l-1 156q-41 -26 -78 -44q3 -115 3 -149zM971 -241l-83 68l-63 -71l-97 80l79 94l83 -71l63 74l98 -84z" />
    <glyph glyph-name="uniFE81" unicode="&#x622;" horiz-adv-x="266" arabic-form="isolated" 
d="M300 782l33 -82q-48 -38 -117 -38q-34 0 -91 16.5t-77 16.5q-36 0 -64 -30l-53 69q50 73 116 73q24 0 92.5 -19t91.5 -19q40 0 69 13zM211 0h-156v617l156 13v-630z" />
    <glyph glyph-name="uniFE82" unicode="&#x622;" horiz-adv-x="306" arabic-form="final" 
d="M300 782l33 -82q-48 -38 -117 -38q-34 0 -91 16.5t-77 16.5q-36 0 -64 -30l-53 69q50 73 116 73q24 0 92.5 -19t91.5 -19q40 0 69 13zM306 178v-178h-23q-124 0 -176 61t-52 177v379l156 13v-358q0 -94 84 -94h11z" />
    <glyph glyph-name="uniFE83" unicode="&#x623;" horiz-adv-x="266" arabic-form="isolated" 
d="M260 722q-118 -21 -228 -64l-23 69q29 15 62 26q-34 29 -34 81q0 47 32 75.5t80 28.5q46 0 85 -20l-24 -65q-30 8 -53 8q-21 0 -34.5 -9.5t-13.5 -24.5q0 -17 12 -30.5t36 -13.5t89 13zM211 0h-156v617l156 13v-630z" />
    <glyph glyph-name="uniFE84" unicode="&#x623;" horiz-adv-x="306" arabic-form="final" 
d="M260 722q-118 -21 -228 -64l-23 69q29 15 62 26q-34 29 -34 81q0 47 32 75.5t80 28.5q46 0 85 -20l-24 -65q-30 8 -53 8q-21 0 -34.5 -9.5t-13.5 -24.5q0 -17 12 -30.5t36 -13.5t89 13zM306 178v-178h-23q-124 0 -176 61t-52 177v379l156 13v-358q0 -94 84 -94h11z" />
    <glyph glyph-name="uniFE85" unicode="&#x624;" horiz-adv-x="534" arabic-form="isolated" 
d="M359 578q-118 -21 -228 -64l-23 69q29 15 62 26q-34 29 -34 81q0 47 32 75.5t80 28.5q46 0 85 -20l-24 -65q-30 8 -53 8q-21 0 -34.5 -9.5t-13.5 -24.5q0 -17 12 -30.5t36 -13.5t89 13zM288 178q25 0 55 5q-6 49 -33 92t-67 43q-34 0 -52 -22.5t-18 -52.5q0 -65 115 -65z
M159 -204q-56 0 -111 15l12 146q33 -5 73 -5q86 0 140 28.5t63 58.5q-46 -20 -107 -20q-189 0 -189 197q0 111 61 186t151 75q99 0 165.5 -88.5t66.5 -234.5q0 -171 -83 -264.5t-242 -93.5z" />
    <glyph glyph-name="uniFE86" unicode="&#x624;" horiz-adv-x="533" arabic-form="final" 
d="M359 578q-118 -21 -228 -64l-23 69q29 15 62 26q-34 29 -34 81q0 47 32 75.5t80 28.5q46 0 85 -20l-24 -65q-30 8 -53 8q-21 0 -34.5 -9.5t-13.5 -24.5q0 -17 12 -30.5t36 -13.5t89 13zM288 178h56q-3 30 -14.5 60.5t-35 55t-51.5 24.5q-34 0 -52 -22.5t-18 -52.5
q0 -65 115 -65zM159 -204q-56 0 -111 15l12 146q33 -5 73 -5q75 0 125 22t70 50q-37 -5 -99 -5q-189 0 -189 197q0 109 61 185t151 76q95 0 160 -79.5t71 -219.5h50v-178h-71q-65 -204 -303 -204z" />
    <glyph glyph-name="uniFE87" unicode="&#x625;" horiz-adv-x="266" arabic-form="isolated" 
d="M211 0h-156v712l156 13v-725zM250 -271q-118 -21 -228 -64l-23 69q29 15 62 26q-34 29 -34 81q0 47 32 75.5t80 28.5q46 0 85 -20l-24 -65q-30 8 -53 8q-21 0 -34.5 -9.5t-13.5 -24.5q0 -17 12 -30.5t36 -13.5t89 13z" />
    <glyph glyph-name="uniFE88" unicode="&#x625;" horiz-adv-x="306" arabic-form="final" 
d="M306 178v-178h-48q-110 0 -156.5 61.5t-46.5 176.5v474l156 13v-453q0 -94 84 -94h11zM255 -256q-118 -21 -228 -64l-23 69q29 15 62 26q-34 29 -34 81q0 47 32 75.5t80 28.5q46 0 85 -20l-24 -65q-30 8 -53 8q-21 0 -34.5 -9.5t-13.5 -24.5q0 -17 12 -30.5t36 -13.5
t89 13z" />
    <glyph glyph-name="uniFE89" unicode="&#x626;" horiz-adv-x="770" arabic-form="isolated" 
d="M329 406q-118 -21 -228 -64l-23 69q29 15 62 26q-34 29 -34 81q0 47 32 75.5t80 28.5q46 0 85 -20l-24 -65q-30 8 -53 8q-21 0 -34.5 -9.5t-13.5 -24.5q0 -17 12 -30.5t36 -13.5t89 13zM342 -200q-145 0 -218.5 66t-73.5 190q0 114 63 237l120 -48q-31 -84 -31 -141
q0 -68 40.5 -99t127.5 -31q135 0 191 58q-27 19 -63 36.5t-83.5 38.5t-78.5 37q-3 34 -3 63q0 83 23 145t63 96.5t85 50.5t96 16q40 0 80 -14.5t60 -33.5l-63 -155q-49 30 -108 30q-36 0 -60 -16t-39 -62q65 -27 98 -42.5t76 -42t74 -57.5q-1 -82 -30 -144.5t-80.5 -101
t-118.5 -57.5t-147 -19z" />
    <glyph glyph-name="uniFE8A" unicode="&#x626;" horiz-adv-x="716" arabic-form="final" 
d="M546 306q-118 -21 -228 -64l-23 69q29 15 62 26q-34 29 -34 81q0 47 32 75.5t80 28.5q46 0 85 -20l-24 -65q-30 8 -53 8q-21 0 -34.5 -9.5t-13.5 -24.5q0 -17 12 -30.5t36 -13.5t89 13zM339 -211q-141 0 -215 63t-74 179q0 113 70 252l122 -48q-36 -99 -36 -156
q0 -121 166 -121q134 0 181 57q-80 16 -153 42l31 155q140 -34 269 -34h16v-178h-14h-21q-20 -95 -108.5 -153t-233.5 -58z" />
    <glyph glyph-name="uniFE8B" unicode="&#x626;" horiz-adv-x="303" arabic-form="initial" 
d="M269 520q-118 -21 -228 -64l-23 69q29 15 62 26q-34 29 -34 81q0 47 32 75.5t80 28.5q46 0 85 -20l-24 -65q-30 8 -53 8q-21 0 -34.5 -9.5t-13.5 -24.5q0 -17 12 -30.5t36 -13.5t89 13zM0 0q-15 0 -25.5 26t-10.5 63t10.5 63t25.5 26h8q65 0 109 10q-4 113 -29 219
l145 31q20 -92 20 -199q0 -117 -24 -189q-37 -20 -100 -35t-124 -15h-5z" />
    <glyph glyph-name="uniFE8C" unicode="&#x626;" horiz-adv-x="390" arabic-form="medial" 
d="M292 474q-118 -21 -228 -64l-23 69q29 15 62 26q-34 29 -34 81q0 47 32 75.5t80 28.5q46 0 85 -20l-24 -65q-30 8 -53 8q-21 0 -34.5 -9.5t-13.5 -24.5q0 -17 12 -30.5t36 -13.5t89 13zM0 0q-15 0 -25.5 26t-10.5 63t10.5 63t25.5 26h15q67 0 89 14.5t22 40.5v146l148 10
v-138q0 -37 -4 -62q49 -11 114 -11h6v-178h-34q-101 0 -160 42q-57 -42 -164 -42h-32z" />
    <glyph glyph-name="uniFE8D" unicode="&#x627;" horiz-adv-x="266" arabic-form="isolated" 
d="M211 0h-156v712l156 13v-725z" />
    <glyph glyph-name="uniFE8E" unicode="&#x627;" horiz-adv-x="306" arabic-form="final" 
d="M306 178v-178h-48q-110 0 -156.5 61.5t-46.5 176.5v474l156 13v-453q0 -94 84 -94h11z" />
    <glyph glyph-name="uniFE8F" unicode="&#x628;" horiz-adv-x="876" arabic-form="isolated" 
d="M404 -10q-106 0 -178 17.5t-109 51.5t-52 74t-15 94q0 81 38 195l133 -26q-13 -67 -13 -106q0 -45 17 -69.5t67.5 -37.5t144.5 -13q144 0 233 26q-2 88 -28 206l161 31q23 -101 23 -199q0 -101 -28 -167q-119 -77 -394 -77zM415 -66l108 -93l-88 -100l-108 89z" />
    <glyph glyph-name="uniFE90" unicode="&#x628;" horiz-adv-x="951" arabic-form="final" 
d="M917 0q-121 0 -188 52q-94 -62 -327 -62q-106 0 -177.5 17.5t-108.5 51.5t-51.5 74t-14.5 94q0 81 38 195l133 -26q-13 -67 -13 -106q0 -46 16.5 -70t66.5 -37t146 -13q98 0 150.5 10t63.5 21.5t11 31.5v146l148 10v-173q0 -15 -1 -21q51 -17 131 -17h11v-178h-34z
M423 -64l108 -93l-88 -100l-108 89z" />
    <glyph glyph-name="uniFE91" unicode="&#x628;" horiz-adv-x="303" arabic-form="initial" 
d="M0 0q-15 0 -25.5 26t-10.5 63t10.5 63t25.5 26h8q65 0 109 10q-4 113 -29 219l145 31q20 -92 20 -199q0 -117 -24 -189q-37 -20 -100 -35t-124 -15h-5zM78 -58l108 -93l-88 -100l-108 89z" />
    <glyph glyph-name="uniFE92" unicode="&#x628;" horiz-adv-x="390" arabic-form="medial" 
d="M0 0q-15 0 -25.5 26t-10.5 63t10.5 63t25.5 26h15q67 0 89 14.5t22 40.5v146l148 10v-138q0 -37 -4 -62q49 -11 114 -11h6v-178h-34q-101 0 -160 42q-57 -42 -164 -42h-32zM60 -60l108 -93l-88 -100l-108 89z" />
    <glyph glyph-name="uniFE93" unicode="&#x629;" horiz-adv-x="511" arabic-form="isolated" 
d="M341 554l-83 68l-63 -71l-97 80l79 94l83 -71l63 74l98 -84zM194 525q282 -111 282 -309q0 -98 -61 -161t-185 -63q-94 0 -144.5 49.5t-50.5 139.5q0 89 44 179t115 165zM249 168q38 0 66.5 11t28.5 28q0 29 -36.5 67t-87.5 66q-49 -58 -49 -107q0 -65 78 -65z" />
    <glyph glyph-name="uniFE94" unicode="&#x629;" horiz-adv-x="568" arabic-form="final" 
d="M379 593l-83 68l-63 -71l-97 80l79 94l83 -71l63 74l98 -84zM568 0h-63q-113 0 -149 77q-45 -6 -82 -6q-106 0 -167.5 42t-61.5 126q0 96 60 167.5t154.5 106t208.5 34.5v-296q0 -45 18.5 -59t69.5 -14h12v-178zM304 226q17 0 26 1v7v145q-71 -11 -114 -41t-43 -58
q0 -23 34.5 -38.5t96.5 -15.5z" />
    <glyph glyph-name="uniFE95" unicode="&#x62a;" horiz-adv-x="876" arabic-form="isolated" 
d="M537 404l-83 68l-63 -71l-97 80l79 94l83 -71l63 74l98 -84zM404 -10q-106 0 -178 17.5t-109 51.5t-52 74t-15 94q0 81 38 195l133 -26q-13 -67 -13 -106q0 -45 17 -69.5t67.5 -37.5t144.5 -13q144 0 233 26q-2 88 -28 206l161 31q23 -101 23 -199q0 -101 -28 -167
q-119 -77 -394 -77z" />
    <glyph glyph-name="uniFE96" unicode="&#x62a;" horiz-adv-x="951" arabic-form="final" 
d="M553 394l-83 68l-63 -71l-97 80l79 94l83 -71l63 74l98 -84zM917 0q-121 0 -188 52q-94 -62 -327 -62q-106 0 -177.5 17.5t-108.5 51.5t-51.5 74t-14.5 94q0 81 38 195l133 -26q-13 -67 -13 -106q0 -46 16.5 -70t66.5 -37t146 -13q98 0 150.5 10t63.5 21.5t11 31.5v146
l148 10v-173q0 -15 -1 -21q51 -17 131 -17h11v-178h-34z" />
    <glyph glyph-name="uniFE97" unicode="&#x62a;" horiz-adv-x="303" arabic-form="initial" 
d="M172 466l-83 68l-63 -71l-97 80l79 94l83 -71l63 74l98 -84zM0 0q-15 0 -25.5 26t-10.5 63t10.5 63t25.5 26h8q65 0 109 10q-4 113 -29 219l145 31q20 -92 20 -199q0 -117 -24 -189q-37 -20 -100 -35t-124 -15h-5z" />
    <glyph glyph-name="uniFE98" unicode="&#x62a;" horiz-adv-x="390" arabic-form="medial" 
d="M199 442l-83 68l-63 -71l-97 80l79 94l83 -71l63 74l98 -84zM0 0q-15 0 -25.5 26t-10.5 63t10.5 63t25.5 26h15q67 0 89 14.5t22 40.5v146l148 10v-138q0 -37 -4 -62q49 -11 114 -11h6v-178h-34q-101 0 -160 42q-57 -42 -164 -42h-32z" />
    <glyph glyph-name="uniFE99" unicode="&#x62b;" horiz-adv-x="876" arabic-form="isolated" 
d="M438 676l86 -74l-70 -80l-86 71zM540 388l-81 67l-66 -74l-95 79l78 92l81 -70l66 77l95 -82zM404 -10q-106 0 -178 17.5t-109 51.5t-52 74t-15 94q0 81 38 195l133 -26q-13 -67 -13 -106q0 -45 17 -69.5t67.5 -37.5t144.5 -13q144 0 233 26q-2 88 -28 206l161 31
q23 -101 23 -199q0 -101 -28 -167q-119 -77 -394 -77z" />
    <glyph glyph-name="uniFE9A" unicode="&#x62b;" horiz-adv-x="951" arabic-form="final" 
d="M441 667l86 -74l-70 -80l-86 71zM543 379l-81 67l-66 -74l-95 79l78 92l81 -70l66 77l95 -82zM917 0q-121 0 -188 52q-94 -62 -327 -62q-106 0 -177.5 17.5t-108.5 51.5t-51.5 74t-14.5 94q0 81 38 195l133 -26q-13 -67 -13 -106q0 -46 16.5 -70t66.5 -37t146 -13
q98 0 150.5 10t63.5 21.5t11 31.5v146l148 10v-173q0 -15 -1 -21q51 -17 131 -17h11v-178h-34z" />
    <glyph glyph-name="uniFE9B" unicode="&#x62b;" horiz-adv-x="303" arabic-form="initial" 
d="M71 763l86 -74l-70 -80l-86 71zM173 475l-81 67l-66 -74l-95 79l78 92l81 -70l66 77l95 -82zM0 0q-15 0 -25.5 26t-10.5 63t10.5 63t25.5 26h8q65 0 109 10q-4 113 -29 219l145 31q20 -92 20 -199q0 -117 -24 -189q-37 -20 -100 -35t-124 -15h-5z" />
    <glyph glyph-name="uniFE9C" unicode="&#x62b;" horiz-adv-x="390" arabic-form="medial" 
d="M101 732l86 -74l-70 -80l-86 71zM203 444l-81 67l-66 -74l-95 79l78 92l81 -70l66 77l95 -82zM0 0q-15 0 -25.5 26t-10.5 63t10.5 63t25.5 26h15q67 0 89 14.5t22 40.5v146l148 10v-138q0 -37 -4 -62q49 -11 114 -11h6v-178h-34q-101 0 -160 42q-57 -42 -164 -42h-32z
" />
    <glyph glyph-name="uniFE9D" unicode="&#x62c;" horiz-adv-x="653" arabic-form="isolated" 
d="M360 -277q-146 0 -222.5 64t-76.5 177q0 62 25.5 114t69 87.5t96 59.5t112.5 37q-86 74 -132 74q-25 0 -40 -12t-31 -40l-111 52q56 151 191 151q44 0 100 -29t100 -65l94.5 -75t79.5 -52l-39 -119q-165 0 -260.5 -48.5t-95.5 -112.5q0 -44 44.5 -67t119.5 -23
q103 0 204 34l45 -140q-122 -67 -273 -67zM400 94l93 -78l-76 -84l-92 75z" />
    <glyph glyph-name="uniFE9E" unicode="&#x62c;" horiz-adv-x="704" arabic-form="final" 
d="M636 -240q-122 -67 -273 -67q-146 0 -222.5 64t-76.5 177q0 106 73 182.5t185 112.5q-72 70 -97 70q-21 0 -33 -11.5t-28 -40.5l-114 43q32 86 72 127t102 41q36 0 73.5 -16t79.5 -50.5t68.5 -59.5l70.5 -70q50 -50 91 -67t91 -17h6v-178h-12q-75 0 -128 26.5t-138 103.5
q-101 -27 -152 -71t-51 -94q0 -49 47.5 -74t127.5 -25q94 0 193 34zM387 69l93 -78l-76 -84l-92 75z" />
    <glyph glyph-name="uniFE9F" unicode="&#x62c;" horiz-adv-x="632" arabic-form="initial" 
d="M0 0q-15 0 -25.5 26t-10.5 63t10.5 63t25.5 26h46q189 0 350 30l-24.5 16l-23.5 16t-21.5 14t-21.5 13l-19 11t-19 10.5t-17 7.5t-17.5 6t-15.5 3.5t-15 1.5q-36 0 -62 -49l-114 40q32 86 75.5 126t104.5 40t125.5 -33.5t151 -98t124.5 -87.5l-11 -131q-35 -5 -120 -35.5
t-201 -54.5t-260 -24h-15zM282 -40l108 -93l-88 -100l-108 89z" />
    <glyph glyph-name="uniFEA0" unicode="&#x62c;" horiz-adv-x="697" arabic-form="medial" 
d="M0 0q-15 0 -25.5 26t-10.5 63t10.5 63t25.5 26h46q212 0 318 15q-115 113 -160 113q-21 0 -34.5 -10t-29.5 -38l-108 40q31 87 74.5 126.5t104.5 39.5q15 0 31 -3t33.5 -11t30.5 -14.5t33 -21.5l30 -22.5t32.5 -28l30.5 -27.5t32.5 -31t30.5 -29q65 -62 98.5 -80
t89.5 -18h14v-178h-20q-54 0 -94.5 14t-82.5 47q-225 -61 -485 -61h-15zM301 -33l108 -93l-88 -100l-108 89z" />
    <glyph glyph-name="uniFEA1" unicode="&#x62d;" horiz-adv-x="653" arabic-form="isolated" 
d="M360 -277q-146 0 -222.5 64t-76.5 177q0 62 25.5 114t69 87.5t96 59.5t112.5 37q-86 74 -132 74q-25 0 -40 -12t-31 -40l-111 52q56 151 191 151q44 0 100 -29t100 -65l94.5 -75t79.5 -52l-39 -119q-165 0 -260.5 -48.5t-95.5 -112.5q0 -44 44.5 -67t119.5 -23
q103 0 204 34l45 -140q-122 -67 -273 -67z" />
    <glyph glyph-name="uniFEA2" unicode="&#x62d;" horiz-adv-x="704" arabic-form="final" 
d="M636 -240q-122 -67 -273 -67q-146 0 -222.5 64t-76.5 177q0 106 73 182.5t185 112.5q-72 70 -97 70q-21 0 -33 -11.5t-28 -40.5l-114 43q32 86 72 127t102 41q36 0 73.5 -16t79.5 -50.5t68.5 -59.5l70.5 -70q50 -50 91 -67t91 -17h6v-178h-12q-75 0 -128 26.5t-138 103.5
q-101 -27 -152 -71t-51 -94q0 -49 47.5 -74t127.5 -25q94 0 193 34z" />
    <glyph glyph-name="uniFEA3" unicode="&#x62d;" horiz-adv-x="632" arabic-form="initial" 
d="M0 0q-15 0 -25.5 26t-10.5 63t10.5 63t25.5 26h46q189 0 350 30l-24.5 16l-23.5 16t-21.5 14t-21.5 13l-19 11t-19 10.5t-17 7.5t-17.5 6t-15.5 3.5t-15 1.5q-36 0 -62 -49l-114 40q32 86 75.5 126t104.5 40t125.5 -33.5t151 -98t124.5 -87.5l-11 -131q-35 -5 -120 -35.5
t-201 -54.5t-260 -24h-15z" />
    <glyph glyph-name="uniFEA4" unicode="&#x62d;" horiz-adv-x="697" arabic-form="medial" 
d="M0 0q-15 0 -25.5 26t-10.5 63t10.5 63t25.5 26h46q212 0 318 15q-115 113 -160 113q-21 0 -34.5 -10t-29.5 -38l-108 40q31 87 74.5 126.5t104.5 39.5q15 0 31 -3t33.5 -11t30.5 -14.5t33 -21.5l30 -22.5t32.5 -28l30.5 -27.5t32.5 -31t30.5 -29q65 -62 98.5 -80
t89.5 -18h14v-178h-20q-54 0 -94.5 14t-82.5 47q-225 -61 -485 -61h-15z" />
    <glyph glyph-name="uniFEA5" unicode="&#x62e;" horiz-adv-x="653" arabic-form="isolated" 
d="M333 704l108 -93l-88 -100l-108 89zM360 -277q-146 0 -222.5 64t-76.5 177q0 62 25.5 114t69 87.5t96 59.5t112.5 37q-86 74 -132 74q-25 0 -40 -12t-31 -40l-111 52q56 151 191 151q44 0 100 -29t100 -65l94.5 -75t79.5 -52l-39 -119q-165 0 -260.5 -48.5t-95.5 -112.5
q0 -44 44.5 -67t119.5 -23q103 0 204 34l45 -140q-122 -67 -273 -67z" />
    <glyph glyph-name="uniFEA6" unicode="&#x62e;" horiz-adv-x="704" arabic-form="final" 
d="M333 674l108 -93l-88 -100l-108 89zM636 -240q-122 -67 -273 -67q-146 0 -222.5 64t-76.5 177q0 106 73 182.5t185 112.5q-72 70 -97 70q-21 0 -33 -11.5t-28 -40.5l-114 43q32 86 72 127t102 41q36 0 73.5 -16t79.5 -50.5t68.5 -59.5l70.5 -70q50 -50 91 -67t91 -17h6
v-178h-12q-75 0 -128 26.5t-138 103.5q-101 -27 -152 -71t-51 -94q0 -49 47.5 -74t127.5 -25q94 0 193 34z" />
    <glyph glyph-name="uniFEA7" unicode="&#x62e;" horiz-adv-x="632" arabic-form="initial" 
d="M252 697l108 -93l-88 -100l-108 89zM0 0q-15 0 -25.5 26t-10.5 63t10.5 63t25.5 26h46q189 0 350 30l-24.5 16l-23.5 16t-21.5 14t-21.5 13l-19 11t-19 10.5t-17 7.5t-17.5 6t-15.5 3.5t-15 1.5q-36 0 -62 -49l-114 40q32 86 75.5 126t104.5 40t125.5 -33.5t151 -98
t124.5 -87.5l-11 -131q-35 -5 -120 -35.5t-201 -54.5t-260 -24h-15z" />
    <glyph glyph-name="uniFEA8" unicode="&#x62e;" horiz-adv-x="697" arabic-form="medial" 
d="M252 697l108 -93l-88 -100l-108 89zM0 0q-15 0 -25.5 26t-10.5 63t10.5 63t25.5 26h46q212 0 318 15q-115 113 -160 113q-21 0 -34.5 -10t-29.5 -38l-108 40q31 87 74.5 126.5t104.5 39.5q15 0 31 -3t33.5 -11t30.5 -14.5t33 -21.5l30 -22.5t32.5 -28l30.5 -27.5
t32.5 -31t30.5 -29q65 -62 98.5 -80t89.5 -18h14v-178h-20q-54 0 -94.5 14t-82.5 47q-225 -61 -485 -61h-15z" />
    <glyph glyph-name="uniFEA9" unicode="&#x62f;" horiz-adv-x="485" arabic-form="isolated" 
d="M158 -10q-73 0 -133 8v172q86 -6 151 -6t125 6q-37 124 -156 232l113 120q177 -155 177 -379q0 -49 -10 -107q-83 -46 -267 -46z" />
    <glyph glyph-name="uniFEAA" unicode="&#x62f;" horiz-adv-x="525" arabic-form="final" 
d="M506 0q-88 0 -136 45q-93 -54 -213 -54q-83 0 -132 7v177q88 -4 130 -4q91 0 142 13q-8 24 -13 36q-35 96 -124 197l113 110q37 -38 67 -85.5t42 -74.5t32 -77q28 -69 45 -90.5t58 -21.5h8v-178h-19z" />
    <glyph glyph-name="uniFEAB" unicode="&#x630;" horiz-adv-x="485" arabic-form="isolated" 
d="M230 750l108 -93l-88 -100l-108 89zM158 -10q-73 0 -133 8v172q86 -6 151 -6t125 6q-37 124 -156 232l113 120q177 -155 177 -379q0 -49 -10 -107q-83 -46 -267 -46z" />
    <glyph glyph-name="uniFEAC" unicode="&#x630;" horiz-adv-x="525" arabic-form="final" 
d="M240 757l108 -93l-88 -100l-108 89zM506 0q-88 0 -136 45q-93 -54 -213 -54q-83 0 -132 7v177q88 -4 130 -4q91 0 142 13q-8 24 -13 36q-35 96 -124 197l113 110q37 -38 67 -85.5t42 -74.5t32 -77q28 -69 45 -90.5t58 -21.5h8v-178h-19z" />
    <glyph glyph-name="uniFEAD" unicode="&#x631;" horiz-adv-x="421" arabic-form="isolated" 
d="M371 150q0 -73 -14 -134t-44.5 -111t-84 -78t-126.5 -28q-46 0 -102 12l12 146q24 -4 50 -4q87 0 124.5 52t37.5 128q0 60 -44 212l158 45q33 -123 33 -240z" />
    <glyph glyph-name="uniFEAE" unicode="&#x631;" horiz-adv-x="518" arabic-form="final" 
d="M102 -201q-46 0 -102 12l12 146q24 -4 50 -4q90 0 131 52.5t41 127.5q0 71 -41 212l145 45q2 -9 8.5 -34.5t9.5 -35.5l8.5 -29t9.5 -29.5t10 -23.5t13 -23q26 -37 97 -37h24v-178h-36q-78 0 -121 33q-20 -106 -84 -170t-175 -64z" />
    <glyph glyph-name="uniFEAF" unicode="&#x632;" horiz-adv-x="421" arabic-form="isolated" 
d="M220 619l108 -93l-88 -100l-108 89zM371 150q0 -73 -14 -134t-44.5 -111t-84 -78t-126.5 -28q-46 0 -102 12l12 146q24 -4 50 -4q87 0 124.5 52t37.5 128q0 60 -44 212l158 45q33 -123 33 -240z" />
    <glyph glyph-name="uniFEB0" unicode="&#x632;" horiz-adv-x="518" arabic-form="final" 
d="M225 619l108 -93l-88 -100l-108 89zM102 -201q-46 0 -102 12l12 146q24 -4 50 -4q90 0 131 52.5t41 127.5q0 71 -41 212l145 45q2 -9 8.5 -34.5t9.5 -35.5l8.5 -29t9.5 -29.5t10 -23.5t13 -23q26 -37 97 -37h24v-178h-36q-78 0 -121 33q-20 -106 -84 -170t-175 -64z" />
    <glyph glyph-name="uniFEB1" unicode="&#x633;" horiz-adv-x="1249" arabic-form="isolated" 
d="M319 -216q-130 0 -199.5 65t-69.5 182q0 119 70 247l122 -48q-36 -87 -36 -146q0 -61 34 -92t107 -31q70 0 113 28.5t43 76.5q0 82 -50 242l155 46q33 -123 39 -160q25 -11 57 -11q83 0 83 73v83l139 9v-113q0 -57 66 -57q32 0 71 11q-2 42 -29 178l145 31
q20 -90 20 -159q0 -117 -24 -189q-93 -51 -186 -51q-89 0 -137 43q-48 -47 -153 -47q-20 0 -54 4q-25 -103 -108.5 -159t-217.5 -56z" />
    <glyph glyph-name="uniFEB2" unicode="&#x633;" horiz-adv-x="1287" arabic-form="final" 
d="M319 -216q-130 0 -199.5 65t-69.5 182q0 119 70 247l122 -48q-36 -87 -36 -146q0 -61 34 -92t107 -31q70 0 113 28.5t43 76.5q0 82 -50 242l155 46q33 -121 39 -162q27 -9 56 -9q37 0 60 18t23 55v83l139 9v-113q0 -57 66 -57q60 0 60 47v130l139 12v-141q0 -15 -2 -41
q26 -7 84 -7h15v-178h-22q-77 0 -141 40q-52 -45 -141 -45q-85 0 -133 47q-48 -47 -152 -47q-21 0 -53 4q-25 -103 -108.5 -159t-217.5 -56z" />
    <glyph glyph-name="uniFEB3" unicode="&#x633;" horiz-adv-x="847" arabic-form="initial" 
d="M587 -1q-89 0 -137 43q-48 -47 -153 -47q-90 0 -156 43q-53 -38 -130 -38h-11q-15 0 -25.5 26t-10.5 63t10.5 63t25.5 26h26q36 0 54.5 18t22.5 67l5 66l138 10l-4 -76q-1 -32 -8 -65q31 -15 68 -15q83 0 83 73v83l139 9v-113q0 -57 66 -57q32 0 71 11q-2 42 -29 178
l145 31q20 -90 20 -159q0 -117 -24 -189q-93 -51 -186 -51z" />
    <glyph glyph-name="uniFEB4" unicode="&#x633;" horiz-adv-x="886" arabic-form="medial" 
d="M864 0q-77 0 -141 40q-52 -45 -141 -45q-85 0 -133 47q-48 -47 -152 -47q-90 0 -156 43q-53 -38 -130 -38h-11q-15 0 -25.5 26t-10.5 63t10.5 63t25.5 26h26q36 0 54.5 18t22.5 67l5 66l138 10l-4 -76q-1 -32 -8 -65q31 -15 68 -15t60 18t23 55v83l139 9v-113
q0 -57 66 -57q60 0 60 47v130l139 12v-141q0 -15 -2 -41q26 -7 84 -7h15v-178h-22z" />
    <glyph glyph-name="uniFEB5" unicode="&#x634;" horiz-adv-x="1249" arabic-form="isolated" 
d="M821 695l86 -74l-70 -80l-86 71zM923 407l-81 67l-66 -74l-95 79l78 92l81 -70l66 77l95 -82zM319 -216q-130 0 -199.5 65t-69.5 182q0 119 70 247l122 -48q-36 -87 -36 -146q0 -61 34 -92t107 -31q70 0 113 28.5t43 76.5q0 82 -50 242l155 46q33 -123 39 -160
q25 -11 57 -11q83 0 83 73v83l139 9v-113q0 -57 66 -57q32 0 71 11q-2 42 -29 178l145 31q20 -90 20 -159q0 -117 -24 -189q-93 -51 -186 -51q-89 0 -137 43q-48 -47 -153 -47q-20 0 -54 4q-25 -103 -108.5 -159t-217.5 -56z" />
    <glyph glyph-name="uniFEB6" unicode="&#x634;" horiz-adv-x="1287" arabic-form="final" 
d="M821 695l86 -74l-70 -80l-86 71zM923 407l-81 67l-66 -74l-95 79l78 92l81 -70l66 77l95 -82zM319 -216q-130 0 -199.5 65t-69.5 182q0 119 70 247l122 -48q-36 -87 -36 -146q0 -61 34 -92t107 -31q70 0 113 28.5t43 76.5q0 82 -50 242l155 46q33 -121 39 -162
q27 -9 56 -9q37 0 60 18t23 55v83l139 9v-113q0 -57 66 -57q60 0 60 47v130l139 12v-141q0 -15 -2 -41q26 -7 84 -7h15v-178h-22q-77 0 -141 40q-52 -45 -141 -45q-85 0 -133 47q-48 -47 -152 -47q-21 0 -53 4q-25 -103 -108.5 -159t-217.5 -56z" />
    <glyph glyph-name="uniFEB7" unicode="&#x634;" horiz-adv-x="847" arabic-form="initial" 
d="M429 695l86 -74l-70 -80l-86 71zM531 407l-81 67l-66 -74l-95 79l78 92l81 -70l66 77l95 -82zM587 -1q-89 0 -137 43q-48 -47 -153 -47q-90 0 -156 43q-53 -38 -130 -38h-11q-15 0 -25.5 26t-10.5 63t10.5 63t25.5 26h26q36 0 54.5 18t22.5 67l5 66l138 10l-4 -76
q-1 -32 -8 -65q31 -15 68 -15q83 0 83 73v83l139 9v-113q0 -57 66 -57q32 0 71 11q-2 42 -29 178l145 31q20 -90 20 -159q0 -117 -24 -189q-93 -51 -186 -51z" />
    <glyph glyph-name="uniFEB8" unicode="&#x634;" horiz-adv-x="886" arabic-form="medial" 
d="M429 695l86 -74l-70 -80l-86 71zM531 407l-81 67l-66 -74l-95 79l78 92l81 -70l66 77l95 -82zM864 0q-77 0 -141 40q-52 -45 -141 -45q-85 0 -133 47q-48 -47 -152 -47q-90 0 -156 43q-53 -38 -130 -38h-11q-15 0 -25.5 26t-10.5 63t10.5 63t25.5 26h26q36 0 54.5 18
t22.5 67l5 66l138 10l-4 -76q-1 -32 -8 -65q31 -15 68 -15t60 18t23 55v83l139 9v-113q0 -57 66 -57q60 0 60 47v130l139 12v-141q0 -15 -2 -41q26 -7 84 -7h15v-178h-22z" />
    <glyph glyph-name="uniFEB9" unicode="&#x635;" horiz-adv-x="1296" arabic-form="isolated" 
d="M890 178q132 0 215 17q-4 61 -37.5 93.5t-87.5 32.5q-56 0 -105.5 -32.5t-101.5 -105.5q57 -5 117 -5zM319 -216q-130 0 -199.5 65t-69.5 182q0 119 70 247l122 -48q-36 -87 -36 -146q0 -61 34 -92t107 -31q70 0 113 28.5t43 76.5q0 82 -50 242l155 46q25 -92 32 -122
q140 257 369 257q104 0 170.5 -66t66.5 -173q0 -105 -37 -192q-119 -62 -352 -62q-126 0 -209 17q-22 -110 -106 -169.5t-223 -59.5z" />
    <glyph glyph-name="uniFEBA" unicode="&#x635;" horiz-adv-x="1345" arabic-form="final" 
d="M890 178q132 0 215 17q-4 61 -37.5 93.5t-87.5 32.5q-56 0 -105.5 -32.5t-101.5 -105.5q57 -5 117 -5zM319 -216q-130 0 -199.5 65t-69.5 182q0 119 70 247l122 -48q-36 -87 -36 -146q0 -61 34 -92t107 -31q70 0 113 28.5t43 76.5q0 82 -50 242l155 46q25 -92 32 -122
q140 257 369 257q104 0 170.5 -66t66.5 -173q0 -38 -4 -67q37 -5 80 -5h23v-178h-31q-88 0 -153 38q-120 -42 -304 -42q-126 0 -209 17q-22 -110 -106 -169.5t-223 -59.5z" />
    <glyph glyph-name="uniFEBB" unicode="&#x635;" horiz-adv-x="909" arabic-form="initial" 
d="M503 178q132 0 215 17q-4 61 -37.5 93.5t-87.5 32.5q-57 0 -106.5 -32.5t-101.5 -105.5q57 -5 118 -5zM470 -4q-188 0 -285 51q-50 -47 -158 -47h-27q-15 0 -25.5 26t-10.5 63t10.5 63t25.5 26h25q48 0 62 14t14 41v146l148 10v-118q0 -18 -2 -50q143 268 375 268
q104 0 170.5 -66t66.5 -173q0 -105 -37 -192q-119 -62 -352 -62z" />
    <glyph glyph-name="uniFEBC" unicode="&#x635;" horiz-adv-x="954" arabic-form="medial" 
d="M503 178q132 0 215 17q-4 61 -37.5 93.5t-87.5 32.5q-57 0 -106.5 -32.5t-101.5 -105.5q57 -5 118 -5zM923 0q-87 0 -151 37q-117 -41 -302 -41q-188 0 -285 51q-50 -47 -158 -47h-27q-15 0 -25.5 26t-10.5 63t10.5 63t25.5 26h25q48 0 62 14t14 41v146l148 10v-118
q0 -18 -2 -50q143 268 375 268q104 0 170.5 -66t66.5 -173q0 -39 -4 -68q36 -4 63 -4h36v-178h-31z" />
    <glyph glyph-name="uniFEBD" unicode="&#x636;" horiz-adv-x="1296" arabic-form="isolated" 
d="M972 730l108 -93l-88 -100l-108 89zM890 178q132 0 215 17q-4 61 -37.5 93.5t-87.5 32.5q-56 0 -105.5 -32.5t-101.5 -105.5q57 -5 117 -5zM319 -216q-130 0 -199.5 65t-69.5 182q0 119 70 247l122 -48q-36 -87 -36 -146q0 -61 34 -92t107 -31q70 0 113 28.5t43 76.5
q0 82 -50 242l155 46q25 -92 32 -122q140 257 369 257q104 0 170.5 -66t66.5 -173q0 -105 -37 -192q-119 -62 -352 -62q-126 0 -209 17q-22 -110 -106 -169.5t-223 -59.5z" />
    <glyph glyph-name="uniFEBE" unicode="&#x636;" horiz-adv-x="1345" arabic-form="final" 
d="M972 730l108 -93l-88 -100l-108 89zM890 178q132 0 215 17q-4 61 -37.5 93.5t-87.5 32.5q-56 0 -105.5 -32.5t-101.5 -105.5q57 -5 117 -5zM319 -216q-130 0 -199.5 65t-69.5 182q0 119 70 247l122 -48q-36 -87 -36 -146q0 -61 34 -92t107 -31q70 0 113 28.5t43 76.5
q0 82 -50 242l155 46q25 -92 32 -122q140 257 369 257q104 0 170.5 -66t66.5 -173q0 -38 -4 -67q37 -5 80 -5h23v-178h-31q-88 0 -153 38q-120 -42 -304 -42q-126 0 -209 17q-22 -110 -106 -169.5t-223 -59.5z" />
    <glyph glyph-name="uniFEBF" unicode="&#x636;" horiz-adv-x="909" arabic-form="initial" 
d="M559 727l108 -93l-88 -100l-108 89zM503 178q132 0 215 17q-4 61 -37.5 93.5t-87.5 32.5q-57 0 -106.5 -32.5t-101.5 -105.5q57 -5 118 -5zM470 -4q-188 0 -285 51q-50 -47 -158 -47h-27q-15 0 -25.5 26t-10.5 63t10.5 63t25.5 26h25q48 0 62 14t14 41v146l148 10v-118
q0 -18 -2 -50q143 268 375 268q104 0 170.5 -66t66.5 -173q0 -105 -37 -192q-119 -62 -352 -62z" />
    <glyph glyph-name="uniFEC0" unicode="&#x636;" horiz-adv-x="954" arabic-form="medial" 
d="M559 727l108 -93l-88 -100l-108 89zM503 178q132 0 215 17q-4 61 -37.5 93.5t-87.5 32.5q-57 0 -106.5 -32.5t-101.5 -105.5q57 -5 118 -5zM923 0q-87 0 -151 37q-117 -41 -302 -41q-188 0 -285 51q-50 -47 -158 -47h-27q-15 0 -25.5 26t-10.5 63t10.5 63t25.5 26h25
q48 0 62 14t14 41v146l148 10v-118q0 -18 -2 -50q143 268 375 268q104 0 170.5 -66t66.5 -173q0 -39 -4 -68q36 -4 63 -4h36v-178h-31z" />
    <glyph glyph-name="uniFEC1" unicode="&#x637;" horiz-adv-x="797" arabic-form="isolated" 
d="M341 178q179 0 265 23q-5 59 -39 89.5t-86 30.5q-117 0 -220 -142q25 -1 80 -1zM318 -4q-131 0 -293 14v175q29 0 82 -3q20 54 20 151v379l156 13v-198q0 -82 -20 -167q96 129 247 129q104 0 170.5 -67.5t66.5 -176.5q0 -98 -37 -187q-118 -62 -392 -62z" />
    <glyph glyph-name="uniFEC2" unicode="&#x637;" horiz-adv-x="856" arabic-form="final" 
d="M341 178q179 0 265 23q-5 59 -39 89.5t-86 30.5q-117 0 -220 -142q25 -1 80 -1zM825 0q-90 0 -157 40q-122 -44 -350 -44q-131 0 -293 14v175q29 0 82 -3q20 54 20 151v379l156 13v-198q0 -82 -20 -167q96 129 247 129q104 0 170.5 -67.5t66.5 -176.5q0 -34 -4 -61
q48 -6 95 -6h18v-178h-31z" />
    <glyph glyph-name="uniFEC3" unicode="&#x637;" horiz-adv-x="787" arabic-form="initial" 
d="M471 321q-118 0 -220 -143h80q179 0 265 23q-5 59 -39 89.5t-86 30.5zM0 0q-15 0 -25.5 26t-10.5 63t10.5 63t25.5 26h96q21 52 21 155v379l156 13v-198q0 -82 -20 -167q96 129 247 129q104 0 170.5 -67.5t66.5 -176.5q0 -98 -37 -187q-112 -58 -392 -58h-308z" />
    <glyph glyph-name="uniFEC4" unicode="&#x637;" horiz-adv-x="849" arabic-form="medial" 
d="M471 321q-118 0 -220 -143h80q179 0 265 23q-5 59 -39 89.5t-86 30.5zM0 0q-15 0 -25.5 26t-10.5 63t10.5 63t25.5 26h96q21 52 21 155v379l156 13v-198q0 -82 -20 -167q96 129 247 129q104 0 170.5 -67.5t66.5 -176.5q0 -34 -4 -61q42 -6 80 -6h36v-178h-31
q-93 0 -158 41q-116 -41 -352 -41h-308z" />
    <glyph glyph-name="uniFEC5" unicode="&#x638;" horiz-adv-x="797" arabic-form="isolated" 
d="M465 739l108 -93l-88 -100l-108 89zM341 178q179 0 265 23q-5 59 -39 89.5t-86 30.5q-117 0 -220 -142q25 -1 80 -1zM318 -4q-131 0 -293 14v175q29 0 82 -3q20 54 20 151v379l156 13v-198q0 -82 -20 -167q96 129 247 129q104 0 170.5 -67.5t66.5 -176.5q0 -98 -37 -187
q-118 -62 -392 -62z" />
    <glyph glyph-name="uniFEC6" unicode="&#x638;" horiz-adv-x="856" arabic-form="final" 
d="M465 739l108 -93l-88 -100l-108 89zM341 178q179 0 265 23q-5 59 -39 89.5t-86 30.5q-117 0 -220 -142q25 -1 80 -1zM825 0q-90 0 -157 40q-122 -44 -350 -44q-131 0 -293 14v175q29 0 82 -3q20 54 20 151v379l156 13v-198q0 -82 -20 -167q96 129 247 129
q104 0 170.5 -67.5t66.5 -176.5q0 -34 -4 -61q48 -6 95 -6h18v-178h-31z" />
    <glyph glyph-name="uniFEC7" unicode="&#x638;" horiz-adv-x="787" arabic-form="initial" 
d="M458 739l108 -93l-88 -100l-108 89zM471 321q-118 0 -220 -143h80q179 0 265 23q-5 59 -39 89.5t-86 30.5zM0 0q-15 0 -25.5 26t-10.5 63t10.5 63t25.5 26h96q21 52 21 155v379l156 13v-198q0 -82 -20 -167q96 129 247 129q104 0 170.5 -67.5t66.5 -176.5q0 -98 -37 -187
q-112 -58 -392 -58h-308z" />
    <glyph glyph-name="uniFEC8" unicode="&#x638;" horiz-adv-x="849" arabic-form="medial" 
d="M458 739l108 -93l-88 -100l-108 89zM471 321q-118 0 -220 -143h80q179 0 265 23q-5 59 -39 89.5t-86 30.5zM0 0q-15 0 -25.5 26t-10.5 63t10.5 63t25.5 26h96q21 52 21 155v379l156 13v-198q0 -82 -20 -167q96 129 247 129q104 0 170.5 -67.5t66.5 -176.5q0 -34 -4 -61
q42 -6 80 -6h36v-178h-31q-93 0 -158 41q-116 -41 -352 -41h-308z" />
    <glyph glyph-name="uniFEC9" unicode="&#x639;" horiz-adv-x="607" arabic-form="isolated" 
d="M602 -170q-124 -67 -268 -67q-139 0 -211.5 60t-72.5 166q0 156 135 222q-34 25 -52.5 72t-18.5 100q0 97 55.5 152t143.5 55q80 0 172 -36l-38 -136q-60 15 -98 15q-83 0 -83 -69q0 -29 21 -56t51 -27q18 0 44 4t67 12t60 11l25 -152q-194 -43 -257 -70.5t-63 -70.5
q0 -38 41 -58.5t109 -20.5q94 0 193 34z" />
    <glyph glyph-name="uniFECA" unicode="&#x639;" horiz-adv-x="656" arabic-form="final" 
d="M334 392q-45 0 -96 -8q47 -80 109 -123q56 39 105 116q-57 15 -118 15zM597 -180q-124 -67 -268 -67q-139 0 -209 58t-70 158q0 76 33.5 134t116.5 101q-54 62 -89.5 142.5t-36.5 152.5q122 39 272 39q165 0 268 -53q-7 -74 -45 -150t-105 -139q66 -18 181 -18h11v-178
h-48q-102 0 -174.5 23t-137.5 80q-89 -42 -89 -93q0 -89 152 -89q94 0 193 34z" />
    <glyph glyph-name="uniFECB" unicode="&#x639;" horiz-adv-x="517" arabic-form="initial" 
d="M0 0q-15 0 -25.5 26t-10.5 63t10.5 63t25.5 26h26q37 0 65 2q-34 58 -34 128q0 97 55.5 152t143.5 55q80 0 172 -36l-38 -136q-60 15 -98 15q-36 0 -59.5 -18t-23.5 -46q0 -43 24.5 -68.5t51.5 -25.5q28 0 167 38l35 -152q-130 -47 -238.5 -66.5t-236.5 -19.5h-12z" />
    <glyph glyph-name="uniFECC" unicode="&#x639;" horiz-adv-x="639" arabic-form="medial" 
d="M314 349q-45 0 -96 -8q47 -80 109 -123q56 39 105 116q-57 15 -118 15zM0 0q-15 0 -25.5 26t-10.5 63t10.5 63t25.5 26h21q84 0 147 9q-47 48 -80.5 117.5t-33.5 151.5q122 39 272 39q165 0 268 -53q-16 -147 -120 -258q49 -6 107 -6h58v-178h-48q-164 0 -276 61
q-121 -61 -289 -61h-26z" />
    <glyph glyph-name="uniFECD" unicode="&#x63a;" horiz-adv-x="622" arabic-form="isolated" 
d="M316 814l108 -93l-88 -100l-108 89zM602 -170q-124 -67 -268 -67q-139 0 -211.5 60t-72.5 166q0 156 135 222q-34 25 -52.5 72t-18.5 100q0 97 55.5 152t143.5 55q80 0 172 -36l-38 -136q-60 15 -98 15q-83 0 -83 -69q0 -29 21 -56t51 -27q18 0 44 4t67 12t60 11l25 -152
q-194 -43 -257 -70.5t-63 -70.5q0 -38 41 -58.5t109 -20.5q94 0 193 34z" />
    <glyph glyph-name="uniFECE" unicode="&#x63a;" horiz-adv-x="656" arabic-form="final" 
d="M334 769l108 -93l-88 -100l-108 89zM334 392q-45 0 -96 -8q47 -80 109 -123q56 39 105 116q-57 15 -118 15zM597 -180q-124 -67 -268 -67q-139 0 -209 58t-70 158q0 76 33.5 134t116.5 101q-54 62 -89.5 142.5t-36.5 152.5q122 39 272 39q165 0 268 -53q-7 -74 -45 -150
t-105 -139q66 -18 181 -18h11v-178h-48q-102 0 -174.5 23t-137.5 80q-89 -42 -89 -93q0 -89 152 -89q94 0 193 34z" />
    <glyph glyph-name="uniFECF" unicode="&#x63a;" horiz-adv-x="517" arabic-form="initial" 
d="M236 744l108 -93l-88 -100l-108 89zM0 0q-15 0 -25.5 26t-10.5 63t10.5 63t25.5 26h26q37 0 65 2q-34 58 -34 128q0 97 55.5 152t143.5 55q80 0 172 -36l-38 -136q-60 15 -98 15q-36 0 -59.5 -18t-23.5 -46q0 -43 24.5 -68.5t51.5 -25.5q28 0 167 38l35 -152
q-130 -47 -238.5 -66.5t-236.5 -19.5h-12z" />
    <glyph glyph-name="uniFED0" unicode="&#x63a;" horiz-adv-x="639" arabic-form="medial" 
d="M312 729l108 -93l-88 -100l-108 89zM314 349q-45 0 -96 -8q47 -80 109 -123q56 39 105 116q-57 15 -118 15zM0 0q-15 0 -25.5 26t-10.5 63t10.5 63t25.5 26h21q84 0 147 9q-47 48 -80.5 117.5t-33.5 151.5q122 39 272 39q165 0 268 -53q-16 -147 -120 -258q49 -6 107 -6
h58v-178h-48q-164 0 -276 61q-121 -61 -289 -61h-26z" />
    <glyph glyph-name="uniFED1" unicode="&#x641;" horiz-adv-x="906" arabic-form="isolated" 
d="M616 854l108 -93l-88 -100l-108 89zM671 349q22 0 43 3q-10 61 -32.5 95t-55.5 34q-34 0 -50.5 -22.5t-16.5 -51.5t25.5 -43.5t86.5 -14.5zM414 -10q-88 0 -153 12.5t-105 34t-64 54t-33 67t-9 79.5q0 81 38 195l128 -26q-13 -63 -13 -101q0 -50 19 -77.5t72.5 -42.5
t152.5 -15q186 0 274 29q0 5 0.5 14t0.5 14q-43 -15 -110 -15q-182 0 -182 169q0 102 59 174.5t146 72.5q94 0 155 -90.5t61 -253.5q0 -145 -28 -217q-143 -77 -409 -77z" />
    <glyph glyph-name="uniFED2" unicode="&#x641;" horiz-adv-x="957" arabic-form="final" 
d="M663 751l108 -93l-88 -100l-108 89zM597 312q0 -57 78 -106q84 41 84 90q0 30 -25 50.5t-63 20.5q-31 0 -52.5 -17t-21.5 -38zM889 0q-147 0 -231 42q-136 -52 -299 -52q-89 0 -151.5 17t-96 48.5t-47.5 69t-14 86.5q0 70 34 196l130 -26q-12 -84 -12 -106
q0 -56 38.5 -80.5t146.5 -24.5q72 0 126 8q-40 59 -40 137q0 103 60.5 157t150.5 54q87 0 146 -52.5t59 -143.5q0 -84 -50 -148q45 -4 85 -4h33v-178h-68z" />
    <glyph glyph-name="uniFED3" unicode="&#x641;" horiz-adv-x="542" arabic-form="initial" 
d="M251 858l108 -93l-88 -100l-108 89zM307 349q21 0 42 3q-21 129 -87 129q-34 0 -50.5 -22.5t-16.5 -51.5t25.5 -43.5t86.5 -14.5zM0 0q-15 0 -25.5 26t-10.5 63t10.5 63t25.5 26h1h17q247 0 339 23q1 9 1 28v3q-43 -15 -110 -15q-100 0 -141 43.5t-41 120.5
q0 102 59 174.5t146 72.5q94 0 155 -90.5t61 -253.5q0 -145 -28 -217q-122 -67 -435 -67h-24z" />
    <glyph glyph-name="uniFED4" unicode="&#x641;" horiz-adv-x="548" arabic-form="medial" 
d="M256 752l108 -93l-88 -100l-108 89zM188 312q0 -57 78 -106q84 41 84 90q0 30 -25 50.5t-63 20.5q-31 0 -52.5 -17t-21.5 -38zM0 0q-15 0 -25.5 26t-10.5 63t10.5 63t25.5 26h28q21 0 73 5q-37 57 -37 132q0 103 60.5 157t150.5 54q87 0 146 -52.5t59 -143.5
q0 -84 -50 -148q45 -4 85 -4h33v-178h-68q-145 0 -228 41q-102 -41 -229 -41h-23z" />
    <glyph glyph-name="uniFED5" unicode="&#x642;" horiz-adv-x="770" arabic-form="isolated" 
d="M565 513l-83 68l-63 -71l-97 80l79 94l83 -71l63 74l98 -84zM524 178q25 0 55 5q-6 49 -33 92t-67 43q-34 0 -52 -22.5t-18 -52.5q0 -65 115 -65zM348 -216q-150 0 -224 70t-74 197q0 92 39 206l126 -34q-14 -72 -14 -120q0 -75 39.5 -110t137.5 -35q76 0 129 23.5
t64 57.5q-44 -20 -106 -20q-189 0 -189 197q0 111 61 186t151 75q99 0 165.5 -88.5t66.5 -234.5q0 -175 -95.5 -272.5t-276.5 -97.5z" />
    <glyph glyph-name="uniFED6" unicode="&#x642;" horiz-adv-x="784" arabic-form="final" 
d="M565 513l-83 68l-63 -71l-97 80l79 94l83 -71l63 74l98 -84zM524 178h56q-5 50 -32.5 95t-68.5 45q-34 0 -52 -22.5t-18 -52.5q0 -65 115 -65zM348 -216q-150 0 -224 70t-74 197q0 92 39 206l126 -34q-14 -72 -14 -120q0 -75 39.5 -110t137.5 -35q72 0 119 19.5t67 46.5
q-37 -5 -99 -5q-189 0 -189 197q0 109 61 185t151 76q91 0 153.5 -81.5t67.5 -217.5h75v-178h-97q-35 -104 -121 -160t-218 -56z" />
    <glyph glyph-name="uniFED7" unicode="&#x642;" horiz-adv-x="542" arabic-form="initial" 
d="M347 660l-83 68l-63 -71l-97 80l79 94l83 -71l63 74l98 -84zM307 349q21 0 42 3q-21 129 -87 129q-34 0 -50.5 -22.5t-16.5 -51.5t25.5 -43.5t86.5 -14.5zM0 0q-15 0 -25.5 26t-10.5 63t10.5 63t25.5 26h1h17q247 0 339 23q1 9 1 28v3q-43 -15 -110 -15q-100 0 -141 43.5
t-41 120.5q0 102 59 174.5t146 72.5q94 0 155 -90.5t61 -253.5q0 -145 -28 -217q-122 -67 -435 -67h-24z" />
    <glyph glyph-name="uniFED8" unicode="&#x642;" horiz-adv-x="548" arabic-form="medial" 
d="M350 564l-83 68l-63 -71l-97 80l79 94l83 -71l63 74l98 -84zM188 312q0 -57 78 -106q84 41 84 90q0 30 -25 50.5t-63 20.5q-31 0 -52.5 -17t-21.5 -38zM0 0q-15 0 -25.5 26t-10.5 63t10.5 63t25.5 26h28q21 0 73 5q-37 57 -37 132q0 103 60.5 157t150.5 54
q87 0 146 -52.5t59 -143.5q0 -84 -50 -148q45 -4 85 -4h33v-178h-68q-145 0 -228 41q-102 -41 -229 -41h-23z" />
    <glyph glyph-name="uniFED9" unicode="&#x643;" horiz-adv-x="818" arabic-form="isolated" 
d="M412 478q0 -6 63 -21q63 -14 63 -65q0 -54 -52.5 -86.5t-154.5 -32.5v87q130 0 130 13q0 6 -40 12q-42 7 -61 26t-19 52q0 55 40.5 90t104.5 35q22 0 39 -4l-18 -95q-16 3 -35 3q-60 0 -60 -14zM414 -10q-88 0 -153 12.5t-105 34t-64 54t-33 67t-9 79.5q0 81 38 195
l133 -26q-13 -63 -13 -101q0 -50 18.5 -77.5t71 -42.5t149.5 -15q98 0 162 15q1 42 1 165q0 296 -2 362l155 13v-359q0 -79 -1 -121.5t-7 -100.5t-18 -94q-47 -25 -140.5 -42.5t-182.5 -17.5z" />
    <glyph glyph-name="uniFEDA" unicode="&#x643;" horiz-adv-x="887" arabic-form="final" 
d="M412 478q0 -6 63 -21q63 -14 63 -65q0 -54 -52.5 -86.5t-154.5 -32.5v87q130 0 130 13q0 6 -40 12q-42 7 -61 26t-19 52q0 55 40.5 90t104.5 35q22 0 39 -4l-18 -95q-16 3 -35 3q-60 0 -60 -14zM853 0q-99 0 -159 62q-82 -72 -291 -72q-85 0 -148 12.5t-102 34t-62.5 54
t-32 67t-8.5 79.5q0 81 38 195l133 -26q-13 -63 -13 -101q0 -50 17 -77.5t66.5 -42.5t140.5 -15q100 0 138.5 15t38.5 57v470l154 13v-434q0 -60 24.5 -86.5t88.5 -26.5h11v-178h-34z" />
    <glyph glyph-name="uniFEDB" unicode="&#x643;" horiz-adv-x="501" arabic-form="initial" 
d="M0 0q-15 0 -25.5 26t-10.5 63t10.5 63t25.5 26h19q147 0 239 19q-26 59 -84.5 105.5t-142.5 74.5v200q198 133 445 183v-166q-161 -35 -291 -107q228 -104 228 -334q0 -48 -8 -89q-115 -64 -382 -64h-23z" />
    <glyph glyph-name="uniFEDC" unicode="&#x643;" horiz-adv-x="514" arabic-form="medial" 
d="M0 0q-15 0 -25.5 26t-10.5 63t10.5 63t25.5 26h19q155 0 239 24q-79 126 -227 175v200q198 133 445 183v-166q-165 -37 -294 -108q42 -21 76.5 -47.5t63.5 -60.5t43 -53t39 -56q6 -8 18.5 -28.5t18 -27l15.5 -17.5t20.5 -14.5t24.5 -3.5h13v-178h-16q-93 0 -147 57
q-126 -57 -328 -57h-23z" />
    <glyph glyph-name="uniFEDD" unicode="&#x644;" horiz-adv-x="686" arabic-form="isolated" 
d="M467 712l154 13q10 -549 10 -605q0 -138 -84 -214.5t-238 -76.5q-125 0 -192 63t-67 179q0 113 70 252l127 -48q-36 -97 -36 -161q0 -57 30 -82.5t96 -25.5q65 0 102.5 28t37.5 68q0 7 -2 107q-4 232 -8 503z" />
    <glyph glyph-name="uniFEDE" unicode="&#x644;" horiz-adv-x="747" arabic-form="final" 
d="M713 0q-62 0 -100 29q-24 -96 -102 -148t-202 -52q-125 0 -192 63t-67 179q0 113 70 252l127 -48q-36 -97 -36 -161q0 -57 30 -82.5t96 -25.5q64 0 102 29t38 67q0 7 -2 107q-4 232 -8 503l154 13l7 -435q1 -65 23.5 -88.5t84.5 -23.5h11v-178h-34z" />
    <glyph glyph-name="uniFEDF" unicode="&#x644;" horiz-adv-x="310" arabic-form="initial" 
d="M0 0q-15 0 -25.5 26t-10.5 63t10.5 63t25.5 26h8q55 0 91 8q2 44 2 136q0 34 -3 390l157 13v-384q0 -215 -26 -291q-37 -20 -100 -35t-124 -15h-5z" />
    <glyph glyph-name="uniFEE0" unicode="&#x644;" horiz-adv-x="379" arabic-form="medial" 
d="M0 0q-15 0 -25.5 26t-10.5 63t10.5 63t25.5 26h14q51 0 69 13t18 51v470l154 13v-434q0 -60 24.5 -86.5t88.5 -26.5h11v-178h-34q-95 0 -154 57q-55 -57 -186 -57h-5z" />
    <glyph glyph-name="uniFEE1" unicode="&#x645;" horiz-adv-x="625" arabic-form="isolated" 
d="M393 196q52 0 72 1q1 11 1 29q0 49 -22 73.5t-60 24.5q-40 0 -68 -33.5t-35 -91.5q105 -3 112 -3zM205 -190l-146 -10q-9 191 -9 268q0 55 25.5 92t75.5 43q4 123 74 201t171 78q92 0 148 -57t56 -159q0 -112 -36 -206q-17 -10 -72 -17t-115 -7q-42 0 -81 1t-63.5 2.5
t-29.5 1.5q-7 0 -7 -5q0 -48 9 -226z" />
    <glyph glyph-name="uniFEE2" unicode="&#x645;" horiz-adv-x="705" arabic-form="final" 
d="M384 175q51 0 88 5q-19 122 -92 122q-38 0 -65 -32.5t-34 -88.5q68 -6 103 -6zM205 -210l-146 -10q-9 191 -9 268q0 58 26 97.5t75 43.5q6 119 74.5 195t169.5 76q79 0 127.5 -50t67.5 -134q14 -61 30 -79.5t63 -18.5h22v-178h-31q-107 0 -149 38q-63 -22 -163 -22
q-38 0 -73.5 2t-57 4.5t-26.5 2.5q-9 0 -9 -9q0 -48 9 -226z" />
    <glyph glyph-name="uniFEE3" unicode="&#x645;" horiz-adv-x="581" arabic-form="initial" 
d="M335 161q28 0 58 3q2 17 2 40q0 39 -17.5 66t-51.5 27q-33 0 -55 -22.5t-60 -97.5q55 -16 124 -16zM307 -1q-105 0 -187 44q-47 -43 -112 -43h-8q-15 0 -25.5 26t-10.5 63t10.5 63t25.5 26h19q10 0 19.5 3t17.5 11t14 15t13.5 20.5t12 22.5l13 26.5t12.5 26.5
q38 74 84 114t126 40q88 0 144 -67.5t56 -166.5q0 -111 -40 -199q-67 -25 -184 -25z" />
    <glyph glyph-name="uniFEE4" unicode="&#x645;" horiz-adv-x="634" arabic-form="medial" 
d="M335 161q43 0 70 8q-16 69 -32 98.5t-47 29.5q-33 0 -55 -22.5t-60 -97.5q55 -16 124 -16zM603 0q-81 0 -130 34q-72 -35 -156 -35q-123 0 -198 43q-48 -42 -111 -42h-8q-15 0 -25.5 26t-10.5 63t10.5 63t25.5 26h19q10 0 19.5 3t17.5 11t14 15t13.5 20.5t12 22.5
l13 26.5t12.5 26.5q38 74 84 114t126 40q75 0 122 -50.5t66 -135.5q13 -58 29.5 -75.5t63.5 -17.5h22v-178h-31z" />
    <glyph glyph-name="uniFEE5" unicode="&#x646;" horiz-adv-x="705" arabic-form="isolated" 
d="M335 497l108 -93l-88 -100l-108 89zM608 369q38 -137 44 -198q3 -31 3 -64q0 -146 -86.5 -227t-249.5 -81q-130 0 -199.5 65t-69.5 182q0 119 70 247l122 -48q-36 -87 -36 -146q0 -61 34 -92t107 -31q70 0 113 28.5t43 76.5q0 82 -50 242z" />
    <glyph glyph-name="uniFEE6" unicode="&#x646;" horiz-adv-x="732" arabic-form="final" 
d="M335 482l108 -93l-88 -100l-108 89zM319 -216q-130 0 -199.5 65t-69.5 182q0 119 70 247l122 -48q-36 -87 -36 -146q0 -61 34 -92t107 -31q70 0 113 28.5t43 76.5q0 82 -50 242l155 46q33 -118 40 -168q38 -8 73 -8h11v-178h-17q-41 0 -69 6q-23 -107 -106.5 -164.5
t-220.5 -57.5z" />
    <glyph glyph-name="uniFEE7" unicode="&#x646;" horiz-adv-x="303" arabic-form="initial" 
d="M71 648l108 -93l-88 -100l-108 89zM0 0q-15 0 -25.5 26t-10.5 63t10.5 63t25.5 26h8q65 0 109 10q-4 113 -29 219l145 31q20 -92 20 -199q0 -117 -24 -189q-37 -20 -100 -35t-124 -15h-5z" />
    <glyph glyph-name="uniFEE8" unicode="&#x646;" horiz-adv-x="390" arabic-form="medial" 
d="M88 620l108 -93l-88 -100l-108 89zM0 0q-15 0 -25.5 26t-10.5 63t10.5 63t25.5 26h15q67 0 89 14.5t22 40.5v146l148 10v-138q0 -37 -4 -62q49 -11 114 -11h6v-178h-34q-101 0 -160 42q-57 -42 -164 -42h-32z" />
    <glyph glyph-name="uniFEE9" unicode="&#x647;" horiz-adv-x="511" arabic-form="isolated" 
d="M194 525q282 -111 282 -309q0 -98 -61 -161t-185 -63q-94 0 -144.5 49.5t-50.5 139.5q0 89 44 179t115 165zM249 168q38 0 66.5 11t28.5 28q0 29 -36.5 67t-87.5 66q-49 -58 -49 -107q0 -65 78 -65z" />
    <glyph glyph-name="uniFEEA" unicode="&#x647;" horiz-adv-x="568" arabic-form="final" 
d="M568 0h-63q-113 0 -149 77q-45 -6 -82 -6q-106 0 -167.5 42t-61.5 126q0 96 60 167.5t154.5 106t208.5 34.5v-296q0 -45 18.5 -59t69.5 -14h12v-178zM304 226q17 0 26 1v7v145q-71 -11 -114 -41t-43 -58q0 -23 34.5 -38.5t96.5 -15.5z" />
    <glyph glyph-name="uniFEEB" unicode="&#x647;" horiz-adv-x="672" arabic-form="initial" 
d="M193 287q0 -47 50 -78q36 21 54 44.5t18 41.5q0 58 -96 76q-26 -46 -26 -84zM479 127q13 0 13 13q0 77 -69 142q-9 -68 -54 -130q74 -25 110 -25zM498 -25q-140 0 -264 64q-84 -39 -206 -39h-28q-15 0 -25.5 26t-10.5 63t10.5 63t25.5 26h13q38 0 73 3q-15 36 -15 76
q0 141 130 285q112 -16 207 -65.5t154.5 -130.5t59.5 -176q0 -84 -29 -139.5t-95 -55.5z" />
    <glyph glyph-name="uniFEEC" unicode="&#x647;" horiz-adv-x="612" arabic-form="medial" 
d="M377 273q0 41 -67 98q-71 -87 -82 -187q149 29 149 89zM367 -73q16 0 34 3q-8 79 -61 133q-46 -23 -98 -37q34 -99 125 -99zM493 -202q-46 -25 -130 -25q-98 0 -166 64t-92 171q-46 -8 -87 -8h-18q-15 0 -25.5 26t-10.5 63t10.5 63t25.5 26h21q44 0 76 4
q12 113 63.5 211.5t129.5 159.5q107 -45 162 -118.5t55 -156.5q0 -48 -31 -97q41 -3 102 -3h34v-178h-43q-38 0 -57 1q12 -37 12 -78q0 -67 -31 -125z" />
    <glyph glyph-name="uniFEED" unicode="&#x648;" horiz-adv-x="534" arabic-form="isolated" 
d="M288 178q25 0 55 5q-6 49 -33 92t-67 43q-34 0 -52 -22.5t-18 -52.5q0 -65 115 -65zM159 -204q-56 0 -111 15l12 146q33 -5 73 -5q86 0 140 28.5t63 58.5q-46 -20 -107 -20q-189 0 -189 197q0 111 61 186t151 75q99 0 165.5 -88.5t66.5 -234.5q0 -171 -83 -264.5
t-242 -93.5z" />
    <glyph glyph-name="uniFEEE" unicode="&#x648;" horiz-adv-x="533" arabic-form="final" 
d="M288 178h56q-3 30 -14.5 60.5t-35 55t-51.5 24.5q-34 0 -52 -22.5t-18 -52.5q0 -65 115 -65zM159 -204q-56 0 -111 15l12 146q33 -5 73 -5q75 0 125 22t70 50q-37 -5 -99 -5q-189 0 -189 197q0 109 61 185t151 76q95 0 160 -79.5t71 -219.5h50v-178h-71
q-65 -204 -303 -204z" />
    <glyph glyph-name="uniFEEF" unicode="&#x649;" horiz-adv-x="770" arabic-form="isolated" 
d="M342 -200q-145 0 -218.5 66t-73.5 190q0 114 63 237l120 -48q-31 -84 -31 -141q0 -68 40.5 -99t127.5 -31q135 0 191 58q-27 19 -63 36.5t-83.5 38.5t-78.5 37q-3 34 -3 63q0 83 23 145t63 96.5t85 50.5t96 16q40 0 80 -14.5t60 -33.5l-63 -155q-49 30 -108 30
q-36 0 -60 -16t-39 -62q65 -27 98 -42.5t76 -42t74 -57.5q-1 -82 -30 -144.5t-80.5 -101t-118.5 -57.5t-147 -19z" />
    <glyph glyph-name="uniFEF0" unicode="&#x649;" horiz-adv-x="716" arabic-form="final" 
d="M339 -211q-141 0 -215 63t-74 179q0 113 70 252l122 -48q-36 -99 -36 -156q0 -121 166 -121q134 0 181 57q-80 16 -153 42l31 155q140 -34 269 -34h16v-178h-14h-21q-20 -95 -108.5 -153t-233.5 -58z" />
    <glyph glyph-name="uniFEF1" unicode="&#x64a;" horiz-adv-x="770" arabic-form="isolated" 
d="M342 -200q-145 0 -218.5 66t-73.5 190q0 114 63 237l120 -48q-31 -84 -31 -141q0 -68 40.5 -99t127.5 -31q135 0 191 58q-27 19 -63 36.5t-83.5 38.5t-78.5 37q-3 34 -3 63q0 83 23 145t63 96.5t85 50.5t96 16q40 0 80 -14.5t60 -33.5l-63 -155q-49 30 -108 30
q-36 0 -60 -16t-39 -62q65 -27 98 -42.5t76 -42t74 -57.5q-1 -82 -30 -144.5t-80.5 -101t-118.5 -57.5t-147 -19zM447 -422l-83 68l-63 -71l-97 80l79 94l83 -71l63 74l98 -84z" />
    <glyph glyph-name="uniFEF2" unicode="&#x64a;" horiz-adv-x="716" arabic-form="final" 
d="M339 -211q-141 0 -215 63t-74 179q0 113 70 252l122 -48q-36 -99 -36 -156q0 -121 166 -121q134 0 181 57q-80 16 -153 42l31 155q140 -34 269 -34h16v-178h-14h-21q-20 -95 -108.5 -153t-233.5 -58zM437 -422l-83 68l-63 -71l-97 80l79 94l83 -71l63 74l98 -84z" />
    <glyph glyph-name="uniFEF3" unicode="&#x64a;" horiz-adv-x="303" arabic-form="initial" 
d="M0 0q-15 0 -25.5 26t-10.5 63t10.5 63t25.5 26h8q65 0 109 10q-4 113 -29 219l145 31q20 -92 20 -199q0 -117 -24 -189q-37 -20 -100 -35t-124 -15h-5zM171 -237l-83 68l-63 -71l-97 80l79 94l83 -71l63 74l98 -84z" />
    <glyph glyph-name="uniFEF4" unicode="&#x64a;" horiz-adv-x="390" arabic-form="medial" 
d="M0 0q-15 0 -25.5 26t-10.5 63t10.5 63t25.5 26h15q67 0 89 14.5t22 40.5v146l148 10v-138q0 -37 -4 -62q49 -11 114 -11h6v-178h-34q-101 0 -160 42q-57 -42 -164 -42h-32zM187 -237l-83 68l-63 -71l-97 80l79 94l83 -71l63 74l98 -84z" />
    <glyph glyph-name=".notdef" horiz-adv-x="756" 
d="M160 0v701h436v-701h-436zM241 625v-549h275v549h-275z" />
    <glyph glyph-name=".null" 
 />
    <glyph glyph-name=".null" 
 />
    <glyph glyph-name="nonmarkingreturn" horiz-adv-x="333" 
 />
    <glyph glyph-name="CR" unicode="&#xd;" 
 />
    <glyph glyph-name="space" unicode=" " horiz-adv-x="233" 
 />
    <glyph glyph-name="exclam" unicode="!" horiz-adv-x="335" 
d="M265 700v-146q0 -127 -33 -327h-130q-32 183 -32 327v146h195zM263 80q0 -43 -25 -67.5t-70 -24.5q-46 0 -71 24.5t-25 67.5t25 67t71 24q45 0 70 -24.5t25 -66.5z" />
    <glyph glyph-name="quotedbl" unicode="&#x22;" horiz-adv-x="446" 
d="M62 433q-22 208 -22 267h158q0 -40 -3.5 -85.5t-10 -99.5t-8.5 -82h-114zM270 433q-22 208 -22 267h158q0 -40 -3.5 -85.5t-10 -99.5t-8.5 -82h-114z" />
    <glyph glyph-name="numbersign" unicode="#" horiz-adv-x="704" 
d="M399 278l26 115h-121l-26 -115h121zM337 0l34 150h-121l-34 -150h-140l34 150h-80v128h108l26 115h-84v128h112l34 150h140l-34 -150h121l34 150h141l-34 -150h80v-128h-108l-26 -115h86v-128h-114l-34 -150h-141z" />
    <glyph glyph-name="dollar" unicode="$" horiz-adv-x="579" 
d="M374 -116h-155v106q-99 7 -174 34l26 148q105 -32 195 -32q54 0 76 13t22 46q0 27 -29 44t-106 38q-89 24 -134.5 72t-45.5 133q0 74 45 123t125 66v115h155v-111q63 -7 113 -25l-29 -144q-68 21 -149 21q-46 0 -65.5 -10t-19.5 -34q0 -23 24.5 -35.5t115.5 -39.5
q87 -26 131 -74t44 -136q0 -169 -165 -204v-114z" />
    <glyph glyph-name="percent" unicode="%" horiz-adv-x="886" 
d="M375 508q0 -84 -47 -130.5t-125 -46.5t-125.5 46.5t-47.5 130.5q0 82 48 128.5t125 46.5t124.5 -46.5t47.5 -128.5zM565 671h127l-371 -671h-127zM161 508q0 -70 42 -70q41 0 41 70q0 69 -41 69q-42 0 -42 -69zM856 165q0 -84 -47 -130.5t-125 -46.5t-125.5 46.5
t-47.5 130.5q0 82 48 128.5t125 46.5t124.5 -46.5t47.5 -128.5zM642 165q0 -70 42 -70q41 0 41 70q0 69 -41 69q-42 0 -42 -69z" />
    <glyph glyph-name="ampersand" unicode="&#x26;" horiz-adv-x="758" 
d="M278 520q0 -38 36 -82q68 35 68 85q0 51 -55 51q-49 0 -49 -54zM305 134q47 0 83 15l-120 117l-18 18q-40 -29 -40 -76q0 -34 27.5 -54t67.5 -20zM541 0l-45 43q-89 -55 -198 -55q-122 0 -192.5 56t-70.5 156q0 113 129 181q-48 67 -48 143q0 83 57.5 135.5t154.5 52.5
q96 0 152.5 -46.5t56.5 -121.5q0 -69 -35.5 -114.5t-103.5 -79.5l97 -97q26 52 36 128h158q-10 -133 -86 -236l145 -145h-207z" />
    <glyph glyph-name="quotesingle" unicode="'" horiz-adv-x="238" 
d="M62 433q-22 208 -22 267h158q0 -40 -3.5 -85.5t-10 -99.5t-8.5 -82h-114z" />
    <glyph glyph-name="parenleft" unicode="(" horiz-adv-x="354" 
d="M339 761q-59 -107 -92.5 -211.5t-33.5 -240.5t33.5 -241t92.5 -212h-166q-54 76 -93.5 194t-39.5 259t39 258.5t94 193.5h166z" />
    <glyph glyph-name="parenright" unicode=")" horiz-adv-x="354" 
d="M141 309q0 136 -33.5 240.5t-92.5 211.5h166q55 -76 94 -193.5t39 -258.5t-39.5 -259t-93.5 -194h-166q59 107 92.5 212t33.5 241z" />
    <glyph glyph-name="asterisk" unicode="*" horiz-adv-x="385" 
d="M244 409q-24 34 -53 81q-29 -50 -51 -80l-89 65q28 37 61 75q-56 13 -92 25l34 104q43 -14 88 -34q-5 53 -5 95h110q0 -42 -5 -95q45 19 90 35l33 -105q-49 -15 -95 -25q42 -47 63 -77z" />
    <glyph glyph-name="plus" unicode="+" horiz-adv-x="559" 
d="M519 268h-161v-172h-155v172h-163v146h163v168h155v-168h161v-146z" />
    <glyph glyph-name="comma" unicode="," horiz-adv-x="281" 
d="M69 156h163q0 -81 -32.5 -163.5t-75.5 -140.5h-89q31 153 34 304z" />
    <glyph glyph-name="hyphen" unicode="-" horiz-adv-x="367" 
d="M40 251v143h287v-143h-287z" />
    <glyph glyph-name="period" unicode="." horiz-adv-x="261" 
d="M226 80q0 -43 -25 -67.5t-70 -24.5q-46 0 -71 24.5t-25 67.5t25 67t71 24q45 0 70 -24.5t25 -66.5z" />
    <glyph glyph-name="slash" unicode="/" horiz-adv-x="527" 
d="M327 755h170l-297 -811h-170z" />
    <glyph glyph-name="zero" unicode="0" horiz-adv-x="626" 
d="M314 -12q-71 0 -125.5 27.5t-86 76t-47 109.5t-15.5 133t15.5 133.5t47 110.5t86 77t125.5 28q94 0 157 -49t89 -125t26 -175q0 -73 -15.5 -134t-47 -109.5t-85 -75.5t-124.5 -27zM314 136q30 0 50 17t29 48.5t12 62t3 70.5t-3 70.5t-12 63t-29 50t-50 17.5
q-96 0 -96 -201q0 -198 96 -198z" />
    <glyph glyph-name="one" unicode="1" horiz-adv-x="422" 
d="M362 0h-174v493q-53 -23 -113 -58l-70 132q86 60 203 104h154v-671z" />
    <glyph glyph-name="two" unicode="2" horiz-adv-x="537" 
d="M502 0h-465v142l94 88q89 83 124.5 132t35.5 99q0 74 -73 74q-58 0 -123 -47l-75 122q90 73 219 73q110 0 169 -54t59 -151q0 -86 -55.5 -167t-148.5 -164h239v-147z" />
    <glyph glyph-name="three" unicode="3" horiz-adv-x="517" 
d="M226 -12q-114 0 -195 43l43 135q63 -30 135 -30q97 0 97 72q0 38 -28.5 50.5t-88.5 12.5h-47v144h30q53 0 80 13.5t27 48.5q0 58 -83 58q-52 0 -107 -38l-69 123q87 63 208 63q108 0 167.5 -47.5t59.5 -128.5q0 -103 -90 -152q117 -47 117 -167q0 -98 -71 -149t-185 -51z
" />
    <glyph glyph-name="four" unicode="4" horiz-adv-x="624" 
d="M507 260h97v-142h-97v-118h-163v118h-324v128q54 112 139 230.5t173 208.5h175v-425zM354 513q-99 -137 -161 -253h151v37q0 99 10 216z" />
    <glyph glyph-name="five" unicode="5" horiz-adv-x="548" 
d="M233 -12q-116 0 -213 51l48 136q89 -39 163 -39q55 0 80.5 20t25.5 65q0 77 -132 77q-74 0 -150 -17l36 390h366v-147h-233l-8 -84q13 1 42 1q128 0 191.5 -57.5t63.5 -158.5q0 -113 -75 -175t-205 -62z" />
    <glyph glyph-name="six" unicode="6" horiz-adv-x="590" 
d="M560 227q0 -112 -65.5 -175.5t-183.5 -63.5q-124 0 -197.5 88.5t-73.5 225.5q0 108 32.5 192t106.5 136.5t180 52.5q85 0 136 -19l-33 -139q-46 12 -86 12q-68 0 -105.5 -33.5t-50.5 -102.5q60 37 135 37q95 0 150 -59t55 -152zM313 136q35 0 53.5 21t18.5 57
q0 76 -86 76q-37 0 -86 -21q5 -64 30.5 -98.5t69.5 -34.5z" />
    <glyph glyph-name="seven" unicode="7" horiz-adv-x="502" 
d="M252 0h-185q83 291 218 524h-260v147h447v-129q-157 -310 -220 -542z" />
    <glyph glyph-name="eight" unicode="8" horiz-adv-x="601" 
d="M297 -12q-113 0 -182.5 51t-69.5 143q0 99 83 152q-69 52 -69 146q0 91 66.5 147t173.5 56q122 0 182.5 -52.5t60.5 -135.5q0 -91 -74 -144q88 -58 88 -149q0 -100 -67.5 -157t-191.5 -57zM328 411q2 -1 5.5 -2t5.5 -1q31 33 31 76q0 65 -72 65q-30 0 -48 -16t-18 -43
q0 -31 20.5 -46.5t75.5 -32.5zM304 122q78 0 78 65q0 31 -25.5 48t-91.5 38q-1 1 -3 1t-3 1q-40 -32 -40 -79q0 -35 23 -54.5t62 -19.5z" />
    <glyph glyph-name="nine" unicode="9" horiz-adv-x="589" 
d="M287 370q47 0 90 16q-7 149 -96 149q-36 0 -57 -22t-21 -67q0 -36 21 -56t63 -20zM219 -12q-85 0 -147 22l24 142q57 -16 110 -16q73 0 110.5 26.5t50.5 84.5q-53 -25 -116 -25q-107 0 -164 60.5t-57 162.5q0 104 68.5 171t180.5 67q130 0 200 -84.5t70 -233.5
q0 -85 -16 -150.5t-52 -118t-102 -80.5t-160 -28z" />
    <glyph glyph-name="colon" unicode=":" horiz-adv-x="261" 
d="M226 422q0 -43 -25 -67.5t-70 -24.5q-46 0 -71 24.5t-25 67.5t25 67t71 24q45 0 70 -24.5t25 -66.5zM226 80q0 -43 -25 -67.5t-70 -24.5q-46 0 -71 24.5t-25 67.5t25 67t71 24q45 0 70 -24.5t25 -66.5z" />
    <glyph glyph-name="semicolon" unicode=";" horiz-adv-x="311" 
d="M251 426q0 -43 -25 -67.5t-70 -24.5q-46 0 -71 24.5t-25 67.5t25 67t71 24q45 0 70 -24.5t25 -66.5zM79 156h163q0 -81 -32.5 -163.5t-75.5 -140.5h-89q31 153 34 304z" />
    <glyph glyph-name="less" unicode="&#x3c;" horiz-adv-x="559" 
d="M519 92l-479 167v163l479 167v-168l-289 -80l289 -81v-168z" />
    <glyph glyph-name="equal" unicode="=" horiz-adv-x="559" 
d="M40 363v146h479v-146h-479zM40 173v146h479v-146h-479z" />
    <glyph glyph-name="greater" unicode="&#x3e;" horiz-adv-x="559" 
d="M40 92v168l289 81l-289 80v168l479 -167v-163z" />
    <glyph glyph-name="question" unicode="?" horiz-adv-x="462" 
d="M49 532l-34 145q79 35 168 35q124 0 189 -53.5t65 -147.5q0 -84 -64 -143q-12 -11 -36 -31t-36 -31.5t-23 -31.5t-11 -41v-6h-157v35q0 71 61 121l28 22.5t29.5 25t16.5 23.5t9 34q0 68 -90 68q-46 0 -115 -24zM191 171q45 0 70 -24.5t25 -66.5q0 -43 -25 -67.5
t-70 -24.5q-46 0 -71 24.5t-25 67.5t25 67t71 24z" />
    <glyph glyph-name="at" unicode="@" horiz-adv-x="968" 
d="M494 -245q-218 0 -338.5 115.5t-120.5 314.5q0 92 30 173.5t86 145.5t145.5 101.5t200.5 37.5q203 0 319.5 -105t116.5 -267q0 -130 -56.5 -206.5t-164.5 -76.5q-89 0 -135 56q-49 -56 -127 -56q-83 0 -130 53.5t-47 145.5q0 102 61 164t164 62q91 0 188 -34l-22 -198
q-8 -69 57 -69q33 0 49 45t16 113q0 117 -78 179t-216 62q-141 0 -225.5 -88t-84.5 -236q0 -80 24.5 -139t69 -93.5t100 -51t122.5 -16.5q101 0 210 30l19 -123q-107 -39 -233 -39zM485 113q22 0 47 9q-8 36 -2 88l9 75q-17 3 -36 3q-39 0 -62 -25.5t-23 -74.5
q0 -34 17.5 -54.5t49.5 -20.5z" />
    <glyph glyph-name="A" unicode="A" horiz-adv-x="677" 
d="M338 511q-29 -63 -75 -232h150q-46 169 -75 232zM484 0l-32 129h-228l-32 -129h-182q48 185 112 379.5t124 320.5h184q60 -127 125 -322t112 -378h-183z" />
    <glyph glyph-name="B" unicode="B" horiz-adv-x="606" 
d="M322 0h-262v700h244q117 0 184.5 -48t67.5 -134q0 -88 -69 -139q94 -51 94 -165q0 -102 -69 -158t-190 -56zM232 550v-129h82q67 0 67 68q0 30 -21 45.5t-54 15.5h-74zM232 289v-139h75q99 0 99 66q0 73 -99 73h-75z" />
    <glyph glyph-name="C" unicode="C" horiz-adv-x="580" 
d="M370 -12q-159 0 -247 97t-88 262q0 168 89.5 266.5t255.5 98.5q83 0 168 -36l-39 -150q-83 30 -127 30q-85 0 -124.5 -52t-39.5 -156q0 -103 38.5 -153.5t121.5 -50.5q70 0 143 40l34 -152q-80 -44 -185 -44z" />
    <glyph glyph-name="D" unicode="D" horiz-adv-x="693" 
d="M307 550h-70v-400h70q88 0 130.5 49.5t42.5 153.5q0 101 -42.5 149t-130.5 48zM60 0v700h252q157 0 254 -93t97 -254q0 -164 -97 -258.5t-254 -94.5h-252z" />
    <glyph glyph-name="E" unicode="E" horiz-adv-x="550" 
d="M510 150v-150h-450v700h450v-150h-273v-122h232v-150h-232v-128h273z" />
    <glyph glyph-name="F" unicode="F" horiz-adv-x="535" 
d="M237 0h-177v700h440v-150h-263v-153h222v-150h-222v-247z" />
    <glyph glyph-name="G" unicode="G" horiz-adv-x="657" 
d="M612 48q-111 -60 -233 -60q-160 0 -252 96t-92 256q0 169 97 270.5t263 101.5q108 0 188 -34l-38 -148q-68 26 -147 26q-180 0 -180 -216q0 -96 43.5 -146t126.5 -50q36 0 64 6v117h-98v145h258v-364z" />
    <glyph glyph-name="H" unicode="H" horiz-adv-x="704" 
d="M467 0v279h-230v-279h-177v700h177v-271h230v271h177v-700h-177z" />
    <glyph glyph-name="I" unicode="I" horiz-adv-x="297" 
d="M60 0v700h177v-700h-177z" />
    <glyph glyph-name="J" unicode="J" horiz-adv-x="297" 
d="M10 -187l-91 133q85 51 113 106.5t28 171.5v476h177v-468q0 -114 -26.5 -193t-73.5 -129.5t-127 -96.5z" />
    <glyph glyph-name="K" unicode="K" horiz-adv-x="657" 
d="M457 0l-163 255q-27 -17 -57 -33v-222h-177v700h177v-300q165 113 205 300h177q-45 -202 -196 -346l235 -354h-201z" />
    <glyph glyph-name="L" unicode="L" horiz-adv-x="527" 
d="M60 0v700h177v-550h260v-150h-437z" />
    <glyph glyph-name="M" unicode="M" horiz-adv-x="882" 
d="M640 700h182v-700h-162v270q0 70 9 139q-74 -152 -159 -281h-136q-92 140 -161 283q9 -65 9 -141v-270h-162v700h182q94 -229 200 -394q100 156 198 394z" />
    <glyph glyph-name="N" unicode="N" horiz-adv-x="713" 
d="M222 0h-162v700h171q108 -223 264 -453q-4 37 -4 84v369h162v-700h-172l-87.5 121.5t-80.5 120.5t-95 160q4 -41 4 -123v-279z" />
    <glyph glyph-name="O" unicode="O" horiz-adv-x="723" 
d="M688 350q0 -164 -88 -263t-238 -99q-151 0 -239 98.5t-88 263.5t88 263.5t239 98.5q150 0 238 -99t88 -263zM218 350q0 -100 37 -153t107 -53q69 0 106 53t37 153t-37 153t-106 53q-70 0 -107 -53t-37 -153z" />
    <glyph glyph-name="P" unicode="P" horiz-adv-x="608" 
d="M290 550h-53v-195h53q53 0 79 22.5t26 74.5q0 53 -26 75.5t-79 22.5zM294 205h-57v-205h-177v700h234q132 0 208 -66t76 -182t-76 -181.5t-208 -65.5z" />
    <glyph glyph-name="Q" unicode="Q" horiz-adv-x="723" 
d="M587 -160q-85 0 -144 38t-84 110q-149 1 -236.5 99.5t-87.5 262.5q0 165 88 263.5t239 98.5q150 0 238 -99t88 -263q0 -115 -44.5 -200t-125.5 -127q25 -34 76 -34q36 0 59 5l12 -148q-38 -6 -78 -6zM218 350q0 -100 37 -153t107 -53q69 0 106 53t37 153t-37 153t-106 53
q-70 0 -107 -53t-37 -153z" />
    <glyph glyph-name="R" unicode="R" horiz-adv-x="628" 
d="M276 550h-38v-158h38q107 0 107 79q0 44 -26.5 61.5t-80.5 17.5zM265 243h-27v-243h-178v700h224q131 0 206 -56.5t75 -156.5q0 -82 -33.5 -124t-89.5 -63q50 -20 81 -94l87 -206h-188l-82 194q-20 49 -75 49z" />
    <glyph glyph-name="S" unicode="S" horiz-adv-x="533" 
d="M30 30l32 149q94 -38 181 -38q91 0 91 58q0 33 -23.5 49t-91.5 40q-92 32 -140 80.5t-48 132.5q0 100 64 155.5t185 55.5q115 0 197 -39l-34 -146q-77 32 -153 32q-80 0 -80 -52q0 -29 19.5 -44t76.5 -36q51 -18 83.5 -35t63.5 -43t45.5 -62.5t14.5 -86.5
q0 -99 -70.5 -155.5t-191.5 -56.5q-130 0 -221 42z" />
    <glyph glyph-name="T" unicode="T" horiz-adv-x="563" 
d="M543 550h-173v-550h-177v550h-173v150h523v-150z" />
    <glyph glyph-name="U" unicode="U" horiz-adv-x="686" 
d="M55 282v418h177v-405q0 -151 111 -151t111 151v405h177v-418q0 -139 -75 -216.5t-213 -77.5t-213 77.5t-75 216.5z" />
    <glyph glyph-name="V" unicode="V" horiz-adv-x="674" 
d="M437 0h-200q-68 139 -131 333.5t-96 366.5h183q31 -150 72 -302.5t72 -228.5q31 76 72 228.5t72 302.5h183q-33 -172 -96 -366.5t-131 -333.5z" />
    <glyph glyph-name="W" unicode="W" horiz-adv-x="1004" 
d="M703 168q25 80 57 236.5t49 295.5h180q-25 -180 -74.5 -377t-106.5 -323h-194q-60 159 -112 369q-52 -210 -112 -369h-194q-55 130 -106 330t-75 370h180q17 -139 49 -295.5t57 -236.5q33 91 70.5 243.5t53.5 288.5h155q16 -137 53 -290t70 -242z" />
    <glyph glyph-name="X" unicode="X" horiz-adv-x="669" 
d="M468 0l-163 250q-66 -105 -119 -250h-186q65 171 222 377l-211 323h201l144 -220q76 115 111 220h186q-66 -168 -216 -345l232 -355h-201z" />
    <glyph glyph-name="Y" unicode="Y" horiz-adv-x="634" 
d="M405 0h-177v273q-173 262 -228 427h181q50 -142 136 -282q86 140 136 282h181q-57 -171 -229 -428v-272z" />
    <glyph glyph-name="Z" unicode="Z" horiz-adv-x="567" 
d="M517 568q-92 -209 -268 -418h293v-150h-507v135q208 238 297 415h-286v150h471v-132z" />
    <glyph glyph-name="bracketleft" unicode="[" horiz-adv-x="350" 
d="M60 -144v905h265v-146h-98v-613h98v-146h-265z" />
    <glyph glyph-name="backslash" unicode="\" horiz-adv-x="527" 
d="M327 -56l-297 811h170l297 -811h-170z" />
    <glyph glyph-name="bracketright" unicode="]" horiz-adv-x="350" 
d="M25 -144v146h98v613h-98v146h265v-905h-265z" />
    <glyph glyph-name="asciicircum" unicode="^" horiz-adv-x="569" 
d="M359 332l-74 180l-75 -180h-170l162 368h165l162 -368h-170z" />
    <glyph glyph-name="underscore" unicode="_" horiz-adv-x="526" 
d="M20 -146v126h486v-126h-486z" />
    <glyph glyph-name="grave" unicode="`" horiz-adv-x="500" 
d="M195 566l-123 174h183l88 -174h-148z" />
    <glyph glyph-name="a" unicode="a" horiz-adv-x="517" 
d="M467 30q-91 -42 -229 -42q-103 0 -158 45t-55 117q0 71 55 115t148 44q42 0 74 -5v8q0 75 -87 75q-74 0 -132 -23l-29 132q79 31 181 31q115 0 173.5 -59t58.5 -167v-271zM256 108q29 0 46 7v85q-27 6 -50 6q-26 0 -42.5 -12.5t-16.5 -36.5q0 -49 63 -49z" />
    <glyph glyph-name="b" unicode="b" horiz-adv-x="578" 
d="M548 263q0 -127 -74 -201t-200 -74q-150 0 -219 38v690l170 8v-200q21 3 56 3q121 0 194 -71t73 -193zM225 134q18 -6 41 -6q109 0 109 129q0 64 -25.5 97t-83.5 33q-14 0 -41 -5v-248z" />
    <glyph glyph-name="c" unicode="c" horiz-adv-x="469" 
d="M290 527q87 0 154 -31l-31 -133q-57 24 -108 24q-48 0 -75 -33t-27 -92q0 -134 108 -134q52 0 106 24l26 -136q-58 -28 -147 -28q-125 0 -195.5 73t-70.5 196t69.5 196.5t190.5 73.5z" />
    <glyph glyph-name="d" unicode="d" horiz-adv-x="578" 
d="M523 28q-96 -40 -211 -40q-133 0 -207.5 70.5t-74.5 189.5q0 125 77 202t200 77q23 0 46 -3v192l170 8v-696zM203 257q0 -129 108 -129q25 0 42 7v247q-22 5 -36 5q-114 0 -114 -130z" />
    <glyph glyph-name="e" unicode="e" horiz-adv-x="539" 
d="M286 392q-66 0 -80 -80h141v8q0 34 -17 53t-44 19zM484 22q-75 -34 -178 -34q-123 0 -199.5 74t-76.5 196q0 121 71.5 195t184.5 74q98 0 160.5 -64t62.5 -168q0 -43 -4 -83h-295q20 -82 115 -82q64 0 133 27z" />
    <glyph glyph-name="f" unicode="f" horiz-adv-x="389" 
d="M80 0v380h-65v135h65v3q0 99 51.5 157t145.5 58q53 0 112 -13l-26 -132q-27 5 -52 5q-61 0 -61 -71v-7h108v-135h-108v-380h-170z" />
    <glyph glyph-name="g" unicode="g" horiz-adv-x="578" 
d="M203 277q0 -52 26 -81.5t74 -29.5q24 0 50 8v207q-23 6 -42 6q-51 0 -79.5 -30.5t-28.5 -79.5zM250 -189q-103 0 -182 32l35 134q58 -26 136 -26q52 0 83 20t31 59v6q-36 -12 -79 -12q-114 0 -179 63t-65 175q0 121 77.5 193t202.5 72q109 0 213 -41v-437
q0 -111 -73 -174.5t-200 -63.5z" />
    <glyph glyph-name="h" unicode="h" horiz-adv-x="582" 
d="M225 0h-170v718l170 8v-211q32 12 83 12q101 0 162.5 -56t61.5 -160v-311h-170v297q0 88 -83 88q-29 0 -54 -10v-375z" />
    <glyph glyph-name="i" unicode="i" horiz-adv-x="280" 
d="M140 564q-45 0 -70.5 25t-25.5 67t25.5 66.5t70.5 24.5t70 -24.5t25 -66.5t-25 -67t-70 -25zM225 515v-515h-170v515h170z" />
    <glyph glyph-name="j" unicode="j" horiz-adv-x="280" 
d="M235 656q0 -42 -25 -67t-70 -25t-70.5 25t-25.5 67t25.5 66.5t70.5 24.5t70 -24.5t25 -66.5zM225 156q0 -138 -54 -216t-171 -127l-69 136q46 23 70 44t39 62.5t15 107.5v352h170v-359z" />
    <glyph glyph-name="k" unicode="k" horiz-adv-x="555" 
d="M371 0l-97 179l-49 -33v-146h-170v716l170 8v-413q100 76 121 204h170q0 -120 -120 -237l159 -278h-184z" />
    <glyph glyph-name="l" unicode="l" horiz-adv-x="320" 
d="M220 726v-521q0 -77 48 -77q14 0 30 3l12 -134q-41 -9 -83 -9q-177 0 -177 215v513z" />
    <glyph glyph-name="m" unicode="m" horiz-adv-x="870" 
d="M225 377v-377h-170v486q106 41 235 41q87 0 140 -37q81 37 156 37q111 0 172.5 -55.5t61.5 -160.5v-311h-170v299q0 48 -17 68t-56 20q-38 0 -68 -15q11 -44 11 -97v-275h-165v299q0 47 -17.5 67.5t-56.5 20.5q-26 0 -56 -10z" />
    <glyph glyph-name="n" unicode="n" horiz-adv-x="582" 
d="M225 0h-170v486q105 41 233 41q116 0 180 -55.5t64 -160.5v-311h-170v299q0 88 -76 88q-33 0 -61 -10v-377z" />
    <glyph glyph-name="o" unicode="o" horiz-adv-x="579" 
d="M549 258q0 -123 -70 -196.5t-189 -73.5t-189.5 73.5t-70.5 196.5q0 122 70.5 195.5t189.5 73.5t189 -73.5t70 -195.5zM203 258q0 -61 23 -95.5t64 -34.5t63.5 34.5t22.5 95.5t-23 95t-63 34q-41 0 -64 -34t-23 -95z" />
    <glyph glyph-name="p" unicode="p" horiz-adv-x="578" 
d="M225 382v-247q21 -7 43 -7q56 0 81.5 31.5t25.5 97.5q0 130 -112 130q-11 0 -38 -5zM273 527q126 0 200.5 -70.5t74.5 -194.5q0 -123 -70 -197.5t-184 -74.5q-43 0 -69 8v-186h-170v674q103 41 218 41z" />
    <glyph glyph-name="q" unicode="q" horiz-adv-x="578" 
d="M523 -188h-170v188q-39 -12 -78 -12q-113 0 -179 70.5t-66 189.5q0 127 74 203t200 76q116 0 219 -41v-674zM203 257q0 -62 28 -95.5t83 -33.5q18 0 39 7v247q-27 5 -39 5q-55 0 -83 -34t-28 -96z" />
    <glyph glyph-name="r" unicode="r" horiz-adv-x="381" 
d="M55 486q89 41 210 41q70 0 106 -12l-24 -138q-27 10 -67 10q-32 0 -55 -9v-378h-170v486z" />
    <glyph glyph-name="s" unicode="s" horiz-adv-x="444" 
d="M407 496l-17 -138q-95 29 -145 29q-52 0 -52 -22q0 -13 13 -20t57 -19q93 -24 132 -61t39 -107q0 -83 -60.5 -126.5t-161.5 -43.5q-106 0 -187 35l22 138q81 -33 162 -33q59 0 59 26q0 17 -15.5 24.5t-78.5 24.5q-75 19 -111 56.5t-36 101.5q0 79 54 122.5t150 43.5
q95 0 176 -31z" />
    <glyph glyph-name="t" unicode="t" horiz-adv-x="379" 
d="M364 -4q-40 -8 -94 -8q-195 0 -195 215v177h-65v135h65v107l170 8v-115h99v-135h-99v-175q0 -77 61 -77q29 0 49 4z" />
    <glyph glyph-name="u" unicode="u" horiz-adv-x="581" 
d="M526 29q-116 -41 -234 -41q-132 0 -187 59.5t-55 171.5v296h170v-297q0 -90 77 -90q32 0 59 10v377h170v-486z" />
    <glyph glyph-name="v" unicode="v" horiz-adv-x="549" 
d="M20 515h172q6 -220 83 -380q79 162 83 380h171q-13 -158 -46.5 -267.5t-112.5 -247.5h-190q-84 140 -118.5 250t-41.5 265z" />
    <glyph glyph-name="w" unicode="w" horiz-adv-x="813" 
d="M335 0h-163q-84 131 -113 237.5t-39 277.5h168q7 -231 76 -385q59 115 68 273q-7 47 -10 112h158q6 -220 69 -385q73 153 76 385h168q-12 -161 -43 -270.5t-109 -244.5h-169q-47 91 -71 150q-27 -79 -66 -150z" />
    <glyph glyph-name="x" unicode="x" horiz-adv-x="538" 
d="M341 0q-18 59 -97 166q-55 -98 -66 -166h-164q31 145 145 270q-58 64 -92.5 118.5t-53.5 126.5h184q10 -52 84 -155q50 93 54 155h173q-39 -155 -139 -260q114 -127 156 -255h-184z" />
    <glyph glyph-name="y" unicode="y" horiz-adv-x="521" 
d="M376 58q-125 -220 -312 -245l-25 144q41 4 87.5 28t64.5 54q-86 111 -127.5 220.5t-48.5 255.5h172q0 -197 92 -349q32 74 44.5 149t12.5 200h170q-11 -246 -130 -457z" />
    <glyph glyph-name="z" unicode="z" horiz-adv-x="468" 
d="M30 0v114q153 153 215 266h-207v135h389v-114q-82 -155 -188 -266h204v-135h-413z" />
    <glyph glyph-name="braceleft" unicode="{" horiz-adv-x="373" 
d="M265 -144q-79 0 -123.5 48t-44.5 125q0 27 5 74t5 63q0 41 -19 58t-68 17v140q49 0 68 17t19 58q0 16 -5 63t-5 74q0 77 45 125t125 48q49 0 81 -6v-128h-26q-35 0 -49 -16t-14 -49q0 -17 5 -60t5 -59q0 -104 -92 -137q92 -33 92 -137q0 -16 -5 -59t-5 -60q0 -33 14 -49
t49 -16h26v-128q-32 -6 -83 -6z" />
    <glyph glyph-name="bar" unicode="|" horiz-adv-x="292" 
d="M60 -244v1025h172v-1025h-172z" />
    <glyph glyph-name="braceright" unicode="}" horiz-adv-x="373" 
d="M108 -144q-51 0 -83 6v128h26q35 0 49 16t14 49q0 17 -5 60t-5 59q0 104 92 137q-92 33 -92 137q0 16 5 59t5 60q0 33 -14 49t-49 16h-26v128q32 6 81 6q80 0 125 -48t45 -125q0 -27 -5 -74t-5 -63q0 -41 19 -58t68 -17v-140q-49 0 -68 -17t-19 -58q0 -16 5 -63t5 -74
q0 -77 -44.5 -125t-123.5 -48z" />
    <glyph glyph-name="asciitilde" unicode="~" horiz-adv-x="559" 
d="M178 440q39 0 92.5 -20t87.5 -20q51 0 68 43l93 -60q-7 -69 -42 -106t-88 -37q-47 0 -100.5 21t-87.5 21q-46 0 -67 -36l-94 66q12 59 48.5 93.5t89.5 34.5z" />
    <glyph glyph-name="uni00A0" unicode="&#xa0;" horiz-adv-x="235" 
 />
    <glyph glyph-name="exclamdown" unicode="&#xa1;" horiz-adv-x="335" 
d="M72 435q0 43 25 67.5t70 24.5q46 0 71 -24.5t25 -67.5t-25 -67t-71 -24q-45 0 -70 24.5t-25 66.5zM70 -185v146q0 127 33 327h130q32 -183 32 -327v-146h-195z" />
    <glyph glyph-name="cent" unicode="&#xa2;" horiz-adv-x="489" 
d="M458 11q-36 -16 -99 -21v-105h-155v117q-81 25 -125 92t-44 163q0 97 44 164t123 92v114h155v-103q62 -6 102 -23l-31 -133q-52 19 -102 19q-118 0 -118 -125q0 -134 117 -134q58 0 107 19z" />
    <glyph glyph-name="sterling" unicode="&#xa3;" horiz-adv-x="566" 
d="M107 0v272h-87v140h87v30q0 112 58.5 176.5t169.5 64.5q110 0 189 -35l-45 -137q-60 20 -119 20q-44 0 -63 -21.5t-19 -67.5v-30h134v-140h-134v-124h253v-148h-424z" />
    <glyph glyph-name="currency" unicode="&#xa4;" horiz-adv-x="676" 
d="M540 64l-81 77q-56 -27 -121 -27q-68 0 -122 27l-80 -77l-96 100l78 75q-25 50 -25 113q0 65 26 115l-79 76l96 100l83 -80q54 26 119 26t119 -26l83 80l96 -100l-80 -77q25 -50 25 -114q0 -61 -24 -112l79 -76zM230 352q0 -51 29 -81.5t79 -30.5t78 30.5t28 81.5t-28 81
t-78 30t-79 -30t-29 -81z" />
    <glyph glyph-name="yen" unicode="&#xa5;" horiz-adv-x="683" 
d="M623 132h-196v-132h-171v132h-196v120h196v35l-21 31h-175v120h100q-63 109 -120 233h180q50 -132 122 -248q72 118 121 248h180q-60 -132 -119 -233h99v-120h-174l-22 -32v-34h196v-120z" />
    <glyph glyph-name="brokenbar" unicode="&#xa6;" horiz-adv-x="292" 
d="M60 341v440h172v-440h-172zM60 -244v441h172v-441h-172z" />
    <glyph glyph-name="section" unicode="&#xa7;" horiz-adv-x="603" 
d="M340 192l22 -9q26 26 26 59q0 28 -23 44t-102 47l-22 9q-26 -26 -26 -59q0 -28 23 -44t102 -47zM280 -187q-111 0 -191 37l30 138q77 -24 149 -24q70 0 70 31q0 19 -19 31t-82 36q-103 37 -152.5 81.5t-49.5 120.5q0 102 86 153q-36 42 -36 108q0 91 67 139t171 48
q111 0 191 -37l-30 -138q-77 24 -149 24q-70 0 -70 -31q0 -19 19 -31t82 -36q103 -37 152.5 -81.5t49.5 -120.5q0 -102 -86 -153q36 -42 36 -108q0 -91 -67 -139t-171 -48z" />
    <glyph glyph-name="dieresis" unicode="&#xa8;" horiz-adv-x="500" 
d="M448 645q0 -39 -23.5 -61.5t-65.5 -22.5q-41 0 -65 23t-24 61t24.5 61t64.5 23q42 0 65.5 -23t23.5 -61zM230 645q0 -38 -24.5 -61t-65.5 -23q-42 0 -65.5 22.5t-23.5 61.5q0 38 23.5 61t65.5 23q40 0 65 -23t25 -61z" />
    <glyph glyph-name="copyright" unicode="&#xa9;" horiz-adv-x="818" 
d="M788 350q0 -166 -103.5 -264t-274.5 -98t-275.5 98.5t-104.5 263.5q0 166 104 264t275 98t275 -98.5t104 -263.5zM141 350q0 -121 70.5 -192.5t197.5 -71.5t197.5 71.5t70.5 192.5q0 119 -70.5 191.5t-197.5 72.5q-125 0 -196.5 -72.5t-71.5 -191.5zM236 353
q0 92 52 138.5t133 46.5q50 0 96 -17l-18 -99q-40 10 -64 10q-80 0 -80 -79t80 -79q30 0 64 9l17 -99q-47 -16 -95 -16q-82 0 -133.5 47t-51.5 138z" />
    <glyph glyph-name="ordfeminine" unicode="&#xaa;" horiz-adv-x="340" 
d="M170 429q15 0 30 3v51q-15 3 -29 3q-37 0 -37 -29q0 -28 36 -28zM300 383q-66 -32 -144 -32q-57 0 -90.5 26.5t-33.5 73.5q0 48 32 74.5t84 26.5q35 0 52 -4v1q0 24 -12.5 34.5t-45.5 10.5q-36 0 -75 -12l-21 85q46 16 100 16q154 0 154 -126v-174z" />
    <glyph glyph-name="guillemotleft" unicode="&#xab;" horiz-adv-x="702" 
d="M467 66q-102 113 -155 225q53 112 155 225h205q-90 -97 -167 -225q77 -128 167 -225h-205zM175 66q-102 113 -155 225q53 112 155 225h205q-90 -97 -167 -225q77 -128 167 -225h-205z" />
    <glyph glyph-name="logicalnot" unicode="&#xac;" horiz-adv-x="559" 
d="M519 136h-155v172h-324v146h479v-318z" />
    <glyph glyph-name="registered" unicode="&#xae;" horiz-adv-x="546" 
d="M30 473q0 110 66 174.5t177 64.5t177 -64.5t66 -174.5t-66 -174t-177 -64q-112 0 -177.5 64t-65.5 174zM454 473q0 89 -47 136.5t-134 47.5t-133.5 -47.5t-46.5 -136.5q0 -90 46.5 -137t133.5 -47t134 47t47 137zM272 550h-29v-64h29q21 0 31 6.5t10 25.5q0 32 -41 32z
M316 355q-32 39 -52 82h-21v-82h-60v246h89q47 0 72 -22t25 -61q0 -53 -46 -73q19 -35 63 -90h-70z" />
    <glyph glyph-name="macron" unicode="&#xaf;" horiz-adv-x="500" 
d="M80 583v129h336v-129h-336z" />
    <glyph glyph-name="degree" unicode="&#xb0;" horiz-adv-x="356" 
d="M30 570q0 64 41 103t107 39t107 -39t41 -103q0 -66 -41 -105t-107 -39t-107 39t-41 105zM178 619q-20 0 -32 -13t-12 -36q0 -49 44 -49q43 0 43 49t-43 49z" />
    <glyph glyph-name="plusminus" unicode="&#xb1;" horiz-adv-x="559" 
d="M519 318h-161v-122h-155v122h-163v146h163v118h155v-118h161v-146zM40 10v146h479v-146h-479z" />
    <glyph glyph-name="twosuperior" unicode="&#xb2;" horiz-adv-x="365" 
d="M332 358h-280v92l46 35q56 42 70.5 57t14.5 34q0 28 -37 28q-27 0 -57 -22l-47 91q52 39 144 39q57 0 96 -28t39 -79q0 -40 -24 -74t-74 -74h109v-99z" />
    <glyph glyph-name="threesuperior" unicode="&#xb3;" horiz-adv-x="365" 
d="M164 350q-72 0 -115 17l23 95q39 -12 74 -12q47 0 47 23q0 24 -42 24h-35v70h18q23 0 33.5 4.5t10.5 20.5q0 21 -39 21q-29 0 -60 -14l-34 89q53 24 117 24q149 0 149 -91q0 -55 -50 -82q65 -23 65 -80t-45.5 -83t-116.5 -26z" />
    <glyph glyph-name="acute" unicode="&#xb4;" horiz-adv-x="500" 
d="M203 740h183l-123 -174h-148z" />
    <glyph glyph-name="paragraph" unicode="&#xb6;" horiz-adv-x="608" 
d="M253 700h295v-700h-115v604h-65v-604h-115v291q-96 0 -159.5 52.5t-63.5 150.5t63.5 152t159.5 54z" />
    <glyph glyph-name="periodcentered" unicode="&#xb7;" horiz-adv-x="500" 
d="M35 394q0 43 25 67t71 24q45 0 70 -24.5t25 -66.5q0 -43 -25 -67.5t-70 -24.5q-46 0 -71 24.5t-25 67.5z" />
    <glyph glyph-name="cedilla" unicode="&#xb8;" horiz-adv-x="500" 
d="M216 -245q-46 0 -79 10l19 89q22 -6 46 -6q44 0 44 26q0 28 -49 28l-17 46l18 52h97l-17 -39q98 -14 98 -91q0 -58 -46 -86.5t-114 -28.5z" />
    <glyph glyph-name="onesuperior" unicode="&#xb9;" horiz-adv-x="365" 
d="M283 358h-133v222q-44 -24 -65 -38l-51 98q60 39 125 64h124v-346z" />
    <glyph glyph-name="ordmasculine" unicode="&#xba;" horiz-adv-x="372" 
d="M347 519q0 -74 -43.5 -121t-116.5 -47t-117.5 47t-44.5 121q0 72 44.5 118t117.5 46t116.5 -46t43.5 -118zM140 519q0 -76 47 -76q45 0 45 76q0 75 -45 75q-47 0 -47 -75z" />
    <glyph glyph-name="guillemotright" unicode="&#xbb;" horiz-adv-x="702" 
d="M235 66h-205q90 97 167 225q-77 128 -167 225h205q102 -113 155 -225q-53 -112 -155 -225zM527 66h-205q90 97 167 225q-77 128 -167 225h205q102 -113 155 -225q-53 -112 -155 -225z" />
    <glyph glyph-name="onequarter" unicode="&#xbc;" horiz-adv-x="842" 
d="M283 358h-133v222q-44 -24 -65 -38l-51 98q60 39 125 64h124v-346zM572 700h135l-397 -700h-135zM677 143q2 69 5 100q-43 -50 -76 -100h71zM832 53h-39v-53h-116v53h-179v76q62 114 176 217h119v-203h39v-90z" />
    <glyph glyph-name="onehalf" unicode="&#xbd;" horiz-adv-x="842" 
d="M283 358h-133v222q-44 -24 -65 -38l-51 98q60 39 125 64h124v-346zM543 700h135l-397 -700h-135zM809 0h-280v92l46 35q56 42 70.5 57t14.5 34q0 28 -37 28q-27 0 -57 -22l-47 91q52 39 144 39q57 0 96 -28t39 -79q0 -40 -24 -74t-74 -74h109v-99z" />
    <glyph glyph-name="threequarters" unicode="&#xbe;" horiz-adv-x="842" 
d="M574 700h135l-397 -700h-135zM164 350q-72 0 -115 17l23 95q39 -12 74 -12q47 0 47 23q0 24 -42 24h-35v70h18q23 0 33.5 4.5t10.5 20.5q0 21 -39 21q-29 0 -60 -14l-34 89q53 24 117 24q149 0 149 -91q0 -55 -50 -82q65 -23 65 -80t-45.5 -83t-116.5 -26zM677 143
q2 69 5 100q-43 -50 -76 -100h71zM832 53h-39v-53h-116v53h-179v76q62 114 176 217h119v-203h39v-90z" />
    <glyph glyph-name="questiondown" unicode="&#xbf;" horiz-adv-x="462" 
d="M271 344q-45 0 -70 24.5t-25 66.5q0 43 25 67.5t70 24.5q46 0 71 -24.5t25 -67.5t-25 -67t-71 -24zM447 -162q-79 -35 -168 -35q-124 0 -189 53.5t-65 147.5q0 84 64 143q12 11 36 31t36 31.5t23 31.5t11 41v6h157v-35q0 -71 -61 -121l-28 -22.5t-29.5 -25t-16.5 -23.5
t-9 -34q0 -68 90 -68q46 0 115 24z" />
    <glyph glyph-name="Agrave" unicode="&#xc0;" horiz-adv-x="677" 
d="M270 746l-123 174h183l88 -174h-148zM338 511q-29 -63 -75 -232h150q-46 169 -75 232zM484 0l-32 129h-228l-32 -129h-182q48 185 112 379.5t124 320.5h184q60 -127 125 -322t112 -378h-183z" />
    <glyph glyph-name="Aacute" unicode="&#xc1;" horiz-adv-x="677" 
d="M350 920h183l-123 -174h-148zM338 511q-29 -63 -75 -232h150q-46 169 -75 232zM484 0l-32 129h-228l-32 -129h-182q48 185 112 379.5t124 320.5h184q60 -127 125 -322t112 -378h-183z" />
    <glyph glyph-name="Acircumflex" unicode="&#xc2;" horiz-adv-x="677" 
d="M386 746l-48 73l-48 -73h-163l127 174h168l127 -174h-163zM338 511q-29 -63 -75 -232h150q-46 169 -75 232zM484 0l-32 129h-228l-32 -129h-182q48 185 112 379.5t124 320.5h184q60 -127 125 -322t112 -378h-183z" />
    <glyph glyph-name="Atilde" unicode="&#xc3;" horiz-adv-x="677" 
d="M263 908q31 0 69.5 -14.5t55.5 -14.5q27 0 27 38h110q0 -65 -27 -113.5t-79 -48.5q-29 0 -68.5 15t-57.5 15q-31 0 -33 -34h-110q2 75 31 116t82 41zM338 511q-29 -63 -75 -232h150q-46 169 -75 232zM484 0l-32 129h-228l-32 -129h-182q48 185 112 379.5t124 320.5h184
q60 -127 125 -322t112 -378h-183z" />
    <glyph glyph-name="Adieresis" unicode="&#xc4;" horiz-adv-x="677" 
d="M535 825q0 -39 -23.5 -61.5t-65.5 -22.5q-41 0 -65 23t-24 61t24.5 61t64.5 23q42 0 65.5 -23t23.5 -61zM317 825q0 -38 -24.5 -61t-65.5 -23q-42 0 -65.5 22.5t-23.5 61.5q0 38 23.5 61t65.5 23q40 0 65 -23t25 -61zM338 511q-29 -63 -75 -232h150q-46 169 -75 232z
M484 0l-32 129h-228l-32 -129h-182q48 185 112 379.5t124 320.5h184q60 -127 125 -322t112 -378h-183z" />
    <glyph glyph-name="Aring" unicode="&#xc5;" horiz-adv-x="677" 
d="M338 846q-18 0 -28 -11.5t-10 -29.5t10 -29.5t28 -11.5q38 0 38 41t-38 41zM338 511q-29 -63 -75 -232h150q-46 169 -75 232zM484 0l-32 129h-228l-32 -129h-182q48 185 112 379.5t124 320.5q-47 39 -47 105q0 60 39 98t100 38t100 -38t39 -98q0 -66 -47 -105
q60 -127 125 -322t112 -378h-183z" />
    <glyph glyph-name="AE" unicode="&#xc6;" horiz-adv-x="932" 
d="M452 279v256q-85 -151 -139 -256h139zM452 0v129h-211q-29 -65 -54 -129h-182q66 176 168.5 364.5t205.5 335.5h513v-150h-263v-122h222v-150h-222v-128h263v-150h-440z" />
    <glyph glyph-name="Ccedilla" unicode="&#xc7;" horiz-adv-x="580" 
d="M306 -245q-46 0 -79 10l19 89q22 -6 46 -6q44 0 44 26q0 28 -49 28l-17 46l17 48q-121 25 -186.5 117.5t-65.5 233.5q0 168 89.5 266.5t255.5 98.5q83 0 168 -36l-39 -150q-83 30 -127 30q-85 0 -124.5 -52t-39.5 -156q0 -103 38.5 -153.5t121.5 -50.5q70 0 143 40
l34 -152q-74 -41 -175 -44l-12 -27q98 -14 98 -91q0 -58 -46 -86.5t-114 -28.5z" />
    <glyph glyph-name="Egrave" unicode="&#xc8;" horiz-adv-x="550" 
d="M222 746l-123 174h183l88 -174h-148zM510 150v-150h-450v700h450v-150h-273v-122h232v-150h-232v-128h273z" />
    <glyph glyph-name="Eacute" unicode="&#xc9;" horiz-adv-x="550" 
d="M302 920h183l-123 -174h-148zM510 150v-150h-450v700h450v-150h-273v-122h232v-150h-232v-128h273z" />
    <glyph glyph-name="Ecircumflex" unicode="&#xca;" horiz-adv-x="550" 
d="M338 746l-48 73l-48 -73h-163l127 174h168l127 -174h-163zM510 150v-150h-450v700h450v-150h-273v-122h232v-150h-232v-128h273z" />
    <glyph glyph-name="Edieresis" unicode="&#xcb;" horiz-adv-x="550" 
d="M487 825q0 -39 -23.5 -61.5t-65.5 -22.5q-41 0 -65 23t-24 61t24.5 61t64.5 23q42 0 65.5 -23t23.5 -61zM269 825q0 -38 -24.5 -61t-65.5 -23q-42 0 -65.5 22.5t-23.5 61.5q0 38 23.5 61t65.5 23q40 0 65 -23t25 -61zM510 150v-150h-450v700h450v-150h-273v-122h232v-150
h-232v-128h273z" />
    <glyph glyph-name="Igrave" unicode="&#xcc;" horiz-adv-x="297" 
d="M81 746l-123 174h183l88 -174h-148zM60 0v700h177v-700h-177z" />
    <glyph glyph-name="Iacute" unicode="&#xcd;" horiz-adv-x="297" 
d="M161 920h183l-123 -174h-148zM60 0v700h177v-700h-177z" />
    <glyph glyph-name="Icircumflex" unicode="&#xce;" horiz-adv-x="297" 
d="M197 746l-48 73l-48 -73h-163l127 174h168l127 -174h-163zM60 0v700h177v-700h-177z" />
    <glyph glyph-name="Idieresis" unicode="&#xcf;" horiz-adv-x="297" 
d="M346 825q0 -39 -23.5 -61.5t-65.5 -22.5q-41 0 -65 23t-24 61t24.5 61t64.5 23q42 0 65.5 -23t23.5 -61zM128 825q0 -38 -24.5 -61t-65.5 -23q-42 0 -65.5 22.5t-23.5 61.5q0 38 23.5 61t65.5 23q40 0 65 -23t25 -61zM60 0v700h177v-700h-177z" />
    <glyph glyph-name="Eth" unicode="&#xd0;" horiz-adv-x="703" 
d="M357 282h-110v-132h70q88 0 130.5 49.5t42.5 153.5q0 101 -42.5 149t-130.5 48h-70v-118h110v-150zM70 0v282h-70v150h70v268h252q157 0 254 -93t97 -254q0 -164 -97 -258.5t-254 -94.5h-252z" />
    <glyph glyph-name="Ntilde" unicode="&#xd1;" horiz-adv-x="713" 
d="M290 908q31 0 69.5 -14.5t55.5 -14.5q27 0 27 38h110q0 -65 -27 -113.5t-79 -48.5q-29 0 -68.5 15t-57.5 15q-31 0 -33 -34h-110q2 75 31 116t82 41zM222 0h-162v700h171q108 -223 264 -453q-4 37 -4 84v369h162v-700h-172l-87.5 121.5t-80.5 120.5t-95 160q4 -41 4 -123
v-279z" />
    <glyph glyph-name="Ograve" unicode="&#xd2;" horiz-adv-x="723" 
d="M294 746l-123 174h183l88 -174h-148zM688 350q0 -164 -88 -263t-238 -99q-151 0 -239 98.5t-88 263.5t88 263.5t239 98.5q150 0 238 -99t88 -263zM218 350q0 -100 37 -153t107 -53q69 0 106 53t37 153t-37 153t-106 53q-70 0 -107 -53t-37 -153z" />
    <glyph glyph-name="Oacute" unicode="&#xd3;" horiz-adv-x="723" 
d="M374 920h183l-123 -174h-148zM688 350q0 -164 -88 -263t-238 -99q-151 0 -239 98.5t-88 263.5t88 263.5t239 98.5q150 0 238 -99t88 -263zM218 350q0 -100 37 -153t107 -53q69 0 106 53t37 153t-37 153t-106 53q-70 0 -107 -53t-37 -153z" />
    <glyph glyph-name="Ocircumflex" unicode="&#xd4;" horiz-adv-x="723" 
d="M410 746l-48 73l-48 -73h-163l127 174h168l127 -174h-163zM688 350q0 -164 -88 -263t-238 -99q-151 0 -239 98.5t-88 263.5t88 263.5t239 98.5q150 0 238 -99t88 -263zM218 350q0 -100 37 -153t107 -53q69 0 106 53t37 153t-37 153t-106 53q-70 0 -107 -53t-37 -153z" />
    <glyph glyph-name="Otilde" unicode="&#xd5;" horiz-adv-x="723" 
d="M287 908q31 0 69.5 -14.5t55.5 -14.5q27 0 27 38h110q0 -65 -27 -113.5t-79 -48.5q-29 0 -68.5 15t-57.5 15q-31 0 -33 -34h-110q2 75 31 116t82 41zM688 350q0 -164 -88 -263t-238 -99q-151 0 -239 98.5t-88 263.5t88 263.5t239 98.5q150 0 238 -99t88 -263zM218 350
q0 -100 37 -153t107 -53q69 0 106 53t37 153t-37 153t-106 53q-70 0 -107 -53t-37 -153z" />
    <glyph glyph-name="Odieresis" unicode="&#xd6;" horiz-adv-x="723" 
d="M559 825q0 -39 -23.5 -61.5t-65.5 -22.5q-41 0 -65 23t-24 61t24.5 61t64.5 23q42 0 65.5 -23t23.5 -61zM341 825q0 -38 -24.5 -61t-65.5 -23q-42 0 -65.5 22.5t-23.5 61.5q0 38 23.5 61t65.5 23q40 0 65 -23t25 -61zM688 350q0 -164 -88 -263t-238 -99q-151 0 -239 98.5
t-88 263.5t88 263.5t239 98.5q150 0 238 -99t88 -263zM218 350q0 -100 37 -153t107 -53q69 0 106 53t37 153t-37 153t-106 53q-70 0 -107 -53t-37 -153z" />
    <glyph glyph-name="multiply" unicode="&#xd7;" horiz-adv-x="559" 
d="M411 106l-131 132l-132 -132l-104 103l132 132l-132 132l104 103l132 -131l131 131l104 -103l-132 -132l132 -132z" />
    <glyph glyph-name="Oslash" unicode="&#xd8;" horiz-adv-x="723" 
d="M362 -12q-97 0 -171 43l-23 -31h-137l78 104q-74 96 -74 246q0 165 88 263.5t239 98.5q98 0 170 -43l24 31h137l-78 -105q73 -96 73 -245q0 -164 -88 -263t-238 -99zM218 350q0 -50 9 -88l206 275q-30 19 -71 19q-70 0 -107 -53t-37 -153zM362 144q69 0 106 53t37 153
q0 50 -9 87l-206 -274q29 -19 72 -19z" />
    <glyph glyph-name="Ugrave" unicode="&#xd9;" horiz-adv-x="686" 
d="M276 746l-123 174h183l88 -174h-148zM55 282v418h177v-405q0 -151 111 -151t111 151v405h177v-418q0 -139 -75 -216.5t-213 -77.5t-213 77.5t-75 216.5z" />
    <glyph glyph-name="Uacute" unicode="&#xda;" horiz-adv-x="686" 
d="M356 920h183l-123 -174h-148zM55 282v418h177v-405q0 -151 111 -151t111 151v405h177v-418q0 -139 -75 -216.5t-213 -77.5t-213 77.5t-75 216.5z" />
    <glyph glyph-name="Ucircumflex" unicode="&#xdb;" horiz-adv-x="686" 
d="M392 746l-48 73l-48 -73h-163l127 174h168l127 -174h-163zM55 282v418h177v-405q0 -151 111 -151t111 151v405h177v-418q0 -139 -75 -216.5t-213 -77.5t-213 77.5t-75 216.5z" />
    <glyph glyph-name="Udieresis" unicode="&#xdc;" horiz-adv-x="686" 
d="M541 825q0 -39 -23.5 -61.5t-65.5 -22.5q-41 0 -65 23t-24 61t24.5 61t64.5 23q42 0 65.5 -23t23.5 -61zM323 825q0 -38 -24.5 -61t-65.5 -23q-42 0 -65.5 22.5t-23.5 61.5q0 38 23.5 61t65.5 23q40 0 65 -23t25 -61zM55 282v418h177v-405q0 -151 111 -151t111 151v405
h177v-418q0 -139 -75 -216.5t-213 -77.5t-213 77.5t-75 216.5z" />
    <glyph glyph-name="Yacute" unicode="&#xdd;" horiz-adv-x="634" 
d="M333 920h183l-123 -174h-148zM405 0h-177v273q-173 262 -228 427h181q50 -142 136 -282q86 140 136 282h181q-57 -171 -229 -428v-272z" />
    <glyph glyph-name="Thorn" unicode="&#xde;" horiz-adv-x="613" 
d="M290 450h-53v-195h53q53 0 79 22.5t26 74.5q0 53 -26 75.5t-79 22.5zM294 105h-57v-105h-177v700h177v-100h57q132 0 208 -66t76 -182t-76 -181.5t-208 -65.5z" />
    <glyph glyph-name="germandbls" unicode="&#xdf;" horiz-adv-x="615" 
d="M50 0v495q0 104 63.5 171t177.5 67q107 0 169.5 -48t62.5 -122q0 -46 -15.5 -77.5t-30.5 -52.5t-15 -41q0 -19 21.5 -39.5t47.5 -38.5t47.5 -53t21.5 -79q0 -88 -65 -141t-184 -53q-37 0 -85 8l17 137q34 -6 59 -6q84 0 84 59q0 20 -13.5 37.5t-33 32.5l-39 31.5t-33 42
t-13.5 56.5q0 42 28.5 87.5t28.5 66.5q0 26 -15.5 39.5t-42.5 13.5q-41 0 -57 -25t-16 -73v-495h-170z" />
    <glyph glyph-name="agrave" unicode="&#xe0;" horiz-adv-x="517" 
d="M180 566l-123 174h183l88 -174h-148zM467 30q-91 -42 -229 -42q-103 0 -158 45t-55 117q0 71 55 115t148 44q42 0 74 -5v8q0 75 -87 75q-74 0 -132 -23l-29 132q79 31 181 31q115 0 173.5 -59t58.5 -167v-271zM256 108q29 0 46 7v85q-27 6 -50 6q-26 0 -42.5 -12.5
t-16.5 -36.5q0 -49 63 -49z" />
    <glyph glyph-name="aacute" unicode="&#xe1;" horiz-adv-x="517" 
d="M260 740h183l-123 -174h-148zM467 30q-91 -42 -229 -42q-103 0 -158 45t-55 117q0 71 55 115t148 44q42 0 74 -5v8q0 75 -87 75q-74 0 -132 -23l-29 132q79 31 181 31q115 0 173.5 -59t58.5 -167v-271zM256 108q29 0 46 7v85q-27 6 -50 6q-26 0 -42.5 -12.5t-16.5 -36.5
q0 -49 63 -49z" />
    <glyph glyph-name="acircumflex" unicode="&#xe2;" horiz-adv-x="517" 
d="M296 566l-48 73l-48 -73h-163l127 174h168l127 -174h-163zM467 30q-91 -42 -229 -42q-103 0 -158 45t-55 117q0 71 55 115t148 44q42 0 74 -5v8q0 75 -87 75q-74 0 -132 -23l-29 132q79 31 181 31q115 0 173.5 -59t58.5 -167v-271zM256 108q29 0 46 7v85q-27 6 -50 6
q-26 0 -42.5 -12.5t-16.5 -36.5q0 -49 63 -49z" />
    <glyph glyph-name="atilde" unicode="&#xe3;" horiz-adv-x="517" 
d="M173 728q31 0 69.5 -14.5t55.5 -14.5q27 0 27 38h110q0 -65 -27 -113.5t-79 -48.5q-29 0 -68.5 15t-57.5 15q-31 0 -33 -34h-110q2 75 31 116t82 41zM467 30q-91 -42 -229 -42q-103 0 -158 45t-55 117q0 71 55 115t148 44q42 0 74 -5v8q0 75 -87 75q-74 0 -132 -23
l-29 132q79 31 181 31q115 0 173.5 -59t58.5 -167v-271zM256 108q29 0 46 7v85q-27 6 -50 6q-26 0 -42.5 -12.5t-16.5 -36.5q0 -49 63 -49z" />
    <glyph glyph-name="adieresis" unicode="&#xe4;" horiz-adv-x="517" 
d="M445 645q0 -39 -23.5 -61.5t-65.5 -22.5q-41 0 -65 23t-24 61t24.5 61t64.5 23q42 0 65.5 -23t23.5 -61zM227 645q0 -38 -24.5 -61t-65.5 -23q-42 0 -65.5 22.5t-23.5 61.5q0 38 23.5 61t65.5 23q40 0 65 -23t25 -61zM467 30q-91 -42 -229 -42q-103 0 -158 45t-55 117
q0 71 55 115t148 44q42 0 74 -5v8q0 75 -87 75q-74 0 -132 -23l-29 132q79 31 181 31q115 0 173.5 -59t58.5 -167v-271zM256 108q29 0 46 7v85q-27 6 -50 6q-26 0 -42.5 -12.5t-16.5 -36.5q0 -49 63 -49z" />
    <glyph glyph-name="aring" unicode="&#xe5;" horiz-adv-x="517" 
d="M109 699q0 60 39 98t100 38t100 -38t39 -98t-39 -98t-100 -38t-100 38t-39 98zM286 699q0 41 -38 41q-18 0 -28 -11.5t-10 -29.5t10 -29.5t28 -11.5q38 0 38 41zM467 30q-91 -42 -229 -42q-103 0 -158 45t-55 117q0 71 55 115t148 44q42 0 74 -5v8q0 75 -87 75
q-74 0 -132 -23l-29 132q79 31 181 31q115 0 173.5 -59t58.5 -167v-271zM256 108q29 0 46 7v85q-27 6 -50 6q-26 0 -42.5 -12.5t-16.5 -36.5q0 -49 63 -49z" />
    <glyph glyph-name="ae" unicode="&#xe6;" horiz-adv-x="802" 
d="M549 392q-66 0 -80 -80h141v7q0 35 -16.5 54t-44.5 19zM747 22q-75 -34 -178 -34q-86 0 -158 46q-85 -46 -162 -46q-108 0 -166 43t-58 119q0 72 54 115.5t147 43.5q18 0 76 -5v8q0 75 -87 75q-73 0 -135 -23l-29 132q95 31 184 31q98 0 160 -60q66 60 154 60
q98 0 160.5 -64t62.5 -168q0 -43 -4 -83h-295q20 -82 115 -82q64 0 133 27zM256 108q35 0 74 17q-17 33 -25 76q-47 5 -53 5q-26 0 -42.5 -12.5t-16.5 -36.5q0 -49 63 -49z" />
    <glyph glyph-name="ccedilla" unicode="&#xe7;" horiz-adv-x="469" 
d="M244 -245q-46 0 -79 10l19 89q22 -6 46 -6q44 0 44 26q0 28 -49 28l-17 46l16 47q-92 20 -143 89.5t-51 172.5q0 123 69.5 196.5t190.5 73.5q87 0 154 -31l-31 -133q-57 24 -108 24q-48 0 -75 -33t-27 -92q0 -134 108 -134q52 0 106 24l26 -136q-50 -24 -125 -27l-12 -28
q98 -14 98 -91q0 -58 -46 -86.5t-114 -28.5z" />
    <glyph glyph-name="egrave" unicode="&#xe8;" horiz-adv-x="539" 
d="M214 566l-123 174h183l88 -174h-148zM286 392q-66 0 -80 -80h141v8q0 34 -17 53t-44 19zM484 22q-75 -34 -178 -34q-123 0 -199.5 74t-76.5 196q0 121 71.5 195t184.5 74q98 0 160.5 -64t62.5 -168q0 -43 -4 -83h-295q20 -82 115 -82q64 0 133 27z" />
    <glyph glyph-name="eacute" unicode="&#xe9;" horiz-adv-x="539" 
d="M294 740h183l-123 -174h-148zM286 392q-66 0 -80 -80h141v8q0 34 -17 53t-44 19zM484 22q-75 -34 -178 -34q-123 0 -199.5 74t-76.5 196q0 121 71.5 195t184.5 74q98 0 160.5 -64t62.5 -168q0 -43 -4 -83h-295q20 -82 115 -82q64 0 133 27z" />
    <glyph glyph-name="ecircumflex" unicode="&#xea;" horiz-adv-x="539" 
d="M330 566l-48 73l-48 -73h-163l127 174h168l127 -174h-163zM286 392q-66 0 -80 -80h141v8q0 34 -17 53t-44 19zM484 22q-75 -34 -178 -34q-123 0 -199.5 74t-76.5 196q0 121 71.5 195t184.5 74q98 0 160.5 -64t62.5 -168q0 -43 -4 -83h-295q20 -82 115 -82q64 0 133 27z
" />
    <glyph glyph-name="edieresis" unicode="&#xeb;" horiz-adv-x="539" 
d="M479 645q0 -39 -23.5 -61.5t-65.5 -22.5q-41 0 -65 23t-24 61t24.5 61t64.5 23q42 0 65.5 -23t23.5 -61zM261 645q0 -38 -24.5 -61t-65.5 -23q-42 0 -65.5 22.5t-23.5 61.5q0 38 23.5 61t65.5 23q40 0 65 -23t25 -61zM286 392q-66 0 -80 -80h141v8q0 34 -17 53t-44 19z
M484 22q-75 -34 -178 -34q-123 0 -199.5 74t-76.5 196q0 121 71.5 195t184.5 74q98 0 160.5 -64t62.5 -168q0 -43 -4 -83h-295q20 -82 115 -82q64 0 133 27z" />
    <glyph glyph-name="igrave" unicode="&#xec;" horiz-adv-x="280" 
d="M75 566l-123 174h183l88 -174h-148zM55 515h170v-515h-170v515z" />
    <glyph glyph-name="iacute" unicode="&#xed;" horiz-adv-x="280" 
d="M155 740h183l-123 -174h-148zM55 515h170v-515h-170v515z" />
    <glyph glyph-name="icircumflex" unicode="&#xee;" horiz-adv-x="280" 
d="M191 566l-48 73l-48 -73h-163l127 174h168l127 -174h-163zM55 515h170v-515h-170v515z" />
    <glyph glyph-name="idieresis" unicode="&#xef;" horiz-adv-x="280" 
d="M340 645q0 -39 -23.5 -61.5t-65.5 -22.5q-41 0 -65 23t-24 61t24.5 61t64.5 23q42 0 65.5 -23t23.5 -61zM122 645q0 -38 -24.5 -61t-65.5 -23q-42 0 -65.5 22.5t-23.5 61.5q0 38 23.5 61t65.5 23q40 0 65 -23t25 -61zM55 515h170v-515h-170v515z" />
    <glyph glyph-name="eth" unicode="&#xf0;" horiz-adv-x="556" 
d="M265 -12q-107 0 -173.5 65.5t-66.5 168.5q0 96 57.5 159t159.5 63q57 0 103 -28q-28 72 -89 118l-70 -67l-54 57l52 49q-40 17 -86 24l39 127q86 -13 155 -47l66 63l54 -57l-50 -48q81 -59 122.5 -146t41.5 -190q0 -143 -66.5 -227t-194.5 -84zM264 128q53 0 77.5 40
t24.5 128v1q-40 17 -87 17q-44 0 -66.5 -25.5t-22.5 -66.5q0 -39 20 -66.5t54 -27.5z" />
    <glyph glyph-name="ntilde" unicode="&#xf1;" horiz-adv-x="582" 
d="M218 728q31 0 69.5 -14.5t55.5 -14.5q27 0 27 38h110q0 -65 -27 -113.5t-79 -48.5q-29 0 -68.5 15t-57.5 15q-31 0 -33 -34h-110q2 75 31 116t82 41zM225 0h-170v486q105 41 233 41q116 0 180 -55.5t64 -160.5v-311h-170v299q0 88 -76 88q-33 0 -61 -10v-377z" />
    <glyph glyph-name="ograve" unicode="&#xf2;" horiz-adv-x="579" 
d="M222 566l-123 174h183l88 -174h-148zM549 258q0 -123 -70 -196.5t-189 -73.5t-189.5 73.5t-70.5 196.5q0 122 70.5 195.5t189.5 73.5t189 -73.5t70 -195.5zM203 258q0 -61 23 -95.5t64 -34.5t63.5 34.5t22.5 95.5t-23 95t-63 34q-41 0 -64 -34t-23 -95z" />
    <glyph glyph-name="oacute" unicode="&#xf3;" horiz-adv-x="579" 
d="M302 740h183l-123 -174h-148zM549 258q0 -123 -70 -196.5t-189 -73.5t-189.5 73.5t-70.5 196.5q0 122 70.5 195.5t189.5 73.5t189 -73.5t70 -195.5zM203 258q0 -61 23 -95.5t64 -34.5t63.5 34.5t22.5 95.5t-23 95t-63 34q-41 0 -64 -34t-23 -95z" />
    <glyph glyph-name="ocircumflex" unicode="&#xf4;" horiz-adv-x="579" 
d="M338 566l-48 73l-48 -73h-163l127 174h168l127 -174h-163zM549 258q0 -123 -70 -196.5t-189 -73.5t-189.5 73.5t-70.5 196.5q0 122 70.5 195.5t189.5 73.5t189 -73.5t70 -195.5zM203 258q0 -61 23 -95.5t64 -34.5t63.5 34.5t22.5 95.5t-23 95t-63 34q-41 0 -64 -34
t-23 -95z" />
    <glyph glyph-name="otilde" unicode="&#xf5;" horiz-adv-x="579" 
d="M215 728q31 0 69.5 -14.5t55.5 -14.5q27 0 27 38h110q0 -65 -27 -113.5t-79 -48.5q-29 0 -68.5 15t-57.5 15q-31 0 -33 -34h-110q2 75 31 116t82 41zM549 258q0 -123 -70 -196.5t-189 -73.5t-189.5 73.5t-70.5 196.5q0 122 70.5 195.5t189.5 73.5t189 -73.5t70 -195.5z
M203 258q0 -61 23 -95.5t64 -34.5t63.5 34.5t22.5 95.5t-23 95t-63 34q-41 0 -64 -34t-23 -95z" />
    <glyph glyph-name="odieresis" unicode="&#xf6;" horiz-adv-x="579" 
d="M487 645q0 -39 -23.5 -61.5t-65.5 -22.5q-41 0 -65 23t-24 61t24.5 61t64.5 23q42 0 65.5 -23t23.5 -61zM269 645q0 -38 -24.5 -61t-65.5 -23q-42 0 -65.5 22.5t-23.5 61.5q0 38 23.5 61t65.5 23q40 0 65 -23t25 -61zM549 258q0 -123 -70 -196.5t-189 -73.5t-189.5 73.5
t-70.5 196.5q0 122 70.5 195.5t189.5 73.5t189 -73.5t70 -195.5zM203 258q0 -61 23 -95.5t64 -34.5t63.5 34.5t22.5 95.5t-23 95t-63 34q-41 0 -64 -34t-23 -95z" />
    <glyph glyph-name="divide" unicode="&#xf7;" horiz-adv-x="559" 
d="M192 538q0 38 23.5 60.5t64.5 22.5t64 -22.5t23 -60.5q0 -39 -23 -61.5t-64 -22.5q-42 0 -65 22.5t-23 61.5zM40 268v146h479v-146h-479zM192 144q0 38 23.5 60.5t64.5 22.5t64 -22.5t23 -60.5q0 -39 -23 -61.5t-64 -22.5q-42 0 -65 22.5t-23 61.5z" />
    <glyph glyph-name="oslash" unicode="&#xf8;" horiz-adv-x="579" 
d="M290 -12q-76 0 -136 33l-17 -21h-107l59 74q-59 71 -59 184q0 122 70.5 195.5t189.5 73.5q79 0 136 -33l16 21h107l-59 -74q59 -71 59 -183q0 -123 -70 -196.5t-189 -73.5zM203 258q0 -22 3 -38l125 156q-19 11 -41 11q-41 0 -64 -34t-23 -95zM290 128q41 0 63.5 34.5
t22.5 95.5q0 20 -3 37l-124 -155q18 -12 41 -12z" />
    <glyph glyph-name="ugrave" unicode="&#xf9;" horiz-adv-x="581" 
d="M219 566l-123 174h183l88 -174h-148zM526 29q-116 -41 -234 -41q-132 0 -187 59.5t-55 171.5v296h170v-297q0 -90 77 -90q32 0 59 10v377h170v-486z" />
    <glyph glyph-name="uacute" unicode="&#xfa;" horiz-adv-x="581" 
d="M299 740h183l-123 -174h-148zM526 29q-116 -41 -234 -41q-132 0 -187 59.5t-55 171.5v296h170v-297q0 -90 77 -90q32 0 59 10v377h170v-486z" />
    <glyph glyph-name="ucircumflex" unicode="&#xfb;" horiz-adv-x="581" 
d="M335 566l-48 73l-48 -73h-163l127 174h168l127 -174h-163zM526 29q-116 -41 -234 -41q-132 0 -187 59.5t-55 171.5v296h170v-297q0 -90 77 -90q32 0 59 10v377h170v-486z" />
    <glyph glyph-name="udieresis" unicode="&#xfc;" horiz-adv-x="581" 
d="M484 645q0 -39 -23.5 -61.5t-65.5 -22.5q-41 0 -65 23t-24 61t24.5 61t64.5 23q42 0 65.5 -23t23.5 -61zM266 645q0 -38 -24.5 -61t-65.5 -23q-42 0 -65.5 22.5t-23.5 61.5q0 38 23.5 61t65.5 23q40 0 65 -23t25 -61zM526 29q-116 -41 -234 -41q-132 0 -187 59.5
t-55 171.5v296h170v-297q0 -90 77 -90q32 0 59 10v377h170v-486z" />
    <glyph glyph-name="yacute" unicode="&#xfd;" horiz-adv-x="521" 
d="M281 740h183l-123 -174h-148zM376 58q-125 -220 -312 -245l-25 144q41 4 87.5 28t64.5 54q-86 111 -127.5 220.5t-48.5 255.5h172q0 -197 92 -349q32 74 44.5 149t12.5 200h170q-11 -246 -130 -457z" />
    <glyph glyph-name="thorn" unicode="&#xfe;" horiz-adv-x="578" 
d="M225 135q21 -7 41 -7q109 0 109 129q0 64 -25.5 97t-83.5 33q-14 0 -41 -5v-247zM225 -188h-170v904l170 8v-200q21 3 56 3q121 0 194 -71t73 -193q0 -127 -74 -201t-200 -74q-17 0 -49 2v-178z" />
    <glyph glyph-name="ydieresis" unicode="&#xff;" horiz-adv-x="521" 
d="M466 645q0 -39 -23.5 -61.5t-65.5 -22.5q-41 0 -65 23t-24 61t24.5 61t64.5 23q42 0 65.5 -23t23.5 -61zM248 645q0 -38 -24.5 -61t-65.5 -23q-42 0 -65.5 22.5t-23.5 61.5q0 38 23.5 61t65.5 23q40 0 65 -23t25 -61zM376 58q-125 -220 -312 -245l-25 144q41 4 87.5 28
t64.5 54q-86 111 -127.5 220.5t-48.5 255.5h172q0 -197 92 -349q32 74 44.5 149t12.5 200h170q-11 -246 -130 -457z" />
    <glyph glyph-name="dotlessi" unicode="&#x131;" horiz-adv-x="280" 
d="M55 515h170v-515h-170v515z" />
    <glyph glyph-name="Lslash" unicode="&#x141;" horiz-adv-x="527" 
d="M60 0v242l-77 -31v144l77 31v314h177v-242l124 50v-144l-124 -50v-164h260v-150h-437z" />
    <glyph glyph-name="lslash" unicode="&#x142;" horiz-adv-x="320" 
d="M227 -12q-177 0 -177 215v95l-64 -25v129l64 25v289l170 10v-234l89 34v-129l-89 -34v-158q0 -77 48 -77q14 0 30 3l12 -134q-41 -9 -83 -9z" />
    <glyph glyph-name="OE" unicode="&#x152;" horiz-adv-x="990" 
d="M218 350q0 -100 37 -153t107 -53q69 0 106 53t37 153t-37 153t-106 53q-70 0 -107 -53t-37 -153zM505 0v36q-68 -48 -158 -48q-146 0 -229 98.5t-83 263.5t83 263.5t229 98.5q90 0 158 -48v36h445v-150h-273v-122h232v-150h-232v-128h273v-150h-445z" />
    <glyph glyph-name="oe" unicode="&#x153;" horiz-adv-x="879" 
d="M824 22q-75 -34 -171 -34q-105 0 -189 70q-73 -70 -179 -70q-118 0 -186.5 73.5t-68.5 196.5q0 122 69 195.5t187 73.5q99 0 175 -67q72 67 165 67q98 0 160.5 -64t62.5 -168q0 -43 -4 -83h-295q20 -82 115 -82q64 0 133 27zM626 392q-66 0 -80 -80h141v8q0 34 -17 53
t-44 19zM203 258q0 -61 23 -95.5t64 -34.5t63.5 34.5t22.5 95.5t-23 95t-63 34q-41 0 -64 -34t-23 -95z" />
    <glyph glyph-name="Scaron" unicode="&#x160;" horiz-adv-x="533" 
d="M198 746l-127 174h163l48 -73l48 73h163l-127 -174h-168zM30 30l32 149q94 -38 181 -38q91 0 91 58q0 33 -23.5 49t-91.5 40q-92 32 -140 80.5t-48 132.5q0 100 64 155.5t185 55.5q115 0 197 -39l-34 -146q-77 32 -153 32q-80 0 -80 -52q0 -29 19.5 -44t76.5 -36
q51 -18 83.5 -35t63.5 -43t45.5 -62.5t14.5 -86.5q0 -99 -70.5 -155.5t-191.5 -56.5q-130 0 -221 42z" />
    <glyph glyph-name="scaron" unicode="&#x161;" horiz-adv-x="444" 
d="M148 566l-127 174h163l48 -73l48 73h163l-127 -174h-168zM407 496l-17 -138q-95 29 -145 29q-52 0 -52 -22q0 -13 13 -20t57 -19q93 -24 132 -61t39 -107q0 -83 -60.5 -126.5t-161.5 -43.5q-106 0 -187 35l22 138q81 -33 162 -33q59 0 59 26q0 17 -15.5 24.5t-78.5 24.5
q-75 19 -111 56.5t-36 101.5q0 79 54 122.5t150 43.5q95 0 176 -31z" />
    <glyph glyph-name="Ydieresis" unicode="&#x178;" horiz-adv-x="634" 
d="M518 825q0 -39 -23.5 -61.5t-65.5 -22.5q-41 0 -65 23t-24 61t24.5 61t64.5 23q42 0 65.5 -23t23.5 -61zM300 825q0 -38 -24.5 -61t-65.5 -23q-42 0 -65.5 22.5t-23.5 61.5q0 38 23.5 61t65.5 23q40 0 65 -23t25 -61zM405 0h-177v273q-173 262 -228 427h181
q50 -142 136 -282q86 140 136 282h181q-57 -171 -229 -428v-272z" />
    <glyph glyph-name="Zcaron" unicode="&#x17d;" horiz-adv-x="567" 
d="M202 746l-127 174h163l48 -73l48 73h163l-127 -174h-168zM517 568q-92 -209 -268 -418h293v-150h-507v135q208 238 297 415h-286v150h471v-132z" />
    <glyph glyph-name="zcaron" unicode="&#x17e;" horiz-adv-x="468" 
d="M153 566l-127 174h163l48 -73l48 73h163l-127 -174h-168zM30 0v114q153 153 215 266h-207v135h389v-114q-82 -155 -188 -266h204v-135h-413z" />
    <glyph glyph-name="florin" unicode="&#x192;" horiz-adv-x="488" 
d="M112 -189q-53 0 -112 13l26 132q27 -5 52 -5q61 0 61 71v358h-65v135h65v3q0 99 51.5 157t145.5 58q53 0 112 -13l-26 -132q-27 5 -52 5q-61 0 -61 -71v-7h108v-135h-108v-354q0 -99 -51.5 -157t-145.5 -58z" />
    <glyph glyph-name="circumflex" unicode="&#x2c6;" horiz-adv-x="500" 
d="M289 566l-48 73l-48 -73h-163l127 174h168l127 -174h-163z" />
    <glyph glyph-name="caron" unicode="&#x2c7;" horiz-adv-x="500" 
d="M167 566l-127 174h163l48 -73l48 73h163l-127 -174h-168z" />
    <glyph glyph-name="breve" unicode="&#x2d8;" horiz-adv-x="500" 
d="M445 730q-26 -166 -194 -166t-194 166h141q4 -25 15.5 -38t37.5 -13q27 0 38 13t15 38h141z" />
    <glyph glyph-name="dotaccent" unicode="&#x2d9;" horiz-adv-x="500" 
d="M156 656q0 42 25.5 66.5t70.5 24.5t70 -24.5t25 -66.5t-25 -67t-70 -25t-70.5 25t-25.5 67z" />
    <glyph glyph-name="ring" unicode="&#x2da;" horiz-adv-x="500" 
d="M111 699q0 60 39 98t100 38t100 -38t39 -98t-39 -98t-100 -38t-100 38t-39 98zM288 699q0 41 -38 41q-18 0 -28 -11.5t-10 -29.5t10 -29.5t28 -11.5q38 0 38 41z" />
    <glyph glyph-name="ogonek" unicode="&#x2db;" horiz-adv-x="500" 
d="M360 -218q-42 -17 -97 -17q-64 0 -100.5 28.5t-36.5 80.5q0 39 24.5 77.5t56.5 63.5l149 -15q-42 -19 -66.5 -45t-24.5 -53q0 -31 37 -31q22 0 41 9z" />
    <glyph glyph-name="tilde" unicode="&#x2dc;" horiz-adv-x="500" 
d="M175 728q31 0 69.5 -14.5t55.5 -14.5q27 0 27 38h110q0 -65 -27 -113.5t-79 -48.5q-29 0 -68.5 15t-57.5 15q-31 0 -33 -34h-110q2 75 31 116t82 41z" />
    <glyph glyph-name="hungarumlaut" unicode="&#x2dd;" horiz-adv-x="500" 
d="M133 740h175l-123 -174h-140zM348 740h175l-123 -174h-140z" />
    <glyph glyph-name="pi" unicode="&#x3c0;" horiz-adv-x="637" 
d="M610 -3q-43 -9 -91 -9q-174 0 -174 184v208h-95v-380h-170v380h-60v135h587v-135h-92v-203q0 -28 13 -38t40 -10q20 0 42 5v-137z" />
    <glyph glyph-name="uni0601" unicode="&#x601;" horiz-adv-x="197" 
d="M-466 -210q-106 0 -191 11.5t-141 32t-87.5 38t-61.5 40.5q-34 -63 -76 -95.5t-109 -32.5q-38 0 -69 16t-51 39t-36 46.5t-32.5 39.5t-33.5 16q-29 0 -64 -17t-54 -31t-65 -51v167q60 48 119 77.5t99 29.5q31 0 56.5 -25.5t41.5 -55.5t43 -55.5t60 -25.5q48 0 83 38.5
t72 113.5q7 -4 35.5 -25t62 -38.5t89 -37.5t144 -31.5t199.5 -11.5q149 0 292 27.5t293.5 69t234.5 56.5v-158q-74 -12 -181.5 -42.5l-195 -56.5t-217 -47t-259.5 -21z" />
    <glyph glyph-name="uni060C" unicode="&#x60c;" horiz-adv-x="252" 
d="M198 -23h-163q0 81 32.5 163.5t75.5 140.5h89q-31 -153 -34 -304z" />
    <glyph glyph-name="uni060D" unicode="&#x60d;" horiz-adv-x="550" 
d="M55 -41l302 694l138 -59l-303 -696z" />
    <glyph glyph-name="uni060E" unicode="&#x60e;" horiz-adv-x="990" 
d="M522 0q-472 0 -472 275q0 126 64.5 205.5t192.5 79.5q131 0 207.5 -84t76.5 -230q0 -38 -6 -78q215 8 380 67v-174q-168 -61 -443 -61zM190 301q0 -50 65.5 -87.5t196.5 -44.5q1 13 1 39q0 94 -45.5 138.5t-107.5 44.5q-55 0 -82.5 -27t-27.5 -63z" />
    <glyph glyph-name="uni0615" unicode="&#x615;" 
d="M130 788q62 0 108 11q-5 55 -52 55q-43 0 -86 -66h30zM121 715q-52 0 -116 6v70q3 0 13 -0.5t17 -0.5q8 22 8 65v145l64 7v-71q0 -38 -8 -70q40 57 98 57q44 0 71.5 -28.5t27.5 -75.5q0 -42 -15 -78q-46 -26 -160 -26z" />
    <glyph glyph-name="uni061B" unicode="&#x61b;" horiz-adv-x="261" 
d="M207 342h-163q0 81 32.5 163.5t75.5 140.5h89q-31 -153 -34 -304zM226 80q0 -43 -25 -67.5t-70 -24.5q-46 0 -71 24.5t-25 67.5t25 67t71 24q45 0 70 -24.5t25 -66.5z" />
    <glyph glyph-name="uni061F" unicode="&#x61f;" horiz-adv-x="477" 
d="M423 532q-69 24 -115 24q-90 0 -90 -68q0 -18 9 -34t16.5 -23.5t29.5 -25l28 -22.5q61 -50 61 -121v-35h-157v6q0 21 -11 41t-23 31.5t-36 31.5t-36 31q-64 59 -64 143q0 94 65 147.5t189 53.5q89 0 168 -35zM378 80q0 -43 -25 -67.5t-70 -24.5q-46 0 -71 24.5t-25 67.5
t25 67t71 24q45 0 70 -24.5t25 -66.5z" />
    <glyph glyph-name="uni0621" unicode="&#x621;" horiz-adv-x="475" 
d="M445 80q-195 -37 -369 -108l-41 134q48 22 73 32q-62 49 -62 149q0 86 54.5 139.5t134.5 53.5q75 0 160 -34l-36 -126q-58 14 -91 14q-34 0 -55.5 -17.5t-21.5 -45.5t17.5 -50.5t51.5 -22.5q39 0 157 24z" />
    <glyph glyph-name="uni0622" unicode="&#x622;" horiz-adv-x="266" 
d="M300 782l33 -82q-48 -38 -117 -38q-34 0 -91 16.5t-77 16.5q-36 0 -64 -30l-53 69q50 73 116 73q24 0 92.5 -19t91.5 -19q40 0 69 13zM211 0h-156v617l156 13v-630z" />
    <glyph glyph-name="uni0623" unicode="&#x623;" horiz-adv-x="266" 
d="M260 722q-118 -21 -228 -64l-23 69q29 15 62 26q-34 29 -34 81q0 47 32 75.5t80 28.5q46 0 85 -20l-24 -65q-30 8 -53 8q-21 0 -34.5 -9.5t-13.5 -24.5q0 -17 12 -30.5t36 -13.5t89 13zM211 0h-156v617l156 13v-630z" />
    <glyph glyph-name="uni0624" unicode="&#x624;" horiz-adv-x="534" 
d="M359 578q-118 -21 -228 -64l-23 69q29 15 62 26q-34 29 -34 81q0 47 32 75.5t80 28.5q46 0 85 -20l-24 -65q-30 8 -53 8q-21 0 -34.5 -9.5t-13.5 -24.5q0 -17 12 -30.5t36 -13.5t89 13zM288 178q25 0 55 5q-6 49 -33 92t-67 43q-34 0 -52 -22.5t-18 -52.5q0 -65 115 -65z
M159 -204q-56 0 -111 15l12 146q33 -5 73 -5q86 0 140 28.5t63 58.5q-46 -20 -107 -20q-189 0 -189 197q0 111 61 186t151 75q99 0 165.5 -88.5t66.5 -234.5q0 -171 -83 -264.5t-242 -93.5z" />
    <glyph glyph-name="uni0625" unicode="&#x625;" horiz-adv-x="266" 
d="M211 0h-156v712l156 13v-725zM250 -271q-118 -21 -228 -64l-23 69q29 15 62 26q-34 29 -34 81q0 47 32 75.5t80 28.5q46 0 85 -20l-24 -65q-30 8 -53 8q-21 0 -34.5 -9.5t-13.5 -24.5q0 -17 12 -30.5t36 -13.5t89 13z" />
    <glyph glyph-name="uni0626" unicode="&#x626;" horiz-adv-x="770" 
d="M329 405q-118 -21 -228 -64l-23 69q29 15 62 26q-34 29 -34 81q0 47 32 75.5t80 28.5q46 0 85 -20l-24 -65q-30 8 -53 8q-21 0 -34.5 -9.5t-13.5 -24.5q0 -17 12 -30.5t36 -13.5t89 13zM342 -201q-145 0 -218.5 66t-73.5 190q0 114 63 237l120 -48q-31 -84 -31 -141
q0 -68 40.5 -99t127.5 -31q135 0 191 58q-27 19 -63 36.5t-83.5 38.5t-78.5 37q-3 34 -3 63q0 83 23 145t63 96.5t85 50.5t96 16q40 0 80 -14.5t60 -33.5l-63 -155q-49 30 -108 30q-36 0 -60 -16t-39 -62q65 -27 98 -42.5t76 -42t74 -57.5q-1 -82 -30 -144.5t-80.5 -101
t-118.5 -57.5t-147 -19z" />
    <glyph glyph-name="uni0627" unicode="&#x627;" horiz-adv-x="266" 
d="M211 0h-156v712l156 13v-725z" />
    <glyph glyph-name="uni0628" unicode="&#x628;" horiz-adv-x="876" 
d="M404 -10q-106 0 -178 17.5t-109 51.5t-52 74t-15 94q0 81 38 195l133 -26q-13 -67 -13 -106q0 -45 17 -69.5t67.5 -37.5t144.5 -13q144 0 233 26q-2 88 -28 206l161 31q23 -101 23 -199q0 -101 -28 -167q-119 -77 -394 -77zM415 -66l108 -93l-88 -100l-108 89z" />
    <glyph glyph-name="uni0629" unicode="&#x629;" horiz-adv-x="511" 
d="M341 554l-83 68l-63 -71l-97 80l79 94l83 -71l63 74l98 -84zM194 525q282 -111 282 -309q0 -98 -61 -161t-185 -63q-94 0 -144.5 49.5t-50.5 139.5q0 89 44 179t115 165zM249 168q38 0 66.5 11t28.5 28q0 29 -36.5 67t-87.5 66q-49 -58 -49 -107q0 -65 78 -65z" />
    <glyph glyph-name="uni062A" unicode="&#x62a;" horiz-adv-x="876" 
d="M537 404l-83 68l-63 -71l-97 80l79 94l83 -71l63 74l98 -84zM404 -10q-106 0 -178 17.5t-109 51.5t-52 74t-15 94q0 81 38 195l133 -26q-13 -67 -13 -106q0 -45 17 -69.5t67.5 -37.5t144.5 -13q144 0 233 26q-2 88 -28 206l161 31q23 -101 23 -199q0 -101 -28 -167
q-119 -77 -394 -77z" />
    <glyph glyph-name="uni062B" unicode="&#x62b;" horiz-adv-x="876" 
d="M438 675l86 -74l-70 -80l-86 71zM540 387l-81 67l-66 -74l-95 79l78 92l81 -70l66 77l95 -82zM404 -11q-106 0 -178 17.5t-109 51.5t-52 74t-15 94q0 81 38 195l133 -26q-13 -67 -13 -106q0 -45 17 -69.5t67.5 -37.5t144.5 -13q144 0 233 26q-2 88 -28 206l161 31
q23 -101 23 -199q0 -101 -28 -167q-119 -77 -394 -77z" />
    <glyph glyph-name="uni062C" unicode="&#x62c;" horiz-adv-x="653" 
d="M360 -277q-146 0 -222.5 64t-76.5 177q0 62 25.5 114t69 87.5t96 59.5t112.5 37q-86 74 -132 74q-25 0 -40 -12t-31 -40l-111 52q56 151 191 151q44 0 100 -29t100 -65l94.5 -75t79.5 -52l-39 -119q-165 0 -260.5 -48.5t-95.5 -112.5q0 -44 44.5 -67t119.5 -23
q103 0 204 34l45 -140q-122 -67 -273 -67zM400 94l93 -78l-76 -84l-92 75z" />
    <glyph glyph-name="uni062D" unicode="&#x62d;" horiz-adv-x="653" 
d="M360 -277q-146 0 -222.5 64t-76.5 177q0 62 25.5 114t69 87.5t96 59.5t112.5 37q-86 74 -132 74q-25 0 -40 -12t-31 -40l-111 52q56 151 191 151q44 0 100 -29t100 -65l94.5 -75t79.5 -52l-39 -119q-165 0 -260.5 -48.5t-95.5 -112.5q0 -44 44.5 -67t119.5 -23
q103 0 204 34l45 -140q-122 -67 -273 -67z" />
    <glyph glyph-name="uni062E" unicode="&#x62e;" horiz-adv-x="653" 
d="M333 704l108 -93l-88 -100l-108 89zM360 -277q-146 0 -222.5 64t-76.5 177q0 62 25.5 114t69 87.5t96 59.5t112.5 37q-86 74 -132 74q-25 0 -40 -12t-31 -40l-111 52q56 151 191 151q44 0 100 -29t100 -65l94.5 -75t79.5 -52l-39 -119q-165 0 -260.5 -48.5t-95.5 -112.5
q0 -44 44.5 -67t119.5 -23q103 0 204 34l45 -140q-122 -67 -273 -67z" />
    <glyph glyph-name="uni062F" unicode="&#x62f;" horiz-adv-x="485" 
d="M158 -10q-73 0 -133 8v172q86 -6 151 -6t125 6q-37 124 -156 232l113 120q177 -155 177 -379q0 -49 -10 -107q-83 -46 -267 -46z" />
    <glyph glyph-name="uni0630" unicode="&#x630;" horiz-adv-x="485" 
d="M230 750l108 -93l-88 -100l-108 89zM158 -10q-73 0 -133 8v172q86 -6 151 -6t125 6q-37 124 -156 232l113 120q177 -155 177 -379q0 -49 -10 -107q-83 -46 -267 -46z" />
    <glyph glyph-name="uni0631" unicode="&#x631;" horiz-adv-x="421" 
d="M371 150q0 -73 -14 -134t-44.5 -111t-84 -78t-126.5 -28q-46 0 -102 12l12 146q24 -4 50 -4q87 0 124.5 52t37.5 128q0 60 -44 212l158 45q33 -123 33 -240z" />
    <glyph glyph-name="uni0632" unicode="&#x632;" horiz-adv-x="421" 
d="M220 619l108 -93l-88 -100l-108 89zM371 150q0 -73 -14 -134t-44.5 -111t-84 -78t-126.5 -28q-46 0 -102 12l12 146q24 -4 50 -4q87 0 124.5 52t37.5 128q0 60 -44 212l158 45q33 -123 33 -240z" />
    <glyph glyph-name="uni0633" unicode="&#x633;" horiz-adv-x="1249" 
d="M319 -216q-130 0 -199.5 65t-69.5 182q0 119 70 247l122 -48q-36 -87 -36 -146q0 -61 34 -92t107 -31q70 0 113 28.5t43 76.5q0 82 -50 242l155 46q33 -123 39 -160q25 -11 57 -11q83 0 83 73v83l139 9v-113q0 -57 66 -57q32 0 71 11q-2 42 -29 178l145 31
q20 -90 20 -159q0 -117 -24 -189q-93 -51 -186 -51q-89 0 -137 43q-48 -47 -153 -47q-20 0 -54 4q-25 -103 -108.5 -159t-217.5 -56z" />
    <glyph glyph-name="uni0634" unicode="&#x634;" horiz-adv-x="1249" 
d="M821 695l86 -74l-70 -80l-86 71zM923 407l-81 67l-66 -74l-95 79l78 92l81 -70l66 77l95 -82zM319 -216q-130 0 -199.5 65t-69.5 182q0 119 70 247l122 -48q-36 -87 -36 -146q0 -61 34 -92t107 -31q70 0 113 28.5t43 76.5q0 82 -50 242l155 46q33 -123 39 -160
q25 -11 57 -11q83 0 83 73v83l139 9v-113q0 -57 66 -57q32 0 71 11q-2 42 -29 178l145 31q20 -90 20 -159q0 -117 -24 -189q-93 -51 -186 -51q-89 0 -137 43q-48 -47 -153 -47q-20 0 -54 4q-25 -103 -108.5 -159t-217.5 -56z" />
    <glyph glyph-name="uni0635" unicode="&#x635;" horiz-adv-x="1296" 
d="M890 178q132 0 215 17q-4 61 -37.5 93.5t-87.5 32.5q-56 0 -105.5 -32.5t-101.5 -105.5q57 -5 117 -5zM319 -216q-130 0 -199.5 65t-69.5 182q0 119 70 247l122 -48q-36 -87 -36 -146q0 -61 34 -92t107 -31q70 0 113 28.5t43 76.5q0 82 -50 242l155 46q25 -92 32 -122
q140 257 369 257q104 0 170.5 -66t66.5 -173q0 -105 -37 -192q-119 -62 -352 -62q-126 0 -209 17q-22 -110 -106 -169.5t-223 -59.5z" />
    <glyph glyph-name="uni0636" unicode="&#x636;" horiz-adv-x="1296" 
d="M972 730l108 -93l-88 -100l-108 89zM890 178q132 0 215 17q-4 61 -37.5 93.5t-87.5 32.5q-56 0 -105.5 -32.5t-101.5 -105.5q57 -5 117 -5zM319 -216q-130 0 -199.5 65t-69.5 182q0 119 70 247l122 -48q-36 -87 -36 -146q0 -61 34 -92t107 -31q70 0 113 28.5t43 76.5
q0 82 -50 242l155 46q25 -92 32 -122q140 257 369 257q104 0 170.5 -66t66.5 -173q0 -105 -37 -192q-119 -62 -352 -62q-126 0 -209 17q-22 -110 -106 -169.5t-223 -59.5z" />
    <glyph glyph-name="uni0637" unicode="&#x637;" horiz-adv-x="797" 
d="M341 178q179 0 265 23q-5 59 -39 89.5t-86 30.5q-117 0 -220 -142q25 -1 80 -1zM318 -4q-131 0 -293 14v175q29 0 82 -3q20 54 20 151v379l156 13v-198q0 -82 -20 -167q96 129 247 129q104 0 170.5 -67.5t66.5 -176.5q0 -98 -37 -187q-118 -62 -392 -62z" />
    <glyph glyph-name="uni0638" unicode="&#x638;" horiz-adv-x="797" 
d="M465 739l108 -93l-88 -100l-108 89zM341 178q179 0 265 23q-5 59 -39 89.5t-86 30.5q-117 0 -220 -142q25 -1 80 -1zM318 -4q-131 0 -293 14v175q29 0 82 -3q20 54 20 151v379l156 13v-198q0 -82 -20 -167q96 129 247 129q104 0 170.5 -67.5t66.5 -176.5q0 -98 -37 -187
q-118 -62 -392 -62z" />
    <glyph glyph-name="uni0639" unicode="&#x639;" horiz-adv-x="622" 
d="M602 -170q-124 -67 -268 -67q-139 0 -211.5 60t-72.5 166q0 156 135 222q-34 25 -52.5 72t-18.5 100q0 97 55.5 152t143.5 55q80 0 172 -36l-38 -136q-60 15 -98 15q-83 0 -83 -69q0 -29 21 -56t51 -27q18 0 44 4t67 12t60 11l25 -152q-194 -43 -257 -70.5t-63 -70.5
q0 -38 41 -58.5t109 -20.5q94 0 193 34z" />
    <glyph glyph-name="uni063A" unicode="&#x63a;" horiz-adv-x="622" 
d="M316 814l108 -93l-88 -100l-108 89zM602 -170q-124 -67 -268 -67q-139 0 -211.5 60t-72.5 166q0 156 135 222q-34 25 -52.5 72t-18.5 100q0 97 55.5 152t143.5 55q80 0 172 -36l-38 -136q-60 15 -98 15q-83 0 -83 -69q0 -29 21 -56t51 -27q18 0 44 4t67 12t60 11l25 -152
q-194 -43 -257 -70.5t-63 -70.5q0 -38 41 -58.5t109 -20.5q94 0 193 34z" />
    <glyph glyph-name="uni0640" unicode="&#x640;" horiz-adv-x="230" 
d="M0 0q-15 0 -25.5 26t-10.5 63t10.5 63t25.5 26h230v-178h-230z" />
    <glyph glyph-name="uni0641" unicode="&#x641;" horiz-adv-x="906" 
d="M616 854l108 -93l-88 -100l-108 89zM671 349q22 0 43 3q-10 61 -32.5 95t-55.5 34q-34 0 -50.5 -22.5t-16.5 -51.5t25.5 -43.5t86.5 -14.5zM414 -10q-88 0 -153 12.5t-105 34t-64 54t-33 67t-9 79.5q0 81 38 195l128 -26q-13 -63 -13 -101q0 -50 19 -77.5t72.5 -42.5
t152.5 -15q186 0 274 29q0 5 0.5 14t0.5 14q-43 -15 -110 -15q-182 0 -182 169q0 102 59 174.5t146 72.5q94 0 155 -90.5t61 -253.5q0 -145 -28 -217q-143 -77 -409 -77z" />
    <glyph glyph-name="uni0642" unicode="&#x642;" horiz-adv-x="770" 
d="M565 513l-83 68l-63 -71l-97 80l79 94l83 -71l63 74l98 -84zM524 178q25 0 55 5q-6 49 -33 92t-67 43q-34 0 -52 -22.5t-18 -52.5q0 -65 115 -65zM348 -216q-150 0 -224 70t-74 197q0 92 39 206l126 -34q-14 -72 -14 -120q0 -75 39.5 -110t137.5 -35q76 0 129 23.5
t64 57.5q-44 -20 -106 -20q-189 0 -189 197q0 111 61 186t151 75q99 0 165.5 -88.5t66.5 -234.5q0 -175 -95.5 -272.5t-276.5 -97.5z" />
    <glyph glyph-name="uni0643" unicode="&#x643;" horiz-adv-x="818" 
d="M412 478q0 -6 63 -21q63 -14 63 -65q0 -54 -52.5 -86.5t-154.5 -32.5v87q130 0 130 13q0 6 -40 12q-42 7 -61 26t-19 52q0 55 40.5 90t104.5 35q22 0 39 -4l-18 -95q-16 3 -35 3q-60 0 -60 -14zM414 -10q-88 0 -153 12.5t-105 34t-64 54t-33 67t-9 79.5q0 81 38 195
l133 -26q-13 -63 -13 -101q0 -50 18.5 -77.5t71 -42.5t149.5 -15q98 0 162 15q1 42 1 165q0 296 -2 362l155 13v-359q0 -79 -1 -121.5t-7 -100.5t-18 -94q-47 -25 -140.5 -42.5t-182.5 -17.5z" />
    <glyph glyph-name="uni0644" unicode="&#x644;" horiz-adv-x="686" 
d="M467 712l154 13q10 -549 10 -605q0 -138 -84 -214.5t-238 -76.5q-125 0 -192 63t-67 179q0 113 70 252l127 -48q-36 -97 -36 -161q0 -57 30 -82.5t96 -25.5q65 0 102.5 28t37.5 68q0 7 -2 107q-4 232 -8 503z" />
    <glyph glyph-name="uni0645" unicode="&#x645;" horiz-adv-x="625" 
d="M393 196q52 0 72 1q1 11 1 29q0 49 -22 73.5t-60 24.5q-40 0 -68 -33.5t-35 -91.5q105 -3 112 -3zM205 -190l-146 -10q-9 191 -9 268q0 55 25.5 92t75.5 43q4 123 74 201t171 78q92 0 148 -57t56 -159q0 -112 -36 -206q-17 -10 -72 -17t-115 -7q-42 0 -81 1t-63.5 2.5
t-29.5 1.5q-7 0 -7 -5q0 -48 9 -226z" />
    <glyph glyph-name="uni0646" unicode="&#x646;" horiz-adv-x="705" 
d="M335 497l108 -93l-88 -100l-108 89zM608 369q38 -137 44 -198q3 -31 3 -64q0 -146 -86.5 -227t-249.5 -81q-130 0 -199.5 65t-69.5 182q0 119 70 247l122 -48q-36 -87 -36 -146q0 -61 34 -92t107 -31q70 0 113 28.5t43 76.5q0 82 -50 242z" />
    <glyph glyph-name="uni0647" unicode="&#x647;" horiz-adv-x="737" 
d="M563 -25q-142 0 -267 65q-95 -45 -223 -55l-38 155q73 6 128 18q-27 48 -27 99q0 141 130 285q112 -16 207 -65.5t154.5 -130.5t59.5 -176q0 -84 -29 -139.5t-95 -55.5zM258 287q0 -47 50 -78q72 42 72 86q0 58 -96 76q-26 -46 -26 -84zM544 127q13 0 13 13q0 78 -69 141
q-8 -69 -53 -130q73 -24 109 -24z" />
    <glyph glyph-name="uni0648" unicode="&#x648;" horiz-adv-x="534" 
d="M288 178q25 0 55 5q-6 49 -33 92t-67 43q-34 0 -52 -22.5t-18 -52.5q0 -65 115 -65zM159 -204q-56 0 -111 15l12 146q33 -5 73 -5q86 0 140 28.5t63 58.5q-46 -20 -107 -20q-189 0 -189 197q0 111 61 186t151 75q99 0 165.5 -88.5t66.5 -234.5q0 -171 -83 -264.5
t-242 -93.5z" />
    <glyph glyph-name="uni0649" unicode="&#x649;" horiz-adv-x="770" 
d="M342 -200q-145 0 -218.5 66t-73.5 190q0 114 63 237l120 -48q-31 -84 -31 -141q0 -68 40.5 -99t127.5 -31q135 0 191 58q-27 19 -63 36.5t-83.5 38.5t-78.5 37q-3 34 -3 63q0 83 23 145t63 96.5t85 50.5t96 16q40 0 80 -14.5t60 -33.5l-63 -155q-49 30 -108 30
q-36 0 -60 -16t-39 -62q65 -27 98 -42.5t76 -42t74 -57.5q-1 -82 -30 -144.5t-80.5 -101t-118.5 -57.5t-147 -19z" />
    <glyph glyph-name="uni064A" unicode="&#x64a;" horiz-adv-x="770" 
d="M342 -200q-145 0 -218.5 66t-73.5 190q0 114 63 237l120 -48q-31 -84 -31 -141q0 -68 40.5 -99t127.5 -31q135 0 191 58q-27 19 -63 36.5t-83.5 38.5t-78.5 37q-3 34 -3 63q0 83 23 145t63 96.5t85 50.5t96 16q40 0 80 -14.5t60 -33.5l-63 -155q-49 30 -108 30
q-36 0 -60 -16t-39 -62q65 -27 98 -42.5t76 -42t74 -57.5q-1 -82 -30 -144.5t-80.5 -101t-118.5 -57.5t-147 -19zM447 -422l-83 68l-63 -71l-97 80l79 94l83 -71l63 74l98 -84z" />
    <glyph glyph-name="uni064B" unicode="&#x64b;" 
d="M272 959v-81q-142 -20 -272 -56v78q108 33 272 59zM272 844v-81q-142 -20 -272 -56v78q108 33 272 59z" />
    <glyph glyph-name="uni064C" unicode="&#x64c;" 
d="M138 913q0 -12 16 -25t49 -23q5 13 5 31t-11 31.5t-27 13.5q-14 0 -23 -7.5t-9 -20.5zM-17 703l-17 67q28 13 38 22.5t10 23.5q0 23 -28 23q-15 0 -36 -7l-15 64q32 10 56 10q39 0 59.5 -19.5t20.5 -53.5q0 -20 -10 -37q46 11 91 26q-36 10 -57 33.5t-21 53.5q0 41 31 71
t76 30q39 0 65 -28.5t26 -71.5q0 -32 -15 -65q-24 -51 -76.5 -79.5t-197.5 -62.5z" />
    <glyph glyph-name="uni064D" unicode="&#x64d;" 
d="M272 -165v-81q-142 -20 -272 -56v78q108 33 272 59zM272 -280v-81q-142 -20 -272 -56v78q108 33 272 59z" />
    <glyph glyph-name="uni064E" unicode="&#x64e;" 
d="M272 856v-84q-111 -18 -272 -59v84q129 37 272 59z" />
    <glyph glyph-name="uni064F" unicode="&#x64f;" 
d="M0 707v73q133 35 153 42q-36 9 -57.5 32.5t-21.5 54.5q0 41 31 71t76 30q39 0 65 -28.5t26 -71.5q0 -32 -15 -65q-23 -49 -77.5 -78.5t-179.5 -59.5zM138 913q0 -27 66 -48q4 13 4 31t-11 31.5t-27 13.5q-14 0 -23 -7.5t-9 -20.5z" />
    <glyph glyph-name="uni0650" unicode="&#x650;" 
d="M272 -158v-84q-111 -18 -272 -59v84q129 37 272 59z" />
    <glyph glyph-name="uni0651" unicode="&#x651;" 
d="M225 744q-32 0 -51 9q-38 -39 -94 -39q-35 0 -56.5 21.5t-21.5 59.5q0 16 3 34.5t5 28.5l3 10l52 -5q-2 -17 -2 -34q0 -34 39 -34q21 0 34 9q-4 15 -4 39v40l62 11v-37q0 -33 33 -33q14 0 23.5 10.5t9.5 30.5q0 29 -10 59l65 27q14 -42 14 -85q0 -52 -28 -87t-76 -35z
" />
    <glyph glyph-name="uni0652" unicode="&#x652;" 
d="M250 834q0 -54 -36 -82t-91 -28q-54 0 -82.5 30.5t-28.5 78.5q0 63 36 94.5t80 31.5q50 0 86 -30.5t36 -94.5zM130 800q23 0 36 9t13 23q0 18 -13.5 33.5t-36.5 15.5q-19 0 -32 -13t-13 -31q0 -16 12 -26.5t34 -10.5z" />
    <glyph glyph-name="uni0653" unicode="&#x653;" 
d="M351 821l33 -82q-48 -38 -117 -38q-34 0 -91 16.5t-77 16.5q-36 0 -64 -30l-53 69q50 73 116 73q24 0 92.5 -19t91.5 -19q40 0 69 13z" />
    <glyph glyph-name="uni0654" unicode="&#x654;" horiz-adv-x="301" 
d="M276 767q-118 -21 -228 -64l-23 69q29 15 62 26q-34 29 -34 81q0 47 32 75.5t80 28.5q46 0 85 -20l-24 -65q-30 8 -53 8q-21 0 -34.5 -9.5t-13.5 -24.5q0 -17 12 -30.5t36 -13.5t89 13z" />
    <glyph glyph-name="uni0655" unicode="&#x655;" 
d="M266 -390q-118 -21 -228 -64l-23 69q29 15 62 26q-34 29 -34 81q0 47 32 75.5t80 28.5q46 0 85 -20l-24 -65q-30 8 -53 8q-21 0 -34.5 -9.5t-13.5 -24.5q0 -17 12 -30.5t36 -13.5t89 13z" />
    <glyph glyph-name="uni0656" unicode="&#x656;" 
d="M28 -185l81 17q8 -79 8 -219l-71 -7q-4 144 -18 209z" />
    <glyph glyph-name="uni0657" unicode="&#x657;" 
d="M91 706q-39 0 -65 28.5t-26 71.5q0 32 15 65q23 49 77.5 78.5t179.5 59.5v-73q-127 -34 -153 -42q36 -9 57.5 -32.5t21.5 -54.5q0 -41 -31 -71t-76 -30zM102 775q14 0 23 7.5t9 20.5q0 26 -66 48q-4 -13 -4 -31t11 -31.5t27 -13.5z" />
    <glyph glyph-name="uni0660" unicode="&#x660;" horiz-adv-x="379" 
d="M192 174l-137 132l130 129l139 -132z" />
    <glyph glyph-name="uni0661" unicode="&#x661;" horiz-adv-x="364" 
d="M65 644l179 47q45 -213 45 -478q0 -96 -5 -213h-160q0 214 -13 364t-46 280z" />
    <glyph glyph-name="uni0662" unicode="&#x662;" horiz-adv-x="596" 
d="M289 213q0 -96 -5 -213h-160q0 214 -13 364t-46 280l179 47q18 -81 30 -183q29 -11 66 -11q48 0 86 16q-1 56 -29 162l150 28q19 -79 19 -172q0 -90 -24 -156q-26 -28 -82.5 -47t-113.5 -19q-28 0 -58 5q1 -34 1 -101z" />
    <glyph glyph-name="uni0663" unicode="&#x663;" horiz-adv-x="806" 
d="M289 213q0 -96 -5 -213h-160q0 214 -13 364t-46 280l179 47q22 -102 31 -195q19 -4 42 -4q54 0 54 52v95l151 10v-78q0 -44 8.5 -61.5t39.5 -17.5q30 0 53 10q-2 55 -26 166l160 28q19 -76 19 -165q0 -83 -24 -149q-25 -27 -80.5 -46.5t-105.5 -19.5q-88 0 -124 44
q-43 -47 -130 -47q-16 0 -24 1q1 -34 1 -101z" />
    <glyph glyph-name="uni0664" unicode="&#x664;" horiz-adv-x="500" 
d="M465 4q-76 -9 -161 -9q-138 0 -196 41.5t-58 117.5q0 111 94 182q-73 46 -73 136q0 63 25 111t66 74.5t87 39t95 12.5q33 0 79 -6l-21 -163q-24 4 -56 4q-124 0 -124 -75q0 -22 16.5 -37t47.5 -15q15 0 38.5 3t56.5 8l54 8v-151q-49 -8 -79 -13.5t-65.5 -16.5t-52.5 -26
t-17 -35q0 -34 87 -34q74 0 157 6v-162z" />
    <glyph glyph-name="uni0665" unicode="&#x665;" horiz-adv-x="609" 
d="M289 642q87 0 154 -53t99 -127.5t32 -151.5q0 -114 -75.5 -184t-214.5 -70q-129 0 -189 61.5t-60 181.5q0 75 33.5 154t94 134t126.5 55zM297 236q58 0 93 21.5t35 55.5q0 47 -41 100t-99 53q-40 0 -70.5 -48t-30.5 -94q0 -39 27 -63.5t86 -24.5z" />
    <glyph glyph-name="uni0666" unicode="&#x666;" horiz-adv-x="526" 
d="M476 0h-171q-22 184 -22 359q0 73 3 156q-64 -6 -120 -6q-82 0 -141 12v172q56 -6 189 -6q135 0 234 6q-7 -134 -7 -248q0 -197 35 -445z" />
    <glyph glyph-name="uni0667" unicode="&#x667;" horiz-adv-x="674" 
d="M446 0h-232q-15 152 -69.5 334.5t-124.5 343.5h197q94 -254 123 -501q48 273 135 501h179q-148 -362 -208 -678z" />
    <glyph glyph-name="uni0668" unicode="&#x668;" horiz-adv-x="674" 
d="M457 0q-101 277 -131 495q-45 -280 -127 -495h-179q132 322 200 678h232q28 -280 202 -678h-197z" />
    <glyph glyph-name="uni0669" unicode="&#x669;" horiz-adv-x="586" 
d="M531 0h-168q-5 88 -11 238q-41 -17 -118 -17q-56 0 -97 18.5t-62 49.5t-30.5 65t-9.5 72q0 114 66.5 195t165.5 81q118 0 173 -86t66 -252q21 -321 25 -364zM293 388q28 0 49 4q-21 151 -94 151q-35 0 -52.5 -26.5t-17.5 -56.5q0 -72 115 -72z" />
    <glyph glyph-name="uni066A" unicode="&#x66a;" horiz-adv-x="637" 
d="M37 34l432 714l133 -84l-433 -701zM245 637q0 -48 -27 -74.5t-77 -26.5q-51 0 -78.5 26.5t-27.5 74.5q0 46 28 73t78 27t77 -27t27 -73zM583 73q0 -48 -27 -74.5t-77 -26.5q-51 0 -78.5 26.5t-27.5 74.5q0 46 28 73t78 27t77 -27t27 -73z" />
    <glyph glyph-name="uni066B" unicode="&#x66b;" horiz-adv-x="460" 
d="M189 -93l-139 52l219 570l141 -49z" />
    <glyph glyph-name="uni066C" unicode="&#x66c;" horiz-adv-x="281" 
d="M79 720h163q0 -77 -37 -153t-88 -136h-89q51 149 51 289z" />
    <glyph glyph-name="uni066D" unicode="&#x66d;" horiz-adv-x="537" 
d="M417 109l-151 83l-148 -83l-7 5l32 170l-123 115l2 8l171 22l71 153h9l73 -156l168 -20l3 -8l-126 -118l33 -166z" />
    <glyph glyph-name="uni066E" unicode="&#x66e;" horiz-adv-x="876" 
d="M404 -10q-106 0 -178 17.5t-109 51.5t-52 74t-15 94q0 81 38 195l133 -26q-13 -67 -13 -106q0 -45 17 -69.5t67.5 -37.5t144.5 -13q144 0 233 26q-2 88 -28 206l161 31q23 -101 23 -199q0 -101 -28 -167q-119 -77 -394 -77z" />
    <glyph glyph-name="uni0670" unicode="&#x670;" 
d="M28 926l81 17q8 -79 8 -219l-71 -7q-4 144 -18 209z" />
    <glyph glyph-name="uni0671" unicode="&#x671;" horiz-adv-x="266" 
d="M186 745q54 0 54 36q0 19 -15 29t-32 10q-49 0 -87 -62q43 -13 80 -13zM180 669q-37 0 -79.5 16.5t-51.5 16.5q-31 0 -59 -28l-42 51q42 51 86 51h8q40 70 79.5 97t85.5 27q48 0 75.5 -31t27.5 -82q0 -52 -33.5 -85t-96.5 -33zM211 0h-156v617l156 13v-630z" />
    <glyph glyph-name="uni0672" unicode="&#x672;" horiz-adv-x="266" 
d="M57 694q-28 0 -60 -27l-37 47q48 54 96 54q16 0 47.5 -15.5t52.5 -15.5q8 0 26 2q-33 10 -52 39t-19 61q0 51 31 82.5t76 31.5q46 0 85 -20l-20 -60q-30 8 -53 8q-22 0 -36 -12.5t-14 -31.5q0 -20 14 -36t42 -16q30 0 87 20l19 -63q-36 -13 -75.5 -33t-64 -30t-47.5 -10
q-27 0 -56.5 12.5t-41.5 12.5zM211 0h-156v617l156 13v-630z" />
    <glyph glyph-name="uni0674" unicode="&#x674;" horiz-adv-x="308" 
d="M276 767q-118 -21 -228 -64l-23 69q29 15 62 26q-34 29 -34 81q0 47 32 75.5t80 28.5q46 0 85 -20l-24 -65q-30 8 -53 8q-21 0 -34.5 -9.5t-13.5 -24.5q0 -17 12 -30.5t36 -13.5t89 13z" />
    <glyph glyph-name="uni0679" unicode="&#x679;" horiz-adv-x="876" 
d="M437 473q62 0 108 11q-5 55 -52 55q-43 0 -86 -66h30zM428 400q-52 0 -116 6v70q3 0 13 -0.5t17 -0.5q8 22 8 65v145l64 7v-71q0 -38 -8 -70q40 57 98 57q44 0 71.5 -28.5t27.5 -75.5q0 -42 -15 -78q-46 -26 -160 -26zM404 -10q-106 0 -178 17.5t-109 51.5t-52 74t-15 94
q0 81 38 195l133 -26q-13 -67 -13 -106q0 -45 17 -69.5t67.5 -37.5t144.5 -13q144 0 233 26q-2 88 -28 206l161 31q23 -101 23 -199q0 -101 -28 -167q-119 -77 -394 -77z" />
    <glyph glyph-name="uni067E" unicode="&#x67e;" horiz-adv-x="876" 
d="M404 -10q-106 0 -178 17.5t-109 51.5t-52 74t-15 94q0 81 38 195l133 -26q-13 -67 -13 -106q0 -45 17 -69.5t67.5 -37.5t144.5 -13q144 0 233 26q-2 88 -28 206l161 31q23 -101 23 -199q0 -101 -28 -167q-119 -77 -394 -77zM507 -215l-81 70l-66 -77l-95 82l78 89l81 -67
l66 74l95 -79zM445 -339l-86 74l70 80l86 -71z" />
    <glyph glyph-name="uni0686" unicode="&#x686;" horiz-adv-x="653" 
d="M360 -277q-146 0 -222.5 64t-76.5 177q0 62 25.5 114t69 87.5t96 59.5t112.5 37q-86 74 -132 74q-25 0 -40 -12t-31 -40l-111 52q56 151 191 151q44 0 100 -29t100 -65l94.5 -75t79.5 -52l-39 -119q-165 0 -260.5 -48.5t-95.5 -112.5q0 -44 44.5 -67t119.5 -23
q103 0 204 34l45 -140q-122 -67 -273 -67zM486 -7l-60 51l-47 -56l-70 60l57 64l59 -49l48 54l69 -57zM440 -97l-62 53l51 58l62 -51z" />
    <glyph glyph-name="uni0688" unicode="&#x688;" horiz-adv-x="485" 
d="M207 633q62 0 108 11q-5 55 -52 55q-43 0 -86 -66h30zM198 560q-52 0 -116 6v70q3 0 13 -0.5t17 -0.5q8 22 8 65v145l64 7v-71q0 -38 -8 -70q40 57 98 57q44 0 71.5 -28.5t27.5 -75.5q0 -42 -15 -78q-46 -26 -160 -26zM158 -10q-73 0 -133 8v172q86 -6 151 -6t125 6
q-37 124 -156 232l113 120q177 -155 177 -379q0 -49 -10 -107q-83 -46 -267 -46z" />
    <glyph glyph-name="uni0691" unicode="&#x691;" horiz-adv-x="421" 
d="M214 496q62 0 108 11q-5 55 -52 55q-43 0 -86 -66h30zM205 423q-52 0 -116 6v70q3 0 13 -0.5t17 -0.5q8 22 8 65v145l64 7v-71q0 -38 -8 -70q40 57 98 57q44 0 71.5 -28.5t27.5 -75.5q0 -42 -15 -78q-46 -26 -160 -26zM371 150q0 -73 -14 -134t-44.5 -111t-84 -78
t-126.5 -28q-46 0 -102 12l12 146q24 -4 50 -4q87 0 124.5 52t37.5 128q0 60 -44 212l158 45q33 -123 33 -240z" />
    <glyph glyph-name="uni0698" unicode="&#x698;" horiz-adv-x="421" 
d="M205 706l86 -74l-70 -80l-86 71zM307 418l-81 67l-66 -74l-95 79l78 92l81 -70l66 77l95 -82zM371 150q0 -73 -14 -134t-44.5 -111t-84 -78t-126.5 -28q-46 0 -102 12l12 146q24 -4 50 -4q87 0 124.5 52t37.5 128q0 60 -44 212l158 45q33 -123 33 -240z" />
    <glyph glyph-name="uni06A9" unicode="&#x6a9;" horiz-adv-x="905" 
d="M414 -10q-88 0 -153 12.5t-105 34t-64 54t-33 67t-9 79.5q0 81 38 195l133 -26q-13 -63 -13 -101q0 -47 16 -72.5t63.5 -40t135.5 -14.5q155 0 239 24q-26 57 -84 102t-140 72v203q194 130 442 181v-166q-161 -35 -291 -107q228 -104 228 -334q0 -48 -8 -89
q-163 -74 -395 -74z" />
    <glyph glyph-name="uni06AF" unicode="&#x6af;" horiz-adv-x="905" 
d="M517 654v86q111 58 286 108v-88q-150 -43 -286 -106zM414 -10q-88 0 -153 12.5t-105 34t-64 54t-33 67t-9 79.5q0 81 38 195l133 -26q-13 -63 -13 -101q0 -69 44 -98t171 -29q155 0 239 24q-51 113 -214 171v192q192 126 432 175v-161q-153 -34 -281 -101
q218 -105 218 -330q0 -43 -8 -84q-163 -74 -395 -74z" />
    <glyph glyph-name="uni06BA" unicode="&#x6ba;" horiz-adv-x="705" 
d="M608 369q38 -137 44 -198q3 -31 3 -64q0 -146 -86.5 -227t-249.5 -81q-130 0 -199.5 65t-69.5 182q0 119 70 247l122 -48q-36 -87 -36 -146q0 -61 34 -92t107 -31q70 0 113 28.5t43 76.5q0 82 -50 242z" />
    <glyph glyph-name="uni06BE" unicode="&#x6be;" horiz-adv-x="737" 
d="M563 -25q-142 0 -267 65q-95 -45 -223 -55l-38 155q73 6 128 18q-27 48 -27 99q0 141 130 285q112 -16 207 -65.5t154.5 -130.5t59.5 -176q0 -84 -29 -139.5t-95 -55.5zM258 287q0 -47 50 -78q72 42 72 86q0 58 -96 76q-26 -46 -26 -84zM544 127q13 0 13 13q0 78 -69 141
q-8 -69 -53 -130q73 -24 109 -24z" />
    <glyph glyph-name="uni06C1" unicode="&#x6c1;" horiz-adv-x="511" 
d="M194 525q282 -111 282 -309q0 -98 -61 -161t-185 -63q-94 0 -144.5 49.5t-50.5 139.5q0 89 44 179t115 165zM249 168q38 0 66.5 11t28.5 28q0 29 -36.5 67t-87.5 66q-49 -58 -49 -107q0 -65 78 -65z" />
    <glyph glyph-name="uni06C2" unicode="&#x6c2;" horiz-adv-x="511" 
d="M364 617q-118 -21 -228 -64l-23 69q29 15 62 26q-34 29 -34 81q0 47 32 75.5t80 28.5q46 0 85 -20l-24 -65q-30 8 -53 8q-21 0 -34.5 -9.5t-13.5 -24.5q0 -17 12 -30.5t36 -13.5t89 13zM194 525q282 -111 282 -309q0 -98 -61 -161t-185 -63q-94 0 -144.5 49.5
t-50.5 139.5q0 89 44 179t115 165zM249 168q38 0 66.5 11t28.5 28q0 29 -36.5 67t-87.5 66q-49 -58 -49 -107q0 -65 78 -65z" />
    <glyph glyph-name="uni06C3" unicode="&#x6c3;" horiz-adv-x="511" 
d="M334 563l-83 68l-63 -71l-97 80l79 94l83 -71l63 74l98 -84zM194 525q282 -111 282 -309q0 -98 -61 -161t-185 -63q-94 0 -144.5 49.5t-50.5 139.5q0 89 44 179t115 165zM249 168q38 0 66.5 11t28.5 28q0 29 -36.5 67t-87.5 66q-49 -58 -49 -107q0 -65 78 -65z" />
    <glyph glyph-name="uni06CC" unicode="&#x6cc;" horiz-adv-x="770" 
d="M342 -200q-145 0 -218.5 66t-73.5 190q0 114 63 237l120 -48q-31 -84 -31 -141q0 -68 40.5 -99t127.5 -31q135 0 191 58q-27 19 -63 36.5t-83.5 38.5t-78.5 37q-3 34 -3 63q0 83 23 145t63 96.5t85 50.5t96 16q40 0 80 -14.5t60 -33.5l-63 -155q-49 30 -108 30
q-36 0 -60 -16t-39 -62q65 -27 98 -42.5t76 -42t74 -57.5q-1 -82 -30 -144.5t-80.5 -101t-118.5 -57.5t-147 -19z" />
    <glyph glyph-name="uni06D2" unicode="&#x6d2;" horiz-adv-x="740" 
d="M725 179l-41 -179h-370q-264 0 -264 190q0 128 87 218.5t203 90.5q75 0 126.5 -49t61.5 -131l-131 -54q-28 72 -80 72q-36 0 -70 -31.5t-34 -59.5q0 -32 35 -49.5t126 -17.5h351z" />
    <glyph glyph-name="uni06D3" unicode="&#x6d3;" horiz-adv-x="740" 
d="M420 593q-118 -21 -228 -64l-23 69q29 15 62 26q-34 29 -34 81q0 47 32 75.5t80 28.5q46 0 85 -20l-24 -65q-30 8 -53 8q-21 0 -34.5 -9.5t-13.5 -24.5q0 -17 12 -30.5t36 -13.5t89 13zM725 179l-41 -179h-370q-264 0 -264 190q0 128 87 218.5t203 90.5q75 0 126.5 -49
t61.5 -131l-131 -54q-28 72 -80 72q-36 0 -70 -31.5t-34 -59.5q0 -32 35 -49.5t126 -17.5h351z" />
    <glyph glyph-name="uni06D4" unicode="&#x6d4;" horiz-adv-x="552" 
d="M532 201v-175q-99 -31 -266 -31q-149 0 -246 66l30 146q86 -39 231 -39q146 0 251 33z" />
    <glyph glyph-name="uni06F0" unicode="&#x6f0;" horiz-adv-x="379" 
d="M192 174l-137 132l130 129l139 -132z" />
    <glyph glyph-name="uni06F1" unicode="&#x6f1;" horiz-adv-x="364" 
d="M65 644l179 47q45 -213 45 -478q0 -96 -5 -213h-160q0 214 -13 364t-46 280z" />
    <glyph glyph-name="uni06F2" unicode="&#x6f2;" horiz-adv-x="596" 
d="M289 213q0 -96 -5 -213h-160q0 214 -13 364t-46 280l179 47q18 -81 30 -183q29 -11 66 -11q48 0 86 16q-1 56 -29 162l150 28q19 -79 19 -172q0 -90 -24 -156q-26 -28 -82.5 -47t-113.5 -19q-28 0 -58 5q1 -34 1 -101z" />
    <glyph glyph-name="uni06F3" unicode="&#x6f3;" horiz-adv-x="806" 
d="M289 213q0 -96 -5 -213h-160q0 214 -13 364t-46 280l179 47q22 -102 31 -195q19 -4 42 -4q54 0 54 52v95l151 10v-78q0 -44 8.5 -61.5t39.5 -17.5q30 0 53 10q-2 55 -26 166l160 28q19 -76 19 -165q0 -83 -24 -149q-25 -27 -80.5 -46.5t-105.5 -19.5q-88 0 -124 44
q-43 -47 -130 -47q-16 0 -24 1q1 -34 1 -101z" />
    <glyph glyph-name="uni06F4" unicode="&#x6f4;" horiz-adv-x="723" 
d="M289 213q0 -96 -5 -213h-160q0 214 -13 364t-46 280l179 47q28 -129 38 -266q37 -21 88 -23q-39 55 -39 116q0 81 47 127.5t121 46.5q66 0 144 -31l-32 -132q-50 13 -73 13t-38.5 -13t-15.5 -33q0 -30 19 -49t40 -19q13 0 32.5 5t47 14t43.5 13l27 -144
q-100 -35 -173 -51t-156 -16q-41 0 -75 8v-44z" />
    <glyph glyph-name="uni06F5" unicode="&#x6f5;" horiz-adv-x="702" 
d="M244 158q26 0 39 3q-3 21 -3 46v45l131 7v-50q0 -47 53 -47q20 0 35.5 14t15.5 44q0 51 -48 136t-140 154q-70 -74 -103.5 -145t-33.5 -126q0 -81 54 -81zM447 -10q-52 0 -90 25q-58 -29 -128 -29q-92 0 -143 58t-51 168q0 117 79.5 260.5t201.5 242.5q169 -84 260 -220
t91 -268q0 -111 -55.5 -174t-164.5 -63z" />
    <glyph glyph-name="uni06F6" unicode="&#x6f6;" horiz-adv-x="581" 
d="M556 283q-236 -95 -334 -283h-168q21 72 67.5 145.5t100.5 123.5q-81 18 -126.5 76.5t-45.5 140.5q0 118 75 178.5t188 60.5q74 0 142 -24l-40 -145q-33 8 -81 8q-45 0 -80.5 -19t-35.5 -59q0 -41 31.5 -64.5t81.5 -23.5q20 0 44 4t40 7.5t50.5 13t50.5 13.5z" />
    <glyph glyph-name="uni06F7" unicode="&#x6f7;" horiz-adv-x="674" 
d="M446 0h-232q-15 152 -69.5 334.5t-124.5 343.5h197q94 -254 123 -501q48 273 135 501h179q-148 -362 -208 -678z" />
    <glyph glyph-name="uni06F8" unicode="&#x6f8;" horiz-adv-x="674" 
d="M457 0q-101 277 -131 495q-45 -280 -127 -495h-179q132 322 200 678h232q28 -280 202 -678h-197z" />
    <glyph glyph-name="uni06F9" unicode="&#x6f9;" horiz-adv-x="586" 
d="M531 0h-168q-5 88 -11 238q-41 -17 -118 -17q-56 0 -97 18.5t-62 49.5t-30.5 65t-9.5 72q0 114 66.5 195t165.5 81q118 0 173 -86t66 -252q21 -321 25 -364zM293 388q28 0 49 4q-21 151 -94 151q-35 0 -52.5 -26.5t-17.5 -56.5q0 -72 115 -72z" />
    <glyph glyph-name="uni200C" unicode="&#x200c;" 
 />
    <glyph glyph-name="uni200D" unicode="&#x200d;" 
 />
    <glyph glyph-name="endash" unicode="&#x2013;" horiz-adv-x="500" 
d="M30 267v143h440v-143h-440z" />
    <glyph glyph-name="emdash" unicode="&#x2014;" horiz-adv-x="1000" 
d="M30 267v143h940v-143h-940z" />
    <glyph glyph-name="quoteleft" unicode="&#x2018;" horiz-adv-x="281" 
d="M200 431h-163q0 77 37 153t88 136h89q-51 -148 -51 -289z" />
    <glyph glyph-name="quoteright" unicode="&#x2019;" horiz-adv-x="281" 
d="M79 720h163q0 -77 -37 -153t-88 -136h-89q51 149 51 289z" />
    <glyph glyph-name="quotesinglbase" unicode="&#x201a;" horiz-adv-x="281" 
d="M69 156h163q0 -77 -37 -153t-88 -136h-89q51 149 51 289z" />
    <glyph glyph-name="quotedblleft" unicode="&#x201c;" horiz-adv-x="501" 
d="M200 431h-163q0 77 37 153t88 136h89q-51 -148 -51 -289zM420 431h-163q0 77 37 153t88 136h89q-51 -148 -51 -289z" />
    <glyph glyph-name="quotedblright" unicode="&#x201d;" horiz-adv-x="501" 
d="M299 720h163q0 -77 -37 -153t-88 -136h-89q51 149 51 289zM79 720h163q0 -77 -37 -153t-88 -136h-89q51 149 51 289z" />
    <glyph glyph-name="quotedblbase" unicode="&#x201e;" horiz-adv-x="501" 
d="M289 156h163q0 -77 -37 -153t-88 -136h-89q51 149 51 289zM69 156h163q0 -77 -37 -153t-88 -136h-89q51 149 51 289z" />
    <glyph glyph-name="dagger" unicode="&#x2020;" horiz-adv-x="550" 
d="M350 270v-470h-150v470q0 40 11 130q-151 -11 -171 -11v139q20 0 171 -11q-11 90 -11 129q0 42 5 95h140q5 -53 5 -95q0 -39 -11 -129q148 11 171 11v-139q-22 0 -171 11q11 -90 11 -130z" />
    <glyph glyph-name="daggerdbl" unicode="&#x2021;" horiz-adv-x="550" 
d="M350 -106q0 -42 -5 -95h-140q-5 53 -5 95q0 26 10 126q-148 -11 -170 -11v139q20 0 171 -11q-11 92 -11 133q0 40 11 130q-151 -11 -171 -11v139q20 0 171 -11q-11 90 -11 129q0 42 5 95h140q5 -53 5 -95q0 -39 -11 -129q148 11 171 11v-139q-22 0 -171 11
q11 -90 11 -130q0 -41 -11 -133q146 11 171 11v-139q-24 0 -170 11q10 -100 10 -126z" />
    <glyph glyph-name="bullet" unicode="&#x2022;" horiz-adv-x="390" 
d="M335 357q0 -63 -36.5 -101t-102.5 -38q-67 0 -104 38t-37 101q0 62 37 100t104 38q65 0 102 -38t37 -100z" />
    <glyph glyph-name="ellipsis" unicode="&#x2026;" horiz-adv-x="913" 
d="M662 80q0 43 25 67t71 24q45 0 70 -24.5t25 -66.5q0 -43 -25 -67.5t-70 -24.5q-46 0 -71 24.5t-25 67.5zM361 80q0 43 25 67t71 24q45 0 70 -24.5t25 -66.5q0 -43 -25 -67.5t-70 -24.5q-46 0 -71 24.5t-25 67.5zM60 80q0 43 25 67t71 24q45 0 70 -24.5t25 -66.5
q0 -43 -25 -67.5t-70 -24.5q-46 0 -71 24.5t-25 67.5z" />
    <glyph glyph-name="perthousand" unicode="&#x2030;" horiz-adv-x="1284" 
d="M375 508q0 -84 -47 -130.5t-125 -46.5t-125.5 46.5t-47.5 130.5q0 82 48 128.5t125 46.5t124.5 -46.5t47.5 -128.5zM565 671h127l-371 -671h-127zM161 508q0 -70 42 -70q41 0 41 70q0 69 -41 69q-42 0 -42 -69zM1254 165q0 -84 -47 -130.5t-125 -46.5t-125.5 46.5
t-47.5 130.5q0 82 48 128.5t125 46.5t124.5 -46.5t47.5 -128.5zM856 165q0 -84 -47 -130.5t-125 -46.5t-125.5 46.5t-47.5 130.5q0 82 48 128.5t125 46.5t124.5 -46.5t47.5 -128.5zM1040 165q0 -70 42 -70q41 0 41 70q0 69 -41 69q-42 0 -42 -69zM642 165q0 -70 42 -70
q41 0 41 70q0 69 -41 69q-42 0 -42 -69z" />
    <glyph glyph-name="guilsinglleft" unicode="&#x2039;" horiz-adv-x="410" 
d="M175 66q-102 113 -155 225q53 112 155 225h205q-90 -97 -167 -225q77 -128 167 -225h-205z" />
    <glyph glyph-name="guilsinglright" unicode="&#x203a;" horiz-adv-x="410" 
d="M235 66h-205q90 97 167 225q-77 128 -167 225h205q102 -113 155 -225q-53 -112 -155 -225z" />
    <glyph glyph-name="fraction" unicode="&#x2044;" horiz-adv-x="112" 
d="M187 700h135l-397 -700h-135z" />
    <glyph glyph-name="Euro" unicode="&#x20ac;" horiz-adv-x="615" 
d="M585 10q-57 -22 -151 -22q-121 0 -201 53t-111 156h-92v112h75q-1 8 -1 26v20h-74v112h92q31 105 111.5 160.5t195.5 55.5q90 0 148 -18l-34 -139q-54 12 -91 12q-112 0 -148 -71h191l-11 -112h-204v-20q0 -18 1 -26h200l-9 -112h-163q39 -64 137 -64q59 0 113 15z" />
    <glyph glyph-name="trademark" unicode="&#x2122;" horiz-adv-x="785" 
d="M294 612h-80v-246h-108v246h-81v88h269v-88zM426 498v-132h-97v334h111q45 -108 92 -175q39 55 87 175h111v-334h-97v132l4 53q-32 -59 -71 -120h-72q-31 46 -73 121z" />
    <glyph glyph-name="partialdiff" unicode="&#x2202;" horiz-adv-x="589" 
d="M256 -12q-107 0 -166.5 60.5t-59.5 168.5q0 133 79.5 221.5t188.5 88.5q24 0 49 -7q-40 53 -97 100.5t-113 75.5l208 13q91 -56 150 -149.5t59 -209.5q0 -165 -80 -263.5t-218 -98.5zM205 223q0 -45 18.5 -70t52.5 -25q45 0 76 51t31 114q0 94 -71 94q-45 0 -76 -49
t-31 -115z" />
    <glyph glyph-name="product" unicode="&#x220f;" horiz-adv-x="775" 
d="M478 -130v680h-181v-680h-177v680h-100v150h735v-150h-100v-680h-177z" />
    <glyph glyph-name="summation" unicode="&#x2211;" horiz-adv-x="568" 
d="M553 -130h-538v140l244 284l-222 266v140h483v-150h-261l157 -192v-138l-181 -200h318v-150z" />
    <glyph glyph-name="minus" unicode="&#x2212;" horiz-adv-x="559" 
d="M40 268v146h479v-146h-479z" />
    <glyph glyph-name="radical" unicode="&#x221a;" horiz-adv-x="540" 
d="M329 0h-177l-78 184h-74v150h180l56 -154l136 520h168z" />
    <glyph glyph-name="infinity" unicode="&#x221e;" horiz-adv-x="859" 
d="M30 321q0 97 56.5 152.5t141.5 55.5q119 0 206 -114q45 55 93.5 85t111.5 30q78 0 134 -56t56 -153q0 -96 -57 -153.5t-136 -57.5q-68 0 -119 30t-96 86q-45 -60 -90 -87.5t-110 -27.5q-77 0 -134 56.5t-57 153.5zM508 323q53 -74 106 -74q71 0 71 70q0 36 -18.5 55.5
t-51.5 19.5q-54 0 -107 -71zM240 391q-31 0 -48 -19t-17 -53t18.5 -52t51.5 -18q28 0 49 14.5t50 51.5q-30 40 -53 58t-51 18z" />
    <glyph glyph-name="integral" unicode="&#x222b;" horiz-adv-x="488" 
d="M132 -189q-53 0 -112 13l26 132q27 -5 52 -5q61 0 61 71v496q0 99 51.5 157t145.5 58q53 0 112 -13l-26 -132q-27 5 -52 5q-61 0 -61 -71v-496q0 -99 -51.5 -157t-145.5 -58z" />
    <glyph glyph-name="approxequal" unicode="&#x2248;" horiz-adv-x="559" 
d="M426 543l93 -60q-7 -69 -42 -106t-88 -37q-47 0 -100.5 21t-87.5 21q-46 0 -67 -36l-94 66q12 59 48.5 93.5t89.5 34.5q39 0 92.5 -20t87.5 -20q51 0 68 43zM426 333l93 -60q-7 -69 -42 -106t-88 -37q-47 0 -100.5 21t-87.5 21q-46 0 -67 -36l-94 66q12 59 48.5 93.5
t89.5 34.5q39 0 92.5 -20t87.5 -20q51 0 68 43z" />
    <glyph glyph-name="notequal" unicode="&#x2260;" horiz-adv-x="559" 
d="M519 173h-229l-55 -130h-165l55 130h-85v146h148l18 44h-166v146h229l55 130h165l-55 -130h85v-146h-148l-18 -44h166v-146z" />
    <glyph glyph-name="lessequal" unicode="&#x2264;" horiz-adv-x="559" 
d="M519 177l-479 137v163l479 137v-165l-279 -53l279 -54v-165zM40 10v146h479v-146h-479z" />
    <glyph glyph-name="greaterequal" unicode="&#x2265;" horiz-adv-x="559" 
d="M40 177v165l279 54l-279 53v165l479 -137v-163zM519 10h-479v146h479v-146z" />
    <glyph glyph-name="lozenge" unicode="&#x25ca;" horiz-adv-x="532" 
d="M180 0l-175 297l175 298h172l175 -298l-175 -297h-172zM266 136l90 161l-90 162l-90 -162z" />
    <glyph glyph-name="fi" unicode="&#xfb01;" horiz-adv-x="616" 
d="M382 656q0 42 25.5 66.5t70.5 24.5t70 -24.5t25 -66.5t-25 -67t-70 -25t-70.5 25t-25.5 67zM80 0v380h-65v135h65v3q0 99 49.5 157t143.5 58q51 0 88 -10l-22 -133q-15 3 -35 3q-31 0 -42.5 -18t-11.5 -53v-7h311v-515h-170v380h-141v-380h-170z" />
    <glyph glyph-name="fl" unicode="&#xfb02;" horiz-adv-x="665" 
d="M567 -12q-177 0 -177 215v388q-28 2 -39 2q-101 0 -101 -71v-7h88v-135h-88v-380h-170v380h-65v135h65v3q0 100 60 157.5t177 57.5q129 0 243 -30v-498q0 -77 48 -77q14 0 30 3l12 -134q-41 -9 -83 -9z" />
    <glyph glyph-name="uniFBB2" unicode="&#xfbb2;" 
d="M98 573l108 -93l-88 -100l-108 89z" />
    <glyph glyph-name="uniFBB3" unicode="&#xfbb3;" 
d="M98 -32l108 -93l-88 -100l-108 89z" />
    <glyph glyph-name="uniFBB4" unicode="&#xfbb4;" 
d="M245 395l-83 68l-63 -71l-97 80l79 94l83 -71l63 74l98 -84z" />
    <glyph glyph-name="uniFBB5" unicode="&#xfbb5;" 
d="M251 -203l-83 68l-63 -71l-97 80l79 94l83 -71l63 74l98 -84z" />
    <glyph glyph-name="uniFBB6" unicode="&#xfbb6;" 
d="M150 691l86 -74l-70 -80l-86 71zM252 403l-81 67l-66 -74l-95 79l78 92l81 -70l66 77l95 -82z" />
    <glyph glyph-name="uniFBB7" unicode="&#xfbb7;" 
d="M223 -190l-81 70l-66 -77l-95 82l78 89l81 -67l66 74l95 -79zM161 -314l-86 74l70 80l86 -71z" />
    <glyph glyph-name="alefShort.isol" horiz-adv-x="266" 
d="M211 0h-156v617l156 13v-630z" />
    <glyph glyph-name="alefShort.fina" horiz-adv-x="306" 
d="M306 178v-178h-23q-124 0 -176 61t-52 177v379l156 13v-358q0 -94 84 -94h11z" />
    <glyph glyph-name="dotlessFeh.medi" horiz-adv-x="548" 
d="M188 312q0 -57 78 -106q84 41 84 90q0 30 -25 50.5t-63 20.5q-31 0 -52.5 -17t-21.5 -38zM0 0q-15 0 -25.5 26t-10.5 63t10.5 63t25.5 26h28q21 0 73 5q-37 57 -37 132q0 103 60.5 157t150.5 54q87 0 146 -52.5t59 -143.5q0 -84 -50 -148q45 -4 85 -4h33v-178h-68
q-145 0 -228 41q-102 -41 -229 -41h-23z" />
    <glyph glyph-name="dotlessFeh.init" horiz-adv-x="542" 
d="M307 349q21 0 42 3q-21 129 -87 129q-34 0 -50.5 -22.5t-16.5 -51.5t25.5 -43.5t86.5 -14.5zM0 0q-15 0 -25.5 26t-10.5 63t10.5 63t25.5 26h1h17q247 0 339 23q1 9 1 28v3q-43 -15 -110 -15q-100 0 -141 43.5t-41 120.5q0 102 59 174.5t146 72.5q94 0 155 -90.5
t61 -253.5q0 -145 -28 -217q-122 -67 -435 -67h-24z" />
    <glyph glyph-name="uni0651064B" 
d="M272 1163v-81q-142 -20 -272 -56v78q108 33 272 59zM272 1048v-81q-142 -20 -272 -56v78q108 33 272 59zM202 734q-32 0 -51 9q-38 -39 -94 -39q-35 0 -56.5 21.5t-21.5 59.5q0 16 2.5 34.5t5.5 28.5l3 10l52 -5q-2 -17 -2 -34q0 -34 39 -34q21 0 34 9q-4 15 -4 39v40
l62 11v-37q0 -33 33 -33q14 0 23.5 10.5t9.5 30.5q0 29 -10 59l65 27q14 -42 14 -85q0 -52 -28 -87t-76 -35z" />
    <glyph glyph-name="wasleh" 
d="M232 810q54 0 54 36q0 19 -15 29t-32 10q-49 0 -87 -62q43 -13 80 -13zM226 734q-37 0 -79.5 16.5t-51.5 16.5q-31 0 -59 -28l-42 51q42 51 86 51h8q40 70 79.5 97t85.5 27q48 0 75.5 -31t27.5 -82q0 -52 -33.5 -85t-96.5 -33z" />
    <glyph glyph-name="wavyHamzehAbove" 
d="M67 719q-28 0 -60 -27l-37 47q48 54 96 54q16 0 47.5 -15.5t52.5 -15.5q8 0 26 2q-33 10 -52 39t-19 61q0 51 31 82.5t76 31.5q46 0 85 -20l-20 -60q-30 8 -53 8q-22 0 -36 -12.5t-14 -31.5q0 -20 14 -36t42 -16q30 0 87 20l19 -63q-36 -13 -75.5 -33t-64 -30t-47.5 -10
q-27 0 -56.5 12.5t-41.5 12.5z" />
    <glyph glyph-name="uni0654064E" 
d="M289 1138v-84q-111 -18 -272 -59v84q129 37 272 59zM276 767q-118 -21 -228 -64l-23 69q29 15 62 26q-34 29 -34 81q0 47 32 75.5t80 28.5q46 0 85 -20l-24 -65q-30 8 -53 8q-21 0 -34.5 -9.5t-13.5 -24.5q0 -17 12 -30.5t36 -13.5t89 13z" />
    <glyph glyph-name="uni06540652" 
d="M250 1124q0 -54 -36 -82t-91 -28q-54 0 -82.5 30.5t-28.5 78.5q0 63 36 94.5t80 31.5q50 0 86 -30.5t36 -94.5zM130 1090q23 0 36 9t13 23q0 18 -13.5 33.5t-36.5 15.5q-19 0 -32 -13t-13 -31q0 -16 12 -26.5t34 -10.5zM250 767q-118 -21 -228 -64l-23 69q29 15 62 26
q-34 29 -34 81q0 47 32 75.5t80 28.5q46 0 85 -20l-24 -65q-30 8 -53 8q-21 0 -34.5 -9.5t-13.5 -24.5q0 -17 12 -30.5t36 -13.5t89 13z" />
    <glyph glyph-name="uni06540651" 
d="M225 1021q-32 0 -51 9q-38 -39 -94 -39q-35 0 -56.5 21.5t-21.5 59.5q0 16 3 34.5t5 28.5l3 10l52 -5q-2 -17 -2 -34q0 -34 39 -34q21 0 34 9q-4 15 -4 39v40l62 11v-37q0 -33 33 -33q14 0 23.5 10.5t9.5 30.5q0 29 -10 59l65 27q14 -42 14 -85q0 -52 -28 -87t-76 -35z
M276 767q-118 -21 -228 -64l-23 69q29 15 62 26q-34 29 -34 81q0 47 32 75.5t80 28.5q46 0 85 -20l-24 -65q-30 8 -53 8q-21 0 -34.5 -9.5t-13.5 -24.5q0 -17 12 -30.5t36 -13.5t89 13z" />
    <glyph glyph-name="uni0654064F" 
d="M0 989v73q133 35 153 42q-36 9 -57.5 32.5t-21.5 54.5q0 41 31 71t76 30q39 0 65 -28.5t26 -71.5q0 -32 -15 -65q-23 -49 -77.5 -78.5t-179.5 -59.5zM138 1195q0 -27 66 -48q4 13 4 31t-11 31.5t-27 13.5q-14 0 -23 -7.5t-9 -20.5zM267 772q-118 -21 -228 -64l-23 69
q29 15 62 26q-34 29 -34 81q0 47 32 75.5t80 28.5q46 0 85 -20l-24 -65q-30 8 -53 8q-21 0 -34.5 -9.5t-13.5 -24.5q0 -17 12 -30.5t36 -13.5t89 13z" />
    <glyph glyph-name="uni0654064C" 
d="M188 1200q0 -12 16 -25t49 -23q5 12 5 31q0 18 -11 31.5t-27 13.5q-14 0 -23 -7.5t-9 -20.5zM33 990l-17 67q28 13 38 22.5t10 23.5q0 23 -28 23q-15 0 -36 -7l-15 64q32 10 56 10q39 0 59.5 -19.5t20.5 -53.5q0 -20 -10 -37q46 11 91 26q-36 10 -57 33.5t-21 53.5
q0 41 31 71t76 30q39 0 65 -28.5t26 -71.5q0 -32 -15 -65q-24 -51 -76.5 -79.5t-197.5 -62.5zM281 767q-118 -21 -228 -64l-23 69q29 15 62 26q-34 29 -34 81q0 47 32 75.5t80 28.5q46 0 85 -20l-24 -65q-30 8 -53 8q-21 0 -34.5 -9.5t-13.5 -24.5q0 -17 12 -30.5t36 -13.5
t89 13z" />
    <glyph glyph-name="uni06550650" 
d="M261 -383q-118 -21 -228 -64l-23 69q29 15 62 26q-34 29 -34 81q0 47 32 75.5t80 28.5q46 0 85 -20l-24 -65q-30 8 -53 8q-21 0 -34.5 -9.5t-13.5 -24.5q0 -17 12 -30.5t36 -13.5t89 13zM282 -426v-84q-111 -18 -272 -59v84q129 37 272 59z" />
    <glyph glyph-name="uni0655064D" 
d="M266 -395q-118 -21 -228 -64l-23 69q29 15 62 26q-34 29 -34 81q0 47 32 75.5t80 28.5q46 0 85 -20l-24 -65q-30 8 -53 8q-21 0 -34.5 -9.5t-13.5 -24.5q0 -17 12 -30.5t36 -13.5t89 13zM287 -451v-81q-142 -20 -272 -56v78q108 33 272 59zM287 -566v-81
q-142 -20 -272 -56v78q108 33 272 59z" />
    <glyph glyph-name="ovalComp" 
d="M2 0h-2q-15 0 -25.5 26t-10.5 63t10.5 63t25.5 26q14 0 25 -26.5t11 -62.5q0 -37 -10 -63t-24 -26z" />
    <glyph glyph-name="uniFEDFFEE0FEEA" horiz-adv-x="1153" 
d="M860 0q-120 0 -163 83q-52 -83 -179 -83q-151 0 -189 112q-17 -2 -47 -2q-237 0 -237 169q0 88 61.5 152t155 93t204.5 29q-8 -224 -8 -277q0 -98 87 -98q86 0 86 101v283l154 13v-286q0 -68 20 -89.5t78 -21.5q36 0 68 8q-2 134 -35 426l151 28q31 -245 31 -394
q0 -125 -24 -196q-36 -20 -96.5 -35t-117.5 -15zM303 255h10q0 4 3 142q-64 -10 -106.5 -37.5t-42.5 -46.5q0 -23 35.5 -40.5t100.5 -17.5z" />
    <glyph glyph-name="ITF" horiz-adv-x="1639" 
d="M1363 496v204h216v-204h-216zM1102 0v700h217v-700h-217zM842 496v204h216v-204h-216zM581 0v700h217v-700h-217zM321 496v204h216v-204h-216zM60 0v700h216v-700h-216zM1363 247v205h216v-205h-216z" />
    </font>
</defs>
</svg>
