<?xml version="1.0" standalone="no"?>
<!DOCTYPE svg PUBLIC "-//W3C//DTD SVG 1.1//EN" "http://www.w3.org/Graphics/SVG/1.1/DTD/svg11.dtd" >
<svg>
<metadata>
Created by FontForge 20090622 at Sat Jul 27 12:00:43 2019
 By deploy user
Copyright 2016 Indian Type Foundry. All Rights Reserved.
</metadata>
<defs>
<font id="DiodrumArabic-Extralight" horiz-adv-x="0" >
  <font-face 
    font-family="DiodrumArabic-Extralight"
    font-weight="400"
    font-stretch="normal"
    units-per-em="1000"
    panose-1="0 0 3 0 0 0 0 0 0 0"
    ascent="792"
    descent="-208"
    x-height="500"
    cap-height="700"
    bbox="-1537 -632 1579 1249"
    underline-thickness="0"
    underline-position="0"
    unicode-range="U+000D-U+FEFC"
  />
<missing-glyph horiz-adv-x="756" 
d="M160 0v701h436v-701h-436zM195 666v-631h366v631h-366z" />
    <glyph glyph-name="uniFEF5" unicode="&#xfedf;&#xfe82;" horiz-adv-x="591" arabic-form="isolated" 
d="M249 723l12 -22q-32 -24 -72 -24q-23 0 -64 14t-57 14q-28 0 -55 -30l-23 16q34 44 81 44q17 0 55 -14.5t63 -14.5q28 0 60 17zM223 0q-87 0 -153 21v34q65 -18 141 -21q5 32 5 79q0 253 -120 493l30 19q124 -262 124 -516q0 -37 -3 -75q107 6 194 68q25 75 25 198
q0 113 -5 420l35 4q5 -274 5 -394q0 -69 -5 -118t-9.5 -69t-16.5 -63l-61.5 -38t-72 -26.5t-113.5 -15.5z" />
    <glyph glyph-name="uniFEF6" unicode="&#xfee0;&#xfe82;" horiz-adv-x="688" arabic-form="final" 
d="M249 723l12 -22q-32 -24 -72 -24q-23 0 -64 14t-57 14q-28 0 -55 -30l-23 16q34 44 81 44q17 0 55 -14.5t63 -14.5q28 0 60 17zM688 0h-16q-78 0 -128.5 35t-61.5 107q-24 -67 -90 -104.5t-169 -37.5q-87 0 -153 21v34q65 -18 141 -21q5 32 5 79q0 253 -120 493l30 19
q124 -262 124 -516q0 -38 -3 -74q118 6 171 62t53 145v478l35 4v-507q0 -97 42.5 -138.5t132.5 -41.5h7v-37z" />
    <glyph glyph-name="uniFEF7" unicode="&#xfedf;&#xfe84;" horiz-adv-x="591" arabic-form="isolated" 
d="M234 639q-96 -17 -198 -57l-10 29q44 18 74 26q-53 26 -53 81q0 42 24.5 63.5t60.5 21.5q33 0 71 -18l-12 -28q-31 13 -59 13q-25 0 -40.5 -13t-15.5 -39q0 -27 21.5 -45t57.5 -18q8 0 73 13zM223 0q-87 0 -153 21v34q65 -18 141 -21q5 32 5 79q0 239 -87 432l32 13
q89 -208 89 -449q0 -37 -3 -75q107 6 194 68q25 75 25 198q0 113 -5 420l35 4q5 -274 5 -394q0 -69 -5 -118t-9.5 -69t-16.5 -63l-61.5 -38t-72 -26.5t-113.5 -15.5z" />
    <glyph glyph-name="uniFEF8" unicode="&#xfee0;&#xfe84;" horiz-adv-x="690" arabic-form="final" 
d="M234 639q-96 -17 -198 -57l-10 29q44 18 74 26q-53 26 -53 81q0 42 24.5 63.5t60.5 21.5q33 0 71 -18l-12 -28q-31 13 -59 13q-25 0 -40.5 -13t-15.5 -39q0 -27 21.5 -45t57.5 -18q8 0 73 13zM688 0h-16q-78 0 -128.5 35t-61.5 107q-24 -67 -90 -104.5t-169 -37.5
q-87 0 -153 21v34q65 -18 141 -21q5 32 5 79q0 239 -87 432l32 13q89 -208 89 -449q0 -38 -3 -74q118 6 171 62t53 145v478l35 4v-507q0 -97 42.5 -138.5t132.5 -41.5h7v-37z" />
    <glyph glyph-name="uniFEF9" unicode="&#xfedf;&#xfe88;" horiz-adv-x="596" arabic-form="isolated" 
d="M228 0q-87 0 -153 21v34q65 -18 141 -21q5 32 5 79q0 240 -146 508l30 21q150 -295 150 -533q0 -37 -3 -75q107 6 194 68q25 75 25 198q0 113 -5 420l35 4q5 -274 5 -394q0 -69 -5 -118t-9.5 -69t-16.5 -63l-61.5 -38t-72 -26.5t-113.5 -15.5zM296 -251q-96 -17 -198 -57
l-10 29q44 18 74 26q-53 26 -53 81q0 42 24.5 63.5t60.5 21.5q33 0 71 -18l-12 -28q-31 13 -59 13q-25 0 -40.5 -13t-15.5 -39q0 -27 21.5 -45t57.5 -18q8 0 73 13z" />
    <glyph glyph-name="uniFEFA" unicode="&#xfee0;&#xfe88;" horiz-adv-x="693" arabic-form="final" 
d="M693 0h-16q-78 0 -128.5 35t-61.5 107q-24 -67 -90 -104.5t-169 -37.5q-87 0 -153 21v34q65 -18 141 -21q5 32 5 79q0 240 -146 508l30 21q150 -295 150 -533q0 -38 -3 -74q118 6 171 62t53 145v478l35 4v-507q0 -97 42.5 -138.5t132.5 -41.5h7v-37zM296 -251
q-96 -17 -198 -57l-10 29q44 18 74 26q-53 26 -53 81q0 42 24.5 63.5t60.5 21.5q33 0 71 -18l-12 -28q-31 13 -59 13q-25 0 -40.5 -13t-15.5 -39q0 -27 21.5 -45t57.5 -18q8 0 73 13z" />
    <glyph glyph-name="uniFEFB" unicode="&#xfedf;&#xfe8e;" horiz-adv-x="596" arabic-form="isolated" 
d="M228 0q-87 0 -153 21v34q65 -18 141 -21q5 32 5 79q0 240 -146 508l30 21q150 -295 150 -533q0 -37 -3 -75q107 6 194 68q25 75 25 198q0 113 -5 420l35 4q5 -274 5 -394q0 -69 -5 -118t-9.5 -69t-16.5 -63l-61.5 -38t-72 -26.5t-113.5 -15.5z" />
    <glyph glyph-name="uniFEFC" unicode="&#xfee0;&#xfe8e;" horiz-adv-x="693" arabic-form="final" 
d="M693 0h-16q-78 0 -128.5 35t-61.5 107q-24 -67 -90 -104.5t-169 -37.5q-87 0 -153 21v34q65 -18 141 -21q5 32 5 79q0 240 -146 508l30 21q150 -295 150 -533q0 -38 -3 -74q118 6 171 62t53 145v478l35 4v-507q0 -97 42.5 -138.5t132.5 -41.5h7v-37z" />
    <glyph glyph-name="uni066E.init" unicode="&#x66e;" horiz-adv-x="321" 
d="M0 0q-19 0 -19 18q0 19 19 19h3q127 0 199 42q5 32 5 65q0 101 -27 188l33 11q28 -96 28 -192q0 -54 -10 -93q-87 -58 -228 -58h-3z" />
    <glyph glyph-name="uni066E.medi" unicode="&#x66e;" horiz-adv-x="429" 
d="M0 0q-19 0 -19 18q0 19 19 19h17q66 0 108 12t62 36.5t26.5 50.5t6.5 67v122l34 4v-126q0 -77 -23 -118q73 -48 191 -48h7v-37h-6q-134 0 -212 57q-55 -57 -197 -57h-14z" />
    <glyph glyph-name="uni066E.fina" unicode="&#x66e;" horiz-adv-x="1013" 
d="M997 0q-78 0 -126 18t-85 54q-47 -47 -140.5 -65.5t-247.5 -18.5q-95 0 -160 14t-98.5 41t-46.5 58.5t-13 75.5q0 83 33 179l32 -9q-29 -98 -29 -161q0 -36 11.5 -62.5t41.5 -50t90.5 -36t150.5 -12.5q119 0 198.5 12.5t119.5 38t55 54.5t15 71v124l35 4v-126
q0 -59 -24 -100q35 -32 77 -49t121 -17h6v-37h-16z" />
    <glyph glyph-name="uni0672.fina" unicode="&#x672;" horiz-adv-x="313" 
d="M49 682q-31 0 -60 -24l-18 23q35 35 82 35q14 0 42 -11t49 -11q13 0 31 2q-35 9 -52.5 34.5t-17.5 56.5q0 48 26 70.5t62 22.5q34 0 72 -18l-13 -29q-31 13 -59 13q-25 0 -40.5 -14.5t-15.5 -43.5q0 -31 20.5 -51.5t56.5 -20.5q9 0 18.5 3.5t27.5 12.5t24 11l12 -29
q-9 -4 -32 -15.5t-33.5 -16t-28 -11t-32 -9t-29.5 -2.5q-25 0 -52.5 11t-39.5 11zM313 37v-37h-21q-115 0 -158.5 60.5t-43.5 185.5v358l35 4v-361q0 -117 39.5 -163.5t135.5 -46.5h13z" />
    <glyph glyph-name="uni06C2.fina" unicode="&#x6c2;" horiz-adv-x="507" 
d="M289 341q-96 -17 -198 -57l-10 29q44 18 74 26q-53 26 -53 81q0 42 24.5 63.5t60.5 21.5q33 0 71 -18l-12 -28q-31 13 -59 13q-25 0 -40.5 -13t-15.5 -39q0 -27 21.5 -45t57.5 -18q8 0 73 13zM474 37h33v-37h-31q-45 0 -81 18t-59 43.5t-43.5 51.5t-44.5 44t-51 18
q-49 0 -122 -68l-25 26q79 79 153 79q33 0 60.5 -18t48 -43.5l41.5 -51.5t52 -44t69 -18z" />
    <glyph glyph-name="uni06C3.fina" unicode="&#x6c3;" horiz-adv-x="507" 
d="M275 390l39 -36l-34 -38l-40 34zM144 386l39 -36l-34 -38l-40 34zM474 37h33v-37h-31q-45 0 -81 18t-59 43.5t-43.5 51.5t-44.5 44t-51 18q-49 0 -122 -68l-25 26q79 79 153 79q33 0 60.5 -18t48 -43.5l41.5 -51.5t52 -44t69 -18z" />
    <glyph glyph-name="uniFB50" unicode="&#x671;" horiz-adv-x="215" arabic-form="isolated" 
d="M161 694q71 0 71 45q0 32 -19.5 48t-46.5 16q-50 0 -100 -88l19 -6.5t21.5 -7t23.5 -5t31 -2.5zM30 689q-26 0 -56 -31l-22 23q33 40 76 40h6q36 67 68.5 92t68.5 25q41 0 66.5 -27t25.5 -68q0 -37 -26.5 -59.5t-78.5 -22.5q-37 0 -77.5 14t-50.5 14zM125 0h-35v606l35 4
v-610z" />
    <glyph glyph-name="uniFB51" unicode="&#x671;" horiz-adv-x="313" arabic-form="final" 
d="M181 694q71 0 71 45q0 32 -19.5 48t-46.5 16q-50 0 -100 -88l19 -6.5t21.5 -7t23.5 -5t31 -2.5zM50 689q-26 0 -56 -31l-22 23q33 40 76 40h6q36 67 68.5 92t68.5 25q41 0 66.5 -27t25.5 -68q0 -37 -26.5 -59.5t-78.5 -22.5q-36 0 -77 14t-51 14zM313 37v-37h-21
q-115 0 -158.5 60.5t-43.5 185.5v358l35 4v-361q0 -117 39.5 -163.5t135.5 -46.5h13z" />
    <glyph glyph-name="uniFB56" unicode="&#x67e;" horiz-adv-x="907" arabic-form="isolated" 
d="M398 -12q-95 0 -160 14t-98.5 41t-46.5 58.5t-13 75.5q0 75 34 179l32 -9q-29 -104 -29 -161q0 -36 11 -62.5t40 -50t90 -36t152 -12.5q223 0 379 77q3 28 3 59q0 85 -27 191l34 11q28 -101 28 -192q0 -52 -11 -93q-64 -40 -174.5 -65t-243.5 -25zM507 -178l-39 36l35 37
l39 -33zM377 -182l-39 36l35 37l39 -33zM445 -279l-39 36l35 37l39 -33z" />
    <glyph glyph-name="uniFB57" unicode="&#x67e;" horiz-adv-x="1013" arabic-form="final" 
d="M997 0q-78 0 -126 18t-85 54q-47 -47 -140.5 -65.5t-247.5 -18.5q-95 0 -160 14t-98.5 41t-46.5 58.5t-13 75.5q0 83 33 179l32 -9q-29 -98 -29 -161q0 -36 11.5 -62.5t41.5 -50t90.5 -36t150.5 -12.5q119 0 198.5 12.5t119.5 38t55 54.5t15 71v124l35 4v-126
q0 -59 -24 -100q35 -32 77 -49t121 -17h6v-37h-16zM497 -178l-39 36l35 37l39 -33zM367 -182l-39 36l35 37l39 -33zM435 -279l-39 36l35 37l39 -33z" />
    <glyph glyph-name="uniFB58" unicode="&#x67e;" horiz-adv-x="321" arabic-form="initial" 
d="M0 0q-19 0 -19 18q0 19 19 19h3q127 0 199 42q5 32 5 65q0 101 -27 188l33 11q28 -96 28 -192q0 -54 -10 -93q-87 -58 -228 -58h-3zM143 -171l-39 36l35 37l39 -33zM13 -175l-39 36l35 37l39 -33zM81 -272l-39 36l35 37l39 -33z" />
    <glyph glyph-name="uniFB59" unicode="&#x67e;" horiz-adv-x="429" arabic-form="medial" 
d="M0 0q-19 0 -19 18q0 19 19 19h17q66 0 108 12t62 36.5t26.5 50.5t6.5 67v122l34 4v-126q0 -77 -23 -118q73 -48 191 -48h7v-37h-6q-134 0 -212 57q-55 -57 -197 -57h-14zM157 -166l-39 36l35 37l39 -33zM27 -170l-39 36l35 37l39 -33zM95 -267l-39 36l35 37l39 -33z" />
    <glyph glyph-name="uniFB66" unicode="&#x679;" horiz-adv-x="907" arabic-form="isolated" 
d="M466 385q69 0 120 16q4 12 4 26q0 62 -55 62t-119 -103q15 -1 50 -1zM462 355q-64 0 -111 6v29l39 -3q12 25 12 88v106l30 4v-95q0 -23 -4 -43q50 73 112 73q39 0 58 -23.5t19 -59.5q0 -28 -11 -56q-47 -26 -144 -26zM398 -12q-95 0 -160 14t-98.5 41t-46.5 58.5
t-13 75.5q0 75 34 179l32 -9q-29 -104 -29 -161q0 -36 11 -62.5t40 -50t90 -36t152 -12.5q223 0 379 77q3 28 3 59q0 85 -27 191l34 11q28 -101 28 -192q0 -52 -11 -93q-64 -40 -174.5 -65t-243.5 -25z" />
    <glyph glyph-name="uniFB67" unicode="&#x679;" horiz-adv-x="1013" arabic-form="final" 
d="M481 400q69 0 120 16q4 12 4 26q0 62 -55 62t-119 -103q15 -1 50 -1zM477 370q-65 0 -111 6v29l39 -3q12 25 12 88v106l30 4v-95q0 -23 -4 -43q50 73 112 73q39 0 58 -23.5t19 -59.5q0 -28 -11 -56q-47 -26 -144 -26zM997 0q-78 0 -126 18t-85 54q-47 -47 -140.5 -65.5
t-247.5 -18.5q-95 0 -160 14t-98.5 41t-46.5 58.5t-13 75.5q0 83 33 179l32 -9q-29 -98 -29 -161q0 -36 11.5 -62.5t41.5 -50t90.5 -36t150.5 -12.5q119 0 198.5 12.5t119.5 38t55 54.5t15 71v124l35 4v-126q0 -59 -24 -100q35 -32 77 -49t121 -17h6v-37h-16z" />
    <glyph glyph-name="uniFB68" unicode="&#x679;" horiz-adv-x="321" arabic-form="initial" 
d="M98 454q69 0 120 16q4 12 4 26q0 62 -55 62t-119 -103q15 -1 50 -1zM94 424q-64 0 -111 6v29l39 -3q12 25 12 88v106l30 4v-95q0 -23 -4 -43q50 73 112 73q39 0 58 -23.5t19 -59.5q0 -28 -11 -56q-47 -26 -144 -26zM0 0q-19 0 -19 18q0 19 19 19h3q127 0 199 42
q5 32 5 65q0 101 -27 188l33 11q28 -96 28 -192q0 -54 -10 -93q-87 -58 -228 -58h-3z" />
    <glyph glyph-name="uniFB69" unicode="&#x679;" horiz-adv-x="429" arabic-form="medial" 
d="M116 439q69 0 120 16q4 12 4 26q0 62 -55 62t-119 -103q15 -1 50 -1zM112 409q-64 0 -111 6v29l39 -3q12 25 12 88v106l30 4v-95q0 -23 -4 -43q50 73 112 73q39 0 58 -23.5t19 -59.5q0 -28 -11 -56q-47 -26 -144 -26zM0 0q-19 0 -19 18q0 19 19 19h17q66 0 108 12
t62 36.5t26.5 50.5t6.5 67v122l34 4v-126q0 -77 -23 -118q73 -48 191 -48h7v-37h-6q-134 0 -212 57q-55 -57 -197 -57h-14z" />
    <glyph glyph-name="uniFB7A" unicode="&#x686;" horiz-adv-x="636" arabic-form="isolated" 
d="M345 -274q-127 0 -196 57.5t-69 156.5q0 71 35.5 128t101.5 97t139 66.5t168 48.5q-42 20 -111 61.5t-117.5 62.5t-90.5 21q-58 0 -95 -62l-29 13q22 47 52 65t75 18q48 0 107.5 -27.5t137 -74.5t126.5 -69l-11 -31q-100 -21 -176.5 -47t-142 -63t-100.5 -88t-35 -113
q0 -89 64 -136.5t173 -47.5q118 0 243 57l12 -28q-117 -65 -261 -65zM444 -13l-36 33l31 34l36 -30zM325 -16l-35 33l31 33l35 -30zM387 -105l-35 33l31 34l35 -30z" />
    <glyph glyph-name="uniFB7B" unicode="&#x686;" horiz-adv-x="711" arabic-form="final" 
d="M596 -270q-115 -65 -246 -65q-129 0 -199.5 56t-70.5 153q0 226 371 307q-140 154 -229 154q-41 0 -64.5 -13.5t-46.5 -53.5l-29 13q23 50 55.5 69.5t88.5 19.5q62 0 127.5 -51t145.5 -142q5 -5 21 -23.5l21 -24l19 -20.5t21.5 -20.5t21 -16.5t23 -15l23 -10t27 -8
t28.5 -2h7v-37h-9q-19 0 -37.5 4.5t-31.5 8t-31 16.5t-26 18t-27.5 25l-23.5 24t-26 29.5t-24 27.5q-172 -41 -266 -105.5t-94 -167.5q0 -87 65 -133t176 -46q106 0 228 57zM429 -86l-36 33l31 34l36 -30zM310 -89l-35 33l31 33l35 -30zM372 -178l-35 33l31 34l35 -30z" />
    <glyph glyph-name="uniFB7C" unicode="&#x686;" horiz-adv-x="690" arabic-form="initial" 
d="M0 0q-19 0 -19 18q0 19 19 19h8q81 0 156.5 7.5t145.5 23.5t110 26.5t104 31.5l76 25q-42 23 -127.5 77.5t-139.5 78.5t-105 24q-30 0 -49.5 -13t-36.5 -49l-30 13q20 46 47.5 64.5t70.5 18.5q58 0 119 -28.5t151 -86.5t150 -88l-14 -34q-16 -4 -136 -44.5t-233.5 -62
t-249.5 -21.5h-17zM365 -159l-39 36l35 37l39 -33zM235 -163l-39 36l35 37l39 -33zM303 -260l-39 36l35 37l39 -33z" />
    <glyph glyph-name="uniFB7D" unicode="&#x686;" horiz-adv-x="820" arabic-form="medial" 
d="M0 0q-19 0 -19 18q0 19 19 19h13q276 0 547 63q-148 129 -226 185t-126 56q-29 0 -48.5 -13t-38.5 -49l-29 13q20 46 47.5 64.5t70.5 18.5q31 0 65.5 -14t89 -54.5t82 -63.5l105.5 -91q19 -17 29 -25q69 -60 110 -75t113 -15h16v-37h-23q-71 0 -113 15.5t-96 61.5
q-277 -77 -576 -77h-12zM402 -170l-39 36l35 37l39 -33zM272 -174l-39 36l35 37l39 -33zM340 -271l-39 36l35 37l39 -33z" />
    <glyph glyph-name="uniFB88" unicode="&#x688;" horiz-adv-x="513" arabic-form="isolated" 
d="M193 546q69 0 120 16q4 12 4 26q0 62 -55 62t-119 -103q15 -1 50 -1zM189 516q-65 0 -111 6v29l39 -3q12 25 12 88v106l30 4v-95q0 -23 -4 -43q50 73 112 73q39 0 58 -23.5t19 -59.5q0 -28 -11 -56q-47 -26 -144 -26zM171 -12q-71 0 -131 10v36q76 -9 140 -9
q126 0 222 41q-4 91 -54.5 173t-157.5 181l24 24q118 -104 168.5 -197.5t50.5 -165.5q0 -24 -4 -39q-95 -54 -258 -54z" />
    <glyph glyph-name="uniFB89" unicode="&#x688;" horiz-adv-x="535" arabic-form="final" 
d="M203 531q69 0 120 16q4 12 4 26q0 62 -55 62t-119 -103q15 -1 50 -1zM199 501q-65 0 -111 6v29l39 -3q12 25 12 88v106l30 4v-95q0 -23 -4 -43q50 73 112 73q39 0 58 -23.5t19 -59.5q0 -28 -11 -56q-47 -26 -144 -26zM512 0q-68 0 -100 47q-104 -57 -259 -57
q-63 0 -113 8v36q56 -7 115 -7q139 0 240 49l-22 51q-65 160 -167 283l24 24q101 -116 175 -294q27 -69 47.5 -86t72.5 -17h10v-37h-23z" />
    <glyph glyph-name="uniFB8A" unicode="&#x698;" horiz-adv-x="398" arabic-form="isolated" 
d="M230 573l39 -36l-35 -37l-38 33zM298 476l39 -36l-35 -37l-38 33zM168 472l39 -36l-35 -37l-38 33zM318 78q0 -154 -71 -232t-183 -78q-31 0 -64 6l8 34q25 -5 57 -5q56 0 99.5 23t69 62.5t38.5 88t13 102.5q0 98 -32 235l35 10q30 -132 30 -246z" />
    <glyph glyph-name="uniFB8B" unicode="&#x698;" horiz-adv-x="514" arabic-form="final" 
d="M230 573l39 -36l-35 -37l-38 33zM298 476l39 -36l-35 -37l-38 33zM168 472l39 -36l-35 -37l-38 33zM64 -232q-31 0 -64 6l8 34q25 -5 57 -5q56 0 100 23t69.5 62.5t38.5 88t13 102.5q0 75 -41 236l33 9l17.5 -78t18.5 -79q16 -65 61.5 -97.5t110.5 -32.5h28v-37h-36
q-113 0 -160 87v-9q0 -154 -71 -232t-183 -78z" />
    <glyph glyph-name="uniFB8C" unicode="&#x691;" horiz-adv-x="398" arabic-form="isolated" 
d="M217 433q69 0 120 16q4 12 4 26q0 62 -55 62t-119 -103q15 -1 50 -1zM213 403q-65 0 -111 6v29l39 -3q12 25 12 88v106l30 4v-95q0 -23 -4 -43q50 73 112 73q39 0 58 -23.5t19 -59.5q0 -28 -11 -56q-47 -26 -144 -26zM318 78q0 -154 -71 -232t-183 -78q-31 0 -64 6l8 34
q25 -5 57 -5q56 0 99.5 23t69 62.5t38.5 88t13 102.5q0 98 -32 235l35 10q30 -132 30 -246z" />
    <glyph glyph-name="uniFB8D" unicode="&#x691;" horiz-adv-x="514" arabic-form="final" 
d="M216 433q69 0 120 16q4 12 4 26q0 62 -55 62t-119 -103q15 -1 50 -1zM212 403q-64 0 -111 6v29l39 -3q12 25 12 88v106l30 4v-95q0 -23 -4 -43q50 73 112 73q39 0 58 -23.5t19 -59.5q0 -28 -11 -56q-47 -26 -144 -26zM64 -232q-31 0 -64 6l8 34q25 -5 57 -5q56 0 100 23
t69.5 62.5t38.5 88t13 102.5q0 75 -41 236l33 9l17.5 -78t18.5 -79q16 -65 61.5 -97.5t110.5 -32.5h28v-37h-36q-113 0 -160 87v-9q0 -154 -71 -232t-183 -78z" />
    <glyph glyph-name="uniFB8E" unicode="&#x6a9;" horiz-adv-x="887" arabic-form="isolated" 
d="M408 -12q-99 0 -165.5 14t-101 41t-48 58.5t-13.5 75.5q0 75 34 179l32 -10q-30 -102 -30 -160q0 -36 11.5 -62.5t42 -50t93.5 -36t157 -12.5q203 0 337 55q1 6 1 18q0 102 -84 194t-230 141v45q172 147 403 225v-37q-203 -64 -373 -206q155 -61 236 -155t81 -199
q0 -23 -3 -49q-54 -30 -160.5 -49.5t-219.5 -19.5z" />
    <glyph glyph-name="uniFB8F" unicode="&#x6a9;" horiz-adv-x="995" arabic-form="final" 
d="M977 0q-63 0 -97.5 16.5t-61.5 51.5q-66 -36 -174 -58t-236 -22q-99 0 -165.5 14t-101 41t-48 58.5t-13.5 75.5q0 75 34 179l32 -9q-30 -109 -30 -161q0 -36 11.5 -62.5t42 -50t93.5 -36t157 -12.5q236 0 378 72q-5 6 -13 18q-36 54 -66.5 92t-104.5 103t-172 124v45
q170 145 405 224v-37q-202 -63 -375 -208q32 -20 61 -40.5l51.5 -37.5t46 -38l38.5 -34t34 -34l27.5 -30.5t25 -30.5t20.5 -27t19 -27t17 -23q22 -30 32 -42t30.5 -29t45 -22.5t60.5 -5.5h15v-37h-18z" />
    <glyph glyph-name="uniFB90" unicode="&#x6a9;" horiz-adv-x="488" arabic-form="initial" 
d="M0 0q-19 0 -19 18q0 19 19 19h22q206 0 337 53v8q0 102 -84 194t-229 141v46q174 146 402 224v-37q-203 -64 -373 -206q155 -61 236 -155t81 -199q0 -25 -2 -39q-60 -31 -157 -49t-206 -18h-27z" />
    <glyph glyph-name="uniFB91" unicode="&#x6a9;" horiz-adv-x="513" arabic-form="medial" 
d="M0 0q-19 0 -19 18q0 19 19 19h19q207 0 323 61q-2 3 -5 8.5t-5 8.5q-24 41 -41.5 67.5t-52.5 71t-85 89.5t-114 90v42q172 148 406 228v-37q-206 -65 -377 -209l58 -44.5t50.5 -43.5l41 -39t35.5 -39l28.5 -34.5t25 -34.5l19.5 -30l19 -30t16 -26q3 -4 12 -19t11.5 -18.5
l10.5 -15t11.5 -14.5l12 -10.5t15.5 -9.5t17.5 -6t22.5 -5t26 -1h13v-37h-16q-54 0 -84 17t-53 52q-59 -33 -150.5 -51t-186.5 -18h-23z" />
    <glyph glyph-name="uniFB92" unicode="&#x6af;" horiz-adv-x="887" arabic-form="isolated" 
d="M520 606v39q97 67 226 116v-36q-127 -53 -226 -119zM408 -12q-99 0 -165.5 14t-101 41t-48 58.5t-13.5 75.5q0 75 34 179l32 -10q-30 -96 -30 -160q0 -36 11.5 -62.5t42 -50t93.5 -36t157 -12.5q203 0 337 55q1 6 1 18q0 102 -84.5 194t-230.5 141v45q174 147 404 225
v-37q-203 -64 -373 -206q155 -61 236 -155t81 -199q0 -23 -3 -49q-54 -30 -160.5 -49.5t-219.5 -19.5z" />
    <glyph glyph-name="uniFB93" unicode="&#x6af;" horiz-adv-x="995" arabic-form="final" 
d="M520 606v39q97 67 226 116v-36q-127 -53 -226 -119zM977 0q-63 0 -97.5 16.5t-61.5 51.5q-66 -36 -174 -58t-236 -22q-99 0 -165.5 14t-101 41t-48 58.5t-13.5 75.5q0 75 34 179l32 -10q-30 -100 -30 -160q0 -36 11.5 -62.5t42 -50t93.5 -36t157 -12.5q236 0 378 72
q-5 6 -13 18q-28 41 -49 67.5t-62 71t-99 90t-133 90.5v44q166 144 405 225v-37q-202 -63 -375 -208q32 -20 61 -40.5l51.5 -37.5t46 -38l38.5 -34t34 -34l27.5 -30.5t25 -30.5t20.5 -27t19 -27t17 -23q22 -30 32 -42t30.5 -29t45 -22.5t60.5 -5.5h15v-37h-18z" />
    <glyph glyph-name="uniFB94" unicode="&#x6af;" horiz-adv-x="488" arabic-form="initial" 
d="M122 606v39q97 67 226 116v-36q-127 -53 -226 -119zM0 0q-19 0 -19 18q0 19 19 19h22q206 0 337 53v8q0 102 -84 194t-230 141v46q173 146 403 224v-37q-203 -64 -373 -206q155 -61 236 -155t81 -199q0 -25 -2 -39q-60 -31 -157 -49t-206 -18h-27z" />
    <glyph glyph-name="uniFB95" unicode="&#x6af;" horiz-adv-x="513" arabic-form="medial" 
d="M122 606v39q97 67 226 116v-36q-127 -53 -226 -119zM0 0q-19 0 -19 18q0 19 19 19h19q211 0 324 60q-2 3 -5.5 9t-5.5 9q-24 41 -41.5 67.5t-52.5 71t-85 89.5t-114 90v43q173 147 406 227v-37q-206 -65 -377 -209l58 -44.5t50.5 -43.5l41 -39t35.5 -39l28.5 -34.5
t25 -34.5l19.5 -30l19 -30t16 -26q3 -4 12 -19t11.5 -18.5l10.5 -15t11.5 -14.5l12 -10.5t15.5 -9.5t17.5 -6t22.5 -5t26 -1h13v-37h-16q-54 0 -84 17t-53 52q-59 -33 -150.5 -51t-186.5 -18h-23z" />
    <glyph glyph-name="uniFB9E" unicode="&#x6ba;" horiz-adv-x="767" arabic-form="isolated" 
d="M647 310q40 -137 40 -239q0 -133 -87.5 -210t-252.5 -77q-130 0 -198.5 60t-68.5 169q0 119 52 230l31 -14q-47 -103 -47 -209q0 -92 58 -145.5t180 -53.5q139 0 218.5 65t79.5 173q0 117 -38 239z" />
    <glyph glyph-name="uniFB9F" unicode="&#x6ba;" horiz-adv-x="818" arabic-form="final" 
d="M347 -241q-130 0 -198.5 60t-68.5 169q0 119 52 230l31 -14q-47 -103 -47 -209q0 -92 58 -145.5t180 -53.5q139 0 218.5 65t79.5 173q0 117 -38 239l33 12q37 -128 39 -210q51 -38 125 -38h7v-37h-16q-64 0 -115 30q-5 -126 -93 -198.5t-247 -72.5z" />
    <glyph glyph-name="uniFBA6" unicode="&#x6c1;" horiz-adv-x="486" arabic-form="isolated" 
d="M218 419q99 -59 153.5 -133.5t54.5 -150.5q0 -63 -49.5 -103.5t-145.5 -40.5q-80 0 -125.5 37.5t-45.5 104.5q0 73 39 139t119 147zM235 26q72 0 115.5 28t43.5 78q0 62 -49.5 132t-121.5 112q-130 -127 -130 -231q0 -119 142 -119z" />
    <glyph glyph-name="uniFBA7" unicode="&#x6c1;" horiz-adv-x="507" arabic-form="final" 
d="M474 37h33v-37h-31q-45 0 -81 18t-59 43.5t-43.5 51.5t-44.5 44t-51 18q-49 0 -122 -68l-25 26q79 79 153 79q33 0 60.5 -18t48 -43.5l41.5 -51.5t52 -44t69 -18z" />
    <glyph glyph-name="uniFBA8" unicode="&#x6c1;" horiz-adv-x="493" arabic-form="initial" 
d="M0 0q-19 0 -19 18q0 19 19 19h5q87 0 149 47q61 -46 130 -46q45 0 70.5 22.5t25.5 62.5q0 58 -33 111l31 21q35 -65 35 -129q0 -54 -34 -89t-103 -35q-67 0 -125 41q-49 -43 -146 -43h-5zM289 -348q-94 32 -94 113q0 90 91 166l23 -24q-78 -75 -78 -135q0 -61 74 -88z
" />
    <glyph glyph-name="uniFBA9" unicode="&#x6c1;" horiz-adv-x="623" arabic-form="medial" 
d="M413 -325q-193 125 -237 342q-74 -17 -160 -17h-16q-19 0 -19 18q0 19 19 19h16q99 0 187 24q19 -120 76 -206t135 -138q-20 51 -20 123q0 91 54 144t140 53h35v-37h-38q-84 0 -120.5 -45t-36.5 -113t24 -133zM138 -432q-94 32 -94 113q0 90 91 166l23 -24
q-78 -75 -78 -135q0 -61 74 -88z" />
    <glyph glyph-name="uniFBAA" unicode="&#x6be;" horiz-adv-x="661" arabic-form="isolated" 
d="M472 -27q-47 0 -117 20.5t-129 55.5q-64 -32 -150 -57l-16 34q73 18 134 44q-94 68 -94 152q0 116 143 226q153 -56 245.5 -159.5t92.5 -207.5q0 -50 -23.5 -79t-85.5 -29zM132 228q0 -79 95 -141q65 34 97.5 74.5t32.5 78.5q0 117 -109 172q-116 -90 -116 -184zM476 7
q40 0 56.5 16.5t16.5 49.5q0 75 -47 148.5t-165 155.5q51 -50 51 -133q0 -100 -128 -177q111 -60 216 -60z" />
    <glyph glyph-name="uniFBAB" unicode="&#x6be;" horiz-adv-x="711" arabic-form="final" 
d="M253 64v-18q126 33 196.5 85t70.5 112q0 82 -97 170q-170 -146 -170 -349zM470 -190q31 0 60 6q9 34 9 66q0 117 -112 197q-70 -40 -171 -66q12 -100 68.5 -151.5t145.5 -51.5zM555 -207q-45 -16 -91 -16q-101 0 -165 62t-77 165q-98 -24 -154 -64l-18 24q63 46 169 74
v15q0 124 50.5 222t155.5 182q70 -58 99 -106.5t29 -106.5q0 -81 -99 -148q103 -59 229 -59h28v-37h-27q-109 0 -164 31q51 -58 51 -149q0 -47 -16 -89z" />
    <glyph glyph-name="uniFBAC" unicode="&#x6be;" horiz-adv-x="665" arabic-form="initial" 
d="M136 202q0 -75 84 -133q70 25 105.5 65.5t35.5 77.5q0 118 -109 174q-116 -90 -116 -184zM480 -19q40 0 56.5 16.5t16.5 49.5q0 75 -47 148.5t-164 154.5q51 -48 51 -132q0 -105 -140 -171q54 -31 117 -48.5t110 -17.5zM476 -53q-50 0 -125 23t-136 62q-94 -32 -200 -32
h-15q-19 0 -19 18q0 19 19 19h15q96 0 167 19q-78 64 -78 140q0 116 143 226q153 -56 245.5 -159.5t92.5 -207.5q0 -50 -23.5 -79t-85.5 -29z" />
    <glyph glyph-name="uniFBAD" unicode="&#x6be;" horiz-adv-x="600" arabic-form="medial" 
d="M142 64v-18q121 20 193.5 75.5t72.5 122.5q0 83 -96 169q-170 -146 -170 -349zM360 -190q31 0 59 7q9 33 9 65q0 116 -106 193q-72 -46 -177 -65q12 -98 69 -149t146 -51zM444 -207q-45 -16 -91 -16q-101 0 -165 62t-77 166q-47 -5 -90 -5h-21q-19 0 -19 18q0 19 19 19
h19q42 0 89 5v11q0 241 206 404q69 -57 98 -106t29 -107q0 -37 -23.5 -77.5t-68.5 -73.5q94 -56 223 -56h28v-37h-27q-109 0 -164 31q51 -58 51 -149q0 -47 -16 -89z" />
    <glyph glyph-name="uniFBAE" unicode="&#x6d2;" horiz-adv-x="771" arabic-form="isolated" 
d="M751 37l-9 -37h-430q-232 0 -232 148q0 89 68.5 154.5t156.5 65.5q105 0 139 -113l-34 -14q-17 48 -43 67t-66 19q-74 0 -127.5 -53t-53.5 -116q0 -25 8 -44t30 -38t69 -29t117 -10h407z" />
    <glyph glyph-name="uniFBAF" unicode="&#x6d2;" horiz-adv-x="758" arabic-form="final" 
d="M636 -230l-9 -37h-315q-232 0 -232 120q0 84 75 134t179 50h424v-37h-429q-90 0 -150 -40t-60 -98q0 -19 8 -33.5t30 -29t69 -22t117 -7.5h293z" />
    <glyph glyph-name="uniFBB0" unicode="&#x6d3;" horiz-adv-x="771" arabic-form="isolated" 
d="M395 494q-96 -17 -198 -57l-10 29q44 18 74 26q-53 26 -53 81q0 42 24.5 63.5t60.5 21.5q33 0 71 -18l-12 -28q-31 13 -59 13q-25 0 -40.5 -13t-15.5 -39q0 -27 21.5 -45t57.5 -18q8 0 73 13zM751 37l-9 -37h-430q-232 0 -232 148q0 89 68.5 154.5t156.5 65.5
q105 0 139 -113l-34 -14q-17 48 -43 67t-66 19q-74 0 -127.5 -53t-53.5 -116q0 -25 8 -44t30 -38t69 -29t117 -10h407z" />
    <glyph glyph-name="uniFBB1" unicode="&#x6d3;" horiz-adv-x="758" arabic-form="final" 
d="M350 167q-96 -17 -198 -57l-10 29q44 18 74 26q-53 26 -53 81q0 42 24.5 63.5t60.5 21.5q33 0 71 -18l-12 -28q-31 13 -59 13q-25 0 -40.5 -13t-15.5 -39q0 -27 21.5 -45t57.5 -18q8 0 73 13zM636 -230l-9 -37h-315q-232 0 -232 120q0 84 75 134t179 50h424v-37h-429
q-90 0 -150 -40t-60 -98q0 -19 8 -33.5t30 -29t69 -22t117 -7.5h293z" />
    <glyph glyph-name="uniFBFC" unicode="&#x6cc;" horiz-adv-x="789" arabic-form="isolated" 
d="M357 -221q-134 0 -205.5 65.5t-71.5 183.5q0 119 52 230l31 -15q-47 -103 -47 -208q0 -219 248 -219q124 0 206 53t86 141l-30 22.5t-36.5 23l-36 20t-43 21.5l-41.5 19.5l-46.5 21l-44.5 19.5v21q0 68 19.5 119t53.5 79.5t74 42.5t86 14q66 0 128 -38l-16 -32
q-52 34 -115 34q-185 0 -197 -217q100 -42 165 -76t115 -76q0 -114 -90 -181.5t-244 -67.5z" />
    <glyph glyph-name="uniFBFD" unicode="&#x6cc;" horiz-adv-x="777" arabic-form="final" 
d="M351 -240q-131 0 -201 63t-70 176q0 119 52 230l30 -15q-47 -103 -47 -208q0 -99 59 -154t184 -55q120 0 200.5 56.5t90.5 154.5q-101 12 -223 50l11 34q73 -24 165.5 -39.5t165.5 -15.5h9v-37h-9q-46 0 -83 4q-13 -109 -103 -176.5t-231 -67.5z" />
    <glyph glyph-name="uniFBFE" unicode="&#x6cc;" horiz-adv-x="321" arabic-form="initial" 
d="M0 0q-19 0 -19 18q0 19 19 19h3q127 0 199 42q5 32 5 65q0 101 -27 188l33 11q28 -96 28 -192q0 -54 -10 -93q-87 -58 -228 -58h-3zM156 -123l39 -36l-34 -38l-40 34zM25 -127l39 -36l-34 -38l-40 34z" />
    <glyph glyph-name="uniFBFF" unicode="&#x6cc;" horiz-adv-x="429" arabic-form="medial" 
d="M0 0q-19 0 -19 18q0 19 19 19h17q66 0 108 12t62 36.5t26.5 50.5t6.5 67v122l34 4v-126q0 -77 -23 -118q73 -48 191 -48h7v-37h-6q-134 0 -212 57q-55 -57 -197 -57h-14zM152 -127l39 -36l-34 -38l-40 34zM21 -131l39 -36l-34 -38l-40 34z" />
    <glyph glyph-name="uniFC5E" unicode="&#xfc5e;" arabic-form="isolated" 
d="M5 891v34q160 41 199 70q-53 4 -79 29.5t-26 65.5t25 68t67 28q37 0 61.5 -28t24.5 -71q0 -42 -19 -73q-46 -75 -253 -123zM130 1094q0 -72 100 -72q18 26 18 56q0 32 -18.5 54t-45.5 22q-23 0 -38.5 -17.5t-15.5 -42.5zM201 741q-28 0 -45 10q-34 -40 -90 -40
q-35 0 -54.5 18.5t-19.5 52.5q0 13 2.5 27.5t5.5 22.5l2 8l28 -3q-7 -24 -7 -44q0 -48 49 -48q39 0 62 29q-11 20 -11 51v30l32 6v-27q0 -59 49 -59q52 0 52 58q0 22 -10 54l32 11q10 -28 10 -61q0 -41 -20.5 -68.5t-66.5 -27.5z" />
    <glyph glyph-name="uniFC5F" unicode="&#xfc5f;" arabic-form="isolated" 
d="M199 933q-28 0 -45 10q-34 -40 -90 -40q-35 0 -54.5 18.5t-19.5 52.5q0 13 2.5 27.5t5.5 22.5l2 8l28 -3q-7 -24 -7 -44q0 -48 49 -48q39 0 62 29q-11 20 -11 51v30l32 6v-27q0 -59 49 -59q52 0 52 58q0 22 -10 54l32 11q10 -28 10 -61q0 -41 -20.5 -68.5t-66.5 -27.5z
M277 881v-32q-111 -18 -272 -59v32q129 37 272 59zM277 771v-32q-111 -18 -272 -59v32q129 37 272 59z" />
    <glyph glyph-name="uniFC60" unicode="&#xfc60;" arabic-form="isolated" 
d="M279 984v-32q-111 -18 -272 -59v32q129 37 272 59zM201 741q-28 0 -45 10q-34 -40 -90 -40q-35 0 -54.5 18.5t-19.5 52.5q0 13 2.5 27.5t5.5 22.5l2 8l28 -3q-7 -24 -7 -44q0 -48 49 -48q39 0 62 29q-11 20 -11 51v30l32 6v-27q0 -59 49 -59q52 0 52 58q0 22 -10 54
l32 11q10 -28 10 -61q0 -41 -20.5 -68.5t-66.5 -27.5z" />
    <glyph glyph-name="uniFC61" unicode="&#xfc61;" arabic-form="isolated" 
d="M145 1092q0 -65 96 -75q22 27 22 59t-18.5 54t-45.5 22q-23 0 -38.5 -17.5t-15.5 -42.5zM3 885l-7 32q33 16 45.5 30.5t12.5 35.5q0 20 -12 33.5t-35 13.5q-20 0 -40 -10l-12 26q27 14 59 14q31 0 50.5 -20.5t19.5 -58.5q0 -28 -18 -49q115 31 152 62q-52 4 -77.5 29
t-25.5 65t25 68t66 28q37 0 61.5 -28t24.5 -71q0 -40 -16 -69q-46 -81 -273 -131zM201 741q-28 0 -45 10q-34 -40 -90 -40q-35 0 -54.5 18.5t-19.5 52.5q0 13 2.5 27.5t5.5 22.5l2 8l28 -3q-7 -24 -7 -44q0 -48 49 -48q39 0 62 29q-11 20 -11 51v30l32 6v-27q0 -59 49 -59
q52 0 52 58q0 22 -10 54l32 11q10 -28 10 -61q0 -41 -20.5 -68.5t-66.5 -27.5z" />
    <glyph glyph-name="uniFC62" unicode="&#xfc62;" arabic-form="isolated" 
d="M199 841q-28 0 -45 10q-34 -40 -90 -40q-35 0 -54.5 18.5t-19.5 52.5q0 13 2.5 27.5t5.5 22.5l2 8l28 -3q-7 -24 -7 -44q0 -48 49 -48q39 0 62 29q-11 20 -11 51v30l32 6v-27q0 -59 49 -59q52 0 52 58q0 22 -10 54l32 11q10 -28 10 -61q0 -41 -20.5 -68.5t-66.5 -27.5z
M272 794v-32q-111 -18 -272 -59v32q129 37 272 59z" />
    <glyph glyph-name="uniFC63" unicode="&#xfc63;" arabic-form="isolated" 
d="M117 1097l35 7q8 -80 8 -189l-33 -2q0 94 -10 184zM201 741q-28 0 -45 10q-34 -40 -90 -40q-35 0 -54.5 18.5t-19.5 52.5q0 13 2.5 27.5t5.5 22.5l2 8l28 -3q-7 -24 -7 -44q0 -48 49 -48q39 0 62 29q-11 20 -11 51v30l32 6v-27q0 -59 49 -59q52 0 52 58q0 22 -10 54
l32 11q10 -28 10 -61q0 -41 -20.5 -68.5t-66.5 -27.5z" />
    <glyph glyph-name="uniFDF2" unicode="&#xfdf2;" horiz-adv-x="1268" arabic-form="isolated" 
d="M640 1017l35 7q8 -80 8 -189l-33 -2q0 94 -10 184zM1178 0h-35v720l35 4v-724zM724 661q-28 0 -45 10q-34 -40 -90 -40q-35 0 -54.5 18.5t-19.5 52.5q0 13 2.5 27.5t4.5 22.5l3 8l28 -3q-7 -24 -7 -44q0 -48 49 -48q39 0 62 29q-11 20 -11 51v30l32 6v-27q0 -59 49 -59
q52 0 52 58q0 22 -10 54l32 11q10 -28 10 -61q0 -41 -20.5 -68.5t-66.5 -27.5zM830 8q-124 0 -153 102q-27 -102 -160 -102q-127 0 -145 97q-40 -5 -90 -5q-94 0 -150.5 24t-56.5 74q0 97 93 170.5t243 73.5q-9 -252 -9 -292q0 -55 26.5 -80t95.5 -25q44 0 73 13.5t42 41
t17.5 56.5t4.5 72v348l35 4v-355q0 -98 31.5 -139t102.5 -41q55 0 120 24q6 35 6 97q0 93 -23 461l35 5q24 -381 24 -468q0 -70 -13 -120q-66 -36 -149 -36zM302 134q35 0 66 4v7q0 9 1 37t2.5 91t3.5 132q-116 -4 -190.5 -67t-74.5 -133q0 -33 48.5 -52t143.5 -19z" />
    <glyph glyph-name="uniFDFC" unicode="&#xfdfc;" horiz-adv-x="1111" arabic-form="isolated" 
d="M286 -58q-100 0 -153 52t-53 146q0 100 54 220l29 -14q-48 -106 -48 -199q0 -78 44.5 -123t133.5 -45q105 0 164.5 60.5t59.5 172.5q0 1 -4 177q-75 -40 -147 -40q-87 0 -131.5 42t-44.5 119q0 54 21 120l34 -10q-20 -60 -20 -106q0 -130 145 -130q67 0 143 43
q-1 21 -5 238l35 4l2.5 -137t1.5 -85l126 87v132l34 5v-116q115 69 225 69q49 0 95 -13l-5 -29q-44 10 -90 10q-107 0 -225 -75v-280q0 -109 29 -149.5t112 -40.5q84 0 149 44q3 27 3 59q0 98 -29 193l32 10q28 -96 28 -192q0 -54 -10 -93q-87 -57 -177 -57
q-100 0 -135.5 52.5t-35.5 167.5v264q-15 -10 -58 -41t-68 -46q1 -41 1.5 -76.5t1 -54t1 -32.5t0.5 -20.5v-10.5q0 -128 -68.5 -200t-196.5 -72zM923 -101l39 -36l-34 -38l-40 34zM792 -105l39 -36l-34 -38l-40 34z" />
    <glyph glyph-name="uniFE81" unicode="&#x622;" horiz-adv-x="215" arabic-form="isolated" 
d="M251 712l14 -24q-37 -26 -84 -26q-27 0 -75 15t-66 15q-20 0 -33 -7t-30 -25l-27 17q40 48 94 48q19 0 63.5 -15.5t73.5 -15.5q34 0 70 18zM125 0h-35v606l35 4v-610z" />
    <glyph glyph-name="uniFE82" unicode="&#x622;" horiz-adv-x="313" arabic-form="final" 
d="M251 712l14 -24q-37 -26 -84 -26q-27 0 -75 15t-66 15q-20 0 -33 -7t-30 -25l-27 17q40 48 94 48q19 0 63.5 -15.5t73.5 -15.5q34 0 70 18zM313 37v-37h-21q-115 0 -158.5 60.5t-43.5 185.5v358l35 4v-361q0 -117 39.5 -163.5t135.5 -46.5h13z" />
    <glyph glyph-name="uniFE83" unicode="&#x623;" horiz-adv-x="215" arabic-form="isolated" 
d="M213 689q-96 -17 -198 -57l-10 29q44 18 74 26q-53 26 -53 81q0 42 24.5 63.5t60.5 21.5q33 0 71 -18l-12 -28q-31 13 -59 13q-25 0 -40.5 -13t-15.5 -39q0 -27 21.5 -45t57.5 -18q8 0 73 13zM125 0h-35v606l35 4v-610z" />
    <glyph glyph-name="uniFE84" unicode="&#x623;" horiz-adv-x="313" arabic-form="final" 
d="M233 689q-96 -17 -198 -57l-10 29q44 18 74 26q-53 26 -53 81q0 42 24.5 63.5t60.5 21.5q33 0 71 -18l-12 -28q-31 13 -59 13q-25 0 -40.5 -13t-15.5 -39q0 -27 21.5 -45t57.5 -18q8 0 73 13zM313 37v-37h-21q-115 0 -158.5 60.5t-43.5 185.5v358l35 4v-361
q0 -117 39.5 -163.5t135.5 -46.5h13z" />
    <glyph glyph-name="uniFE85" unicode="&#x624;" horiz-adv-x="513" arabic-form="isolated" 
d="M349 494q-96 -17 -198 -57l-10 29q44 18 74 26q-53 26 -53 81q0 42 24.5 63.5t60.5 21.5q33 0 71 -18l-12 -28q-31 13 -59 13q-25 0 -40.5 -13t-15.5 -39q0 -27 21.5 -45t57.5 -18q8 0 73 13zM258 34q74 0 143 20q-1 123 -42 202.5t-114 79.5q-67 0 -102.5 -53.5
t-35.5 -117.5q0 -66 32.5 -98.5t118.5 -32.5zM155 -236q-50 0 -105 13l8 33q47 -11 103 -11q66 0 114 20t73 55t37 70t15 76q-66 -20 -151 -20q-98 0 -136 42.5t-38 118.5q0 91 46.5 150t123.5 59q88 0 138 -84.5t50 -226.5q0 -140 -70.5 -217.5t-207.5 -77.5z" />
    <glyph glyph-name="uniFE86" unicode="&#x624;" horiz-adv-x="518" arabic-form="final" 
d="M349 494q-96 -17 -198 -57l-10 29q44 18 74 26q-53 26 -53 81q0 42 24.5 63.5t60.5 21.5q33 0 71 -18l-12 -28q-31 13 -59 13q-25 0 -40.5 -13t-15.5 -39q0 -27 21.5 -45t57.5 -18q8 0 73 13zM281 37h120v15q0 123 -41.5 203.5t-114.5 80.5q-67 0 -102.5 -53.5
t-35.5 -117.5t37 -96t137 -32zM155 -236q-50 0 -105 13l8 33q47 -11 103 -11q51 0 92 13t66 33t42.5 47.5t25 53.5t10.5 54h-110q-120 0 -166.5 42.5t-46.5 118.5q0 91 46.5 150t124.5 59q88 0 138.5 -84.5t50.5 -226.5v-22h84v-37h-88q-14 -113 -83.5 -174.5t-191.5 -61.5z
" />
    <glyph glyph-name="uniFE87" unicode="&#x625;" horiz-adv-x="215" arabic-form="isolated" 
d="M125 0h-35v720l35 4v-724zM226 -227q-96 -17 -198 -57l-10 29q44 18 74 26q-53 26 -53 81q0 42 24.5 63.5t60.5 21.5q33 0 71 -18l-12 -28q-31 13 -59 13q-25 0 -40.5 -13t-15.5 -39q0 -27 21.5 -45t57.5 -18q8 0 73 13z" />
    <glyph glyph-name="uniFE88" unicode="&#x625;" horiz-adv-x="312" arabic-form="final" 
d="M312 37v-37h-21q-115 0 -158.5 60.5t-43.5 185.5v474l35 4v-477q0 -117 39.5 -163.5t135.5 -46.5h13zM259 -219q-96 -17 -198 -57l-10 29q44 18 74 26q-53 26 -53 81q0 42 24.5 63.5t60.5 21.5q33 0 71 -18l-12 -28q-31 13 -59 13q-25 0 -40.5 -13t-15.5 -39
q0 -27 21.5 -45t57.5 -18q8 0 73 13z" />
    <glyph glyph-name="uniFE89" unicode="&#x626;" horiz-adv-x="789" arabic-form="isolated" 
d="M348 351q-96 -17 -198 -57l-10 29q44 18 74 26q-53 26 -53 81q0 42 24.5 63.5t60.5 21.5q33 0 71 -18l-12 -28q-31 13 -59 13q-25 0 -40.5 -13t-15.5 -39q0 -27 21.5 -45t57.5 -18q8 0 73 13zM357 -221q-134 0 -205.5 65.5t-71.5 183.5q0 119 52 230l31 -15
q-47 -103 -47 -208q0 -219 248 -219q124 0 206 53t86 141l-30 22.5t-36.5 23l-36 20t-43 21.5l-41.5 19.5l-46.5 21l-44.5 19.5v21q0 68 19.5 119t53.5 79.5t74 42.5t86 14q66 0 128 -38l-16 -32q-52 34 -115 34q-185 0 -197 -217q100 -42 165 -76t115 -76
q0 -114 -90 -181.5t-244 -67.5z" />
    <glyph glyph-name="uniFE8A" unicode="&#x626;" horiz-adv-x="777" arabic-form="final" 
d="M498 231q-96 -17 -198 -57l-10 29q44 18 74 26q-53 26 -53 81q0 42 24.5 63.5t60.5 21.5q33 0 71 -18l-12 -28q-31 13 -59 13q-25 0 -40.5 -13t-15.5 -39q0 -27 21.5 -45t57.5 -18q8 0 73 13zM351 -240q-131 0 -201 63t-70 176q0 119 52 230l30 -15q-47 -103 -47 -208
q0 -99 59 -154t184 -55q120 0 200.5 56.5t90.5 154.5q-101 12 -223 50l11 34q73 -24 165.5 -39.5t165.5 -15.5h9v-37h-9q-46 0 -83 4q-13 -109 -103 -176.5t-231 -67.5z" />
    <glyph glyph-name="uniFE8B" unicode="&#x626;" horiz-adv-x="321" arabic-form="initial" 
d="M217 440q-96 -17 -198 -57l-10 29q44 18 74 26q-53 26 -53 81q0 42 24.5 63.5t60.5 21.5q33 0 71 -18l-12 -28q-31 13 -59 13q-25 0 -40.5 -13t-15.5 -39q0 -27 21.5 -45t57.5 -18q8 0 73 13zM0 0q-19 0 -19 18q0 19 19 19h3q127 0 199 42q5 32 5 65q0 101 -27 188l33 11
q28 -96 28 -192q0 -54 -10 -93q-87 -58 -228 -58h-3z" />
    <glyph glyph-name="uniFE8C" unicode="&#x626;" horiz-adv-x="429" arabic-form="medial" 
d="M217 420q-96 -17 -198 -57l-10 29q44 18 74 26q-53 26 -53 81q0 42 24.5 63.5t60.5 21.5q33 0 71 -18l-12 -28q-31 13 -59 13q-25 0 -40.5 -13t-15.5 -39q0 -27 21.5 -45t57.5 -18q8 0 73 13zM0 0q-19 0 -19 18q0 19 19 19h17q66 0 108 12t62 36.5t26.5 50.5t6.5 67v122
l34 4v-126q0 -77 -23 -118q73 -48 191 -48h7v-37h-6q-134 0 -212 57q-55 -57 -197 -57h-14z" />
    <glyph glyph-name="uniFE8D" unicode="&#x627;" horiz-adv-x="215" arabic-form="isolated" 
d="M125 0h-35v720l35 4v-724z" />
    <glyph glyph-name="uniFE8E" unicode="&#x627;" horiz-adv-x="312" arabic-form="final" 
d="M312 37v-37h-21q-115 0 -158.5 60.5t-43.5 185.5v474l35 4v-477q0 -117 39.5 -163.5t135.5 -46.5h13z" />
    <glyph glyph-name="uniFE8F" unicode="&#x628;" horiz-adv-x="907" arabic-form="isolated" 
d="M398 -12q-95 0 -160 14t-98.5 41t-46.5 58.5t-13 75.5q0 75 34 179l32 -9q-29 -104 -29 -161q0 -36 11 -62.5t40 -50t90 -36t152 -12.5q223 0 379 77q3 28 3 59q0 85 -27 191l34 11q28 -101 28 -192q0 -52 -11 -93q-64 -40 -174.5 -65t-243.5 -25zM436 -129l41 -38
l-36 -39l-41 35z" />
    <glyph glyph-name="uniFE90" unicode="&#x628;" horiz-adv-x="1013" arabic-form="final" 
d="M997 0q-78 0 -126 18t-85 54q-47 -47 -140.5 -65.5t-247.5 -18.5q-95 0 -160 14t-98.5 41t-46.5 58.5t-13 75.5q0 83 33 179l32 -9q-29 -98 -29 -161q0 -36 11.5 -62.5t41.5 -50t90.5 -36t150.5 -12.5q119 0 198.5 12.5t119.5 38t55 54.5t15 71v124l35 4v-126
q0 -59 -24 -100q35 -32 77 -49t121 -17h6v-37h-16zM436 -129l41 -38l-36 -39l-41 35z" />
    <glyph glyph-name="uniFE91" unicode="&#x628;" horiz-adv-x="321" arabic-form="initial" 
d="M0 0q-19 0 -19 18q0 19 19 19h3q127 0 199 42q5 32 5 65q0 101 -27 188l33 11q28 -96 28 -192q0 -54 -10 -93q-87 -58 -228 -58h-3zM83 -119l41 -38l-36 -39l-41 35z" />
    <glyph glyph-name="uniFE92" unicode="&#x628;" horiz-adv-x="429" arabic-form="medial" 
d="M0 0q-19 0 -19 18q0 19 19 19h17q66 0 108 12t62 36.5t26.5 50.5t6.5 67v122l34 4v-126q0 -77 -23 -118q73 -48 191 -48h7v-37h-6q-134 0 -212 57q-55 -57 -197 -57h-14zM62 -121l41 -38l-36 -39l-41 35z" />
    <glyph glyph-name="uniFE93" unicode="&#x629;" horiz-adv-x="486" arabic-form="isolated" 
d="M305 576l39 -36l-34 -38l-40 34zM174 572l39 -36l-34 -38l-40 34zM218 419q99 -59 153.5 -133.5t54.5 -150.5q0 -63 -49.5 -103.5t-145.5 -40.5q-80 0 -125.5 37.5t-45.5 104.5q0 73 39 139t119 147zM235 26q72 0 115.5 28t43.5 78q0 62 -49.5 132t-121.5 112
q-130 -127 -130 -231q0 -119 142 -119z" />
    <glyph glyph-name="uniFE94" unicode="&#x629;" horiz-adv-x="568" arabic-form="final" 
d="M400 606l39 -36l-34 -38l-40 34zM269 602l39 -36l-34 -38l-40 34zM568 0h-18q-125 0 -153 84q-59 -8 -123 -8q-199 0 -199 105t103.5 178t244.5 73v-284q0 -58 29 -84.5t102 -26.5h14v-37zM280 111q71 0 110 7q-1 7 -1 24v252q-122 -4 -201 -70.5t-79 -135.5
q0 -77 171 -77z" />
    <glyph glyph-name="uniFE95" unicode="&#x62a;" horiz-adv-x="907" arabic-form="isolated" 
d="M535 493l39 -36l-34 -38l-40 34zM404 489l39 -36l-34 -38l-40 34zM398 -12q-95 0 -160 14t-98.5 41t-46.5 58.5t-13 75.5q0 75 34 179l32 -9q-29 -104 -29 -161q0 -36 11 -62.5t40 -50t90 -36t152 -12.5q223 0 379 77q3 28 3 59q0 85 -27 191l34 11q28 -101 28 -192
q0 -52 -11 -93q-64 -40 -174.5 -65t-243.5 -25z" />
    <glyph glyph-name="uniFE96" unicode="&#x62a;" horiz-adv-x="1013" arabic-form="final" 
d="M550 476l39 -36l-34 -38l-40 34zM419 472l39 -36l-34 -38l-40 34zM997 0q-78 0 -126 18t-85 54q-47 -47 -140.5 -65.5t-247.5 -18.5q-95 0 -160 14t-98.5 41t-46.5 58.5t-13 75.5q0 83 33 179l32 -9q-29 -98 -29 -161q0 -36 11.5 -62.5t41.5 -50t90.5 -36t150.5 -12.5
q119 0 198.5 12.5t119.5 38t55 54.5t15 71v124l35 4v-126q0 -59 -24 -100q35 -32 77 -49t121 -17h6v-37h-16z" />
    <glyph glyph-name="uniFE97" unicode="&#x62a;" horiz-adv-x="321" arabic-form="initial" 
d="M183 500l39 -36l-34 -38l-40 34zM52 496l39 -36l-34 -38l-40 34zM0 0q-19 0 -19 18q0 19 19 19h3q127 0 199 42q5 32 5 65q0 101 -27 188l33 11q28 -96 28 -192q0 -54 -10 -93q-87 -58 -228 -58h-3z" />
    <glyph glyph-name="uniFE98" unicode="&#x62a;" horiz-adv-x="429" arabic-form="medial" 
d="M198 495l39 -36l-34 -38l-40 34zM67 491l39 -36l-34 -38l-40 34zM0 0q-19 0 -19 18q0 19 19 19h17q66 0 108 12t62 36.5t26.5 50.5t6.5 67v122l34 4v-126q0 -77 -23 -118q73 -48 191 -48h7v-37h-6q-134 0 -212 57q-55 -57 -197 -57h-14z" />
    <glyph glyph-name="uniFE99" unicode="&#x62b;" horiz-adv-x="907" arabic-form="isolated" 
d="M474 568l39 -36l-35 -37l-38 33zM542 471l39 -36l-35 -37l-38 33zM412 467l39 -36l-35 -37l-38 33zM398 -12q-95 0 -160 14t-98.5 41t-46.5 58.5t-13 75.5q0 75 34 179l32 -9q-29 -104 -29 -161q0 -36 11 -62.5t40 -50t90 -36t152 -12.5q223 0 379 77q3 28 3 59
q0 85 -27 191l34 11q28 -101 28 -192q0 -52 -11 -93q-64 -40 -174.5 -65t-243.5 -25z" />
    <glyph glyph-name="uniFE9A" unicode="&#x62b;" horiz-adv-x="1013" arabic-form="final" 
d="M484 558l39 -36l-35 -37l-38 33zM552 461l39 -36l-35 -37l-38 33zM422 457l39 -36l-35 -37l-38 33zM997 0q-78 0 -126 18t-85 54q-47 -47 -140.5 -65.5t-247.5 -18.5q-95 0 -160 14t-98.5 41t-46.5 58.5t-13 75.5q0 83 33 179l32 -9q-29 -98 -29 -161q0 -36 11.5 -62.5
t41.5 -50t90.5 -36t150.5 -12.5q119 0 198.5 12.5t119.5 38t55 54.5t15 71v124l35 4v-126q0 -59 -24 -100q35 -32 77 -49t121 -17h6v-37h-16z" />
    <glyph glyph-name="uniFE9B" unicode="&#x62b;" horiz-adv-x="321" arabic-form="initial" 
d="M99 578l39 -36l-35 -37l-38 33zM167 481l39 -36l-35 -37l-38 33zM37 477l39 -36l-35 -37l-38 33zM0 0q-19 0 -19 18q0 19 19 19h3q127 0 199 42q5 32 5 65q0 101 -27 188l33 11q28 -96 28 -192q0 -54 -10 -93q-87 -58 -228 -58h-3z" />
    <glyph glyph-name="uniFE9C" unicode="&#x62b;" horiz-adv-x="429" arabic-form="medial" 
d="M129 583l39 -36l-35 -37l-38 33zM197 486l39 -36l-35 -37l-38 33zM67 482l39 -36l-35 -37l-38 33zM0 0q-19 0 -19 18q0 19 19 19h17q66 0 108 12t62 36.5t26.5 50.5t6.5 67v122l34 4v-126q0 -77 -23 -118q73 -48 191 -48h7v-37h-6q-134 0 -212 57q-55 -57 -197 -57h-14z
" />
    <glyph glyph-name="uniFE9D" unicode="&#x62c;" horiz-adv-x="636" arabic-form="isolated" 
d="M345 -274q-127 0 -196 57.5t-69 156.5q0 71 35.5 128t101.5 97t139 66.5t168 48.5q-42 20 -111 61.5t-117.5 62.5t-90.5 21q-58 0 -95 -62l-29 13q22 47 52 65t75 18q48 0 107.5 -27.5t137 -74.5t126.5 -69l-11 -31q-100 -21 -176.5 -47t-142 -63t-100.5 -88t-35 -113
q0 -89 64 -136.5t173 -47.5q118 0 243 57l12 -28q-117 -65 -261 -65zM365 35l41 -38l-36 -39l-41 35z" />
    <glyph glyph-name="uniFE9E" unicode="&#x62c;" horiz-adv-x="711" arabic-form="final" 
d="M596 -270q-115 -65 -246 -65q-129 0 -199.5 56t-70.5 153q0 226 371 307q-140 154 -229 154q-41 0 -64.5 -13.5t-46.5 -53.5l-29 13q23 50 55.5 69.5t88.5 19.5q62 0 127.5 -51t145.5 -142q5 -5 21 -23.5l21 -24l19 -20.5t21.5 -20.5t21 -16.5t23 -15l23 -10t27 -8
t28.5 -2h7v-37h-9q-19 0 -37.5 4.5t-31.5 8t-31 16.5t-26 18t-27.5 25l-23.5 24t-26 29.5t-24 27.5q-172 -41 -266 -105.5t-94 -167.5q0 -87 65 -133t176 -46q106 0 228 57zM357 -43l41 -38l-36 -39l-41 35z" />
    <glyph glyph-name="uniFE9F" unicode="&#x62c;" horiz-adv-x="690" arabic-form="initial" 
d="M0 0q-19 0 -19 18q0 19 19 19h8q81 0 156.5 7.5t145.5 23.5t110 26.5t104 31.5l76 25q-42 23 -127.5 77.5t-139.5 78.5t-105 24q-30 0 -49.5 -13t-36.5 -49l-30 13q20 46 47.5 64.5t70.5 18.5q58 0 119 -28.5t151 -86.5t150 -88l-14 -34q-16 -4 -136 -44.5t-233.5 -62
t-249.5 -21.5h-17zM319 -98l41 -38l-36 -39l-41 35z" />
    <glyph glyph-name="uniFEA0" unicode="&#x62c;" horiz-adv-x="820" arabic-form="medial" 
d="M0 0q-19 0 -19 18q0 19 19 19h13q276 0 547 63q-148 129 -226 185t-126 56q-29 0 -48.5 -13t-38.5 -49l-29 13q20 46 47.5 64.5t70.5 18.5q31 0 65.5 -14t89 -54.5t82 -63.5l105.5 -91q19 -17 29 -25q69 -60 110 -75t113 -15h16v-37h-23q-71 0 -113 15.5t-96 61.5
q-277 -77 -576 -77h-12zM338 -108l41 -38l-36 -39l-41 35z" />
    <glyph glyph-name="uniFEA1" unicode="&#x62d;" horiz-adv-x="636" arabic-form="isolated" 
d="M345 -274q-127 0 -196 57.5t-69 156.5q0 71 35.5 128t101.5 97t139 66.5t168 48.5q-42 20 -111 61.5t-117.5 62.5t-90.5 21q-58 0 -95 -62l-29 13q22 47 52 65t75 18q48 0 107.5 -27.5t137 -74.5t126.5 -69l-11 -31q-100 -21 -176.5 -47t-142 -63t-100.5 -88t-35 -113
q0 -89 64 -136.5t173 -47.5q118 0 243 57l12 -28q-117 -65 -261 -65z" />
    <glyph glyph-name="uniFEA2" unicode="&#x62d;" horiz-adv-x="711" arabic-form="final" 
d="M596 -270q-115 -65 -246 -65q-129 0 -199.5 56t-70.5 153q0 226 371 307q-140 154 -229 154q-41 0 -64.5 -13.5t-46.5 -53.5l-29 13q23 50 55.5 69.5t88.5 19.5q62 0 127.5 -51t145.5 -142q5 -5 21 -23.5l21 -24l19 -20.5t21.5 -20.5t21 -16.5t23 -15l23 -10t27 -8
t28.5 -2h7v-37h-9q-19 0 -37.5 4.5t-31.5 8t-31 16.5t-26 18t-27.5 25l-23.5 24t-26 29.5t-24 27.5q-172 -41 -266 -105.5t-94 -167.5q0 -87 65 -133t176 -46q106 0 228 57z" />
    <glyph glyph-name="uniFEA3" unicode="&#x62d;" horiz-adv-x="690" arabic-form="initial" 
d="M0 0q-19 0 -19 18q0 19 19 19h8q81 0 156.5 7.5t145.5 23.5t110 26.5t104 31.5l76 25q-42 23 -127.5 77.5t-139.5 78.5t-105 24q-30 0 -49.5 -13t-36.5 -49l-30 13q20 46 47.5 64.5t70.5 18.5q58 0 119 -28.5t151 -86.5t150 -88l-14 -34q-16 -4 -136 -44.5t-233.5 -62
t-249.5 -21.5h-17z" />
    <glyph glyph-name="uniFEA4" unicode="&#x62d;" horiz-adv-x="820" arabic-form="medial" 
d="M0 0q-19 0 -19 18q0 19 19 19h13q276 0 547 63q-148 129 -226 185t-126 56q-29 0 -48.5 -13t-38.5 -49l-29 13q20 46 47.5 64.5t70.5 18.5q31 0 65.5 -14t89 -54.5t82 -63.5l105.5 -91q19 -17 29 -25q69 -60 110 -75t113 -15h16v-37h-23q-71 0 -113 15.5t-96 61.5
q-277 -77 -576 -77h-12z" />
    <glyph glyph-name="uniFEA5" unicode="&#x62e;" horiz-adv-x="636" arabic-form="isolated" 
d="M340 599l41 -38l-36 -39l-41 35zM345 -274q-127 0 -196 57.5t-69 156.5q0 71 35.5 128t101.5 97t139 66.5t168 48.5q-42 20 -111 61.5t-117.5 62.5t-90.5 21q-58 0 -95 -62l-29 13q22 47 52 65t75 18q48 0 107.5 -27.5t137 -74.5t126.5 -69l-11 -31q-100 -21 -176.5 -47
t-142 -63t-100.5 -88t-35 -113q0 -89 64 -136.5t173 -47.5q118 0 243 57l12 -28q-117 -65 -261 -65z" />
    <glyph glyph-name="uniFEA6" unicode="&#x62e;" horiz-adv-x="711" arabic-form="final" 
d="M290 534l41 -38l-36 -39l-41 35zM596 -270q-115 -65 -246 -65q-129 0 -199.5 56t-70.5 153q0 226 371 307q-140 154 -229 154q-41 0 -64.5 -13.5t-46.5 -53.5l-29 13q23 50 55.5 69.5t88.5 19.5q62 0 127.5 -51t145.5 -142q5 -5 21 -23.5l21 -24l19 -20.5t21.5 -20.5
t21 -16.5t23 -15l23 -10t27 -8t28.5 -2h7v-37h-9q-19 0 -37.5 4.5t-31.5 8t-31 16.5t-26 18t-27.5 25l-23.5 24t-26 29.5t-24 27.5q-172 -41 -266 -105.5t-94 -167.5q0 -87 65 -133t176 -46q106 0 228 57z" />
    <glyph glyph-name="uniFEA7" unicode="&#x62e;" horiz-adv-x="690" arabic-form="initial" 
d="M290 529l41 -38l-36 -39l-41 35zM0 0q-19 0 -19 18q0 19 19 19h8q81 0 156.5 7.5t145.5 23.5t110 26.5t104 31.5l76 25q-42 23 -127.5 77.5t-139.5 78.5t-105 24q-30 0 -49.5 -13t-36.5 -49l-30 13q20 46 47.5 64.5t70.5 18.5q58 0 119 -28.5t151 -86.5t150 -88l-14 -34
q-16 -4 -136 -44.5t-233.5 -62t-249.5 -21.5h-17z" />
    <glyph glyph-name="uniFEA8" unicode="&#x62e;" horiz-adv-x="820" arabic-form="medial" 
d="M290 524l41 -38l-36 -39l-41 35zM0 0q-19 0 -19 18q0 19 19 19h13q276 0 547 63q-148 129 -226 185t-126 56q-29 0 -48.5 -13t-38.5 -49l-29 13q20 46 47.5 64.5t70.5 18.5q31 0 65.5 -14t89 -54.5t82 -63.5l105.5 -91q19 -17 29 -25q69 -60 110 -75t113 -15h16v-37h-23
q-71 0 -113 15.5t-96 61.5q-277 -77 -576 -77h-12z" />
    <glyph glyph-name="uniFEA9" unicode="&#x62f;" horiz-adv-x="513" arabic-form="isolated" 
d="M171 -12q-71 0 -131 10v36q76 -9 140 -9q126 0 222 41q-4 91 -54.5 173t-157.5 181l24 24q118 -104 168.5 -197.5t50.5 -165.5q0 -24 -4 -39q-95 -54 -258 -54z" />
    <glyph glyph-name="uniFEAA" unicode="&#x62f;" horiz-adv-x="535" arabic-form="final" 
d="M512 0q-68 0 -100 47q-104 -57 -259 -57q-63 0 -113 8v36q56 -7 115 -7q139 0 240 49l-22 51q-65 160 -167 283l24 24q101 -116 175 -294q27 -69 47.5 -86t72.5 -17h10v-37h-23z" />
    <glyph glyph-name="uniFEAB" unicode="&#x630;" horiz-adv-x="513" arabic-form="isolated" 
d="M208 604l41 -38l-36 -39l-41 35zM171 -12q-71 0 -131 10v36q76 -9 140 -9q126 0 222 41q-4 91 -54.5 173t-157.5 181l24 24q118 -104 168.5 -197.5t50.5 -165.5q0 -24 -4 -39q-95 -54 -258 -54z" />
    <glyph glyph-name="uniFEAC" unicode="&#x630;" horiz-adv-x="535" arabic-form="final" 
d="M218 604l41 -38l-36 -39l-41 35zM512 0q-68 0 -100 47q-104 -57 -259 -57q-63 0 -113 8v36q56 -7 115 -7q139 0 240 49l-22 51q-65 160 -167 283l24 24q101 -116 175 -294q27 -69 47.5 -86t72.5 -17h10v-37h-23z" />
    <glyph glyph-name="uniFEAD" unicode="&#x631;" horiz-adv-x="398" arabic-form="isolated" 
d="M318 78q0 -154 -71 -232t-183 -78q-31 0 -64 6l8 34q25 -5 57 -5q56 0 99.5 23t69 62.5t38.5 88t13 102.5q0 98 -32 235l35 10q30 -132 30 -246z" />
    <glyph glyph-name="uniFEAE" unicode="&#x631;" horiz-adv-x="514" arabic-form="final" 
d="M64 -232q-31 0 -64 6l8 34q25 -5 57 -5q56 0 100 23t69.5 62.5t38.5 88t13 102.5q0 75 -41 236l33 9l17.5 -78t18.5 -79q16 -65 61.5 -97.5t110.5 -32.5h28v-37h-36q-113 0 -160 87v-9q0 -154 -71 -232t-183 -78z" />
    <glyph glyph-name="uniFEAF" unicode="&#x632;" horiz-adv-x="398" arabic-form="isolated" 
d="M248 502l41 -38l-36 -39l-41 35zM318 78q0 -154 -71 -232t-183 -78q-31 0 -64 6l8 34q25 -5 57 -5q56 0 99.5 23t69 62.5t38.5 88t13 102.5q0 98 -32 235l35 10q30 -132 30 -246z" />
    <glyph glyph-name="uniFEB0" unicode="&#x632;" horiz-adv-x="514" arabic-form="final" 
d="M238 502l41 -38l-36 -39l-41 35zM64 -232q-31 0 -64 6l8 34q25 -5 57 -5q56 0 100 23t69.5 62.5t38.5 88t13 102.5q0 75 -41 236l33 9l17.5 -78t18.5 -79q16 -65 61.5 -97.5t110.5 -32.5h28v-37h-36q-113 0 -160 87v-9q0 -154 -71 -232t-183 -78z" />
    <glyph glyph-name="uniFEB1" unicode="&#x633;" horiz-adv-x="1368" arabic-form="isolated" 
d="M347 -241q-130 0 -198.5 60t-68.5 169q0 119 52 230l31 -14q-47 -103 -47 -209q0 -92 58 -145.5t180 -53.5q139 0 218.5 65t79.5 173q0 117 -38 239l33 12q37 -126 40 -221q52 -33 130 -33q67 0 116 29.5t49 87.5v132l34 4v-125q0 -123 117 -123q64 0 117 33q4 24 4 60
q0 83 -25 178l35 10q24 -94 24 -178q0 -58 -13 -98q-39 -22 -70.5 -32t-79.5 -10q-103 0 -129 85q-15 -42 -70 -66t-113 -24q-79 0 -127 25q-8 -121 -95.5 -190.5t-243.5 -69.5z" />
    <glyph glyph-name="uniFEB2" unicode="&#x633;" horiz-adv-x="1491" arabic-form="final" 
d="M347 -241q-130 0 -198.5 60t-68.5 169q0 119 52 230l31 -14q-47 -103 -47 -209q0 -92 58 -145.5t180 -53.5q139 0 218.5 65t79.5 173q0 117 -38 239l33 12q37 -126 40 -220q47 -34 130 -34q67 0 116 29.5t49 87.5v132l34 4v-125q0 -123 117 -123q73 0 103 34t30 95v124
l34 4v-120q0 -43 -10 -73q71 -63 194 -63h7v-37h-16q-119 0 -201 64q-39 -65 -143 -65q-109 0 -135 85q-15 -42 -70 -66t-113 -24q-81 0 -127 26q-8 -121 -95.5 -191t-243.5 -70z" />
    <glyph glyph-name="uniFEB3" unicode="&#x633;" horiz-adv-x="864" arabic-form="initial" 
d="M621 -1q-103 0 -129 85q-15 -42 -70 -66t-113 -24q-102 0 -160 48q-45 -42 -136 -42h-13q-19 0 -19 18q0 19 19 19h30q62 0 93.5 26t36.5 101l6 87l34 5l-6 -102q-3 -48 -22 -82q55 -41 141 -41q67 0 116 29.5t49 87.5v132l34 4v-125q0 -123 117 -123q64 0 117 33
q4 24 4 60q0 83 -25 178l35 10q24 -94 24 -178q0 -58 -13 -98q-39 -22 -70.5 -32t-79.5 -10z" />
    <glyph glyph-name="uniFEB4" unicode="&#x633;" horiz-adv-x="987" arabic-form="medial" 
d="M627 -1q-111 0 -136 85q-15 -42 -70 -66t-113 -24q-101 0 -159 48q-45 -42 -136 -42h-13q-19 0 -19 18q0 19 19 19h30q62 0 93.5 26t36.5 101l6 89l34 3l-6 -102q-3 -48 -22 -82q55 -41 140 -41q67 0 116 29.5t49 87.5v127l34 3v-119q0 -123 118 -123q72 0 102 34t30 95
v124l34 4v-120q0 -42 -9 -72q68 -64 194 -64h7v-37h-16q-121 0 -201 64q-39 -65 -143 -65z" />
    <glyph glyph-name="uniFEB5" unicode="&#x634;" horiz-adv-x="1368" arabic-form="isolated" 
d="M1002 583l39 -36l-35 -37l-38 33zM1070 486l39 -36l-35 -37l-38 33zM940 482l39 -36l-35 -37l-38 33zM347 -241q-130 0 -198.5 60t-68.5 169q0 119 52 230l31 -14q-47 -103 -47 -209q0 -92 58 -145.5t180 -53.5q139 0 218.5 65t79.5 173q0 117 -38 239l33 12
q37 -126 40 -221q52 -33 130 -33q67 0 116 29.5t49 87.5v132l34 4v-125q0 -123 117 -123q64 0 117 33q4 24 4 60q0 83 -25 178l35 10q24 -94 24 -178q0 -58 -13 -98q-39 -22 -70.5 -32t-79.5 -10q-103 0 -129 85q-15 -42 -70 -66t-113 -24q-79 0 -127 25
q-8 -121 -95.5 -190.5t-243.5 -69.5z" />
    <glyph glyph-name="uniFEB6" unicode="&#x634;" horiz-adv-x="1491" arabic-form="final" 
d="M1002 583l39 -36l-35 -37l-38 33zM1070 486l39 -36l-35 -37l-38 33zM940 482l39 -36l-35 -37l-38 33zM347 -241q-130 0 -198.5 60t-68.5 169q0 119 52 230l31 -14q-47 -103 -47 -209q0 -92 58 -145.5t180 -53.5q139 0 218.5 65t79.5 173q0 117 -38 239l33 12
q37 -126 40 -220q47 -34 130 -34q67 0 116 29.5t49 87.5v132l34 4v-125q0 -123 117 -123q73 0 103 34t30 95v124l34 4v-120q0 -43 -10 -73q71 -63 194 -63h7v-37h-16q-119 0 -201 64q-39 -65 -143 -65q-109 0 -135 85q-15 -42 -70 -66t-113 -24q-81 0 -127 26
q-8 -121 -95.5 -191t-243.5 -70z" />
    <glyph glyph-name="uniFEB7" unicode="&#x634;" horiz-adv-x="864" arabic-form="initial" 
d="M478 583l39 -36l-35 -37l-38 33zM546 486l39 -36l-35 -37l-38 33zM416 482l39 -36l-35 -37l-38 33zM621 -1q-103 0 -129 85q-15 -42 -70 -66t-113 -24q-102 0 -160 48q-45 -42 -136 -42h-13q-19 0 -19 18q0 19 19 19h30q62 0 93.5 26t36.5 101l6 87l34 5l-6 -102
q-3 -48 -22 -82q55 -41 141 -41q67 0 116 29.5t49 87.5v132l34 4v-125q0 -123 117 -123q64 0 117 33q4 24 4 60q0 83 -25 178l35 10q24 -94 24 -178q0 -58 -13 -98q-39 -22 -70.5 -32t-79.5 -10z" />
    <glyph glyph-name="uniFEB8" unicode="&#x634;" horiz-adv-x="987" arabic-form="medial" 
d="M478 583l39 -36l-35 -37l-38 33zM546 486l39 -36l-35 -37l-38 33zM416 482l39 -36l-35 -37l-38 33zM627 -1q-111 0 -136 85q-15 -42 -70 -66t-113 -24q-101 0 -159 48q-45 -42 -136 -42h-13q-19 0 -19 18q0 19 19 19h30q62 0 93.5 26t36.5 101l6 89l34 3l-6 -102
q-3 -48 -22 -82q55 -41 140 -41q67 0 116 29.5t49 87.5v127l34 3v-119q0 -123 118 -123q72 0 102 34t30 95v124l34 4v-120q0 -42 -9 -72q68 -64 194 -64h7v-37h-16q-121 0 -201 64q-39 -65 -143 -65z" />
    <glyph glyph-name="uniFEB9" unicode="&#x635;" horiz-adv-x="1372" arabic-form="isolated" 
d="M964 32q161 0 293 48q2 40 2 57q0 105 -45 156.5t-121 51.5q-98 0 -181 -61t-201 -218q110 -34 253 -34zM347 -241q-130 0 -198.5 60t-68.5 169q0 119 52 230l31 -14q-47 -103 -47 -209q0 -92 58 -145.5t180 -53.5q139 0 218.5 65t79.5 173q0 117 -38 239l33 12
q34 -117 39 -200q111 156 206 225.5t202 69.5q98 0 148 -63t50 -167q0 -46 -9 -94q-114 -61 -328 -61q-158 0 -268 42q-3 -129 -90.5 -203.5t-249.5 -74.5z" />
    <glyph glyph-name="uniFEBA" unicode="&#x635;" horiz-adv-x="1440" arabic-form="final" 
d="M964 32q161 0 293 48q2 40 2 57q0 105 -45 156.5t-121 51.5q-98 0 -181 -61t-201 -218q110 -34 253 -34zM347 -241q-130 0 -198.5 60t-68.5 169q0 119 52 230l31 -14q-47 -103 -47 -209q0 -92 58 -145.5t180 -53.5q139 0 218.5 65t79.5 173q0 117 -38 239l33 12
q34 -117 39 -200q111 156 206 225.5t202 69.5q98 0 148 -63t50 -167q0 -38 -6 -77q64 -36 147 -36h7v-37h-10q-100 0 -167 46q-115 -51 -308 -51q-158 0 -268 42q-3 -129 -90.5 -203.5t-249.5 -74.5z" />
    <glyph glyph-name="uniFEBB" unicode="&#x635;" horiz-adv-x="1013" arabic-form="initial" 
d="M605 32q161 0 293 48q2 40 2 57q0 105 -45 156.5t-121 51.5q-99 0 -182.5 -61.5t-202.5 -221.5q108 -30 256 -30zM596 -3q-125 0 -205.5 18t-169.5 55q-50 -70 -207 -70h-14q-19 0 -19 18q0 19 19 19h17q66 0 108 12t62 36.5t26.5 50.5t6.5 67v122l34 4v-126
q0 -65 -16 -103q52 -20 79 -29q115 164 212 236.5t206 72.5q98 0 148 -63t50 -167q0 -46 -9 -94q-110 -59 -328 -59z" />
    <glyph glyph-name="uniFEBC" unicode="&#x635;" horiz-adv-x="1081" arabic-form="medial" 
d="M605 32q161 0 293 48q2 40 2 57q0 105 -45 156.5t-121 51.5q-99 0 -182.5 -61.5t-202.5 -221.5q108 -30 256 -30zM1071 0q-100 0 -167 46q-111 -49 -308 -49q-125 0 -205.5 18t-169.5 55q-50 -70 -207 -70h-14q-19 0 -19 18q0 19 19 19h17q66 0 108 12t62 36.5t26.5 50.5
t6.5 67v122l34 4v-126q0 -65 -16 -103q52 -20 79 -29q115 164 212 236.5t206 72.5q98 0 148 -63t50 -167q0 -38 -6 -77q64 -36 147 -36h7v-37h-10z" />
    <glyph glyph-name="uniFEBD" unicode="&#x636;" horiz-adv-x="1372" arabic-form="isolated" 
d="M1093 552l41 -38l-36 -39l-41 35zM964 32q161 0 293 48q2 40 2 57q0 105 -45 156.5t-121 51.5q-98 0 -181 -61t-201 -218q110 -34 253 -34zM347 -241q-130 0 -198.5 60t-68.5 169q0 119 52 230l31 -14q-47 -103 -47 -209q0 -92 58 -145.5t180 -53.5q139 0 218.5 65
t79.5 173q0 117 -38 239l33 12q34 -117 39 -200q111 156 206 225.5t202 69.5q98 0 148 -63t50 -167q0 -46 -9 -94q-114 -61 -328 -61q-158 0 -268 42q-3 -129 -90.5 -203.5t-249.5 -74.5z" />
    <glyph glyph-name="uniFEBE" unicode="&#x636;" horiz-adv-x="1440" arabic-form="final" 
d="M1093 552l41 -38l-36 -39l-41 35zM964 32q161 0 293 48q2 40 2 57q0 105 -45 156.5t-121 51.5q-98 0 -181 -61t-201 -218q110 -34 253 -34zM347 -241q-130 0 -198.5 60t-68.5 169q0 119 52 230l31 -14q-47 -103 -47 -209q0 -92 58 -145.5t180 -53.5q139 0 218.5 65
t79.5 173q0 117 -38 239l33 12q34 -117 39 -200q111 156 206 225.5t202 69.5q98 0 148 -63t50 -167q0 -38 -6 -77q64 -36 147 -36h7v-37h-10q-100 0 -167 46q-115 -51 -308 -51q-158 0 -268 42q-3 -129 -90.5 -203.5t-249.5 -74.5z" />
    <glyph glyph-name="uniFEBF" unicode="&#x636;" horiz-adv-x="1013" arabic-form="initial" 
d="M728 553l41 -38l-36 -39l-41 35zM605 32q161 0 293 48q2 40 2 57q0 105 -45 156.5t-121 51.5q-99 0 -182.5 -61.5t-202.5 -221.5q108 -30 256 -30zM596 -3q-125 0 -205.5 18t-169.5 55q-50 -70 -207 -70h-14q-19 0 -19 18q0 19 19 19h17q66 0 108 12t62 36.5t26.5 50.5
t6.5 67v122l34 4v-126q0 -65 -16 -103q52 -20 79 -29q115 164 212 236.5t206 72.5q98 0 148 -63t50 -167q0 -46 -9 -94q-110 -59 -328 -59z" />
    <glyph glyph-name="uniFEC0" unicode="&#x636;" horiz-adv-x="1081" arabic-form="medial" 
d="M728 553l41 -38l-36 -39l-41 35zM605 32q161 0 293 48q2 40 2 57q0 105 -45 156.5t-121 51.5q-99 0 -182.5 -61.5t-202.5 -221.5q108 -30 256 -30zM1071 0q-100 0 -167 46q-111 -49 -308 -49q-125 0 -205.5 18t-169.5 55q-50 -70 -207 -70h-14q-19 0 -19 18q0 19 19 19
h17q66 0 108 12t62 36.5t26.5 50.5t6.5 67v122l34 4v-126q0 -65 -16 -103q52 -20 79 -29q115 164 212 236.5t206 72.5q98 0 148 -63t50 -167q0 -38 -6 -77q64 -36 147 -36h7v-37h-10z" />
    <glyph glyph-name="uniFEC1" unicode="&#x637;" horiz-adv-x="840" arabic-form="isolated" 
d="M383 32q205 0 342 48q2 40 2 57q0 105 -45.5 156.5t-122.5 51.5q-101 0 -186 -65t-209 -232q104 -16 219 -16zM380 -5q-195 0 -340 39l9 34l79 -15q39 51 52 93t13 134v435l35 4v-365q0 -123 -11 -185q85 109 168.5 160.5t174.5 51.5q99 0 149.5 -63.5t50.5 -167.5
q0 -46 -9 -94q-131 -61 -371 -61z" />
    <glyph glyph-name="uniFEC2" unicode="&#x637;" horiz-adv-x="906" arabic-form="final" 
d="M383 32q205 0 342 48q2 40 2 57q0 105 -45.5 156.5t-122.5 51.5q-101 0 -186 -65t-209 -232q104 -16 219 -16zM896 0q-101 0 -167 47q-128 -52 -349 -52q-195 0 -340 39l9 34l79 -15q39 51 52 93t13 134v435l35 4v-365q0 -123 -11 -185q85 109 168.5 160.5t174.5 51.5
q99 0 149.5 -63.5t50.5 -167.5q0 -39 -6 -78q61 -35 145 -35h7v-37h-10z" />
    <glyph glyph-name="uniFEC3" unicode="&#x637;" horiz-adv-x="814" arabic-form="initial" 
d="M533 345q-103 0 -189.5 -67t-214.5 -241h126q170 0 266 8t178 36q2 38 2 56q0 105 -45.5 156.5t-122.5 51.5zM0 0q-19 0 -19 18q0 19 19 19h88q48 59 63.5 102.5t15.5 140.5v435l35 4v-365q0 -123 -11 -185q85 109 168.5 160.5t174.5 51.5q99 0 149.5 -63.5t50.5 -167.5
q0 -46 -9 -94q-75 -32 -178 -44t-295 -12h-252z" />
    <glyph glyph-name="uniFEC4" unicode="&#x637;" horiz-adv-x="880" arabic-form="medial" 
d="M533 345q-103 0 -189.5 -67t-214.5 -241h126q170 0 266 8t178 36q2 38 2 56q0 105 -45.5 156.5t-122.5 51.5zM0 0q-19 0 -19 18q0 19 19 19h88q48 59 63.5 102.5t15.5 140.5v435l35 4v-365q0 -123 -11 -185q85 109 168.5 160.5t174.5 51.5q99 0 149.5 -63.5t50.5 -167.5
q0 -39 -6 -78q61 -35 145 -35h7v-37h-10q-101 0 -167 47q-72 -27 -171.5 -37t-279.5 -10h-252z" />
    <glyph glyph-name="uniFEC5" unicode="&#x638;" horiz-adv-x="840" arabic-form="isolated" 
d="M542 563l41 -38l-36 -39l-41 35zM383 32q205 0 342 48q2 40 2 57q0 105 -45.5 156.5t-122.5 51.5q-101 0 -186 -65t-209 -232q104 -16 219 -16zM380 -5q-195 0 -340 39l9 34l79 -15q39 51 52 93t13 134v435l35 4v-365q0 -123 -11 -185q85 109 168.5 160.5t174.5 51.5
q99 0 149.5 -63.5t50.5 -167.5q0 -46 -9 -94q-131 -61 -371 -61z" />
    <glyph glyph-name="uniFEC6" unicode="&#x638;" horiz-adv-x="906" arabic-form="final" 
d="M542 563l41 -38l-36 -39l-41 35zM383 32q205 0 342 48q2 40 2 57q0 105 -45.5 156.5t-122.5 51.5q-101 0 -186 -65t-209 -232q104 -16 219 -16zM896 0q-101 0 -167 47q-128 -52 -349 -52q-195 0 -340 39l9 34l79 -15q39 51 52 93t13 134v435l35 4v-365q0 -123 -11 -185
q85 109 168.5 160.5t174.5 51.5q99 0 149.5 -63.5t50.5 -167.5q0 -39 -6 -78q61 -35 145 -35h7v-37h-10z" />
    <glyph glyph-name="uniFEC7" unicode="&#x638;" horiz-adv-x="814" arabic-form="initial" 
d="M507 563l41 -38l-36 -39l-41 35zM533 345q-103 0 -189.5 -67t-214.5 -241h126q170 0 266 8t178 36q2 38 2 56q0 105 -45.5 156.5t-122.5 51.5zM0 0q-19 0 -19 18q0 19 19 19h88q48 59 63.5 102.5t15.5 140.5v435l35 4v-365q0 -123 -11 -185q85 109 168.5 160.5
t174.5 51.5q99 0 149.5 -63.5t50.5 -167.5q0 -46 -9 -94q-75 -32 -178 -44t-295 -12h-252z" />
    <glyph glyph-name="uniFEC8" unicode="&#x638;" horiz-adv-x="880" arabic-form="medial" 
d="M507 563l41 -38l-36 -39l-41 35zM533 345q-103 0 -189.5 -67t-214.5 -241h126q170 0 266 8t178 36q2 38 2 56q0 105 -45.5 156.5t-122.5 51.5zM0 0q-19 0 -19 18q0 19 19 19h88q48 59 63.5 102.5t15.5 140.5v435l35 4v-365q0 -123 -11 -185q85 109 168.5 160.5
t174.5 51.5q99 0 149.5 -63.5t50.5 -167.5q0 -39 -6 -78q61 -35 145 -35h7v-37h-10q-101 0 -167 47q-72 -27 -171.5 -37t-279.5 -10h-252z" />
    <glyph glyph-name="uniFEC9" unicode="&#x639;" horiz-adv-x="610" arabic-form="isolated" 
d="M600 -207q-126 -68 -277 -68q-122 0 -182.5 50.5t-60.5 140.5q0 78 42.5 135.5t134.5 100.5q-63 24 -94.5 71.5t-31.5 105.5q0 83 52 134t133 51q85 0 170 -47l-15 -29q-51 23 -80.5 31.5t-75.5 8.5q-63 0 -106 -40t-43 -107q0 -63 46.5 -108t85.5 -45q9 0 41 9
l82.5 23.5t92.5 22.5l6 -35q-120 -25 -202.5 -56.5t-125 -68.5t-59.5 -73t-17 -79q0 -159 213 -159q136 0 256 59z" />
    <glyph glyph-name="uniFECA" unicode="&#x639;" horiz-adv-x="630" arabic-form="final" 
d="M328 399q-78 0 -187 -23q65 -136 174 -244q68 50 114.5 103t87.5 133q-83 31 -189 31zM600 -257q-126 -68 -277 -68q-122 0 -182.5 47.5t-60.5 132.5q0 86 46 139t156 121q-124 129 -190 285q102 33 236 33q136 0 233 -47q-42 -96 -92 -156.5t-129 -118.5q58 -42 114 -58
t165 -16h11v-37h-15q-116 0 -181 21t-126 70q-106 -67 -149 -115t-43 -115q0 -149 213 -149q136 0 256 59z" />
    <glyph glyph-name="uniFECB" unicode="&#x639;" horiz-adv-x="559" arabic-form="initial" 
d="M0 0q-19 0 -19 18q0 19 19 19h13q95 0 183 7q-118 57 -118 185q0 85 51.5 136.5t131.5 51.5q81 0 170 -48l-15 -28q-51 23 -80.5 31.5t-75.5 8.5q-63 0 -106 -41t-43 -108q0 -71 52.5 -122t104.5 -51q19 0 91.5 19t139.5 41l10 -31q-142 -49 -251 -68.5t-244 -19.5h-14z
" />
    <glyph glyph-name="uniFECC" unicode="&#x639;" horiz-adv-x="695" arabic-form="medial" 
d="M326 382q-77 0 -179 -22q44 -153 194 -242q136 83 189 227q-112 37 -204 37zM0 0q-19 0 -19 18q0 19 19 19h24q157 0 281 61q-81 54 -133 129t-65 154q107 34 224 34q135 0 237 -51q-16 -72 -67 -141.5t-130 -122.5q126 -63 274 -63h50v-37h-56q-167 0 -302 79
q-140 -79 -314 -79h-23z" />
    <glyph glyph-name="uniFECD" unicode="&#x63a;" horiz-adv-x="610" arabic-form="isolated" 
d="M301 673l41 -38l-36 -39l-41 35zM600 -207q-126 -68 -277 -68q-122 0 -182.5 50.5t-60.5 140.5q0 78 42.5 135.5t134.5 100.5q-63 24 -94.5 71.5t-31.5 105.5q0 83 52 134t133 51q85 0 170 -47l-15 -29q-51 23 -80.5 31.5t-75.5 8.5q-63 0 -106 -40t-43 -107
q0 -63 46.5 -108t85.5 -45q9 0 41 9l82.5 23.5t92.5 22.5l6 -35q-120 -25 -202.5 -56.5t-125 -68.5t-59.5 -73t-17 -79q0 -159 213 -159q136 0 256 59z" />
    <glyph glyph-name="uniFECE" unicode="&#x63a;" horiz-adv-x="630" arabic-form="final" 
d="M336 641l41 -38l-36 -39l-41 35zM328 399q-78 0 -187 -23q65 -136 174 -244q68 50 114.5 103t87.5 133q-83 31 -189 31zM600 -257q-126 -68 -277 -68q-122 0 -182.5 47.5t-60.5 132.5q0 86 46 139t156 121q-124 129 -190 285q102 33 236 33q136 0 233 -47
q-42 -96 -92 -156.5t-129 -118.5q58 -42 114 -58t165 -16h11v-37h-15q-116 0 -181 21t-126 70q-106 -67 -149 -115t-43 -115q0 -149 213 -149q136 0 256 59z" />
    <glyph glyph-name="uniFECF" unicode="&#x63a;" horiz-adv-x="559" arabic-form="initial" 
d="M268 578l41 -38l-36 -39l-41 35zM0 0q-19 0 -19 18q0 19 19 19h13q95 0 183 7q-118 57 -118 185q0 85 51.5 136.5t131.5 51.5q81 0 170 -48l-15 -28q-51 23 -80.5 31.5t-75.5 8.5q-63 0 -106 -41t-43 -108q0 -71 52.5 -122t104.5 -51q19 0 91.5 19t139.5 41l10 -31
q-142 -49 -251 -68.5t-244 -19.5h-14z" />
    <glyph glyph-name="uniFED0" unicode="&#x63a;" horiz-adv-x="695" arabic-form="medial" 
d="M345 612l41 -38l-36 -39l-41 35zM326 382q-77 0 -179 -22q44 -153 194 -242q136 83 189 227q-112 37 -204 37zM0 0q-19 0 -19 18q0 19 19 19h24q157 0 281 61q-81 54 -133 129t-65 154q107 34 224 34q135 0 237 -51q-16 -72 -67 -141.5t-130 -122.5q126 -63 274 -63h50
v-37h-56q-167 0 -302 79q-140 -79 -314 -79h-23z" />
    <glyph glyph-name="uniFED1" unicode="&#x641;" horiz-adv-x="934" arabic-form="isolated" 
d="M653 721l41 -38l-36 -39l-41 35zM675 211q71 2 138 21q-2 125 -43.5 202.5t-112.5 76.5q-45 0 -78 -28t-47.5 -66t-15.5 -78q2 -61 37 -94t122 -34zM408 -12q-99 0 -165.5 14t-101 41t-48 58.5t-13.5 75.5q0 75 34 179l32 -9q-30 -108 -30 -161q0 -36 11.5 -62.5t42 -50
t93.5 -36t157 -12.5q216 0 377 64q12 54 15 108q-59 -18 -151 -20q-174 1 -178 158q2 89 51.5 150t121.5 60q86 1 137 -82t51 -224q0 -97 -23 -172q-144 -79 -413 -79z" />
    <glyph glyph-name="uniFED2" unicode="&#x641;" horiz-adv-x="1037" arabic-form="final" 
d="M751 597l41 -38l-36 -39l-41 35zM608 251q0 -119 150 -173q149 60 149 164q0 70 -42.5 113.5t-110.5 43.5q-63 0 -104.5 -41.5t-41.5 -106.5zM1008 0q-149 0 -254 41q-144 -53 -346 -53q-99 0 -165.5 14t-101 41t-48 58.5t-13.5 75.5q0 75 34 179l32 -9
q-30 -108 -30 -161q0 -36 11.5 -62.5t42 -50t93.5 -36t157 -12.5q168 0 289 36q-134 68 -134 185q0 87 53.5 137t129.5 50t129 -51t53 -135q0 -118 -136 -184q92 -26 204 -26h29v-37h-29z" />
    <glyph glyph-name="uniFED3" unicode="&#x641;" horiz-adv-x="542" arabic-form="initial" 
d="M258 721l41 -38l-36 -39l-41 35zM278 211q74 0 143 21q-2 125 -43.5 202t-112.5 77q-66 0 -103.5 -54t-37.5 -118q0 -61 35 -94.5t119 -33.5zM0 0q-19 0 -19 18q0 19 19 19h1h20q244 0 384 51q12 56 15 109q-63 -20 -151 -20q-94 0 -136 43t-42 115q0 88 50.5 149
t122.5 61q86 0 137 -82.5t51 -223.5q0 -97 -23 -172q-122 -67 -401 -67h-28z" />
    <glyph glyph-name="uniFED4" unicode="&#x641;" horiz-adv-x="552" arabic-form="medial" 
d="M274 587l41 -38l-36 -39l-41 35zM123 251q0 -119 150 -173q149 60 149 164q0 70 -42.5 113.5t-110.5 43.5q-63 0 -104.5 -41.5t-41.5 -106.5zM0 0q-19 0 -19 18q0 19 19 19h16q128 0 208 24q-134 68 -134 185q0 87 53.5 137t129.5 50t129 -51t53 -135q0 -118 -136 -184
q92 -26 204 -26h29v-37h-29q-150 0 -254 41q-112 -41 -250 -41h-19z" />
    <glyph glyph-name="uniFED5" unicode="&#x642;" horiz-adv-x="797" arabic-form="isolated" 
d="M594 535l39 -36l-34 -38l-40 34zM463 531l39 -36l-34 -38l-40 34zM542 36q73 0 142 20q-1 121 -42.5 200.5t-112.5 79.5q-67 0 -102.5 -53.5t-35.5 -117.5q0 -65 32.5 -97t118.5 -32zM347 -251q-130 0 -198.5 63t-68.5 176q0 119 52 230l29 -16q-47 -102 -47 -206
q0 -98 59 -154t181 -56q71 0 127 15t91.5 38t60 54.5t35.5 62t14 63.5q-63 -19 -149 -19q-98 0 -136 42.5t-38 118.5q0 91 46.5 150t123.5 59q87 0 137.5 -86t50.5 -225q0 -146 -96.5 -228t-273.5 -82z" />
    <glyph glyph-name="uniFED6" unicode="&#x642;" horiz-adv-x="831" arabic-form="final" 
d="M594 535l39 -36l-34 -38l-40 34zM463 531l39 -36l-34 -38l-40 34zM564 37h120v15q0 123 -41.5 203.5t-114.5 80.5q-67 0 -102.5 -53.5t-35.5 -117.5t37 -96t137 -32zM347 -251q-130 0 -198.5 63t-68.5 176q0 119 52 230l29 -16q-47 -102 -47 -206q0 -98 59 -154t181 -56
q68 0 123 14t89.5 35.5t59.5 50.5t36.5 57t16.5 57h-109q-120 0 -166 42.5t-46 118.5q0 91 46.5 150t123.5 59q88 0 138 -84.5t50 -226.5q0 -15 -1 -22h116v-37h-119q-19 -119 -112.5 -185t-252.5 -66z" />
    <glyph glyph-name="uniFED7" unicode="&#x642;" horiz-adv-x="542" arabic-form="initial" 
d="M335 704l39 -36l-34 -38l-40 34zM204 700l39 -36l-34 -38l-40 34zM278 211q74 0 143 21q-2 125 -43.5 202t-112.5 77q-66 0 -103.5 -54t-37.5 -118q0 -61 35 -94.5t119 -33.5zM0 0q-19 0 -19 18q0 19 19 19h1h20q244 0 384 51q12 56 15 109q-63 -20 -151 -20
q-94 0 -136 43t-42 115q0 88 50.5 149t122.5 61q86 0 137 -82.5t51 -223.5q0 -97 -23 -172q-122 -67 -401 -67h-28z" />
    <glyph glyph-name="uniFED8" unicode="&#x642;" horiz-adv-x="552" arabic-form="medial" 
d="M348 609l39 -36l-34 -38l-40 34zM217 605l39 -36l-34 -38l-40 34zM123 251q0 -119 150 -173q149 60 149 164q0 70 -42.5 113.5t-110.5 43.5q-63 0 -104.5 -41.5t-41.5 -106.5zM0 0q-19 0 -19 18q0 19 19 19h16q128 0 208 24q-134 68 -134 185q0 87 53.5 137t129.5 50
t129 -51t53 -135q0 -118 -136 -184q92 -26 204 -26h29v-37h-29q-150 0 -254 41q-112 -41 -250 -41h-19z" />
    <glyph glyph-name="uniFED9" unicode="&#x643;" horiz-adv-x="835" arabic-form="isolated" 
d="M393 461q0 -21 57 -43q37 -14 56.5 -29t19.5 -41q0 -40 -54.5 -66.5t-148.5 -26.5v34q64 0 117.5 15.5t53.5 37.5q0 24 -63 47q-38 14 -54.5 28t-16.5 37q0 40 39 70.5t98 30.5q26 0 45 -5l-9 -33q-17 4 -41 4q-37 0 -68 -19t-31 -41zM389 -13q-77 0 -133 9.5t-89.5 26
t-53 41.5t-26.5 51.5t-7 61.5q0 75 34 179l32 -10q-30 -98 -30 -155q0 -38 10 -64.5t38 -51.5t87 -37.5t149 -12.5q164 0 295 48q15 70 15 227q0 113 -5 420l35 4q5 -274 5 -394q0 -128 -4 -178.5t-17 -102.5q-50 -27 -145 -44.5t-190 -17.5z" />
    <glyph glyph-name="uniFEDA" unicode="&#x643;" horiz-adv-x="929" arabic-form="final" 
d="M393 461q0 -21 57 -43q37 -14 56.5 -29t19.5 -41q0 -40 -54.5 -66.5t-148.5 -26.5v34q64 0 117.5 15.5t53.5 37.5q0 24 -63 47q-38 14 -54.5 28t-16.5 37q0 40 39 70.5t98 30.5q26 0 45 -5l-9 -33q-17 4 -41 4q-37 0 -68 -19t-31 -41zM913 0q-158 0 -186 109
q-11 -29 -32 -50.5t-51.5 -34t-58.5 -20.5t-68.5 -11t-65 -4t-62.5 -1q-95 0 -158.5 14t-95 41.5t-43.5 59t-12 74.5q0 75 34 179l32 -10q-30 -98 -30 -155q0 -38 10 -64.5t38 -51.5t87 -37.5t149 -12.5q85 0 143.5 9.5t90.5 23.5t49 39.5t21 47.5t4 57v518l35 4v-507
q0 -102 42 -141t137 -39h7v-37h-16z" />
    <glyph glyph-name="uniFEDB" unicode="&#x643;" horiz-adv-x="488" arabic-form="initial" 
d="M0 0q-19 0 -19 18q0 19 19 19h22q206 0 337 53v8q0 102 -84 194t-229 141v46q174 146 402 224v-37q-203 -64 -373 -206q155 -61 236 -155t81 -199q0 -25 -2 -39q-60 -31 -157 -49t-206 -18h-27z" />
    <glyph glyph-name="uniFEDC" unicode="&#x643;" horiz-adv-x="513" arabic-form="medial" 
d="M0 0q-19 0 -19 18q0 19 19 19h19q207 0 323 61q-2 3 -5 8.5t-5 8.5q-24 41 -41.5 67.5t-52.5 71t-85 89.5t-114 90v42q172 148 406 228v-37q-206 -65 -377 -209l58 -44.5t50.5 -43.5l41 -39t35.5 -39l28.5 -34.5t25 -34.5l19.5 -30l19 -30t16 -26q3 -4 12 -19t11.5 -18.5
l10.5 -15t11.5 -14.5l12 -10.5t15.5 -9.5t17.5 -6t22.5 -5t26 -1h13v-37h-16q-54 0 -84 17t-53 52q-59 -33 -150.5 -51t-186.5 -18h-23z" />
    <glyph glyph-name="uniFEDD" unicode="&#x644;" horiz-adv-x="716" arabic-form="isolated" 
d="M584 720l34 4q8 -560 8 -665q0 -135 -79.5 -213.5t-225.5 -78.5q-116 0 -178.5 60t-62.5 168q0 100 54 220l29 -14q-48 -106 -48 -199q0 -91 53 -144.5t160 -53.5q122 0 193 68.5t71 184.5v15.5t-0.5 29t-0.5 46.5t-1 78t-1.5 113.5t-2 163.5t-2.5 217z" />
    <glyph glyph-name="uniFEDE" unicode="&#x644;" horiz-adv-x="810" arabic-form="final" 
d="M321 -243q-116 0 -178.5 60t-62.5 168q0 100 54 220l29 -14q-48 -106 -48 -199q0 -91 53 -144.5t160 -53.5q122 0 193.5 70t71.5 186q0 80 -7 670l34 4l6 -507q1 -112 39.5 -146t137.5 -34h7v-37h-16q-134 0 -171 73v-24q0 -135 -79 -213.5t-223 -78.5z" />
    <glyph glyph-name="uniFEDF" unicode="&#x644;" horiz-adv-x="307" arabic-form="initial" 
d="M0 0q-19 0 -19 18q0 19 19 19h8q93 0 159 24q15 79 15 239q0 113 -5 420l35 4q5 -274 5 -394q0 -140 -3 -190.5t-17 -103.5q-29 -16 -83 -26t-106 -10h-8z" />
    <glyph glyph-name="uniFEE0" unicode="&#x644;" horiz-adv-x="406" arabic-form="medial" 
d="M0 0q-19 0 -19 18q0 19 19 19h23q49 0 81.5 11t49.5 25.5t25.5 45t9.5 50.5t1 62v11v478l35 4v-507q0 -98 41 -139t133 -41h7v-37h-16q-67 0 -116 25.5t-65 79.5q-32 -105 -193 -105h-16z" />
    <glyph glyph-name="uniFEE1" unicode="&#x645;" horiz-adv-x="608" arabic-form="isolated" 
d="M424 97q56 0 98 8q12 59 12 103q0 86 -39.5 133t-107.5 47q-79 0 -131 -70.5t-52 -188.5q131 -32 220 -32zM124 -229l-34 -3q-10 210 -10 266q0 94 88 100q2 131 62.5 210t156.5 79q87 0 134 -57t47 -151q0 -72 -20 -135q-31 -17 -133 -17q-56 0 -113.5 8.5t-92.5 17.5
l-35 9q-60 0 -60 -66q0 -33 10 -261z" />
    <glyph glyph-name="uniFEE2" unicode="&#x645;" horiz-adv-x="711" arabic-form="final" 
d="M402 65q57 0 143 26q-3 12 -7 31q-18 113 -51.5 163.5t-94.5 50.5q-57 0 -102 -51.5t-91 -176.5q98 -43 203 -43zM124 -244l-34 -3q-10 207 -10 261q0 93 87 100q45 132 97 194.5t131 62.5q74 0 113 -55.5t62 -183.5q10 -54 36.5 -74.5t79.5 -20.5h25v-37h-24
q-99 0 -130 61q-96 -32 -162 -32q-39 0 -75.5 5t-61 12.5t-43.5 14.5t-29.5 12t-11.5 5q-60 0 -60 -66q0 -34 10 -256z" />
    <glyph glyph-name="uniFEE3" unicode="&#x645;" horiz-adv-x="638" arabic-form="initial" 
d="M445 34q30 0 68 5q11 47 11 83q0 93 -36 146.5t-97 53.5q-45 0 -81 -29t-73 -102q-31 -60 -49 -89q98 -68 257 -68zM436 -1q-175 0 -269 72q-30 -39 -65.5 -55t-92.5 -16h-9q-19 0 -19 18q0 19 19 19h10q70 0 107.5 34.5t88.5 134.5q41 79 81.5 114.5t104.5 35.5
q79 0 122.5 -64t43.5 -161q0 -64 -19 -121q-46 -11 -103 -11z" />
    <glyph glyph-name="uniFEE4" unicode="&#x645;" horiz-adv-x="710" arabic-form="medial" 
d="M383 35q108 0 163 50q-7 19 -11 37q-28 112 -59 156t-90 44q-43 0 -77.5 -29t-71.5 -102q-32 -64 -53 -95q96 -61 199 -61zM686 0q-90 0 -124 53q-69 -54 -182 -54q-120 0 -218 66q-29 -35 -63.5 -50t-89.5 -15h-9q-19 0 -19 18q0 19 19 19h10q71 0 108.5 34.5
t88.5 134.5q43 80 82 115.5t103 35.5q71 0 108.5 -51.5t67.5 -173.5q14 -57 39 -76t78 -19h25v-37h-24z" />
    <glyph glyph-name="uniFEE5" unicode="&#x646;" horiz-adv-x="767" arabic-form="isolated" 
d="M390 397l41 -38l-36 -39l-41 35zM647 310q40 -137 40 -239q0 -133 -87.5 -210t-252.5 -77q-130 0 -198.5 60t-68.5 169q0 119 52 230l31 -14q-47 -103 -47 -209q0 -92 58 -145.5t180 -53.5q139 0 218.5 65t79.5 173q0 117 -38 239z" />
    <glyph glyph-name="uniFEE6" unicode="&#x646;" horiz-adv-x="818" arabic-form="final" 
d="M390 367l41 -38l-36 -39l-41 35zM347 -241q-130 0 -198.5 60t-68.5 169q0 119 52 230l31 -14q-47 -103 -47 -209q0 -92 58 -145.5t180 -53.5q139 0 218.5 65t79.5 173q0 117 -38 239l33 12q37 -128 39 -210q51 -38 125 -38h7v-37h-16q-64 0 -115 30q-5 -126 -93 -198.5
t-247 -72.5z" />
    <glyph glyph-name="uniFEE7" unicode="&#x646;" horiz-adv-x="321" arabic-form="initial" 
d="M90 495l41 -38l-36 -39l-41 35zM0 0q-19 0 -19 18q0 19 19 19h3q127 0 199 42q5 32 5 65q0 101 -27 188l33 11q28 -96 28 -192q0 -54 -10 -93q-87 -58 -228 -58h-3z" />
    <glyph glyph-name="uniFEE8" unicode="&#x646;" horiz-adv-x="429" arabic-form="medial" 
d="M99 495l41 -38l-36 -39l-41 35zM0 0q-19 0 -19 18q0 19 19 19h17q66 0 108 12t62 36.5t26.5 50.5t6.5 67v122l34 4v-126q0 -77 -23 -118q73 -48 191 -48h7v-37h-6q-134 0 -212 57q-55 -57 -197 -57h-14z" />
    <glyph glyph-name="uniFEE9" unicode="&#x647;" horiz-adv-x="486" arabic-form="isolated" 
d="M218 419q99 -59 153.5 -133.5t54.5 -150.5q0 -63 -49.5 -103.5t-145.5 -40.5q-80 0 -125.5 37.5t-45.5 104.5q0 73 39 139t119 147zM235 26q72 0 115.5 28t43.5 78q0 62 -49.5 132t-121.5 112q-130 -127 -130 -231q0 -119 142 -119z" />
    <glyph glyph-name="uniFEEA" unicode="&#x647;" horiz-adv-x="568" arabic-form="final" 
d="M568 0h-18q-125 0 -153 84q-59 -8 -123 -8q-199 0 -199 105t103.5 178t244.5 73v-284q0 -58 29 -84.5t102 -26.5h14v-37zM280 111q71 0 110 7q-1 7 -1 24v252q-122 -4 -201 -70.5t-79 -135.5q0 -77 171 -77z" />
    <glyph glyph-name="uniFEEB" unicode="&#x647;" horiz-adv-x="665" arabic-form="initial" 
d="M136 202q0 -75 84 -133q70 25 105.5 65.5t35.5 77.5q0 118 -109 174q-116 -90 -116 -184zM480 -19q40 0 56.5 16.5t16.5 49.5q0 75 -47 148.5t-164 154.5q51 -48 51 -132q0 -105 -140 -171q54 -31 117 -48.5t110 -17.5zM476 -53q-50 0 -125 23t-136 62q-94 -32 -200 -32
h-15q-19 0 -19 18q0 19 19 19h15q96 0 167 19q-78 64 -78 140q0 116 143 226q153 -56 245.5 -159.5t92.5 -207.5q0 -50 -23.5 -79t-85.5 -29z" />
    <glyph glyph-name="uniFEEC" unicode="&#x647;" horiz-adv-x="600" arabic-form="medial" 
d="M142 64v-18q121 20 193.5 75.5t72.5 122.5q0 83 -96 169q-170 -146 -170 -349zM360 -190q31 0 59 7q9 33 9 65q0 116 -106 193q-72 -46 -177 -65q12 -98 69 -149t146 -51zM444 -207q-45 -16 -91 -16q-101 0 -165 62t-77 166q-47 -5 -90 -5h-21q-19 0 -19 18q0 19 19 19
h19q42 0 89 5v11q0 241 206 404q69 -57 98 -106t29 -107q0 -37 -23.5 -77.5t-68.5 -73.5q94 -56 223 -56h28v-37h-27q-109 0 -164 31q51 -58 51 -149q0 -47 -16 -89z" />
    <glyph glyph-name="uniFEED" unicode="&#x648;" horiz-adv-x="513" arabic-form="isolated" 
d="M258 34q74 0 143 20q-1 123 -42 202.5t-114 79.5q-67 0 -102.5 -53.5t-35.5 -117.5q0 -66 32.5 -98.5t118.5 -32.5zM155 -236q-50 0 -105 13l8 33q47 -11 103 -11q66 0 114 20t73 55t37 70t15 76q-66 -20 -151 -20q-98 0 -136 42.5t-38 118.5q0 91 46.5 150t123.5 59
q88 0 138 -84.5t50 -226.5q0 -140 -70.5 -217.5t-207.5 -77.5z" />
    <glyph glyph-name="uniFEEE" unicode="&#x648;" horiz-adv-x="518" arabic-form="final" 
d="M281 37h120v15q0 123 -41.5 203.5t-114.5 80.5q-67 0 -102.5 -53.5t-35.5 -117.5t37 -96t137 -32zM155 -236q-50 0 -105 13l8 33q47 -11 103 -11q51 0 92 13t66 33t42.5 47.5t25 53.5t10.5 54h-110q-120 0 -166.5 42.5t-46.5 118.5q0 91 46.5 150t124.5 59
q88 0 138.5 -84.5t50.5 -226.5v-22h84v-37h-88q-14 -113 -83.5 -174.5t-191.5 -61.5z" />
    <glyph glyph-name="uniFEEF" unicode="&#x649;" horiz-adv-x="789" arabic-form="isolated" 
d="M357 -221q-134 0 -205.5 65.5t-71.5 183.5q0 119 52 230l31 -15q-47 -103 -47 -208q0 -219 248 -219q124 0 206 53t86 141l-30 22.5t-36.5 23l-36 20t-43 21.5l-41.5 19.5l-46.5 21l-44.5 19.5v21q0 68 19.5 119t53.5 79.5t74 42.5t86 14q66 0 128 -38l-16 -32
q-52 34 -115 34q-185 0 -197 -217q100 -42 165 -76t115 -76q0 -114 -90 -181.5t-244 -67.5z" />
    <glyph glyph-name="uniFEF0" unicode="&#x649;" horiz-adv-x="777" arabic-form="final" 
d="M351 -240q-131 0 -201 63t-70 176q0 119 52 230l30 -15q-47 -103 -47 -208q0 -99 59 -154t184 -55q120 0 200.5 56.5t90.5 154.5q-101 12 -223 50l11 34q73 -24 165.5 -39.5t165.5 -15.5h9v-37h-9q-46 0 -83 4q-13 -109 -103 -176.5t-231 -67.5z" />
    <glyph glyph-name="uniFEF1" unicode="&#x64a;" horiz-adv-x="789" arabic-form="isolated" 
d="M357 -221q-134 0 -205.5 65.5t-71.5 183.5q0 119 52 230l31 -15q-47 -103 -47 -208q0 -219 248 -219q124 0 206 53t86 141l-30 22.5t-36.5 23l-36 20t-43 21.5l-41.5 19.5l-46.5 21l-44.5 19.5v21q0 68 19.5 119t53.5 79.5t74 42.5t86 14q66 0 128 -38l-16 -32
q-52 34 -115 34q-185 0 -197 -217q100 -42 165 -76t115 -76q0 -114 -90 -181.5t-244 -67.5zM447 -332l39 -36l-34 -38l-40 34zM316 -336l39 -36l-34 -38l-40 34z" />
    <glyph glyph-name="uniFEF2" unicode="&#x64a;" horiz-adv-x="777" arabic-form="final" 
d="M351 -240q-131 0 -201 63t-70 176q0 119 52 230l30 -15q-47 -103 -47 -208q0 -99 59 -154t184 -55q120 0 200.5 56.5t90.5 154.5q-101 12 -223 50l11 34q73 -24 165.5 -39.5t165.5 -15.5h9v-37h-9q-46 0 -83 4q-13 -109 -103 -176.5t-231 -67.5zM442 -332l39 -36l-34 -38
l-40 34zM311 -336l39 -36l-34 -38l-40 34z" />
    <glyph glyph-name="uniFEF3" unicode="&#x64a;" horiz-adv-x="321" arabic-form="initial" 
d="M0 0q-19 0 -19 18q0 19 19 19h3q127 0 199 42q5 32 5 65q0 101 -27 188l33 11q28 -96 28 -192q0 -54 -10 -93q-87 -58 -228 -58h-3zM156 -123l39 -36l-34 -38l-40 34zM25 -127l39 -36l-34 -38l-40 34z" />
    <glyph glyph-name="uniFEF4" unicode="&#x64a;" horiz-adv-x="429" arabic-form="medial" 
d="M0 0q-19 0 -19 18q0 19 19 19h17q66 0 108 12t62 36.5t26.5 50.5t6.5 67v122l34 4v-126q0 -77 -23 -118q73 -48 191 -48h7v-37h-6q-134 0 -212 57q-55 -57 -197 -57h-14zM152 -127l39 -36l-34 -38l-40 34zM21 -131l39 -36l-34 -38l-40 34z" />
    <glyph glyph-name=".notdef" horiz-adv-x="756" 
d="M160 0v701h436v-701h-436zM195 666v-631h366v631h-366z" />
    <glyph glyph-name=".null" 
 />
    <glyph glyph-name=".null" 
 />
    <glyph glyph-name="nonmarkingreturn" horiz-adv-x="333" 
 />
    <glyph glyph-name="CR" unicode="&#xd;" 
 />
    <glyph glyph-name="space" unicode=" " horiz-adv-x="233" 
 />
    <glyph glyph-name="exclam" unicode="!" horiz-adv-x="277" 
d="M157 700v-272q0 -103 -5 -201h-28q-5 97 -5 202v271h38zM167 25q0 -12 -8 -21t-20 -9q-13 0 -21 9t-8 21t8 20.5t21 8.5q12 0 20 -8.5t8 -20.5z" />
    <glyph glyph-name="quotedbl" unicode="&#x22;" horiz-adv-x="297" 
d="M62 493q-2 81 -2 207h34q0 -126 -2 -207h-30zM205 493q-2 81 -2 207h34q0 -126 -2 -207h-30z" />
    <glyph glyph-name="numbersign" unicode="#" horiz-adv-x="620" 
d="M394 230l48 212h-218l-48 -212h218zM343 0l44 198h-218l-44 -198h-32l44 198h-107v32h114l48 212h-107v32h114l44 197h32l-44 -197h218l44 197h32l-44 -197h109v-32h-116l-48 -212h109v-32h-116l-44 -198h-32z" />
    <glyph glyph-name="dollar" unicode="$" horiz-adv-x="530" 
d="M278 -125h-35v113q-96 3 -177 37l9 30q96 -35 181 -35q183 0 183 143q0 31 -11 55.5t-24.5 39.5t-44 30t-51 22l-64.5 21q-94 30 -136.5 69.5t-42.5 116.5q0 78 52 120t131 46v100h35v-100q68 -4 136 -26l-7 -30q-80 23 -150 23q-76 0 -118.5 -34t-42.5 -99
q0 -64 37 -94.5t122 -58.5q43 -14 67 -23t57 -26.5t49.5 -36t29 -48.5t12.5 -67q0 -46 -16.5 -80.5t-46 -53.5t-62.5 -28.5t-72 -11.5v-114z" />
    <glyph glyph-name="percent" unicode="%" horiz-adv-x="810" 
d="M342 519q0 -75 -39 -120t-105 -45q-64 0 -103.5 45.5t-39.5 119.5q0 73 39.5 118.5t103.5 45.5q65 0 104.5 -45.5t39.5 -118.5zM549 671h35l-322 -671h-35zM91 519q0 -62 27.5 -97.5t79.5 -35.5q54 0 81 35.5t27 97.5q0 61 -27 96.5t-81 35.5q-52 0 -79.5 -36t-27.5 -96z
M755 153q0 -75 -39 -120t-105 -45q-64 0 -103.5 45.5t-39.5 119.5q0 73 39.5 118.5t103.5 45.5q65 0 104.5 -45.5t39.5 -118.5zM504 153q0 -62 27.5 -97.5t79.5 -35.5q54 0 81 35.5t27 97.5q0 61 -27 96.5t-81 35.5q-52 0 -79.5 -36t-27.5 -96z" />
    <glyph glyph-name="ampersand" unicode="&#x26;" horiz-adv-x="686" 
d="M194 554q0 -79 76 -167q90 30 139 71.5t49 106.5q0 50 -35 82t-98 32q-57 0 -94 -33.5t-37 -91.5zM276 21q137 0 215 102l-157 152q-55 53 -77 77q-78 -26 -119.5 -62.5t-41.5 -108.5t48 -116t132 -44zM619 0l-105 102q-89 -114 -238 -114q-99 0 -157.5 53t-58.5 139
q0 77 46.5 123t129.5 73q-78 91 -78 178q0 73 47 115.5t121 42.5q75 0 121.5 -40.5t46.5 -106.5q0 -136 -202 -203q20 -21 67 -66l151 -145q41 69 55 161h34q-19 -110 -67 -183l134 -129h-47z" />
    <glyph glyph-name="quotesingle" unicode="'" horiz-adv-x="154" 
d="M62 493q-2 81 -2 207h34q0 -126 -2 -207h-30z" />
    <glyph glyph-name="parenleft" unicode="(" horiz-adv-x="264" 
d="M229 761q-127 -201 -127 -453q0 -251 127 -452h-36q-128 195 -128 452q0 258 128 453h36z" />
    <glyph glyph-name="parenright" unicode=")" horiz-adv-x="264" 
d="M162 308q0 252 -127 453h36q128 -195 128 -453q0 -257 -128 -452h-36q127 201 127 452z" />
    <glyph glyph-name="asterisk" unicode="*" horiz-adv-x="390" 
d="M285 435q-56 66 -90 110q-34 -44 -90 -110l-26 23l91 101q-40 11 -130 40l10 32q80 -25 131 -46q-3 61 -3 139h34q0 -78 -3 -139q51 21 131 46l10 -32q-90 -29 -130 -40l91 -101z" />
    <glyph glyph-name="plus" unicode="+" horiz-adv-x="491" 
d="M456 327h-193v-200h-35v200h-193v32h193v194h35v-194h193v-32z" />
    <glyph glyph-name="comma" unicode="," horiz-adv-x="181" 
d="M78 70h35q-6 -106 -51 -217h-28q36 100 44 217z" />
    <glyph glyph-name="hyphen" unicode="-" horiz-adv-x="306" 
d="M40 296v32h226v-32h-226z" />
    <glyph glyph-name="period" unicode="." horiz-adv-x="171" 
d="M86 -7q-14 0 -22.5 9.5t-8.5 22.5t8.5 22t22.5 9t22 -9t8 -22t-8 -22.5t-22 -9.5z" />
    <glyph glyph-name="slash" unicode="/" horiz-adv-x="403" 
d="M328 755h35l-288 -810h-35z" />
    <glyph glyph-name="zero" unicode="0" horiz-adv-x="608" 
d="M304 -12q-64 0 -110.5 26.5t-73 75t-38.5 109t-12 136.5t12 136.5t38.5 109.5t73 75.5t110.5 26.5t110.5 -26.5t73 -75.5t38.5 -109.5t12 -136.5t-12 -136.5t-38.5 -109t-73 -75t-110.5 -26.5zM304 21q197 0 197 314q0 315 -197 315t-197 -315q0 -314 197 -314z" />
    <glyph glyph-name="one" unicode="1" horiz-adv-x="337" 
d="M237 0h-35v634q-81 -36 -159 -86l-16 29q85 55 177 94h33v-671z" />
    <glyph glyph-name="two" unicode="2" horiz-adv-x="487" 
d="M447 0h-417v33l138 138q110 108 160.5 180.5t50.5 156.5q0 68 -41.5 105t-113.5 37q-84 0 -159 -59l-16 27q83 65 176 65q90 0 140 -49t50 -126q0 -91 -57 -172.5t-170 -190.5l-116 -113h375v-32z" />
    <glyph glyph-name="three" unicode="3" horiz-adv-x="498" 
d="M206 -12q-101 0 -171 40l15 30q65 -38 157 -38q85 0 132.5 43.5t47.5 122.5q0 144 -182 144h-71v32h65q82 0 124 43.5t42 110.5q0 64 -43 99.5t-110 35.5q-81 0 -143 -45l-19 24q68 53 161 53q84 0 137 -44t53 -123q0 -129 -112 -168q134 -30 134 -162q0 -94 -57 -146
t-160 -52z" />
    <glyph glyph-name="four" unicode="4" horiz-adv-x="572" 
d="M430 206h102v-32h-102v-174h-35v174h-355v29q156 265 347 468h43v-465zM399 638q-192 -223 -321 -432h317v309q0 48 4 123z" />
    <glyph glyph-name="five" unicode="5" horiz-adv-x="505" 
d="M221 -12q-96 0 -172 37l15 31q72 -35 158 -35q92 0 141.5 49t49.5 130q0 166 -206 166q-47 0 -130 -15l30 320h302v-32h-271l-25 -250q53 10 110 10q107 0 167 -51t60 -148q0 -94 -60.5 -153t-168.5 -59z" />
    <glyph glyph-name="six" unicode="6" horiz-adv-x="562" 
d="M507 217q0 -102 -57 -165.5t-148 -63.5q-115 0 -173.5 89t-58.5 223q0 58 8.5 111.5t28 103.5t49.5 87t76.5 59t105.5 22q55 0 96 -12l-7 -31q-48 10 -89 10q-57 0 -101 -24.5t-70 -67.5t-40.5 -93.5t-18.5 -109.5q34 23 86 41t107 18q97 0 151.5 -53t54.5 -144zM302 21
q82 0 125 55t43 141q0 76 -43 120.5t-131 44.5q-46 0 -99 -18.5t-91 -45.5v-18q0 -119 49 -199t147 -80z" />
    <glyph glyph-name="seven" unicode="7" horiz-adv-x="444" 
d="M167 0h-35q33 123 76 241.5t78 196l94 201.5h-350v32h384v-30l-94 -206t-74 -188.5t-79 -246.5z" />
    <glyph glyph-name="eight" unicode="8" horiz-adv-x="586" 
d="M292 -12q-95 0 -161 48t-66 133q0 119 142 177q-119 56 -119 164q0 79 59.5 126t144.5 47q90 0 147.5 -51t57.5 -127q0 -113 -121 -176q74 -24 109.5 -62t35.5 -102q0 -80 -66 -128.5t-163 -48.5zM289 353q7 -2 22.5 -5.5t23.5 -5.5q63 30 94.5 68t31.5 95
q0 64 -47.5 104.5t-121.5 40.5q-72 0 -120 -38t-48 -102q0 -61 47 -101t118 -56zM292 21q82 0 137.5 38.5t55.5 105.5q0 29 -10.5 51.5t-26.5 37.5t-46 28.5t-57.5 21.5t-73.5 20q-16 4 -23 7q-147 -54 -147 -162q0 -71 57 -109.5t134 -38.5z" />
    <glyph glyph-name="nine" unicode="9" horiz-adv-x="549" 
d="M264 283q55 0 107 19t87 50q-1 58 -10 107t-29 94.5t-58.5 71t-92.5 25.5q-82 0 -128.5 -55t-46.5 -136q0 -78 41 -127t130 -49zM217 -12q-66 0 -123 19l6 31q66 -17 117 -17q230 0 241 294q-82 -65 -199 -65q-98 0 -151 58t-53 151q0 104 60 164t153 60
q64 0 109.5 -28.5t70 -79t35.5 -108t11 -126.5q0 -353 -277 -353z" />
    <glyph glyph-name="colon" unicode=":" horiz-adv-x="171" 
d="M86 439q-14 0 -22.5 9.5t-8.5 22.5t8.5 22t22.5 9t22 -9t8 -22t-8 -22.5t-22 -9.5zM86 -7q-14 0 -22.5 9.5t-8.5 22.5t8.5 22t22.5 9t22 -9t8 -22t-8 -22.5t-22 -9.5z" />
    <glyph glyph-name="semicolon" unicode=";" horiz-adv-x="221" 
d="M141 471q0 -13 -8 -22.5t-22 -9.5t-22.5 9.5t-8.5 22.5t8.5 22t22.5 9t22 -9t8 -22zM98 70h35q-6 -106 -51 -217h-28q36 100 44 217z" />
    <glyph glyph-name="less" unicode="&#x3c;" horiz-adv-x="491" 
d="M456 136l-421 188v38l421 189v-38l-381 -170l381 -169v-38z" />
    <glyph glyph-name="equal" unicode="=" horiz-adv-x="491" 
d="M35 416v32h421v-32h-421zM35 237v32h421v-32h-421z" />
    <glyph glyph-name="greater" unicode="&#x3e;" horiz-adv-x="491" 
d="M35 136v38l381 169l-381 170v38l421 -189v-38z" />
    <glyph glyph-name="question" unicode="?" horiz-adv-x="432" 
d="M39 649l-9 31q74 32 151 32q84 0 137.5 -42t53.5 -116q0 -38 -14 -70.5t-29.5 -49.5t-42.5 -42q-29 -27 -41.5 -41t-26.5 -42.5t-14 -60.5v-21h-33v21q0 38 14.5 70t28 47.5t41.5 42.5q26 24 40 39.5t27 44t13 62.5q0 59 -40.5 92t-113.5 33q-68 0 -142 -30zM188 54
q12 0 20 -8.5t8 -20.5t-8 -21t-20 -9q-13 0 -21 9t-8 21t8 20.5t21 8.5z" />
    <glyph glyph-name="at" unicode="@" horiz-adv-x="921" 
d="M462 -217q-178 0 -290 108t-112 297q0 89 28.5 168.5t81 140t133 96t177.5 35.5q168 0 274.5 -99t106.5 -260q0 -59 -9 -107t-28 -88.5t-54 -63t-83 -22.5q-78 0 -107 60q-56 -60 -140 -60q-44 0 -77 16.5t-51.5 45.5t-27.5 63t-9 73q0 62 20.5 114t67.5 87.5t115 35.5
q75 0 141 -33l-23 -217q-8 -77 13.5 -115t78.5 -38q137 0 137 249q0 148 -95.5 237.5t-250.5 89.5q-169 0 -276 -115t-107 -293q0 -170 99.5 -271.5t267.5 -101.5q107 0 237 41l8 -31q-129 -42 -246 -42zM441 20q73 0 128 57q-13 38 -6 108l21 188q-48 18 -107 18
q-78 0 -122.5 -55.5t-44.5 -149.5q0 -77 32.5 -121.5t98.5 -44.5z" />
    <glyph glyph-name="A" unicode="A" horiz-adv-x="632" 
d="M316 667q-85 -191 -161 -402h322q-76 211 -161 402zM566 0q-37 121 -77 233h-346q-40 -112 -77 -233h-36q132 407 268 700h36q146 -314 268 -700h-36z" />
    <glyph glyph-name="B" unicode="B" horiz-adv-x="612" 
d="M267 0h-157v700h127q134 0 205.5 -39t71.5 -137q0 -68 -28.5 -109t-72.5 -56q56 -14 92.5 -55.5t36.5 -117.5q0 -55 -19 -92t-57.5 -57.5t-85.5 -28.5t-113 -8zM145 668v-296h169q164 0 164 152q0 84 -60.5 114t-180.5 30h-92zM145 340v-308h122q120 0 179.5 31.5
t59.5 122.5q0 154 -192 154h-169z" />
    <glyph glyph-name="C" unicode="C" horiz-adv-x="602" 
d="M380 -12q-150 0 -230 94.5t-80 257.5q0 165 76 268.5t225 103.5q86 0 171 -34l-10 -32q-89 33 -161 33q-91 0 -152 -48t-86.5 -122t-25.5 -169q0 -145 69.5 -232t203.5 -87q78 0 159 35l8 -31q-76 -37 -167 -37z" />
    <glyph glyph-name="D" unicode="D" horiz-adv-x="685" 
d="M288 668h-143v-636h143q149 0 224.5 88.5t75.5 229.5q0 142 -74.5 230t-225.5 88zM110 0v700h178q163 0 250 -95t87 -255t-87.5 -255t-249.5 -95h-178z" />
    <glyph glyph-name="E" unicode="E" horiz-adv-x="563" 
d="M503 32v-32h-393v700h393v-32h-358v-290h308v-32h-308v-314h358z" />
    <glyph glyph-name="F" unicode="F" horiz-adv-x="538" 
d="M145 0h-35v700h383v-32h-348v-310h288v-32h-288v-326z" />
    <glyph glyph-name="G" unicode="G" horiz-adv-x="680" 
d="M600 27q-84 -39 -184 -39q-168 0 -257 98t-89 264q0 157 83.5 259.5t237.5 102.5q107 0 195 -43l-10 -31q-90 41 -185 41q-138 0 -211 -94.5t-73 -234.5q0 -148 79 -238.5t229 -90.5q85 0 150 26v269h-171v32h206v-321z" />
    <glyph glyph-name="H" unicode="H" horiz-adv-x="720" 
d="M575 0v346h-430v-346h-35v700h35v-322h430v322h35v-700h-35z" />
    <glyph glyph-name="I" unicode="I" horiz-adv-x="255" 
d="M110 0v700h35v-700h-35z" />
    <glyph glyph-name="J" unicode="J" horiz-adv-x="255" 
d="M-48 -183l-17 28q102 61 138.5 139t36.5 239v477h35v-472q0 -124 -20 -199t-58.5 -120t-114.5 -92z" />
    <glyph glyph-name="K" unicode="K" horiz-adv-x="617" 
d="M538 0l-245 350q-61 -42 -148 -86v-264h-35v700h35v-399q165 87 248 178.5t108 220.5h35q-19 -102 -71 -181.5t-144 -148.5l262 -370h-45z" />
    <glyph glyph-name="L" unicode="L" horiz-adv-x="547" 
d="M110 0v700h35v-668h357v-32h-392z" />
    <glyph glyph-name="M" unicode="M" horiz-adv-x="892" 
d="M744 700h38v-700h-35v535q0 21 0.5 52.5t0.5 42.5q-105 -247 -284 -530h-36q-176 279 -285 531q2 -54 2 -96v-535h-35v700h38q92 -230 299 -567q201 328 297 567z" />
    <glyph glyph-name="N" unicode="N" horiz-adv-x="720" 
d="M145 0h-35v700h34q96 -165 195 -312.5t239 -337.5q-3 38 -3 98v552h35v-700h-34q-155 207 -254.5 352t-179.5 292q3 -93 3 -108v-536z" />
    <glyph glyph-name="O" unicode="O" horiz-adv-x="706" 
d="M636 350q0 -103 -28.5 -182.5t-93.5 -129.5t-161 -50t-161 50t-93.5 129.5t-28.5 182.5q0 76 16.5 140t49.5 114.5t88.5 79t128.5 28.5q96 0 161 -50t93.5 -129.5t28.5 -182.5zM107 350q0 -144 61 -236.5t185 -92.5q64 0 112.5 26.5t77 72.5t42.5 104t14 126t-14 126
t-42.5 104t-77 72.5t-112.5 26.5q-65 0 -113.5 -26.5t-76.5 -72.5t-42 -104t-14 -126z" />
    <glyph glyph-name="P" unicode="P" horiz-adv-x="609" 
d="M257 668h-112v-366h112q116 0 178.5 41.5t62.5 141.5t-63 141.5t-178 41.5zM257 270h-112v-270h-35v700h147q277 0 277 -215t-277 -215z" />
    <glyph glyph-name="Q" unicode="Q" horiz-adv-x="706" 
d="M549 -170q-71 0 -117.5 41t-56.5 118q-7 -1 -22 -1q-96 0 -161 50t-93.5 129.5t-28.5 182.5q0 76 16.5 140t49.5 114.5t88.5 79t128.5 28.5q96 0 161 -50t93.5 -129.5t28.5 -182.5q0 -142 -56.5 -239.5t-170.5 -117.5q9 -64 48 -97t94 -33q27 0 50 6l7 -33q-33 -6 -59 -6
zM107 350q0 -144 61 -236.5t185 -92.5q64 0 112.5 26.5t77 72.5t42.5 104t14 126t-14 126t-42.5 104t-77 72.5t-112.5 26.5q-65 0 -113.5 -26.5t-76.5 -72.5t-42 -104t-14 -126z" />
    <glyph glyph-name="R" unicode="R" horiz-adv-x="613" 
d="M257 668h-112v-324h112q111 0 168.5 38.5t57.5 125.5q0 86 -57 123t-169 37zM242 312h-97v-312h-35v700h147q129 0 195.5 -45t66.5 -147q0 -88 -54 -137t-135 -52q21 -7 39.5 -25.5t47.5 -63.5l151 -230h-46l-136 211q-37 57 -66 79t-78 22z" />
    <glyph glyph-name="S" unicode="S" horiz-adv-x="544" 
d="M60 24l8 35q109 -38 192 -38q90 0 141.5 37t51.5 112q0 39 -13.5 68t-44 49.5t-61 33t-81.5 27.5q-97 30 -142 72.5t-45 120.5q0 83 58 127t158 44q81 0 157 -27l-8 -31q-84 25 -146 25q-182 0 -182 -138q0 -66 39.5 -99t126.5 -60q44 -13 70 -23t58.5 -27.5t50 -38
t30 -52t12.5 -71.5q0 -50 -19.5 -86.5t-53 -56.5t-72.5 -29.5t-85 -9.5q-110 0 -200 36z" />
    <glyph glyph-name="T" unicode="T" horiz-adv-x="549" 
d="M519 668h-227v-668h-35v668h-227v32h489v-32z" />
    <glyph glyph-name="U" unicode="U" horiz-adv-x="700" 
d="M105 265v435h35v-435q0 -126 51.5 -185t158.5 -59t158.5 59t51.5 185v435h35v-435q0 -145 -60 -211t-185 -66t-185 66t-60 211z" />
    <glyph glyph-name="V" unicode="V" horiz-adv-x="594" 
d="M316 0h-38q-83 183 -139.5 341t-108.5 359h36q87 -344 231 -664q144 320 231 664h36q-52 -201 -108.5 -359t-139.5 -341z" />
    <glyph glyph-name="W" unicode="W" horiz-adv-x="952" 
d="M685 32q132 327 196 668h36q-75 -364 -213 -700h-38q-68 160 -110 306.5t-80 341.5q-38 -195 -80 -341.5t-110 -306.5h-38q-74 177 -122 335t-91 365h36q72 -360 196 -668q124 320 188 668h42q64 -348 188 -668z" />
    <glyph glyph-name="X" unicode="X" horiz-adv-x="577" 
d="M507 0l-223 337q-143 -187 -217 -337h-37q76 167 238 363l-223 337h41l207 -313q141 169 202 313h37q-65 -158 -223 -338l239 -362h-41z" />
    <glyph glyph-name="Y" unicode="Y" horiz-adv-x="563" 
d="M299 0h-35v305q-159 200 -244 395h39q42 -98 94 -181.5t130 -184.5q142 182 222 366h38q-93 -206 -244 -395v-305z" />
    <glyph glyph-name="Z" unicode="Z" horiz-adv-x="554" 
d="M495 673q-77 -170 -169.5 -312t-237.5 -329h421v-32h-464v27q296 387 414 641h-404v32h440v-27z" />
    <glyph glyph-name="bracketleft" unicode="[" horiz-adv-x="244" 
d="M80 -144v905h124v-32h-89v-841h89v-32h-124z" />
    <glyph glyph-name="backslash" unicode="\" horiz-adv-x="403" 
d="M328 -55l-288 810h35l288 -810h-35z" />
    <glyph glyph-name="bracketright" unicode="]" horiz-adv-x="244" 
d="M40 -144v32h89v841h-89v32h124v-905h-124z" />
    <glyph glyph-name="asciicircum" unicode="^" horiz-adv-x="491" 
d="M396 357l-150 307l-151 -307h-37l170 343h35l170 -343h-37z" />
    <glyph glyph-name="underscore" unicode="_" horiz-adv-x="480" 
d="M20 -72v32h440v-32h-440z" />
    <glyph glyph-name="grave" unicode="`" horiz-adv-x="500" 
d="M252 570l-97 130h42l91 -130h-36z" />
    <glyph glyph-name="a" unicode="a" horiz-adv-x="519" 
d="M424 37q-78 -49 -183 -49q-87 0 -134 39t-47 104q0 79 53 114.5t138 36.5q65 0 138 -17v75q0 139 -147 139q-73 0 -136 -27l-11 32q63 28 147 28q182 0 182 -172v-303zM242 21q92 0 147 36v175q-74 17 -137 17q-156 0 -156 -118q0 -54 38.5 -82t107.5 -28z" />
    <glyph glyph-name="b" unicode="b" horiz-adv-x="572" 
d="M507 262q0 -127 -63 -200.5t-176 -73.5q-102 0 -163 31v701l35 3v-252q55 41 137 41q106 0 168 -63.5t62 -186.5zM140 42q48 -21 129 -21q97 0 149 63.5t52 177.5q0 107 -52 162t-142 55q-39 0 -77 -13.5t-59 -32.5v-391z" />
    <glyph glyph-name="c" unicode="c" horiz-adv-x="490" 
d="M300 512q75 0 140 -29l-10 -31q-67 27 -130 27q-97 0 -147.5 -63t-50.5 -171q0 -109 53.5 -166.5t157.5 -57.5q62 0 124 31l10 -31q-61 -33 -134 -33q-120 0 -184 66.5t-64 190.5q0 122 61.5 194.5t173.5 72.5z" />
    <glyph glyph-name="d" unicode="d" horiz-adv-x="571" 
d="M466 32q-62 -44 -161 -44q-109 0 -174.5 67.5t-65.5 186.5q0 126 66 198t190 72q58 0 110 -22v230l35 3v-691zM102 242q0 -102 55 -161.5t147 -59.5q85 0 127 30v402q-52 26 -110 26q-107 0 -163 -62.5t-56 -174.5z" />
    <glyph glyph-name="e" unicode="e" horiz-adv-x="549" 
d="M287 479q-82 0 -130 -54.5t-55 -145.5h345q1 9 1 23q0 74 -39.5 125.5t-121.5 51.5zM484 24q-75 -36 -166 -36q-119 0 -186 67t-67 196q0 116 59 188.5t163 72.5q96 0 147 -61t51 -153q0 -24 -3 -51h-381q1 -113 58.5 -169.5t158.5 -56.5q79 0 157 35z" />
    <glyph glyph-name="f" unicode="f" horiz-adv-x="314" 
d="M110 0v468h-80v32h80v76q0 155 129 155q33 0 70 -11l-9 -31q-38 9 -61 9q-52 0 -73 -31t-21 -91v-76h147v-32h-147v-468h-35z" />
    <glyph glyph-name="g" unicode="g" horiz-adv-x="562" 
d="M102 259q0 -98 49.5 -153t136.5 -55q83 0 139 43v359q-58 26 -127 26q-91 0 -144.5 -58t-53.5 -162zM271 -192q-81 0 -153 25l9 33q75 -25 144 -25q79 0 117.5 37.5t38.5 101.5v79q-53 -41 -140 -41q-102 0 -162 63t-60 178q0 118 63 185.5t173 67.5q96 0 161 -40v-492
q0 -86 -50 -129t-141 -43z" />
    <glyph glyph-name="h" unicode="h" horiz-adv-x="589" 
d="M140 0h-35v720l35 3v-257q81 46 170 46t136.5 -46.5t47.5 -125.5v-340h-35v338q0 66 -37 103.5t-112 37.5q-93 0 -170 -47v-432z" />
    <glyph glyph-name="i" unicode="i" horiz-adv-x="245" 
d="M123 625q-14 0 -22.5 9.5t-8.5 22.5t8.5 22t22.5 9t22 -9t8 -22t-8 -22.5t-22 -9.5zM140 500v-500h-35v500h35z" />
    <glyph glyph-name="j" unicode="j" horiz-adv-x="245" 
d="M153 657q0 -13 -8 -22.5t-22 -9.5t-22.5 9.5t-8.5 22.5t8.5 22t22.5 9t22 -9t8 -22zM140 62q0 -98 -32 -152.5t-111 -92.5l-13 28q71 39 96 83t25 135v437h35v-438z" />
    <glyph glyph-name="k" unicode="k" horiz-adv-x="519" 
d="M437 0l-176 238q-45 -33 -121 -76v-162h-35v720l35 3v-525q132 78 192.5 141.5t77.5 160.5h33q-22 -139 -156 -243l193 -257h-43z" />
    <glyph glyph-name="l" unicode="l" horiz-adv-x="276" 
d="M135 723v-602q0 -53 16.5 -77t57.5 -24q13 0 28 3l4 -30q-15 -5 -32 -5q-109 0 -109 133v599z" />
    <glyph glyph-name="m" unicode="m" horiz-adv-x="900" 
d="M135 437v-437h-35v458q93 54 194 54q97 0 142 -58q94 58 189 58q92 0 136 -47t44 -125v-340h-35v338q0 62 -35.5 101.5t-108.5 39.5q-91 0 -172 -55q16 -36 16 -84v-340h-35v338q0 63 -33.5 102t-106.5 39q-90 0 -160 -42z" />
    <glyph glyph-name="n" unicode="n" horiz-adv-x="584" 
d="M135 0h-35v458q98 54 204 54q94 0 139.5 -46t45.5 -126v-340h-35v338q0 65 -37 103t-112 38q-96 0 -170 -42v-437z" />
    <glyph glyph-name="o" unicode="o" horiz-adv-x="563" 
d="M498 250q0 -119 -56.5 -190.5t-160.5 -71.5q-102 0 -159 71.5t-57 190.5t57 190.5t159 71.5q104 0 160.5 -71.5t56.5 -190.5zM102 250q0 -106 45 -167.5t134 -61.5q91 0 135.5 61.5t44.5 167.5t-44.5 167.5t-135.5 61.5q-89 0 -134 -61.5t-45 -167.5z" />
    <glyph glyph-name="p" unicode="p" horiz-adv-x="565" 
d="M135 442v-385q66 -36 130 -36q96 0 146.5 63.5t50.5 180.5q0 93 -46 153.5t-138 60.5q-81 0 -143 -37zM279 512q110 0 165.5 -68t55.5 -179q0 -127 -57 -202t-177 -75q-73 0 -131 31v-203h-35v647q87 49 179 49z" />
    <glyph glyph-name="q" unicode="q" horiz-adv-x="565" 
d="M465 -184h-35v222q-52 -50 -146 -50q-100 0 -159.5 69t-59.5 188q0 126 64.5 196.5t175.5 70.5q97 0 160 -39v-657zM102 245q0 -102 49 -163t135 -61q89 0 144 53v380q-56 25 -125 25q-93 0 -148 -61t-55 -173z" />
    <glyph glyph-name="r" unicode="r" horiz-adv-x="373" 
d="M105 457q89 55 210 55q15 0 38 -3l-5 -33q-15 3 -33 3q-103 0 -175 -43v-436h-35v457z" />
    <glyph glyph-name="s" unicode="s" horiz-adv-x="428" 
d="M348 489l-8 -31q-65 21 -122 21q-127 0 -127 -100q0 -21 8 -38t17.5 -27t30.5 -20.5t32 -14.5l37 -13q87 -28 127 -58t40 -87q0 -66 -48 -99.5t-125 -33.5q-43 0 -91 9t-69 19l9 33q80 -28 151 -28q64 0 100 26t36 74q0 43 -34.5 66.5t-111.5 47.5q-70 22 -108 53t-38 91
q0 64 43 98.5t121 34.5q77 0 130 -23z" />
    <glyph glyph-name="t" unicode="t" horiz-adv-x="328" 
d="M303 -1q-35 -11 -68 -11q-130 0 -130 140v340h-80v32h80v123l35 4v-127h149v-32h-149v-340q0 -59 24 -83t70 -24q33 0 66 10z" />
    <glyph glyph-name="u" unicode="u" horiz-adv-x="574" 
d="M474 42q-103 -54 -209 -54q-86 0 -128 43t-42 119v350h35v-348q0 -61 32.5 -96t101.5 -35q97 0 175 42v437h35v-458z" />
    <glyph glyph-name="v" unicode="v" horiz-adv-x="512" 
d="M45 500h35q38 -216 176 -465q141 249 176 465h35q-22 -130 -69 -247.5t-124 -252.5h-37q-154 271 -192 500z" />
    <glyph glyph-name="w" unicode="w" horiz-adv-x="782" 
d="M255 0h-38q-68 135 -110 252.5t-62 247.5h35q34 -217 156 -465q99 198 137 368q-10 44 -18 97h35q35 -221 156 -465q64 131 102 238.5t54 226.5h35q-34 -226 -173 -500h-37q-94 187 -137 337q-45 -161 -135 -337z" />
    <glyph glyph-name="x" unicode="x" horiz-adv-x="477" 
d="M399 0q-69 131 -165 242q-63 -67 -100 -121t-58 -121h-36q26 77 63.5 133.5t109.5 131.5q-109 121 -165 235h38q50 -99 151 -213q119 117 148 213h36q-17 -60 -56 -115t-108 -121q104 -118 181 -264h-39z" />
    <glyph glyph-name="y" unicode="y" horiz-adv-x="504" 
d="M277 0q-82 -146 -215 -183l-10 32q60 16 105 52.5t84 101.5q-151 239 -194 497h35q39 -225 179 -465q134 243 173 465h35q-22 -131 -68.5 -247.5t-123.5 -252.5z" />
    <glyph glyph-name="z" unicode="z" horiz-adv-x="454" 
d="M35 0v27q215 235 334 441h-314v32h355v-27q-119 -208 -329 -441h343v-32h-389z" />
    <glyph glyph-name="braceleft" unicode="{" horiz-adv-x="283" 
d="M207 -149q-92 0 -92 113q0 34 5 104t5 104q0 69 -19.5 94.5t-75.5 25.5v32q56 0 75.5 25.5t19.5 94.5q0 34 -5 103t-5 105q0 113 92 113q21 0 36 -2v-30h-26q-38 0 -52.5 -18t-14.5 -64q0 -35 5 -103.5t5 -103.5q0 -58 -14 -90.5t-48 -45.5q34 -13 48 -45.5t14 -90.5
q0 -34 -5 -103t-5 -104q0 -46 14.5 -64t52.5 -18h26v-30q-15 -2 -36 -2z" />
    <glyph glyph-name="bar" unicode="|" horiz-adv-x="253" 
d="M110 -214v965h33v-965h-33z" />
    <glyph glyph-name="braceright" unicode="}" horiz-adv-x="283" 
d="M76 -149q-21 0 -36 2v30h26q38 0 52.5 18t14.5 64q0 35 -5 104t-5 103q0 58 14 90.5t48 45.5q-34 13 -48 45.5t-14 90.5q0 35 5 103.5t5 103.5q0 46 -14.5 64t-52.5 18h-26v30q15 2 36 2q92 0 92 -113q0 -36 -5 -105t-5 -103q0 -69 19.5 -94.5t75.5 -25.5v-32
q-56 0 -75.5 -25.5t-19.5 -94.5q0 -34 5 -104t5 -104q0 -113 -92 -113z" />
    <glyph glyph-name="asciitilde" unicode="~" horiz-adv-x="491" 
d="M157 388q42 0 96 -29t86 -29q56 0 91 68l27 -13q-20 -41 -47 -64.5t-71 -23.5q-42 0 -96 29t-86 29q-67 0 -95 -68l-28 12q15 42 47.5 65.5t75.5 23.5z" />
    <glyph glyph-name="uni00A0" unicode="&#xa0;" horiz-adv-x="235" 
 />
    <glyph glyph-name="exclamdown" unicode="&#xa1;" horiz-adv-x="277" 
d="M110 482q0 12 8 21t20 9q13 0 21 -9t8 -21t-8 -20.5t-21 -8.5q-12 0 -20 8.5t-8 20.5zM120 -193v272q0 103 5 201h28q5 -97 5 -202v-271h-38z" />
    <glyph glyph-name="cent" unicode="&#xa2;" horiz-adv-x="515" 
d="M455 14q-54 -23 -133 -26v-113h-35v113q-105 6 -163.5 75.5t-58.5 186.5t57.5 187.5t163.5 74.5v111h35v-111q71 -4 125 -24l-9 -31q-69 23 -137 23q-97 0 -147.5 -61t-50.5 -169q0 -109 52.5 -169.5t150.5 -60.5q80 0 141 25z" />
    <glyph glyph-name="sterling" unicode="&#xa3;" horiz-adv-x="551" 
d="M138 0v338h-102v32h102v126q0 85 44.5 136t141.5 51q78 0 165 -34l-10 -29q-91 31 -155 31q-151 0 -151 -155v-126h175v-32h-175v-306h348v-32h-383z" />
    <glyph glyph-name="currency" unicode="&#xa4;" horiz-adv-x="560" 
d="M476 134l-69 68q-51 -43 -127 -43q-75 0 -128 42l-68 -67l-24 25l68 67q-43 51 -43 126t43 126l-68 67l24 25l68 -68q53 42 128 42q76 0 127 -42l69 68l24 -25l-68 -67q42 -53 42 -126q0 -75 -42 -126l68 -67zM117 352q0 -72 45 -117.5t118 -45.5t117 45t44 118
t-44 117.5t-117 44.5t-118 -44.5t-45 -117.5z" />
    <glyph glyph-name="yen" unicode="&#xa5;" horiz-adv-x="613" 
d="M541 195h-217v-195h-35v195h-219v32h219v78l-37 47h-182v32h158q-110 150 -183 316h39q76 -175 222 -364q147 188 223 364h39q-73 -166 -183 -316h156v-32h-180l-37 -47v-78h217v-32z" />
    <glyph glyph-name="brokenbar" unicode="&#xa6;" horiz-adv-x="253" 
d="M110 340v409h33v-409h-33zM110 -214v413h33v-413h-33z" />
    <glyph glyph-name="section" unicode="&#xa7;" horiz-adv-x="587" 
d="M269 160q103 -37 136 -57q34 22 57.5 57t23.5 76q0 65 -67 103q-30 18 -135 56q-62 23 -100 49q-83 -52 -83 -133q0 -58 39 -88.5t129 -62.5zM266 -170q-96 0 -167 31l9 32q73 -30 158 -30q168 0 168 122q0 55 -36 80.5t-124 56.5q-14 4 -21 7q-99 35 -143.5 74
t-44.5 108q0 51 27.5 91t66.5 62q-43 42 -43 104q0 72 52.5 108t130.5 36q75 0 154 -24l-9 -31q-79 22 -145 22q-68 0 -108 -28.5t-40 -82.5q0 -51 38.5 -83.5t110.5 -58.5q43 -15 61.5 -22.5l51 -21.5t47 -26t32 -30.5t24 -40.5t6.5 -49q0 -48 -25.5 -89.5t-65.5 -64.5
q39 -36 39 -97q0 -81 -59.5 -118t-144.5 -37z" />
    <glyph glyph-name="dieresis" unicode="&#xa8;" horiz-adv-x="500" 
d="M354 635q0 -13 -7.5 -22.5t-21.5 -9.5q-32 0 -32 32q0 13 8 22t24 9q14 0 21.5 -9t7.5 -22zM204 635q0 -14 -8 -23t-22 -9q-15 0 -23 9t-8 23q0 13 8 22t23 9q14 0 22 -9t8 -22z" />
    <glyph glyph-name="copyright" unicode="&#xa9;" horiz-adv-x="825" 
d="M775 350q0 -161 -100 -261.5t-262 -100.5q-163 0 -263 100.5t-100 261.5t100 261.5t263 100.5q162 0 262 -100.5t100 -261.5zM86 350q0 -148 89 -238.5t238 -90.5q148 0 237 90.5t89 238.5t-89 238.5t-237 90.5q-149 0 -238 -90.5t-89 -238.5zM236 350q0 101 53.5 149.5
t130.5 48.5q53 0 107 -20l-9 -29q-47 16 -95 16q-65 0 -108 -39t-43 -126t42.5 -126t105.5 -39q52 0 98 17l9 -30q-54 -20 -107 -20q-77 0 -130.5 48.5t-53.5 149.5z" />
    <glyph glyph-name="ordfeminine" unicode="&#xaa;" horiz-adv-x="347" 
d="M161 363q64 0 102 26v100q-47 9 -97 9q-91 0 -91 -65q0 -70 86 -70zM297 372h-2q-62 -41 -135 -41q-59 0 -89.5 27.5t-30.5 74.5q0 48 35.5 72.5t90.5 24.5q49 0 97 -10v46q0 45 -24 65t-72 20t-94 -17l-7 30q55 19 101 19q130 0 130 -117v-194z" />
    <glyph glyph-name="guillemotleft" unicode="&#xab;" horiz-adv-x="537" 
d="M446 64q-86 74 -197 200q100 114 197 200h46q-113 -104 -197 -200q84 -96 197 -200h-46zM222 64q-86 74 -197 200q100 114 197 200h46q-113 -104 -197 -200q84 -96 197 -200h-46z" />
    <glyph glyph-name="logicalnot" unicode="&#xac;" horiz-adv-x="491" 
d="M456 137h-35v190h-386v32h421v-222z" />
    <glyph glyph-name="registered" unicode="&#xae;" horiz-adv-x="570" 
d="M51 473q0 107 64.5 173t168.5 66t169.5 -66.5t65.5 -172.5t-65.5 -172.5t-169.5 -66.5q-105 0 -169 66t-64 173zM485 473q0 97 -54 152t-147 55t-146 -55t-53 -152q0 -98 53 -152.5t146 -54.5t147 54.5t54 152.5zM278 571h-39v-94h39q62 0 62 47t-62 47zM278 450h-39v-93
h-32v241h71q95 0 95 -74q0 -52 -50 -68q20 -40 66 -99h-41q-36 47 -59 93h-11z" />
    <glyph glyph-name="macron" unicode="&#xaf;" horiz-adv-x="500" 
d="M124 609v32h246v-32h-246z" />
    <glyph glyph-name="degree" unicode="&#xb0;" horiz-adv-x="328" 
d="M30 577q0 61 37.5 98t97.5 37t96.5 -37t36.5 -98t-36.5 -98t-96.5 -37t-97.5 37t-37.5 98zM165 680q-45 0 -73 -27.5t-28 -75.5t28 -75.5t73 -27.5t72 27.5t27 75.5t-27 75.5t-72 27.5z" />
    <glyph glyph-name="plusminus" unicode="&#xb1;" horiz-adv-x="491" 
d="M456 337h-193v-190h-35v190h-193v32h193v184h35v-184h193v-32zM35 35v32h421v-32h-421z" />
    <glyph glyph-name="twosuperior" unicode="&#xb2;" horiz-adv-x="310" 
d="M277 367h-231v29l33 27q81 66 112 104t31 81q0 35 -20.5 53.5t-56.5 18.5q-42 0 -85 -32l-16 26l26.5 18.5t30 13t44.5 6.5q51 0 81 -26.5t30 -76.5q0 -46 -34 -89t-120 -114l-11 -9h186v-30z" />
    <glyph glyph-name="threesuperior" unicode="&#xb3;" horiz-adv-x="310" 
d="M152 359q-57 0 -101 22l12 30q47 -20 89 -20q83 0 83 68t-78 68h-48v30h35q38 0 57 15t19 51q0 57 -74 57q-35 0 -69 -21l-18 27q40 26 87 26q50 0 79 -23.5t29 -65.5q0 -61 -59 -79q74 -13 74 -85q0 -100 -117 -100z" />
    <glyph glyph-name="acute" unicode="&#xb4;" horiz-adv-x="500" 
d="M261 700h42l-97 -130h-36z" />
    <glyph glyph-name="paragraph" unicode="&#xb6;" horiz-adv-x="595" 
d="M275 700h210v-700h-35v670h-140v-670h-35v281q-91 0 -153 53t-62 157t61.5 156.5t153.5 52.5z" />
    <glyph glyph-name="periodcentered" unicode="&#xb7;" horiz-adv-x="500" 
d="M54 351q0 12 8 20.5t21 8.5q12 0 20 -8.5t8 -20.5t-8 -21t-20 -9q-13 0 -21 9t-8 21z" />
    <glyph glyph-name="cedilla" unicode="&#xb8;" horiz-adv-x="500" 
d="M213 -209q-28 0 -54 7l6 28q26 -6 48 -6q72 0 72 47q0 25 -20.5 35t-61.5 12l-9 22l22 64h32l-20 -59q91 -5 91 -74q0 -38 -29 -57t-77 -19z" />
    <glyph glyph-name="onesuperior" unicode="&#xb9;" horiz-adv-x="310" 
d="M205 367h-33v302q-49 -25 -85 -48l-13 26q39 27 103 57h28v-337z" />
    <glyph glyph-name="ordmasculine" unicode="&#xba;" horiz-adv-x="376" 
d="M336 506q0 -73 -36 -124.5t-112 -51.5t-112 51.5t-36 124.5q0 74 36 125.5t112 51.5t112 -51.5t36 -125.5zM75 506q0 -67 28.5 -105.5t84.5 -38.5t84.5 38.5t28.5 105.5t-28.5 106t-84.5 39t-84.5 -39t-28.5 -106z" />
    <glyph glyph-name="guillemotright" unicode="&#xbb;" horiz-adv-x="537" 
d="M91 64h-46q113 104 197 200q-84 96 -197 200h46q97 -86 197 -200q-111 -126 -197 -200zM315 64h-46q113 104 197 200q-84 96 -197 200h46q97 -86 197 -200q-111 -126 -197 -200z" />
    <glyph glyph-name="onequarter" unicode="&#xbc;" horiz-adv-x="784" 
d="M205 367h-33v302q-49 -25 -85 -48l-13 26q39 27 103 57h28v-337zM571 700h37l-387 -700h-37zM642 196q0 54 3 108q-92 -116 -148 -206h145v98zM730 68h-55v-68h-33v68h-178v27q74 129 178 242h33v-239h55v-30z" />
    <glyph glyph-name="onehalf" unicode="&#xbd;" horiz-adv-x="784" 
d="M205 367h-33v302q-49 -25 -85 -48l-13 26q39 27 103 57h28v-337zM539 700h37l-387 -700h-37zM721 0h-231v29l33 27q81 66 112 104t31 81q0 35 -20.5 53.5t-56.5 18.5q-42 0 -85 -32l-16 26l26.5 18.5t30 13t44.5 6.5q51 0 81 -26.5t30 -76.5q0 -46 -34 -89t-120 -114
l-11 -9h186v-30z" />
    <glyph glyph-name="threequarters" unicode="&#xbe;" horiz-adv-x="784" 
d="M588 700h37l-387 -700h-37zM152 359q-57 0 -101 22l12 30q47 -20 89 -20q83 0 83 68t-78 68h-48v30h35q38 0 57 15t19 51q0 57 -74 57q-35 0 -69 -21l-18 27q40 26 87 26q50 0 79 -23.5t29 -65.5q0 -61 -59 -79q74 -13 74 -85q0 -100 -117 -100zM642 196q0 54 3 108
q-92 -116 -148 -206h145v98zM730 68h-55v-68h-33v68h-178v27q74 129 178 242h33v-239h55v-30z" />
    <glyph glyph-name="questiondown" unicode="&#xbf;" horiz-adv-x="432" 
d="M244 453q-12 0 -20 8.5t-8 20.5t8 21t20 9q13 0 21 -9t8 -21t-8 -20.5t-21 -8.5zM402 -173q-74 -32 -151 -32q-84 0 -137.5 42t-53.5 116q0 38 14 70.5t29.5 49.5t42.5 42q29 27 41.5 41t26.5 42.5t14 60.5v21h33v-21q0 -38 -14.5 -70t-28 -47.5t-41.5 -42.5
q-26 -24 -40 -39.5t-27 -44t-13 -62.5q0 -59 40.5 -92t113.5 -33q68 0 142 30z" />
    <glyph glyph-name="Agrave" unicode="&#xc0;" horiz-adv-x="632" 
d="M301 770l-97 130h42l91 -130h-36zM316 667q-85 -191 -161 -402h322q-76 211 -161 402zM566 0q-37 121 -77 233h-346q-40 -112 -77 -233h-36q132 407 268 700h36q146 -314 268 -700h-36z" />
    <glyph glyph-name="Aacute" unicode="&#xc1;" horiz-adv-x="632" 
d="M392 900h42l-97 -130h-36zM316 667q-85 -191 -161 -402h322q-76 211 -161 402zM566 0q-37 121 -77 233h-346q-40 -112 -77 -233h-36q132 407 268 700h36q146 -314 268 -700h-36z" />
    <glyph glyph-name="Acircumflex" unicode="&#xc2;" horiz-adv-x="632" 
d="M407 770l-91 108l-91 -108h-39l106 130h48l106 -130h-39zM316 667q-85 -191 -161 -402h322q-76 211 -161 402zM566 0q-37 121 -77 233h-346q-40 -112 -77 -233h-36q132 407 268 700h36q146 -314 268 -700h-36z" />
    <glyph glyph-name="Atilde" unicode="&#xc3;" horiz-adv-x="632" 
d="M248 876q31 0 76 -30t63 -30q16 0 24.5 9.5t11 21.5t3.5 36h32q-1 -21 -3.5 -36t-9.5 -30.5t-21.5 -24t-35.5 -8.5q-31 0 -73.5 30t-65.5 30q-24 0 -33 -14.5t-11 -43.5h-32q3 90 75 90zM316 667q-85 -191 -161 -402h322q-76 211 -161 402zM566 0q-37 121 -77 233h-346
q-40 -112 -77 -233h-36q132 407 268 700h36q146 -314 268 -700h-36z" />
    <glyph glyph-name="Adieresis" unicode="&#xc4;" horiz-adv-x="632" 
d="M421 835q0 -13 -7.5 -22.5t-21.5 -9.5q-32 0 -32 32q0 13 8 22t24 9q14 0 21.5 -9t7.5 -22zM271 835q0 -14 -8 -23t-22 -9q-15 0 -23 9t-8 23q0 13 8 22t23 9q14 0 22 -9t8 -22zM316 667q-85 -191 -161 -402h322q-76 211 -161 402zM566 0q-37 121 -77 233h-346
q-40 -112 -77 -233h-36q132 407 268 700h36q146 -314 268 -700h-36z" />
    <glyph glyph-name="Aring" unicode="&#xc5;" horiz-adv-x="632" 
d="M316 852q-29 0 -45 -17.5t-16 -44.5q0 -26 16 -45t45 -19t45 19t16 45q0 27 -16 44.5t-45 17.5zM316 667q-85 -191 -161 -402h322q-76 211 -161 402zM566 0q-37 121 -77 233h-346q-40 -112 -77 -233h-36q132 407 268 700q-33 5 -53.5 29.5t-20.5 60.5q0 39 26.5 65
t65.5 26t65.5 -26t26.5 -65q0 -36 -20.5 -60.5t-53.5 -29.5q146 -314 268 -700h-36z" />
    <glyph glyph-name="AE" unicode="&#xc6;" horiz-adv-x="878" 
d="M445 265v398q-126 -194 -242 -398h242zM445 0v233h-261q-82 -146 -127 -233h-37q185 357 415 700h383v-32h-338v-290h288v-32h-288v-314h338v-32h-373z" />
    <glyph glyph-name="Ccedilla" unicode="&#xc7;" horiz-adv-x="602" 
d="M336 -209q-28 0 -54 7l6 28q26 -6 48 -6q72 0 72 47q0 25 -20.5 35t-61.5 12l-9 22l19 54q-129 14 -197.5 107t-68.5 243q0 165 76 268.5t225 103.5q86 0 171 -34l-10 -32q-89 33 -161 33q-91 0 -152 -48t-86.5 -122t-25.5 -169q0 -145 69.5 -232t203.5 -87q78 0 159 35
l8 -31q-76 -37 -167 -37h-13l-16 -47q91 -5 91 -74q0 -38 -29 -57t-77 -19z" />
    <glyph glyph-name="Egrave" unicode="&#xc8;" horiz-adv-x="563" 
d="M294 770l-97 130h42l91 -130h-36zM503 32v-32h-393v700h393v-32h-358v-290h308v-32h-308v-314h358z" />
    <glyph glyph-name="Eacute" unicode="&#xc9;" horiz-adv-x="563" 
d="M385 900h42l-97 -130h-36zM503 32v-32h-393v700h393v-32h-358v-290h308v-32h-308v-314h358z" />
    <glyph glyph-name="Ecircumflex" unicode="&#xca;" horiz-adv-x="563" 
d="M400 770l-91 108l-91 -108h-39l106 130h48l106 -130h-39zM503 32v-32h-393v700h393v-32h-358v-290h308v-32h-308v-314h358z" />
    <glyph glyph-name="Edieresis" unicode="&#xcb;" horiz-adv-x="563" 
d="M414 835q0 -13 -7.5 -22.5t-21.5 -9.5q-32 0 -32 32q0 13 8 22t24 9q14 0 21.5 -9t7.5 -22zM264 835q0 -14 -8 -23t-22 -9q-15 0 -23 9t-8 23q0 13 8 22t23 9q14 0 22 -9t8 -22zM503 32v-32h-393v700h393v-32h-358v-290h308v-32h-308v-314h358z" />
    <glyph glyph-name="Igrave" unicode="&#xcc;" horiz-adv-x="255" 
d="M113 770l-97 130h42l91 -130h-36zM110 0v700h35v-700h-35z" />
    <glyph glyph-name="Iacute" unicode="&#xcd;" horiz-adv-x="255" 
d="M204 900h42l-97 -130h-36zM110 0v700h35v-700h-35z" />
    <glyph glyph-name="Icircumflex" unicode="&#xce;" horiz-adv-x="255" 
d="M219 770l-91 108l-91 -108h-39l106 130h48l106 -130h-39zM110 0v700h35v-700h-35z" />
    <glyph glyph-name="Idieresis" unicode="&#xcf;" horiz-adv-x="255" 
d="M233 835q0 -13 -7.5 -22.5t-21.5 -9.5q-32 0 -32 32q0 13 8 22t24 9q14 0 21.5 -9t7.5 -22zM83 835q0 -14 -8 -23t-22 -9q-15 0 -23 9t-8 23q0 13 8 22t23 9q14 0 22 -9t8 -22zM110 0v700h35v-700h-35z" />
    <glyph glyph-name="Eth" unicode="&#xd0;" horiz-adv-x="685" 
d="M300 345h-155v-313h143q149 0 224.5 88.5t75.5 229.5q0 142 -74.5 230t-225.5 88h-143v-291h155v-32zM110 0v345h-80v32h80v323h178q163 0 250 -95t87 -255t-87.5 -255t-249.5 -95h-178z" />
    <glyph glyph-name="Ntilde" unicode="&#xd1;" horiz-adv-x="720" 
d="M292 876q31 0 76 -30t63 -30q16 0 24.5 9.5t11 21.5t3.5 36h32q-1 -21 -3.5 -36t-9.5 -30.5t-21.5 -24t-35.5 -8.5q-31 0 -73.5 30t-65.5 30q-24 0 -33 -14.5t-11 -43.5h-32q3 90 75 90zM145 0h-35v700h34q96 -165 195 -312.5t239 -337.5q-3 38 -3 98v552h35v-700h-34
q-155 207 -254.5 352t-179.5 292q3 -93 3 -108v-536z" />
    <glyph glyph-name="Ograve" unicode="&#xd2;" horiz-adv-x="706" 
d="M338 770l-97 130h42l91 -130h-36zM636 350q0 -103 -28.5 -182.5t-93.5 -129.5t-161 -50t-161 50t-93.5 129.5t-28.5 182.5q0 76 16.5 140t49.5 114.5t88.5 79t128.5 28.5q96 0 161 -50t93.5 -129.5t28.5 -182.5zM107 350q0 -144 61 -236.5t185 -92.5q64 0 112.5 26.5
t77 72.5t42.5 104t14 126t-14 126t-42.5 104t-77 72.5t-112.5 26.5q-65 0 -113.5 -26.5t-76.5 -72.5t-42 -104t-14 -126z" />
    <glyph glyph-name="Oacute" unicode="&#xd3;" horiz-adv-x="706" 
d="M429 900h42l-97 -130h-36zM636 350q0 -103 -28.5 -182.5t-93.5 -129.5t-161 -50t-161 50t-93.5 129.5t-28.5 182.5q0 76 16.5 140t49.5 114.5t88.5 79t128.5 28.5q96 0 161 -50t93.5 -129.5t28.5 -182.5zM107 350q0 -144 61 -236.5t185 -92.5q64 0 112.5 26.5t77 72.5
t42.5 104t14 126t-14 126t-42.5 104t-77 72.5t-112.5 26.5q-65 0 -113.5 -26.5t-76.5 -72.5t-42 -104t-14 -126z" />
    <glyph glyph-name="Ocircumflex" unicode="&#xd4;" horiz-adv-x="706" 
d="M444 770l-91 108l-91 -108h-39l106 130h48l106 -130h-39zM636 350q0 -103 -28.5 -182.5t-93.5 -129.5t-161 -50t-161 50t-93.5 129.5t-28.5 182.5q0 76 16.5 140t49.5 114.5t88.5 79t128.5 28.5q96 0 161 -50t93.5 -129.5t28.5 -182.5zM107 350q0 -144 61 -236.5
t185 -92.5q64 0 112.5 26.5t77 72.5t42.5 104t14 126t-14 126t-42.5 104t-77 72.5t-112.5 26.5q-65 0 -113.5 -26.5t-76.5 -72.5t-42 -104t-14 -126z" />
    <glyph glyph-name="Otilde" unicode="&#xd5;" horiz-adv-x="706" 
d="M285 876q31 0 76 -30t63 -30q16 0 24.5 9.5t11 21.5t3.5 36h32q-1 -21 -3.5 -36t-9.5 -30.5t-21.5 -24t-35.5 -8.5q-31 0 -73.5 30t-65.5 30q-24 0 -33 -14.5t-11 -43.5h-32q3 90 75 90zM636 350q0 -103 -28.5 -182.5t-93.5 -129.5t-161 -50t-161 50t-93.5 129.5
t-28.5 182.5q0 76 16.5 140t49.5 114.5t88.5 79t128.5 28.5q96 0 161 -50t93.5 -129.5t28.5 -182.5zM107 350q0 -144 61 -236.5t185 -92.5q64 0 112.5 26.5t77 72.5t42.5 104t14 126t-14 126t-42.5 104t-77 72.5t-112.5 26.5q-65 0 -113.5 -26.5t-76.5 -72.5t-42 -104
t-14 -126z" />
    <glyph glyph-name="Odieresis" unicode="&#xd6;" horiz-adv-x="706" 
d="M458 835q0 -13 -7.5 -22.5t-21.5 -9.5q-32 0 -32 32q0 13 8 22t24 9q14 0 21.5 -9t7.5 -22zM308 835q0 -14 -8 -23t-22 -9q-15 0 -23 9t-8 23q0 13 8 22t23 9q14 0 22 -9t8 -22zM636 350q0 -103 -28.5 -182.5t-93.5 -129.5t-161 -50t-161 50t-93.5 129.5t-28.5 182.5
q0 76 16.5 140t49.5 114.5t88.5 79t128.5 28.5q96 0 161 -50t93.5 -129.5t28.5 -182.5zM107 350q0 -144 61 -236.5t185 -92.5q64 0 112.5 26.5t77 72.5t42.5 104t14 126t-14 126t-42.5 104t-77 72.5t-112.5 26.5q-65 0 -113.5 -26.5t-76.5 -72.5t-42 -104t-14 -126z" />
    <glyph glyph-name="multiply" unicode="&#xd7;" horiz-adv-x="491" 
d="M404 162l-158 159l-159 -159l-23 22l159 159l-159 159l23 22l159 -158l158 158l23 -22l-159 -159l159 -159z" />
    <glyph glyph-name="Oslash" unicode="&#xd8;" horiz-adv-x="688" 
d="M353 -12q-120 0 -192 77l-49 -65h-38l67 90q-71 96 -71 260q0 76 16.5 140t49.5 114.5t88.5 79t128.5 28.5q120 0 192 -77l49 65h38l-67 -90q71 -96 71 -260q0 -103 -28.5 -182.5t-93.5 -129.5t-161 -50zM107 350q0 -142 56 -230l361 485q-64 74 -171 74
q-65 0 -113.5 -26.5t-76.5 -72.5t-42 -104t-14 -126zM353 21q64 0 112.5 26.5t77 72.5t42.5 104t14 126q0 144 -56 230l-361 -485q64 -74 171 -74z" />
    <glyph glyph-name="Ugrave" unicode="&#xd9;" horiz-adv-x="700" 
d="M335 770l-97 130h42l91 -130h-36zM105 265v435h35v-435q0 -126 51.5 -185t158.5 -59t158.5 59t51.5 185v435h35v-435q0 -145 -60 -211t-185 -66t-185 66t-60 211z" />
    <glyph glyph-name="Uacute" unicode="&#xda;" horiz-adv-x="700" 
d="M426 900h42l-97 -130h-36zM105 265v435h35v-435q0 -126 51.5 -185t158.5 -59t158.5 59t51.5 185v435h35v-435q0 -145 -60 -211t-185 -66t-185 66t-60 211z" />
    <glyph glyph-name="Ucircumflex" unicode="&#xdb;" horiz-adv-x="700" 
d="M441 770l-91 108l-91 -108h-39l106 130h48l106 -130h-39zM105 265v435h35v-435q0 -126 51.5 -185t158.5 -59t158.5 59t51.5 185v435h35v-435q0 -145 -60 -211t-185 -66t-185 66t-60 211z" />
    <glyph glyph-name="Udieresis" unicode="&#xdc;" horiz-adv-x="700" 
d="M455 835q0 -13 -7.5 -22.5t-21.5 -9.5q-32 0 -32 32q0 13 8 22t24 9q14 0 21.5 -9t7.5 -22zM305 835q0 -14 -8 -23t-22 -9q-15 0 -23 9t-8 23q0 13 8 22t23 9q14 0 22 -9t8 -22zM105 265v435h35v-435q0 -126 51.5 -185t158.5 -59t158.5 59t51.5 185v435h35v-435
q0 -145 -60 -211t-185 -66t-185 66t-60 211z" />
    <glyph glyph-name="Yacute" unicode="&#xdd;" horiz-adv-x="563" 
d="M358 900h42l-97 -130h-36zM299 0h-35v305q-159 200 -244 395h39q42 -98 94 -181.5t130 -184.5q142 182 222 366h38q-93 -206 -244 -395v-305z" />
    <glyph glyph-name="Thorn" unicode="&#xde;" horiz-adv-x="589" 
d="M257 538h-112v-366h112q116 0 178.5 41.5t62.5 141.5t-63 141.5t-178 41.5zM257 140h-112v-140h-35v700h35v-130h112q277 0 277 -215t-277 -215z" />
    <glyph glyph-name="germandbls" unicode="&#xdf;" horiz-adv-x="592" 
d="M105 0v524q0 99 48.5 153t129.5 54q80 0 120.5 -39t40.5 -106q0 -38 -18 -74.5t-35.5 -66.5t-17.5 -53q0 -21 17.5 -41t42.5 -38t49.5 -39t42 -53.5t17.5 -72.5q0 -77 -54.5 -118.5t-139.5 -41.5q-41 0 -105 12l5 33q51 -12 101 -12q74 0 115 32t41 95q0 37 -17 66
t-41.5 47.5l-49 36.5t-41.5 41t-17 51q0 35 34.5 94t34.5 102q0 112 -124 112q-144 0 -144 -174v-524h-35z" />
    <glyph glyph-name="agrave" unicode="&#xe0;" horiz-adv-x="519" 
d="M239 585l-97 130h42l91 -130h-36zM424 37q-78 -49 -183 -49q-87 0 -134 39t-47 104q0 79 53 114.5t138 36.5q65 0 138 -17v75q0 139 -147 139q-73 0 -136 -27l-11 32q63 28 147 28q182 0 182 -172v-303zM242 21q92 0 147 36v175q-74 17 -137 17q-156 0 -156 -118
q0 -54 38.5 -82t107.5 -28z" />
    <glyph glyph-name="aacute" unicode="&#xe1;" horiz-adv-x="519" 
d="M330 715h42l-97 -130h-36zM424 37q-78 -49 -183 -49q-87 0 -134 39t-47 104q0 79 53 114.5t138 36.5q65 0 138 -17v75q0 139 -147 139q-73 0 -136 -27l-11 32q63 28 147 28q182 0 182 -172v-303zM242 21q92 0 147 36v175q-74 17 -137 17q-156 0 -156 -118q0 -54 38.5 -82
t107.5 -28z" />
    <glyph glyph-name="acircumflex" unicode="&#xe2;" horiz-adv-x="519" 
d="M345 585l-91 108l-91 -108h-39l106 130h48l106 -130h-39zM424 37q-78 -49 -183 -49q-87 0 -134 39t-47 104q0 79 53 114.5t138 36.5q65 0 138 -17v75q0 139 -147 139q-73 0 -136 -27l-11 32q63 28 147 28q182 0 182 -172v-303zM242 21q92 0 147 36v175q-74 17 -137 17
q-156 0 -156 -118q0 -54 38.5 -82t107.5 -28z" />
    <glyph glyph-name="atilde" unicode="&#xe3;" horiz-adv-x="519" 
d="M186 691q31 0 76 -30t63 -30q16 0 24.5 9.5t11 21.5t3.5 36h32q-1 -21 -3.5 -36t-9.5 -30.5t-21.5 -24t-35.5 -8.5q-31 0 -73.5 30t-65.5 30q-24 0 -33 -14.5t-11 -43.5h-32q3 90 75 90zM424 37q-78 -49 -183 -49q-87 0 -134 39t-47 104q0 79 53 114.5t138 36.5
q65 0 138 -17v75q0 139 -147 139q-73 0 -136 -27l-11 32q63 28 147 28q182 0 182 -172v-303zM242 21q92 0 147 36v175q-74 17 -137 17q-156 0 -156 -118q0 -54 38.5 -82t107.5 -28z" />
    <glyph glyph-name="adieresis" unicode="&#xe4;" horiz-adv-x="519" 
d="M359 650q0 -13 -7.5 -22.5t-21.5 -9.5q-32 0 -32 32q0 13 8 22t24 9q14 0 21.5 -9t7.5 -22zM209 650q0 -14 -8 -23t-22 -9q-15 0 -23 9t-8 23q0 13 8 22t23 9q14 0 22 -9t8 -22zM424 37q-78 -49 -183 -49q-87 0 -134 39t-47 104q0 79 53 114.5t138 36.5q65 0 138 -17v75
q0 139 -147 139q-73 0 -136 -27l-11 32q63 28 147 28q182 0 182 -172v-303zM242 21q92 0 147 36v175q-74 17 -137 17q-156 0 -156 -118q0 -54 38.5 -82t107.5 -28z" />
    <glyph glyph-name="aring" unicode="&#xe5;" horiz-adv-x="519" 
d="M162 660q0 39 26.5 65t65.5 26t65.5 -26t26.5 -65q0 -41 -26 -66.5t-66 -25.5t-66 25.5t-26 66.5zM315 660q0 27 -16 44.5t-45 17.5t-45 -17.5t-16 -44.5q0 -26 16 -45t45 -19t45 19t16 45zM424 37q-78 -49 -183 -49q-87 0 -134 39t-47 104q0 79 53 114.5t138 36.5
q65 0 138 -17v75q0 139 -147 139q-73 0 -136 -27l-11 32q63 28 147 28q182 0 182 -172v-303zM242 21q92 0 147 36v175q-74 17 -137 17q-156 0 -156 -118q0 -54 38.5 -82t107.5 -28z" />
    <glyph glyph-name="ae" unicode="&#xe6;" horiz-adv-x="873" 
d="M611 479q-82 0 -130 -54.5t-55 -145.5h345q1 9 1 23q0 74 -39.5 125.5t-121.5 51.5zM808 24q-75 -36 -166 -36q-130 0 -196 78q-84 -78 -207 -78q-86 0 -132.5 41.5t-46.5 109.5q0 146 188 148q69 0 141 -17v68q0 65 -36 103t-111 38q-62 0 -132 -24l-9 32q75 25 141 25
q84 0 124.5 -35.5t51.5 -100.5q63 136 193 136q96 0 147 -61t51 -153q0 -24 -3 -51h-381q1 -113 58.5 -169.5t158.5 -56.5q79 0 157 35zM240 21q113 0 187 71q-35 58 -38 145q-71 17 -140 17q-74 0 -113.5 -25.5t-39.5 -89.5q0 -57 37.5 -87.5t106.5 -30.5z" />
    <glyph glyph-name="ccedilla" unicode="&#xe7;" horiz-adv-x="490" 
d="M271 -209q-28 0 -54 7l6 28q26 -6 48 -6q72 0 72 47q0 25 -20.5 35t-61.5 12l-9 22l19 54q-100 11 -153 76.5t-53 178.5q0 122 61.5 194.5t173.5 72.5q75 0 140 -29l-10 -31q-67 27 -130 27q-97 0 -147.5 -63t-50.5 -171q0 -109 53.5 -166.5t157.5 -57.5q62 0 124 31
l10 -31q-61 -33 -134 -33h-11l-16 -47q91 -5 91 -74q0 -38 -29 -57t-77 -19z" />
    <glyph glyph-name="egrave" unicode="&#xe8;" horiz-adv-x="549" 
d="M270 585l-97 130h42l91 -130h-36zM287 479q-82 0 -130 -54.5t-55 -145.5h345q1 9 1 23q0 74 -39.5 125.5t-121.5 51.5zM484 24q-75 -36 -166 -36q-119 0 -186 67t-67 196q0 116 59 188.5t163 72.5q96 0 147 -61t51 -153q0 -24 -3 -51h-381q1 -113 58.5 -169.5
t158.5 -56.5q79 0 157 35z" />
    <glyph glyph-name="eacute" unicode="&#xe9;" horiz-adv-x="549" 
d="M361 715h42l-97 -130h-36zM287 479q-82 0 -130 -54.5t-55 -145.5h345q1 9 1 23q0 74 -39.5 125.5t-121.5 51.5zM484 24q-75 -36 -166 -36q-119 0 -186 67t-67 196q0 116 59 188.5t163 72.5q96 0 147 -61t51 -153q0 -24 -3 -51h-381q1 -113 58.5 -169.5t158.5 -56.5
q79 0 157 35z" />
    <glyph glyph-name="ecircumflex" unicode="&#xea;" horiz-adv-x="549" 
d="M376 585l-91 108l-91 -108h-39l106 130h48l106 -130h-39zM287 479q-82 0 -130 -54.5t-55 -145.5h345q1 9 1 23q0 74 -39.5 125.5t-121.5 51.5zM484 24q-75 -36 -166 -36q-119 0 -186 67t-67 196q0 116 59 188.5t163 72.5q96 0 147 -61t51 -153q0 -24 -3 -51h-381
q1 -113 58.5 -169.5t158.5 -56.5q79 0 157 35z" />
    <glyph glyph-name="edieresis" unicode="&#xeb;" horiz-adv-x="549" 
d="M390 650q0 -13 -7.5 -22.5t-21.5 -9.5q-32 0 -32 32q0 13 8 22t24 9q14 0 21.5 -9t7.5 -22zM240 650q0 -14 -8 -23t-22 -9q-15 0 -23 9t-8 23q0 13 8 22t23 9q14 0 22 -9t8 -22zM287 479q-82 0 -130 -54.5t-55 -145.5h345q1 9 1 23q0 74 -39.5 125.5t-121.5 51.5zM484 24
q-75 -36 -166 -36q-119 0 -186 67t-67 196q0 116 59 188.5t163 72.5q96 0 147 -61t51 -153q0 -24 -3 -51h-381q1 -113 58.5 -169.5t158.5 -56.5q79 0 157 35z" />
    <glyph glyph-name="igrave" unicode="&#xec;" horiz-adv-x="245" 
d="M109 585l-97 130h42l91 -130h-36zM105 500h35v-500h-35v500z" />
    <glyph glyph-name="iacute" unicode="&#xed;" horiz-adv-x="245" 
d="M200 715h42l-97 -130h-36zM105 500h35v-500h-35v500z" />
    <glyph glyph-name="icircumflex" unicode="&#xee;" horiz-adv-x="245" 
d="M215 585l-91 108l-91 -108h-39l106 130h48l106 -130h-39zM105 500h35v-500h-35v500z" />
    <glyph glyph-name="idieresis" unicode="&#xef;" horiz-adv-x="245" 
d="M229 650q0 -13 -7.5 -22.5t-21.5 -9.5q-32 0 -32 32q0 13 8 22t24 9q14 0 21.5 -9t7.5 -22zM79 650q0 -14 -8 -23t-22 -9q-15 0 -23 9t-8 23q0 13 8 22t23 9q14 0 22 -9t8 -22zM105 500h35v-500h-35v500z" />
    <glyph glyph-name="eth" unicode="&#xf0;" horiz-adv-x="533" 
d="M248 -12q-87 0 -142.5 63.5t-55.5 168.5q0 95 57 158t151 63q93 0 164 -51q-30 135 -126 221l-104 -88l-20 26l98 83q-61 44 -133 57l10 31q83 -13 151 -64l88 74l20 -25l-82 -70q69 -61 107 -152t38 -193q0 -140 -54.5 -221t-166.5 -81zM248 21q100 0 142.5 70.5
t42.5 198.5q0 32 -4 59q-81 59 -169 59q-85 0 -129 -54t-44 -134q0 -85 42 -142t119 -57z" />
    <glyph glyph-name="ntilde" unicode="&#xf1;" horiz-adv-x="584" 
d="M226 691q31 0 76 -30t63 -30q16 0 24.5 9.5t11 21.5t3.5 36h32q-1 -21 -3.5 -36t-9.5 -30.5t-21.5 -24t-35.5 -8.5q-31 0 -73.5 30t-65.5 30q-24 0 -33 -14.5t-11 -43.5h-32q3 90 75 90zM135 0h-35v458q98 54 204 54q94 0 139.5 -46t45.5 -126v-340h-35v338q0 65 -37 103
t-112 38q-96 0 -170 -42v-437z" />
    <glyph glyph-name="ograve" unicode="&#xf2;" horiz-adv-x="563" 
d="M267 585l-97 130h42l91 -130h-36zM498 250q0 -119 -56.5 -190.5t-160.5 -71.5q-102 0 -159 71.5t-57 190.5t57 190.5t159 71.5q104 0 160.5 -71.5t56.5 -190.5zM102 250q0 -106 45 -167.5t134 -61.5q91 0 135.5 61.5t44.5 167.5t-44.5 167.5t-135.5 61.5
q-89 0 -134 -61.5t-45 -167.5z" />
    <glyph glyph-name="oacute" unicode="&#xf3;" horiz-adv-x="563" 
d="M358 715h42l-97 -130h-36zM498 250q0 -119 -56.5 -190.5t-160.5 -71.5q-102 0 -159 71.5t-57 190.5t57 190.5t159 71.5q104 0 160.5 -71.5t56.5 -190.5zM102 250q0 -106 45 -167.5t134 -61.5q91 0 135.5 61.5t44.5 167.5t-44.5 167.5t-135.5 61.5q-89 0 -134 -61.5
t-45 -167.5z" />
    <glyph glyph-name="ocircumflex" unicode="&#xf4;" horiz-adv-x="563" 
d="M373 585l-91 108l-91 -108h-39l106 130h48l106 -130h-39zM498 250q0 -119 -56.5 -190.5t-160.5 -71.5q-102 0 -159 71.5t-57 190.5t57 190.5t159 71.5q104 0 160.5 -71.5t56.5 -190.5zM102 250q0 -106 45 -167.5t134 -61.5q91 0 135.5 61.5t44.5 167.5t-44.5 167.5
t-135.5 61.5q-89 0 -134 -61.5t-45 -167.5z" />
    <glyph glyph-name="otilde" unicode="&#xf5;" horiz-adv-x="563" 
d="M214 691q31 0 76 -30t63 -30q16 0 24.5 9.5t11 21.5t3.5 36h32q-1 -21 -3.5 -36t-9.5 -30.5t-21.5 -24t-35.5 -8.5q-31 0 -73.5 30t-65.5 30q-24 0 -33 -14.5t-11 -43.5h-32q3 90 75 90zM498 250q0 -119 -56.5 -190.5t-160.5 -71.5q-102 0 -159 71.5t-57 190.5t57 190.5
t159 71.5q104 0 160.5 -71.5t56.5 -190.5zM102 250q0 -106 45 -167.5t134 -61.5q91 0 135.5 61.5t44.5 167.5t-44.5 167.5t-135.5 61.5q-89 0 -134 -61.5t-45 -167.5z" />
    <glyph glyph-name="odieresis" unicode="&#xf6;" horiz-adv-x="563" 
d="M387 650q0 -13 -7.5 -22.5t-21.5 -9.5q-32 0 -32 32q0 13 8 22t24 9q14 0 21.5 -9t7.5 -22zM237 650q0 -14 -8 -23t-22 -9q-15 0 -23 9t-8 23q0 13 8 22t23 9q14 0 22 -9t8 -22zM498 250q0 -119 -56.5 -190.5t-160.5 -71.5q-102 0 -159 71.5t-57 190.5t57 190.5t159 71.5
q104 0 160.5 -71.5t56.5 -190.5zM102 250q0 -106 45 -167.5t134 -61.5q91 0 135.5 61.5t44.5 167.5t-44.5 167.5t-135.5 61.5q-89 0 -134 -61.5t-45 -167.5z" />
    <glyph glyph-name="divide" unicode="&#xf7;" horiz-adv-x="491" 
d="M217 504q0 12 8 20.5t21 8.5q12 0 20 -8.5t8 -20.5t-8 -21t-20 -9q-13 0 -21 9t-8 21zM35 327v32h421v-32h-421zM217 177q0 12 8 20.5t21 8.5q12 0 20 -8.5t8 -20.5t-8 -21t-20 -9q-13 0 -21 9t-8 21z" />
    <glyph glyph-name="oslash" unicode="&#xf8;" horiz-adv-x="567" 
d="M281 -12q-87 0 -142 53l-33 -41h-36l49 63q-54 71 -54 187q0 119 57 190.5t159 71.5q92 0 146 -56l35 44h36l-52 -66q52 -70 52 -184q0 -119 -56.5 -190.5t-160.5 -71.5zM102 250q0 -99 39 -159l266 338q-47 50 -126 50q-89 0 -134 -61.5t-45 -167.5zM281 21
q91 0 135.5 61.5t44.5 167.5q0 97 -37 156l-265 -338q45 -47 122 -47z" />
    <glyph glyph-name="ugrave" unicode="&#xf9;" horiz-adv-x="574" 
d="M277 585l-97 130h42l91 -130h-36zM474 42q-103 -54 -209 -54q-86 0 -128 43t-42 119v350h35v-348q0 -61 32.5 -96t101.5 -35q97 0 175 42v437h35v-458z" />
    <glyph glyph-name="uacute" unicode="&#xfa;" horiz-adv-x="574" 
d="M368 715h42l-97 -130h-36zM474 42q-103 -54 -209 -54q-86 0 -128 43t-42 119v350h35v-348q0 -61 32.5 -96t101.5 -35q97 0 175 42v437h35v-458z" />
    <glyph glyph-name="ucircumflex" unicode="&#xfb;" horiz-adv-x="574" 
d="M383 585l-91 108l-91 -108h-39l106 130h48l106 -130h-39zM474 42q-103 -54 -209 -54q-86 0 -128 43t-42 119v350h35v-348q0 -61 32.5 -96t101.5 -35q97 0 175 42v437h35v-458z" />
    <glyph glyph-name="udieresis" unicode="&#xfc;" horiz-adv-x="574" 
d="M397 650q0 -13 -7.5 -22.5t-21.5 -9.5q-32 0 -32 32q0 13 8 22t24 9q14 0 21.5 -9t7.5 -22zM247 650q0 -14 -8 -23t-22 -9q-15 0 -23 9t-8 23q0 13 8 22t23 9q14 0 22 -9t8 -22zM474 42q-103 -54 -209 -54q-86 0 -128 43t-42 119v350h35v-348q0 -61 32.5 -96t101.5 -35
q97 0 175 42v437h35v-458z" />
    <glyph glyph-name="yacute" unicode="&#xfd;" horiz-adv-x="504" 
d="M337 715h42l-97 -130h-36zM277 0q-82 -146 -215 -183l-10 32q60 16 105 52.5t84 101.5q-151 239 -194 497h35q39 -225 179 -465q134 243 173 465h35q-22 -131 -68.5 -247.5t-123.5 -252.5z" />
    <glyph glyph-name="thorn" unicode="&#xfe;" horiz-adv-x="572" 
d="M140 57q66 -36 130 -36q96 0 146.5 63.5t50.5 180.5q0 93 -46 153.5t-138 60.5q-81 0 -143 -37v-385zM140 -184h-35v904l35 3v-243q71 32 144 32q110 0 165.5 -68t55.5 -179q0 -127 -57 -202t-177 -75q-73 0 -131 31v-203z" />
    <glyph glyph-name="ydieresis" unicode="&#xff;" horiz-adv-x="504" 
d="M366 650q0 -13 -7.5 -22.5t-21.5 -9.5q-32 0 -32 32q0 13 8 22t24 9q14 0 21.5 -9t7.5 -22zM216 650q0 -14 -8 -23t-22 -9q-15 0 -23 9t-8 23q0 13 8 22t23 9q14 0 22 -9t8 -22zM277 0q-82 -146 -215 -183l-10 32q60 16 105 52.5t84 101.5q-151 239 -194 497h35
q39 -225 179 -465q134 243 173 465h35q-22 -131 -68.5 -247.5t-123.5 -252.5z" />
    <glyph glyph-name="dotlessi" unicode="&#x131;" horiz-adv-x="245" 
d="M105 500h35v-500h-35v500z" />
    <glyph glyph-name="Lslash" unicode="&#x141;" horiz-adv-x="562" 
d="M110 0v328l-93 -39v34l93 39v338h35v-324l145 61v-34l-145 -61v-310h357v-32h-392z" />
    <glyph glyph-name="lslash" unicode="&#x142;" horiz-adv-x="276" 
d="M209 -12q-109 0 -109 133v230l-71 -33v34l71 33v335l35 3v-322l102 48v-34l-102 -48v-246q0 -53 16.5 -77t57.5 -24q13 0 28 3l4 -30q-15 -5 -32 -5z" />
    <glyph glyph-name="OE" unicode="&#x152;" horiz-adv-x="1052" 
d="M107 350q0 -144 61 -236.5t185 -92.5q125 0 185.5 91.5t60.5 237.5t-60.5 237.5t-185.5 91.5q-65 0 -113.5 -26.5t-76.5 -72.5t-42 -104t-14 -126zM599 0v165q-62 -177 -246 -177q-96 0 -161 50t-93.5 129.5t-28.5 182.5q0 76 16.5 140t49.5 114.5t88.5 79t128.5 28.5
q184 0 246 -177v165h393v-32h-358v-290h308v-32h-308v-314h358v-32h-393z" />
    <glyph glyph-name="oe" unicode="&#x153;" horiz-adv-x="945" 
d="M880 24q-75 -36 -166 -36q-177 0 -234 151q-51 -151 -199 -151q-102 0 -159 71.5t-57 190.5t57 190.5t159 71.5q148 0 199 -151q56 151 203 151q96 0 147 -61t51 -153q0 -24 -3 -51h-381q1 -112 59 -169t158 -57q79 0 157 35zM683 479q-82 0 -130.5 -54.5t-55.5 -145.5
h348v23q0 73 -40 125t-122 52zM102 250q0 -106 45 -167.5t134 -61.5q91 0 136 61.5t45 167.5t-45 167.5t-136 61.5q-89 0 -134 -61.5t-45 -167.5z" />
    <glyph glyph-name="Scaron" unicode="&#x160;" horiz-adv-x="544" 
d="M245 770l-106 130h40l90 -105l90 105h40l-106 -130h-48zM60 24l8 35q109 -38 192 -38q90 0 141.5 37t51.5 112q0 39 -13.5 68t-44 49.5t-61 33t-81.5 27.5q-97 30 -142 72.5t-45 120.5q0 83 58 127t158 44q81 0 157 -27l-8 -31q-84 25 -146 25q-182 0 -182 -138
q0 -66 39.5 -99t126.5 -60q44 -13 70 -23t58.5 -27.5t50 -38t30 -52t12.5 -71.5q0 -50 -19.5 -86.5t-53 -56.5t-72.5 -29.5t-85 -9.5q-110 0 -200 36z" />
    <glyph glyph-name="scaron" unicode="&#x161;" horiz-adv-x="428" 
d="M186 585l-106 130h40l90 -105l90 105h40l-106 -130h-48zM348 489l-8 -31q-65 21 -122 21q-127 0 -127 -100q0 -21 8 -38t17.5 -27t30.5 -20.5t32 -14.5l37 -13q87 -28 127 -58t40 -87q0 -66 -48 -99.5t-125 -33.5q-43 0 -91 9t-69 19l9 33q80 -28 151 -28q64 0 100 26
t36 74q0 43 -34.5 66.5t-111.5 47.5q-70 22 -108 53t-38 91q0 64 43 98.5t121 34.5q77 0 130 -23z" />
    <glyph glyph-name="Ydieresis" unicode="&#x178;" horiz-adv-x="563" 
d="M387 835q0 -13 -7.5 -22.5t-21.5 -9.5q-32 0 -32 32q0 13 8 22t24 9q14 0 21.5 -9t7.5 -22zM237 835q0 -14 -8 -23t-22 -9q-15 0 -23 9t-8 23q0 13 8 22t23 9q14 0 22 -9t8 -22zM299 0h-35v305q-159 200 -244 395h39q42 -98 94 -181.5t130 -184.5q142 182 222 366h38
q-93 -206 -244 -395v-305z" />
    <glyph glyph-name="Zcaron" unicode="&#x17d;" horiz-adv-x="554" 
d="M248 770l-106 130h40l90 -105l90 105h40l-106 -130h-48zM495 673q-77 -170 -169.5 -312t-237.5 -329h421v-32h-464v27q296 387 414 641h-404v32h440v-27z" />
    <glyph glyph-name="zcaron" unicode="&#x17e;" horiz-adv-x="454" 
d="M206 585l-106 130h40l90 -105l90 105h40l-106 -130h-48zM35 0v27q215 235 334 441h-314v32h355v-27q-119 -208 -329 -441h343v-32h-389z" />
    <glyph glyph-name="florin" unicode="&#x192;" horiz-adv-x="398" 
d="M65 -193q-33 0 -70 11l9 31q38 -9 61 -9q52 0 73 31t21 91v506h-80v32h80v76q0 155 129 155q33 0 70 -11l-9 -31q-38 9 -61 9q-52 0 -73 -31t-21 -91v-76h147v-32h-147v-506q0 -155 -129 -155z" />
    <glyph glyph-name="circumflex" unicode="&#x2c6;" horiz-adv-x="500" 
d="M341 570l-91 108l-91 -108h-39l106 130h48l106 -130h-39z" />
    <glyph glyph-name="caron" unicode="&#x2c7;" horiz-adv-x="500" 
d="M216 570l-106 130h40l90 -105l90 105h40l-106 -130h-48z" />
    <glyph glyph-name="breve" unicode="&#x2d8;" horiz-adv-x="500" 
d="M380 686q-4 -53 -38.5 -81.5t-91.5 -28.5t-91.5 28.5t-38.5 81.5h32q10 -77 98 -77t98 77h32z" />
    <glyph glyph-name="dotaccent" unicode="&#x2d9;" horiz-adv-x="500" 
d="M218 635q0 13 8.5 22t22.5 9t22 -9t8 -22t-8 -22.5t-22 -9.5t-22.5 9.5t-8.5 22.5z" />
    <glyph glyph-name="ring" unicode="&#x2da;" horiz-adv-x="500" 
d="M157 645q0 39 26.5 65t65.5 26t65.5 -26t26.5 -65q0 -41 -26 -66.5t-66 -25.5t-66 25.5t-26 66.5zM310 645q0 27 -16 44.5t-45 17.5t-45 -17.5t-16 -44.5q0 -26 16 -45t45 -19t45 19t16 45z" />
    <glyph glyph-name="ogonek" unicode="&#x2db;" horiz-adv-x="500" 
d="M285 -175q-33 -14 -68 -14q-37 0 -62 18.5t-25 53.5q0 58 106 121l35 -4q-38 -25 -55.5 -38t-34.5 -33.5t-17 -38.5q0 -48 60 -48q29 0 53 11z" />
    <glyph glyph-name="tilde" unicode="&#x2dc;" horiz-adv-x="500" 
d="M180 676q31 0 76 -30t63 -30q16 0 24.5 9.5t11 21.5t3.5 36h32q-1 -21 -3.5 -36t-9.5 -30.5t-21.5 -24t-35.5 -8.5q-31 0 -73.5 30t-65.5 30q-24 0 -33 -14.5t-11 -43.5h-32q3 90 75 90z" />
    <glyph glyph-name="hungarumlaut" unicode="&#x2dd;" horiz-adv-x="500" 
d="M206 700h42l-96 -130h-37zM336 700h42l-96 -130h-37z" />
    <glyph glyph-name="pi" unicode="&#x3c0;" horiz-adv-x="640" 
d="M605 -2q-31 -10 -69 -10q-116 0 -116 158v322h-234v-468h-35v468h-126v32h574v-32h-144v-322q0 -69 20.5 -96.5t61.5 -27.5q35 0 65 9z" />
    <glyph glyph-name="uni0601" unicode="&#x601;" horiz-adv-x="197" 
d="M-466 -210q-94 0 -173 10.5t-122 21t-89 34t-55.5 30.5l-39.5 29q-33 -64 -75 -97.5t-110 -33.5q-34 0 -62 16t-46.5 39t-35.5 46.5t-37 39.5t-43 16q-29 0 -64 -17t-54 -31t-65 -51v41q50 44 101 69t87 25q32 0 60 -24.5t46 -53.5t48.5 -53.5t66.5 -24.5q57 0 97.5 34
t72.5 110q7 -4 34 -24t58.5 -36.5t83.5 -36t135 -30.5t187 -11q121 0 245 20t211.5 45.5l200 56.5t190.5 45v-37q-74 -12 -181.5 -42.5l-195 -56.5t-217 -47t-259.5 -21z" />
    <glyph glyph-name="uni060C" unicode="&#x60c;" horiz-adv-x="164" 
d="M90 -17h-35q6 106 51 217h28q-36 -100 -44 -217z" />
    <glyph glyph-name="uni060D" unicode="&#x60d;" horiz-adv-x="512" 
d="M90 -90l302 739l30 -12l-302 -739z" />
    <glyph glyph-name="uni060E" unicode="&#x60e;" horiz-adv-x="946" 
d="M498 0q-418 0 -418 235q0 83 53.5 138t146.5 55q108 0 174 -84t66 -217q0 -47 -7 -90q98 0 175 10t117.5 21t100.5 32v-44q-154 -56 -408 -56zM116 236q0 -85 85 -140.5t278 -58.5q7 45 7 87q0 71 -20 125t-52.5 83.5t-67.5 44t-70 14.5q-80 0 -120 -46.5t-40 -108.5z
" />
    <glyph glyph-name="uni0615" unicode="&#x615;" 
d="M120 744q69 0 120 16q4 12 4 26q0 62 -55 62t-119 -103q15 -1 50 -1zM116 714q-64 0 -111 6v29l39 -3q12 25 12 88v106l30 4v-95q0 -23 -4 -43q50 73 112 73q39 0 58 -23.5t19 -59.5q0 -28 -11 -56q-47 -26 -144 -26z" />
    <glyph glyph-name="uni061B" unicode="&#x61b;" horiz-adv-x="171" 
d="M99 348h-35q6 106 51 217h28q-36 -100 -44 -217zM86 -7q-14 0 -22.5 9.5t-8.5 22.5t8.5 22t22.5 9t22 -9t8 -22t-8 -22.5t-22 -9.5z" />
    <glyph glyph-name="uni061F" unicode="&#x61f;" horiz-adv-x="427" 
d="M388 649q-74 30 -142 30q-73 0 -113.5 -33t-40.5 -92q0 -34 13 -62.5t27 -44t40 -39.5q28 -27 41.5 -42.5t28 -47.5t14.5 -70v-21h-33v21q0 32 -14 60.5t-26.5 42.5t-41.5 41q-27 25 -42.5 42t-29.5 49.5t-14 70.5q0 74 53.5 116t137.5 42q77 0 151 -32zM238 -7
q-14 0 -22.5 9.5t-8.5 22.5t8.5 22t22.5 9t22 -9t8 -22t-8 -22.5t-22 -9.5z" />
    <glyph glyph-name="uni0621" unicode="&#x621;" horiz-adv-x="446" 
d="M396 95q-171 -46 -324 -108l-12 33q67 28 124 46q-64 17 -93 59t-29 96q0 68 44 108.5t110 40.5q58 0 106 -18l-12 -31q-58 14 -91 14q-54 0 -88 -31.5t-34 -82.5q0 -53 40 -91.5t96 -38.5q7 0 14.5 1t21.5 4t25.5 6l40.5 11t53 14z" />
    <glyph glyph-name="uni0622" unicode="&#x622;" horiz-adv-x="215" 
d="M251 712l14 -24q-37 -26 -84 -26q-27 0 -75 15t-66 15q-20 0 -33 -7t-30 -25l-27 17q40 48 94 48q19 0 63.5 -15.5t73.5 -15.5q34 0 70 18zM125 0h-35v606l35 4v-610z" />
    <glyph glyph-name="uni0623" unicode="&#x623;" horiz-adv-x="215" 
d="M213 689q-96 -17 -198 -57l-10 29q44 18 74 26q-53 26 -53 81q0 42 24.5 63.5t60.5 21.5q33 0 71 -18l-12 -28q-31 13 -59 13q-25 0 -40.5 -13t-15.5 -39q0 -27 21.5 -45t57.5 -18q8 0 73 13zM125 0h-35v606l35 4v-610z" />
    <glyph glyph-name="uni0624" unicode="&#x624;" horiz-adv-x="513" 
d="M349 494q-96 -17 -198 -57l-10 29q44 18 74 26q-53 26 -53 81q0 42 24.5 63.5t60.5 21.5q33 0 71 -18l-12 -28q-31 13 -59 13q-25 0 -40.5 -13t-15.5 -39q0 -27 21.5 -45t57.5 -18q8 0 73 13zM258 34q74 0 143 20q-1 123 -42 202.5t-114 79.5q-67 0 -102.5 -53.5
t-35.5 -117.5q0 -66 32.5 -98.5t118.5 -32.5zM155 -236q-50 0 -105 13l8 33q47 -11 103 -11q66 0 114 20t73 55t37 70t15 76q-66 -20 -151 -20q-98 0 -136 42.5t-38 118.5q0 91 46.5 150t123.5 59q88 0 138 -84.5t50 -226.5q0 -140 -70.5 -217.5t-207.5 -77.5z" />
    <glyph glyph-name="uni0625" unicode="&#x625;" horiz-adv-x="215" 
d="M125 0h-35v720l35 4v-724zM226 -227q-96 -17 -198 -57l-10 29q44 18 74 26q-53 26 -53 81q0 42 24.5 63.5t60.5 21.5q33 0 71 -18l-12 -28q-31 13 -59 13q-25 0 -40.5 -13t-15.5 -39q0 -27 21.5 -45t57.5 -18q8 0 73 13z" />
    <glyph glyph-name="uni0626" unicode="&#x626;" horiz-adv-x="789" 
d="M348 350q-96 -17 -198 -57l-10 29q44 18 74 26q-53 26 -53 81q0 42 24.5 63.5t60.5 21.5q33 0 71 -18l-12 -28q-31 13 -59 13q-25 0 -40.5 -13t-15.5 -39q0 -27 21.5 -45t57.5 -18q8 0 73 13zM357 -222q-134 0 -205.5 65.5t-71.5 183.5q0 119 52 230l31 -15
q-47 -103 -47 -208q0 -219 248 -219q124 0 206 53t86 141l-30 22.5t-36.5 23l-36 20t-43 21.5l-41.5 19.5l-46.5 21l-44.5 19.5v21q0 68 19.5 119t53.5 79.5t74 42.5t86 14q66 0 128 -38l-16 -32q-52 34 -115 34q-185 0 -197 -217q100 -42 165 -76t115 -76
q0 -114 -90 -181.5t-244 -67.5z" />
    <glyph glyph-name="uni0627" unicode="&#x627;" horiz-adv-x="215" 
d="M125 0h-35v720l35 4v-724z" />
    <glyph glyph-name="uni0628" unicode="&#x628;" horiz-adv-x="907" 
d="M398 -12q-95 0 -160 14t-98.5 41t-46.5 58.5t-13 75.5q0 75 34 179l32 -9q-29 -104 -29 -161q0 -36 11 -62.5t40 -50t90 -36t152 -12.5q223 0 379 77q3 28 3 59q0 85 -27 191l34 11q28 -101 28 -192q0 -52 -11 -93q-64 -40 -174.5 -65t-243.5 -25zM436 -129l41 -38
l-36 -39l-41 35z" />
    <glyph glyph-name="uni0629" unicode="&#x629;" horiz-adv-x="486" 
d="M305 576l39 -36l-34 -38l-40 34zM174 572l39 -36l-34 -38l-40 34zM218 419q99 -59 153.5 -133.5t54.5 -150.5q0 -63 -49.5 -103.5t-145.5 -40.5q-80 0 -125.5 37.5t-45.5 104.5q0 73 39 139t119 147zM235 26q72 0 115.5 28t43.5 78q0 62 -49.5 132t-121.5 112
q-130 -127 -130 -231q0 -119 142 -119z" />
    <glyph glyph-name="uni062A" unicode="&#x62a;" horiz-adv-x="907" 
d="M535 493l39 -36l-34 -38l-40 34zM404 489l39 -36l-34 -38l-40 34zM398 -12q-95 0 -160 14t-98.5 41t-46.5 58.5t-13 75.5q0 75 34 179l32 -9q-29 -104 -29 -161q0 -36 11 -62.5t40 -50t90 -36t152 -12.5q223 0 379 77q3 28 3 59q0 85 -27 191l34 11q28 -101 28 -192
q0 -52 -11 -93q-64 -40 -174.5 -65t-243.5 -25z" />
    <glyph glyph-name="uni062B" unicode="&#x62b;" horiz-adv-x="907" 
d="M474 567l39 -36l-35 -37l-38 33zM542 470l39 -36l-35 -37l-38 33zM412 466l39 -36l-35 -37l-38 33zM398 -13q-95 0 -160 14t-98.5 41t-46.5 58.5t-13 75.5q0 75 34 179l32 -9q-29 -104 -29 -161q0 -36 11 -62.5t40 -50t90 -36t152 -12.5q223 0 379 77q3 29 3 59
q0 85 -27 191l34 11q28 -102 28 -192q0 -52 -11 -93q-64 -40 -174.5 -65t-243.5 -25z" />
    <glyph glyph-name="uni062C" unicode="&#x62c;" horiz-adv-x="636" 
d="M345 -274q-127 0 -196 57.5t-69 156.5q0 71 35.5 128t101.5 97t139 66.5t168 48.5q-42 20 -111 61.5t-117.5 62.5t-90.5 21q-58 0 -95 -62l-29 13q22 47 52 65t75 18q48 0 107.5 -27.5t137 -74.5t126.5 -69l-11 -31q-100 -21 -176.5 -47t-142 -63t-100.5 -88t-35 -113
q0 -89 64 -136.5t173 -47.5q118 0 243 57l12 -28q-117 -65 -261 -65zM365 35l41 -38l-36 -39l-41 35z" />
    <glyph glyph-name="uni062D" unicode="&#x62d;" horiz-adv-x="636" 
d="M345 -274q-127 0 -196 57.5t-69 156.5q0 71 35.5 128t101.5 97t139 66.5t168 48.5q-42 20 -111 61.5t-117.5 62.5t-90.5 21q-58 0 -95 -62l-29 13q22 47 52 65t75 18q48 0 107.5 -27.5t137 -74.5t126.5 -69l-11 -31q-100 -21 -176.5 -47t-142 -63t-100.5 -88t-35 -113
q0 -89 64 -136.5t173 -47.5q118 0 243 57l12 -28q-117 -65 -261 -65z" />
    <glyph glyph-name="uni062E" unicode="&#x62e;" horiz-adv-x="636" 
d="M340 599l41 -38l-36 -39l-41 35zM345 -274q-127 0 -196 57.5t-69 156.5q0 71 35.5 128t101.5 97t139 66.5t168 48.5q-42 20 -111 61.5t-117.5 62.5t-90.5 21q-58 0 -95 -62l-29 13q22 47 52 65t75 18q48 0 107.5 -27.5t137 -74.5t126.5 -69l-11 -31q-100 -21 -176.5 -47
t-142 -63t-100.5 -88t-35 -113q0 -89 64 -136.5t173 -47.5q118 0 243 57l12 -28q-117 -65 -261 -65z" />
    <glyph glyph-name="uni062F" unicode="&#x62f;" horiz-adv-x="513" 
d="M171 -12q-71 0 -131 10v36q76 -9 140 -9q126 0 222 41q-4 91 -54.5 173t-157.5 181l24 24q118 -104 168.5 -197.5t50.5 -165.5q0 -24 -4 -39q-95 -54 -258 -54z" />
    <glyph glyph-name="uni0630" unicode="&#x630;" horiz-adv-x="513" 
d="M208 604l41 -38l-36 -39l-41 35zM171 -12q-71 0 -131 10v36q76 -9 140 -9q126 0 222 41q-4 91 -54.5 173t-157.5 181l24 24q118 -104 168.5 -197.5t50.5 -165.5q0 -24 -4 -39q-95 -54 -258 -54z" />
    <glyph glyph-name="uni0631" unicode="&#x631;" horiz-adv-x="398" 
d="M318 78q0 -154 -71 -232t-183 -78q-31 0 -64 6l8 34q25 -5 57 -5q56 0 99.5 23t69 62.5t38.5 88t13 102.5q0 98 -32 235l35 10q30 -132 30 -246z" />
    <glyph glyph-name="uni0632" unicode="&#x632;" horiz-adv-x="398" 
d="M248 502l41 -38l-36 -39l-41 35zM318 78q0 -154 -71 -232t-183 -78q-31 0 -64 6l8 34q25 -5 57 -5q56 0 99.5 23t69 62.5t38.5 88t13 102.5q0 98 -32 235l35 10q30 -132 30 -246z" />
    <glyph glyph-name="uni0633" unicode="&#x633;" horiz-adv-x="1368" 
d="M347 -241q-130 0 -198.5 60t-68.5 169q0 119 52 230l31 -14q-47 -103 -47 -209q0 -92 58 -145.5t180 -53.5q139 0 218.5 65t79.5 173q0 117 -38 239l33 12q37 -126 40 -221q52 -33 130 -33q67 0 116 29.5t49 87.5v132l34 4v-125q0 -123 117 -123q64 0 117 33q4 24 4 60
q0 83 -25 178l35 10q24 -94 24 -178q0 -58 -13 -98q-39 -22 -70.5 -32t-79.5 -10q-103 0 -129 85q-15 -42 -70 -66t-113 -24q-79 0 -127 25q-8 -121 -95.5 -190.5t-243.5 -69.5z" />
    <glyph glyph-name="uni0634" unicode="&#x634;" horiz-adv-x="1368" 
d="M1002 583l39 -36l-35 -37l-38 33zM1070 486l39 -36l-35 -37l-38 33zM940 482l39 -36l-35 -37l-38 33zM347 -241q-130 0 -198.5 60t-68.5 169q0 119 52 230l31 -14q-47 -103 -47 -209q0 -92 58 -145.5t180 -53.5q139 0 218.5 65t79.5 173q0 117 -38 239l33 12
q37 -126 40 -221q52 -33 130 -33q67 0 116 29.5t49 87.5v132l34 4v-125q0 -123 117 -123q64 0 117 33q4 24 4 60q0 83 -25 178l35 10q24 -94 24 -178q0 -58 -13 -98q-39 -22 -70.5 -32t-79.5 -10q-103 0 -129 85q-15 -42 -70 -66t-113 -24q-79 0 -127 25
q-8 -121 -95.5 -190.5t-243.5 -69.5z" />
    <glyph glyph-name="uni0635" unicode="&#x635;" horiz-adv-x="1372" 
d="M964 32q161 0 293 48q2 40 2 57q0 105 -45 156.5t-121 51.5q-98 0 -181 -61t-201 -218q110 -34 253 -34zM347 -241q-130 0 -198.5 60t-68.5 169q0 119 52 230l31 -14q-47 -103 -47 -209q0 -92 58 -145.5t180 -53.5q139 0 218.5 65t79.5 173q0 117 -38 239l33 12
q34 -117 39 -200q111 156 206 225.5t202 69.5q98 0 148 -63t50 -167q0 -46 -9 -94q-114 -61 -328 -61q-158 0 -268 42q-3 -129 -90.5 -203.5t-249.5 -74.5z" />
    <glyph glyph-name="uni0636" unicode="&#x636;" horiz-adv-x="1372" 
d="M1093 552l41 -38l-36 -39l-41 35zM964 32q161 0 293 48q2 40 2 57q0 105 -45 156.5t-121 51.5q-98 0 -181 -61t-201 -218q110 -34 253 -34zM347 -241q-130 0 -198.5 60t-68.5 169q0 119 52 230l31 -14q-47 -103 -47 -209q0 -92 58 -145.5t180 -53.5q139 0 218.5 65
t79.5 173q0 117 -38 239l33 12q34 -117 39 -200q111 156 206 225.5t202 69.5q98 0 148 -63t50 -167q0 -46 -9 -94q-114 -61 -328 -61q-158 0 -268 42q-3 -129 -90.5 -203.5t-249.5 -74.5z" />
    <glyph glyph-name="uni0637" unicode="&#x637;" horiz-adv-x="840" 
d="M383 32q205 0 342 48q2 40 2 57q0 105 -45.5 156.5t-122.5 51.5q-101 0 -186 -65t-209 -232q104 -16 219 -16zM380 -5q-195 0 -340 39l9 34l79 -15q39 51 52 93t13 134v435l35 4v-365q0 -123 -11 -185q85 109 168.5 160.5t174.5 51.5q99 0 149.5 -63.5t50.5 -167.5
q0 -46 -9 -94q-131 -61 -371 -61z" />
    <glyph glyph-name="uni0638" unicode="&#x638;" horiz-adv-x="840" 
d="M542 563l41 -38l-36 -39l-41 35zM383 32q205 0 342 48q2 40 2 57q0 105 -45.5 156.5t-122.5 51.5q-101 0 -186 -65t-209 -232q104 -16 219 -16zM380 -5q-195 0 -340 39l9 34l79 -15q39 51 52 93t13 134v435l35 4v-365q0 -123 -11 -185q85 109 168.5 160.5t174.5 51.5
q99 0 149.5 -63.5t50.5 -167.5q0 -46 -9 -94q-131 -61 -371 -61z" />
    <glyph glyph-name="uni0639" unicode="&#x639;" horiz-adv-x="610" 
d="M600 -207q-126 -68 -277 -68q-122 0 -182.5 50.5t-60.5 140.5q0 78 42.5 135.5t134.5 100.5q-63 24 -94.5 71.5t-31.5 105.5q0 83 52 134t133 51q85 0 170 -47l-15 -29q-51 23 -80.5 31.5t-75.5 8.5q-63 0 -106 -40t-43 -107q0 -63 46.5 -108t85.5 -45q9 0 41 9
l82.5 23.5t92.5 22.5l6 -35q-120 -25 -202.5 -56.5t-125 -68.5t-59.5 -73t-17 -79q0 -159 213 -159q136 0 256 59z" />
    <glyph glyph-name="uni063A" unicode="&#x63a;" horiz-adv-x="610" 
d="M301 673l41 -38l-36 -39l-41 35zM600 -207q-126 -68 -277 -68q-122 0 -182.5 50.5t-60.5 140.5q0 78 42.5 135.5t134.5 100.5q-63 24 -94.5 71.5t-31.5 105.5q0 83 52 134t133 51q85 0 170 -47l-15 -29q-51 23 -80.5 31.5t-75.5 8.5q-63 0 -106 -40t-43 -107
q0 -63 46.5 -108t85.5 -45q9 0 41 9l82.5 23.5t92.5 22.5l6 -35q-120 -25 -202.5 -56.5t-125 -68.5t-59.5 -73t-17 -79q0 -159 213 -159q136 0 256 59z" />
    <glyph glyph-name="uni0640" unicode="&#x640;" horiz-adv-x="267" 
d="M0 0q-19 0 -19 18q0 19 19 19h267v-37h-267z" />
    <glyph glyph-name="uni0641" unicode="&#x641;" horiz-adv-x="934" 
d="M653 721l41 -38l-36 -39l-41 35zM675 211q71 2 138 21q-2 125 -43.5 202.5t-112.5 76.5q-45 0 -78 -28t-47.5 -66t-15.5 -78q2 -61 37 -94t122 -34zM408 -12q-99 0 -165.5 14t-101 41t-48 58.5t-13.5 75.5q0 75 34 179l32 -9q-30 -108 -30 -161q0 -36 11.5 -62.5t42 -50
t93.5 -36t157 -12.5q216 0 377 64q12 54 15 108q-59 -18 -151 -20q-174 1 -178 158q2 89 51.5 150t121.5 60q86 1 137 -82t51 -224q0 -97 -23 -172q-144 -79 -413 -79z" />
    <glyph glyph-name="uni0642" unicode="&#x642;" horiz-adv-x="797" 
d="M594 535l39 -36l-34 -38l-40 34zM463 531l39 -36l-34 -38l-40 34zM542 36q73 0 142 20q-1 121 -42.5 200.5t-112.5 79.5q-67 0 -102.5 -53.5t-35.5 -117.5q0 -65 32.5 -97t118.5 -32zM347 -251q-130 0 -198.5 63t-68.5 176q0 119 52 230l29 -16q-47 -102 -47 -206
q0 -98 59 -154t181 -56q71 0 127 15t91.5 38t60 54.5t35.5 62t14 63.5q-63 -19 -149 -19q-98 0 -136 42.5t-38 118.5q0 91 46.5 150t123.5 59q87 0 137.5 -86t50.5 -225q0 -146 -96.5 -228t-273.5 -82z" />
    <glyph glyph-name="uni0643" unicode="&#x643;" horiz-adv-x="835" 
d="M393 461q0 -21 57 -43q37 -14 56.5 -29t19.5 -41q0 -40 -54.5 -66.5t-148.5 -26.5v34q64 0 117.5 15.5t53.5 37.5q0 24 -63 47q-38 14 -54.5 28t-16.5 37q0 40 39 70.5t98 30.5q26 0 45 -5l-9 -33q-17 4 -41 4q-37 0 -68 -19t-31 -41zM389 -13q-77 0 -133 9.5t-89.5 26
t-53 41.5t-26.5 51.5t-7 61.5q0 75 34 179l32 -10q-30 -98 -30 -155q0 -38 10 -64.5t38 -51.5t87 -37.5t149 -12.5q164 0 295 48q15 70 15 227q0 113 -5 420l35 4q5 -274 5 -394q0 -128 -4 -178.5t-17 -102.5q-50 -27 -145 -44.5t-190 -17.5z" />
    <glyph glyph-name="uni0644" unicode="&#x644;" horiz-adv-x="716" 
d="M584 720l34 4q8 -560 8 -665q0 -135 -79.5 -213.5t-225.5 -78.5q-116 0 -178.5 60t-62.5 168q0 100 54 220l29 -14q-48 -106 -48 -199q0 -91 53 -144.5t160 -53.5q122 0 193 68.5t71 184.5v15.5t-0.5 29t-0.5 46.5t-1 78t-1.5 113.5t-2 163.5t-2.5 217z" />
    <glyph glyph-name="uni0645" unicode="&#x645;" horiz-adv-x="608" 
d="M424 97q56 0 98 8q12 59 12 103q0 86 -39.5 133t-107.5 47q-79 0 -131 -70.5t-52 -188.5q131 -32 220 -32zM124 -229l-34 -3q-10 210 -10 266q0 94 88 100q2 131 62.5 210t156.5 79q87 0 134 -57t47 -151q0 -72 -20 -135q-31 -17 -133 -17q-56 0 -113.5 8.5t-92.5 17.5
l-35 9q-60 0 -60 -66q0 -33 10 -261z" />
    <glyph glyph-name="uni0646" unicode="&#x646;" horiz-adv-x="767" 
d="M390 397l41 -38l-36 -39l-41 35zM647 310q40 -137 40 -239q0 -133 -87.5 -210t-252.5 -77q-130 0 -198.5 60t-68.5 169q0 119 52 230l31 -14q-47 -103 -47 -209q0 -92 58 -145.5t180 -53.5q139 0 218.5 65t79.5 173q0 117 -38 239z" />
    <glyph glyph-name="uni0647" unicode="&#x647;" horiz-adv-x="661" 
d="M472 -27q-47 0 -117 20.5t-129 55.5q-64 -32 -150 -57l-16 34q73 18 134 44q-94 68 -94 152q0 116 143 226q153 -56 245.5 -159.5t92.5 -207.5q0 -50 -23.5 -79t-85.5 -29zM132 228q0 -79 95 -141q65 34 97.5 74.5t32.5 78.5q0 117 -109 172q-116 -90 -116 -184zM476 7
q40 0 56.5 16.5t16.5 49.5q0 75 -47 148.5t-165 155.5q51 -50 51 -133q0 -100 -128 -177q111 -60 216 -60z" />
    <glyph glyph-name="uni0648" unicode="&#x648;" horiz-adv-x="513" 
d="M258 34q74 0 143 20q-1 123 -42 202.5t-114 79.5q-67 0 -102.5 -53.5t-35.5 -117.5q0 -66 32.5 -98.5t118.5 -32.5zM155 -236q-50 0 -105 13l8 33q47 -11 103 -11q66 0 114 20t73 55t37 70t15 76q-66 -20 -151 -20q-98 0 -136 42.5t-38 118.5q0 91 46.5 150t123.5 59
q88 0 138 -84.5t50 -226.5q0 -140 -70.5 -217.5t-207.5 -77.5z" />
    <glyph glyph-name="uni0649" unicode="&#x649;" horiz-adv-x="789" 
d="M357 -221q-134 0 -205.5 65.5t-71.5 183.5q0 119 52 230l31 -15q-47 -103 -47 -208q0 -219 248 -219q124 0 206 53t86 141l-30 22.5t-36.5 23l-36 20t-43 21.5l-41.5 19.5l-46.5 21l-44.5 19.5v21q0 68 19.5 119t53.5 79.5t74 42.5t86 14q66 0 128 -38l-16 -32
q-52 34 -115 34q-185 0 -197 -217q100 -42 165 -76t115 -76q0 -114 -90 -181.5t-244 -67.5z" />
    <glyph glyph-name="uni064A" unicode="&#x64a;" horiz-adv-x="789" 
d="M357 -221q-134 0 -205.5 65.5t-71.5 183.5q0 119 52 230l31 -15q-47 -103 -47 -208q0 -219 248 -219q124 0 206 53t86 141l-30 22.5t-36.5 23l-36 20t-43 21.5l-41.5 19.5l-46.5 21l-44.5 19.5v21q0 68 19.5 119t53.5 79.5t74 42.5t86 14q66 0 128 -38l-16 -32
q-52 34 -115 34q-185 0 -197 -217q100 -42 165 -76t115 -76q0 -114 -90 -181.5t-244 -67.5zM447 -332l39 -36l-34 -38l-40 34zM316 -336l39 -36l-34 -38l-40 34z" />
    <glyph glyph-name="uni064B" unicode="&#x64b;" 
d="M272 929v-32q-111 -18 -272 -59v32q129 37 272 59zM272 819v-32q-111 -18 -272 -59v32q129 37 272 59z" />
    <glyph glyph-name="uni064C" unicode="&#x64c;" 
d="M125 910q0 -65 96 -75q22 27 22 59t-18.5 54t-45.5 22q-23 0 -38.5 -17.5t-15.5 -42.5zM-17 703l-7 32q33 16 45.5 30.5t12.5 35.5q0 20 -12 33.5t-35 13.5q-20 0 -40 -10l-12 26q27 14 59 14q31 0 50.5 -20.5t19.5 -58.5q0 -28 -18 -49q115 31 152 62q-52 4 -77.5 29
t-25.5 65t25 68t66 28q37 0 61.5 -28t24.5 -71q0 -40 -16 -69q-46 -81 -273 -131z" />
    <glyph glyph-name="uni064D" unicode="&#x64d;" 
d="M272 -178v-32q-111 -18 -272 -59v32q129 37 272 59zM272 -288v-32q-111 -18 -272 -59v32q129 37 272 59z" />
    <glyph glyph-name="uni064E" unicode="&#x64e;" 
d="M272 824v-32q-111 -18 -272 -59v32q129 37 272 59z" />
    <glyph glyph-name="uni064F" unicode="&#x64f;" 
d="M0 707v34q160 41 199 70q-53 4 -79 29.5t-26 65.5t25 68t67 28q37 0 61.5 -28t24.5 -71q0 -42 -19 -73q-46 -75 -253 -123zM125 910q0 -72 100 -72q18 26 18 56q0 32 -18.5 54t-45.5 22q-23 0 -38.5 -17.5t-15.5 -42.5z" />
    <glyph glyph-name="uni0650" unicode="&#x650;" 
d="M272 -185v-32q-111 -18 -272 -59v32q129 37 272 59z" />
    <glyph glyph-name="uni0651" unicode="&#x651;" 
d="M214 744q-28 0 -45 10q-34 -40 -90 -40q-35 0 -54.5 18.5t-19.5 52.5q0 13 2.5 27.5t4.5 22.5l3 8l28 -3q-7 -24 -7 -44q0 -48 49 -48q39 0 62 29q-11 20 -11 51v30l32 6v-27q0 -59 49 -59q52 0 52 58q0 22 -10 54l32 11q10 -28 10 -61q0 -41 -20.5 -68.5t-66.5 -27.5z
" />
    <glyph glyph-name="uni0652" unicode="&#x652;" 
d="M234 811q0 -46 -31 -70t-77 -24q-48 0 -73 26t-25 67q0 52 30.5 79t69.5 27q43 0 74.5 -26.5t31.5 -78.5zM131 749q34 0 52.5 16t18.5 42q0 33 -19 55t-56 22q-30 0 -48.5 -20.5t-18.5 -51.5q0 -63 71 -63z" />
    <glyph glyph-name="uni0653" unicode="&#x653;" 
d="M300 763l14 -24q-37 -26 -84 -26q-28 0 -75 15t-66 15q-20 0 -33 -7t-30 -25l-27 17q40 48 94 48q19 0 63.5 -15.5t73.5 -15.5q34 0 70 18z" />
    <glyph glyph-name="uni0654" unicode="&#x654;" horiz-adv-x="288" 
d="M248 763q-96 -17 -198 -57l-10 29q44 18 74 26q-53 26 -53 81q0 42 24.5 63.5t60.5 21.5q33 0 71 -18l-12 -28q-31 13 -59 13q-25 0 -40.5 -13t-15.5 -39q0 -27 21.5 -45t57.5 -18q8 0 73 13z" />
    <glyph glyph-name="uni0655" unicode="&#x655;" 
d="M248 -344q-96 -17 -198 -57l-10 29q44 18 74 26q-53 26 -53 81q0 42 24.5 63.5t60.5 21.5q33 0 71 -18l-12 -28q-31 13 -59 13q-25 0 -40.5 -13t-15.5 -39q0 -27 21.5 -45t57.5 -18q8 0 73 13z" />
    <glyph glyph-name="uni0656" unicode="&#x656;" 
d="M56 -209l35 7q8 -80 8 -189l-33 -2q0 94 -10 184z" />
    <glyph glyph-name="uni0657" unicode="&#x657;" 
d="M88 715q-40 0 -64 26.5t-24 67.5q0 37 15 68q20 38 76.5 68t180.5 64v-34q-155 -40 -196 -70q49 -5 75.5 -30.5t26.5 -64.5q0 -43 -24.5 -69t-65.5 -26zM93 746q25 0 39.5 16t14.5 44q0 65 -96 75q-22 -26 -22 -63q0 -31 17 -51.5t47 -20.5z" />
    <glyph glyph-name="uni0660" unicode="&#x660;" horiz-adv-x="260" 
d="M131 260l-41 39l39 41l41 -40z" />
    <glyph glyph-name="uni0661" unicode="&#x661;" horiz-adv-x="295" 
d="M100 682l35 9q40 -208 40 -586v-105h-34q0 469 -41 682z" />
    <glyph glyph-name="uni0662" unicode="&#x662;" horiz-adv-x="564" 
d="M176 105v-105h-35q0 469 -41 682l36 9q21 -109 31 -266q55 -30 144 -30q95 0 161 40q8 36 8 87q0 94 -20 172l35 9q19 -76 19 -173q0 -64 -14 -115q-74 -56 -191 -56q-86 0 -140 26q7 -123 7 -280z" />
    <glyph glyph-name="uni0663" unicode="&#x663;" horiz-adv-x="770" 
d="M176 105v-105h-35q0 469 -41 682l36 9q20 -106 31 -264q39 -27 117 -27q60 0 102 24t42 74v118l33 4v-113q0 -103 111 -103q66 0 110 25q6 37 6 82q0 97 -23 179l31 11q24 -96 24 -185q0 -69 -15 -111q-67 -36 -140 -36q-97 0 -124 71q-14 -37 -62.5 -56t-104.5 -19
q-62 0 -105 20q7 -125 7 -280z" />
    <glyph glyph-name="uni0664" unicode="&#x664;" horiz-adv-x="497" 
d="M437 4q-77 -9 -141 -9q-216 0 -216 134q0 65 51 122.5t135 90.5q-160 14 -160 133q0 71 43.5 125.5t101.5 78.5t117 24q9 0 27 -2l-4 -34q-8 1 -23 1q-88 0 -158 -53.5t-70 -141.5q0 -47 39 -75t115 -28q17 0 55.5 5.5t57.5 7.5v-31q-110 -11 -201 -76.5t-91 -140.5
q0 -105 190 -105q64 0 132 7v-33z" />
    <glyph glyph-name="uni0665" unicode="&#x665;" horiz-adv-x="622" 
d="M299 629q72 0 134 -53t95.5 -130t33.5 -153q0 -105 -69.5 -169.5t-196.5 -64.5q-236 0 -236 225q0 81 32 160.5t88 132t119 52.5zM298 94q106 0 168.5 53.5t62.5 138.5q0 42 -16 93.5t-43.5 100t-73.5 81.5t-98 33q-54 0 -102.5 -51t-74.5 -120.5t-26 -130.5
q0 -198 203 -198z" />
    <glyph glyph-name="uni0666" unicode="&#x666;" horiz-adv-x="501" 
d="M418 0h-37q-29 242 -29 446q0 84 6 180q-68 -5 -143 -5q-109 0 -175 7v32q52 -6 177 -6q77 0 177 6q-7 -149 -7 -221q0 -192 31 -439z" />
    <glyph glyph-name="uni0667" unicode="&#x667;" horiz-adv-x="609" 
d="M321 0h-48q-22 159 -92.5 353.5t-150.5 349.5h41q54 -118 86 -194.5t78 -215t64 -252.5q71 315 243 662h37q-182 -360 -258 -703z" />
    <glyph glyph-name="uni0668" unicode="&#x668;" horiz-adv-x="608" 
d="M536 0q-1 3 -22 49.5l-26 57.5l-25.5 57.5t-28 66t-26 64t-27.5 71l-23.5 68.5t-23.5 73.5t-18.5 70t-16.5 73.5q-69 -284 -232 -651h-37q175 389 249 700h44q27 -155 101 -350.5t154 -349.5h-42z" />
    <glyph glyph-name="uni0669" unicode="&#x669;" horiz-adv-x="539" 
d="M449 0h-34q-5 75 -16 342q-67 -20 -140 -20q-114 0 -156.5 41t-42.5 113q0 97 52.5 162.5t133.5 65.5q88 0 132 -85t53 -249q1 -20 6.5 -152t11.5 -218zM260 357q65 0 137 18q-18 296 -150 296q-39 0 -70 -18.5t-48 -48t-26 -61.5t-9 -63q0 -61 37.5 -92t128.5 -31z" />
    <glyph glyph-name="uni066A" unicode="&#x66a;" horiz-adv-x="555" 
d="M60 -4l407 686l28 -16l-407 -687zM109 531q-16 0 -25 10.5t-9 24.5t9 24t25 10q15 0 24 -10t9 -24t-9 -24.5t-24 -10.5zM428 52q-16 0 -25 10.5t-9 24.5t9 24t25 10q15 0 24 -10t9 -24t-9 -24.5t-24 -10.5z" />
    <glyph glyph-name="uni066B" unicode="&#x66b;" horiz-adv-x="412" 
d="M110 -89l-30 10l221 602l31 -10z" />
    <glyph glyph-name="uni066C" unicode="&#x66c;" horiz-adv-x="170" 
d="M95 720h35q-8 -105 -58 -197h-28q41 83 51 197z" />
    <glyph glyph-name="uni066D" unicode="&#x66d;" horiz-adv-x="584" 
d="M438 94l-148 190l-147 -190l-25 18l145 193l-233 87l10 28l234 -84l2 257h31v-258l236 85l11 -29l-237 -86l146 -193z" />
    <glyph glyph-name="uni066E" unicode="&#x66e;" horiz-adv-x="907" 
d="M398 -12q-95 0 -160 14t-98.5 41t-46.5 58.5t-13 75.5q0 75 34 179l32 -9q-29 -104 -29 -161q0 -36 11 -62.5t40 -50t90 -36t152 -12.5q223 0 379 77q3 28 3 59q0 85 -27 191l34 11q28 -101 28 -192q0 -52 -11 -93q-64 -40 -174.5 -65t-243.5 -25z" />
    <glyph glyph-name="uni0670" unicode="&#x670;" 
d="M56 902l35 7q8 -80 8 -189l-33 -2q0 94 -10 184z" />
    <glyph glyph-name="uni0671" unicode="&#x671;" horiz-adv-x="215" 
d="M161 694q71 0 71 45q0 32 -19.5 48t-46.5 16q-50 0 -100 -88l19 -6.5t21.5 -7t23.5 -5t31 -2.5zM30 689q-26 0 -56 -31l-22 23q33 40 76 40h6q36 67 68.5 92t68.5 25q41 0 66.5 -27t25.5 -68q0 -37 -26.5 -59.5t-78.5 -22.5q-37 0 -77.5 14t-50.5 14zM125 0h-35v606l35 4
v-610z" />
    <glyph glyph-name="uni0672" unicode="&#x672;" horiz-adv-x="215" 
d="M34 682q-31 0 -60 -24l-18 23q35 35 82 35q14 0 42 -11t49 -11q13 0 31 2q-35 9 -52.5 34.5t-17.5 56.5q0 48 26 70.5t62 22.5q34 0 72 -18l-13 -29q-31 13 -59 13q-25 0 -40.5 -14.5t-15.5 -43.5q0 -31 20.5 -51.5t56.5 -20.5q9 0 18.5 3.5t27.5 12.5t24 11l12 -29
q-9 -4 -32 -15.5t-33.5 -16t-28 -11t-32 -9t-29.5 -2.5q-25 0 -52.5 11t-39.5 11zM125 0h-35v606l35 4v-610z" />
    <glyph glyph-name="uni0674" unicode="&#x674;" horiz-adv-x="291" 
d="M248 763q-96 -17 -198 -57l-10 29q44 18 74 26q-53 26 -53 81q0 42 24.5 63.5t60.5 21.5q33 0 71 -18l-12 -28q-31 13 -59 13q-25 0 -40.5 -13t-15.5 -39q0 -27 21.5 -45t57.5 -18q8 0 73 13z" />
    <glyph glyph-name="uni0679" unicode="&#x679;" horiz-adv-x="907" 
d="M466 385q69 0 120 16q4 12 4 26q0 62 -55 62t-119 -103q15 -1 50 -1zM462 355q-64 0 -111 6v29l39 -3q12 25 12 88v106l30 4v-95q0 -23 -4 -43q50 73 112 73q39 0 58 -23.5t19 -59.5q0 -28 -11 -56q-47 -26 -144 -26zM398 -12q-95 0 -160 14t-98.5 41t-46.5 58.5
t-13 75.5q0 75 34 179l32 -9q-29 -104 -29 -161q0 -36 11 -62.5t40 -50t90 -36t152 -12.5q223 0 379 77q3 28 3 59q0 85 -27 191l34 11q28 -101 28 -192q0 -52 -11 -93q-64 -40 -174.5 -65t-243.5 -25z" />
    <glyph glyph-name="uni067E" unicode="&#x67e;" horiz-adv-x="907" 
d="M398 -12q-95 0 -160 14t-98.5 41t-46.5 58.5t-13 75.5q0 75 34 179l32 -9q-29 -104 -29 -161q0 -36 11 -62.5t40 -50t90 -36t152 -12.5q223 0 379 77q3 28 3 59q0 85 -27 191l34 11q28 -101 28 -192q0 -52 -11 -93q-64 -40 -174.5 -65t-243.5 -25zM507 -178l-39 36l35 37
l39 -33zM377 -182l-39 36l35 37l39 -33zM445 -279l-39 36l35 37l39 -33z" />
    <glyph glyph-name="uni0686" unicode="&#x686;" horiz-adv-x="636" 
d="M345 -274q-127 0 -196 57.5t-69 156.5q0 71 35.5 128t101.5 97t139 66.5t168 48.5q-42 20 -111 61.5t-117.5 62.5t-90.5 21q-58 0 -95 -62l-29 13q22 47 52 65t75 18q48 0 107.5 -27.5t137 -74.5t126.5 -69l-11 -31q-100 -21 -176.5 -47t-142 -63t-100.5 -88t-35 -113
q0 -89 64 -136.5t173 -47.5q118 0 243 57l12 -28q-117 -65 -261 -65zM444 -13l-36 33l31 34l36 -30zM325 -16l-35 33l31 33l35 -30zM387 -105l-35 33l31 34l35 -30z" />
    <glyph glyph-name="uni0688" unicode="&#x688;" horiz-adv-x="513" 
d="M193 546q69 0 120 16q4 12 4 26q0 62 -55 62t-119 -103q15 -1 50 -1zM189 516q-65 0 -111 6v29l39 -3q12 25 12 88v106l30 4v-95q0 -23 -4 -43q50 73 112 73q39 0 58 -23.5t19 -59.5q0 -28 -11 -56q-47 -26 -144 -26zM171 -12q-71 0 -131 10v36q76 -9 140 -9
q126 0 222 41q-4 91 -54.5 173t-157.5 181l24 24q118 -104 168.5 -197.5t50.5 -165.5q0 -24 -4 -39q-95 -54 -258 -54z" />
    <glyph glyph-name="uni0691" unicode="&#x691;" horiz-adv-x="398" 
d="M217 433q69 0 120 16q4 12 4 26q0 62 -55 62t-119 -103q15 -1 50 -1zM213 403q-65 0 -111 6v29l39 -3q12 25 12 88v106l30 4v-95q0 -23 -4 -43q50 73 112 73q39 0 58 -23.5t19 -59.5q0 -28 -11 -56q-47 -26 -144 -26zM318 78q0 -154 -71 -232t-183 -78q-31 0 -64 6l8 34
q25 -5 57 -5q56 0 99.5 23t69 62.5t38.5 88t13 102.5q0 98 -32 235l35 10q30 -132 30 -246z" />
    <glyph glyph-name="uni0698" unicode="&#x698;" horiz-adv-x="398" 
d="M230 573l39 -36l-35 -37l-38 33zM298 476l39 -36l-35 -37l-38 33zM168 472l39 -36l-35 -37l-38 33zM318 78q0 -154 -71 -232t-183 -78q-31 0 -64 6l8 34q25 -5 57 -5q56 0 99.5 23t69 62.5t38.5 88t13 102.5q0 98 -32 235l35 10q30 -132 30 -246z" />
    <glyph glyph-name="uni06A9" unicode="&#x6a9;" horiz-adv-x="887" 
d="M408 -12q-99 0 -165.5 14t-101 41t-48 58.5t-13.5 75.5q0 75 34 179l32 -10q-30 -102 -30 -160q0 -36 11.5 -62.5t42 -50t93.5 -36t157 -12.5q203 0 337 55q1 6 1 18q0 102 -84 194t-230 141v45q172 147 403 225v-37q-203 -64 -373 -206q155 -61 236 -155t81 -199
q0 -23 -3 -49q-54 -30 -160.5 -49.5t-219.5 -19.5z" />
    <glyph glyph-name="uni06AF" unicode="&#x6af;" horiz-adv-x="887" 
d="M520 606v39q97 67 226 116v-36q-127 -53 -226 -119zM408 -12q-99 0 -165.5 14t-101 41t-48 58.5t-13.5 75.5q0 75 34 179l32 -10q-30 -96 -30 -160q0 -36 11.5 -62.5t42 -50t93.5 -36t157 -12.5q203 0 337 55q1 6 1 18q0 102 -84.5 194t-230.5 141v45q174 147 404 225
v-37q-203 -64 -373 -206q155 -61 236 -155t81 -199q0 -23 -3 -49q-54 -30 -160.5 -49.5t-219.5 -19.5z" />
    <glyph glyph-name="uni06BA" unicode="&#x6ba;" horiz-adv-x="767" 
d="M647 310q40 -137 40 -239q0 -133 -87.5 -210t-252.5 -77q-130 0 -198.5 60t-68.5 169q0 119 52 230l31 -14q-47 -103 -47 -209q0 -92 58 -145.5t180 -53.5q139 0 218.5 65t79.5 173q0 117 -38 239z" />
    <glyph glyph-name="uni06BE" unicode="&#x6be;" horiz-adv-x="661" 
d="M472 -27q-47 0 -117 20.5t-129 55.5q-64 -32 -150 -57l-16 34q73 18 134 44q-94 68 -94 152q0 116 143 226q153 -56 245.5 -159.5t92.5 -207.5q0 -50 -23.5 -79t-85.5 -29zM132 228q0 -79 95 -141q65 34 97.5 74.5t32.5 78.5q0 117 -109 172q-116 -90 -116 -184zM476 7
q40 0 56.5 16.5t16.5 49.5q0 75 -47 148.5t-165 155.5q51 -50 51 -133q0 -100 -128 -177q111 -60 216 -60z" />
    <glyph glyph-name="uni06C1" unicode="&#x6c1;" horiz-adv-x="486" 
d="M218 419q99 -59 153.5 -133.5t54.5 -150.5q0 -63 -49.5 -103.5t-145.5 -40.5q-80 0 -125.5 37.5t-45.5 104.5q0 73 39 139t119 147zM235 26q72 0 115.5 28t43.5 78q0 62 -49.5 132t-121.5 112q-130 -127 -130 -231q0 -119 142 -119z" />
    <glyph glyph-name="uni06C2" unicode="&#x6c2;" horiz-adv-x="486" 
d="M343 528q-96 -17 -198 -57l-10 29q44 18 74 26q-53 26 -53 81q0 42 24.5 63.5t60.5 21.5q33 0 71 -18l-12 -28q-31 13 -59 13q-25 0 -40.5 -13t-15.5 -39q0 -27 21.5 -45t57.5 -18q8 0 73 13zM218 419q99 -59 153.5 -133.5t54.5 -150.5q0 -63 -49.5 -103.5t-145.5 -40.5
q-80 0 -125.5 37.5t-45.5 104.5q0 73 39 139t119 147zM235 26q72 0 115.5 28t43.5 78q0 62 -49.5 132t-121.5 112q-130 -127 -130 -231q0 -119 142 -119z" />
    <glyph glyph-name="uni06C3" unicode="&#x6c3;" horiz-adv-x="486" 
d="M303 581l39 -36l-34 -38l-40 34zM172 577l39 -36l-34 -38l-40 34zM218 419q99 -59 153.5 -133.5t54.5 -150.5q0 -63 -49.5 -103.5t-145.5 -40.5q-80 0 -125.5 37.5t-45.5 104.5q0 73 39 139t119 147zM235 26q72 0 115.5 28t43.5 78q0 62 -49.5 132t-121.5 112
q-130 -127 -130 -231q0 -119 142 -119z" />
    <glyph glyph-name="uni06CC" unicode="&#x6cc;" horiz-adv-x="789" 
d="M357 -221q-134 0 -205.5 65.5t-71.5 183.5q0 119 52 230l31 -15q-47 -103 -47 -208q0 -219 248 -219q124 0 206 53t86 141l-30 22.5t-36.5 23l-36 20t-43 21.5l-41.5 19.5l-46.5 21l-44.5 19.5v21q0 68 19.5 119t53.5 79.5t74 42.5t86 14q66 0 128 -38l-16 -32
q-52 34 -115 34q-185 0 -197 -217q100 -42 165 -76t115 -76q0 -114 -90 -181.5t-244 -67.5z" />
    <glyph glyph-name="uni06D2" unicode="&#x6d2;" horiz-adv-x="771" 
d="M751 37l-9 -37h-430q-232 0 -232 148q0 89 68.5 154.5t156.5 65.5q105 0 139 -113l-34 -14q-17 48 -43 67t-66 19q-74 0 -127.5 -53t-53.5 -116q0 -25 8 -44t30 -38t69 -29t117 -10h407z" />
    <glyph glyph-name="uni06D3" unicode="&#x6d3;" horiz-adv-x="771" 
d="M395 494q-96 -17 -198 -57l-10 29q44 18 74 26q-53 26 -53 81q0 42 24.5 63.5t60.5 21.5q33 0 71 -18l-12 -28q-31 13 -59 13q-25 0 -40.5 -13t-15.5 -39q0 -27 21.5 -45t57.5 -18q8 0 73 13zM751 37l-9 -37h-430q-232 0 -232 148q0 89 68.5 154.5t156.5 65.5
q105 0 139 -113l-34 -14q-17 48 -43 67t-66 19q-74 0 -127.5 -53t-53.5 -116q0 -25 8 -44t30 -38t69 -29t117 -10h407z" />
    <glyph glyph-name="uni06D4" unicode="&#x6d4;" horiz-adv-x="572" 
d="M542 65v-39q-104 -31 -249 -31q-151 0 -263 62l15 35q130 -60 262 -60q131 0 235 33z" />
    <glyph glyph-name="uni06F0" unicode="&#x6f0;" horiz-adv-x="260" 
d="M131 260l-41 39l39 41l41 -40z" />
    <glyph glyph-name="uni06F1" unicode="&#x6f1;" horiz-adv-x="295" 
d="M100 682l35 9q40 -208 40 -586v-105h-34q0 469 -41 682z" />
    <glyph glyph-name="uni06F2" unicode="&#x6f2;" horiz-adv-x="564" 
d="M176 105v-105h-35q0 469 -41 682l36 9q21 -109 31 -266q55 -30 144 -30q95 0 161 40q8 36 8 87q0 94 -20 172l35 9q19 -76 19 -173q0 -64 -14 -115q-74 -56 -191 -56q-86 0 -140 26q7 -123 7 -280z" />
    <glyph glyph-name="uni06F3" unicode="&#x6f3;" horiz-adv-x="770" 
d="M176 105v-105h-35q0 469 -41 682l36 9q20 -106 31 -264q39 -27 117 -27q60 0 102 24t42 74v118l33 4v-113q0 -103 111 -103q66 0 110 25q6 37 6 82q0 97 -23 179l31 11q24 -96 24 -185q0 -69 -15 -111q-67 -36 -140 -36q-97 0 -124 71q-14 -37 -62.5 -56t-104.5 -19
q-62 0 -105 20q7 -125 7 -280z" />
    <glyph glyph-name="uni06F4" unicode="&#x6f4;" horiz-adv-x="681" 
d="M175 105v-105h-34q0 469 -41 682l35 9q22 -111 31 -271q64 -28 197 -28q-73 45 -73 139q0 76 48 120t124 44q48 0 124 -31l-12 -30q-70 27 -116 27q-61 0 -98 -35t-37 -96q0 -56 33.5 -93t69.5 -37q62 0 194 45l11 -30q-162 -56 -294 -56q-106 0 -169 23q7 -122 7 -277z
" />
    <glyph glyph-name="uni06F5" unicode="&#x6f5;" horiz-adv-x="739" 
d="M251 21q62 0 108 28q-16 29 -16 67v60l34 3v-65q0 -53 30.5 -70t83.5 -17q69 0 111.5 37t42.5 116q0 44 -13.5 96.5t-45 120.5t-97 141t-156.5 134q-119 -121 -179 -248.5t-60 -223.5q0 -94 36 -136.5t121 -42.5zM484 -10q-65 0 -102 31q-68 -35 -141 -35
q-92 0 -136.5 50t-44.5 156q0 122 69.5 262t198.5 261q121 -80 202 -175.5t115 -184t34 -173.5q0 -90 -49 -141t-146 -51z" />
    <glyph glyph-name="uni06F6" unicode="&#x6f6;" horiz-adv-x="590" 
d="M552 366q-142 -56 -241 -142t-174 -224h-40q60 106 111 166.5t116 108.5q-113 4 -178 64.5t-65 152.5q0 110 63.5 166t158.5 56q62 0 142 -25l-9 -31q-72 23 -136 23q-72 0 -128.5 -45.5t-56.5 -139.5q0 -87 63 -137.5t164 -50.5q13 0 40 13l73 36t87 39z" />
    <glyph glyph-name="uni06F7" unicode="&#x6f7;" horiz-adv-x="609" 
d="M321 0h-48q-22 159 -92.5 353.5t-150.5 349.5h41q54 -118 86 -194.5t78 -215t64 -252.5q71 315 243 662h37q-182 -360 -258 -703z" />
    <glyph glyph-name="uni06F8" unicode="&#x6f8;" horiz-adv-x="608" 
d="M536 0q-1 3 -22 49.5l-26 57.5l-25.5 57.5t-28 66t-26 64t-27.5 71l-23.5 68.5t-23.5 73.5t-18.5 70t-16.5 73.5q-69 -284 -232 -651h-37q175 389 249 700h44q27 -155 101 -350.5t154 -349.5h-42z" />
    <glyph glyph-name="uni06F9" unicode="&#x6f9;" horiz-adv-x="539" 
d="M449 0h-34q-5 75 -16 342q-67 -20 -140 -20q-114 0 -156.5 41t-42.5 113q0 97 52.5 162.5t133.5 65.5q88 0 132 -85t53 -249q1 -20 6.5 -152t11.5 -218zM260 357q65 0 137 18q-18 296 -150 296q-39 0 -70 -18.5t-48 -48t-26 -61.5t-9 -63q0 -61 37.5 -92t128.5 -31z" />
    <glyph glyph-name="uni200C" unicode="&#x200c;" 
 />
    <glyph glyph-name="uni200D" unicode="&#x200d;" 
 />
    <glyph glyph-name="endash" unicode="&#x2013;" horiz-adv-x="500" 
d="M40 296v32h420v-32h-420z" />
    <glyph glyph-name="emdash" unicode="&#x2014;" horiz-adv-x="1000" 
d="M40 296v32h920v-32h-920z" />
    <glyph glyph-name="quoteleft" unicode="&#x2018;" horiz-adv-x="170" 
d="M91 523h-35q8 105 58 197h28q-41 -83 -51 -197z" />
    <glyph glyph-name="quoteright" unicode="&#x2019;" horiz-adv-x="170" 
d="M95 720h35q-8 -105 -58 -197h-28q41 83 51 197z" />
    <glyph glyph-name="quotesinglbase" unicode="&#x201a;" horiz-adv-x="170" 
d="M79 70h35q-8 -105 -58 -197h-28q41 83 51 197z" />
    <glyph glyph-name="quotedblleft" unicode="&#x201c;" horiz-adv-x="320" 
d="M91 523h-35q8 105 58 197h28q-41 -83 -51 -197zM241 523h-35q8 105 58 197h28q-41 -83 -51 -197z" />
    <glyph glyph-name="quotedblright" unicode="&#x201d;" horiz-adv-x="320" 
d="M245 720h35q-8 -105 -58 -197h-28q41 83 51 197zM95 720h35q-8 -105 -58 -197h-28q41 83 51 197z" />
    <glyph glyph-name="quotedblbase" unicode="&#x201e;" horiz-adv-x="320" 
d="M229 70h35q-8 -105 -58 -197h-28q41 83 51 197zM79 70h35q-8 -105 -58 -197h-28q41 83 51 197z" />
    <glyph glyph-name="dagger" unicode="&#x2020;" horiz-adv-x="555" 
d="M295 258v-458h-35v458q0 2 3 185q-66 -2 -203 -2v32q71 0 203 -2q-3 174 -3 183q0 29 2 87h31q2 -58 2 -87q0 -9 -3 -183q132 2 203 2v-32q-137 0 -203 2q3 -183 3 -185z" />
    <glyph glyph-name="daggerdbl" unicode="&#x2021;" horiz-adv-x="555" 
d="M295 -113q0 -32 -2 -90h-31q-2 58 -2 90q0 9 3 183q-132 -2 -203 -2v32q137 0 203 -2q0 20 -1 52.5t-1.5 61t-0.5 59.5t0.5 59t1.5 60.5t1 52.5q-66 -2 -203 -2v32q71 0 203 -2q-3 174 -3 183q0 29 2 87h31q2 -58 2 -87q0 -9 -3 -183q132 2 203 2v-32q-137 0 -203 2
q0 -20 1 -52.5t1.5 -60.5t0.5 -59t-0.5 -59.5t-1.5 -60.5t-1 -53q66 2 203 2v-32q-71 0 -203 2q3 -174 3 -183z" />
    <glyph glyph-name="bullet" unicode="&#x2022;" horiz-adv-x="226" 
d="M176 351q0 -29 -16.5 -47.5t-45.5 -18.5q-30 0 -47 18.5t-17 47.5q0 27 17 45.5t47 18.5q28 0 45 -18.5t17 -45.5z" />
    <glyph glyph-name="ellipsis" unicode="&#x2026;" horiz-adv-x="603" 
d="M482 25q0 13 8.5 22t22.5 9t22 -9t8 -22t-8 -22.5t-22 -9.5t-22.5 9.5t-8.5 22.5zM271 25q0 13 8.5 22t22.5 9t22 -9t8 -22t-8 -22.5t-22 -9.5t-22.5 9.5t-8.5 22.5zM60 25q0 13 8.5 22t22.5 9t22 -9t8 -22t-8 -22.5t-22 -9.5t-22.5 9.5t-8.5 22.5z" />
    <glyph glyph-name="perthousand" unicode="&#x2030;" horiz-adv-x="1160" 
d="M342 519q0 -75 -39 -120t-105 -45q-64 0 -103.5 45.5t-39.5 119.5q0 73 39.5 118.5t103.5 45.5q65 0 104.5 -45.5t39.5 -118.5zM549 671h35l-322 -671h-35zM91 519q0 -62 27.5 -97.5t79.5 -35.5q54 0 81 35.5t27 97.5q0 61 -27 96.5t-81 35.5q-52 0 -79.5 -36t-27.5 -96z
M1105 153q0 -75 -39 -120t-105 -45q-64 0 -103.5 45.5t-39.5 119.5q0 73 39.5 118.5t103.5 45.5q65 0 104.5 -45.5t39.5 -118.5zM755 153q0 -75 -39 -120t-105 -45q-64 0 -103.5 45.5t-39.5 119.5q0 73 39.5 118.5t103.5 45.5q65 0 104.5 -45.5t39.5 -118.5zM854 153
q0 -62 27.5 -97.5t79.5 -35.5q54 0 81 35.5t27 97.5q0 61 -27 96.5t-81 35.5q-52 0 -79.5 -36t-27.5 -96zM504 153q0 -62 27.5 -97.5t79.5 -35.5q54 0 81 35.5t27 97.5q0 61 -27 96.5t-81 35.5q-52 0 -79.5 -36t-27.5 -96z" />
    <glyph glyph-name="guilsinglleft" unicode="&#x2039;" horiz-adv-x="313" 
d="M222 64q-86 74 -197 200q100 114 197 200h46q-113 -104 -197 -200q84 -96 197 -200h-46z" />
    <glyph glyph-name="guilsinglright" unicode="&#x203a;" horiz-adv-x="313" 
d="M91 64h-46q113 104 197 200q-84 96 -197 200h46q97 -86 197 -200q-111 -126 -197 -200z" />
    <glyph glyph-name="fraction" unicode="&#x2044;" horiz-adv-x="104" 
d="M227 700h37l-387 -700h-37z" />
    <glyph glyph-name="Euro" unicode="&#x20ac;" horiz-adv-x="615" 
d="M560 9q-65 -21 -132 -21q-124 0 -198.5 69t-93.5 191h-101v32h97q-3 27 -3 57q0 31 3 60h-97v32h101q19 120 90 187t190 67q65 0 134 -24l-9 -31q-61 22 -125 22q-102 0 -162.5 -59t-79.5 -162h290l-4 -32h-291q-3 -29 -3 -60q0 -30 3 -57h283l-4 -32h-274
q19 -105 83.5 -166t170.5 -61q60 0 124 19z" />
    <glyph glyph-name="trademark" unicode="&#x2122;" horiz-adv-x="722" 
d="M288 670h-120v-304h-33v304h-120v30h273v-30zM365 589v-223h-32v334h38q41 -98 134 -253q76 126 129 253h38v-334h-32v223l2 58q-56 -129 -120 -231h-31q-83 134 -128 232z" />
    <glyph glyph-name="partialdiff" unicode="&#x2202;" horiz-adv-x="550" 
d="M226 -12q-86 0 -131 51.5t-45 140.5q0 138 75 235t193 97q79 0 133 -59q-28 80 -88.5 147t-142.5 103l51 3q94 -42 159 -135.5t65 -211.5q0 -170 -72 -270.5t-197 -100.5zM86 181q0 -76 36.5 -118t109.5 -42q71 0 124 43.5t78 110.5t25 145q0 159 -147 159
q-103 0 -164.5 -89t-61.5 -209z" />
    <glyph glyph-name="product" unicode="&#x220f;" horiz-adv-x="707" 
d="M532 -130v798h-357v-798h-35v798h-100v32h627v-32h-100v-798h-35z" />
    <glyph glyph-name="summation" unicode="&#x2211;" horiz-adv-x="547" 
d="M517 -130h-487v30l299 385l-279 385v30h447v-32h-405l268 -365v-36l-288 -365h445v-32z" />
    <glyph glyph-name="minus" unicode="&#x2212;" horiz-adv-x="491" 
d="M35 327v32h421v-32h-421z" />
    <glyph glyph-name="radical" unicode="&#x221a;" horiz-adv-x="499" 
d="M233 0h-36l-98 269h-69v32h92l93 -265l220 664h34z" />
    <glyph glyph-name="infinity" unicode="&#x221e;" horiz-adv-x="773" 
d="M40 328q0 72 44.5 117t112.5 45q33 0 61 -10t52.5 -32.5t40.5 -41t40 -51.5q31 44 51.5 68t57.5 45.5t79 21.5q64 0 109 -45.5t45 -116.5q0 -73 -44 -118.5t-106 -45.5q-33 0 -60.5 10t-52.5 32.5t-41 41.5t-40 53q-52 -72 -97 -104.5t-100 -32.5q-63 0 -107.5 43.5
t-44.5 120.5zM408 329q25 -36 37.5 -51t36 -39t48 -33.5t53.5 -9.5q51 0 83 35.5t32 94.5q0 61 -33 96.5t-87 35.5q-35 0 -67.5 -20t-52 -42.5t-50.5 -66.5zM196 458q-55 0 -88 -36.5t-33 -95.5t33.5 -94.5t83.5 -35.5q30 0 55 9.5t48 31.5t37.5 39.5t38.5 50.5
q-25 34 -38.5 50.5t-37 39t-47.5 32t-52 9.5z" />
    <glyph glyph-name="integral" unicode="&#x222b;" horiz-adv-x="403" 
d="M90 -192q-33 0 -70 11l9 31q38 -9 61 -9q52 0 73 31t21 91v613q0 155 129 155q33 0 70 -11l-9 -31q-38 9 -61 9q-52 0 -73 -31t-21 -91v-613q0 -155 -129 -155z" />
    <glyph glyph-name="approxequal" unicode="&#x2248;" horiz-adv-x="491" 
d="M430 468l27 -13q-20 -41 -47 -64.5t-71 -23.5q-42 0 -96 29t-86 29q-67 0 -95 -68l-28 12q15 42 47.5 65.5t75.5 23.5q42 0 96 -29t86 -29q56 0 91 68zM430 328l27 -13q-20 -41 -47 -64.5t-71 -23.5q-42 0 -96 29t-86 29q-67 0 -95 -68l-28 12q15 42 47.5 65.5t75.5 23.5
q42 0 96 -29t86 -29q56 0 91 68z" />
    <glyph glyph-name="notequal" unicode="&#x2260;" horiz-adv-x="491" 
d="M456 237h-247l-67 -132h-34l67 132h-140v32h156l75 147h-231v32h247l67 132h34l-67 -132h140v-32h-156l-75 -147h231v-32z" />
    <glyph glyph-name="lessequal" unicode="&#x2264;" horiz-adv-x="491" 
d="M456 168l-421 168v38l421 169v-38l-381 -150l381 -149v-38zM35 35v32h421v-32h-421z" />
    <glyph glyph-name="greaterequal" unicode="&#x2265;" horiz-adv-x="491" 
d="M35 168v38l381 149l-381 150v38l421 -169v-38zM456 35h-421v32h421v-32z" />
    <glyph glyph-name="lozenge" unicode="&#x25ca;" horiz-adv-x="477" 
d="M220 0l-195 290l195 295h36l196 -295l-196 -290h-36zM238 31l172 260l-172 262l-172 -262z" />
    <glyph glyph-name="fi" unicode="&#xfb01;" horiz-adv-x="526" 
d="M373 657q0 13 8.5 22t22.5 9t22 -9t8 -22t-8 -22.5t-22 -9.5t-22.5 9.5t-8.5 22.5zM110 0v468h-80v32h80v76q0 155 129 155q33 0 70 -11l-9 -31q-38 9 -61 9q-52 0 -73 -31t-21 -91v-76h276v-500h-35v468h-241v-468h-35z" />
    <glyph glyph-name="fl" unicode="&#xfb02;" horiz-adv-x="562" 
d="M495 -12q-109 0 -109 133v562q-64 15 -117 15q-69 0 -96.5 -29t-27.5 -88v-81h147v-32h-147v-468h-35v468h-80v32h80v81q0 74 37 112t122 38q61 0 152 -25v-585q0 -53 16.5 -77t57.5 -24q13 0 28 3l4 -30q-15 -5 -32 -5z" />
    <glyph glyph-name="uniFBB2" unicode="&#xfbb2;" 
d="M106 516l41 -38l-36 -39l-41 35z" />
    <glyph glyph-name="uniFBB3" unicode="&#xfbb3;" 
d="M106 -89l41 -38l-36 -39l-41 35z" />
    <glyph glyph-name="uniFBB4" unicode="&#xfbb4;" 
d="M230 567l39 -36l-34 -38l-40 34zM99 563l39 -36l-34 -38l-40 34z" />
    <glyph glyph-name="uniFBB5" unicode="&#xfbb5;" 
d="M226 -78l39 -36l-34 -38l-40 34zM95 -82l39 -36l-34 -38l-40 34z" />
    <glyph glyph-name="uniFBB6" unicode="&#xfbb6;" 
d="M162 664l39 -36l-35 -37l-38 33zM230 567l39 -36l-35 -37l-38 33zM100 563l39 -36l-35 -37l-38 33z" />
    <glyph glyph-name="uniFBB7" unicode="&#xfbb7;" 
d="M221 -142l-39 36l35 37l39 -33zM91 -146l-39 36l35 37l39 -33zM159 -243l-39 36l35 37l39 -33z" />
    <glyph glyph-name="alefShort.isol" horiz-adv-x="215" 
d="M125 0h-35v606l35 4v-610z" />
    <glyph glyph-name="alefShort.fina" horiz-adv-x="313" 
d="M313 37v-37h-21q-115 0 -158.5 60.5t-43.5 185.5v358l35 4v-361q0 -117 39.5 -163.5t135.5 -46.5h13z" />
    <glyph glyph-name="dotlessFeh.medi" horiz-adv-x="552" 
d="M123 251q0 -119 150 -173q149 60 149 164q0 70 -42.5 113.5t-110.5 43.5q-63 0 -104.5 -41.5t-41.5 -106.5zM0 0q-19 0 -19 18q0 19 19 19h16q128 0 208 24q-134 68 -134 185q0 87 53.5 137t129.5 50t129 -51t53 -135q0 -118 -136 -184q92 -26 204 -26h29v-37h-29
q-150 0 -254 41q-112 -41 -250 -41h-19z" />
    <glyph glyph-name="dotlessFeh.init" horiz-adv-x="542" 
d="M278 211q74 0 143 21q-2 125 -43.5 202t-112.5 77q-66 0 -103.5 -54t-37.5 -118q0 -61 35 -94.5t119 -33.5zM0 0q-19 0 -19 18q0 19 19 19h1h20q244 0 384 51q12 56 15 109q-63 -20 -151 -20q-94 0 -136 43t-42 115q0 88 50.5 149t122.5 61q86 0 137 -82.5t51 -223.5
q0 -97 -23 -172q-122 -67 -401 -67h-28z" />
    <glyph glyph-name="uni0651064B" 
d="M272 1098v-32q-111 -18 -272 -59v32q129 37 272 59zM272 988v-32q-111 -18 -272 -59v32q129 37 272 59zM201 741q-28 0 -45 10q-34 -40 -90 -40q-35 0 -54.5 18.5t-19.5 52.5q0 13 2.5 27.5t5.5 22.5l2 8l28 -3q-7 -24 -7 -44q0 -48 49 -48q39 0 62 29q-11 20 -11 51v30
l32 6v-27q0 -59 49 -59q52 0 52 58q0 22 -10 54l32 11q10 -28 10 -61q0 -41 -20.5 -68.5t-66.5 -27.5z" />
    <glyph glyph-name="wasleh" 
d="M224 746q71 0 71 45q0 32 -19.5 48t-46.5 16q-50 0 -100 -88l19 -6.5t21.5 -7t23.5 -5t31 -2.5zM93 741q-26 0 -56 -31l-22 23q33 40 76 40h6q36 67 68.5 92t68.5 25q41 0 66.5 -27t25.5 -68q0 -37 -26.5 -59.5t-78.5 -22.5q-37 0 -77.5 14t-50.5 14z" />
    <glyph glyph-name="wavyHamzehAbove" 
d="M67 736q-31 0 -60 -24l-18 23q35 35 82 35q15 0 43 -11t48 -11q13 0 31 2q-35 9 -52.5 34.5t-17.5 56.5q0 48 26 70.5t62 22.5q34 0 72 -18l-13 -29q-31 13 -59 13q-25 0 -40.5 -14.5t-15.5 -43.5q0 -31 20.5 -51.5t56.5 -20.5q9 0 18.5 3.5t27.5 12.5t24 11l12 -29
q-9 -4 -32 -15.5t-33.5 -16t-28 -11t-32 -9t-29.5 -2.5q-25 0 -52.5 11t-39.5 11z" />
    <glyph glyph-name="uni0654064E" 
d="M279 1051v-32q-111 -18 -272 -59v32q129 37 272 59zM248 763q-96 -17 -198 -57l-10 29q44 18 74 26q-53 26 -53 81q0 42 24.5 63.5t60.5 21.5q33 0 71 -18l-12 -28q-31 13 -59 13q-25 0 -40.5 -13t-15.5 -39q0 -27 21.5 -45t57.5 -18q8 0 73 13z" />
    <glyph glyph-name="uni06540652" 
d="M229 1071q0 -46 -31 -70t-77 -24q-48 0 -73 26t-25 67q0 52 30.5 79t69.5 27q43 0 74.5 -26.5t31.5 -78.5zM126 1009q34 0 52.5 16t18.5 42q0 33 -19 55t-56 22q-30 0 -48.5 -20.5t-18.5 -51.5q0 -63 71 -63zM222 763q-96 -17 -198 -57l-10 29q44 18 74 26q-53 26 -53 81
q0 42 24.5 63.5t60.5 21.5q33 0 71 -18l-12 -28q-31 13 -59 13q-25 0 -40.5 -13t-15.5 -39q0 -27 21.5 -45t57.5 -18q8 0 73 13z" />
    <glyph glyph-name="uni06540651" 
d="M219 1001q-28 0 -45 10q-34 -40 -90 -40q-35 0 -54.5 18.5t-19.5 52.5q0 13 2.5 27.5t5.5 22.5l2 8l28 -3q-7 -24 -7 -44q0 -48 49 -48q39 0 62 29q-11 20 -11 51v30l32 6v-27q0 -59 49 -59q52 0 52 58q0 22 -10 54l32 11q10 -28 10 -61q0 -41 -20.5 -68.5t-66.5 -27.5z
M263 763q-96 -17 -198 -57l-10 29q44 18 74 26q-53 26 -53 81q0 42 24.5 63.5t60.5 21.5q33 0 71 -18l-12 -28q-31 13 -59 13q-25 0 -40.5 -13t-15.5 -39q0 -27 21.5 -45t57.5 -18q8 0 73 13z" />
    <glyph glyph-name="uni0654064F" 
d="M0 944v34q160 41 199 70q-53 4 -79 29.5t-26 65.5t25 68t67 28q37 0 61.5 -28t24.5 -71q0 -42 -19 -73q-46 -75 -253 -123zM125 1147q0 -72 100 -72q18 25 18 56q0 32 -18.5 54t-45.5 22q-23 0 -38.5 -17.5t-15.5 -42.5zM239 768q-96 -17 -198 -57l-10 29q44 18 74 26
q-53 26 -53 81q0 42 24.5 63.5t60.5 21.5q33 0 71 -18l-12 -28q-31 13 -59 13q-25 0 -40.5 -13t-15.5 -39q0 -27 21.5 -45t57.5 -18q8 0 73 13z" />
    <glyph glyph-name="uni0654064C" 
d="M175 1157q0 -65 96 -75q22 27 22 59t-18.5 54t-45.5 22q-23 0 -38.5 -17.5t-15.5 -42.5zM33 950l-7 32q33 16 45.5 30.5t12.5 35.5q0 20 -12 33.5t-35 13.5q-20 0 -40 -10l-12 26q27 14 59 14q31 0 50.5 -20.5t19.5 -58.5q0 -28 -18 -49q115 31 152 62q-52 4 -77.5 29
t-25.5 65t25 68t66 28q37 0 61.5 -28t24.5 -71q0 -40 -16 -69q-46 -81 -273 -131zM268 763q-96 -17 -198 -57l-10 29q44 18 74 26q-53 26 -53 81q0 42 24.5 63.5t60.5 21.5q33 0 71 -18l-12 -28q-31 13 -59 13q-25 0 -40.5 -13t-15.5 -39q0 -27 21.5 -45t57.5 -18q8 0 73 13
z" />
    <glyph glyph-name="uni06550650" 
d="M243 -342q-96 -17 -198 -57l-10 29q44 18 74 26q-53 26 -53 81q0 42 24.5 63.5t60.5 21.5q33 0 71 -18l-12 -28q-31 13 -59 13q-25 0 -40.5 -13t-15.5 -39q0 -27 21.5 -45t57.5 -18q8 0 73 13zM282 -427v-32q-111 -18 -272 -59v32q129 37 272 59z" />
    <glyph glyph-name="uni0655064D" 
d="M238 -344q-96 -17 -198 -57l-10 29q44 18 74 26q-53 26 -53 81q0 42 24.5 63.5t60.5 21.5q33 0 71 -18l-12 -28q-31 13 -59 13q-25 0 -40.5 -13t-15.5 -39q0 -27 21.5 -45t57.5 -18q8 0 73 13zM272 -431v-32q-111 -18 -272 -59v32q129 37 272 59zM272 -541v-32
q-111 -18 -272 -59v32q129 37 272 59z" />
    <glyph glyph-name="ovalComp" 
d="M1 0h-1q-19 0 -19 18q0 19 19 19q18 0 18 -19q0 -18 -17 -18z" />
    <glyph glyph-name="uniFEDFFEE0FEEA" horiz-adv-x="1082" 
d="M830 0q-124 0 -153 102q-27 -102 -160 -102q-127 0 -145 97q-40 -5 -90 -5q-94 0 -150.5 24t-56.5 74q0 97 93 170.5t243 73.5q-9 -252 -9 -292q0 -55 26.5 -80t95.5 -25q44 0 73 13.5t42 41t17.5 56.5t4.5 72v348l35 4v-355q0 -98 31.5 -139t102.5 -41q55 0 120 24
q6 34 6 97q0 93 -23 461l35 5q24 -381 24 -468q0 -70 -13 -120q-66 -36 -149 -36zM302 126q35 0 66 4v7q0 9 1 37t2.5 91t3.5 132q-116 -4 -190.5 -67t-74.5 -133q0 -33 48.5 -52t143.5 -19z" />
    <glyph glyph-name="ITF" horiz-adv-x="1639" 
d="M1363 496v204h216v-204h-216zM1102 0v700h217v-700h-217zM842 496v204h216v-204h-216zM581 0v700h217v-700h-217zM321 496v204h216v-204h-216zM60 0v700h216v-700h-216zM1363 247v205h216v-205h-216z" />
    </font>
</defs>
</svg>
